<?xml version="1.0" encoding="UTF-8"?>
<svg width="318px" height="109px" viewBox="0 0 318 109" version="1.1" xmlns="http://www.w3.org/2000/svg" xmlns:xlink="http://www.w3.org/1999/xlink">
    <title>AR-PL-UMing</title>
    <g id="页面-1" stroke="none" stroke-width="1" fill="none" fill-rule="evenodd">
        <g id="画板" transform="translate(-161.000000, -266.000000)" fill="#FFFFFF" fill-rule="nonzero">
            <path d="M170.195313,279.414063 C170.169271,279.674479 170.351563,279.726563 170.742188,279.570313 C171.171875,279.394531 171.513672,279.255371 171.767578,279.152832 L171.992188,279.0625 C172.096354,279.036458 172.161458,278.919271 172.1875,278.710938 L172.1875,278.710938 L172.1875,277.8125 L189.0625,277.8125 L189.0625,279.140625 C189.0625,279.401042 189.088542,279.544271 189.140625,279.570313 C189.244792,279.596354 189.856771,279.414063 190.976563,279.023438 C191.132813,278.997396 191.197917,278.841146 191.171875,278.554688 C191.015625,276.966146 190.9375,275.703125 190.9375,274.765625 L190.9375,274.765625 L190.9375,270.390625 C190.9375,270.208333 190.963542,270.039063 191.015625,269.882813 C191.041667,269.700521 191.393229,269.453125 192.070313,269.140625 C192.252604,269.036458 192.369792,268.919271 192.421875,268.789063 C192.447917,268.684896 192.34375,268.528646 192.109375,268.320313 C191.380208,267.747396 190.638021,267.213542 189.882813,266.71875 C189.700521,266.536458 189.518229,266.549479 189.335938,266.757813 L189.335938,266.757813 L188.632813,267.851563 C188.554688,267.955729 188.4375,268.007813 188.28125,268.007813 L188.28125,268.007813 L172.109375,268.007813 C171.640625,267.669271 171.236979,267.330729 170.898438,266.992188 C170.664063,266.757813 170.494792,266.679688 170.390625,266.757813 C170.286458,266.783854 170.234375,266.914063 170.234375,267.148438 C170.260417,267.643229 170.286458,268.229167 170.3125,268.90625 L170.3125,268.90625 L170.3125,277.421875 C170.286458,278.072917 170.247396,278.736979 170.195313,279.414063 Z M189.0625,272.226563 L172.1875,272.226563 L172.1875,269.21875 L189.0625,269.21875 L189.0625,272.226563 Z M189.0625,276.601563 L172.1875,276.601563 L172.1875,273.4375 L189.0625,273.4375 L189.0625,276.601563 Z M177.003906,303.563368 L177.070313,303.554688 L178.789063,302.851563 C178.971354,302.825521 179.0625,302.695313 179.0625,302.460938 C178.958333,300.585938 178.90625,298.398438 178.90625,295.898438 C180.026042,295.559896 181.223958,295.234375 182.5,294.921875 C182.916667,294.817708 183.111979,294.622396 183.085938,294.335938 C183.059896,294.101563 182.864583,294.023438 182.5,294.101563 C181.328125,294.283854 180.130208,294.518229 178.90625,294.804688 L178.90625,294.804688 L178.90625,282.1875 L197.460938,282.1875 C197.799479,282.161458 197.994792,282.044271 198.046875,281.835938 C198.072917,281.601563 197.955729,281.354167 197.695313,281.09375 C196.914063,280.286458 196.119792,279.518229 195.3125,278.789063 C195.078125,278.554688 194.869792,278.554688 194.6875,278.789063 L194.6875,278.789063 L193.671875,280.234375 C193.4375,280.494792 193.255208,280.690104 193.125,280.820313 C193.020833,280.924479 192.8125,280.976563 192.5,280.976563 L192.5,280.976563 L165.117188,280.976563 C164.934896,280.950521 164.049479,280.859375 162.460938,280.703125 C162.122396,280.625 162.03125,280.716146 162.1875,280.976563 C162.447917,281.393229 162.747396,281.861979 163.085938,282.382813 C163.111979,282.460938 163.190104,282.486979 163.320313,282.460938 C164.205729,282.278646 165,282.1875 165.703125,282.1875 L165.703125,282.1875 L167.5,282.1875 L167.5,296.796875 C165.625,296.979167 163.854167,297.135417 162.1875,297.265625 C161.927083,297.265625 161.770833,297.304688 161.71875,297.382813 C161.692708,297.460938 161.822917,297.65625 162.109375,297.96875 C162.604167,298.515625 162.96875,299.127604 163.203125,299.804688 C163.28125,300.065104 163.372396,300.182292 163.476563,300.15625 C163.580729,300.15625 163.697917,300.104167 163.828125,300 C164.791667,299.375 165.559896,298.997396 166.132813,298.867188 C169.127604,298.242188 172.734375,297.408854 176.953125,296.367188 C176.927083,298.268229 176.861979,300.481771 176.757813,303.007813 C176.731771,303.424479 176.835938,303.606771 177.070313,303.554688 L177.003906,303.563368 Z M177.03125,285.976563 L169.375,285.976563 L169.375,282.1875 L177.03125,282.1875 L177.03125,285.976563 Z M195.15625,303.007813 C195.390625,303.164063 195.559896,303.177083 195.664063,303.046875 C195.898438,302.734375 196.276042,302.408854 196.796875,302.070313 C197.265625,301.809896 197.708333,301.627604 198.125,301.523438 C198.28125,301.497396 198.372396,301.40625 198.398438,301.25 C198.398438,301.067708 198.320313,300.963542 198.164063,300.9375 C197.903646,300.859375 197.669271,300.794271 197.460938,300.742188 C195.481771,300.247396 193.658854,299.388021 191.992188,298.164063 C191.210938,297.591146 190.494792,296.979167 189.84375,296.328125 C190.104167,295.989583 190.351563,295.638021 190.585938,295.273438 C191.705729,293.528646 192.643229,291.432292 193.398438,288.984375 C193.658854,288.020833 193.867188,287.460938 194.023438,287.304688 C194.205729,287.070313 194.752604,286.757813 195.664063,286.367188 C195.768229,286.341146 195.78125,286.236979 195.703125,286.054688 C195.052083,285.351563 194.322917,284.609375 193.515625,283.828125 C193.411458,283.671875 193.28125,283.59375 193.125,283.59375 C192.96875,283.59375 192.838542,283.697917 192.734375,283.90625 L192.734375,283.90625 L191.679688,285.234375 C191.575521,285.3125 191.354167,285.351563 191.015625,285.351563 L191.015625,285.351563 L183.554688,285.351563 C183.372396,285.325521 182.486979,285.247396 180.898438,285.117188 C180.559896,285.039063 180.46875,285.130208 180.625,285.390625 C180.885417,285.807292 181.184896,286.263021 181.523438,286.757813 C181.549479,286.835938 181.627604,286.861979 181.757813,286.835938 C182.460938,286.679688 183.125,286.601563 183.75,286.601563 C184.557292,289.986979 185.494792,292.708333 186.5625,294.765625 C186.875,295.338542 187.213542,295.898438 187.578125,296.445313 C186.848958,297.252604 186.015625,298.072917 185.078125,298.90625 C183.489583,300.182292 181.861979,301.197917 180.195313,301.953125 C179.726563,302.057292 179.53125,302.317708 179.609375,302.734375 C179.713542,303.072917 180.026042,303.177083 180.546875,303.046875 C182.994792,302.083333 185.052083,300.911458 186.71875,299.53125 C187.369792,298.984375 187.994792,298.411458 188.59375,297.8125 C188.854167,298.151042 189.153646,298.502604 189.492188,298.867188 C190.664063,300.065104 192.552083,301.445313 195.15625,303.007813 Z M188.671875,294.960938 C188.4375,294.700521 188.229167,294.414063 188.046875,294.101563 C187.005208,292.591146 185.833333,290.078125 184.53125,286.5625 L184.53125,286.5625 L191.835938,286.5625 C191.028646,290.15625 189.973958,292.955729 188.671875,294.960938 Z M177.03125,290.820313 L169.375,290.820313 L169.375,287.1875 L177.03125,287.1875 L177.03125,290.820313 Z M169.375,296.523438 L169.375,292.03125 L177.03125,292.03125 L177.03125,294.257813 C177.005208,294.518229 176.992188,294.817708 176.992188,295.15625 C174.934896,295.494792 172.799479,295.872396 170.585938,296.289063 C170.169271,296.315104 169.765625,296.393229 169.375,296.523438 L169.375,296.523438 Z M202.03125,302.96875 C202.057292,303.307292 202.34375,303.411458 202.890625,303.28125 C205.885417,302.1875 208.424479,300.690104 210.507813,298.789063 C212.408854,297.044271 213.854167,294.986979 214.84375,292.617188 C215.78125,290.403646 216.25,287.96875 216.25,285.3125 L216.25,285.3125 L216.25,283.28125 L222.8125,283.28125 L222.8125,299.140625 C222.8125,300.260417 223.020833,301.015625 223.4375,301.40625 C223.854167,301.822917 224.322917,302.03125 224.84375,302.03125 L224.84375,302.03125 L234.6875,302.03125 C235.572917,302.03125 236.302083,301.809896 236.875,301.367188 C237.34375,301.028646 237.708333,300.46875 237.96875,299.6875 C238.072917,299.583333 238.059896,299.479167 237.929688,299.375 C237.617188,299.192708 237.395833,298.828125 237.265625,298.28125 C237.109375,297.317708 237.174479,295.807292 237.460938,293.75 C237.486979,293.4375 237.382813,293.268229 237.148438,293.242188 C236.888021,293.216146 236.731771,293.359375 236.679688,293.671875 C236.184896,296.041667 235.716146,297.786458 235.273438,298.90625 C235.039063,299.479167 234.804688,299.830729 234.570313,299.960938 C234.335938,300.065104 233.997396,300.130208 233.554688,300.15625 L233.554688,300.15625 L225.820313,300.15625 C225.481771,300.15625 225.208333,300.039063 225,299.804688 C224.817708,299.622396 224.713542,299.257813 224.6875,298.710938 L224.6875,298.710938 L224.6875,283.28125 L237.304688,283.28125 C237.643229,283.255208 237.838542,283.138021 237.890625,282.929688 C237.916667,282.695313 237.799479,282.447917 237.539063,282.1875 C236.757813,281.380208 235.963542,280.611979 235.15625,279.882813 C234.921875,279.648438 234.713542,279.648438 234.53125,279.882813 L234.53125,279.882813 L233.515625,281.328125 C233.28125,281.588542 233.098958,281.783854 232.96875,281.914063 C232.864583,282.018229 232.65625,282.070313 232.34375,282.070313 L232.34375,282.070313 L221.09375,282.070313 L221.09375,269.765625 C221.09375,269.348958 221.184896,269.049479 221.367188,268.867188 C221.471354,268.763021 221.809896,268.502604 222.382813,268.085938 C222.617188,267.929688 222.617188,267.786458 222.382813,267.65625 C221.809896,267.34375 220.820313,266.966146 219.414063,266.523438 C219.153646,266.445313 219.036458,266.614583 219.0625,267.03125 C219.140625,267.838542 219.192708,268.75 219.21875,269.765625 L219.21875,269.765625 L219.21875,282.070313 L205.117188,282.070313 C204.934896,282.044271 204.049479,281.953125 202.460938,281.796875 C202.122396,281.71875 202.03125,281.809896 202.1875,282.070313 C202.447917,282.486979 202.747396,282.955729 203.085938,283.476563 C203.111979,283.554688 203.190104,283.580729 203.320313,283.554688 C204.205729,283.372396 205,283.28125 205.703125,283.28125 L205.703125,283.28125 L214.375,283.28125 L214.375,285.3125 C214.348958,287.526042 213.971354,289.6875 213.242188,291.796875 C212.382813,294.166667 211.054688,296.236979 209.257813,298.007813 C207.773438,299.440104 205.585938,300.807292 202.695313,302.109375 C202.200521,302.291667 201.979167,302.578125 202.03125,302.96875 Z M225.351563,280.46875 C225.611979,280.651042 225.872396,280.585938 226.132813,280.273438 C228.033854,277.903646 229.440104,275.911458 230.351563,274.296875 L230.351563,274.296875 L230.55404,273.948317 C230.61691,273.840144 230.675157,273.739984 230.728781,273.647837 L230.938887,273.28726 C230.978643,273.219151 231.013776,273.159054 231.044286,273.106971 L231.121949,272.97476 C231.143214,272.938702 231.159856,272.910657 231.171875,272.890625 C231.40625,272.552083 232.044271,272.070313 233.085938,271.445313 C233.164063,271.419271 233.216146,271.367188 233.242188,271.289063 C233.268229,271.210938 233.242188,271.145833 233.164063,271.09375 C232.278646,270.46875 231.497396,269.973958 230.820313,269.609375 C230.664063,269.505208 230.546875,269.479167 230.46875,269.53125 C230.364583,269.557292 230.299479,269.648438 230.273438,269.804688 C229.700521,271.601563 229.023438,273.320313 228.242188,274.960938 C227.591146,276.393229 226.653646,277.929688 225.429688,279.570313 C225.117188,279.960938 225.091146,280.260417 225.351563,280.46875 Z M212.851563,279.804688 C213.111979,279.830729 213.424479,279.544271 213.789063,278.945313 C214.205729,278.216146 214.388021,277.591146 214.335938,277.070313 C214.335938,276.289063 213.971354,275.455729 213.242188,274.570313 C212.122396,273.138021 210.390625,271.601563 208.046875,269.960938 C207.786458,269.726563 207.578125,269.6875 207.421875,269.84375 C207.317708,270 207.317708,270.169271 207.421875,270.351563 C208.776042,271.757813 209.830729,273.072917 210.585938,274.296875 C211.393229,275.625 211.992188,277.200521 212.382813,279.023438 C212.408854,279.518229 212.565104,279.778646 212.851563,279.804688 Z M271.640625,303.4375 C271.71875,303.541667 271.901042,303.528646 272.1875,303.398438 C272.838542,303.164063 273.424479,302.734375 273.945313,302.109375 C274.440104,301.536458 274.6875,300.794271 274.6875,299.882813 L274.6875,299.882813 L274.6875,270.859375 C274.6875,270.755208 274.726563,270.638021 274.804688,270.507813 C274.882813,270.403646 275.351563,270.143229 276.210938,269.726563 C276.393229,269.648438 276.393229,269.492188 276.210938,269.257813 C275.585938,268.606771 274.869792,267.955729 274.0625,267.304688 C273.958333,267.200521 273.854167,267.148438 273.75,267.148438 C273.645833,267.148438 273.567708,267.200521 273.515625,267.304688 L273.515625,267.304688 L272.539063,268.59375 C272.513021,268.619792 272.382813,268.632813 272.148438,268.632813 L272.148438,268.632813 L262.734375,268.632813 C262.161458,268.294271 261.692708,267.942708 261.328125,267.578125 C261.145833,267.395833 260.989583,267.317708 260.859375,267.34375 C260.755208,267.421875 260.716146,267.565104 260.742188,267.773438 C260.976563,268.815104 261.106771,269.830729 261.132813,270.820313 L261.132813,270.820313 L261.132813,279.765625 C261.132813,284.401042 260.820313,288.111979 260.195313,290.898438 C259.544271,293.736979 258.359375,296.054688 256.640625,297.851563 C255.078125,299.361979 252.760417,300.9375 249.6875,302.578125 C249.427083,302.682292 249.335938,302.890625 249.414063,303.203125 C249.518229,303.515625 249.778646,303.567708 250.195313,303.359375 C253.893229,301.692708 256.744792,299.804688 258.75,297.695313 C260.494792,295.872396 261.614583,293.528646 262.109375,290.664063 C262.213542,290.013021 262.304688,289.322917 262.382813,288.59375 L262.382813,288.59375 L272.8125,288.59375 L272.8125,299.335938 C272.8125,299.804688 272.695313,300.078125 272.460938,300.15625 C272.200521,300.338542 271.40625,300.377604 270.078125,300.273438 C268.723958,300.195313 267.565104,300.130208 266.601563,300.078125 C266.263021,300.078125 266.09375,300.195313 266.09375,300.429688 C266.067708,300.690104 266.184896,300.846354 266.445313,300.898438 C267.955729,301.158854 269.0625,301.471354 269.765625,301.835938 C270.651042,302.304688 271.276042,302.838542 271.640625,303.4375 Z M243.75,295.039063 C243.932292,295.039063 244.505208,294.817708 245.46875,294.375 C245.651042,294.296875 245.755208,294.127604 245.78125,293.867188 C245.755208,292.669271 245.742188,291.328125 245.742188,289.84375 L245.742188,289.84375 L253.4375,289.84375 L253.4375,292.851563 C253.4375,293.242188 253.528646,293.398438 253.710938,293.320313 C254.205729,293.138021 254.713542,292.916667 255.234375,292.65625 C255.416667,292.630208 255.494792,292.513021 255.46875,292.304688 C255.3125,289.544271 255.260417,287.226563 255.3125,285.351563 L255.3125,285.351563 L255.3125,271.601563 C255.3125,271.523438 255.377604,271.445313 255.507813,271.367188 C255.54387,271.33113 255.652043,271.245146 255.832332,271.109236 L256.036659,270.956685 C256.226963,270.81569 256.467348,270.640024 256.757813,270.429688 C256.914063,270.351563 256.901042,270.221354 256.71875,270.039063 C256.145833,269.544271 255.455729,268.997396 254.648438,268.398438 C254.414063,268.242188 254.231771,268.255208 254.101563,268.4375 L254.101563,268.4375 L253.125,269.453125 C252.942708,269.635417 252.695313,269.726563 252.382813,269.726563 L252.382813,269.726563 L245.3125,269.726563 L245.3125,269.765625 C244.84375,269.427083 244.479167,269.114583 244.21875,268.828125 C243.958333,268.567708 243.776042,268.463542 243.671875,268.515625 C243.59375,268.541667 243.580729,268.684896 243.632813,268.945313 C243.789063,270.143229 243.880208,271.158854 243.90625,271.992188 L243.90625,271.992188 L243.90625,286.210938 C243.828125,288.971354 243.736979,291.653646 243.632813,294.257813 C243.606771,294.752604 243.645833,295.013021 243.75,295.039063 Z M272.8125,277.851563 L263.007813,277.851563 L263.007813,269.84375 L272.8125,269.84375 L272.8125,277.851563 Z M253.4375,278.945313 L245.78125,278.945313 L245.78125,270.9375 L253.4375,270.9375 L253.4375,278.945313 Z M272.8125,287.382813 L262.539063,287.382813 C262.799479,284.934896 262.942708,282.161458 262.96875,279.0625 L262.96875,279.0625 L272.8125,279.0625 L272.8125,287.382813 Z M253.4375,288.632813 L245.742188,288.632813 C245.742188,287.851563 245.755208,287.044271 245.78125,286.210938 L245.78125,286.210938 L245.78125,280.15625 L253.4375,280.15625 L253.4375,288.632813 Z M283.59375,302.382813 C283.776042,302.382813 284.348958,302.161458 285.3125,301.71875 C285.494792,301.640625 285.598958,301.471354 285.625,301.210938 C285.598958,300.247396 285.585938,299.21875 285.585938,298.125 L285.585938,298.125 L294.375,298.125 L294.375,300.820313 C294.375,301.210938 294.466146,301.367188 294.648438,301.289063 C295.143229,301.106771 295.651042,300.885417 296.171875,300.625 C296.354167,300.598958 296.432292,300.481771 296.40625,300.273438 C296.25,297.513021 296.197917,295.195313 296.25,293.320313 L296.25,293.320313 L296.25,276.757813 C296.25,276.679688 296.315104,276.601563 296.445313,276.523438 C296.523438,276.445313 296.940104,276.132813 297.695313,275.585938 C297.851563,275.507813 297.838542,275.377604 297.65625,275.195313 C297.083333,274.700521 296.393229,274.153646 295.585938,273.554688 C295.351563,273.398438 295.169271,273.411458 295.039063,273.59375 L295.039063,273.59375 L294.0625,274.609375 C293.880208,274.791667 293.632813,274.882813 293.320313,274.882813 L293.320313,274.882813 L288.398438,274.882813 C289.283854,273.138021 289.921875,271.705729 290.3125,270.585938 C290.494792,270.013021 290.625,269.661458 290.703125,269.53125 C290.885417,269.192708 291.419271,268.606771 292.304688,267.773438 C292.382813,267.695313 292.421875,267.617188 292.421875,267.539063 C292.421875,267.460938 292.382813,267.408854 292.304688,267.382813 C291.341146,266.966146 290.46875,266.640625 289.6875,266.40625 C289.505208,266.328125 289.388021,266.328125 289.335938,266.40625 C289.257813,266.432292 289.205729,266.536458 289.179688,266.71875 C289.101563,268.072917 288.919271,269.427083 288.632813,270.78125 C288.398438,271.901042 287.994792,273.177083 287.421875,274.609375 C287.395833,274.6875 287.356771,274.778646 287.304688,274.882813 L287.304688,274.882813 L285.3125,274.882813 C284.817708,274.492188 284.401042,274.140625 284.0625,273.828125 C283.802083,273.567708 283.619792,273.463542 283.515625,273.515625 C283.4375,273.541667 283.424479,273.684896 283.476563,273.945313 C283.632813,275.143229 283.723958,276.158854 283.75,276.992188 L283.75,276.992188 L283.75,293.554688 C283.671875,296.315104 283.580729,298.997396 283.476563,301.601563 C283.450521,302.096354 283.489583,302.356771 283.59375,302.382813 Z M310.429688,303.046875 C310.533854,303.229167 310.716146,303.229167 310.976563,303.046875 C312.096354,302.578125 313.072917,301.861979 313.90625,300.898438 C314.635417,300.013021 315.117188,298.723958 315.351563,297.03125 C315.664063,294.583333 315.859375,291.328125 315.9375,287.265625 C316.015625,282.864583 316.080729,279.440104 316.132813,276.992188 C316.132813,276.809896 316.197917,276.653646 316.328125,276.523438 C316.354167,276.497396 316.731771,276.276042 317.460938,275.859375 C317.643229,275.755208 317.65625,275.625 317.5,275.46875 C316.927083,274.895833 316.158854,274.21875 315.195313,273.4375 C314.960938,273.177083 314.765625,273.177083 314.609375,273.4375 L314.609375,273.4375 L313.710938,274.6875 C313.606771,274.791667 313.411458,274.856771 313.125,274.882813 L313.125,274.882813 L303.75,274.882813 C304.713542,272.747396 305.494792,270.872396 306.09375,269.257813 C306.119792,269.179688 306.158854,269.088542 306.210938,268.984375 C306.315104,268.880208 306.796875,268.684896 307.65625,268.398438 C307.760417,268.372396 307.838542,268.294271 307.890625,268.164063 C307.916667,268.085938 307.864583,267.994792 307.734375,267.890625 C307.005208,267.473958 306.041667,267.018229 304.84375,266.523438 C304.53125,266.419271 304.322917,266.380208 304.21875,266.40625 C304.114583,266.432292 304.049479,266.588542 304.023438,266.875 C303.684896,269.010417 303.098958,271.341146 302.265625,273.867188 C301.25,276.861979 299.765625,280.182292 297.8125,283.828125 C297.708333,284.088542 297.747396,284.257813 297.929688,284.335938 C298.111979,284.440104 298.28125,284.375 298.4375,284.140625 C300.182292,281.692708 301.770833,279.010417 303.203125,276.09375 L303.203125,276.09375 L314.296875,276.09375 C314.192708,279.0625 314.101563,283.164063 314.023438,288.398438 C313.945313,292.851563 313.710938,295.898438 313.320313,297.539063 C313.085938,298.502604 312.708333,299.244792 312.1875,299.765625 C311.927083,300.026042 311.497396,300.195313 310.898438,300.273438 C309.804688,300.377604 307.994792,300.286458 305.46875,300 C305.15625,299.973958 304.973958,300.065104 304.921875,300.273438 C304.895833,300.455729 305.078125,300.611979 305.46875,300.742188 C307.421875,301.158854 308.736979,301.601563 309.414063,302.070313 C309.882813,302.408854 310.221354,302.734375 310.429688,303.046875 Z M294.375,285.195313 L285.625,285.195313 L285.625,276.09375 L294.375,276.09375 L294.375,285.195313 Z M306.40625,291.953125 C306.666667,291.979167 306.992188,291.705729 307.382813,291.132813 C307.799479,290.403646 308.007813,289.778646 308.007813,289.257813 C308.007813,288.606771 307.708333,287.903646 307.109375,287.148438 C306.171875,285.872396 304.713542,284.518229 302.734375,283.085938 C302.473958,282.903646 302.265625,282.864583 302.109375,282.96875 C302.005208,283.125 302.005208,283.294271 302.109375,283.476563 C303.203125,284.752604 304.036458,285.924479 304.609375,286.992188 C305.260417,288.190104 305.716146,289.570313 305.976563,291.132813 C306.002604,291.627604 306.145833,291.901042 306.40625,291.953125 Z M294.375,296.914063 L285.585938,296.914063 C285.585938,295.872396 285.598958,294.752604 285.625,293.554688 L285.625,293.554688 L285.625,286.40625 L294.375,286.40625 L294.375,296.914063 Z M344.0625,303.320313 C344.244792,303.320313 344.817708,303.098958 345.78125,302.65625 C345.963542,302.578125 346.067708,302.408854 346.09375,302.148438 C346.082589,301.24442 346.076212,300.259088 346.074617,299.192443 L346.074617,298.098693 C346.076212,296.977838 346.082589,295.77567 346.09375,294.492188 L346.09375,294.492188 L346.09375,269.6875 L353.789063,269.6875 C353.945313,269.661458 354.049479,269.661458 354.101563,269.6875 C354.127604,269.713542 354.140625,269.804688 354.140625,269.960938 C353.020833,273.242188 351.71875,276.692708 350.234375,280.3125 C350.052083,280.729167 350.091146,281.028646 350.351563,281.210938 C351.835938,282.565104 353.242188,284.166667 354.570313,286.015625 C355.377604,287.057292 355.794271,288.229167 355.820313,289.53125 C355.846354,290.807292 355.651042,291.861979 355.234375,292.695313 C354.765625,293.632813 354.127604,294.179688 353.320313,294.335938 C352.226563,294.570313 350.755208,294.492188 348.90625,294.101563 C348.411458,293.997396 348.111979,294.101563 348.007813,294.414063 C347.929688,294.674479 348.138021,294.895833 348.632813,295.078125 C349.830729,295.390625 350.768229,295.794271 351.445313,296.289063 C352.018229,296.705729 352.369792,297.083333 352.5,297.421875 C352.578125,297.65625 352.890625,297.630208 353.4375,297.34375 C355,296.5625 356.197917,295.625 357.03125,294.53125 C357.682292,293.645833 358.007813,292.460938 358.007813,290.976563 C357.981771,289.492188 357.617188,288.177083 356.914063,287.03125 C355.664063,284.895833 353.776042,282.942708 351.25,281.171875 C351.067708,281.015625 351.028646,280.820313 351.132813,280.585938 C352.460938,277.044271 354.179688,273.645833 356.289063,270.390625 C356.627604,269.895833 357.070313,269.544271 357.617188,269.335938 C357.877604,269.231771 357.903646,269.075521 357.695313,268.867188 C357.148438,268.294271 356.497396,267.734375 355.742188,267.1875 C355.559896,267.005208 355.377604,267.018229 355.195313,267.226563 L355.195313,267.226563 L354.492188,268.046875 C354.309896,268.307292 354.101563,268.450521 353.867188,268.476563 L353.867188,268.476563 L345.546875,268.476563 C345.130208,268.138021 344.791667,267.838542 344.53125,267.578125 C344.270833,267.317708 344.088542,267.213542 343.984375,267.265625 C343.90625,267.291667 343.893229,267.434896 343.945313,267.695313 C344.101563,268.893229 344.192708,269.908854 344.21875,270.742188 L344.21875,270.742188 L344.21875,294.492188 C344.140625,297.252604 344.049479,299.934896 343.945313,302.539063 C343.919271,303.033854 343.958333,303.294271 344.0625,303.320313 Z M321.71875,302.929688 C321.901042,303.164063 322.161458,303.125 322.5,302.8125 C325.15625,300.3125 327.122396,297.890625 328.398438,295.546875 C329.361979,293.802083 330.052083,291.627604 330.46875,289.023438 C330.494792,288.606771 330.546875,288.151042 330.625,287.65625 L330.625,287.65625 L337.578125,287.65625 C337.473958,291.901042 337.226563,294.908854 336.835938,296.679688 C336.575521,297.877604 336.119792,298.802083 335.46875,299.453125 C335.208333,299.765625 334.778646,299.934896 334.179688,299.960938 C333.085938,300.065104 331.276042,299.973958 328.75,299.6875 C328.4375,299.661458 328.255208,299.752604 328.203125,299.960938 C328.177083,300.143229 328.359375,300.299479 328.75,300.429688 C330.703125,300.846354 332.018229,301.289063 332.695313,301.757813 C333.164063,302.096354 333.502604,302.421875 333.710938,302.734375 C333.815104,302.916667 333.997396,302.916667 334.257813,302.734375 C335.377604,302.265625 336.354167,301.549479 337.1875,300.585938 C338.072917,299.466146 338.658854,297.864583 338.945313,295.78125 C339.283854,292.734375 339.492188,288.710938 339.570313,283.710938 C339.596354,278.242188 339.648438,274.010417 339.726563,271.015625 C339.726563,270.755208 339.791667,270.559896 339.921875,270.429688 C339.947917,270.403646 340.325521,270.182292 341.054688,269.765625 C341.236979,269.661458 341.25,269.53125 341.09375,269.375 C340.520833,268.802083 339.752604,268.125 338.789063,267.34375 C338.554688,267.083333 338.359375,267.083333 338.203125,267.34375 L338.203125,267.34375 L337.304688,268.59375 C337.200521,268.697917 337.005208,268.763021 336.71875,268.789063 L336.71875,268.789063 L325.273438,268.789063 C325.091146,268.763021 324.205729,268.684896 322.617188,268.554688 C322.278646,268.476563 322.1875,268.567708 322.34375,268.828125 C322.604167,269.244792 322.903646,269.700521 323.242188,270.195313 C323.268229,270.273438 323.346354,270.299479 323.476563,270.273438 C324.361979,270.091146 325.15625,270 325.859375,270 L325.859375,270 L329.375,270 L329.375,275 C329.348958,275.9375 329.335938,276.835938 329.335938,277.695313 L329.335938,277.695313 L324.960938,277.695313 C324.778646,277.669271 323.893229,277.591146 322.304688,277.460938 C321.966146,277.382813 321.875,277.473958 322.03125,277.734375 C322.291667,278.151042 322.591146,278.606771 322.929688,279.101563 C322.955729,279.179688 323.033854,279.205729 323.164063,279.179688 C324.049479,278.997396 324.84375,278.90625 325.546875,278.90625 L325.546875,278.90625 L329.296875,278.90625 C329.21875,281.953125 329.088542,284.466146 328.90625,286.445313 L328.90625,286.445313 L324.804688,286.445313 C324.622396,286.419271 323.736979,286.341146 322.148438,286.210938 C321.809896,286.132813 321.71875,286.223958 321.875,286.484375 C322.135417,286.901042 322.434896,287.356771 322.773438,287.851563 C322.799479,287.929688 322.877604,287.955729 323.007813,287.929688 C323.893229,287.747396 324.6875,287.65625 325.390625,287.65625 L325.390625,287.65625 L328.789063,287.65625 L328.710938,288.359375 C328.320313,291.041667 327.591146,293.4375 326.523438,295.546875 C325.559896,297.578125 323.997396,299.804688 321.835938,302.226563 C321.575521,302.460938 321.536458,302.695313 321.71875,302.929688 Z M337.734375,277.695313 L331.210938,277.695313 C331.210938,276.809896 331.223958,275.911458 331.25,275 L331.25,275 L331.25,270 L337.890625,270 C337.8125,272.057292 337.760417,274.622396 337.734375,277.695313 L337.734375,277.695313 Z M337.617188,286.445313 L330.78125,286.445313 C330.963542,284.335938 331.09375,281.822917 331.171875,278.90625 L331.171875,278.90625 L337.695313,278.90625 C337.669271,280.807292 337.65625,282.942708 337.65625,285.3125 C337.630208,285.651042 337.617188,286.028646 337.617188,286.445313 L337.617188,286.445313 Z M362.148438,285.234375 C362.252604,285.416667 362.460938,285.429688 362.773438,285.273438 C368.346354,282.304688 373.815104,277.552083 379.179688,271.015625 C379.830729,270.130208 380.3125,269.570313 380.625,269.335938 C383.046875,274.908854 387.604167,279.947917 394.296875,284.453125 C394.609375,284.6875 394.817708,284.726563 394.921875,284.570313 C395.260417,283.997396 395.716146,283.59375 396.289063,283.359375 C396.783854,283.177083 397.239583,283.098958 397.65625,283.125 C397.994792,283.151042 398.177083,283.059896 398.203125,282.851563 C398.229167,282.669271 398.151042,282.565104 397.96875,282.539063 C392.1875,281.289063 387.317708,277.877604 383.359375,272.304688 C382.630208,271.289063 381.966146,270.208333 381.367188,269.0625 C381.393229,269.036458 381.458333,269.036458 381.5625,269.0625 C381.953125,269.088542 382.1875,269.023438 382.265625,268.867188 C382.34375,268.763021 382.278646,268.619792 382.070313,268.4375 C381.341146,267.864583 380.46875,267.265625 379.453125,266.640625 C379.270833,266.536458 379.114583,266.614583 378.984375,266.875 C377.03125,270.572917 374.84375,273.763021 372.421875,276.445313 C369.661458,279.414063 366.302083,282.161458 362.34375,284.6875 C362.109375,284.84375 362.044271,285.026042 362.148438,285.234375 Z M378.632813,302.539063 C378.606771,303.085938 378.763021,303.229167 379.101563,302.96875 C379.830729,302.5 380.377604,302.148438 380.742188,301.914063 C380.898438,301.809896 380.963542,301.653646 380.9375,301.445313 C380.833333,299.388021 380.78125,296.835938 380.78125,293.789063 L380.78125,284.140625 C380.78125,282.552083 380.872396,281.510417 381.054688,281.015625 C381.158854,280.755208 381.419271,280.520833 381.835938,280.3125 C382.252604,280.078125 382.278646,279.869792 381.914063,279.6875 C381.445313,279.427083 380.507813,279.075521 379.101563,278.632813 C378.789063,278.528646 378.658854,278.697917 378.710938,279.140625 C378.815104,280.390625 378.880208,282.057292 378.90625,284.140625 L378.90625,284.140625 L378.90625,293.789063 C378.880208,296.158854 378.789063,299.075521 378.632813,302.539063 Z M419.347656,303.407118 L419.414063,303.398438 L421.132813,302.695313 C421.315104,302.669271 421.40625,302.539063 421.40625,302.304688 C421.302083,300.091146 421.25,297.356771 421.25,294.101563 L421.25,291.25 L437.617188,291.25 C437.955729,291.223958 438.151042,291.106771 438.203125,290.898438 C438.229167,290.664063 438.111979,290.416667 437.851563,290.15625 C437.070313,289.348958 436.276042,288.580729 435.46875,287.851563 C435.234375,287.617188 435.026042,287.617188 434.84375,287.851563 L434.84375,287.851563 L433.828125,289.296875 C433.59375,289.557292 433.411458,289.752604 433.28125,289.882813 C433.177083,289.986979 432.96875,290.039063 432.65625,290.039063 L432.65625,290.039063 L421.25,290.039063 L421.25,283.59375 L429.21875,283.59375 L429.21875,285.507813 C429.21875,285.898438 429.309896,286.054688 429.492188,285.976563 C429.986979,285.794271 430.494792,285.572917 431.015625,285.3125 C431.197917,285.286458 431.276042,285.169271 431.25,284.960938 C431.09375,282.200521 431.041667,279.882813 431.09375,278.007813 L431.09375,278.007813 L431.09375,270.039063 C431.09375,269.960938 431.158854,269.882813 431.289063,269.804688 C431.367188,269.726563 431.783854,269.414063 432.539063,268.867188 C432.695313,268.789063 432.682292,268.658854 432.5,268.476563 C431.927083,267.981771 431.236979,267.434896 430.429688,266.835938 C430.195313,266.679688 430.013021,266.692708 429.882813,266.875 L429.882813,266.875 L428.90625,267.890625 C428.723958,268.072917 428.476563,268.164063 428.164063,268.164063 L428.164063,268.164063 L411.054688,268.164063 C410.429688,267.695313 409.960938,267.291667 409.648438,266.953125 C409.466146,266.770833 409.335938,266.692708 409.257813,266.71875 C409.153646,266.744792 409.127604,266.914063 409.179688,267.226563 C409.283854,268.424479 409.348958,269.492188 409.375,270.429688 L409.375,270.429688 L409.375,277.304688 C409.348958,281.132813 409.283854,283.867188 409.179688,285.507813 C409.153646,285.898438 409.257813,286.054688 409.492188,285.976563 C409.986979,285.742188 410.494792,285.520833 411.015625,285.3125 C411.171875,285.286458 411.25,285.169271 411.25,284.960938 L411.25,284.960938 L411.25,283.59375 L419.375,283.59375 L419.375,290.039063 L405.117188,290.039063 C404.934896,290.013021 404.049479,289.921875 402.460938,289.765625 C402.122396,289.6875 402.03125,289.778646 402.1875,290.039063 C402.447917,290.455729 402.747396,290.924479 403.085938,291.445313 C403.111979,291.523438 403.190104,291.549479 403.320313,291.523438 C404.205729,291.341146 405,291.25 405.703125,291.25 L405.703125,291.25 L419.375,291.25 L419.375,294.101563 C419.348958,296.471354 419.257813,299.388021 419.101563,302.851563 C419.075521,303.268229 419.179688,303.450521 419.414063,303.398438 L419.347656,303.407118 Z M429.21875,275.195313 L411.25,275.195313 L411.25,269.375 L429.21875,269.375 L429.21875,275.195313 Z M429.21875,282.382813 L411.25,282.382813 L411.25,276.40625 L429.21875,276.40625 L429.21875,282.382813 Z M443.248438,301.689063 L443.320313,301.679688 C444.205729,301.497396 445,301.40625 445.703125,301.40625 L445.703125,301.40625 L477.460938,301.40625 C477.799479,301.380208 477.994792,301.263021 478.046875,301.054688 C478.072917,300.820313 477.955729,300.572917 477.695313,300.3125 C476.914063,299.505208 476.119792,298.736979 475.3125,298.007813 C475.078125,297.773438 474.869792,297.773438 474.6875,298.007813 L474.6875,298.007813 L473.671875,299.453125 C473.4375,299.713542 473.255208,299.908854 473.125,300.039063 C473.020833,300.143229 472.8125,300.195313 472.5,300.195313 L472.5,300.195313 L459.0625,300.195313 L459.0625,281.5625 L473.710938,281.5625 C474.049479,281.536458 474.244792,281.419271 474.296875,281.210938 C474.322917,280.976563 474.205729,280.729167 473.945313,280.46875 C473.216146,279.661458 472.421875,278.893229 471.5625,278.164063 C471.328125,277.929688 471.119792,277.929688 470.9375,278.164063 L470.9375,278.164063 L469.765625,279.804688 L469.765625,279.804688 L469.296875,280.273438 L468.75,280.351563 L459.0625,280.351563 L459.0625,269.921875 C459.0625,269.505208 459.153646,269.205729 459.335938,269.023438 C459.440104,268.919271 459.778646,268.658854 460.351563,268.242188 C460.585938,268.085938 460.585938,267.942708 460.351563,267.8125 C459.778646,267.5 458.789063,267.122396 457.382813,266.679688 C457.122396,266.601563 457.005208,266.770833 457.03125,267.1875 C457.109375,267.994792 457.161458,268.90625 457.1875,269.921875 L457.1875,269.921875 L457.1875,300.195313 L445.117188,300.195313 C444.934896,300.169271 444.049479,300.078125 442.460938,299.921875 C442.122396,299.84375 442.03125,299.934896 442.1875,300.195313 C442.447917,300.611979 442.747396,301.080729 443.085938,301.601563 C443.111979,301.679688 443.190104,301.705729 443.320313,301.679688 L443.248438,301.689063 Z M169.882813,374.046875 C169.986979,374.229167 170.208333,374.268229 170.546875,374.164063 C171.197917,373.981771 171.783854,373.604167 172.304688,373.03125 C172.799479,372.458333 173.072917,371.742188 173.125,370.882813 L173.125,370.882813 L173.125,359.242188 C175.182292,358.356771 177.447917,357.380208 179.921875,356.3125 C180.338542,356.15625 180.507813,355.934896 180.429688,355.648438 C180.351563,355.414063 180.130208,355.361979 179.765625,355.492188 C177.708333,356.195313 175.494792,356.963542 173.125,357.796875 L173.125,357.796875 L173.125,349.90625 L181.914063,349.90625 C182.096354,354.59375 182.591146,358.1875 183.398438,360.6875 C183.815104,362.041667 184.309896,363.304688 184.882813,364.476563 C184.231771,365.205729 183.567708,365.869792 182.890625,366.46875 C181.145833,368.03125 178.59375,369.763021 175.234375,371.664063 C174.895833,371.846354 174.804688,372.106771 174.960938,372.445313 C175.065104,372.705729 175.416667,372.692708 176.015625,372.40625 C180.3125,370.140625 183.541667,368.005208 185.703125,366 C186.640625,367.5625 187.747396,368.942708 189.023438,370.140625 C190.898438,371.885417 193.007813,373.057292 195.351563,373.65625 C196.471354,374.072917 197.200521,374.111979 197.539063,373.773438 C197.877604,373.434896 197.877604,372.966146 197.539063,372.367188 C197.278646,371.794271 197.174479,371.013021 197.226563,370.023438 C197.252604,368.825521 197.526042,367.054688 198.046875,364.710938 C198.072917,364.450521 197.96875,364.294271 197.734375,364.242188 C197.5,364.216146 197.356771,364.320313 197.304688,364.554688 C196.809896,366.533854 196.315104,368.213542 195.820313,369.59375 C195.481771,370.557292 195.117188,371.078125 194.726563,371.15625 C194.388021,371.260417 193.880208,371.182292 193.203125,370.921875 C191.484375,370.192708 189.869792,368.851563 188.359375,366.898438 C187.864583,366.247396 187.382813,365.518229 186.914063,364.710938 C188.424479,362.914063 190.078125,360.479167 191.875,357.40625 C192.5,356.364583 192.851563,355.791667 192.929688,355.6875 C193.033854,355.583333 193.528646,355.453125 194.414063,355.296875 C194.570313,355.296875 194.674479,355.231771 194.726563,355.101563 C194.752604,354.997396 194.6875,354.867188 194.53125,354.710938 C193.59375,354.059896 192.799479,353.486979 192.148438,352.992188 C192.044271,352.914063 191.927083,352.888021 191.796875,352.914063 C191.71875,352.940104 191.653646,353.083333 191.601563,353.34375 C191.028646,355.166667 189.856771,357.419271 188.085938,360.101563 C187.434896,361.117188 186.770833,362.067708 186.09375,362.953125 C185.546875,361.703125 185.117188,360.361979 184.804688,358.929688 C184.231771,356.559896 183.854167,353.552083 183.671875,349.90625 L183.671875,349.90625 L196.992188,349.90625 C197.330729,349.880208 197.526042,349.763021 197.578125,349.554688 C197.604167,349.320313 197.486979,349.072917 197.226563,348.8125 C196.445313,348.005208 195.651042,347.236979 194.84375,346.507813 C194.609375,346.273438 194.401042,346.273438 194.21875,346.507813 L194.21875,346.507813 L193.203125,347.953125 C192.96875,348.213542 192.786458,348.408854 192.65625,348.539063 C192.552083,348.643229 192.34375,348.695313 192.03125,348.695313 L192.03125,348.695313 L183.59375,348.695313 C183.567708,346.950521 183.554688,345.101563 183.554688,343.148438 C183.554688,341.169271 183.619792,340.075521 183.75,339.867188 C183.90625,339.684896 184.244792,339.528646 184.765625,339.398438 C185.026042,339.320313 185.169271,339.203125 185.195313,339.046875 C185.195313,338.942708 185.078125,338.825521 184.84375,338.695313 C183.958333,338.356771 183.007813,338.03125 181.992188,337.71875 C181.679688,337.614583 181.484375,337.588542 181.40625,337.640625 C181.328125,337.666667 181.302083,337.783854 181.328125,337.992188 C181.588542,339.658854 181.744792,342.028646 181.796875,345.101563 C181.796875,346.351563 181.809896,347.549479 181.835938,348.695313 L181.835938,348.695313 L173.125,348.695313 L173.125,341.820313 C173.151042,341.794271 173.242188,341.768229 173.398438,341.742188 C175.377604,341.117188 176.666667,340.804688 177.265625,340.804688 C177.838542,340.804688 178.320313,340.869792 178.710938,341 C178.971354,341.078125 179.140625,341.065104 179.21875,340.960938 C179.296875,340.856771 179.257813,340.713542 179.101563,340.53125 C178.710938,340.036458 178.072917,339.385417 177.1875,338.578125 C177.083333,338.473958 176.914063,338.486979 176.679688,338.617188 C172.148438,340.492188 167.747396,341.872396 163.476563,342.757813 C163.138021,342.835938 162.994792,343.018229 163.046875,343.304688 C163.072917,343.565104 163.255208,343.682292 163.59375,343.65625 C166.328125,343.265625 168.880208,342.809896 171.25,342.289063 L171.25,342.289063 L171.25,348.695313 L165.117188,348.695313 C164.934896,348.669271 164.049479,348.578125 162.460938,348.421875 C162.122396,348.34375 162.03125,348.434896 162.1875,348.695313 C162.447917,349.111979 162.747396,349.580729 163.085938,350.101563 C163.111979,350.179688 163.190104,350.205729 163.320313,350.179688 C164.205729,349.997396 165,349.90625 165.703125,349.90625 L165.703125,349.90625 L171.25,349.90625 L171.25,358.421875 C170.625,358.604167 170.026042,358.799479 169.453125,359.007813 C166.848958,359.867188 164.401042,360.518229 162.109375,360.960938 C161.848958,360.986979 161.705729,361.052083 161.679688,361.15625 C161.653646,361.234375 161.796875,361.416667 162.109375,361.703125 C162.682292,362.171875 163.138021,362.71875 163.476563,363.34375 C163.580729,363.578125 163.697917,363.682292 163.828125,363.65625 C163.932292,363.630208 164.036458,363.565104 164.140625,363.460938 C165.026042,362.679688 165.729167,362.184896 166.25,361.976563 C167.734375,361.403646 169.401042,360.752604 171.25,360.023438 L171.25,360.023438 L171.25,370.453125 C171.25,370.791667 171.210938,371.013021 171.132813,371.117188 C170.820313,371.299479 169.947917,371.351563 168.515625,371.273438 C167.03125,371.169271 165.755208,371.091146 164.6875,371.039063 C164.348958,371.013021 164.179688,371.130208 164.179688,371.390625 C164.153646,371.651042 164.296875,371.794271 164.609375,371.820313 C166.197917,372.080729 167.382813,372.40625 168.164063,372.796875 C169.049479,373.213542 169.622396,373.630208 169.882813,374.046875 Z M191.5625,346.390625 C191.875,346.364583 192.148438,346.039063 192.382813,345.414063 C192.721354,344.606771 192.825521,343.955729 192.695313,343.460938 C192.591146,343.044271 192.278646,342.614583 191.757813,342.171875 C190.950521,341.442708 189.765625,340.739583 188.203125,340.0625 C187.864583,339.90625 187.643229,339.90625 187.539063,340.0625 C187.434896,340.21875 187.460938,340.375 187.617188,340.53125 C188.502604,341.338542 189.205729,342.106771 189.726563,342.835938 C190.273438,343.617188 190.703125,344.554688 191.015625,345.648438 C191.119792,346.143229 191.302083,346.390625 191.5625,346.390625 Z M206.757813,373.851563 C206.731771,374.398438 206.888021,374.541667 207.226563,374.28125 C207.955729,373.8125 208.502604,373.460938 208.867188,373.226563 C209.023438,373.122396 209.088542,372.966146 209.0625,372.757813 C208.958333,370.700521 208.90625,368.148438 208.90625,365.101563 L208.90625,352.484375 C208.90625,350.895833 208.997396,349.854167 209.179688,349.359375 C209.283854,349.098958 209.544271,348.864583 209.960938,348.65625 C210.377604,348.421875 210.403646,348.213542 210.039063,348.03125 C209.648438,347.796875 208.932292,347.523438 207.890625,347.210938 C209.323522,344.23492 210.337499,342.149108 210.932556,340.953501 L211.121806,340.575193 C211.390166,340.042022 211.537064,339.766957 211.5625,339.75 C211.822917,339.515625 212.070313,339.411458 212.304688,339.4375 C212.539063,339.463542 212.65625,339.398438 212.65625,339.242188 C212.682292,339.085938 212.539063,338.916667 212.226563,338.734375 C211.835938,338.421875 211.145833,337.992188 210.15625,337.445313 C209.6875,337.184896 209.440104,337.289063 209.414063,337.757813 C209.388021,339.033854 208.580729,341.651042 206.992188,345.609375 C205.403646,349.59375 203.580729,352.953125 201.523438,355.6875 C201.289063,355.947917 201.276042,356.169271 201.484375,356.351563 C201.666667,356.507813 201.888021,356.442708 202.148438,356.15625 C203.893229,353.864583 205.338542,351.742188 206.484375,349.789063 C206.588542,349.528646 206.731771,349.268229 206.914063,349.007813 C206.940104,349.971354 206.979167,351.130208 207.03125,352.484375 L207.03125,352.484375 L207.03125,365.101563 C207.005208,367.471354 206.914063,370.388021 206.757813,373.851563 Z M232.34375,374.242188 C232.447917,374.476563 232.617188,374.541667 232.851563,374.4375 C233.554688,374.177083 234.140625,373.721354 234.609375,373.070313 C235.078125,372.419271 235.3125,371.651042 235.3125,370.765625 L235.3125,370.765625 L235.3125,342.171875 C235.3125,341.989583 235.351563,341.820313 235.429688,341.664063 C235.507813,341.559896 235.859375,341.377604 236.484375,341.117188 C236.901042,340.960938 237.018229,340.778646 236.835938,340.570313 C236.210938,339.919271 235.494792,339.268229 234.6875,338.617188 C234.583333,338.513021 234.479167,338.460938 234.375,338.460938 C234.270833,338.460938 234.192708,338.513021 234.140625,338.617188 L234.140625,338.617188 L233.164063,339.90625 C233.138021,339.932292 233.007813,339.945313 232.773438,339.945313 L232.773438,339.945313 L226.835938,339.945313 C225.638021,339.945313 224.544271,339.828125 223.554688,339.59375 C223.372396,339.489583 223.229167,339.476563 223.125,339.554688 C223.020833,339.658854 223.072917,339.802083 223.28125,339.984375 C223.671875,340.322917 223.932292,340.726563 224.0625,341.195313 C224.088542,341.429688 224.21875,341.507813 224.453125,341.429688 C225.260417,341.273438 226.210938,341.182292 227.304688,341.15625 L227.304688,341.15625 L233.4375,341.15625 L233.4375,370.335938 C233.4375,370.882813 233.346354,371.208333 233.164063,371.3125 C233.007813,371.390625 231.445313,371.364583 228.476563,371.234375 C228.138021,371.208333 227.955729,371.3125 227.929688,371.546875 C227.903646,371.807292 228.046875,371.963542 228.359375,372.015625 C229.635417,372.119792 230.559896,372.380208 231.132813,372.796875 C231.705729,373.213542 232.109375,373.695313 232.34375,374.242188 Z M219.53125,344.671875 C219.713542,344.671875 220,344.502604 220.390625,344.164063 C220.78125,343.825521 220.976563,343.330729 220.976563,342.679688 C220.976563,341.742188 219.609375,340.427083 216.875,338.734375 C216.536458,338.473958 216.289063,338.460938 216.132813,338.695313 C216.028646,338.877604 216.067708,339.072917 216.25,339.28125 C217.34375,340.244792 218.268229,341.768229 219.023438,343.851563 C219.205729,344.398438 219.375,344.671875 219.53125,344.671875 Z M214.257813,373.851563 C214.231771,374.398438 214.388021,374.541667 214.726563,374.28125 C215.455729,373.8125 216.002604,373.460938 216.367188,373.226563 C216.523438,373.122396 216.588542,372.966146 216.5625,372.757813 C216.458333,370.700521 216.40625,368.148438 216.40625,365.101563 L216.40625,351.078125 C216.40625,349.489583 216.497396,348.447917 216.679688,347.953125 C216.783854,347.692708 217.044271,347.458333 217.460938,347.25 C217.877604,347.015625 217.903646,346.807292 217.539063,346.625 C217.070313,346.364583 216.132813,346.013021 214.726563,345.570313 C214.414063,345.466146 214.283854,345.635417 214.335938,346.078125 C214.440104,347.328125 214.505208,348.994792 214.53125,351.078125 L214.53125,351.078125 L214.53125,365.101563 C214.505208,367.471354 214.414063,370.388021 214.257813,373.851563 Z M269.023438,374.125 C269.049479,374.28125 269.166667,374.307292 269.375,374.203125 C271.744792,373.1875 273.190104,371.390625 273.710938,368.8125 C273.945313,367.328125 274.375,361.690104 275,351.898438 C275.026042,351.273438 275.455729,350.817708 276.289063,350.53125 C276.523438,350.453125 276.5625,350.322917 276.40625,350.140625 C275.833333,349.515625 275.065104,348.8125 274.101563,348.03125 C273.867188,347.770833 273.671875,347.770833 273.515625,348.03125 L273.515625,348.03125 L272.617188,349.28125 C272.513021,349.385417 272.317708,349.450521 272.03125,349.476563 L272.03125,349.476563 L260.585938,349.476563 C260.690104,347.966146 260.755208,346.403646 260.78125,344.789063 L260.78125,344.789063 L260.78125,341.664063 C260.859375,341.117188 261.002604,340.648438 261.210938,340.257813 C261.393229,339.919271 261.679688,339.684896 262.070313,339.554688 C262.226563,339.528646 262.304688,339.424479 262.304688,339.242188 C262.304688,339.138021 262.213542,339.020833 262.03125,338.890625 C261.223958,338.473958 260.260417,338.03125 259.140625,337.5625 C258.90625,337.458333 258.75,337.445313 258.671875,337.523438 C258.567708,337.601563 258.541667,337.809896 258.59375,338.148438 C258.776042,339.554688 258.880208,340.726563 258.90625,341.664063 L258.90625,341.664063 L258.90625,344.789063 C258.90625,346.377604 258.828125,347.940104 258.671875,349.476563 L258.671875,349.476563 L246.367188,349.476563 C245.169271,349.476563 244.075521,349.359375 243.085938,349.125 C242.903646,349.020833 242.760417,349.007813 242.65625,349.085938 C242.552083,349.190104 242.604167,349.333333 242.8125,349.515625 C243.203125,349.854167 243.463542,350.257813 243.59375,350.726563 C243.619792,350.960938 243.75,351.039063 243.984375,350.960938 C244.791667,350.804688 245.742188,350.713542 246.835938,350.6875 L246.835938,350.6875 L258.515625,350.6875 C257.34375,359.4375 254.023438,365.869792 248.554688,369.984375 C246.888021,371.182292 244.973958,372.354167 242.8125,373.5 C242.552083,373.604167 242.486979,373.799479 242.617188,374.085938 C242.695313,374.268229 242.929688,374.28125 243.320313,374.125 C249.570313,371.15625 253.997396,367.588542 256.601563,363.421875 C258.632813,359.880208 259.908854,355.635417 260.429688,350.6875 L260.429688,350.6875 L273.203125,350.6875 C273.020833,353.213542 272.8125,356.729167 272.578125,361.234375 C272.395833,365.010417 272.109375,367.601563 271.71875,369.007813 C271.458333,369.815104 271.106771,370.440104 270.664063,370.882813 C270.247396,371.351563 268.411458,371.442708 265.15625,371.15625 C264.84375,371.078125 264.661458,371.169271 264.609375,371.429688 C264.583333,371.690104 264.765625,371.846354 265.15625,371.898438 C266.822917,372.132813 267.864583,372.419271 268.28125,372.757813 C268.619792,373.070313 268.867188,373.526042 269.023438,374.125 Z M252.695313,346.742188 C253.007813,346.768229 253.320313,346.481771 253.632813,345.882813 C254.049479,345.153646 254.231771,344.515625 254.179688,343.96875 C254.101563,342.71875 252.473958,341.078125 249.296875,339.046875 C249.036458,338.864583 248.828125,338.838542 248.671875,338.96875 C248.567708,339.125 248.567708,339.294271 248.671875,339.476563 C250.546875,341.507813 251.731771,343.669271 252.226563,345.960938 C252.252604,346.455729 252.408854,346.716146 252.695313,346.742188 Z M266.757813,364.28125 C267.070313,364.28125 267.382813,363.981771 267.695313,363.382813 C268.111979,362.653646 268.28125,362.015625 268.203125,361.46875 C268.125,360.0625 266.354167,358.265625 262.890625,356.078125 C262.578125,355.895833 262.369792,355.869792 262.265625,356 C262.161458,356.15625 262.161458,356.325521 262.265625,356.507813 C264.401042,358.721354 265.742188,361.052083 266.289063,363.5 C266.315104,363.994792 266.471354,364.255208 266.757813,364.28125 Z M288.410156,374.563368 L288.476563,374.554688 L290.195313,373.851563 C290.377604,373.825521 290.46875,373.695313 290.46875,373.460938 C290.364583,371.247396 290.3125,368.513021 290.3125,365.257813 L290.3125,365.257813 L290.312661,352.69252 C290.314921,350.908397 290.340909,349.966619 290.390625,349.867188 C290.416667,349.763021 290.833333,349.489583 291.640625,349.046875 C291.901042,348.942708 291.888021,348.786458 291.601563,348.578125 C291.132813,348.317708 290.338542,348.005208 289.21875,347.640625 C290.078125,345.973958 290.859375,344.372396 291.5625,342.835938 C292.34375,341.091146 292.903646,340.0625 293.242188,339.75 C293.346354,339.645833 293.554688,339.554688 293.867188,339.476563 C294.205729,339.450521 294.375,339.372396 294.375,339.242188 C294.401042,339.138021 294.257813,338.96875 293.945313,338.734375 C293.554688,338.473958 292.864583,338.044271 291.875,337.445313 C291.458333,337.184896 291.223958,337.276042 291.171875,337.71875 C291.067708,339.151042 290.065104,342.067708 288.164063,346.46875 C286.263021,350.947917 284.101563,354.697917 281.679688,357.71875 C281.445313,357.979167 281.432292,358.200521 281.640625,358.382813 C281.822917,358.539063 282.044271,358.486979 282.304688,358.226563 C284.361979,355.648438 286.028646,353.265625 287.304688,351.078125 C287.643229,350.453125 287.981771,349.854167 288.320313,349.28125 C288.346354,350.244792 288.385417,351.46875 288.4375,352.953125 L288.4375,352.953125 L288.4375,365.257813 C288.411458,367.627604 288.320313,370.544271 288.164063,374.007813 C288.138021,374.424479 288.242188,374.606771 288.476563,374.554688 L288.410156,374.563368 Z M303.164063,374.203125 C303.268229,374.385417 303.489583,374.424479 303.828125,374.320313 C304.479167,374.138021 305.065104,373.760417 305.585938,373.1875 C306.080729,372.614583 306.354167,371.898438 306.40625,371.039063 L306.40625,371.039063 L306.40625,347.40625 L314.023438,347.40625 C313.528646,348.65625 312.8125,350.114583 311.875,351.78125 C311.692708,352.119792 311.705729,352.354167 311.914063,352.484375 C312.148438,352.588542 312.369792,352.497396 312.578125,352.210938 C313.854167,350.257813 314.947917,348.955729 315.859375,348.304688 C316.484375,347.835938 317.161458,347.5625 317.890625,347.484375 C318.229167,347.458333 318.333333,347.341146 318.203125,347.132813 C317.630208,346.507813 316.757813,345.739583 315.585938,344.828125 C315.481771,344.723958 315.377604,344.658854 315.273438,344.632813 C315.195313,344.632813 315.117188,344.684896 315.039063,344.789063 L315.039063,344.789063 L313.828125,346 C313.723958,346.104167 313.554688,346.169271 313.320313,346.195313 L313.320313,346.195313 L299.921875,346.195313 C300.494792,344.919271 301.015625,343.695313 301.484375,342.523438 C302.03125,341.039063 302.434896,340.153646 302.695313,339.867188 C302.799479,339.763021 303.007813,339.671875 303.320313,339.59375 C303.632813,339.515625 303.802083,339.424479 303.828125,339.320313 C303.828125,339.164063 303.671875,338.994792 303.359375,338.8125 C302.942708,338.552083 302.226563,338.161458 301.210938,337.640625 C300.742188,337.40625 300.507813,337.523438 300.507813,337.992188 C300.507813,339.190104 299.856771,341.677083 298.554688,345.453125 C297.200521,349.28125 295.625,352.536458 293.828125,355.21875 C293.645833,355.479167 293.645833,355.700521 293.828125,355.882813 C294.010417,356.039063 294.21875,355.973958 294.453125,355.6875 C296.041667,353.473958 297.330729,351.416667 298.320313,349.515625 C298.658854,348.786458 298.997396,348.083333 299.335938,347.40625 L299.335938,347.40625 L304.53125,347.40625 L304.53125,370.609375 C304.53125,370.947917 304.492188,371.169271 304.414063,371.273438 C304.101563,371.455729 303.203125,371.507813 301.71875,371.429688 C300.208333,371.325521 298.90625,371.247396 297.8125,371.195313 C297.473958,371.169271 297.304688,371.286458 297.304688,371.546875 C297.278646,371.807292 297.421875,371.950521 297.734375,371.976563 C299.401042,372.236979 300.611979,372.5625 301.367188,372.953125 C302.304688,373.369792 302.903646,373.786458 303.164063,374.203125 Z M292.734375,369.632813 C292.916667,369.815104 293.138021,369.763021 293.398438,369.476563 C294.830729,367.809896 296.015625,366.234375 296.953125,364.75 C298.151042,362.848958 299.166667,361.039063 300,359.320313 C300.546875,358.148438 300.9375,357.458333 301.171875,357.25 C301.328125,357.145833 301.549479,357.067708 301.835938,357.015625 C302.148438,356.989583 302.317708,356.911458 302.34375,356.78125 C302.34375,356.625 302.200521,356.442708 301.914063,356.234375 C301.523438,355.973958 300.833333,355.53125 299.84375,354.90625 C299.427083,354.645833 299.192708,354.736979 299.140625,355.179688 C299.0625,356.195313 298.398438,358.213542 297.148438,361.234375 C295.872396,364.307292 294.427083,366.885417 292.8125,368.96875 C292.552083,369.229167 292.526042,369.450521 292.734375,369.632813 Z M315.820313,368.460938 C316.002604,368.539063 316.210938,368.473958 316.445313,368.265625 C316.705729,368.03125 316.979167,367.640625 317.265625,367.09375 C317.578125,366.520833 317.604167,365.804688 317.34375,364.945313 C317.161458,364.059896 316.484375,362.848958 315.3125,361.3125 C314.114583,359.645833 312.473958,357.796875 310.390625,355.765625 C310.130208,355.505208 309.908854,355.440104 309.726563,355.570313 C309.544271,355.752604 309.518229,355.947917 309.648438,356.15625 C311.549479,358.65625 312.994792,360.934896 313.984375,362.992188 C314.869792,364.893229 315.377604,366.507813 315.507813,367.835938 C315.533854,368.174479 315.638021,368.382813 315.820313,368.460938 Z M331.484375,356.976563 C331.588542,357.236979 331.796875,357.276042 332.109375,357.09375 C334.010417,356.234375 335.625,355.166667 336.953125,353.890625 C338.28125,352.614583 339.179688,351.143229 339.648438,349.476563 C340.065104,347.966146 340.286458,346.208333 340.3125,344.203125 L340.3125,344.203125 L340.3125,341 L348.4375,341 L348.4375,351 C348.4375,351.78125 348.59375,352.302083 348.90625,352.5625 C349.21875,352.875 349.622396,353.03125 350.117188,353.03125 L350.117188,353.03125 L354.492188,353.03125 C355.585938,353.03125 356.614583,352.901042 357.578125,352.640625 C358.229167,352.536458 358.567708,352.367188 358.59375,352.132813 C358.619792,351.898438 358.528646,351.729167 358.320313,351.625 C357.851563,351.390625 357.356771,351.039063 356.835938,350.570313 C356.731771,350.414063 356.601563,350.388021 356.445313,350.492188 C355.950521,350.752604 355.507813,350.934896 355.117188,351.039063 C354.726563,351.117188 354.283854,351.15625 353.789063,351.15625 L353.789063,351.15625 L350.898438,351.15625 C350.716146,351.15625 350.559896,351.117188 350.429688,351.039063 C350.351563,351.013021 350.3125,350.895833 350.3125,350.6875 L350.3125,350.6875 L350.3125,342.484375 C350.3125,342.067708 350.351563,341.78125 350.429688,341.625 C350.455729,341.546875 350.846354,341.260417 351.601563,340.765625 C351.757813,340.661458 351.744792,340.544271 351.5625,340.414063 C350.833333,339.763021 350.039063,339.125 349.179688,338.5 C348.997396,338.34375 348.828125,338.369792 348.671875,338.578125 L348.671875,338.578125 L347.773438,339.59375 C347.669271,339.697917 347.539063,339.763021 347.382813,339.789063 L347.382813,339.789063 L340.351563,339.789063 C339.778646,339.294271 339.283854,338.760417 338.867188,338.1875 C338.684896,337.927083 338.528646,337.822917 338.398438,337.875 C338.242188,337.901042 338.203125,338.083333 338.28125,338.421875 C338.385417,339.125 338.4375,340.023438 338.4375,341.117188 L338.4375,341.117188 L338.4375,344.203125 C338.4375,345.84375 338.255208,347.419271 337.890625,348.929688 C337.473958,350.570313 336.783854,351.976563 335.820313,353.148438 C334.804688,354.320313 333.424479,355.375 331.679688,356.3125 C331.419271,356.494792 331.354167,356.716146 331.484375,356.976563 Z M329.414063,344.671875 C329.674479,344.645833 329.934896,344.320313 330.195313,343.695313 C330.507813,342.888021 330.598958,342.236979 330.46875,341.742188 C330.364583,341.247396 330.013021,340.778646 329.414063,340.335938 C328.528646,339.606771 327.226563,338.890625 325.507813,338.1875 C325.195313,338.005208 324.986979,338.005208 324.882813,338.1875 C324.778646,338.34375 324.817708,338.5 325,338.65625 C325.963542,339.463542 326.731771,340.257813 327.304688,341.039063 C327.955729,341.846354 328.463542,342.822917 328.828125,343.96875 C328.932292,344.463542 329.127604,344.697917 329.414063,344.671875 Z M325.585938,373.460938 C326.080729,373.565104 326.458333,373.513021 326.71875,373.304688 C326.979167,372.992188 327.083333,372.458333 327.03125,371.703125 C326.848958,369.359375 326.953125,366.690104 327.34375,363.695313 C327.604167,362.106771 328.164063,360.153646 329.023438,357.835938 C331.002604,352.731771 332.65625,348.473958 333.984375,345.0625 C334.088542,344.75 334.010417,344.528646 333.75,344.398438 C333.489583,344.294271 333.28125,344.411458 333.125,344.75 C330.390625,350.713542 328.346354,355.361979 326.992188,358.695313 C326.341146,360.361979 325.807292,361.260417 325.390625,361.390625 C324.973958,361.572917 323.932292,361.559896 322.265625,361.351563 C321.848958,361.325521 321.627604,361.520833 321.601563,361.9375 C321.627604,362.354167 321.796875,362.549479 322.109375,362.523438 C322.838542,362.549479 323.476563,362.71875 324.023438,363.03125 C324.518229,363.34375 324.921875,363.708333 325.234375,364.125 C325.338542,364.59375 325.325521,365.375 325.195313,366.46875 C325.039063,367.901042 324.726563,369.28125 324.257813,370.609375 C323.997396,371.3125 324.010417,371.924479 324.296875,372.445313 C324.557292,372.940104 324.986979,373.278646 325.585938,373.460938 Z M326.054688,353.695313 C326.367188,353.695313 326.653646,353.382813 326.914063,352.757813 C327.252604,351.976563 327.382813,351.325521 327.304688,350.804688 C327.226563,350.309896 326.914063,349.815104 326.367188,349.320313 C325.507813,348.513021 324.244792,347.679688 322.578125,346.820313 C322.265625,346.638021 322.057292,346.625 321.953125,346.78125 C321.848958,346.9375 321.861979,347.106771 321.992188,347.289063 C322.929688,348.174479 323.658854,349.020833 324.179688,349.828125 C324.752604,350.6875 325.195313,351.729167 325.507813,352.953125 C325.611979,353.447917 325.794271,353.695313 326.054688,353.695313 Z M336.210938,373.851563 C336.184896,374.242188 336.289063,374.398438 336.523438,374.320313 C337.018229,374.085938 337.526042,373.864583 338.046875,373.65625 C338.203125,373.630208 338.28125,373.513021 338.28125,373.304688 L338.28125,373.304688 L338.28125,370.0625 L350.78125,370.0625 L350.78125,373.890625 C350.78125,374.151042 350.807292,374.294271 350.859375,374.320313 C350.963542,374.346354 351.575521,374.164063 352.695313,373.773438 C352.851563,373.747396 352.916667,373.591146 352.890625,373.304688 C352.734375,371.716146 352.65625,370.453125 352.65625,369.515625 L352.65625,369.515625 L352.65625,360.296875 C352.65625,360.114583 352.682292,359.945313 352.734375,359.789063 C352.760417,359.606771 353.111979,359.359375 353.789063,359.046875 C353.971354,358.942708 354.088542,358.825521 354.140625,358.695313 C354.166667,358.591146 354.0625,358.434896 353.828125,358.226563 C353.098958,357.653646 352.356771,357.119792 351.601563,356.625 C351.419271,356.442708 351.236979,356.455729 351.054688,356.664063 L351.054688,356.664063 L350.351563,357.757813 C350.273438,357.861979 350.15625,357.914063 350,357.914063 L350,357.914063 L338.085938,357.914063 C337.460938,357.445313 336.992188,357.041667 336.679688,356.703125 C336.497396,356.520833 336.367188,356.442708 336.289063,356.46875 C336.184896,356.494792 336.158854,356.664063 336.210938,356.976563 C336.315104,358.174479 336.380208,359.242188 336.40625,360.179688 L336.40625,360.179688 L336.40625,365.648438 C336.380208,369.476563 336.315104,372.210938 336.210938,373.851563 Z M350.78125,368.851563 L338.28125,368.851563 L338.28125,359.125 L350.78125,359.125 L350.78125,368.851563 Z M369.84375,345.296875 C370.15625,345.270833 370.429688,344.932292 370.664063,344.28125 C370.976563,343.5 371.067708,342.861979 370.9375,342.367188 C370.833333,341.872396 370.481771,341.377604 369.882813,340.882813 C368.945313,340.075521 367.604167,339.28125 365.859375,338.5 C365.520833,338.317708 365.299479,338.317708 365.195313,338.5 C365.091146,338.65625 365.117188,338.8125 365.273438,338.96875 C366.315104,339.854167 367.135417,340.6875 367.734375,341.46875 C368.385417,342.328125 368.90625,343.369792 369.296875,344.59375 C369.401042,345.088542 369.583333,345.322917 369.84375,345.296875 Z M371.842188,371.907813 L371.914063,371.898438 C372.799479,371.716146 373.59375,371.625 374.296875,371.625 L374.296875,371.625 L397.304688,371.625 C397.643229,371.598958 397.838542,371.481771 397.890625,371.273438 C397.916667,371.039063 397.799479,370.791667 397.539063,370.53125 C396.757813,369.723958 395.963542,368.955729 395.15625,368.226563 C394.921875,367.992188 394.713542,367.992188 394.53125,368.226563 L394.53125,368.226563 L393.515625,369.671875 C393.28125,369.932292 393.098958,370.127604 392.96875,370.257813 C392.864583,370.361979 392.65625,370.414063 392.34375,370.414063 L392.34375,370.414063 L385.9375,370.414063 L385.9375,343.96875 L395.585938,343.96875 C395.924479,343.942708 396.119792,343.825521 396.171875,343.617188 C396.197917,343.382813 396.080729,343.135417 395.820313,342.875 C395.039063,342.067708 394.244792,341.299479 393.4375,340.570313 C393.203125,340.335938 392.994792,340.335938 392.8125,340.570313 L392.8125,340.570313 L391.796875,342.015625 C391.5625,342.276042 391.380208,342.471354 391.25,342.601563 C391.145833,342.705729 390.9375,342.757813 390.625,342.757813 L390.625,342.757813 L377.929688,342.757813 C377.747396,342.731771 376.861979,342.640625 375.273438,342.484375 C374.934896,342.40625 374.84375,342.497396 375,342.757813 C375.260417,343.174479 375.559896,343.643229 375.898438,344.164063 C375.924479,344.242188 376.002604,344.268229 376.132813,344.242188 C377.018229,344.059896 377.8125,343.96875 378.515625,343.96875 L378.515625,343.96875 L384.0625,343.96875 L384.0625,370.414063 L373.710938,370.414063 C373.528646,370.388021 372.643229,370.296875 371.054688,370.140625 C370.716146,370.0625 370.625,370.153646 370.78125,370.414063 C371.041667,370.830729 371.341146,371.299479 371.679688,371.820313 C371.705729,371.898438 371.783854,371.924479 371.914063,371.898438 L371.842188,371.907813 Z M366.210938,373.929688 C366.705729,374.033854 367.083333,373.981771 367.34375,373.773438 C367.604167,373.460938 367.708333,372.927083 367.65625,372.171875 C367.473958,369.828125 367.578125,367.158854 367.96875,364.164063 C368.203125,362.653646 368.710938,360.804688 369.492188,358.617188 C371.367188,353.773438 372.916667,349.723958 374.140625,346.46875 C374.244792,346.15625 374.166667,345.934896 373.90625,345.804688 C373.645833,345.700521 373.4375,345.817708 373.28125,346.15625 C370.755208,351.78125 368.828125,356.169271 367.5,359.320313 C366.875,360.882813 366.380208,361.729167 366.015625,361.859375 C365.677083,362.041667 364.739583,362.028646 363.203125,361.820313 C362.786458,361.794271 362.578125,361.989583 362.578125,362.40625 C362.578125,362.822917 362.734375,363.018229 363.046875,362.992188 C363.697917,363.018229 364.270833,363.200521 364.765625,363.539063 C365.234375,363.799479 365.585938,364.138021 365.820313,364.554688 C365.924479,365.049479 365.924479,365.830729 365.820313,366.898438 C365.664063,368.382813 365.351563,369.776042 364.882813,371.078125 C364.622396,371.78125 364.635417,372.393229 364.921875,372.914063 C365.182292,373.408854 365.611979,373.747396 366.210938,373.929688 Z M365.703125,354.125 C366.015625,354.151042 366.315104,353.851563 366.601563,353.226563 C366.992188,352.445313 367.148438,351.807292 367.070313,351.3125 C366.992188,350.817708 366.679688,350.309896 366.132813,349.789063 C365.325521,348.929688 364.088542,348.044271 362.421875,347.132813 C362.109375,346.950521 361.901042,346.9375 361.796875,347.09375 C361.692708,347.25 361.705729,347.419271 361.835938,347.601563 C362.721354,348.539063 363.424479,349.411458 363.945313,350.21875 C364.518229,351.104167 364.934896,352.158854 365.195313,353.382813 C365.273438,353.877604 365.442708,354.125 365.703125,354.125 Z M430.078125,374.398438 C430.15625,374.502604 430.338542,374.502604 430.625,374.398438 C431.276042,374.164063 431.861979,373.734375 432.382813,373.109375 C432.877604,372.536458 433.125,371.794271 433.125,370.882813 L433.125,370.882813 L433.125,351.234375 C433.125,351.130208 433.164063,351.013021 433.242188,350.882813 C433.320313,350.778646 433.789063,350.518229 434.648438,350.101563 C434.830729,350.023438 434.830729,349.867188 434.648438,349.632813 C434.023438,348.981771 433.307292,348.330729 432.5,347.679688 C432.395833,347.575521 432.291667,347.523438 432.1875,347.523438 C432.083333,347.523438 432.005208,347.575521 431.953125,347.679688 L431.953125,347.679688 L430.976563,348.96875 C430.950521,348.994792 430.820313,349.007813 430.585938,349.007813 L430.585938,349.007813 L417.382813,349.007813 C418.971354,346.403646 420.195313,344.098958 421.054688,342.09375 L421.054688,342.09375 L437.460938,342.09375 C437.799479,342.067708 437.994792,341.950521 438.046875,341.742188 C438.072917,341.507813 437.955729,341.260417 437.695313,341 C436.914063,340.192708 436.119792,339.424479 435.3125,338.695313 C435.078125,338.460938 434.869792,338.460938 434.6875,338.695313 L434.6875,338.695313 L433.671875,340.140625 C433.4375,340.401042 433.255208,340.596354 433.125,340.726563 C433.020833,340.830729 432.8125,340.882813 432.5,340.882813 L432.5,340.882813 L404.960938,340.882813 C404.778646,340.856771 403.893229,340.765625 402.304688,340.609375 C401.966146,340.53125 401.875,340.622396 402.03125,340.882813 C402.291667,341.299479 402.591146,341.768229 402.929688,342.289063 C402.955729,342.367188 403.033854,342.393229 403.164063,342.367188 C404.049479,342.184896 404.84375,342.09375 405.546875,342.09375 L405.546875,342.09375 L418.90625,342.09375 C418.411458,344.046875 417.578125,346.325521 416.40625,348.929688 C416.380208,348.955729 416.367188,348.981771 416.367188,349.007813 L416.367188,349.007813 L408.28125,349.007813 C407.786458,348.617188 407.369792,348.265625 407.03125,347.953125 C406.770833,347.692708 406.588542,347.588542 406.484375,347.640625 C406.40625,347.666667 406.393229,347.809896 406.445313,348.070313 C406.601563,349.268229 406.692708,350.283854 406.71875,351.117188 L406.71875,351.117188 L406.71875,365.492188 C406.640625,368.252604 406.549479,370.934896 406.445313,373.539063 C406.419271,374.033854 406.458333,374.294271 406.5625,374.320313 C406.744792,374.320313 407.317708,374.098958 408.28125,373.65625 C408.463542,373.578125 408.567708,373.408854 408.59375,373.148438 C408.582589,372.24442 408.576212,371.259088 408.574617,370.192443 L408.574617,369.098693 C408.576212,367.977838 408.582589,366.77567 408.59375,365.492188 L408.59375,365.492188 L408.59375,350.21875 L414.53125,350.21875 L414.53125,362.914063 C414.505208,365.283854 414.414063,368.200521 414.257813,371.664063 C414.231771,372.080729 414.335938,372.263021 414.570313,372.210938 L414.570313,372.210938 L416.289063,371.507813 C416.471354,371.481771 416.5625,371.351563 416.5625,371.117188 C416.458333,368.903646 416.40625,366.169271 416.40625,362.914063 L416.40625,350.21875 L423.125,350.21875 L423.125,361.664063 C423.098958,364.033854 423.007813,366.950521 422.851563,370.414063 C422.825521,370.830729 422.929688,371.013021 423.164063,370.960938 L423.164063,370.960938 L424.882813,370.257813 C425.065104,370.231771 425.15625,370.101563 425.15625,369.867188 C425.052083,367.653646 425,364.919271 425,361.664063 L425,350.21875 L431.25,350.21875 L431.25,370.335938 C431.25,370.804688 431.132813,371.078125 430.898438,371.15625 C430.638021,371.338542 429.869792,371.377604 428.59375,371.273438 C427.265625,371.195313 426.132813,371.130208 425.195313,371.078125 C424.856771,371.052083 424.6875,371.169271 424.6875,371.429688 C424.661458,371.690104 424.778646,371.846354 425.039063,371.898438 C426.549479,372.158854 427.630208,372.484375 428.28125,372.875 C429.140625,373.34375 429.739583,373.851563 430.078125,374.398438 Z M458.789063,373.851563 C458.763021,374.398438 458.919271,374.541667 459.257813,374.28125 C459.41985,374.177083 459.572885,374.078704 459.716917,373.986111 L460.304302,373.608507 C460.538355,373.458044 460.7364,373.330729 460.898438,373.226563 C461.054688,373.122396 461.119792,372.966146 461.09375,372.757813 C460.989583,370.700521 460.9375,368.148438 460.9375,365.101563 L460.9375,365.101563 L460.9375,356.742188 C460.911458,356.481771 460.963542,356.338542 461.09375,356.3125 C461.197917,356.286458 461.263021,356.338542 461.289063,356.46875 C463.789063,362.015625 468.346354,366.950521 474.960938,371.273438 C475.273438,371.507813 475.481771,371.533854 475.585938,371.351563 C475.924479,370.778646 476.367188,370.375 476.914063,370.140625 C477.408854,369.90625 477.864583,369.815104 478.28125,369.867188 C478.59375,369.893229 478.763021,369.802083 478.789063,369.59375 C478.815104,369.411458 478.75,369.307292 478.59375,369.28125 C475.052083,368.890625 471.263021,366.807292 467.226563,363.03125 C465.091146,360.895833 463.424479,358.708333 462.226563,356.46875 L462.226563,356.46875 L477.148438,356.46875 C477.486979,356.442708 477.682292,356.325521 477.734375,356.117188 C477.760417,355.726563 476.848958,354.710938 475,353.070313 C474.765625,352.835938 474.557292,352.835938 474.375,353.070313 L474.375,353.070313 L473.359375,354.515625 C472.942708,354.984375 472.552083,355.231771 472.1875,355.257813 L472.1875,355.257813 L466.523438,355.257813 C467.877604,353.356771 468.880208,351.755208 469.53125,350.453125 C470.026042,349.333333 470.690104,348.760417 471.523438,348.734375 C471.679688,348.734375 471.783854,348.669271 471.835938,348.539063 C471.861979,348.382813 471.71875,348.213542 471.40625,348.03125 C469.609375,347.09375 468.632813,346.651042 468.476563,346.703125 C468.398438,346.729167 468.346354,346.846354 468.320313,347.054688 C467.773438,349.789063 466.835938,352.419271 465.507813,354.945313 C465.429688,355.049479 465.377604,355.153646 465.351563,355.257813 L465.351563,355.257813 L460.9375,355.257813 L460.9375,344.90625 L474.179688,344.90625 C474.518229,344.880208 474.713542,344.763021 474.765625,344.554688 C474.791667,344.164063 473.880208,343.148438 472.03125,341.507813 C471.796875,341.273438 471.588542,341.273438 471.40625,341.507813 L471.40625,341.507813 L470.390625,342.953125 C469.973958,343.421875 469.583333,343.669271 469.21875,343.695313 L469.21875,343.695313 L460.9375,343.695313 L460.9375,343.109375 C460.9375,341.520833 461.028646,340.479167 461.210938,339.984375 C461.315104,339.723958 461.575521,339.489583 461.992188,339.28125 C462.408854,339.046875 462.434896,338.838542 462.070313,338.65625 C461.601563,338.395833 460.664063,338.044271 459.257813,337.601563 C458.945313,337.497396 458.815104,337.666667 458.867188,338.109375 C458.971354,339.359375 459.036458,341.026042 459.0625,343.109375 L459.0625,343.109375 L459.0625,343.695313 L449.335938,343.695313 C448.138021,343.695313 447.044271,343.578125 446.054688,343.34375 C445.872396,343.239583 445.729167,343.226563 445.625,343.304688 C445.520833,343.408854 445.572917,343.552083 445.78125,343.734375 C446.171875,344.072917 446.432292,344.476563 446.5625,344.945313 C446.588542,345.179688 446.71875,345.257813 446.953125,345.179688 C447.760417,345.023438 448.710938,344.932292 449.804688,344.90625 L449.804688,344.90625 L459.0625,344.90625 L459.0625,355.257813 L445.585938,355.257813 C444.388021,355.257813 443.294271,355.140625 442.304688,354.90625 C442.122396,354.802083 441.979167,354.789063 441.875,354.867188 C441.770833,354.971354 441.822917,355.114583 442.03125,355.296875 C442.421875,355.635417 442.682292,356.039063 442.8125,356.507813 C442.838542,356.742188 442.96875,356.820313 443.203125,356.742188 C444.010417,356.585938 444.960938,356.494792 446.054688,356.46875 L446.054688,356.46875 L456.5625,356.46875 C453.59375,361.546875 448.802083,366.195313 442.1875,370.414063 C441.848958,370.596354 441.796875,370.869792 442.03125,371.234375 C442.1875,371.46875 442.460938,371.481771 442.851563,371.273438 C449.205729,367.575521 454.049479,363.460938 457.382813,358.929688 C458.398438,357.289063 458.958333,356.46875 459.0625,356.46875 C459.166667,356.494792 459.192708,356.572917 459.140625,356.703125 C459.114583,356.729167 459.088542,356.846354 459.0625,357.054688 L459.0625,357.054688 L459.0625,365.101563 C459.036458,367.471354 458.945313,370.388021 458.789063,373.851563 Z M453.125,354.828125 C453.385417,354.854167 453.710938,354.580729 454.101563,354.007813 C454.570313,353.278646 454.778646,352.653646 454.726563,352.132813 C454.726563,351.013021 453.333333,349.476563 450.546875,347.523438 C450.286458,347.341146 450.078125,347.302083 449.921875,347.40625 C449.817708,347.5625 449.817708,347.731771 449.921875,347.914063 C451.5625,349.945313 452.486979,351.976563 452.695313,354.007813 C452.721354,354.502604 452.864583,354.776042 453.125,354.828125 Z" id="AR-PL-UMing"></path>
        </g>
    </g>
</svg>