<svg width="312" height="160" viewBox="0 0 312 160" fill="none" xmlns="http://www.w3.org/2000/svg">
<path d="M88 40V36H72V32H76V20H40V32H44V36H28V40H40V44H32V48H40V52H36V56H32V60H28V64H32V60H36V56H40V52H44V48H56V60H52V64H56V60H60C60 60 60 54.6667 60 44H44V40H88ZM80 16V12H60V8H88V4H60V0H56V4H28V8H56V12H36V16H80ZM52 60V56H48V60H52ZM80 60V64H84V44H64V64H68V60H80ZM68 56C68 56 68 53.3333 68 48H80C80 48 80 50.6667 80 56H68ZM48 36V32H68V36H48ZM44 28V24H72V28H44ZM152 56V52H144V56H152ZM148 28V24H124C124 24 124 18.6667 124 8H100V12H120V24H96V28H116V32H112C112 32 112 34.6667 112 40H108V44H104V48H100V52H92V56H100V52H104V48H108V44H112V40H116C116 40 116 37.3333 116 32H120C120 32 120 42.6667 120 64H124C124 64 124 53.3333 124 32H128C128 32 128 34.6667 128 40H132V44H136V48H140V52H144V48H140V44H136V40H132C132 40 132 37.3333 132 32H128V28H148ZM144 8V4H140V0H136V4H124V8H144ZM216 64V60H208V64H216ZM216 28V24H188C188 24 188 18.6667 188 8H208V4H164V8H184C184 8 184 13.3333 184 24H156V28H184V32H180C180 32 180 34.6667 180 40H176C176 40 176 42.6667 176 48H172V52H168V56H164V60H156V64H164V60H168V56H172V52H176V48H180C180 48 180 45.3333 180 40H184C184 40 184 37.3333 184 32H188C188 32 188 34.6667 188 40H192C192 40 192 42.6667 192 48H196V52H200V56H204V60H208V56H204V52H200V48H196C196 48 196 45.3333 196 40H192C192 40 192 37.3333 192 32H188V28H216ZM280 60V56H268V52H264V56H252V52H248V56H236C236 56 236 48 236 32H240V36H244C244 36 244 41.3333 244 52H248V48H268V52H272V32H240V28H236C236 28 236 25.3333 236 20H240V16H236C236 16 236 10.6667 236 0H232C232 0 232 5.33333 232 16H220V20H232V24H228C228 24 228 26.6667 228 32H224C224 32 224 34.6667 224 40H220V44H224V40H228C228 40 228 37.3333 228 32H232C232 32 232 42.6667 232 64H236V60H280ZM280 32V28H276V32H280ZM280 16V12H276V16H272V20H268V24H248V28H268V24H272V28H276V24H272V20H276V16H280ZM276 8V4H272V8H268V12H264C264 12 264 14.6667 264 20H268C268 20 268 17.3333 268 12H272V8H276ZM248 44C248 44 248 41.3333 248 36H268C268 36 268 38.6667 268 44H248ZM240 28H244V24H240V28ZM244 24H248V20H244V24ZM248 20H252V16H248V20ZM248 16V12H244V16H248ZM252 16H256V4H240V8H252C252 8 252 10.6667 252 16ZM264 12V0H260V12H264ZM44 144V140H40V136H36V140H28V128H40V124H28C28 124 28 121.333 28 116H44V112H8V116H24C24 116 24 118.667 24 124H12V128H24V140H8V144H44ZM48 156V160H52V100H0V160H4V156H48ZM4 152C4 152 4 136 4 104H48C48 104 48 120 48 152H4ZM36 136V132H32V136H36ZM120 120V116H84V120H100V156H96V160H100V156H104V120H120ZM116 104V100H88V104H116ZM64 100V160H68V140H72V144H76V140H72V136H68C68 136 68 130.667 68 120H72V124H76C76 124 76 129.333 76 140H80C80 140 80 134.667 80 124H76V120H72V116H68V104H76V108H72C72 108 72 110.667 72 116H76C76 116 76 113.333 76 108H80C80 108 80 105.333 80 100H64ZM96 156V152H92V156H96ZM84 144H80V148H84V144ZM84 144H88C88 144 88 141.333 88 136H84C84 136 84 138.667 84 144ZM116 140C116 140 116 142.667 116 148H120C120 148 120 145.333 120 140H116ZM116 140C116 140 116 137.333 116 132H112C112 132 112 134.667 112 140H116ZM88 136H92C92 136 92 133.333 92 128H88C88 128 88 130.667 88 136ZM112 132V128H108V132H112ZM184 160V156H176V160H184ZM184 120V116H156V96H152V116H124V120H152C152 120 152 122.667 152 128H148C148 128 148 130.667 148 136H144C144 136 144 138.667 144 144H140V148H136V152H132V156H124V160H132V156H136V152H140V148H144V144H148C148 144 148 141.333 148 136H152C152 136 152 133.333 152 128H156C156 128 156 130.667 156 136H160C160 136 160 138.667 160 144H164V148H168V152H172V156H176V152H172V148H168V144H164C164 144 164 141.333 164 136H160C160 136 160 133.333 160 128H156C156 128 156 125.333 156 120H184ZM196 152V148H192V152H188V156H192V152H196ZM228 128V124H208V120H220V100H192V120H204V124H188V128H228ZM204 156H200V160H208C208 160 208 154.667 208 144H220V132H192V144H204V156ZM224 156V160H232V156H224ZM224 156V152H220V156H224ZM232 156H236V152H232V156ZM220 152V148H216V152H220ZM236 152H240V148H236V152ZM240 148H244V144H240V148ZM244 144H248C248 144 248 141.333 248 136H244C244 136 244 138.667 244 144ZM196 140V136H216V140H196ZM232 136H228V140H232V136ZM232 136H236V132H232V136ZM236 132H240V128H236V132ZM240 128H244V124H240V128ZM244 124H248C248 124 248 121.333 248 116H244C244 116 244 118.667 244 124ZM196 116V112H216V116H196ZM232 116H228V120H232V116ZM232 116H236V112H232V116ZM236 112H240V108H236V112ZM196 108V104H216V108H196ZM240 108H244C244 108 244 105.333 244 100H240C240 100 240 102.667 240 108ZM312 132V128H276V132H284V144H280C280 144 280 146.667 280 152H276V156H272V160H276V156H280V152H284C284 152 284 149.333 284 144H288V132H296V152H300V156H312V144H308C308 144 308 146.667 308 152H300V132H312ZM256 100V160H260V140H264V144H268V140H264V136H260C260 136 260 130.667 260 120H264V124H268C268 124 268 129.333 268 140H272C272 140 272 134.667 272 124H268V120H264V116H260V104H268V108H264C264 108 264 110.667 264 116H268C268 116 268 113.333 268 108H272C272 108 272 105.333 272 100H256ZM304 116H280V120H304V116ZM304 116H308V112H304V116ZM276 112H272V116H276V112ZM276 112H280V108H308V112H312C312 112 312 109.333 312 104H296V100H292V104H276C276 104 276 106.667 276 112ZM292 100V96H288V100H292Z" fill="white"/>
</svg>
