<svg width="278" height="301" viewBox="0 0 278 301" fill="none" xmlns="http://www.w3.org/2000/svg">
<path d="M46.6367 24.8008C48.2773 22.418 49.6901 19.6706 50.875 16.5586C53.0625 17.5482 54.1562 18.3164 54.1562 18.8633C54.1562 19.2409 53.5573 19.4297 52.3594 19.4297C50.901 22.3203 49.3385 24.7747 47.6719 26.793C48.5964 28.5508 49.6771 30.0286 50.9141 31.2266C51.5 31.8125 51.9167 32.1055 52.1641 32.1055C52.8802 32.1055 53.6419 29.7096 54.4492 24.918L55.4844 25.6406C55.0026 28.7005 54.7617 30.8164 54.7617 31.9883C54.7617 33.3164 55.1328 34.1172 55.875 34.3906C55.5104 35.4844 54.8724 36.0312 53.9609 36.0312C52.9714 36.0312 51.6107 35.2435 49.8789 33.668C48.5768 32.4831 47.3398 30.8555 46.168 28.7852C43.3685 31.9362 39.8984 34.3776 35.7578 36.1094L35.1523 35.2305C38.8893 33.2773 42.1836 30.4779 45.0352 26.832C43.681 23.5117 42.724 19.5534 42.1641 14.957H33.1211V21.3438C35.4128 20.8359 37.8542 20.1849 40.4453 19.3906L40.6406 20.4258C38.6354 21.181 36.1289 22.0794 33.1211 23.1211V33.6289C33.1211 35.6211 31.7865 36.5977 29.1172 36.5586C29.1172 35.6732 28.7331 35.0417 27.9648 34.6641C27.444 34.4167 26.3633 34.1237 24.7227 33.7852V32.75C26.5456 33.0234 28.1732 33.1602 29.6055 33.1602C30.3997 33.1602 30.7969 32.7565 30.7969 31.9492V23.8242C28.6224 24.4753 26.793 24.9701 25.3086 25.3086C25.1133 26.4284 24.8529 26.9883 24.5273 26.9883C23.9414 26.9883 23.362 25.7643 22.7891 23.3164C26.2005 22.7826 28.8698 22.3008 30.7969 21.8711V15.1523H21.9883L21.5977 14.1562H30.7969V7.24219C28.8828 7.77604 26.3503 8.32292 23.1992 8.88281L22.7891 7.92578C28.7005 6.49349 33.2773 4.70964 36.5195 2.57422C38.3815 3.5638 39.3125 4.31901 39.3125 4.83984C39.3125 5.13932 38.9674 5.28906 38.2773 5.28906C37.9909 5.28906 37.5938 5.25 37.0859 5.17188C35.888 5.65365 34.5664 6.11589 33.1211 6.55859V13.9609H42.0469C41.7734 10.6146 41.6367 6.69531 41.6367 2.20312C44.3581 2.24219 45.7188 2.57422 45.7188 3.19922C45.7188 3.5638 45.1458 3.92839 44 4.29297C44 7.80859 44.1172 10.9661 44.3516 13.7656H51.6367L53.6875 11.1289C54.651 11.9753 55.543 12.9193 56.3633 13.9609L55.875 14.7617H44.4492C44.8398 18.6549 45.569 22.0013 46.6367 24.8008ZM47.1641 4.11719C50.5234 5.75781 52.2031 7.5026 52.2031 9.35156C52.2031 10.3932 51.7083 10.9141 50.7188 10.9141C50.0286 10.9141 49.6055 10.5039 49.4492 9.68359C49.0716 7.92578 48.1211 6.28516 46.5977 4.76172L47.1641 4.11719ZM72.2031 29.4883H64.8398V33.6094H62.5547V6.91016C63.3359 7.2487 64.2148 7.69141 65.1914 8.23828H66.4805C67.1185 6.16797 67.6523 3.66146 68.082 0.71875C70.6211 1.23958 71.8906 1.77344 71.8906 2.32031C71.8906 2.65885 71.3568 2.92578 70.2891 3.12109C69.4036 5.07422 68.5182 6.77995 67.6328 8.23828H71.8516L73.4531 6.10938C74.9375 7.48958 75.6797 8.36198 75.6797 8.72656C75.6797 8.86979 75.5755 9.01302 75.3672 9.15625L74.4883 9.80078V32.5547H72.2031V29.4883ZM72.2031 17.9648V9.23438H64.8398V17.9648H72.2031ZM72.2031 18.9609H64.8398V28.4922H72.2031V18.9609ZM82.125 8.72656H92.8477L94.3906 6.73438C96.0443 8.17969 96.8711 9.09766 96.8711 9.48828C96.8711 9.64453 96.7799 9.77474 96.5977 9.87891L95.4844 10.5625C95.4453 21.7865 94.8203 29.2799 93.6094 33.043C92.8411 35.3867 91.1745 36.5586 88.6094 36.5586C88.6094 35.8555 88.2448 35.3216 87.5156 34.957C86.6693 34.5794 84.9375 34.1953 82.3203 33.8047V32.7109C85.1589 33.0365 87.2812 33.1992 88.6875 33.1992C90.0807 33.1992 90.9987 32.6003 91.4414 31.4023C92.5221 28.3164 93.082 21.0898 93.1211 9.72266H81.7539C80.3086 13.7852 78.388 17.2943 75.9922 20.25L75.1523 19.6836C78.2383 14.3711 80.2826 8.02344 81.2852 0.640625C84.0065 1.00521 85.3672 1.51302 85.3672 2.16406C85.3672 2.52865 84.7943 2.80859 83.6484 3.00391C83.1927 5.16536 82.6849 7.07292 82.125 8.72656ZM78.5117 20.9141L78.082 19.918H87.3203L89.1953 17.5547C90.237 18.4661 91.0768 19.319 91.7148 20.1133L91.3242 20.9141H78.5117ZM121.344 8.12109C122.555 5.62109 123.466 3.23177 124.078 0.953125C126.578 1.78646 127.828 2.49609 127.828 3.08203C127.828 3.44661 127.229 3.64844 126.031 3.6875C125.276 4.9375 124.156 6.41536 122.672 8.12109H132.281L134.391 5.32812C135.419 6.27865 136.35 7.27474 137.184 8.31641L136.754 9.11719H101.344L100.953 8.12109H121.344ZM107.008 14.3516V36.8711H104.762V11.9883C105.686 12.3789 106.598 12.8346 107.496 13.3555H114.762L116.227 11.4414C117.893 12.8477 118.727 13.7135 118.727 14.0391C118.727 14.1953 118.603 14.3516 118.355 14.5078L117.438 15.1133V33.3164C117.438 35.3607 116.181 36.3828 113.668 36.3828C113.629 35.5885 113.219 35.0482 112.438 34.7617C111.917 34.5404 110.999 34.3125 109.684 34.0781V33.043C111.324 33.1992 112.724 33.2773 113.883 33.2773C114.755 33.2773 115.191 32.8672 115.191 32.0469V14.3516H107.008ZM113.902 7.80859C113.29 7.80859 112.867 7.30078 112.633 6.28516C112.268 4.76172 111.227 3.32292 109.508 1.96875L110.074 1.20703C113.694 2.5612 115.504 4.21484 115.504 6.16797C115.504 7.26172 114.97 7.80859 113.902 7.80859ZM128.863 36.4414C128.863 35.6992 128.453 35.1523 127.633 34.8008C127.086 34.5794 125.725 34.2865 123.551 33.9219V32.8477C125.686 33.056 127.6 33.1602 129.293 33.1602C130.178 33.1602 130.621 32.6914 130.621 31.7539V11.5977C133.212 11.7539 134.508 12.112 134.508 12.6719C134.508 13.0234 133.987 13.401 132.945 13.8047V33.1602C132.945 35.3477 131.585 36.4414 128.863 36.4414ZM122.555 28.9219V13.2773C125.12 13.4466 126.402 13.8112 126.402 14.3711C126.402 14.7096 125.868 15.0547 124.801 15.4062V28.9219H122.555ZM108.023 18.2383L108.395 17.5547C110.139 17.9062 111.507 18.401 112.496 19.0391C113.382 19.599 113.824 20.1979 113.824 20.8359C113.824 21.6172 113.479 22.0078 112.789 22.0078C112.307 22.0078 111.923 21.793 111.637 21.3633C110.673 20.0352 109.469 18.9935 108.023 18.2383ZM108.023 24.8789L108.395 24.1953C110.139 24.5469 111.507 25.0417 112.496 25.6797C113.382 26.2396 113.824 26.8385 113.824 27.4766C113.824 28.2578 113.479 28.6484 112.789 28.6484C112.307 28.6484 111.923 28.4336 111.637 28.0039C110.673 26.6758 109.469 25.6341 108.023 24.8789ZM146.754 13.3555H141.148L140.836 12.3594H146.871V5.83594C144.319 6.36979 142.522 6.71484 141.48 6.87109L141.07 5.91406C145.732 4.92448 149.547 3.47266 152.516 1.55859C154.169 2.63932 154.996 3.40104 154.996 3.84375C154.996 4.10417 154.755 4.23438 154.273 4.23438C153.961 4.23438 153.59 4.18229 153.16 4.07812C152.066 4.48177 150.732 4.88542 149.156 5.28906V12.3594H151.52L153.277 9.83984C154.163 10.7253 154.924 11.6302 155.562 12.5547L155.113 13.3555H149.156V16.9102C150.875 17.8477 152.301 19.0065 153.434 20.3867C154.397 21.5586 154.879 22.5742 154.879 23.4336C154.879 24.3711 154.469 24.8398 153.648 24.8398C153.102 24.8398 152.672 24.3581 152.359 23.3945C151.773 21.7018 150.706 19.957 149.156 18.1602V36.8711H146.871V19.1953C145.27 22.9974 143.297 26.3828 140.953 29.3516L140.074 28.7461C143.121 24.1367 145.348 19.0065 146.754 13.3555ZM159.762 13.1211V15.6406H157.477V2.35938C158.518 2.80208 159.397 3.24479 160.113 3.6875H170.309L171.871 1.89062C173.408 3.11458 174.176 3.90234 174.176 4.25391C174.176 4.4362 174.072 4.59245 173.863 4.72266L172.945 5.32812V15.2891H170.699V13.1211H159.762ZM159.762 12.125H170.699V4.68359H159.762V12.125ZM164.039 34.3711V27.0859H156.48L156.031 26.0898H164.039V20.1719C161.617 20.4583 158.766 20.7122 155.484 20.9336L155.074 20.0156C161.637 19.2734 167.522 18.082 172.73 16.4414C174.41 17.5352 175.25 18.3034 175.25 18.7461C175.25 18.9544 175.009 19.0586 174.527 19.0586C174.28 19.0586 173.824 18.987 173.16 18.8438C170.908 19.2474 168.655 19.599 166.402 19.8984V26.0898H170.445L172.359 23.6875C173.297 24.5859 174.085 25.4518 174.723 26.2852L174.273 27.0859H166.402V34.3711H172.77L174.918 31.6562C175.908 32.5677 176.799 33.5247 177.594 34.5273L177.047 35.3672H153.551L153.16 34.3711H164.039ZM197.574 17.5938V10.1523H184.723L184.254 9.15625H197.574V1.55859C200.4 1.75391 201.812 2.11198 201.812 2.63281C201.812 2.97135 201.214 3.36198 200.016 3.80469V9.15625H208.531L210.484 6.44141C211.253 7.11849 212.053 7.95833 212.887 8.96094L213.258 9.35156L212.809 10.1523H200.016V17.5938H211.207L213.453 14.7617C214.547 15.6992 215.504 16.7083 216.324 17.7891L215.855 18.5898H200.367C204.625 24.0456 210.146 28.2708 216.93 31.2656C216.044 31.9557 215.354 32.7435 214.859 33.6289C208.544 30.1523 203.596 25.582 200.016 19.918V36.8711H197.574V21.2656C193.707 26.9427 188.453 31.4935 181.812 34.918L181.129 34.0391C187.626 30.0807 192.73 24.931 196.441 18.5898H182.164L181.695 17.5938H197.574ZM244 6.63672H252.359L253.961 4.60547C255.654 5.9987 256.5 6.89062 256.5 7.28125C256.5 7.42448 256.428 7.54167 256.285 7.63281L255.172 8.39453V34.2344H252.809V30.5625H243.57V34.918H241.207V5.28906C242.392 5.83594 243.323 6.28516 244 6.63672ZM243.57 7.63281V29.5664H252.809V7.63281H243.57ZM231.988 8.70703V17.8477H235.738L237.691 15.1133C238.486 15.9076 239.345 16.8841 240.27 18.043L239.82 18.8438H231.949C231.897 20.3542 231.734 21.7279 231.461 22.9648C234.039 24.5143 236.142 26.207 237.77 28.043C239.085 29.5013 239.742 30.7253 239.742 31.7148C239.742 32.7044 239.299 33.1992 238.414 33.1992C237.867 33.1992 237.457 32.8802 237.184 32.2422C235.895 29.2474 233.909 26.5391 231.227 24.1172C229.898 29.651 226.63 33.8112 221.422 36.5977L220.777 35.7578C224.983 32.6719 227.665 28.8633 228.824 24.332C229.215 22.6654 229.469 20.8359 229.586 18.8438H221.344L220.855 17.8477H229.625V8.70703H226.852C225.771 11.832 224.293 14.5599 222.418 16.8906L221.578 16.3633C223.909 12.0534 225.374 6.92969 225.973 0.992188C228.616 1.39583 229.938 1.8776 229.938 2.4375C229.938 2.76302 229.391 3.06901 228.297 3.35547C227.997 4.72266 227.626 6.17448 227.184 7.71094H234.898L236.812 5.07422C237.919 6.16797 238.772 7.125 239.371 7.94531L238.98 8.70703H231.988ZM25.9141 97.918V121.199C25.9141 123.439 24.5664 124.559 21.8711 124.559C21.832 123.751 21.4219 123.191 20.6406 122.879C20.0417 122.645 18.7331 122.365 16.7148 122.039V120.965C18.5117 121.173 20.3607 121.277 22.2617 121.277C23.1211 121.277 23.5508 120.88 23.5508 120.086V97.918H17.6719C16.3047 100.796 14.5729 103.556 12.4766 106.199L11.6367 105.594C14.5273 101.01 16.6302 95.3854 17.9453 88.7188C20.5104 89.2005 21.793 89.7344 21.793 90.3203C21.793 90.6719 21.207 90.9648 20.0352 91.1992C19.4492 93.3216 18.8112 95.2292 18.1211 96.9219H32.7109L34.2344 94.7148C36.1484 96.3945 37.1055 97.4753 37.1055 97.957C37.1055 98.1654 36.9622 98.3151 36.6758 98.4062L35.5039 98.7578C34.7357 100.203 33.6484 101.844 32.2422 103.68L31.4023 103.23C32.0143 101.694 32.5612 99.9232 33.043 97.918H25.9141ZM7.98438 100.633C9.29948 100.828 9.95703 101.147 9.95703 101.59C9.95703 101.928 9.44922 102.299 8.43359 102.703V124.871H6.07031V104.305C4.50781 107.065 2.78906 109.585 0.914062 111.863L0.113281 111.238C4.14974 105.118 7.26823 97.7161 9.46875 89.0312C12.0339 89.5911 13.3164 90.1771 13.3164 90.7891C13.3164 91.1667 12.7174 91.4727 11.5195 91.707C10.543 94.8711 9.36458 97.8464 7.98438 100.633ZM29.1172 103.406C33.8307 108.484 36.1875 112.697 36.1875 116.043C36.1875 117.449 35.6536 118.152 34.5859 118.152C33.9479 118.152 33.5117 117.449 33.2773 116.043C32.7044 112.189 31.0638 108.159 28.3555 103.953L29.1172 103.406ZM12.2812 118.914C14.638 114.305 16.3177 109.174 17.3203 103.523C19.7943 104.201 21.0312 104.812 21.0312 105.359C21.0312 105.737 20.4974 106.004 19.4297 106.16C18.1146 111.121 16.0378 115.561 13.1992 119.48L12.2812 118.914ZM52.2031 117.488H44.8398V121.609H42.5547V94.9102C43.3359 95.2487 44.2148 95.6914 45.1914 96.2383H46.4805C47.1185 94.168 47.6523 91.6615 48.082 88.7188C50.6211 89.2396 51.8906 89.7734 51.8906 90.3203C51.8906 90.6589 51.3568 90.9258 50.2891 91.1211C49.4036 93.0742 48.5182 94.7799 47.6328 96.2383H51.8516L53.4531 94.1094C54.9375 95.4896 55.6797 96.362 55.6797 96.7266C55.6797 96.8698 55.5755 97.013 55.3672 97.1562L54.4883 97.8008V120.555H52.2031V117.488ZM52.2031 105.965V97.2344H44.8398V105.965H52.2031ZM52.2031 106.961H44.8398V116.492H52.2031V106.961ZM62.125 96.7266H72.8477L74.3906 94.7344C76.0443 96.1797 76.8711 97.0977 76.8711 97.4883C76.8711 97.6445 76.7799 97.7747 76.5977 97.8789L75.4844 98.5625C75.4453 109.786 74.8203 117.28 73.6094 121.043C72.8411 123.387 71.1745 124.559 68.6094 124.559C68.6094 123.855 68.2448 123.322 67.5156 122.957C66.6693 122.579 64.9375 122.195 62.3203 121.805V120.711C65.1589 121.036 67.2812 121.199 68.6875 121.199C70.0807 121.199 70.9987 120.6 71.4414 119.402C72.5221 116.316 73.082 109.09 73.1211 97.7227H61.7539C60.3086 101.785 58.388 105.294 55.9922 108.25L55.1523 107.684C58.2383 102.371 60.2826 96.0234 61.2852 88.6406C64.0065 89.0052 65.3672 89.513 65.3672 90.1641C65.3672 90.5286 64.7943 90.8086 63.6484 91.0039C63.1927 93.1654 62.6849 95.0729 62.125 96.7266ZM58.5117 108.914L58.082 107.918H67.3203L69.1953 105.555C70.237 106.466 71.0768 107.319 71.7148 108.113L71.3242 108.914H58.5117ZM99.8594 112.84H111.461L113.531 110.281C114.612 111.206 115.491 112.124 116.168 113.035L115.738 113.836H100.289C103.479 118.263 109.15 120.958 117.301 121.922C116.467 122.703 115.836 123.543 115.406 124.441C107.49 122.84 102.171 119.559 99.4492 114.598C97.7826 120.444 91.8776 123.908 81.7344 124.988L81.207 124.031C90.5299 122.508 95.888 119.109 97.2812 113.836H82.3594L81.9297 112.84H97.4961C97.5742 112.28 97.6133 111.772 97.6133 111.316V107.879C100.178 108.322 101.461 108.79 101.461 109.285C101.461 109.585 100.953 109.839 99.9375 110.047V111.316C99.9375 111.642 99.9115 112.15 99.8594 112.84ZM101.656 95.2812C102.776 93.3151 103.772 91.0365 104.645 88.4453C107.079 89.1224 108.297 89.7734 108.297 90.3984C108.297 90.737 107.737 90.9258 106.617 90.9648C105.615 92.4362 104.41 93.875 103.004 95.2812H110.523L112.418 92.8398C113.238 93.5951 114.091 94.487 114.977 95.5156L114.605 96.2773H100.055V100.848H109.527L111.363 98.4844C112.288 99.2526 113.167 100.118 114 101.082L113.492 101.844H100.055V106.766H111.93L113.961 104.246C114.977 105.184 115.836 106.076 116.539 106.922L116.129 107.762H81.7734L81.4023 106.766H97.7305V101.844H84.918L84.5273 100.848H97.7305V96.2773H83.4922L83.043 95.2812H101.656ZM90.1133 88.6406C93.7461 90.0339 95.5625 91.6875 95.5625 93.6016C95.5625 94.6172 95.0547 95.125 94.0391 95.125C93.4401 95.125 93.043 94.7669 92.8477 94.0508C92.4049 92.3581 91.3242 90.8086 89.6055 89.4023L90.1133 88.6406ZM129.625 116.883C130.615 118.68 132.223 119.878 134.449 120.477C137.014 121.232 140.712 121.609 145.543 121.609C148.655 121.609 152.548 121.421 157.223 121.043C156.611 121.967 156.207 122.911 156.012 123.875H147.496C141.415 123.875 137.014 123.413 134.293 122.488C132.001 121.707 130.243 120.301 129.02 118.27C127.822 119.715 126.129 121.368 123.941 123.23C123.941 124.298 123.779 124.832 123.453 124.832C122.841 124.832 122.014 123.771 120.973 121.648C123.108 120.724 125.243 119.572 127.379 118.191V109.793H121.656L121.285 108.797H127.008L128.57 106.961C130.159 108.25 130.953 109.051 130.953 109.363C130.953 109.559 130.816 109.728 130.543 109.871L129.625 110.438V116.883ZM146.422 93.4844C145.445 95.8281 144.482 97.8008 143.531 99.4023C145.458 99.5716 146.422 99.9036 146.422 100.398C146.422 100.737 145.901 101.082 144.859 101.434V119.52H142.535V100.965C140.087 104.637 136.845 107.859 132.809 110.633L132.125 109.93C137.411 105.568 141.24 100.086 143.609 93.4844H133.922L133.531 92.4883H152.086L154.176 89.6953C155.23 90.6979 156.135 91.681 156.891 92.6445L156.5 93.4844H146.422ZM122.535 98.0742L123.043 97.3125C127.184 98.7969 129.254 100.49 129.254 102.391C129.254 103.38 128.772 103.875 127.809 103.875C127.275 103.875 126.845 103.556 126.52 102.918C125.53 100.978 124.202 99.3633 122.535 98.0742ZM124.566 90.5156L125.133 89.7539C129.43 91.082 131.578 92.7357 131.578 94.7148C131.578 95.7565 131.096 96.2773 130.133 96.2773C129.651 96.2773 129.234 95.9453 128.883 95.2812C127.919 93.4193 126.48 91.8307 124.566 90.5156ZM154.566 110.77C154.059 110.77 153.577 110.262 153.121 109.246C152.132 106.863 150.081 104.396 146.969 101.844L147.496 101.121C153.095 104.142 155.895 106.876 155.895 109.324C155.895 110.288 155.452 110.77 154.566 110.77ZM184.957 109.754V121.922H191.988L194.312 119.031L195.035 119.754C195.816 120.496 196.526 121.258 197.164 122.039L196.676 122.918H172.477L172.066 121.922H182.594V109.754H174.469L174.039 108.758H182.594V99.5977C185.289 99.7539 186.637 100.125 186.637 100.711C186.637 101.062 186.077 101.44 184.957 101.844V108.758H189.879L191.91 106.004C192.952 106.954 193.876 107.924 194.684 108.914L194.156 109.754H184.957ZM174.879 97.3516C173.59 100.464 172.151 103.25 170.562 105.711V124.871H168.277V108.914C166.311 111.349 163.993 113.667 161.324 115.867L160.602 114.988C163.557 112.228 166.116 109.07 168.277 105.516V102.273C168.395 102.312 168.727 102.456 169.273 102.703C169.312 102.716 169.384 102.749 169.488 102.801C169.579 102.853 169.658 102.892 169.723 102.918C170.621 101.238 171.461 99.3828 172.242 97.3516H161.871L161.52 96.3555H172.633C173.479 94.0378 174.228 91.5573 174.879 88.9141C177.47 89.6302 178.766 90.2552 178.766 90.7891C178.766 91.1797 178.141 91.4727 176.891 91.668C176.396 93.2695 175.862 94.832 175.289 96.3555H191.246L193.434 93.2695C194.436 94.1289 195.491 95.2357 196.598 96.5898L196.168 97.3516H174.879ZM206.91 107.801H231.109L232.672 106.082C234.339 107.332 235.172 108.146 235.172 108.523C235.172 108.706 235.061 108.862 234.84 108.992L233.805 109.676V121.238C233.805 123.4 232.47 124.48 229.801 124.48C229.801 123.829 229.495 123.361 228.883 123.074C228.206 122.723 226.754 122.443 224.527 122.234V121.121C226.155 121.277 227.724 121.355 229.234 121.355C230.406 121.355 231.096 121.251 231.305 121.043C231.448 120.861 231.52 120.594 231.52 120.242V108.797H206.48V124.871H204.195V106.648C205.276 107.026 206.181 107.41 206.91 107.801ZM214.41 112.039H223.258L224.703 110.438C226.318 111.596 227.125 112.371 227.125 112.762C227.125 112.918 227.027 113.048 226.832 113.152L225.758 113.797V119.793H223.59V118.562H213.98V120.887H211.773V110.809C212.919 111.303 213.798 111.714 214.41 112.039ZM213.98 113.035V117.566H223.59V113.035H213.98ZM212.77 98.0352H225.387L226.91 96.3164C228.499 97.5273 229.293 98.3151 229.293 98.6797C229.293 98.8359 229.169 98.9922 228.922 99.1484L227.965 99.7539V105.926H225.758V104.402H212.262V106.043H210.094V96.9219C210.966 97.2344 211.858 97.6055 212.77 98.0352ZM212.262 99.0312V103.406H225.758V99.0312H212.262ZM217.691 93.9922V89.0312C220.335 89.0703 221.656 89.3893 221.656 89.9883C221.656 90.3008 221.096 90.6328 219.977 90.9844V93.9922H231.09L233.121 91.3555C234.176 92.3581 235.126 93.3281 235.973 94.2656L235.562 94.9883H202.516L202.125 93.9922H217.691ZM266.344 98.5625C266.201 99.5391 266.038 100.483 265.855 101.395C269.449 104.975 272.151 108.53 273.961 112.059C274.534 113.217 274.846 114.109 274.898 114.734C274.898 115.828 274.501 116.414 273.707 116.492C272.913 116.505 272.177 115.678 271.5 114.012C269.911 110.027 267.893 106.395 265.445 103.113C263.961 108.934 261.298 113.348 257.457 116.355L256.695 115.633C261.76 110.333 264.293 102.15 264.293 91.082V89.5C267.066 89.4609 268.453 89.7995 268.453 90.5156C268.453 90.8802 267.88 91.2773 266.734 91.707C266.734 94.2591 266.604 96.5443 266.344 98.5625ZM248.512 97.3906C248.395 97.8724 248.245 98.5365 248.062 99.3828C248.44 104.174 249.716 108.549 251.891 112.508C253.909 107.872 255.035 102.833 255.27 97.3906H248.512ZM255.152 96.3945L256.559 94.5586C258.134 95.9648 258.922 96.8568 258.922 97.2344C258.922 97.4167 258.824 97.5599 258.629 97.6641L257.555 98.2695C257.242 104.389 255.79 109.773 253.199 114.422C256.741 118.81 262.9 121.004 271.676 121.004C273.225 121.004 275.159 120.926 277.477 120.77C276.839 121.577 276.389 122.495 276.129 123.523H271.93C262.815 123.523 256.253 121.03 252.242 116.043C249.977 119.572 246.507 122.488 241.832 124.793L241.148 123.875C245.745 121.297 249.039 118.107 251.031 114.305C249.026 110.919 247.77 106.857 247.262 102.117C245.973 106.141 244.163 109.702 241.832 112.801L240.953 112.117C244.312 106.414 246.415 98.8685 247.262 89.4805C249.853 89.6758 251.148 90.099 251.148 90.75C251.148 91.0625 250.615 91.3945 249.547 91.7461C249.326 93.2174 249.059 94.7669 248.746 96.3945H255.152ZM43.4336 198.125C41.8711 202.214 38.5768 205.104 33.5508 206.797L32.9453 205.879C37.8932 203.652 40.8424 200.228 41.793 195.605H32.5156L32.0273 194.609H41.9492C42.0273 193.971 42.0664 193.314 42.0664 192.637V188.555H36.7148L36.3047 187.559H47.2227L48.9609 185.391C49.7812 186.107 50.5885 186.908 51.3828 187.793L50.9922 188.555H44.3906V192.559C44.3906 193.249 44.4753 193.932 44.6445 194.609H51.1875L53.1016 192.09C54.2344 193.092 55.1589 193.997 55.875 194.805L55.4258 195.605H45.0742C47.5352 199.759 51.1159 202.832 55.8164 204.824C54.8919 205.514 54.1823 206.263 53.6875 207.07C48.974 203.971 45.7643 200.241 44.0586 195.879C43.9544 196.582 43.7461 197.331 43.4336 198.125ZM28.8242 206.289C27.444 207.891 25.7904 209.46 23.8633 210.996C23.8242 212.064 23.6354 212.598 23.2969 212.598C22.7891 212.598 22.0339 211.556 21.0312 209.473C22.8672 208.678 24.918 207.585 27.1836 206.191V197.559H21.5L21.0703 196.562H26.832L28.3555 194.727C29.931 196.016 30.7188 196.829 30.7188 197.168C30.7188 197.324 30.5951 197.48 30.3477 197.637L29.4297 198.242V205.039C31.526 208.112 36.7539 209.648 45.1133 209.648C48.4336 209.648 52.418 209.421 57.0664 208.965C56.4674 209.798 56.0703 210.742 55.875 211.797H47.4766C41.6042 211.797 37.3073 211.374 34.5859 210.527C31.9688 209.707 30.0482 208.294 28.8242 206.289ZM55.582 189.746C53.3685 188.353 51.6107 186.816 50.3086 185.137C49.2279 183.743 48.2318 181.934 47.3203 179.707H41.5586L41.1094 178.711H46.5195L48.0234 176.836C49.599 178.086 50.3867 178.828 50.3867 179.062C50.3867 179.219 50.2174 179.395 49.8789 179.59L48.7461 180.156C50.3086 183.073 53.1927 185.501 57.3984 187.441C56.7474 188.001 56.1419 188.77 55.582 189.746ZM32.1836 191.113L31.4805 190.43C34.4883 187.161 36.6172 183.431 37.8672 179.238C40.1589 180.176 41.3047 180.879 41.3047 181.348C41.3047 181.816 40.7318 182.018 39.5859 181.953C37.8151 185.495 35.3477 188.548 32.1836 191.113ZM29.3906 184.316C28.8438 184.316 28.3945 183.906 28.043 183.086C27.3398 181.406 25.9792 179.909 23.9609 178.594L24.4688 177.793C28.6354 179.238 30.7188 180.905 30.7188 182.793C30.7188 183.809 30.276 184.316 29.3906 184.316ZM27.5156 191.992C26.9427 191.992 26.5 191.582 26.1875 190.762C25.4974 189.004 24.2214 187.467 22.3594 186.152L22.8672 185.352C26.8385 186.914 28.8242 188.633 28.8242 190.508C28.8242 191.497 28.388 191.992 27.5156 191.992ZM86.6367 200.801C88.2773 198.418 89.6901 195.671 90.875 192.559C93.0625 193.548 94.1562 194.316 94.1562 194.863C94.1562 195.241 93.5573 195.43 92.3594 195.43C90.901 198.32 89.3385 200.775 87.6719 202.793C88.5964 204.551 89.6771 206.029 90.9141 207.227C91.5 207.812 91.9167 208.105 92.1641 208.105C92.8802 208.105 93.6419 205.71 94.4492 200.918L95.4844 201.641C95.0026 204.701 94.7617 206.816 94.7617 207.988C94.7617 209.316 95.1328 210.117 95.875 210.391C95.5104 211.484 94.8724 212.031 93.9609 212.031C92.9714 212.031 91.6107 211.243 89.8789 209.668C88.5768 208.483 87.3398 206.855 86.168 204.785C83.3685 207.936 79.8984 210.378 75.7578 212.109L75.1523 211.23C78.8893 209.277 82.1836 206.478 85.0352 202.832C83.681 199.512 82.724 195.553 82.1641 190.957H73.1211V197.344C75.4128 196.836 77.8542 196.185 80.4453 195.391L80.6406 196.426C78.6354 197.181 76.1289 198.079 73.1211 199.121V209.629C73.1211 211.621 71.7865 212.598 69.1172 212.559C69.1172 211.673 68.7331 211.042 67.9648 210.664C67.444 210.417 66.3633 210.124 64.7227 209.785V208.75C66.5456 209.023 68.1732 209.16 69.6055 209.16C70.3997 209.16 70.7969 208.757 70.7969 207.949V199.824C68.6224 200.475 66.793 200.97 65.3086 201.309C65.1133 202.428 64.8529 202.988 64.5273 202.988C63.9414 202.988 63.362 201.764 62.7891 199.316C66.2005 198.783 68.8698 198.301 70.7969 197.871V191.152H61.9883L61.5977 190.156H70.7969V183.242C68.8828 183.776 66.3503 184.323 63.1992 184.883L62.7891 183.926C68.7005 182.493 73.2773 180.71 76.5195 178.574C78.3815 179.564 79.3125 180.319 79.3125 180.84C79.3125 181.139 78.9674 181.289 78.2773 181.289C77.9909 181.289 77.5938 181.25 77.0859 181.172C75.888 181.654 74.5664 182.116 73.1211 182.559V189.961H82.0469C81.7734 186.615 81.6367 182.695 81.6367 178.203C84.3581 178.242 85.7188 178.574 85.7188 179.199C85.7188 179.564 85.1458 179.928 84 180.293C84 183.809 84.1172 186.966 84.3516 189.766H91.6367L93.6875 187.129C94.651 187.975 95.543 188.919 96.3633 189.961L95.875 190.762H84.4492C84.8398 194.655 85.569 198.001 86.6367 200.801ZM87.1641 180.117C90.5234 181.758 92.2031 183.503 92.2031 185.352C92.2031 186.393 91.7083 186.914 90.7188 186.914C90.0286 186.914 89.6055 186.504 89.4492 185.684C89.0716 183.926 88.1211 182.285 86.5977 180.762L87.1641 180.117ZM112.555 188.555H105.719L105.426 187.559H112.555V183.906C115.042 183.984 116.285 184.277 116.285 184.785C116.285 185.124 115.79 185.475 114.801 185.84V187.559H122.867V183.789C125.406 183.958 126.676 184.303 126.676 184.824C126.676 185.137 126.155 185.475 125.113 185.84V187.559H129.391L131.148 185.352L131.793 185.879C132.236 184.551 132.516 183.574 132.633 182.949H106.324C106.324 184.772 105.96 186.243 105.23 187.363C104.54 188.405 103.811 188.926 103.043 188.926C102.132 188.926 101.676 188.457 101.676 187.52C101.676 187.064 101.969 186.582 102.555 186.074C104.039 184.798 104.84 182.891 104.957 180.352L106.031 180.43C106.122 180.794 106.188 181.302 106.227 181.953H117.672V176.836C120.367 176.953 121.715 177.285 121.715 177.832C121.715 178.145 121.129 178.503 119.957 178.906V181.953H132.477L134.039 180.078C136.057 181.862 137.066 183.021 137.066 183.555C137.066 183.789 136.871 183.945 136.48 184.023L135.074 184.316C134.449 185.072 133.661 185.859 132.711 186.68C133.154 187.083 133.557 187.48 133.922 187.871L133.473 188.555H125.113V192.129H128.277L130.074 189.961C131.116 190.794 131.969 191.582 132.633 192.324L132.105 193.125H125.113V197.07H131.48L133.434 194.727C134.514 195.638 135.419 196.51 136.148 197.344L135.68 198.066H125.23C128.121 201.387 132.027 203.841 136.949 205.43C136.064 206.146 135.413 206.908 134.996 207.715C130.4 205.736 126.676 202.52 123.824 198.066H114.566C113.017 200.892 111.07 203.197 108.727 204.98C106.747 206.478 104.332 207.721 101.48 208.711L100.875 207.793C105.862 205.514 109.514 202.272 111.832 198.066H102.516L102.164 197.07H112.555V193.125H106.266L105.953 192.129H112.555V188.555ZM114.801 188.555V192.129H122.867V188.555H114.801ZM114.801 193.125V197.07H122.867V193.125H114.801ZM122.77 205.723C122.379 205.723 121.91 205.43 121.363 204.844C119.97 203.32 117.783 201.986 114.801 200.84L115.152 199.961C121.025 201.12 123.961 202.611 123.961 204.434C123.961 205.293 123.564 205.723 122.77 205.723ZM110.602 209.395C116.578 208.874 122.359 207.943 127.945 206.602L128.355 207.598C122.952 209.421 117.978 210.742 113.434 211.562C113.395 212.708 113.128 213.281 112.633 213.281C112.047 213.281 111.37 211.986 110.602 209.395ZM161.949 197.227V212.871H159.586V197.227H152.262L151.754 196.23H169.879L171.324 194.395C172.952 195.618 173.766 196.445 173.766 196.875C173.766 197.057 173.629 197.227 173.355 197.383L172.438 197.949V205.918C172.438 207.923 171.181 208.906 168.668 208.867C168.668 208.112 168.284 207.552 167.516 207.188C166.956 206.953 165.738 206.686 163.863 206.387V205.352C165.426 205.534 167.027 205.625 168.668 205.625C169.684 205.625 170.191 205.228 170.191 204.434V197.227H161.949ZM163.141 179.277C166.695 184.473 171.363 188.555 177.145 191.523C176.441 192.083 175.79 192.897 175.191 193.965C169.814 190.397 165.615 185.859 162.594 180.352L162.359 180.84C159.547 186.569 155.413 191.328 149.957 195.117L149.273 194.316C154.456 189.98 158.466 184.264 161.305 177.168C163.596 177.611 164.742 178.073 164.742 178.555C164.742 178.841 164.208 179.082 163.141 179.277ZM142.398 179.961C144.56 180.781 146.168 181.849 147.223 183.164C147.835 183.932 148.141 184.648 148.141 185.312C148.141 186.406 147.633 186.953 146.617 186.953C145.992 186.953 145.582 186.543 145.387 185.723C144.957 183.926 143.785 182.233 141.871 180.645L142.398 179.961ZM164.664 190.312L166.422 188.027C167.177 188.704 167.952 189.544 168.746 190.547L168.355 191.309H157.066L156.754 190.312H164.664ZM153.434 183.281L147.105 199.355C146.715 200.358 146.52 201.276 146.52 202.109C146.52 202.63 146.611 203.327 146.793 204.199C147.105 205.723 147.262 207.214 147.262 208.672C147.262 210.378 146.624 211.23 145.348 211.23C144.527 211.23 144.117 210.775 144.117 209.863C144.117 209.72 144.195 209.108 144.352 208.027C144.56 206.634 144.664 205.488 144.664 204.59C144.664 202.923 144.254 201.79 143.434 201.191C142.926 200.827 142.138 200.56 141.07 200.391V199.355C141.708 199.434 142.203 199.473 142.555 199.473C143.622 199.473 144.436 199.03 144.996 198.145C147.444 194.329 149.938 189.173 152.477 182.676L153.434 183.281ZM199.879 181.992C199.749 186.628 199.521 190.02 199.195 192.168H210.191L212.32 189.609C213.453 190.56 214.397 191.491 215.152 192.402L214.723 193.164H199.039L198.961 193.73C197.958 199.147 196.038 203.359 193.199 206.367C190.738 208.945 187.099 211.048 182.281 212.676L181.715 211.797C187.431 209.284 191.389 206.048 193.59 202.09C194.879 199.824 195.868 196.849 196.559 193.164H183.16L182.711 192.168H196.754C197.132 189.707 197.359 186.315 197.438 181.992H185.348L184.996 180.996H207.242L209.195 178.477C210.289 179.427 211.233 180.358 212.027 181.27L211.598 181.992H199.879ZM214.391 202.52V204.082C214.352 206.348 214.495 207.76 214.82 208.32C215.029 208.698 215.419 208.887 215.992 208.887C215.953 210.046 215.51 210.762 214.664 211.035C213.661 211.387 211.292 211.562 207.555 211.562C203.414 211.562 201.038 211.296 200.426 210.762C200.022 210.397 199.82 209.648 199.82 208.516V195.039C202.49 195.078 203.824 195.41 203.824 196.035C203.824 196.413 203.238 196.803 202.066 197.207V207.871C202.066 208.561 202.294 208.991 202.75 209.16C203.232 209.342 204.762 209.434 207.34 209.434C210.348 209.434 212.034 209.062 212.398 208.32C212.841 207.448 213.147 205.436 213.316 202.285L214.391 202.52ZM229.605 185.352V176.992C232.014 177.109 233.219 177.415 233.219 177.91C233.219 178.223 232.737 178.516 231.773 178.789V185.352H236.461L238.102 183.105C238.961 184.017 239.612 184.831 240.055 185.547L239.605 186.348H231.773V187.832C236.07 188.757 238.219 189.967 238.219 191.465C238.219 192.324 237.848 192.754 237.105 192.754C236.702 192.754 236.298 192.513 235.895 192.031C234.814 190.742 233.44 189.688 231.773 188.867V194.727H229.605V188.633C227.418 190.99 224.697 192.982 221.441 194.609L220.855 193.77C224.202 191.699 226.878 189.225 228.883 186.348H221.441L221.129 185.352H229.605ZM225.758 204.395C225.615 204.642 225.393 205 225.094 205.469C224.794 205.924 224.579 206.263 224.449 206.484L222.516 205.605C223.844 203.561 225.003 201.478 225.992 199.355H221.031L220.641 198.359H226.441C226.884 197.357 227.379 196.12 227.926 194.648C229.996 195.326 231.031 195.872 231.031 196.289C231.031 196.562 230.504 196.758 229.449 196.875L228.844 198.359H236.324L237.848 196.445C238.811 197.253 239.592 197.995 240.191 198.672L239.762 199.355H236.285C236.272 199.395 236.253 199.466 236.227 199.57C236.174 199.792 236.142 199.974 236.129 200.117C235.595 202.344 234.755 204.329 233.609 206.074C235.953 207.233 237.125 208.288 237.125 209.238C237.125 210.007 236.754 210.391 236.012 210.391C235.673 210.391 235.335 210.247 234.996 209.961C234.085 209.089 233.232 208.379 232.438 207.832C230.185 210.332 226.611 211.986 221.715 212.793L221.207 211.875C225.426 210.911 228.557 209.167 230.602 206.641C229.026 205.742 227.411 204.993 225.758 204.395ZM226.246 203.555C227.9 203.893 229.71 204.44 231.676 205.195C232.665 203.503 233.401 201.556 233.883 199.355H228.395C227.796 200.749 227.079 202.148 226.246 203.555ZM248.883 202.422C251.122 205.391 254.085 207.91 257.77 209.98C257.001 210.658 256.37 211.432 255.875 212.305C252.307 209.779 249.573 207.129 247.672 204.355C244.846 208.197 241.038 211.009 236.246 212.793L235.641 211.914C240.302 209.583 243.889 206.38 246.402 202.305C244.54 199.062 243.128 194.759 242.164 189.395C241.135 191.621 239.84 193.685 238.277 195.586L237.438 194.98C240.198 190.514 242.158 184.518 243.316 176.992C245.777 177.513 247.008 178.021 247.008 178.516C247.008 178.867 246.461 179.147 245.367 179.355C244.859 181.725 244.326 183.724 243.766 185.352H253.16L254.957 182.832C255.999 183.783 256.878 184.714 257.594 185.625L257.203 186.348H253.082L253.043 186.836C252.522 193.086 251.135 198.281 248.883 202.422ZM247.516 200.391C249.195 196.432 250.211 191.895 250.562 186.777L250.602 186.348H243.395C243.382 186.413 243.329 186.549 243.238 186.758C243.121 187.07 243.043 187.279 243.004 187.383C244.007 192.747 245.51 197.083 247.516 200.391ZM222.809 178.203C225.66 179.844 227.086 181.452 227.086 183.027C227.086 184.017 226.63 184.512 225.719 184.512C225.146 184.512 224.762 184.062 224.566 183.164C224.293 181.771 223.479 180.358 222.125 178.926L222.809 178.203ZM233.473 184.199C234.684 182.324 235.699 180.26 236.52 178.008C238.499 178.854 239.488 179.518 239.488 180C239.488 180.352 238.967 180.527 237.926 180.527C237.132 181.686 235.888 183.073 234.195 184.688L233.473 184.199ZM29.293 274.719V283.684C32.1185 282.876 33.9674 282.329 34.8398 282.043L34.9961 283C32.5612 284.107 30.7643 284.882 29.6055 285.324L29.293 285.441V297.473C29.293 299.673 28.0625 300.754 25.6016 300.715C25.5625 299.439 24.1953 298.638 21.5 298.312V297.238C22.737 297.395 24.1172 297.473 25.6406 297.473C26.526 297.473 26.9688 297.102 26.9688 296.359V286.242C26.2526 286.49 25.0156 286.861 23.2578 287.355C23.1667 288.449 22.9779 288.996 22.6914 288.996C22.2096 288.996 21.6237 287.811 20.9336 285.441C23.2904 285.038 25.1654 284.68 26.5586 284.367C26.6628 284.341 26.7995 284.296 26.9688 284.23V274.719H21.4609L21.207 273.723H26.9688V265.012C29.6901 265.051 31.0508 265.37 31.0508 265.969C31.0508 266.307 30.4648 266.678 29.293 267.082V273.723H31.1289L33.1211 271.008C34.0065 271.932 34.8073 272.915 35.5234 273.957L35.0938 274.719H29.293ZM45.8945 289.602V297.648H52.6133L54.6445 294.934C55.2565 295.533 56.1224 296.503 57.2422 297.844L56.7734 298.645H32.8477L32.3594 297.648H43.5312V289.602H35.2891L34.8398 288.605H43.5312V282.043C46.0964 282.238 47.3789 282.609 47.3789 283.156C47.3789 283.495 46.8841 283.846 45.8945 284.211V288.605H51.2461L53.082 286.164C54.0065 287.01 54.8073 287.876 55.4844 288.762L55.0547 289.602H45.8945ZM43.5312 280.207V273.039H36.0117L35.6016 272.043H43.5312V264.953C46.1484 265.044 47.457 265.396 47.457 266.008C47.457 266.385 46.9362 266.757 45.8945 267.121V272.043H50.8945L52.7695 269.68C53.668 270.578 54.4557 271.444 55.1328 272.277L54.6836 273.039H45.8945V280.207H52.457L54.4102 277.805C55.4388 278.677 56.3307 279.556 57.0859 280.441L56.6562 281.203H34.332L33.9219 280.207H43.5312ZM86.9297 271.672H79.5664V277.238H86.9297V271.672ZM61.5195 274.328C64.8789 275.487 66.5586 276.978 66.5586 278.801C66.5586 279.816 66.1289 280.324 65.2695 280.324C64.6315 280.324 64.1953 279.842 63.9609 278.879C63.6354 277.447 62.6589 276.138 61.0312 274.953L61.5195 274.328ZM78.4531 278.234H70.5234C68.0495 286.385 66.806 290.48 66.793 290.52C66.4544 291.561 66.2852 292.375 66.2852 292.961C66.2852 293.312 66.3633 293.794 66.5195 294.406C66.9232 296.073 67.125 297.414 67.125 298.43C67.125 300.005 66.513 300.793 65.2891 300.793C64.3776 300.793 63.9219 300.298 63.9219 299.309C63.9219 299.165 64.0195 298.378 64.2148 296.945C64.319 296.203 64.3711 295.422 64.3711 294.602C64.3711 292.974 63.9805 291.854 63.1992 291.242C62.7565 290.93 62.1315 290.715 61.3242 290.598V289.562C61.8451 289.641 62.2682 289.68 62.5938 289.68C63.8177 289.68 64.7682 288.99 65.4453 287.609C66.9948 284.341 68.7917 279.589 70.8359 273.352L71.793 273.957L70.7969 277.238H77.3203V271.672H71.4023L70.9922 270.676H77.3203V264.953C79.9375 265.07 81.2461 265.402 81.2461 265.949C81.2461 266.301 80.6862 266.678 79.5664 267.082V270.676H86.9297V264.953C89.5469 265.109 90.8555 265.454 90.8555 265.988C90.8555 266.353 90.2956 266.717 89.1758 267.082V270.676H92.3398L94.1172 268.273C94.9505 269.081 95.7318 269.934 96.4609 270.832L96.0703 271.672H89.1758V277.238H93.1406L95.0352 274.836C96.194 275.93 97.0339 276.783 97.5547 277.395L97.0664 278.234H88.5508V282.043H92.4961L93.8828 280.363C95.5234 281.587 96.3438 282.388 96.3438 282.766C96.3438 282.922 96.2461 283.052 96.0508 283.156L95.0156 283.84V297.023C95.0156 299.302 93.7266 300.441 91.1484 300.441C91.1484 299.673 90.7057 299.113 89.8203 298.762C89.0911 298.475 87.7565 298.189 85.8164 297.902V296.828C87.9128 297.049 89.6901 297.16 91.1484 297.16C92.2292 297.16 92.7695 296.704 92.7695 295.793V283.039H88.5508V283.742C88.5508 284.719 88.5182 285.363 88.4531 285.676C91.0573 287.772 92.3594 289.973 92.3594 292.277C92.3594 293.423 91.9622 293.996 91.168 293.996C90.6471 293.996 90.3021 293.534 90.1328 292.609C89.599 289.758 88.9479 287.876 88.1797 286.965C87.3724 290.949 85.7513 294.113 83.3164 296.457L82.6719 295.695C85.237 292.388 86.5195 288.391 86.5195 283.703V283.039H80.4844V283.742C80.4844 284.628 80.4453 285.292 80.3672 285.734C82.6589 287.753 83.8047 289.803 83.8047 291.887C83.8047 292.772 83.4076 293.215 82.6133 293.215C82.0924 293.215 81.7604 292.805 81.6172 291.984C81.2005 289.51 80.7122 287.85 80.1523 287.004C79.319 290.962 77.6849 294.113 75.25 296.457L74.6055 295.695C77.1706 292.388 78.4531 288.391 78.4531 283.703V283.039H74.0195V300.871H71.7734V280.754C72.9193 281.249 73.8112 281.678 74.4492 282.043H78.4531V278.234ZM86.5195 278.234H80.4844V282.043H86.5195V278.234ZM63.5898 265.715C67.1966 266.874 69 268.339 69 270.109C69 271.125 68.5312 271.633 67.5938 271.633C67.0859 271.633 66.7279 271.327 66.5195 270.715C65.9987 269.1 64.8594 267.674 63.1016 266.438L63.5898 265.715ZM119.879 269.992C119.749 274.628 119.521 278.02 119.195 280.168H130.191L132.32 277.609C133.453 278.56 134.397 279.491 135.152 280.402L134.723 281.164H119.039L118.961 281.73C117.958 287.147 116.038 291.359 113.199 294.367C110.738 296.945 107.099 299.048 102.281 300.676L101.715 299.797C107.431 297.284 111.389 294.048 113.59 290.09C114.879 287.824 115.868 284.849 116.559 281.164H103.16L102.711 280.168H116.754C117.132 277.707 117.359 274.315 117.438 269.992H105.348L104.996 268.996H127.242L129.195 266.477C130.289 267.427 131.233 268.358 132.027 269.27L131.598 269.992H119.879ZM134.391 290.52V292.082C134.352 294.348 134.495 295.76 134.82 296.32C135.029 296.698 135.419 296.887 135.992 296.887C135.953 298.046 135.51 298.762 134.664 299.035C133.661 299.387 131.292 299.562 127.555 299.562C123.414 299.562 121.038 299.296 120.426 298.762C120.022 298.397 119.82 297.648 119.82 296.516V283.039C122.49 283.078 123.824 283.41 123.824 284.035C123.824 284.413 123.238 284.803 122.066 285.207V295.871C122.066 296.561 122.294 296.991 122.75 297.16C123.232 297.342 124.762 297.434 127.34 297.434C130.348 297.434 132.034 297.062 132.398 296.32C132.841 295.448 133.147 293.436 133.316 290.285L134.391 290.52ZM157.828 279.445C155.654 281.984 153.258 284.133 150.641 285.891C148.193 287.531 145.211 289.068 141.695 290.5L141.07 289.602C148.544 286.099 154.13 281.392 157.828 275.48V274.602H148.668V282.434H146.383V272.16C147.372 272.616 148.264 273.098 149.059 273.605H157.828V269.758H142.184L141.773 268.762H157.828V264.641C160.602 264.758 161.988 265.103 161.988 265.676C161.988 266.04 161.35 266.444 160.074 266.887V268.762H171.383L173.551 266.047C174.71 267.036 175.68 267.98 176.461 268.879L175.992 269.758H160.074V273.605H168.551L170.152 271.77C171.832 273.085 172.672 273.924 172.672 274.289C172.672 274.471 172.548 274.641 172.301 274.797L171.227 275.48V282.434H168.941V274.602H160.074V276.32C164.15 281.164 169.918 284.862 177.379 287.414C176.546 288.026 175.855 288.814 175.309 289.777C168.642 286.665 163.564 282.753 160.074 278.039V286.77H157.828V279.445ZM164.703 300.832C164.286 300.832 163.648 300.513 162.789 299.875C159.885 297.701 156.22 295.865 151.793 294.367L152.301 293.527C156.389 294.296 159.716 295.24 162.281 296.359C164.781 297.44 166.031 298.495 166.031 299.523C166.031 300.396 165.589 300.832 164.703 300.832ZM163.16 293.137C162.691 293.137 162.19 292.909 161.656 292.453C160.445 291.424 159.241 290.585 158.043 289.934C156.975 289.374 155.641 288.807 154.039 288.234L154.488 287.355C157.678 288.007 160.198 288.807 162.047 289.758C163.544 290.656 164.293 291.424 164.293 292.062C164.293 292.779 163.915 293.137 163.16 293.137ZM197.828 279.445C195.654 281.984 193.258 284.133 190.641 285.891C188.193 287.531 185.211 289.068 181.695 290.5L181.07 289.602C188.544 286.099 194.13 281.392 197.828 275.48V274.602H188.668V282.434H186.383V272.16C187.372 272.616 188.264 273.098 189.059 273.605H197.828V269.758H182.184L181.773 268.762H197.828V264.641C200.602 264.758 201.988 265.103 201.988 265.676C201.988 266.04 201.35 266.444 200.074 266.887V268.762H211.383L213.551 266.047C214.71 267.036 215.68 267.98 216.461 268.879L215.992 269.758H200.074V273.605H208.551L210.152 271.77C211.832 273.085 212.672 273.924 212.672 274.289C212.672 274.471 212.548 274.641 212.301 274.797L211.227 275.48V282.434H208.941V274.602H200.074V276.32C204.15 281.164 209.918 284.862 217.379 287.414C216.546 288.026 215.855 288.814 215.309 289.777C208.642 286.665 203.564 282.753 200.074 278.039V286.77H197.828V279.445ZM204.703 300.832C204.286 300.832 203.648 300.513 202.789 299.875C199.885 297.701 196.22 295.865 191.793 294.367L192.301 293.527C196.389 294.296 199.716 295.24 202.281 296.359C204.781 297.44 206.031 298.495 206.031 299.523C206.031 300.396 205.589 300.832 204.703 300.832ZM203.16 293.137C202.691 293.137 202.19 292.909 201.656 292.453C200.445 291.424 199.241 290.585 198.043 289.934C196.975 289.374 195.641 288.807 194.039 288.234L194.488 287.355C197.678 288.007 200.198 288.807 202.047 289.758C203.544 290.656 204.293 291.424 204.293 292.062C204.293 292.779 203.915 293.137 203.16 293.137ZM239.508 286.613C237.503 291.197 235.12 294.745 232.359 297.258L231.754 296.496C234.397 293.566 236.643 289.523 238.492 284.367C237.424 282.167 236.051 279.738 234.371 277.082L235.055 276.32C236.721 278.221 238.154 280.005 239.352 281.672C240.263 278.638 240.934 275.786 241.363 273.117H234.254L233.805 272.121H241.285L242.691 270.52C244.176 271.691 244.918 272.414 244.918 272.688C244.918 272.883 244.768 273.052 244.469 273.195L243.473 273.762C242.822 276.965 241.884 280.259 240.66 283.645C242.73 286.991 243.766 289.79 243.766 292.043C243.766 293.163 243.323 293.723 242.438 293.723C241.786 293.723 241.37 293.163 241.188 292.043C240.94 290.467 240.38 288.658 239.508 286.613ZM226.305 273.84V264.992C229.026 265.083 230.387 265.448 230.387 266.086C230.387 266.49 229.762 266.874 228.512 267.238V273.84H230.152L231.754 271.32C232.796 272.44 233.57 273.358 234.078 274.074L233.629 274.836H228.512V279.719C232.053 281.88 233.824 284.035 233.824 286.184C233.824 287.147 233.388 287.629 232.516 287.629C231.956 287.629 231.578 287.147 231.383 286.184C230.888 284.178 229.931 282.434 228.512 280.949V300.871H226.305V281.672C224.951 285.917 223.206 289.719 221.07 293.078L220.191 292.473C223.134 286.757 225.081 280.878 226.031 274.836H221.305L220.953 273.84H226.305ZM253.277 276.516V297.648C253.277 299.615 252.073 300.598 249.664 300.598C249.625 299.491 248.264 298.716 245.582 298.273V297.238C246.819 297.421 248.206 297.512 249.742 297.512C250.576 297.512 250.992 297.102 250.992 296.281V276.516H243.961L243.473 275.52H250.875V265.598C253.466 265.676 254.762 266.021 254.762 266.633C254.762 266.997 254.228 267.401 253.16 267.844V275.52H254.234L255.641 272.883C255.771 273.091 255.979 273.371 256.266 273.723C256.747 274.348 257.164 274.999 257.516 275.676L257.105 276.516H253.277ZM245.68 279.035C248.206 282.368 249.469 285.272 249.469 287.746C249.469 289.165 249 289.875 248.062 289.875C247.438 289.875 247.105 289.263 247.066 288.039C247.027 285.526 246.298 282.694 244.879 279.543L245.68 279.035Z" fill="white"/>
</svg>
