<?xml version="1.0" encoding="UTF-8"?>
<svg width="274px" height="53px" viewBox="0 0 274 53" version="1.1" xmlns="http://www.w3.org/2000/svg" xmlns:xlink="http://www.w3.org/1999/xlink">
    <title>一点钢笔鹤体</title>
    <g id="页面-1" stroke="none" stroke-width="1" fill="none" fill-rule="evenodd">
        <g id="画板" transform="translate(-187.000000, -294.000000)" fill="#FFFFFF" fill-rule="nonzero">
            <path d="M205.265625,344.984375 C206.760417,346.442708 207.927083,346.296875 208.765625,344.546875 C210.552083,342.104167 211.882812,339.916667 212.757812,337.984375 C213.851562,335.6875 214.854167,332.770833 215.765625,329.234375 C215.911458,328.760417 216.075521,328.432292 216.257812,328.25 C217.096354,327.229167 216.859375,326.117188 215.546875,324.914062 C214.052083,323.601562 212.59375,322.690104 211.171875,322.179688 C209.895833,321.778646 208.364583,321.833333 206.578125,322.34375 C205.119792,322.817708 203.661458,323.309896 202.203125,323.820312 C200.817708,324.294271 199.432292,324.585938 198.046875,324.695312 C197.317708,324.768229 197.244792,324.549479 197.828125,324.039062 C200.78125,321.231771 202.895833,319.372396 204.171875,318.460938 C204.901042,317.877604 205.210938,317.3125 205.101562,316.765625 C204.846354,315.635417 203.971354,314.705729 202.476562,313.976562 C201.820312,313.648438 201.565104,313.447917 201.710938,313.375 C202.221354,313.046875 202.53125,312.645833 202.640625,312.171875 C202.822917,311.078125 202.75,309.856771 202.421875,308.507812 C202.276042,307.851562 202.513021,307.268229 203.132812,306.757812 L203.132812,306.757812 L203.953125,306.15625 C204.536458,305.755208 205.119792,305.700521 205.703125,305.992188 C206.578125,306.466146 207.708333,306.666667 209.09375,306.59375 C209.276042,306.59375 209.130208,306.958333 208.65625,307.6875 L208.65625,307.6875 L207.726562,309.109375 C207.252604,309.838542 206.723958,310.239583 206.140625,310.3125 C204.973958,310.421875 204.263021,310.713542 204.007812,311.1875 C204.007812,311.296875 204.335938,311.570312 204.992188,312.007812 C205.721354,312.299479 206.104167,312.5 206.140625,312.609375 C206.213542,312.682292 206.304688,312.736979 206.414062,312.773438 C206.815104,312.591146 207.234375,312.791667 207.671875,313.375 C210.151042,316.729167 212.302083,319.5 214.125,321.6875 C216.130208,324.130208 217.643229,325.570312 218.664062,326.007812 C219.867188,326.518229 220.960938,326.846354 221.945312,326.992188 C222.966146,327.138021 224.424479,327.265625 226.320312,327.375 C228.617188,327.666667 230.221354,327.794271 231.132812,327.757812 C231.971354,327.721354 232.208333,327.447917 231.84375,326.9375 C231.625,326.645833 231.296875,326.354167 230.859375,326.0625 C228.34375,324.203125 225.791667,323.109375 223.203125,322.78125 C220.760417,322.5625 218.864583,321.651042 217.515625,320.046875 C215.364583,317.604167 213.140625,314.796875 210.84375,311.625 C210.296875,311.114583 210.315104,310.585938 210.898438,310.039062 C211.700521,309.236979 212.520833,308.197917 213.359375,306.921875 C213.723958,306.338542 214.197917,305.992188 214.78125,305.882812 C217.661458,305.153646 220.268229,304.697917 222.601562,304.515625 C224.278646,303.96875 224.825521,303.09375 224.242188,301.890625 C223.695312,301.088542 222.838542,300.614583 221.671875,300.46875 C220.25,300.395833 218.755208,300.705729 217.1875,301.398438 C216.458333,301.617188 216.184896,301.434896 216.367188,300.851562 C216.585938,300.013021 216.822917,299.466146 217.078125,299.210938 C217.369792,298.955729 217.479167,298.645833 217.40625,298.28125 C217.296875,297.515625 216.768229,296.859375 215.820312,296.3125 C214.507812,295.546875 213.414062,295.072917 212.539062,294.890625 C211.846354,294.744792 211.135417,294.617188 210.40625,294.507812 C209.677083,294.398438 209.731771,294.799479 210.570312,295.710938 L210.570312,295.710938 L211.882812,297.242188 C212.356771,297.825521 212.557292,298.408854 212.484375,298.992188 C212.192708,300.158854 211.882812,301.179688 211.554688,302.054688 C211.299479,302.674479 210.880208,303.039062 210.296875,303.148438 L210.296875,303.148438 L209.148438,303.367188 C208.346354,303.549479 208,303.549479 208.109375,303.367188 C208.21875,303.184896 208.236979,303.039062 208.164062,302.929688 C207.799479,302.638021 207.289062,302.492188 206.632812,302.492188 C205.101562,302.273438 203.588542,302.583333 202.09375,303.421875 C201.364583,303.822917 200.872396,303.731771 200.617188,303.148438 L200.617188,303.148438 L199.414062,301.070312 C198.611979,299.903646 197.736979,298.864583 196.789062,297.953125 C196.096354,297.515625 195.713542,297.351562 195.640625,297.460938 C195.604167,297.533854 195.567708,297.697917 195.53125,297.953125 C195.640625,298.609375 195.822917,299.338542 196.078125,300.140625 C196.625,301.635417 197.044271,303.057292 197.335938,304.40625 C197.518229,305.171875 197.317708,305.627604 196.734375,305.773438 C195.75,305.955729 194.018229,306.065104 191.539062,306.101562 C190.809896,306.065104 190.135417,306.119792 189.515625,306.265625 C189.1875,306.338542 188.986979,306.502604 188.914062,306.757812 C188.914062,306.867188 189.296875,307.268229 190.0625,307.960938 C190.828125,308.471354 191.921875,309.036458 193.34375,309.65625 C194.802083,310.239583 196.169271,310.385417 197.445312,310.09375 C198.065104,309.911458 198.447917,310.09375 198.59375,310.640625 L198.59375,310.640625 L198.921875,311.679688 C199.25,312.408854 199.231771,312.755208 198.867188,312.71875 C198.502604,312.755208 198.283854,312.828125 198.210938,312.9375 C198.138021,313.411458 198.557292,314.140625 199.46875,315.125 C200.052083,315.78125 200.125,316.419271 199.6875,317.039062 C196.734375,320.393229 192.942708,323.893229 188.3125,327.539062 C187.984375,327.830729 187.747396,328.177083 187.601562,328.578125 C187.382812,329.307292 187.638021,329.763021 188.367188,329.945312 C188.841146,330.018229 189.205729,329.981771 189.460938,329.835938 C191.247396,328.924479 193.070312,327.776042 194.929688,326.390625 C195.622396,325.880208 196.223958,325.861979 196.734375,326.335938 C199.140625,327.757812 201.018229,328.213542 202.367188,327.703125 C203.132812,327.411458 203.333333,327.59375 202.96875,328.25 C200.526042,331.96875 197.390625,335.486979 193.5625,338.804688 C193.125,339.242188 192.851562,339.588542 192.742188,339.84375 C192.377604,340.864583 192.669271,341.447917 193.617188,341.59375 C193.872396,341.630208 194.236979,341.502604 194.710938,341.210938 C196.570312,340.080729 198.320312,338.768229 199.960938,337.273438 C200.434896,336.872396 200.690104,336.981771 200.726562,337.601562 C200.981771,338.695312 201.492188,340.007812 202.257812,341.539062 C202.841146,342.705729 203.84375,343.854167 205.265625,344.984375 Z M207.5625,340.117188 C207.234375,340.736979 206.723958,340.828125 206.03125,340.390625 C205.083333,339.807292 203.825521,338.768229 202.257812,337.273438 C201.674479,336.763021 201.236979,336.526042 200.945312,336.5625 C200.763021,336.598958 201,336.307292 201.65625,335.6875 C203.807292,333.682292 205.666667,331.604167 207.234375,329.453125 C208,328.760417 208.018229,327.885417 207.289062,326.828125 C206.851562,326.244792 206.924479,325.84375 207.507812,325.625 C208.164062,325.442708 208.838542,325.351562 209.53125,325.351562 C211.28125,325.497396 211.992188,326.5 211.664062,328.359375 C211.044271,331.786458 209.677083,335.705729 207.5625,340.117188 Z M261.921875,346.351562 C263.015625,346.460938 263.835938,345.677083 264.382812,344 C264.710938,343.270833 265.130208,342.541667 265.640625,341.8125 C267.71875,338.75 269.778646,335.104167 271.820312,330.875 C272.221354,329.890625 272.622396,329.161458 273.023438,328.6875 C273.351562,328.322917 273.697917,328.03125 274.0625,327.8125 C274.645833,327.484375 274.919271,327.174479 274.882812,326.882812 C275.065104,325.861979 274.536458,325.096354 273.296875,324.585938 C272.567708,324.330729 271.838542,324.111979 271.109375,323.929688 C269.833333,323.674479 268.520833,323.947917 267.171875,324.75 C265.640625,325.114583 264.309896,325.333333 263.179688,325.40625 C262.450521,325.40625 262.195312,325.114583 262.414062,324.53125 C262.669271,323.802083 262.960938,323.109375 263.289062,322.453125 C263.471354,322.088542 263.744792,321.760417 264.109375,321.46875 C264.255208,321.322917 264.346354,321.140625 264.382812,320.921875 C264.382812,320.557292 264.328125,320.210938 264.21875,319.882812 C264.036458,319.591146 264.236979,319.408854 264.820312,319.335938 C268.976562,318.679688 272.130208,318.460938 274.28125,318.679688 C275.59375,318.861979 277.052083,319.390625 278.65625,320.265625 C280.369792,321.25 281.809896,321.596354 282.976562,321.304688 C283.888021,320.867188 284.252604,320.192708 284.070312,319.28125 C283.778646,318.442708 283.231771,317.786458 282.429688,317.3125 C280.533854,316.65625 279.075521,316.018229 278.054688,315.398438 C276.231771,314.195312 274.117188,314.158854 271.710938,315.289062 L271.710938,315.289062 L267.390625,315.726562 C266.734375,315.799479 266.460938,315.598958 266.570312,315.125 C266.643229,314.541667 266.552083,314.067708 266.296875,313.703125 C265.713542,312.973958 265.713542,312.408854 266.296875,312.007812 C267.755208,310.768229 268.994792,309.309896 270.015625,307.632812 C270.416667,307.013021 270.908854,306.648438 271.492188,306.539062 C273.934896,305.736979 275.8125,305.28125 277.125,305.171875 C277.927083,305.098958 278.65625,304.971354 279.3125,304.789062 C279.859375,304.716146 280.296875,304.296875 280.625,303.53125 C280.807292,302.4375 280.296875,301.653646 279.09375,301.179688 C278.109375,300.815104 277.015625,300.778646 275.8125,301.070312 C275.192708,301.289062 274.554688,301.526042 273.898438,301.78125 C273.169271,302.036458 272.914062,301.872396 273.132812,301.289062 L273.132812,301.289062 L273.515625,300.25 C273.625,299.994792 273.734375,299.830729 273.84375,299.757812 C274.427083,299.247396 274.481771,298.609375 274.007812,297.84375 C273.388021,297.1875 272.75,296.713542 272.09375,296.421875 C270.671875,295.510417 269.213542,295.018229 267.71875,294.945312 C266.989583,294.799479 266.880208,295.091146 267.390625,295.820312 C267.828125,296.476562 268.320312,297.132812 268.867188,297.789062 C269.231771,298.226562 269.432292,298.518229 269.46875,298.664062 C269.395833,299.648438 269.049479,300.90625 268.429688,302.4375 C268.101562,303.166667 267.645833,303.622396 267.0625,303.804688 C266.114583,304.059896 265.148438,304.296875 264.164062,304.515625 C263.544271,304.625 263.598958,304.388021 264.328125,303.804688 C264.473958,303.585938 264.546875,303.421875 264.546875,303.3125 C264.546875,303.203125 264.182292,303.057292 263.453125,302.875 C261.447917,302.692708 259.697917,303.075521 258.203125,304.023438 C257.510417,304.388021 257.018229,304.260417 256.726562,303.640625 C256.033854,302.328125 255.25,301.143229 254.375,300.085938 C254.046875,299.721354 253.71875,299.375 253.390625,299.046875 C253.026042,298.71875 252.661458,298.445312 252.296875,298.226562 C252.005208,298.044271 251.786458,298.007812 251.640625,298.117188 C251.604167,298.190104 251.604167,298.591146 251.640625,299.320312 C252.552083,301.653646 253.153646,303.567708 253.445312,305.0625 C253.627604,305.755208 253.408854,306.192708 252.789062,306.375 L252.789062,306.375 L250.820312,306.484375 C248.924479,306.520833 247.502604,306.611979 246.554688,306.757812 C245.861979,307.085938 245.533854,307.322917 245.570312,307.46875 C245.643229,307.760417 245.898438,308.052083 246.335938,308.34375 C249.289062,310.130208 251.731771,310.895833 253.664062,310.640625 C254.283854,310.494792 254.666667,310.695312 254.8125,311.242188 C255.104167,312.263021 255.505208,313.046875 256.015625,313.59375 C256.307292,313.848958 256.744792,313.976562 257.328125,313.976562 C258.020833,313.903646 258.513021,313.520833 258.804688,312.828125 C258.914062,312.171875 259.223958,312.098958 259.734375,312.609375 C260.682292,313.484375 261.411458,314.432292 261.921875,315.453125 C262.25,316.036458 262.122396,316.382812 261.539062,316.492188 C258.257812,316.929688 254.976562,317.476562 251.695312,318.132812 C248.778646,318.789062 245.861979,319.390625 242.945312,319.9375 C241.523438,320.046875 240.611979,320.375 240.210938,320.921875 C240.210938,321.03125 240.520833,321.377604 241.140625,321.960938 C243.546875,323.200521 245.716146,323.619792 247.648438,323.21875 C250.091146,322.34375 253.700521,321.395833 258.476562,320.375 C259.242188,320.265625 259.588542,320.539062 259.515625,321.195312 C258.567708,324.367188 256.708333,327.739583 253.9375,331.3125 C252.588542,333.208333 251.148438,334.776042 249.617188,336.015625 C247.393229,338.203125 245.880208,339.84375 245.078125,340.9375 C244.677083,341.703125 244.513021,342.122396 244.585938,342.195312 C244.914062,342.341146 245.424479,342.25 246.117188,341.921875 C246.846354,341.59375 247.575521,341.210938 248.304688,340.773438 C250.492188,339.570312 251.950521,338.640625 252.679688,337.984375 C255.450521,335.505208 257.911458,332.552083 260.0625,329.125 C260.463542,328.395833 260.955729,328.122396 261.539062,328.304688 C262.997396,328.596354 264.911458,328.705729 267.28125,328.632812 C268.046875,328.632812 268.320312,328.924479 268.101562,329.507812 C266.424479,333.773438 264.65625,337.291667 262.796875,340.0625 C262.25,340.71875 261.794271,340.736979 261.429688,340.117188 C260.992188,339.059896 260.609375,338.039062 260.28125,337.054688 C260.098958,336.580729 259.861979,336.234375 259.570312,336.015625 C258.950521,335.614583 258.440104,335.669271 258.039062,336.179688 C257.783854,336.544271 257.65625,337.091146 257.65625,337.820312 C257.619792,338.914062 257.911458,340.171875 258.53125,341.59375 C258.822917,342.505208 259.005208,343.234375 259.078125,343.78125 C259.333333,345.385417 260.28125,346.242188 261.921875,346.351562 Z M264,310.039062 C263.489583,310.695312 262.924479,310.841146 262.304688,310.476562 C261.466146,310.075521 260.627604,309.729167 259.789062,309.4375 C259.059896,309.291667 258.658854,309.018229 258.585938,308.617188 C258.513021,308.289062 258.841146,307.815104 259.570312,307.195312 L259.570312,307.195312 L259.84375,306.921875 C260.463542,306.484375 261.046875,306.411458 261.59375,306.703125 C262.723958,307.286458 263.817708,307.523438 264.875,307.414062 C265.567708,307.414062 265.695312,307.760417 265.257812,308.453125 L265.257812,308.453125 L264,310.039062 Z M327.65625,345.585938 C329.114583,346.023438 330.226562,345.585938 330.992188,344.273438 C331.539062,343.434896 332.085938,342.705729 332.632812,342.085938 C333.507812,341.247396 334.109375,340.536458 334.4375,339.953125 C336.479167,336.489583 337.828125,332.84375 338.484375,329.015625 C339.432292,324.859375 340.088542,320.484375 340.453125,315.890625 C340.489583,315.671875 340.544271,315.489583 340.617188,315.34375 C341.054688,314.942708 341.328125,314.395833 341.4375,313.703125 C341.546875,312.645833 341.072917,311.807292 340.015625,311.1875 C339.322917,310.895833 338.59375,310.385417 337.828125,309.65625 C337.609375,309.328125 337.263021,309.054688 336.789062,308.835938 C335.986979,308.434896 335.166667,308.252604 334.328125,308.289062 C333.708333,308.325521 332.778646,308.526042 331.539062,308.890625 C329.971354,309.4375 328.549479,309.856771 327.273438,310.148438 C326.580729,310.330729 326.398438,310.09375 326.726562,309.4375 C327.492188,307.796875 328.403646,305.5 329.460938,302.546875 C329.789062,302.109375 329.989583,301.744792 330.0625,301.453125 C330.0625,300.505208 329.223958,299.611979 327.546875,298.773438 C326.270833,297.861979 324.830729,297.424479 323.226562,297.460938 C322.533854,297.388021 322.479167,297.734375 323.0625,298.5 C323.390625,298.973958 323.755208,299.429688 324.15625,299.867188 C324.776042,300.596354 325.03125,301.252604 324.921875,301.835938 C324.046875,305.919271 322.114583,310.184896 319.125,314.632812 C318.614583,315.289062 318.158854,315.252604 317.757812,314.523438 C316.955729,313.757812 316.372396,313.065104 316.007812,312.445312 C314.330729,310.695312 312.507812,310.09375 310.539062,310.640625 C308.934896,311.114583 306.856771,311.898438 304.304688,312.992188 C303.575521,313.320312 303.502604,313.302083 304.085938,312.9375 C305.617188,311.916667 307.148438,310.567708 308.679688,308.890625 C309.882812,307.432292 311.122396,305.992188 312.398438,304.570312 C313.127604,303.841146 313.455729,303.203125 313.382812,302.65625 C313.164062,302.109375 312.890625,301.653646 312.5625,301.289062 C310.557292,299.684896 308.734375,298.828125 307.09375,298.71875 C306.692708,298.682292 306.492188,298.828125 306.492188,299.15625 C306.710938,299.848958 307.184896,300.578125 307.914062,301.34375 C308.388021,301.890625 308.497396,302.455729 308.242188,303.039062 C306.820312,305.481771 304.942708,308.070312 302.609375,310.804688 C301.588542,312.117188 300.986979,313.174479 300.804688,313.976562 C300.914062,314.377604 301.260417,314.432292 301.84375,314.140625 C302.427083,313.885417 302.445312,313.958333 301.898438,314.359375 C301.132812,314.869792 300.895833,315.325521 301.1875,315.726562 C301.515625,315.945312 301.898438,316.072917 302.335938,316.109375 C303.575521,316.145833 304.815104,316.164062 306.054688,316.164062 C306.565104,316.054688 306.929688,315.927083 307.148438,315.78125 C308.752604,314.90625 310.210938,314.286458 311.523438,313.921875 C312.252604,313.8125 312.653646,313.794271 312.726562,313.867188 C312.945312,314.924479 313.072917,316.528646 313.109375,318.679688 C313.145833,319.408854 312.890625,319.700521 312.34375,319.554688 C311.578125,319.408854 310.757812,319.554688 309.882812,319.992188 C308.132812,321.085938 306.401042,321.778646 304.6875,322.070312 C304.03125,322.179688 303.684896,321.942708 303.648438,321.359375 C303.539062,320.375 303.320312,319.244792 302.992188,317.96875 C302.372396,316.984375 301.697917,316.783854 300.96875,317.367188 C300.713542,317.731771 300.567708,318.096354 300.53125,318.460938 C300.53125,320.648438 300.640625,322.963542 300.859375,325.40625 C301.151042,327.630208 301.260417,329.817708 301.1875,331.96875 C301.333333,332.807292 302.153646,333.791667 303.648438,334.921875 C304.013021,335.25 304.377604,335.541667 304.742188,335.796875 C305.763021,336.307292 306.565104,336.143229 307.148438,335.304688 C307.330729,334.940104 307.385417,334.539062 307.3125,334.101562 C307.203125,333.736979 307.476562,333.481771 308.132812,333.335938 C308.315104,333.263021 308.497396,333.226562 308.679688,333.226562 C309.408854,333.007812 309.882812,333.190104 310.101562,333.773438 C310.466146,334.721354 311.140625,335.815104 312.125,337.054688 C312.307292,337.419271 312.526042,337.783854 312.78125,338.148438 C313,338.549479 313.346354,338.75 313.820312,338.75 C314.476562,338.859375 314.895833,338.53125 315.078125,337.765625 L315.078125,337.765625 L316.445312,333.390625 C316.882812,331.057292 317.101562,327.101562 317.101562,321.523438 C317.101562,320.940104 317.338542,320.520833 317.8125,320.265625 C318.25,320.010417 318.760417,320.138021 319.34375,320.648438 C321.130208,322.216146 322.533854,323.747396 323.554688,325.242188 C323.992188,325.898438 324.484375,326.536458 325.03125,327.15625 C325.760417,327.848958 326.489583,328.158854 327.21875,328.085938 C327.765625,328.013021 328.203125,327.757812 328.53125,327.320312 C329.260417,325.898438 328.986979,324.458333 327.710938,323 C325.705729,320.958333 323.572917,319.518229 321.3125,318.679688 C320.692708,318.497396 320.692708,318.132812 321.3125,317.585938 C321.96875,316.893229 322.625,316.054688 323.28125,315.070312 C323.828125,314.341146 324.393229,313.958333 324.976562,313.921875 C326.325521,313.8125 327.747396,313.575521 329.242188,313.210938 C330.773438,312.700521 332.213542,312.390625 333.5625,312.28125 C334.255208,312.244792 334.747396,312.536458 335.039062,313.15625 C335.549479,315.161458 335.695312,317.585938 335.476562,320.429688 C335.294271,323.638021 334.929688,326.554688 334.382812,329.179688 C333.726562,332.096354 332.596354,335.013021 330.992188,337.929688 C330.117188,339.388021 329.333333,340.153646 328.640625,340.226562 C328.421875,340.226562 328.020833,339.953125 327.4375,339.40625 C326.671875,338.567708 325.888021,337.546875 325.085938,336.34375 C324.830729,335.90625 324.539062,335.632812 324.210938,335.523438 C323.554688,335.195312 323.080729,335.395833 322.789062,336.125 C322.643229,336.635417 322.625,337 322.734375,337.21875 C323.354167,339.041667 324.393229,340.864583 325.851562,342.6875 C326.398438,343.34375 326.78125,344.072917 327,344.875 C327.109375,345.166667 327.328125,345.403646 327.65625,345.585938 Z M306.65625,330.109375 C306,330.364583 305.5625,330.236979 305.34375,329.726562 C304.979167,328.632812 304.651042,327.411458 304.359375,326.0625 C304.25,325.333333 304.432292,325.005208 304.90625,325.078125 C305.380208,325.114583 305.526042,325.388021 305.34375,325.898438 C305.307292,326.372396 305.325521,326.645833 305.398438,326.71875 C305.471354,326.791667 305.872396,326.736979 306.601562,326.554688 C307.658854,326.080729 309.463542,325.078125 312.015625,323.546875 C312.20864,323.418199 312.351193,323.324214 312.443285,323.264922 L312.455,323.257 L312.535156,323.200521 C312.960503,322.916956 313.187355,323.030382 313.215712,323.540799 L313.21875,323.65625 L313.21875,328.523438 C313.21875,329.106771 313.036458,329.270833 312.671875,329.015625 C311.651042,328.46875 310.648438,328.322917 309.664062,328.578125 L309.664062,328.578125 L306.65625,330.109375 Z M359.375,335.03125 C360.286458,336.307292 361.34375,336.416667 362.546875,335.359375 C363.96875,334.15625 365.791667,333.226562 368.015625,332.570312 C374.723958,330.309896 381.231771,329.015625 387.539062,328.6875 C388.268229,328.651042 388.632812,328.924479 388.632812,329.507812 C388.596354,330.710938 388.450521,331.932292 388.195312,333.171875 C388.341146,334.958333 389.270833,335.6875 390.984375,335.359375 C392.442708,334.848958 393.044271,333.9375 392.789062,332.625 C392.898438,329.270833 393.026042,325.916667 393.171875,322.5625 C393.208333,320.557292 393.335938,319.098958 393.554688,318.1875 C393.955729,316.510417 393.28125,315.252604 391.53125,314.414062 C390.583333,314.122396 389.854167,313.757812 389.34375,313.320312 C388.869792,312.955729 388.322917,312.71875 387.703125,312.609375 C386.973958,312.5 386.244792,312.427083 385.515625,312.390625 C384.677083,312.28125 384.567708,312.572917 385.1875,313.265625 C387.229167,315.307292 388.359375,317.130208 388.578125,318.734375 C388.651042,320.15625 388.6875,321.559896 388.6875,322.945312 C388.6875,323.528646 388.377604,323.856771 387.757812,323.929688 C387.466146,324.002604 387.028646,324.184896 386.445312,324.476562 L386.445312,324.476562 L385.351562,324.75 C384.585938,324.75 383.802083,324.841146 383,325.023438 L383,325.023438 L378.625,325.789062 C377.895833,325.898438 377.53125,325.661458 377.53125,325.078125 C377.75,318.625 378.078125,312.299479 378.515625,306.101562 C378.770833,304.570312 378.096354,303.348958 376.492188,302.4375 C374.997396,301.5625 373.539062,300.942708 372.117188,300.578125 C370.440104,300.03125 369.255208,299.848958 368.5625,300.03125 C368.526042,300.104167 368.526042,300.195312 368.5625,300.304688 C368.598958,300.414062 368.78125,300.632812 369.109375,300.960938 C369.911458,301.653646 370.822917,302.328125 371.84375,302.984375 C373.375,304.078125 374.013021,305.171875 373.757812,306.265625 C373.794271,312.098958 373.739583,317.786458 373.59375,323.328125 C373.630208,324.567708 373.59375,325.40625 373.484375,325.84375 C373.411458,326.536458 373.046875,326.955729 372.390625,327.101562 C369.802083,327.684896 367.414062,328.395833 365.226562,329.234375 C364.497396,329.5625 364.205729,329.434896 364.351562,328.851562 C364.934896,326.372396 365.28125,324.203125 365.390625,322.34375 C365.5,320.083333 364.734375,317.695312 363.09375,315.179688 C362.875,314.924479 362.65625,314.796875 362.4375,314.796875 C362.072917,315.088542 361.872396,315.580729 361.835938,316.273438 C361.726562,317.002604 361.653646,318.169271 361.617188,319.773438 C361.398438,322.617188 360.90625,325.533854 360.140625,328.523438 C359.958333,329.325521 359.630208,329.817708 359.15625,330 C358.28125,330.838542 358.026042,331.786458 358.390625,332.84375 C358.682292,333.71875 359.010417,334.447917 359.375,335.03125 Z M406.570312,338.914062 C406.643229,338.950521 407.044271,338.841146 407.773438,338.585938 C410.434896,337.164062 412.932292,335.140625 415.265625,332.515625 C419.057292,328.395833 423.796875,322.5625 429.484375,315.015625 C430.03125,314.322917 430.614583,314.104167 431.234375,314.359375 C431.744792,314.614583 432.182292,314.924479 432.546875,315.289062 C435.28125,319.117188 438.070312,322.763021 440.914062,326.226562 C442.299479,328.049479 443.703125,329.380208 445.125,330.21875 C446.692708,330.947917 448.151042,331.367188 449.5,331.476562 L458.25,332.351562 C459.125,332.460938 459.744792,332.333333 460.109375,331.96875 C460.109375,331.895833 459.835938,331.53125 459.289062,330.875 C456.372396,328.723958 453.546875,327.447917 450.8125,327.046875 C449.098958,326.864583 447.640625,326.5 446.4375,325.953125 C445.270833,325.442708 443.885417,324.148438 442.28125,322.070312 C440.276042,319.554688 438.070312,316.638021 435.664062,313.320312 C434.606771,312.117188 433.585938,311.625 432.601562,311.84375 C431.872396,311.880208 431.453125,311.716146 431.34375,311.351562 C431.197917,310.914062 430.869792,310.549479 430.359375,310.257812 C429.776042,309.893229 429.776042,309.601562 430.359375,309.382812 C433.494792,308.179688 436.429688,306.630208 439.164062,304.734375 C440.841146,303.421875 442.299479,302.4375 443.539062,301.78125 C444.231771,301.671875 444.760417,301.416667 445.125,301.015625 C445.744792,300.395833 445.78125,299.666667 445.234375,298.828125 C444.322917,297.989583 443.429688,297.552083 442.554688,297.515625 C441.533854,297.442708 439.729167,296.932292 437.140625,295.984375 C436.411458,295.729167 436.429688,295.966146 437.195312,296.695312 L437.195312,296.695312 L438.5625,298.117188 C439.145833,298.700521 439.273438,299.283854 438.945312,299.867188 C438.763021,300.049479 438.580729,300.213542 438.398438,300.359375 L438.398438,300.359375 L435.71875,302.382812 C432.911458,304.497396 430.778646,306.393229 429.320312,308.070312 C428.809896,308.799479 428.263021,309.036458 427.679688,308.78125 C427.023438,308.526042 426.403646,308.361979 425.820312,308.289062 C425.492188,308.216146 425.291667,308.34375 425.21875,308.671875 C425.291667,309.145833 425.619792,309.710938 426.203125,310.367188 C426.713542,311.059896 426.786458,311.697917 426.421875,312.28125 C420.807292,320.265625 415.210938,327.539062 409.632812,334.101562 C407.846354,336.179688 406.789062,337.692708 406.460938,338.640625 C406.460938,338.75 406.497396,338.841146 406.570312,338.914062 Z M419.585938,311.296875 C419.950521,311.369792 420.460938,311.059896 421.117188,310.367188 C421.263021,310.111979 421.372396,309.838542 421.445312,309.546875 C421.736979,308.744792 422.302083,308.070312 423.140625,307.523438 C425.619792,306.138021 428.171875,304.40625 430.796875,302.328125 L430.796875,302.328125 L431.835938,301.34375 C432.164062,300.942708 432.21875,300.669271 432,300.523438 C431.854167,300.450521 431.526042,300.414062 431.015625,300.414062 C428.791667,300.742188 426.221354,301.653646 423.304688,303.148438 C422.575521,303.513021 422.265625,303.403646 422.375,302.820312 C422.520833,302.309896 422.611979,301.835938 422.648438,301.398438 C422.575521,300.669271 422.502604,300.286458 422.429688,300.25 C422.356771,300.213542 421.992188,300.486979 421.335938,301.070312 C420.861979,301.580729 420.369792,302.255208 419.859375,303.09375 C419.348958,303.96875 418.783854,304.679688 418.164062,305.226562 C417.799479,305.481771 417.507812,305.791667 417.289062,306.15625 C417.070312,307.104167 417.216146,308.179688 417.726562,309.382812 C418.309896,310.622396 418.929688,311.260417 419.585938,311.296875 Z M427.570312,343.507812 C428.809896,343.763021 429.684896,343.307292 430.195312,342.140625 C430.268229,341.776042 430.596354,341.502604 431.179688,341.320312 C432.893229,340.919271 435.427083,340.609375 438.78125,340.390625 C439.473958,340.28125 439.984375,339.934896 440.3125,339.351562 C440.75,338.403646 440.476562,337.528646 439.492188,336.726562 C439.127604,336.471354 438.78125,336.307292 438.453125,336.234375 C437.723958,336.125 437.596354,335.742188 438.070312,335.085938 C438.872396,333.919271 439.65625,332.552083 440.421875,330.984375 C440.567708,330.619792 440.713542,330.4375 440.859375,330.4375 C441.625,329.890625 441.953125,329.252604 441.84375,328.523438 C441.697917,327.247396 440.53125,326.0625 438.34375,324.96875 C437.723958,324.640625 436.903646,324.677083 435.882812,325.078125 C435.445312,325.260417 434.716146,325.460938 433.695312,325.679688 C431.507812,326.263021 429.320312,326.809896 427.132812,327.320312 C426.513021,327.393229 425.783854,327.59375 424.945312,327.921875 C424.252604,328.359375 423.924479,328.651042 423.960938,328.796875 C423.997396,328.90625 424.088542,329.033854 424.234375,329.179688 C426.567708,330.309896 428.791667,330.638021 430.90625,330.164062 C431.635417,329.981771 433.057292,329.744792 435.171875,329.453125 C435.864583,329.34375 436.138021,329.617188 435.992188,330.273438 C435.664062,331.513021 434.716146,333.427083 433.148438,336.015625 C432.674479,336.708333 432.127604,337.109375 431.507812,337.21875 L431.507812,337.21875 L429.320312,337.710938 C428.591146,337.893229 427.989583,337.692708 427.515625,337.109375 C425.765625,334.739583 424.744792,332.369792 424.453125,330 C423.90625,328.979167 423.268229,328.723958 422.539062,329.234375 C422.210938,329.5625 422.010417,329.908854 421.9375,330.273438 C421.901042,331.148438 422.010417,332.005208 422.265625,332.84375 C422.703125,334.046875 422.757812,335.140625 422.429688,336.125 C422.320312,337.21875 422.739583,338.130208 423.6875,338.859375 C424.635417,339.734375 425.4375,340.809896 426.09375,342.085938 C426.567708,342.851562 427.059896,343.325521 427.570312,343.507812 Z" id="一点钢笔鹤体"></path>
        </g>
    </g>
</svg>