<?xml version="1.0" encoding="UTF-8"?>
<svg width="318px" height="106px" viewBox="0 0 318 106" version="1.1" xmlns="http://www.w3.org/2000/svg" xmlns:xlink="http://www.w3.org/1999/xlink">
    <title>全字库正宋</title>
    <g id="页面-1" stroke="none" stroke-width="1" fill="none" fill-rule="evenodd">
        <g id="画板" transform="translate(-161.000000, -267.000000)" fill="#FFFFFF" fill-rule="nonzero">
            <path d="M170.15625,304.367188 C172.1875,303.976562 173.203125,302.869792 173.203125,301.046875 L173.203125,301.046875 L173.203125,290.34375 C175.755208,289.25 178.489583,287.882812 181.40625,286.242188 L181.40625,286.242188 L180.9375,285.421875 C178.541667,286.567708 175.963542,287.635417 173.203125,288.625 L173.203125,288.625 L173.203125,280.109375 L183.28125,280.109375 C183.541667,285.942708 184.322917,290.447917 185.625,293.625 C183.229167,296.4375 180.15625,298.885417 176.40625,300.96875 C176.25,301.072917 176.015625,301.216146 175.703125,301.398438 L175.703125,301.398438 L176.09375,302.296875 C178.90625,301.046875 181.197917,299.731771 182.96875,298.351562 C184.114583,297.492188 185.247396,296.463542 186.367188,295.265625 C186.809896,296.125 187.213542,296.828125 187.578125,297.375 C188.671875,299.09375 190.195312,300.65625 192.148438,302.0625 C193.945312,303.3125 195.481771,303.9375 196.757812,303.9375 C197.382812,303.9375 197.695312,303.690104 197.695312,303.195312 C197.695312,302.986979 197.565104,302.726562 197.304688,302.414062 C196.888021,301.919271 196.679688,301.28125 196.679688,300.5 C196.679688,300.395833 196.692708,300.265625 196.71875,300.109375 L196.71875,300.109375 L197.421875,294.367188 L196.875,294.09375 L195.507812,299.5625 C195.351562,300.213542 195.078125,300.539062 194.6875,300.539062 C193.958333,300.539062 192.864583,299.914062 191.40625,298.664062 C189.84375,297.283854 188.619792,295.65625 187.734375,293.78125 C189.713542,291.489583 191.5625,288.807292 193.28125,285.734375 L193.28125,285.734375 L194.21875,285.734375 C195,285.734375 195.390625,285.5 195.390625,285.03125 C195.390625,284.666667 195.026042,284.302083 194.296875,283.9375 L194.296875,283.9375 L192.148438,282.921875 C190.924479,286.098958 189.205729,289.119792 186.992188,291.984375 C185.924479,288.963542 185.286458,285.005208 185.078125,280.109375 L185.078125,280.109375 L197.617188,280.109375 C197.955729,280.109375 198.125,279.953125 198.125,279.640625 C198.125,279.484375 197.96875,279.263021 197.65625,278.976562 L197.65625,278.976562 L195.15625,276.75 L193.007812,278.976562 L185.078125,278.976562 C184.973958,276.606771 184.921875,274.432292 184.921875,272.453125 L184.921875,272.453125 L184.921875,270.265625 L185.46875,270.03125 C186.041667,269.822917 186.328125,269.536458 186.328125,269.171875 C186.328125,268.859375 185.729167,268.572917 184.53125,268.3125 L184.53125,268.3125 L182.773438,267.921875 C182.851562,268.260417 182.890625,268.807292 182.890625,269.5625 C182.890625,269.927083 182.903646,270.395833 182.929688,270.96875 L182.929688,270.96875 L183.007812,272.765625 C183.164062,276.359375 183.255208,278.429688 183.28125,278.976562 L183.28125,278.976562 L173.203125,278.976562 L173.203125,272.140625 C174.713542,271.723958 176.25,271.177083 177.8125,270.5 L177.8125,270.5 L178.554688,270.578125 L178.554688,270.578125 L179.0625,270.578125 C179.583333,270.578125 179.84375,270.395833 179.84375,270.03125 C179.84375,269.822917 179.622396,269.5625 179.179688,269.25 L179.179688,269.25 L177.265625,267.84375 C175.677083,269.041667 173.893229,270.03125 171.914062,270.8125 C170.351562,271.4375 167.955729,272.0625 164.726562,272.6875 L164.726562,272.6875 L164.804688,273.546875 C166.106771,273.416667 167.565104,273.208333 169.179688,272.921875 C169.674479,272.84375 170.390625,272.726562 171.328125,272.570312 L171.328125,272.570312 L171.328125,278.976562 L166.5625,278.976562 C164.84375,278.976562 163.333333,278.833333 162.03125,278.546875 L162.03125,278.546875 L162.8125,280.265625 C163.75,280.161458 165,280.109375 166.5625,280.109375 L166.5625,280.109375 L171.328125,280.109375 L171.328125,289.328125 L170.820312,289.484375 C168.502604,290.265625 165.729167,290.96875 162.5,291.59375 L162.5,291.59375 L163.554688,293.507812 L163.554688,293.507812 L163.710938,293.819388 C163.975361,294.344844 164.11859,294.61859 164.140625,294.640625 C164.244792,294.744792 164.361979,294.783854 164.492188,294.757812 C164.674479,294.757812 164.869792,294.393229 165.078125,293.664062 C165.078125,293.611979 165.104167,293.507812 165.15625,293.351562 C165.729167,293.169271 166.744792,292.84375 168.203125,292.375 C168.619792,292.21875 169.661458,291.802083 171.328125,291.125 L171.328125,291.125 L171.328125,300.226562 C171.328125,300.981771 170.963542,301.359375 170.234375,301.359375 C169.869792,301.359375 168.554688,301.177083 166.289062,300.8125 L166.289062,300.8125 L166.132812,301.710938 C167.799479,301.997396 168.841146,302.270833 169.257812,302.53125 C169.700521,302.84375 170,303.455729 170.15625,304.367188 Z M193.828125,275.34375 C194.036458,275.34375 194.231771,275.252604 194.414062,275.070312 C194.648438,274.835938 194.765625,274.523438 194.765625,274.132812 C194.765625,272.596354 192.760417,271.111979 188.75,269.679688 L188.75,269.679688 L188.359375,270.34375 C189.348958,270.916667 190,271.333333 190.3125,271.59375 C191.09375,272.270833 191.809896,273.117188 192.460938,274.132812 C192.903646,274.940104 193.359375,275.34375 193.828125,275.34375 Z M207.65625,304.40625 C207.864583,304.40625 208.085938,304.367188 208.320312,304.289062 C208.554688,304.210938 208.697917,304.119792 208.75,304.015625 C208.828125,303.911458 208.867188,303.755208 208.867188,303.546875 C208.841146,303.442708 208.828125,303.208333 208.828125,302.84375 L208.828125,301.945312 L208.75,300.890625 L208.75,300.890625 L208.75,279.953125 L209.648438,279.640625 C209.960938,279.536458 210.117188,279.380208 210.117188,279.171875 C210.143229,278.989583 210.078125,278.820312 209.921875,278.664062 C209.791667,278.533854 209.557292,278.390625 209.21875,278.234375 L209.21875,278.234375 L208.4375,277.921875 L209.0625,276.75 C209.270833,276.385417 209.557292,275.760417 209.921875,274.875 L209.921875,274.875 L210.898438,272.53125 L211.875,270.1875 L213.046875,270.03125 C213.359375,269.979167 213.554688,269.914062 213.632812,269.835938 C213.763021,269.705729 213.802083,269.5625 213.75,269.40625 C213.75,269.25 213.619792,269.09375 213.359375,268.9375 C213.098958,268.78125 212.734375,268.625 212.265625,268.46875 L212.265625,268.46875 L210.234375,267.726562 L210.039062,268.546875 C209.986979,268.807292 209.84375,269.328125 209.609375,270.109375 C209.375,270.890625 209.153646,271.59375 208.945312,272.21875 C208.710938,272.895833 208.411458,273.664062 208.046875,274.523438 C207.682292,275.408854 207.291667,276.294271 206.875,277.179688 C206.510417,278.039062 206.119792,278.833333 205.703125,279.5625 C205.286458,280.291667 204.804688,281.111979 204.257812,282.023438 C203.710938,282.908854 203.28125,283.559896 202.96875,283.976562 C202.65625,284.393229 202.291667,284.875 201.875,285.421875 L201.875,285.421875 L200.820312,286.789062 L201.40625,287.296875 L201.953125,286.710938 C202.682292,285.981771 203.307292,285.304688 203.828125,284.679688 C204.348958,284.028646 204.84375,283.390625 205.3125,282.765625 L205.3125,282.765625 L206.328125,281.359375 L206.875,280.539062 L206.914062,303.78125 C206.914062,303.911458 206.953125,304.041667 207.03125,304.171875 C207.109375,304.328125 207.317708,304.40625 207.65625,304.40625 Z M221.757812,275.1875 C222.096354,275.239583 222.382812,275.096354 222.617188,274.757812 C222.825521,274.471354 222.929688,274.132812 222.929688,273.742188 C222.929688,273.351562 222.838542,273 222.65625,272.6875 C222.473958,272.348958 222.239583,272.023438 221.953125,271.710938 C221.640625,271.398438 221.328125,271.085938 221.015625,270.773438 C220.703125,270.486979 220.351562,270.1875 219.960938,269.875 L219.960938,269.875 L218.632812,268.78125 L218.125,269.328125 L218.828125,270.109375 L219.375,270.851562 C219.557292,271.085938 219.726562,271.346354 219.882812,271.632812 C220.039062,271.919271 220.182292,272.21875 220.3125,272.53125 C220.416667,272.84375 220.520833,273.15625 220.625,273.46875 L220.625,273.46875 L220.78125,274.328125 C220.833333,274.536458 220.924479,274.71875 221.054688,274.875 C221.158854,275.03125 221.393229,275.135417 221.757812,275.1875 Z M233.59375,304.40625 L234.257812,304.210938 C234.492188,304.132812 234.791667,303.989583 235.15625,303.78125 C235.520833,303.546875 235.807292,303.299479 236.015625,303.039062 C236.171875,302.752604 236.302083,302.453125 236.40625,302.140625 C236.484375,301.828125 236.523438,301.489583 236.523438,301.125 L236.523438,301.125 L236.523438,273.390625 L237.226562,273.078125 C237.513021,272.973958 237.708333,272.84375 237.8125,272.6875 C237.96875,272.557292 238.046875,272.401042 238.046875,272.21875 C238.046875,272.0625 237.981771,271.90625 237.851562,271.75 C237.747396,271.619792 237.552083,271.450521 237.265625,271.242188 L237.265625,271.242188 L235.625,270.1875 L234.296875,271.671875 L228.710938,271.671875 C228.033854,271.671875 227.473958,271.645833 227.03125,271.59375 C226.5625,271.541667 226.197917,271.489583 225.9375,271.4375 L225.9375,271.4375 L225.039062,271.28125 L225.78125,273 L226.289062,272.921875 C226.315104,272.921875 226.484375,272.908854 226.796875,272.882812 L226.796875,272.882812 L227.34375,272.84375 C227.864583,272.791667 228.320312,272.765625 228.710938,272.765625 L228.710938,272.765625 L234.6875,272.765625 L234.6875,300.109375 C234.6875,300.473958 234.609375,300.747396 234.453125,300.929688 C234.296875,301.111979 234.0625,301.216146 233.75,301.242188 L233.75,301.242188 L233.203125,301.242188 C232.942708,301.242188 232.65625,301.216146 232.34375,301.164062 L232.34375,301.164062 L230.625,300.929688 L229.6875,300.8125 L229.570312,301.75 L230.546875,301.90625 L231.445312,302.101562 C231.861979,302.179688 232.200521,302.296875 232.460938,302.453125 C232.721354,302.609375 232.929688,302.791667 233.085938,303 C233.268229,303.208333 233.385417,303.416667 233.4375,303.625 C233.489583,303.833333 233.541667,304.09375 233.59375,304.40625 L233.59375,304.40625 Z M215,304.132812 C215.104167,304.263021 215.377604,304.302083 215.820312,304.25 C216.210938,304.197917 216.484375,304.106771 216.640625,303.976562 C216.796875,303.820312 216.875,303.651042 216.875,303.46875 L216.875,303.46875 L216.875,276.59375 L217.65625,276.359375 C217.96875,276.28125 218.203125,276.164062 218.359375,276.007812 C218.515625,275.851562 218.580729,275.669271 218.554688,275.460938 C218.528646,275.252604 218.398438,275.096354 218.164062,274.992188 C217.929688,274.861979 217.552083,274.744792 217.03125,274.640625 L217.03125,274.640625 L214.84375,274.171875 L214.84375,274.445312 C214.84375,274.575521 214.869792,274.783854 214.921875,275.070312 C214.973958,275.356771 215,276.098958 215,277.296875 L215,277.296875 L215,299.71875 L214.921875,300.96875 L214.921875,301.867188 L214.882812,302.53125 L214.84375,303.234375 C214.84375,303.390625 214.830729,303.481771 214.804688,303.507812 C214.778646,303.638021 214.791667,303.755208 214.84375,303.859375 C214.84375,303.989583 214.895833,304.080729 215,304.132812 Z M255.546875,272.53125 C262.239583,272.375 268.554688,271.567708 274.492188,270.109375 L274.492188,270.109375 L275.3125,270.226562 C275.46875,270.252604 275.625,270.265625 275.78125,270.265625 C276.145833,270.265625 276.328125,270.135417 276.328125,269.875 C276.328125,269.666667 276.145833,269.40625 275.78125,269.09375 L275.78125,269.09375 L274.023438,267.570312 C270.768229,269.393229 264.609375,270.773438 255.546875,271.710938 L255.546875,271.710938 L255.546875,272.53125 Z M246.328125,304.484375 C248.359375,304.067708 249.375,302.947917 249.375,301.125 L249.375,301.125 L249.375,286.671875 C251.979167,285.161458 253.854167,283.9375 255,283 L255,283 L254.726562,282.179688 L253.90625,282.609375 C251.770833,283.755208 250.260417,284.536458 249.375,284.953125 L249.375,284.953125 L249.375,277.882812 L254.570312,277.882812 C254.908854,277.908854 255.078125,277.739583 255.078125,277.375 C255.078125,277.270833 254.960938,277.101562 254.726562,276.867188 L254.726562,276.867188 L252.539062,275.109375 L250.976562,276.671875 L249.375,276.671875 L249.375,269.953125 L250.15625,269.757812 C250.78125,269.575521 251.106771,269.302083 251.132812,268.9375 C251.106771,268.625 250.546875,268.338542 249.453125,268.078125 L249.453125,268.078125 L247.34375,267.609375 C247.447917,268.130208 247.5,269.171875 247.5,270.734375 L247.5,270.734375 L247.5,276.671875 L245.234375,276.671875 C244.453125,276.671875 243.229167,276.59375 241.5625,276.4375 L241.5625,276.4375 L242.304688,278.078125 C243.372396,277.921875 244.348958,277.856771 245.234375,277.882812 L245.234375,277.882812 L247.5,277.882812 L247.5,285.8125 C245.208333,286.880208 243.164062,287.739583 241.367188,288.390625 L241.367188,288.390625 L243.125,290.65625 C243.385417,291.020833 243.632812,291.203125 243.867188,291.203125 C244.101562,291.203125 244.21875,290.981771 244.21875,290.539062 L244.21875,290.539062 L244.21875,289.601562 C245.286458,289.002604 246.002604,288.598958 246.367188,288.390625 C246.835938,288.130208 247.213542,287.921875 247.5,287.765625 L247.5,287.765625 L247.5,300.34375 C247.5,301.072917 247.122396,301.4375 246.367188,301.4375 C245.924479,301.4375 244.609375,301.255208 242.421875,300.890625 L242.421875,300.890625 L242.304688,301.828125 C243.945312,302.140625 244.973958,302.414062 245.390625,302.648438 C245.859375,302.960938 246.171875,303.572917 246.328125,304.484375 Z M271.171875,280.5 C272.578125,278.989583 273.90625,277.010417 275.15625,274.5625 L275.15625,274.5625 L276.25,274.40625 C276.666667,274.354167 276.875,274.184896 276.875,273.898438 C276.875,273.638021 276.549479,273.377604 275.898438,273.117188 L275.898438,273.117188 L273.59375,272.21875 C273.020833,274.822917 271.979167,277.427083 270.46875,280.03125 L270.46875,280.03125 L271.171875,280.5 Z M266.5625,279.171875 C266.770833,279.171875 266.979167,279.080729 267.1875,278.898438 C267.447917,278.611979 267.591146,278.208333 267.617188,277.6875 C267.643229,276.125 266.40625,274.523438 263.90625,272.882812 L263.90625,272.882812 L263.359375,273.3125 C264.453125,274.614583 265.15625,275.864583 265.46875,277.0625 C265.729167,278.104167 265.911458,278.716146 266.015625,278.898438 C266.119792,279.080729 266.302083,279.171875 266.5625,279.171875 Z M258.984375,279.40625 C259.557292,279.40625 259.84375,279.015625 259.84375,278.234375 C259.84375,276.828125 258.463542,275.1875 255.703125,273.3125 L255.703125,273.3125 L255.234375,273.78125 C256.692708,275.34375 257.630208,276.867188 258.046875,278.351562 C258.28125,279.054688 258.59375,279.40625 258.984375,279.40625 Z M274.53125,303.625 C275.3125,303.625 275.703125,303.338542 275.703125,302.765625 C275.703125,302.661458 275.690104,302.544271 275.664062,302.414062 C275.585938,301.450521 275.546875,300.65625 275.546875,300.03125 L275.546875,300.03125 L275.546875,294.953125 L276.367188,294.796875 C277.018229,294.640625 277.34375,294.354167 277.34375,293.9375 C277.34375,293.598958 276.783854,293.3125 275.664062,293.078125 L275.664062,293.078125 L273.515625,292.609375 C273.619792,293.286458 273.671875,294.315104 273.671875,295.695312 L273.671875,295.695312 L273.671875,300.96875 L267.03125,300.96875 L267.03125,291.046875 L278.242188,291.046875 C278.580729,291.046875 278.75,290.864583 278.75,290.5 C278.75,290.34375 278.645833,290.1875 278.4375,290.03125 L278.4375,290.03125 L276.210938,288.3125 L274.648438,289.953125 L267.03125,289.953125 L267.03125,284.171875 L275.234375,284.171875 C275.546875,284.171875 275.703125,283.989583 275.703125,283.625 C275.703125,283.416667 275.598958,283.234375 275.390625,283.078125 L275.390625,283.078125 L273.046875,281.359375 L271.484375,283.078125 L261.132812,283.078125 C261.549479,282.505208 261.953125,281.932292 262.34375,281.359375 L262.34375,281.359375 L263.4375,281.125 C263.802083,281.020833 263.984375,280.838542 263.984375,280.578125 C263.984375,280.317708 263.763021,280.096354 263.320312,279.914062 L263.320312,279.914062 L260.859375,278.898438 C259.609375,282.361979 257.773438,285.34375 255.351562,287.84375 L255.351562,287.84375 L255.78125,288.390625 C257.291667,287.244792 258.776042,285.838542 260.234375,284.171875 L260.234375,284.171875 L265.195312,284.171875 L265.195312,289.953125 L257.03125,289.953125 C256.09375,289.953125 254.869792,289.822917 253.359375,289.5625 L253.359375,289.5625 L254.140625,291.28125 C255.182292,291.125 256.145833,291.046875 257.03125,291.046875 L257.03125,291.046875 L265.195312,291.046875 L265.195312,300.96875 L258.28125,300.96875 L258.28125,294.796875 L259.140625,294.5625 C259.791667,294.432292 260.117188,294.158854 260.117188,293.742188 C260.117188,293.403646 259.557292,293.104167 258.4375,292.84375 L258.4375,292.84375 L256.328125,292.375 C256.380208,292.791667 256.432292,293.755208 256.484375,295.265625 L256.484375,295.265625 L256.484375,301.28125 C256.484375,301.958333 256.731771,302.296875 257.226562,302.296875 C257.617188,302.296875 257.942708,302.21875 258.203125,302.0625 L258.203125,302.0625 L273.671875,302.0625 L273.671875,302.6875 C273.671875,303.3125 273.958333,303.625 274.53125,303.625 Z M282.070312,277.570312 L283.203125,276.75 C283.242188,276.717448 283.291016,276.677572 283.349609,276.630371 L283.554688,276.466797 C283.710938,276.343099 283.90625,276.190104 284.140625,276.007812 L284.140625,276.007812 L285.3125,275.03125 C285.677083,274.770833 285.989583,274.497396 286.25,274.210938 C286.510417,273.976562 286.770833,273.703125 287.03125,273.390625 L287.03125,273.390625 L287.421875,272.921875 C287.473958,272.869792 287.578125,272.752604 287.734375,272.570312 L287.734375,272.570312 L300.15625,272.570312 C300.234375,272.570312 300.325521,272.544271 300.429688,272.492188 C300.533854,272.466146 300.611979,272.375 300.664062,272.21875 C300.690104,272.0625 300.677083,271.945312 300.625,271.867188 C300.572917,271.789062 300.481771,271.684896 300.351562,271.554688 L300.351562,271.554688 L297.96875,269.484375 L296.09375,271.4375 L288.59375,271.4375 L288.75,271.203125 C288.854167,271.046875 289.088542,270.708333 289.453125,270.1875 L289.453125,270.1875 L290.46875,270.109375 C290.729167,270.109375 290.9375,270.070312 291.09375,269.992188 C291.25,269.888021 291.328125,269.757812 291.328125,269.601562 C291.328125,269.445312 291.263021,269.302083 291.132812,269.171875 C290.950521,269.041667 290.755208,268.924479 290.546875,268.820312 L290.546875,268.820312 L288.203125,267.765625 L287.734375,268.78125 C287.604167,269.041667 287.408854,269.432292 287.148438,269.953125 C286.888021,270.473958 286.653646,270.890625 286.445312,271.203125 C286.210938,271.541667 285.963542,271.919271 285.703125,272.335938 C285.442708,272.726562 285.104167,273.208333 284.6875,273.78125 C284.270833,274.328125 283.880208,274.796875 283.515625,275.1875 C283.151042,275.578125 282.799479,275.916667 282.460938,276.203125 L282.460938,276.203125 L281.5625,277.023438 L282.070312,277.570312 Z M297.5,277.84375 L298.632812,277.0625 L299.648438,276.28125 C300.091146,275.916667 300.455729,275.604167 300.742188,275.34375 L300.742188,275.34375 L301.679688,274.484375 C301.992188,274.197917 302.239583,273.950521 302.421875,273.742188 L302.421875,273.742188 L302.8125,273.273438 L303.164062,272.84375 L315.859375,272.84375 C315.911458,272.84375 315.989583,272.817708 316.09375,272.765625 C316.197917,272.713542 316.276042,272.635417 316.328125,272.53125 C316.380208,272.375 316.380208,272.244792 316.328125,272.140625 C316.25,272.036458 316.145833,271.932292 316.015625,271.828125 L316.015625,271.828125 L313.671875,269.757812 L311.757812,271.75 L304.023438,271.75 L304.179688,271.515625 C304.309896,271.359375 304.557292,271.020833 304.921875,270.5 L304.921875,270.5 L305.9375,270.421875 C306.197917,270.421875 306.40625,270.369792 306.5625,270.265625 C306.71875,270.161458 306.796875,270.03125 306.796875,269.875 C306.822917,269.71875 306.757812,269.588542 306.601562,269.484375 C306.471354,269.354167 306.276042,269.223958 306.015625,269.09375 L306.015625,269.09375 L303.671875,268.039062 L303.203125,269.09375 C302.994792,269.510417 302.786458,269.914062 302.578125,270.304688 C302.34375,270.695312 302.122396,271.072917 301.914062,271.4375 L301.914062,271.4375 L301.132812,272.6875 C300.846354,273.15625 300.520833,273.611979 300.15625,274.054688 C299.817708,274.523438 299.427083,274.992188 298.984375,275.460938 C298.716518,275.728795 298.482674,275.962638 298.282844,276.162468 L297.890625,276.554688 L297.03125,277.296875 L297.5,277.84375 Z M293.90625,277.53125 C294.166667,277.583333 294.401042,277.479167 294.609375,277.21875 C294.817708,276.984375 294.895833,276.671875 294.84375,276.28125 C294.791667,275.916667 294.635417,275.604167 294.375,275.34375 C294.114583,275.109375 293.789062,274.875 293.398438,274.640625 C293.007812,274.40625 292.708333,274.236979 292.5,274.132812 L292.5,274.132812 L291.484375,273.664062 C291.449653,273.646701 291.404803,273.625 291.349826,273.598958 L291.154514,273.507812 C291.079282,273.47309 290.993924,273.434028 290.898438,273.390625 L290.898438,273.390625 L290.507812,274.015625 L291.09375,274.445312 C291.276042,274.575521 291.497396,274.770833 291.757812,275.03125 C291.992188,275.291667 292.213542,275.552083 292.421875,275.8125 C292.630208,276.072917 292.8125,276.359375 292.96875,276.671875 C293.125,276.958333 293.255208,277.166667 293.359375,277.296875 C293.463542,277.453125 293.645833,277.53125 293.90625,277.53125 Z M310.625,277.960938 C310.9375,278.013021 311.197917,277.921875 311.40625,277.6875 C311.614583,277.427083 311.679688,277.114583 311.601562,276.75 C311.523438,276.385417 311.354167,276.072917 311.09375,275.8125 C310.833333,275.552083 310.546875,275.317708 310.234375,275.109375 C309.869792,274.901042 309.53125,274.71875 309.21875,274.5625 L309.21875,274.5625 L308.203125,274.09375 C308.098958,274.041667 307.916667,273.963542 307.65625,273.859375 L307.65625,273.859375 L307.265625,274.445312 L307.890625,274.875 C308.151042,275.083333 308.372396,275.291667 308.554688,275.5 C308.763021,275.708333 308.984375,275.96875 309.21875,276.28125 C309.427083,276.59375 309.609375,276.880208 309.765625,277.140625 C309.895833,277.401042 310.013021,277.596354 310.117188,277.726562 C310.195312,277.882812 310.364583,277.960938 310.625,277.960938 Z M297.65625,288.625 L298.203125,288.195312 C298.489583,287.986979 298.854167,287.6875 299.296875,287.296875 C299.739583,286.932292 300.169271,286.541667 300.585938,286.125 C300.976562,285.708333 301.354167,285.291667 301.71875,284.875 C302.057292,284.458333 302.317708,284.132812 302.5,283.898438 L302.5,283.898438 L303.046875,283.078125 L315.859375,283.078125 C315.9375,283.078125 316.028646,283.052083 316.132812,283 C316.236979,282.947917 316.315104,282.856771 316.367188,282.726562 C316.393229,282.570312 316.380208,282.453125 316.328125,282.375 C316.276042,282.296875 316.197917,282.192708 316.09375,282.0625 L316.09375,282.0625 L313.710938,279.992188 L311.796875,281.984375 L303.789062,281.984375 L304.140625,281.28125 C304.296875,280.96875 304.427083,280.721354 304.53125,280.539062 L304.53125,280.539062 L304.921875,279.71875 L306.132812,279.640625 C306.367188,279.640625 306.549479,279.575521 306.679688,279.445312 C306.835938,279.341146 306.927083,279.236979 306.953125,279.132812 C306.953125,279.002604 306.901042,278.885417 306.796875,278.78125 C306.692708,278.703125 306.536458,278.611979 306.328125,278.507812 L306.328125,278.507812 L303.515625,277.375 L303.125,278.546875 C303.072917,278.729167 302.916667,279.145833 302.65625,279.796875 C302.395833,280.421875 302.1875,280.929688 302.03125,281.320312 C301.875,281.658854 301.653646,282.075521 301.367188,282.570312 C301.080729,283.065104 300.807292,283.520833 300.546875,283.9375 C300.286458,284.328125 300,284.71875 299.6875,285.109375 C299.401042,285.473958 299.0625,285.903646 298.671875,286.398438 C298.307292,286.867188 298.020833,287.205729 297.8125,287.414062 L297.8125,287.414062 L297.1875,288.078125 L297.65625,288.625 Z M292.890625,290.734375 C293.046875,290.838542 293.255208,290.864583 293.515625,290.8125 C293.984375,290.760417 294.283854,290.65625 294.414062,290.5 C294.544271,290.34375 294.622396,290.135417 294.648438,289.875 C294.648438,289.71875 294.635417,289.510417 294.609375,289.25 C294.609375,288.989583 294.583333,288.585938 294.53125,288.039062 C294.479167,287.492188 294.453125,287.140625 294.453125,286.984375 L294.453125,286.984375 L294.453125,280.8125 L295.234375,280.578125 C295.546875,280.473958 295.794271,280.34375 295.976562,280.1875 C296.158854,280.03125 296.236979,279.875 296.210938,279.71875 C296.184896,279.536458 296.067708,279.380208 295.859375,279.25 C295.598958,279.145833 295.15625,279.015625 294.53125,278.859375 L294.53125,278.859375 L292.421875,278.390625 L292.5,278.625 C292.5,278.677083 292.513021,279.028646 292.539062,279.679688 C292.565104,280.304688 292.578125,280.916667 292.578125,281.515625 L292.578125,281.515625 L292.617188,290.34375 C292.643229,290.5 292.734375,290.630208 292.890625,290.734375 Z M285.859375,289.5625 C286.041667,289.666667 286.276042,289.692708 286.5625,289.640625 C287.03125,289.588542 287.317708,289.471354 287.421875,289.289062 C287.526042,289.132812 287.604167,288.924479 287.65625,288.664062 C287.65625,288.533854 287.643229,288.338542 287.617188,288.078125 C287.591146,287.817708 287.552083,287.401042 287.5,286.828125 C287.473958,286.28125 287.460938,285.929688 287.460938,285.773438 L287.460938,285.773438 L287.460938,281.90625 L288.046875,281.75 C288.359375,281.645833 288.59375,281.541667 288.75,281.4375 C288.90625,281.333333 288.984375,281.177083 288.984375,280.96875 C288.958333,280.760417 288.802083,280.578125 288.515625,280.421875 C288.255208,280.317708 287.942708,280.213542 287.578125,280.109375 L287.578125,280.109375 L285.546875,279.640625 L285.625,279.875 C285.625,279.927083 285.638021,280.278646 285.664062,280.929688 C285.690104,281.528646 285.703125,282.140625 285.703125,282.765625 L285.703125,282.765625 L285.625,289.171875 C285.625,289.328125 285.703125,289.458333 285.859375,289.5625 Z M310.078125,289.875 C310.390625,289.927083 310.625,289.835938 310.78125,289.601562 C310.989583,289.367188 311.09375,289.119792 311.09375,288.859375 C311.09375,288.546875 310.989583,288.247396 310.78125,287.960938 C310.625,287.648438 310.390625,287.361979 310.078125,287.101562 C309.765625,286.841146 309.453125,286.606771 309.140625,286.398438 C308.828125,286.190104 308.450521,285.96875 308.007812,285.734375 L308.007812,285.734375 L306.992188,285.1875 C306.731771,285.083333 306.445312,284.953125 306.132812,284.796875 C305.794271,284.640625 305.46875,284.484375 305.15625,284.328125 L305.15625,284.328125 L304.882812,284.953125 L305.46875,285.34375 L306.40625,286.085938 C306.796875,286.398438 307.135417,286.684896 307.421875,286.945312 C307.708333,287.205729 307.981771,287.505208 308.242188,287.84375 C308.528646,288.208333 308.776042,288.546875 308.984375,288.859375 C309.192708,289.223958 309.375,289.484375 309.53125,289.640625 C309.6875,289.796875 309.869792,289.875 310.078125,289.875 Z M281.601562,302.53125 L282.070312,302.453125 C282.096354,302.453125 282.265625,302.440104 282.578125,302.414062 L282.578125,302.414062 L283.085938,302.375 C283.580729,302.322917 284.036458,302.296875 284.453125,302.296875 L284.453125,302.296875 L318.476562,302.296875 C318.554688,302.296875 318.645833,302.270833 318.75,302.21875 C318.854167,302.166667 318.932292,302.075521 318.984375,301.945312 C319.010417,301.789062 318.997396,301.684896 318.945312,301.632812 C318.893229,301.554688 318.802083,301.450521 318.671875,301.320312 L318.671875,301.320312 L316.328125,299.25 L314.375,301.203125 L313.28125,301.203125 L313.28125,293.9375 L313.828125,293.625 L314.375,293.273438 C314.479167,293.117188 314.53125,292.973958 314.53125,292.84375 C314.53125,292.713542 314.453125,292.570312 314.296875,292.414062 C314.166667,292.283854 313.984375,292.127604 313.75,291.945312 L313.75,291.945312 L312.34375,290.96875 L311.132812,292.375 L288.28125,292.375 L285.859375,291.085938 L285.859375,301.203125 L284.453125,301.203125 C284.140625,301.203125 283.841146,301.190104 283.554688,301.164062 C283.216146,301.164062 282.890625,301.138021 282.578125,301.085938 C282.239583,301.059896 281.953125,301.020833 281.71875,300.96875 C281.484375,300.916667 281.197917,300.864583 280.859375,300.8125 L280.859375,300.8125 L281.601562,302.53125 Z M311.445312,301.203125 L304.726562,301.203125 L304.726562,293.46875 L311.445312,293.46875 L311.445312,301.203125 Z M302.8125,301.203125 L296.171875,301.203125 L296.171875,293.46875 L302.8125,293.46875 L302.8125,301.203125 Z M294.296875,301.203125 L287.8125,301.203125 L287.8125,293.46875 L294.296875,293.46875 L294.296875,301.203125 Z M349.414062,304.132812 C351.471354,303.768229 352.955729,303.052083 353.867188,301.984375 C354.830729,300.838542 355.559896,298.598958 356.054688,295.265625 C356.679688,290.838542 357.005208,284.71875 357.03125,276.90625 C358.072917,276.489583 358.59375,276.098958 358.59375,275.734375 C358.59375,275.473958 358.333333,275.161458 357.8125,274.796875 L357.8125,274.796875 L356.171875,273.703125 L354.84375,275.1875 L344.0625,275.1875 C344.947917,272.583333 345.520833,270.8125 345.78125,269.875 L345.78125,269.875 L346.5625,269.71875 C347.239583,269.614583 347.578125,269.380208 347.578125,269.015625 C347.578125,268.703125 347.291667,268.46875 346.71875,268.3125 L346.71875,268.3125 L344.0625,267.453125 C343.59375,270.682292 342.721354,273.963542 341.445312,277.296875 C340.039062,281.020833 338.841146,283.572917 337.851562,284.953125 L337.851562,284.953125 L338.59375,285.421875 C340.78125,282.427083 342.473958,279.393229 343.671875,276.320312 L343.671875,276.320312 L355.078125,276.320312 C355.052083,278.169271 355.013021,280.630208 354.960938,283.703125 C354.856771,289.901042 354.388021,294.640625 353.554688,297.921875 C352.955729,300.265625 351.992188,301.424479 350.664062,301.398438 C349.804688,301.398438 347.473958,300.799479 343.671875,299.601562 L343.671875,299.601562 L343.4375,300.460938 C344.921875,300.929688 345.963542,301.28125 346.5625,301.515625 C347.760417,301.984375 348.515625,302.348958 348.828125,302.609375 C349.166667,302.921875 349.361979,303.429688 349.414062,304.132812 Z M324.296875,300.65625 C325.026042,300.65625 325.390625,300.317708 325.390625,299.640625 L325.390625,299.640625 L325.390625,298.15625 L335,298.15625 L335,299.71875 C335,300.265625 335.364583,300.539062 336.09375,300.539062 C336.822917,300.565104 337.1875,300.265625 337.1875,299.640625 C337.1875,299.432292 337.161458,299.106771 337.109375,298.664062 C336.953125,297.075521 336.875,295.65625 336.875,294.40625 L336.875,294.40625 L336.875,276.320312 C337.864583,275.877604 338.359375,275.473958 338.359375,275.109375 C338.359375,274.848958 338.098958,274.536458 337.578125,274.171875 L337.578125,274.171875 L335.9375,273.15625 L334.609375,274.640625 L328.4375,274.640625 C329.322917,273.494792 330.364583,271.90625 331.5625,269.875 L331.5625,269.875 L332.34375,269.757812 C332.916667,269.679688 333.203125,269.484375 333.203125,269.171875 C333.203125,268.885417 332.890625,268.638021 332.265625,268.429688 L332.265625,268.429688 L330.078125,267.648438 C329.401042,270.382812 328.502604,272.713542 327.382812,274.640625 L327.382812,274.640625 L325.546875,274.640625 L323.320312,272.921875 C323.476562,273.598958 323.567708,274.458333 323.59375,275.5 L323.59375,275.5 L323.59375,294.71875 C323.59375,296.229167 323.515625,297.596354 323.359375,298.820312 C323.307292,299.236979 323.28125,299.549479 323.28125,299.757812 C323.28125,300.356771 323.619792,300.65625 324.296875,300.65625 Z M335,285.34375 L325.390625,285.34375 L325.390625,275.734375 L335,275.734375 L335,285.34375 Z M348.671875,292.53125 C349.244792,292.53125 349.544271,292.140625 349.570312,291.359375 C349.544271,290.369792 348.958333,289.25 347.8125,288 C346.458333,286.541667 344.713542,285.239583 342.578125,284.09375 L342.578125,284.09375 L342.070312,284.757812 C344.414062,286.554688 346.09375,288.520833 347.109375,290.65625 C347.5,291.489583 347.773438,291.984375 347.929688,292.140625 C348.164062,292.401042 348.411458,292.53125 348.671875,292.53125 Z M335,297.0625 L325.390625,297.0625 L325.390625,286.476562 L335,286.476562 L335,297.0625 Z M384.609375,273.234375 C386.302083,272.140625 387.838542,270.96875 389.21875,269.71875 L389.21875,269.71875 L390.390625,269.71875 C390.807292,269.71875 391.002604,269.5625 390.976562,269.25 C390.976562,269.09375 390.820312,268.911458 390.507812,268.703125 L390.507812,268.703125 L388.125,267.179688 C387.239583,268.950521 385.885417,270.786458 384.0625,272.6875 L384.0625,272.6875 L384.609375,273.234375 Z M375,273.039062 C375.677083,273.039062 376.015625,272.635417 376.015625,271.828125 C376.015625,270.942708 375.286458,270.057292 373.828125,269.171875 C373.098958,268.729167 372.109375,268.221354 370.859375,267.648438 L370.859375,267.648438 L370.46875,268.15625 C371.510417,268.9375 372.161458,269.471354 372.421875,269.757812 C372.994792,270.356771 373.515625,271.177083 373.984375,272.21875 C374.244792,272.791667 374.583333,273.065104 375,273.039062 Z M362.304688,304.328125 C366.705729,303.338542 370.15625,302.101562 372.65625,300.617188 C376.25,298.533854 378.567708,295.825521 379.609375,292.492188 L379.609375,292.492188 L397.8125,292.492188 C398.177083,292.492188 398.359375,292.322917 398.359375,291.984375 C398.359375,291.854167 398.242188,291.684896 398.007812,291.476562 L398.007812,291.476562 L395.664062,289.40625 L393.75,291.359375 L379.921875,291.359375 C380.078125,290.760417 380.299479,289.731771 380.585938,288.273438 L380.585938,288.273438 L381.71875,287.921875 C382.083333,287.817708 382.265625,287.609375 382.265625,287.296875 C382.265625,287.036458 382.018229,286.828125 381.523438,286.671875 L381.523438,286.671875 L379.570312,286.164062 L397.34375,286.164062 C397.708333,286.164062 397.890625,285.994792 397.890625,285.65625 C397.890625,285.526042 397.786458,285.356771 397.578125,285.148438 L397.578125,285.148438 L395.234375,283.078125 L393.28125,285.03125 L380.859375,285.03125 L380.859375,280.304688 L393.046875,280.304688 C393.411458,280.304688 393.59375,280.135417 393.59375,279.796875 C393.59375,279.640625 393.489583,279.471354 393.28125,279.289062 L393.28125,279.289062 L390.9375,277.21875 L388.984375,279.171875 L380.859375,279.171875 L380.859375,274.796875 L396.328125,274.796875 C396.692708,274.796875 396.875,274.640625 396.875,274.328125 C396.875,274.171875 396.757812,273.989583 396.523438,273.78125 L396.523438,273.78125 L394.179688,271.75 L392.265625,273.703125 L367.96875,273.703125 C366.25,273.703125 364.765625,273.546875 363.515625,273.234375 L363.515625,273.234375 L364.21875,274.953125 C365.3125,274.848958 366.5625,274.796875 367.96875,274.796875 L367.96875,274.796875 L378.984375,274.796875 L378.984375,279.171875 L371.40625,279.171875 C369.635417,279.171875 368.125,279.028646 366.875,278.742188 L366.875,278.742188 L367.65625,280.460938 C368.645833,280.356771 369.895833,280.304688 371.40625,280.304688 L371.40625,280.304688 L378.984375,280.304688 L378.984375,285.03125 L366.796875,285.03125 C365,285.03125 363.502604,284.888021 362.304688,284.601562 L362.304688,284.601562 L363.046875,286.320312 C364.036458,286.216146 365.286458,286.164062 366.796875,286.164062 L366.796875,286.164062 L378.710938,286.164062 C378.476562,288.455729 378.203125,290.1875 377.890625,291.359375 L377.890625,291.359375 L366.875,291.359375 C365.104167,291.359375 363.606771,291.216146 362.382812,290.929688 L362.382812,290.929688 L363.125,292.648438 C364.088542,292.544271 365.338542,292.492188 366.875,292.492188 L366.875,292.492188 L377.5,292.492188 C375.625,297.466146 370.494792,301.151042 362.109375,303.546875 L362.109375,303.546875 L362.304688,304.328125 Z M395.820312,304.09375 C396.002604,304.09375 396.197917,304.015625 396.40625,303.859375 C396.666667,303.651042 396.796875,303.351562 396.796875,302.960938 C396.796875,301.554688 395.208333,300.03125 392.03125,298.390625 C390.052083,297.348958 387.135417,296.046875 383.28125,294.484375 L383.28125,294.484375 L382.929688,295.109375 C385.247396,296.411458 386.875,297.348958 387.8125,297.921875 C389.947917,299.276042 391.71875,300.65625 393.125,302.0625 L393.125,302.0625 L394.414062,303.351562 C394.934896,303.846354 395.403646,304.09375 395.820312,304.09375 Z M402.34375,271.710938 C403.385417,271.606771 404.635417,271.554688 406.09375,271.554688 L406.09375,271.554688 L418.710938,271.554688 C419.049479,271.554688 419.21875,271.385417 419.21875,271.046875 C419.21875,270.916667 419.114583,270.747396 418.90625,270.539062 L418.90625,270.539062 L416.523438,268.46875 L414.609375,270.421875 L406.09375,270.421875 C404.53125,270.421875 403.046875,270.291667 401.640625,270.03125 L401.640625,270.03125 L402.34375,271.710938 Z M421.015625,271.710938 C422.005208,271.606771 423.255208,271.554688 424.765625,271.554688 L424.765625,271.554688 L437.929688,271.554688 C438.268229,271.554688 438.4375,271.385417 438.4375,271.046875 C438.4375,270.916667 438.333333,270.747396 438.125,270.539062 L438.125,270.539062 L435.78125,268.46875 L433.828125,270.421875 L424.765625,270.421875 C423.203125,270.421875 421.731771,270.291667 420.351562,270.03125 L420.351562,270.03125 L421.015625,271.710938 Z M413.515625,303.9375 C415.494792,303.520833 416.497396,302.401042 416.523438,300.578125 L416.523438,300.578125 L416.523438,278.820312 C417.539062,278.377604 418.046875,277.973958 418.046875,277.609375 C418.046875,277.296875 417.786458,276.984375 417.265625,276.671875 L417.265625,276.671875 L415.625,275.617188 L414.296875,277.101562 L406.875,277.101562 L404.609375,275.695312 C404.713542,277.700521 404.778646,279.458333 404.804688,280.96875 L404.804688,280.96875 L404.804688,297.53125 C404.804688,298.963542 404.726562,300.330729 404.570312,301.632812 C404.518229,302.049479 404.492188,302.375 404.492188,302.609375 C404.466146,303.182292 404.817708,303.46875 405.546875,303.46875 C406.276042,303.46875 406.653646,303.130208 406.679688,302.453125 L406.679688,302.453125 L406.679688,278.15625 L414.6875,278.15625 L414.6875,299.796875 C414.6875,300.526042 414.322917,300.890625 413.59375,300.890625 C413.177083,300.890625 411.861979,300.721354 409.648438,300.382812 L409.648438,300.382812 L409.492188,301.28125 C411.132812,301.59375 412.161458,301.880208 412.578125,302.140625 C413.046875,302.453125 413.359375,303.052083 413.515625,303.9375 Z M431.953125,303.9375 C433.932292,303.520833 434.921875,302.401042 434.921875,300.578125 L434.921875,300.578125 L434.921875,278.820312 C435.911458,278.377604 436.419271,277.973958 436.445312,277.609375 C436.445312,277.296875 436.184896,276.984375 435.664062,276.671875 L435.664062,276.671875 L434.023438,275.617188 L432.695312,277.101562 L424.453125,277.101562 L422.226562,275.695312 C422.356771,277.700521 422.421875,279.458333 422.421875,280.96875 L422.421875,280.96875 L422.421875,297.53125 C422.421875,299.015625 422.34375,300.382812 422.1875,301.632812 C422.135417,302.049479 422.109375,302.375 422.109375,302.609375 C422.109375,303.182292 422.460938,303.46875 423.164062,303.46875 C423.919271,303.46875 424.296875,303.130208 424.296875,302.453125 L424.296875,302.453125 L424.296875,278.15625 L433.085938,278.15625 L433.085938,299.796875 C433.085938,300.526042 432.721354,300.890625 431.992188,300.890625 C431.523438,300.890625 430.208333,300.721354 428.046875,300.382812 L428.046875,300.382812 L427.890625,301.28125 C429.557292,301.59375 430.598958,301.880208 431.015625,302.140625 C431.484375,302.453125 431.796875,303.052083 431.953125,303.9375 Z M430.46875,291.984375 C430.651042,291.984375 430.833333,291.90625 431.015625,291.75 C431.328125,291.541667 431.484375,291.229167 431.484375,290.8125 C431.484375,289.25 429.817708,286.997396 426.484375,284.054688 L426.484375,284.054688 L426.054688,284.5625 C427.851562,286.90625 428.997396,288.885417 429.492188,290.5 C429.778646,291.489583 430.104167,291.984375 430.46875,291.984375 Z M412.265625,292.140625 C412.447917,292.140625 412.630208,292.0625 412.8125,291.90625 C413.125,291.645833 413.28125,291.333333 413.28125,290.96875 C413.28125,289.458333 411.614583,287.231771 408.28125,284.289062 L408.28125,284.289062 L407.851562,284.796875 C409.674479,287.192708 410.820312,289.145833 411.289062,290.65625 C411.575521,291.645833 411.901042,292.140625 412.265625,292.140625 Z M470.195312,304.484375 L470.976562,304.25 C471.289062,304.197917 471.627604,304.09375 471.992188,303.9375 C472.356771,303.807292 472.695312,303.638021 473.007812,303.429688 C473.320312,303.247396 473.606771,303 473.867188,302.6875 C474.153646,302.375 474.401042,302.036458 474.609375,301.671875 C474.817708,301.307292 475.013021,300.747396 475.195312,299.992188 C475.351562,299.236979 475.481771,298.520833 475.585938,297.84375 C475.690104,297.166667 475.794271,296.098958 475.898438,294.640625 L475.898438,294.640625 L476.132812,291.125 C476.184896,290.265625 476.223958,289.588542 476.25,289.09375 C476.25,288.625 476.263021,288.104167 476.289062,287.53125 L476.289062,287.53125 L476.640625,287.414062 C476.666667,287.414062 476.783854,287.361979 476.992188,287.257812 C477.200521,287.153646 477.382812,287.023438 477.539062,286.867188 C477.695312,286.710938 477.773438,286.541667 477.773438,286.359375 C477.773438,286.203125 477.708333,286.059896 477.578125,285.929688 C477.473958,285.799479 477.278646,285.630208 476.992188,285.421875 L476.992188,285.421875 L475.351562,284.367188 L474.023438,285.851562 L449.257812,285.851562 L449.257812,273.3125 L469.726562,273.3125 L469.570312,274.992188 C469.518229,275.669271 469.466146,276.450521 469.414062,277.335938 C469.309896,278.195312 469.205729,278.911458 469.101562,279.484375 C468.971354,280.057292 468.802083,280.552083 468.59375,280.96875 C468.359375,281.385417 468.059896,281.723958 467.695312,281.984375 C467.330729,282.244792 466.992188,282.375 466.679688,282.375 C466.367188,282.375 465.950521,282.335938 465.429688,282.257812 C464.960938,282.153646 464.557292,282.0625 464.21875,281.984375 L464.21875,281.984375 L462.734375,281.632812 C462.5,281.606771 462.174479,281.541667 461.757812,281.4375 L461.757812,281.4375 L461.679688,282.21875 L462.226562,282.375 C462.799479,282.557292 463.255208,282.700521 463.59375,282.804688 C463.958333,282.934896 464.309896,283.091146 464.648438,283.273438 C464.960938,283.429688 465.195312,283.598958 465.351562,283.78125 C465.507812,283.9375 465.585938,284.132812 465.585938,284.367188 L465.585938,284.367188 L465.585938,285.03125 L466.367188,284.875 C466.783854,284.822917 467.148438,284.71875 467.460938,284.5625 C467.773438,284.40625 468.111979,284.210938 468.476562,283.976562 C468.841146,283.742188 469.153646,283.481771 469.414062,283.195312 C469.674479,282.934896 469.908854,282.570312 470.117188,282.101562 C470.351562,281.632812 470.533854,281.164062 470.664062,280.695312 C470.794271,280.226562 470.911458,279.640625 471.015625,278.9375 C471.119792,278.260417 471.197917,277.765625 471.25,277.453125 C471.276042,277.166667 471.315104,276.658854 471.367188,275.929688 C471.445312,275.226562 471.510417,274.588542 471.5625,274.015625 L471.5625,274.015625 L471.953125,273.859375 C472.03125,273.859375 472.174479,273.794271 472.382812,273.664062 C472.591146,273.585938 472.747396,273.46875 472.851562,273.3125 C473.007812,273.15625 473.085938,272.986979 473.085938,272.804688 C473.085938,272.648438 473.033854,272.505208 472.929688,272.375 C472.825521,272.270833 472.617188,272.101562 472.304688,271.867188 L472.304688,271.867188 L470.664062,270.8125 L469.335938,272.296875 L453.398438,272.296875 L454.414062,271.671875 C454.466146,271.671875 454.778646,271.294271 455.351562,270.539062 L455.351562,270.539062 L455.820312,269.992188 C455.924479,269.861979 456.054688,269.666667 456.210938,269.40625 L456.210938,269.40625 L457.148438,269.328125 C457.356771,269.328125 457.526042,269.289062 457.65625,269.210938 C457.786458,269.158854 457.851562,269.041667 457.851562,268.859375 C457.851562,268.651042 457.747396,268.481771 457.539062,268.351562 C457.330729,268.247396 457.096354,268.15625 456.835938,268.078125 L456.835938,268.078125 L454.648438,267.453125 L454.492188,267.921875 C454.335938,268.442708 454.231771,268.768229 454.179688,268.898438 C454.127604,269.054688 454.010417,269.341146 453.828125,269.757812 L453.828125,269.757812 L453.320312,270.890625 C453.164062,271.203125 453.020833,271.463542 452.890625,271.671875 L452.890625,271.671875 L452.460938,272.296875 L449.492188,272.296875 L447.148438,270.578125 L447.34375,271.515625 C447.369792,271.671875 447.395833,271.997396 447.421875,272.492188 C447.447917,272.960938 447.460938,273.46875 447.460938,274.015625 L447.460938,274.015625 L447.46014,282.339126 C447.456952,282.597417 447.444196,282.960938 447.421875,283.429688 C447.395833,284.002604 447.382812,284.510417 447.382812,284.953125 C447.356771,285.421875 447.34375,285.760417 447.34375,285.96875 C447.317708,286.333333 447.330729,286.59375 447.382812,286.75 C447.434896,286.90625 447.513021,287.036458 447.617188,287.140625 C447.773438,287.244792 447.955729,287.296875 448.164062,287.296875 C448.372396,287.296875 448.554688,287.270833 448.710938,287.21875 C448.867188,287.166667 449.023438,287.114583 449.179688,287.0625 L449.179688,287.0625 L474.414062,287.0625 L474.375,288.46875 C474.348958,288.9375 474.309896,289.783854 474.257812,291.007812 C474.205729,292.231771 474.153646,293.221354 474.101562,293.976562 C474.049479,294.731771 473.997396,295.421875 473.945312,296.046875 C473.893229,296.645833 473.815104,297.244792 473.710938,297.84375 C473.606771,298.46875 473.476562,299.067708 473.320312,299.640625 C473.164062,300.213542 472.929688,300.682292 472.617188,301.046875 C472.304688,301.411458 471.992188,301.645833 471.679688,301.75 C471.367188,301.854167 471.002604,301.880208 470.585938,301.828125 C470.169271,301.776042 469.804688,301.723958 469.492188,301.671875 C469.179688,301.619792 468.671875,301.489583 467.96875,301.28125 L467.96875,301.28125 L466.289062,300.8125 L466.171875,301.632812 L467.148438,301.945312 L468.203125,302.335938 C468.75,302.518229 469.153646,302.6875 469.414062,302.84375 C469.674479,303 469.856771,303.182292 469.960938,303.390625 C470.091146,303.598958 470.169271,303.78125 470.195312,303.9375 L470.195312,303.9375 L470.195312,304.484375 Z M460.585938,280.421875 C460.846354,280.421875 461.041667,280.291667 461.171875,280.03125 C461.354167,279.770833 461.419271,279.484375 461.367188,279.171875 C461.367188,278.859375 461.263021,278.559896 461.054688,278.273438 C460.846354,277.986979 460.572917,277.713542 460.234375,277.453125 C459.895833,277.192708 459.518229,276.932292 459.101562,276.671875 C458.684896,276.463542 458.164062,276.229167 457.539062,275.96875 L457.539062,275.96875 L456.09375,275.382812 L455.039062,274.992188 L454.648438,275.773438 L455.3125,276.125 C455.833333,276.385417 456.276042,276.619792 456.640625,276.828125 C456.979167,277.0625 457.34375,277.335938 457.734375,277.648438 C458.098958,277.986979 458.4375,278.325521 458.75,278.664062 C459.0625,279.028646 459.309896,279.341146 459.492188,279.601562 C459.648438,279.888021 459.778646,280.057292 459.882812,280.109375 C460.091146,280.317708 460.325521,280.421875 460.585938,280.421875 Z M466.835938,300.304688 C467.044271,300.304688 467.239583,300.265625 467.421875,300.1875 C467.604167,300.135417 467.747396,300.03125 467.851562,299.875 C467.955729,299.744792 467.994792,299.601562 467.96875,299.445312 L467.96875,299.445312 L467.96875,293.390625 L468.632812,293.234375 C468.893229,293.15625 469.127604,293.039062 469.335938,292.882812 C469.492188,292.726562 469.583333,292.557292 469.609375,292.375 C469.583333,292.192708 469.466146,292.036458 469.257812,291.90625 C469.049479,291.802083 468.619792,291.671875 467.96875,291.515625 L467.96875,291.515625 L465.820312,291.046875 L465.859375,291.320312 C465.859375,291.502604 465.885417,291.75 465.9375,292.0625 C465.963542,292.375 465.976562,293.078125 465.976562,294.171875 L465.976562,297.765625 L456.289062,297.765625 L456.289062,290.460938 L456.992188,290.265625 C457.252604,290.1875 457.486979,290.070312 457.695312,289.914062 C457.851562,289.757812 457.942708,289.588542 457.96875,289.40625 C457.942708,289.197917 457.825521,289.041667 457.617188,288.9375 C457.408854,288.833333 456.966146,288.703125 456.289062,288.546875 L456.289062,288.546875 L454.179688,288.078125 L454.21875,288.351562 C454.21875,288.429688 454.231771,288.729167 454.257812,289.25 C454.309896,289.770833 454.335938,290.421875 454.335938,291.203125 L454.335938,291.203125 L454.335938,297.6875 L444.804688,297.765625 L444.804688,292.84375 L445.585938,292.609375 C445.872396,292.557292 446.106771,292.453125 446.289062,292.296875 C446.445312,292.140625 446.523438,291.971354 446.523438,291.789062 C446.497396,291.606771 446.380208,291.463542 446.171875,291.359375 C445.963542,291.255208 445.533854,291.111979 444.882812,290.929688 L444.882812,290.929688 L442.773438,290.460938 L442.773438,290.734375 C442.773438,290.838542 442.799479,291.203125 442.851562,291.828125 C442.903646,292.505208 442.929688,293.091146 442.929688,293.585938 L442.929688,293.585938 L442.890625,295.109375 C442.864583,296.567708 442.838542,297.453125 442.8125,297.765625 C442.760417,298.078125 442.760417,298.338542 442.8125,298.546875 C442.838542,298.703125 442.903646,298.833333 443.007812,298.9375 C443.111979,299.041667 443.255208,299.09375 443.4375,299.09375 C443.619792,299.145833 443.789062,299.145833 443.945312,299.09375 C444.127604,299.067708 444.257812,299.028646 444.335938,298.976562 C444.414062,298.924479 444.492188,298.859375 444.570312,298.78125 L444.570312,298.78125 L465.976562,298.78125 L465.976562,299.484375 C465.976562,299.640625 466.002604,299.770833 466.054688,299.875 C466.106771,299.979167 466.197917,300.083333 466.328125,300.1875 C466.458333,300.265625 466.627604,300.304688 466.835938,300.304688 Z M169.6875,351.625 C170.208333,351.625 170.46875,351.46875 170.46875,351.15625 L170.46875,351.15625 L170.46875,350.375 L189.609375,350.375 L189.609375,350.765625 C189.609375,351.130208 189.869792,351.3125 190.390625,351.3125 C191.197917,351.3125 191.601562,350.921875 191.601562,350.140625 C191.575521,349.984375 191.536458,349.203125 191.484375,347.796875 L191.484375,347.796875 L191.484375,339.90625 C192.473958,339.463542 192.96875,339.059896 192.96875,338.695312 C192.96875,338.408854 192.708333,338.096354 192.1875,337.757812 L192.1875,337.757812 L190.546875,336.703125 L189.21875,338.1875 L170.625,338.1875 L168.28125,336.46875 C168.489583,337.197917 168.606771,338.096354 168.632812,339.164062 L168.632812,339.164062 L168.632812,344.90625 L168.476562,350.296875 C168.450521,350.661458 168.489583,350.947917 168.59375,351.15625 C168.75,351.46875 169.114583,351.625 169.6875,351.625 Z M189.609375,343.695312 L170.46875,343.695312 L170.46875,339.320312 L189.609375,339.320312 L189.609375,343.695312 Z M189.609375,349.28125 L170.46875,349.28125 L170.46875,344.75 L189.609375,344.75 L189.609375,349.28125 Z M162.03125,372.40625 C165.416667,370.270833 167.825521,367.536458 169.257812,364.203125 C170.768229,366.026042 171.640625,367.067708 171.875,367.328125 C173.4375,368.838542 175.260417,369.880208 177.34375,370.453125 C179.947917,371.182292 184.192708,371.546875 190.078125,371.546875 C192.317708,371.546875 194.609375,371.494792 196.953125,371.390625 C197.161458,370.505208 197.8125,369.932292 198.90625,369.671875 L198.90625,369.671875 L198.90625,368.96875 C195.78125,369.541667 192.682292,369.828125 189.609375,369.828125 C186.432292,369.828125 183.645833,369.697917 181.25,369.4375 L181.25,369.4375 L181.25,362.523438 L194.726562,362.523438 C195.065104,362.523438 195.234375,362.354167 195.234375,362.015625 C195.234375,361.885417 195.130208,361.729167 194.921875,361.546875 L194.921875,361.546875 L192.578125,359.4375 L190.625,361.390625 L181.25,361.390625 L181.25,356.039062 L197.8125,356.039062 C198.177083,356.039062 198.372396,355.856771 198.398438,355.492188 C198.398438,355.309896 198.294271,355.140625 198.085938,354.984375 L198.085938,354.984375 L195.3125,352.757812 L193.28125,354.984375 L165.9375,354.984375 C164.166667,354.984375 162.682292,354.815104 161.484375,354.476562 L161.484375,354.476562 L162.1875,356.195312 C163.125,356.091146 164.375,356.039062 165.9375,356.039062 L165.9375,356.039062 L179.375,356.039062 L179.375,369.203125 C177.1875,368.8125 175.442708,368.1875 174.140625,367.328125 C172.65625,366.338542 171.184896,364.90625 169.726562,363.03125 C169.804688,362.71875 169.921875,362.302083 170.078125,361.78125 C170.338542,361 170.533854,360.375 170.664062,359.90625 L170.664062,359.90625 L171.484375,359.828125 C172.109375,359.776042 172.434896,359.59375 172.460938,359.28125 C172.460938,359.046875 172.226562,358.838542 171.757812,358.65625 L171.757812,358.65625 L169.179688,357.640625 C168.632812,361.078125 167.786458,363.864583 166.640625,366 C165.651042,367.875 163.932292,369.828125 161.484375,371.859375 L161.484375,371.859375 L162.03125,372.40625 Z M224.609375,372.210938 C226.744792,371.820312 228.229167,371.15625 229.0625,370.21875 C229.739583,369.4375 230.351562,368.057292 230.898438,366.078125 L230.898438,366.078125 L237.5,366.078125 C237.890625,366.078125 238.085938,365.921875 238.085938,365.609375 C238.085938,365.401042 237.890625,365.140625 237.5,364.828125 L237.5,364.828125 L234.765625,362.640625 L232.734375,365.023438 L231.09375,365.023438 C231.5625,362.054688 231.979167,357.705729 232.34375,351.976562 L232.34375,351.976562 L237.96875,351.976562 C238.385417,351.976562 238.59375,351.78125 238.59375,351.390625 C238.59375,351.182292 238.489583,351 238.28125,350.84375 L238.28125,350.84375 L235.625,348.734375 L233.59375,350.84375 L232.34375,350.84375 C232.473958,348.291667 232.565104,346.546875 232.617188,345.609375 C232.747396,342.432292 232.838542,340.375 232.890625,339.4375 C233.880208,338.994792 234.375,338.591146 234.375,338.226562 C234.375,337.966146 234.114583,337.653646 233.59375,337.289062 L233.59375,337.289062 L231.953125,336.234375 L230.625,337.71875 L210.429688,337.71875 L207.96875,336 C207.916667,337.979167 207.760417,340.869792 207.5,344.671875 C207.291667,347.328125 207.096354,349.385417 206.914062,350.84375 L206.914062,350.84375 L205,350.84375 C204.21875,350.84375 202.994792,350.739583 201.328125,350.53125 L201.328125,350.53125 L202.070312,352.171875 C203.190104,352.015625 204.166667,351.950521 205,351.976562 L205,351.976562 L206.796875,351.976562 C206.536458,354.294271 206.119792,357.09375 205.546875,360.375 C205.15625,362.71875 204.84375,364.307292 204.609375,365.140625 C204.557292,365.348958 204.53125,365.505208 204.53125,365.609375 C204.53125,365.973958 204.817708,366.169271 205.390625,366.195312 C205.598958,366.221354 206.015625,366.182292 206.640625,366.078125 L206.640625,366.078125 L228.75,366.078125 C228.4375,367.067708 228.242188,367.640625 228.164062,367.796875 C227.565104,368.838542 226.71875,369.372396 225.625,369.398438 C224.557292,369.398438 222.565104,369.072917 219.648438,368.421875 L219.648438,368.421875 L219.453125,369.242188 C221.171875,369.658854 222.473958,370.049479 223.359375,370.414062 C224.140625,370.726562 224.557292,371.325521 224.609375,372.210938 Z M230.46875,350.84375 L208.75,350.84375 C209.21875,346.885417 209.583333,342.875 209.84375,338.8125 L209.84375,338.8125 L230.9375,338.8125 C230.885417,340.140625 230.807292,342.276042 230.703125,345.21875 C230.598958,348.135417 230.520833,350.010417 230.46875,350.84375 L230.46875,350.84375 Z M222.109375,348.5 C222.682292,348.5 222.96875,348.122396 222.96875,347.367188 C222.96875,346.429688 222.317708,345.388021 221.015625,344.242188 C220.182292,343.486979 218.385417,342.380208 215.625,340.921875 L215.625,340.921875 L215.273438,341.390625 C215.585938,341.598958 215.911458,341.846354 216.25,342.132812 C217.083333,342.757812 217.578125,343.148438 217.734375,343.304688 C218.828125,344.320312 219.635417,345.309896 220.15625,346.273438 C220.677083,347.289062 221.041667,347.901042 221.25,348.109375 C221.510417,348.369792 221.796875,348.5 222.109375,348.5 Z M229.0625,365.023438 L206.640625,365.023438 C206.848958,363.851562 207.057292,362.5625 207.265625,361.15625 C207.578125,359.177083 207.786458,357.875 207.890625,357.25 C208.307292,354.645833 208.567708,352.888021 208.671875,351.976562 L208.671875,351.976562 L230.46875,351.976562 C230.208333,356.299479 229.739583,360.648438 229.0625,365.023438 L229.0625,365.023438 Z M221.640625,361.390625 C222.213542,361.390625 222.513021,361 222.539062,360.21875 C222.539062,359.333333 221.888021,358.291667 220.585938,357.09375 C219.804688,356.416667 218.203125,355.427083 215.78125,354.125 L215.78125,354.125 L215.15625,353.773438 L214.84375,354.28125 C215.104167,354.489583 215.416667,354.723958 215.78125,354.984375 C216.614583,355.609375 217.122396,356 217.304688,356.15625 C218.398438,357.145833 219.192708,358.135417 219.6875,359.125 C220.208333,360.166667 220.572917,360.791667 220.78125,361 C221.041667,361.260417 221.328125,361.390625 221.640625,361.390625 Z M259.882812,372.25 C260.846354,372.25 261.328125,371.9375 261.328125,371.3125 C261.328125,371.052083 261.302083,370.726562 261.25,370.335938 C261.09375,368.955729 261.015625,367.666667 261.015625,366.46875 L261.015625,366.46875 L261.015625,358.8125 L277.5,358.8125 C277.838542,358.8125 278.007812,358.65625 278.007812,358.34375 C277.981771,358.239583 277.864583,358.083333 277.65625,357.875 L277.65625,357.875 L275.3125,355.765625 L273.398438,357.640625 L261.015625,357.640625 L261.015625,352.171875 L277.03125,352.171875 C277.395833,352.171875 277.578125,352.015625 277.578125,351.703125 C277.578125,351.546875 277.473958,351.364583 277.265625,351.15625 L277.265625,351.15625 L274.921875,349.085938 L272.96875,351.078125 L264.140625,351.078125 C265.598958,349.203125 267.005208,347.067708 268.359375,344.671875 L268.359375,344.671875 L269.492188,344.515625 C269.882812,344.463542 270.078125,344.294271 270.078125,344.007812 C270.078125,343.799479 269.882812,343.617188 269.492188,343.460938 L269.492188,343.460938 L267.265625,342.484375 L274.921875,342.484375 C275.286458,342.484375 275.455729,342.302083 275.429688,341.9375 C275.403646,341.833333 275.286458,341.677083 275.078125,341.46875 L275.078125,341.46875 L272.734375,339.359375 L270.78125,341.351562 L261.015625,341.351562 C261.588542,341.039062 261.875,340.622396 261.875,340.101562 C261.875,338.773438 260.416667,337.289062 257.5,335.648438 L257.5,335.648438 L257.109375,336.15625 C258.411458,337.458333 259.270833,338.864583 259.6875,340.375 C259.84375,340.895833 260.078125,341.221354 260.390625,341.351562 L260.390625,341.351562 L248.75,341.351562 C247.239583,341.377604 245.859375,341.234375 244.609375,340.921875 L244.609375,340.921875 L245.351562,342.640625 C246.341146,342.536458 247.473958,342.484375 248.75,342.484375 L248.75,342.484375 L250.625,342.484375 C251.5625,343.786458 252.265625,344.958333 252.734375,346 C253.255208,347.171875 253.645833,348.539062 253.90625,350.101562 C254.010417,350.596354 254.21875,350.921875 254.53125,351.078125 L254.53125,351.078125 L247.1875,351.078125 C245.416667,351.078125 243.90625,350.921875 242.65625,350.609375 L242.65625,350.609375 L243.4375,352.328125 C244.427083,352.223958 245.677083,352.171875 247.1875,352.171875 L247.1875,352.171875 L259.140625,352.171875 L259.140625,357.640625 L246.445312,357.640625 C245.664062,357.640625 244.440104,357.510417 242.773438,357.25 L242.773438,357.25 L243.515625,359.007812 C244.557292,358.877604 245.533854,358.8125 246.445312,358.8125 L246.445312,358.8125 L259.140625,358.8125 L259.140625,371.390625 C259.140625,371.963542 259.388021,372.25 259.882812,372.25 Z M263.007812,351.078125 L255.3125,351.078125 C255.78125,350.765625 256.015625,350.322917 256.015625,349.75 C256.015625,348.03125 254.570312,345.609375 251.679688,342.484375 L251.679688,342.484375 L266.875,342.484375 C266.015625,345.192708 264.726562,348.057292 263.007812,351.078125 L263.007812,351.078125 Z M243.476562,370.570312 C245.742188,369.476562 247.630208,368.34375 249.140625,367.171875 C250.729167,365.921875 252.356771,364.398438 254.023438,362.601562 L254.023438,362.601562 L255.195312,362.484375 C255.690104,362.484375 255.9375,362.328125 255.9375,362.015625 C255.9375,361.807292 255.78125,361.611979 255.46875,361.429688 L255.46875,361.429688 L252.8125,359.828125 C251.875,361.651042 250.794271,363.252604 249.570312,364.632812 C247.955729,366.429688 245.807292,368.200521 243.125,369.945312 L243.125,369.945312 L243.476562,370.570312 Z M275.585938,370.21875 C276.184896,370.21875 276.484375,369.867188 276.484375,369.164062 C276.484375,368.096354 275.182292,366.625 272.578125,364.75 C270.859375,363.552083 268.320312,362.119792 264.960938,360.453125 L264.960938,360.453125 L264.609375,360.960938 C267.213542,362.705729 268.632812,363.682292 268.867188,363.890625 C270.846354,365.453125 272.330729,366.911458 273.320312,368.265625 C274.309896,369.567708 275.065104,370.21875 275.585938,370.21875 Z M312.421875,353.265625 C313.307292,353.265625 313.75,352.927083 313.75,352.25 C313.75,351.9375 313.723958,351.390625 313.671875,350.609375 C313.619792,349.958333 313.59375,349.151042 313.59375,348.1875 L313.59375,348.1875 L313.59375,339.75 C314.453125,339.28125 314.882812,338.942708 314.882812,338.734375 C314.882812,338.473958 314.609375,338.161458 314.0625,337.796875 L314.0625,337.796875 L312.65625,336.78125 L311.484375,338.1875 L298.125,338.1875 L295.546875,336.46875 C295.703125,336.989583 295.807292,337.901042 295.859375,339.203125 L295.859375,339.203125 L295.859375,347.875 C295.859375,348.708333 295.820312,349.619792 295.742188,350.609375 C295.719866,351.412946 295.707111,351.891263 295.703922,352.044324 L295.703125,352.09375 C295.703125,352.875 296.119792,353.265625 296.953125,353.265625 C297.421875,353.265625 297.682292,353.109375 297.734375,352.796875 L297.734375,352.796875 L297.734375,351.859375 L311.71875,351.859375 L311.71875,352.796875 C311.71875,353.109375 311.953125,353.265625 312.421875,353.265625 Z M290.546875,342.875 C291.171875,342.875 291.484375,342.536458 291.484375,341.859375 C291.484375,340.921875 290.755208,339.932292 289.296875,338.890625 C288.098958,338.109375 286.5625,337.354167 284.6875,336.625 L284.6875,336.625 L284.257812,337.328125 C286.523438,338.630208 288.085938,340.036458 288.945312,341.546875 C289.466146,342.432292 290,342.875 290.546875,342.875 Z M311.71875,344.476562 L297.734375,344.476562 L297.734375,339.359375 L311.71875,339.359375 L311.71875,344.476562 Z M311.71875,350.765625 L297.734375,350.765625 L297.734375,345.570312 L311.71875,345.570312 L311.71875,350.765625 Z M288.203125,352.484375 C288.880208,352.484375 289.21875,352.119792 289.21875,351.390625 C289.21875,349.723958 286.875,348.03125 282.1875,346.3125 L282.1875,346.3125 L281.71875,347.015625 C284.0625,348.369792 285.625,349.671875 286.40625,350.921875 C286.875,351.651042 287.1875,352.067708 287.34375,352.171875 C287.604167,352.380208 287.890625,352.484375 288.203125,352.484375 Z M291.09375,370.765625 C291.875,370.661458 293.125,370.609375 294.84375,370.609375 L294.84375,370.609375 L318.359375,370.609375 C318.645833,370.609375 318.789062,370.479167 318.789062,370.21875 C318.789062,370.0625 318.59375,369.802083 318.203125,369.4375 L318.203125,369.4375 L316.25,367.640625 L314.570312,369.4375 L314.570312,358.734375 C315.429688,358.265625 315.859375,357.927083 315.859375,357.71875 C315.859375,357.40625 315.585938,357.067708 315.039062,356.703125 L315.039062,356.703125 L313.59375,355.765625 L312.421875,357.171875 L296.679688,357.171875 L294.21875,355.453125 C294.375,356.078125 294.479167,356.963542 294.53125,358.109375 L294.53125,358.109375 L294.53125,369.515625 L293.90625,369.515625 C292.708333,369.515625 291.523438,369.333333 290.351562,368.96875 L290.351562,368.96875 L291.09375,370.765625 Z M284.53125,371.390625 C284.84375,371.390625 285,371 285,370.21875 C285,370.0625 284.973958,369.802083 284.921875,369.4375 C286.484375,366.9375 287.708333,364.802083 288.59375,363.03125 C290.416667,359.385417 291.497396,357.119792 291.835938,356.234375 L291.835938,356.234375 L291.171875,355.804688 C288.046875,361.195312 285,365.453125 282.03125,368.578125 L282.03125,368.578125 L283.632812,370.6875 C283.997396,371.15625 284.296875,371.390625 284.53125,371.390625 Z M300.703125,369.515625 L296.40625,369.515625 L296.40625,358.265625 L300.703125,358.265625 L300.703125,369.515625 Z M306.640625,369.515625 L302.5,369.515625 L302.5,358.265625 L306.640625,358.265625 L306.640625,369.515625 Z M312.65625,369.515625 L308.4375,369.515625 L308.4375,358.265625 L312.65625,358.265625 L312.65625,369.515625 Z M335.9375,339.984375 C339.270833,339.880208 342.291667,339.658854 345,339.320312 C347.65625,339.007812 350.572917,338.5 353.75,337.796875 L353.75,337.796875 L354.726562,338.03125 L354.726562,338.03125 L355.15625,338.03125 C355.46875,338.03125 355.625,337.927083 355.625,337.71875 C355.625,337.588542 355.533854,337.432292 355.351562,337.25 L355.351562,337.25 L353.515625,335.257812 C351.796875,336.169271 349.518229,336.9375 346.679688,337.5625 C344.205729,338.109375 340.598958,338.643229 335.859375,339.164062 L335.859375,339.164062 L335.9375,339.984375 Z M324.453125,365.53125 C325.078125,365.53125 325.390625,365.296875 325.390625,364.828125 L325.390625,364.828125 L325.390625,363.890625 L330.742188,363.890625 L330.742188,364.90625 C330.742188,365.244792 330.976562,365.414062 331.445312,365.414062 C332.356771,365.414062 332.8125,365.114583 332.8125,364.515625 L332.8125,364.515625 L332.8125,364.28125 C332.65625,362.041667 332.578125,360.583333 332.578125,359.90625 L332.578125,341.664062 C333.59375,341.221354 334.101562,340.817708 334.101562,340.453125 C334.127604,340.192708 333.854167,339.880208 333.28125,339.515625 L333.28125,339.515625 L331.679688,338.5 L330.351562,339.984375 L325.585938,339.984375 L323.28125,338.1875 C323.4375,339.4375 323.515625,340.596354 323.515625,341.664062 L323.515625,341.664062 L323.515625,360.21875 L323.4375,361.703125 L323.359375,363.265625 L323.28125,364.4375 C323.229167,365.166667 323.619792,365.53125 324.453125,365.53125 Z M349.921875,346.117188 C351.536458,345.075521 353.020833,343.799479 354.375,342.289062 L354.375,342.289062 L355.507812,342.289062 C355.924479,342.289062 356.132812,342.145833 356.132812,341.859375 C356.132812,341.651042 355.976562,341.442708 355.664062,341.234375 L355.664062,341.234375 L353.28125,339.75 C352.1875,341.885417 350.885417,343.838542 349.375,345.609375 L349.375,345.609375 L349.921875,346.117188 Z M345.390625,345.882812 C345.651042,345.856771 345.872396,345.765625 346.054688,345.609375 C346.315104,345.348958 346.445312,345.036458 346.445312,344.671875 C346.445312,343.526042 345.208333,342.119792 342.734375,340.453125 L342.734375,340.453125 L342.34375,340.921875 C343.463542,342.223958 344.179688,343.552083 344.492188,344.90625 C344.622396,345.583333 344.921875,345.908854 345.390625,345.882812 Z M330.742188,351.351562 L325.390625,351.351562 L325.390625,341.078125 L330.742188,341.078125 L330.742188,351.351562 Z M338.867188,346.078125 C339.440104,346.078125 339.726562,345.713542 339.726562,344.984375 C339.700521,343.942708 338.515625,342.640625 336.171875,341.078125 L336.171875,341.078125 L335.703125,341.546875 C336.822917,342.5625 337.539062,343.617188 337.851562,344.710938 C338.111979,345.622396 338.450521,346.078125 338.867188,346.078125 Z M333.476562,372.328125 C339.283854,371.260417 343.828125,369.554688 347.109375,367.210938 C349.557292,369.138021 352.630208,370.791667 356.328125,372.171875 C356.848958,371.182292 357.747396,370.6875 359.023438,370.6875 L359.023438,370.6875 L359.023438,370.0625 C354.830729,369.333333 351.328125,368.005208 348.515625,366.078125 C350.234375,364.619792 351.861979,362.40625 353.398438,359.4375 C354.414062,358.96875 354.921875,358.552083 354.921875,358.1875 C354.921875,357.875 354.661458,357.5625 354.140625,357.25 L354.140625,357.25 L352.5,356.195312 L351.171875,357.679688 L341.445312,357.679688 C341.757812,356.716146 342.070312,355.505208 342.382812,354.046875 L342.382812,354.046875 L357.578125,354.046875 C357.942708,354.046875 358.125,353.890625 358.125,353.578125 C358.125,353.421875 358.020833,353.239583 357.8125,353.03125 L357.8125,353.03125 L355.46875,350.960938 L353.515625,352.953125 L342.578125,352.953125 C342.8125,351.520833 343.007812,349.971354 343.164062,348.304688 L343.164062,348.304688 L356.523438,348.304688 C356.861979,348.304688 357.03125,348.135417 357.03125,347.796875 C357.03125,347.666667 356.927083,347.497396 356.71875,347.289062 L356.71875,347.289062 L354.375,345.21875 L352.421875,347.171875 L338.59375,347.171875 C336.822917,347.171875 335.3125,347.028646 334.0625,346.742188 L334.0625,346.742188 L334.84375,348.460938 C335.833333,348.356771 337.083333,348.304688 338.59375,348.304688 L338.59375,348.304688 L341.25,348.304688 C341.015625,350.752604 340.846354,352.302083 340.742188,352.953125 L340.742188,352.953125 L337.8125,352.953125 C336.067708,352.953125 334.557292,352.783854 333.28125,352.445312 L333.28125,352.445312 L334.0625,354.203125 C335.15625,354.098958 336.40625,354.046875 337.8125,354.046875 L337.8125,354.046875 L340.546875,354.046875 C339.973958,357.015625 339.0625,359.567708 337.8125,361.703125 C335.9375,364.984375 333.125,367.770833 329.375,370.0625 L329.375,370.0625 L329.6875,370.765625 C332.864583,369.151042 335.442708,367.197917 337.421875,364.90625 C338.828125,363.1875 339.817708,361.677083 340.390625,360.375 C340.598958,359.854167 340.833333,359.333333 341.09375,358.8125 L341.09375,358.8125 L341.5625,358.8125 C342.65625,361.572917 344.114583,363.994792 345.9375,366.078125 C344.375,367.197917 342.864583,368.096354 341.40625,368.773438 C339.375,369.710938 336.666667,370.622396 333.28125,371.507812 L333.28125,371.507812 L333.476562,372.328125 Z M330.742188,362.796875 L325.390625,362.796875 L325.390625,352.445312 L330.742188,352.445312 L330.742188,362.796875 Z M347.148438,365.0625 C345.507812,363.65625 343.984375,361.572917 342.578125,358.8125 L342.578125,358.8125 L351.328125,358.8125 C350.234375,361.3125 348.841146,363.395833 347.148438,365.0625 Z M389.414062,372.132812 C391.471354,371.768229 392.955729,371.052083 393.867188,369.984375 C394.830729,368.838542 395.559896,366.598958 396.054688,363.265625 C396.679688,358.838542 397.005208,352.71875 397.03125,344.90625 C398.072917,344.489583 398.59375,344.098958 398.59375,343.734375 C398.59375,343.473958 398.333333,343.161458 397.8125,342.796875 L397.8125,342.796875 L396.171875,341.703125 L394.84375,343.1875 L384.0625,343.1875 C384.947917,340.583333 385.520833,338.8125 385.78125,337.875 L385.78125,337.875 L386.5625,337.71875 C387.239583,337.614583 387.578125,337.380208 387.578125,337.015625 C387.578125,336.703125 387.291667,336.46875 386.71875,336.3125 L386.71875,336.3125 L384.0625,335.453125 C383.59375,338.682292 382.721354,341.963542 381.445312,345.296875 C380.039062,349.020833 378.841146,351.572917 377.851562,352.953125 L377.851562,352.953125 L378.59375,353.421875 C380.78125,350.427083 382.473958,347.393229 383.671875,344.320312 L383.671875,344.320312 L395.078125,344.320312 C395.052083,346.169271 395.013021,348.630208 394.960938,351.703125 C394.856771,357.901042 394.388021,362.640625 393.554688,365.921875 C392.955729,368.265625 391.992188,369.424479 390.664062,369.398438 C389.804688,369.398438 387.473958,368.799479 383.671875,367.601562 L383.671875,367.601562 L383.4375,368.460938 C384.921875,368.929688 385.963542,369.28125 386.5625,369.515625 C387.760417,369.984375 388.515625,370.348958 388.828125,370.609375 C389.166667,370.921875 389.361979,371.429688 389.414062,372.132812 Z M364.296875,368.65625 C365.026042,368.65625 365.390625,368.317708 365.390625,367.640625 L365.390625,367.640625 L365.390625,366.15625 L375,366.15625 L375,367.71875 C375,368.265625 375.364583,368.539062 376.09375,368.539062 C376.822917,368.565104 377.1875,368.265625 377.1875,367.640625 C377.1875,367.432292 377.161458,367.106771 377.109375,366.664062 C376.953125,365.075521 376.875,363.65625 376.875,362.40625 L376.875,362.40625 L376.875,344.320312 C377.864583,343.877604 378.359375,343.473958 378.359375,343.109375 C378.359375,342.848958 378.098958,342.536458 377.578125,342.171875 L377.578125,342.171875 L375.9375,341.15625 L374.609375,342.640625 L368.4375,342.640625 C369.322917,341.494792 370.364583,339.90625 371.5625,337.875 L371.5625,337.875 L372.34375,337.757812 C372.916667,337.679688 373.203125,337.484375 373.203125,337.171875 C373.203125,336.885417 372.890625,336.638021 372.265625,336.429688 L372.265625,336.429688 L370.078125,335.648438 C369.401042,338.382812 368.502604,340.713542 367.382812,342.640625 L367.382812,342.640625 L365.546875,342.640625 L363.320312,340.921875 C363.476562,341.598958 363.567708,342.458333 363.59375,343.5 L363.59375,343.5 L363.59375,362.71875 C363.59375,364.229167 363.515625,365.596354 363.359375,366.820312 C363.307292,367.236979 363.28125,367.549479 363.28125,367.757812 C363.28125,368.356771 363.619792,368.65625 364.296875,368.65625 Z M375,353.34375 L365.390625,353.34375 L365.390625,343.734375 L375,343.734375 L375,353.34375 Z M388.671875,360.53125 C389.244792,360.53125 389.544271,360.140625 389.570312,359.359375 C389.544271,358.369792 388.958333,357.25 387.8125,356 C386.458333,354.541667 384.713542,353.239583 382.578125,352.09375 L382.578125,352.09375 L382.070312,352.757812 C384.414062,354.554688 386.09375,356.520833 387.109375,358.65625 C387.5,359.489583 387.773438,359.984375 387.929688,360.140625 C388.164062,360.401042 388.411458,360.53125 388.671875,360.53125 Z M375,365.0625 L365.390625,365.0625 L365.390625,354.476562 L375,354.476562 L375,365.0625 Z M408.125,372.5625 C408.854167,372.5625 409.205729,372.25 409.179688,371.625 C409.205729,371.416667 409.192708,371.104167 409.140625,370.6875 C408.984375,369.177083 408.90625,367.796875 408.90625,366.546875 L408.90625,366.546875 L408.90625,344.242188 C410.104167,345.231771 410.859375,346.351562 411.171875,347.601562 C411.380208,348.382812 411.549479,348.864583 411.679688,349.046875 C411.835938,349.255208 412.070312,349.359375 412.382812,349.359375 C413.164062,349.359375 413.554688,348.890625 413.554688,347.953125 C413.528646,346.963542 412.942708,345.973958 411.796875,344.984375 C411.380208,344.619792 410.416667,343.981771 408.90625,343.070312 L408.90625,343.070312 L408.90625,338.03125 L409.726562,337.796875 C410.377604,337.640625 410.703125,337.380208 410.703125,337.015625 C410.703125,336.703125 410.143229,336.403646 409.023438,336.117188 L409.023438,336.117188 L406.875,335.648438 C406.979167,336.247396 407.03125,337.289062 407.03125,338.773438 L407.03125,338.773438 L407.03125,371.703125 C407.03125,372.276042 407.395833,372.5625 408.125,372.5625 Z M425.117188,372.601562 C425.820312,372.575521 426.171875,372.276042 426.171875,371.703125 C426.171875,371.494792 426.145833,371.15625 426.09375,370.6875 C425.989583,369.385417 425.9375,368.03125 425.9375,366.625 L425.9375,366.625 L425.9375,348.695312 C430.520833,351.742188 433.75,354.723958 435.625,357.640625 C436.458333,358.942708 437.135417,359.59375 437.65625,359.59375 C438.385417,359.59375 438.75,359.151042 438.75,358.265625 C438.75,357.145833 437.5,355.53125 435,353.421875 C433.28125,352.015625 430.260417,350.075521 425.9375,347.601562 L425.9375,347.601562 L425.9375,344.828125 C426.666667,343.317708 427.278646,341.768229 427.773438,340.179688 L427.773438,340.179688 L437.929688,340.179688 C438.268229,340.179688 438.4375,340.010417 438.4375,339.671875 C438.4375,339.541667 438.333333,339.372396 438.125,339.164062 L438.125,339.164062 L435.78125,337.09375 L433.867188,339.046875 L417.1875,339.046875 C416.354167,339.046875 415.130208,338.942708 413.515625,338.734375 L413.515625,338.734375 L414.296875,340.375 C415.364583,340.21875 416.328125,340.153646 417.1875,340.179688 L417.1875,340.179688 L425.46875,340.179688 C424.609375,342.679688 423.828125,344.606771 423.125,345.960938 C422.03125,348.018229 420.729167,350.0625 419.21875,352.09375 C417.083333,354.932292 414.570312,357.458333 411.679688,359.671875 L411.679688,359.671875 L412.1875,360.335938 C417.135417,357.210938 421.09375,353.174479 424.0625,348.226562 L424.0625,348.226562 L424.0625,371.898438 C424.0625,372.367188 424.414062,372.601562 425.117188,372.601562 Z M401.914062,352.40625 C403.007812,352.40625 403.841146,351.46875 404.414062,349.59375 C404.804688,348.34375 405,346.390625 405,343.734375 L405,343.734375 L405,342.71875 L404.140625,342.640625 C403.90625,345.973958 403.229167,348.291667 402.109375,349.59375 C401.380208,350.427083 401.015625,351.026042 401.015625,351.390625 C401.015625,352.067708 401.315104,352.40625 401.914062,352.40625 Z M446.640625,372.015625 C448.645833,371.598958 449.648438,370.479167 449.648438,368.65625 L449.648438,368.65625 L449.648438,356.46875 C451.992188,355.583333 453.828125,354.723958 455.15625,353.890625 L455.15625,353.890625 L454.921875,353.109375 C452.994792,353.838542 451.236979,354.4375 449.648438,354.90625 L449.648438,354.90625 L449.648438,345.921875 L455.351562,345.921875 C455.690104,345.921875 455.859375,345.739583 455.859375,345.375 C455.859375,345.270833 455.755208,345.114583 455.546875,344.90625 L455.546875,344.90625 L453.203125,342.796875 L451.25,344.789062 L449.648438,344.789062 L449.648438,337.875 L450.46875,337.640625 C451.09375,337.484375 451.40625,337.223958 451.40625,336.859375 C451.40625,336.546875 450.859375,336.247396 449.765625,335.960938 L449.765625,335.960938 L447.65625,335.492188 C447.760417,336.065104 447.8125,337.106771 447.8125,338.617188 L447.8125,338.617188 L447.8125,344.789062 L446.484375,344.789062 C444.765625,344.815104 443.255208,344.671875 441.953125,344.359375 L441.953125,344.359375 L442.734375,346.078125 C443.671875,345.973958 444.921875,345.921875 446.484375,345.921875 L446.484375,345.921875 L447.8125,345.921875 L447.8125,355.453125 C445.572917,355.973958 443.489583,356.390625 441.5625,356.703125 L441.5625,356.703125 L442.96875,359.28125 C443.177083,359.697917 443.346354,359.90625 443.476562,359.90625 C443.710938,359.90625 443.880208,359.697917 443.984375,359.28125 L443.984375,359.28125 L444.21875,358.421875 C444.583333,358.265625 445.078125,358.096354 445.703125,357.914062 C446.692708,357.575521 447.395833,357.328125 447.8125,357.171875 L447.8125,357.171875 L447.8125,367.875 C447.8125,368.604167 447.434896,368.96875 446.679688,368.96875 C446.236979,368.96875 444.921875,368.786458 442.734375,368.421875 L442.734375,368.421875 L442.578125,369.359375 C444.244792,369.671875 445.286458,369.958333 445.703125,370.21875 C446.171875,370.53125 446.484375,371.130208 446.640625,372.015625 Z M469.453125,364.476562 C472.265625,364.164062 473.997396,362.523438 474.648438,359.554688 C475.117188,357.210938 475.429688,353.721354 475.585938,349.085938 C475.664062,346.664062 475.729167,344.880208 475.78125,343.734375 C476.875,343.213542 477.421875,342.809896 477.421875,342.523438 C477.421875,342.236979 477.083333,341.885417 476.40625,341.46875 L476.40625,341.46875 L474.882812,340.53125 L473.515625,342.015625 L460.546875,342.015625 C460.963542,341.130208 461.484375,339.828125 462.109375,338.109375 L462.109375,338.109375 L463.320312,337.953125 C463.867188,337.901042 464.140625,337.71875 464.140625,337.40625 C464.140625,337.223958 463.932292,337.041667 463.515625,336.859375 L463.515625,336.859375 L460.546875,335.53125 C460.182292,337.666667 459.375,340.075521 458.125,342.757812 C456.927083,345.257812 455.286458,347.809896 453.203125,350.414062 L453.203125,350.414062 L453.632812,350.921875 C456.367188,348.317708 458.463542,345.739583 459.921875,343.1875 L459.921875,343.1875 L473.90625,343.1875 C473.645833,350.270833 473.359375,354.958333 473.046875,357.25 C472.578125,360.375 471.510417,361.9375 469.84375,361.9375 C469.21875,361.9375 468.4375,361.820312 467.5,361.585938 C466.354167,361.299479 465.572917,361.117188 465.15625,361.039062 L465.15625,361.039062 L465,361.78125 C466.770833,362.25 467.825521,362.5625 468.164062,362.71875 C468.971354,363.03125 469.401042,363.617188 469.453125,364.476562 Z M469.589124,371.468286 C473.359809,371.459615 475.710309,371.329562 476.640625,371.078125 C477.734375,370.869792 478.28125,370.505208 478.28125,369.984375 C478.28125,369.776042 478.177083,369.580729 477.96875,369.398438 C477.395833,368.955729 477.083333,368.630208 477.03125,368.421875 C476.927083,368.109375 476.888021,367.692708 476.914062,367.171875 L476.914062,367.171875 L477.03125,362.796875 L476.25,362.71875 C475.885417,365.791667 475.651042,367.536458 475.546875,367.953125 C475.338542,368.734375 474.960938,369.203125 474.414062,369.359375 C473.658854,369.567708 471.328125,369.671875 467.421875,369.671875 L467.02198,369.671341 C462.945315,369.660304 460.591634,369.47819 459.960938,369.125 C459.596354,368.916667 459.414062,368.395833 459.414062,367.5625 L459.414062,367.5625 L459.414062,358.734375 L469.726562,358.734375 C469.960938,358.734375 470.078125,358.604167 470.078125,358.34375 C470.078125,358.03125 469.934896,357.796875 469.648438,357.640625 L469.648438,357.640625 L468.632812,357.015625 L468.632812,350.53125 C469.648438,350.114583 470.15625,349.723958 470.15625,349.359375 C470.15625,349.046875 469.895833,348.721354 469.375,348.382812 L469.375,348.382812 L467.734375,347.328125 L466.40625,348.8125 L459.53125,348.8125 L457.382812,347.171875 L457.539062,350.453125 L457.539062,368.65625 C457.539062,370.166667 458.580729,371.052083 460.664062,371.3125 C461.471354,371.410354 464.025183,371.462246 468.32555,371.468286 L469.589124,371.468286 Z M466.796875,357.640625 L459.414062,357.640625 L459.414062,349.867188 L466.796875,349.867188 L466.796875,357.640625 Z" id="全字库正宋"></path>
        </g>
    </g>
</svg>