<svg width="331" height="114" viewBox="0 0 331 114" fill="none" xmlns="http://www.w3.org/2000/svg">
<path d="M12.7969 18.6875C12.7656 17.375 12.75 16.125 12.75 14.9375C12.7188 13.75 12.5625 12.9062 12.2812 12.4062L11.8594 11.5625L10.3594 11.9844L7.82812 12.5469C7.42188 12.6406 7.125 12.6875 6.9375 12.6875H6.375C6.0625 12.6875 5.90625 12.5938 5.90625 12.4062C5.90625 12.1875 6 12.0312 6.1875 11.9375L6.84375 11.7031L8.10938 11.1875C8.76562 10.9375 9.6875 10.4688 10.875 9.78125C12.0312 9.0625 12.9375 8.46875 13.5938 8C14.2188 7.5625 14.8125 7.0625 15.375 6.5C15.9375 5.96875 16.3281 5.46875 16.5469 5C16.7656 4.5 16.9531 4.20312 17.1094 4.10938C17.2656 4.01562 17.4531 3.96875 17.6719 3.96875C17.8281 4.03125 18.0781 4.17188 18.4219 4.39062C18.7656 4.64062 19.0312 4.84375 19.2188 5C19.4062 5.15625 19.6719 5.40625 20.0156 5.75C20.3594 6.125 20.5781 6.48438 20.6719 6.82812C20.7344 7.04688 20.7656 7.21875 20.7656 7.34375C20.7656 7.40625 20.75 7.46875 20.7188 7.53125C20.5938 7.71875 20.2656 7.84375 19.7344 7.90625C19.2031 8 18.8594 8.07812 18.7031 8.14062L17.8125 8.65625C17.375 8.90625 16.5781 9.3125 15.4219 9.875L13.5938 10.7188C14.0938 10.9062 14.4375 11.0469 14.625 11.1406C14.8125 11.2344 15.1406 11.4375 15.6094 11.75C16.0781 12.0625 16.3125 12.3438 16.3125 12.5938C16.3438 12.6875 16.3594 12.7812 16.3594 12.875C16.3594 12.9688 16.3438 13.0781 16.3125 13.2031L16.0312 13.9062C15.9062 14.2812 15.8438 14.6094 15.8438 14.8906V15.5469L15.6562 18.4531L25.6875 17.6094L25.875 6.96875C25.875 6.5625 25.8438 6 25.7812 5.28125C25.7188 4.53125 25.6562 4 25.5938 3.6875C25.5625 3.40625 25.5156 3.10938 25.4531 2.79688C25.3594 2.48438 25.2656 2.20312 25.1719 1.95312C25.0469 1.70312 24.9688 1.5 24.9375 1.34375C24.9375 1.21875 25 1.09375 25.125 0.96875C25.2188 0.875 25.4375 0.828125 25.7812 0.828125C26.2812 0.859375 26.6562 0.90625 26.9062 0.96875C27.1562 1.03125 27.5938 1.1875 28.2188 1.4375C28.8125 1.6875 29.2344 1.9375 29.4844 2.1875C29.7031 2.40625 29.8281 2.59375 29.8594 2.75C29.8594 2.90625 29.7812 3.14062 29.625 3.45312C29.5 3.67188 29.375 3.9375 29.25 4.25C29.1875 4.5625 29.125 4.85938 29.0625 5.14062C29.0625 5.42188 29.0469 5.90625 29.0156 6.59375L28.9219 8.60938L28.7812 17.4688L32.7656 17C33.4844 16.9062 34.2812 16.75 35.1562 16.5312C36.0312 16.3438 36.6562 16.25 37.0312 16.25C37.4062 16.2812 37.8281 16.375 38.2969 16.5312C38.7656 16.7188 39.2031 16.9062 39.6094 17.0938C40.0156 17.2812 40.4062 17.5 40.7812 17.75C41.1562 18 41.4375 18.2344 41.625 18.4531C41.75 18.6406 41.8125 18.8281 41.8125 19.0156V19.1094C41.8125 19.3281 41.5312 19.5 40.9688 19.625C40.625 19.6875 40.2656 19.7188 39.8906 19.7188C39.6094 19.7188 39.3281 19.7031 39.0469 19.6719C38.2969 19.5781 37.2188 19.5312 35.8125 19.5312C35.0938 19.5 34.5 19.4844 34.0312 19.4844C33.5625 19.4844 33.2188 19.5 33 19.5312L28.6406 19.6719L28.3125 36.3125L27.8438 40.25C27.7188 40.9688 27.6094 41.4688 27.5156 41.75L27.1875 42.5C27.0625 42.75 26.8906 42.8906 26.6719 42.9219H26.5781C26.4219 42.9219 26.3125 42.8438 26.25 42.6875L25.9688 41.9375C25.7812 41.5 25.6562 40.8125 25.5938 39.875C25.5625 39.2188 25.5469 38.5781 25.5469 37.9531V37.0625L25.6875 19.7188L15.6094 20.375C15.5156 21.25 15.4219 22.25 15.3281 23.375C15.2344 24.5 15.0781 25.5938 14.8594 26.6562C14.6406 27.7188 14.2656 28.8906 13.7344 30.1719C13.2031 31.4531 12.3906 32.6719 11.2969 33.8281C10.2031 34.9844 9.14062 35.875 8.10938 36.5C7.07812 37.125 6.28125 37.5156 5.71875 37.6719L5.01562 37.9062H4.96875C4.875 37.9062 4.78125 37.8594 4.6875 37.7656C4.65625 37.7344 4.64062 37.7031 4.64062 37.6719C4.64062 37.6094 4.70312 37.5156 4.82812 37.3906L5.625 36.7344L6.84375 35.75C7.59375 35.0625 8.45312 34.0156 9.42188 32.6094C10.3906 31.2031 11.0469 30.0469 11.3906 29.1406C11.7344 28.2031 12.0312 27.0469 12.2812 25.6719C12.5312 24.2969 12.6719 23.2188 12.7031 22.4375L12.75 20.7031L9.51562 21.0781L6.84375 21.6875L5.4375 21.9219C4.84375 22.0469 4.46875 22.1094 4.3125 22.1094H4.125C3.8125 22.1094 3.46875 22.0469 3.09375 21.9219C2.65625 21.7656 2.21875 21.5938 1.78125 21.4062C1.34375 21.2188 0.984375 21.0156 0.703125 20.7969C0.421875 20.5781 0.265625 20.3438 0.234375 20.0938V20.0469C0.234375 19.8594 0.375 19.6875 0.65625 19.5312L1.54688 19.5781H3.51562C3.92188 19.5781 4.42188 19.5625 5.01562 19.5312L9.75 18.9688L12.7969 18.6875ZM60.4688 29.5625L60.4219 24.4531C60.3906 24.4219 60.375 24.0312 60.375 23.2812C60.3125 22.5312 60.2812 22.0781 60.2812 21.9219C60.2188 21.7656 60.125 21.4219 60 20.8906L59.8125 20.2812C59.4688 20.3438 58.75 20.5 57.6562 20.75C56.5312 20.9688 55.6719 21.1562 55.0781 21.3125C54.4844 21.4375 53.9219 21.5938 53.3906 21.7812C52.8281 21.9688 52.2969 22.1562 51.7969 22.3438C51.3281 22.5312 50.9688 22.625 50.7188 22.625C50.625 22.6562 50.5312 22.6719 50.4375 22.6719C50.25 22.6719 50.0312 22.625 49.7812 22.5312C49.4375 22.4062 49.125 22.2812 48.8438 22.1562C48.5938 21.9688 48.2969 21.7656 47.9531 21.5469C47.6406 21.3594 47.4844 21.1406 47.4844 20.8906V20.8438C47.5156 20.625 47.6875 20.5 48 20.4688L48.75 20.3281L50.7188 20.0938C51.2812 20.0312 52.2031 19.875 53.4844 19.625L57.1875 19.0156C58.3125 18.7969 58.9688 18.6875 59.1562 18.6875L60.4688 18.4062L60.4219 13.7188C59.8281 13.8125 59.375 13.8906 59.0625 13.9531L57.8906 14.1875C57.4531 14.2812 57.1094 14.3281 56.8594 14.3281H56.4844C56.2656 14.3281 56.0781 14.3125 55.9219 14.2812C55.6406 14.2188 55.3438 14.125 55.0312 14C54.7188 13.875 54.4688 13.7344 54.2812 13.5781C54.0938 13.4531 54 13.3281 54 13.2031C54 13.1094 54.0312 13.0312 54.0938 12.9688C54.1562 12.9062 54.3438 12.8438 54.6562 12.7812H55.2188C55.3438 12.7812 55.8594 12.6719 56.7656 12.4531L58.8281 12.125L59.625 11.9375L60.375 11.7969L60.3281 7.48438C60.2969 7.39062 60.2812 6.98438 60.2812 6.26562C60.2188 5.54688 60.1719 5.0625 60.1406 4.8125C60.1094 4.53125 60 4.20312 59.8125 3.82812C59.6875 3.54688 59.625 3.3125 59.625 3.125C59.625 3.0625 59.6406 3.01562 59.6719 2.98438C59.7656 2.82812 59.9375 2.71875 60.1875 2.65625C60.3125 2.65625 60.5469 2.67188 60.8906 2.70312L61.5 2.84375C61.75 2.90625 62.0938 3.03125 62.5312 3.21875C62.9375 3.40625 63.25 3.57812 63.4688 3.73438C63.6875 3.89062 63.8125 4.0625 63.8438 4.25C63.8438 4.4375 63.7812 4.71875 63.6562 5.09375C63.5625 5.34375 63.4844 5.625 63.4219 5.9375C63.3594 6.25 63.2969 6.71875 63.2344 7.34375C63.1719 7.96875 63.125 8.78125 63.0938 9.78125L63.0469 11.0938C63.9531 10.9062 64.6406 10.7031 65.1094 10.4844C65.5469 10.2656 65.8438 10.1562 66 10.1562C66.125 10.125 66.25 10.1094 66.375 10.1094C66.5 10.1094 66.625 10.125 66.75 10.1562C67.0312 10.2188 67.4062 10.3438 67.875 10.5312C68.3125 10.6562 68.6094 10.8125 68.7656 11C68.8906 11.1562 68.9531 11.2969 68.9531 11.4219V11.5156C68.9219 11.6719 68.7812 11.7812 68.5312 11.8438L67.6875 12.125C67.5 12.1875 67.0625 12.2812 66.375 12.4062L64.3125 12.8281L62.9531 13.1562L62.7188 17.9375C63.1875 17.8438 63.5312 17.7656 63.75 17.7031L64.5938 17.5625L66.1875 17.1406C66.5312 17.0781 66.9062 17.0312 67.3125 17C67.6875 17 68.0312 17.0312 68.3438 17.0938C68.6875 17.125 69.0156 17.1875 69.3281 17.2812C69.6094 17.3438 69.875 17.4688 70.125 17.6562C70.375 17.8438 70.5 18.0469 70.5 18.2656V18.3125C70.5 18.5 70.375 18.5938 70.125 18.5938L68.5312 18.875L65.625 19.25C64.9062 19.375 64.0781 19.5 63.1406 19.625L61.6406 19.9062C61.9844 20.0312 62.2656 20.1562 62.4844 20.2812C62.7031 20.4062 62.9062 20.5625 63.0938 20.75C63.3125 20.9375 63.4375 21.1094 63.4688 21.2656C63.4688 21.4531 63.4219 21.6875 63.3281 21.9688C63.2344 22.2188 63.1406 22.5938 63.0469 23.0938C62.9531 23.5938 62.9062 23.9531 62.9062 24.1719L62.8594 24.7812L63.7031 24.5469L64.7812 24.2656C65.1562 24.1406 65.5625 23.9844 66 23.7969C66.4688 23.6406 66.8125 23.5625 67.0312 23.5625C67.2188 23.5625 67.5156 23.6406 67.9219 23.7969C68.3281 23.9531 68.6406 24.125 68.8594 24.3125C69.0469 24.4688 69.1406 24.625 69.1406 24.7812V24.875C69.1094 25.0625 68.9375 25.2188 68.625 25.3438L68.0156 25.5312C67.8594 25.5938 67.4062 25.6719 66.6562 25.7656L65.0625 26.0938C64.5938 26.1875 64.2188 26.2344 63.9375 26.2344C63.7812 26.2344 63.6562 26.2188 63.5625 26.1875L62.8125 26.0938L62.4375 30.5469C62.7812 30.7656 63.1094 30.9531 63.4219 31.1094C63.7656 31.2656 64.8594 31.8125 66.7031 32.75C68.5469 33.625 70.2188 34.3594 71.7188 34.9531C73.2188 35.5469 75.0781 36.125 77.2969 36.6875C79.5156 37.25 81.9375 37.7031 84.5625 38.0469L89.1094 38.6094L90.1875 38.75C90.5 38.8125 90.6562 38.9531 90.6562 39.1719C90.6562 39.3906 90.5312 39.5312 90.2812 39.5938L89.3438 39.7812L85.9688 40.3906L82.0781 41.0469C80.7344 41.2656 79.8438 41.375 79.4062 41.375C78.5938 41.375 77.6875 41.2188 76.6875 40.9062C75.6875 40.5938 74.0781 39.8125 71.8594 38.5625C69.6406 37.3125 67.75 36.1875 66.1875 35.1875L60.6562 31.5312L56.9062 29L56.1562 28.5312C55.875 28.9375 55.6406 29.2969 55.4531 29.6094L54.4688 31.1094C54.0312 31.8281 53.5312 32.4844 52.9688 33.0781C52.4062 33.6719 51.7812 34.2656 51.0938 34.8594C50.4062 35.4844 49.9375 35.875 49.6875 36.0312L48.4688 36.875C48.1562 37.0625 47.9375 37.1562 47.8125 37.1562C47.6875 37.125 47.5938 37.0625 47.5312 36.9688C47.5312 36.875 47.6719 36.6562 47.9531 36.3125L48.6562 35.4688L49.7812 34.2031C50.2812 33.6094 50.875 32.7656 51.5625 31.6719C52.2812 30.5781 52.7969 29.6719 53.1094 28.9531C53.3906 28.2344 53.625 27.5625 53.8125 26.9375C54 26.3125 54.1094 25.8438 54.1406 25.5312L54.2812 24.4062C54.3125 23.9062 54.3594 23.625 54.4219 23.5625C54.4844 23.5 54.625 23.4531 54.8438 23.4219C55.0625 23.4219 55.3594 23.5 55.7344 23.6562C56.0781 23.7812 56.375 23.9375 56.625 24.125C56.875 24.2812 57.1406 24.4688 57.4219 24.6875C57.7031 24.9062 57.9062 25.125 58.0312 25.3438C58.125 25.5 58.1719 25.6406 58.1719 25.7656C58.1719 25.7969 58.1562 25.8438 58.125 25.9062L57.6562 26.375L56.7656 27.5469L58.5469 28.5312C59.0469 28.7812 59.3906 28.9688 59.5781 29.0938L60.4688 29.5625ZM73.7812 20L73.5938 23.375V25.3906C73.6562 26.1719 73.8281 26.8125 74.1094 27.3125C74.3906 27.875 74.9688 28.3125 75.8438 28.625C76.6875 28.9375 77.7969 29.1094 79.1719 29.1406H79.5469C80.5781 29.1406 81.4531 29.0312 82.1719 28.8125C82.9531 28.5938 83.5625 28.2344 84 27.7344C84.4375 27.2031 84.75 26.6875 84.9375 26.1875C85.125 25.6875 85.25 25.0469 85.3125 24.2656L85.5 23.0938C85.5 22.8438 85.5781 22.7031 85.7344 22.6719H85.7812C85.9062 22.6719 86 22.8125 86.0625 23.0938L86.4844 24.5938C86.7656 25.7188 87.0625 26.5625 87.375 27.125C87.6875 27.6875 87.8438 28.0469 87.8438 28.2031C87.8125 28.4219 87.6875 28.7188 87.4688 29.0938C87.2812 29.4688 86.75 29.875 85.875 30.3125C85 30.8125 84.0312 31.1562 82.9688 31.3438C82.0312 31.5625 80.9688 31.6719 79.7812 31.6719H79.3125C77.9688 31.6719 76.8438 31.5469 75.9375 31.2969C75.0625 31.0156 74.3125 30.625 73.6875 30.125C73.0625 29.625 72.5781 29.0312 72.2344 28.3438C71.8906 27.6562 71.7031 26.8125 71.6719 25.8125C71.6406 25.1562 71.625 24.375 71.625 23.4688V22.0625L71.7188 13.9062C71.7188 13.4062 71.6719 12.9688 71.5781 12.5938C71.4531 12.2188 71.3281 11.875 71.2031 11.5625C71.0781 11.3438 71.0156 11.1719 71.0156 11.0469C71.0156 10.9844 71.0312 10.9375 71.0625 10.9062C71.0625 10.7812 71.1094 10.6719 71.2031 10.5781C71.2969 10.4844 71.4688 10.4375 71.7188 10.4375C71.9688 10.4375 72.5 10.5938 73.3125 10.9062L74.3906 11.375L76.7344 10.8125C77.2969 10.6875 77.8125 10.5625 78.2812 10.4375C78.7188 10.3125 79.1875 10.0781 79.6875 9.73438C80.2188 9.39062 80.5312 9.20312 80.625 9.17188C80.7188 9.14062 80.8125 9.125 80.9062 9.125C81.1562 9.125 81.4531 9.1875 81.7969 9.3125C82.2656 9.5 82.7188 9.70312 83.1562 9.92188C83.5938 10.1406 83.9219 10.3594 84.1406 10.5781C84.3594 10.7969 84.4688 11.0156 84.4688 11.2344C84.4062 11.3906 84.25 11.6094 84 11.8906C83.6875 12.1719 83.4531 12.5 83.2969 12.875C83.1094 13.25 82.9219 13.7188 82.7344 14.2812L81.5625 17.9375L82.0312 18.3125C82.1562 18.4375 82.2188 18.5938 82.2188 18.7812C82.1875 18.9062 82.0781 18.9844 81.8906 19.0156L81 19.1094C78.5 19.3906 77.1562 19.5312 76.9688 19.5312L73.7812 20ZM73.875 18.4062L79.5 17.4688L80.25 13.25C80.25 13 80.2812 12.7188 80.3438 12.4062C80.3438 12.0625 80.3125 11.8281 80.25 11.7031C80.1875 11.5469 80.0625 11.4688 79.875 11.4688H79.7344C79.6406 11.4688 79.5156 11.4844 79.3594 11.5156C79.1406 11.5781 78.6875 11.6719 78 11.7969C77.3125 11.9531 76.7188 12.125 76.2188 12.3125C75.7812 12.4688 75.5156 12.5469 75.4219 12.5469H75.375L74.8125 12.5938C74.7188 12.9688 74.6094 13.3594 74.4844 13.7656C74.3906 14.1719 74.3281 14.4688 74.2969 14.6562L73.875 18.4062ZM103.078 16.5312L106.453 15.8281C107.578 15.6094 108.438 15.4375 109.031 15.3125C109.625 15.2188 110.203 15.0938 110.766 14.9375C111.328 14.75 111.703 14.6562 111.891 14.6562C112.141 14.6875 112.469 14.7969 112.875 14.9844C113.281 15.2031 113.672 15.4375 114.047 15.6875C114.422 15.9375 114.75 16.2031 115.031 16.4844C115.344 16.7969 115.5 17.0312 115.5 17.1875V17.2812C115.5 17.4375 115.422 17.6719 115.266 17.9844C115.109 18.2656 114.984 18.6406 114.891 19.1094C114.828 19.6094 114.766 20.0312 114.703 20.375C114.672 20.75 114.641 21.3594 114.609 22.2031L114.141 30.7812C114.078 31.5625 113.859 32.4688 113.484 33.5C113.078 34.5625 112.734 35.3125 112.453 35.75C112.141 36.1875 111.859 36.5156 111.609 36.7344C111.359 36.8906 111.188 36.9688 111.094 36.9688H111.047C110.859 36.9688 110.688 36.8594 110.531 36.6406C110.375 36.4219 110.234 36.125 110.109 35.75L109.453 34.25L108.984 32.9844C107.922 33.0469 106.969 33.0938 106.125 33.125C105.281 33.1875 104.625 33.25 104.156 33.3125L102.328 33.5L102.047 34.8125C101.922 35.3438 101.734 35.6562 101.484 35.75H101.344C101.188 35.75 100.984 35.6562 100.734 35.4688C100.484 35.3125 100.281 35.0312 100.125 34.625C99.9688 34.2188 99.8906 33.875 99.8906 33.5938V33.2188C99.8906 32.9688 99.9062 32.6406 99.9375 32.2344C100 31.6406 100.047 31.0156 100.078 30.3594V28.5312L99.7969 21.8281C99.7656 21.7344 99.7031 21.1875 99.6094 20.1875L99.375 18.3594C99.3438 18.0781 99.25 17.75 99.0938 17.375C99 17.0625 98.9531 16.7969 98.9531 16.5781V16.4375C99.0156 16.1875 99.1875 16 99.4688 15.875C99.5312 15.8438 99.6094 15.8281 99.7031 15.8281C99.9219 15.8281 100.203 15.8906 100.547 16.0156L101.812 16.5312L102.75 14.9375L103.922 12.5469C104.484 11.3906 104.828 10.5938 104.953 10.1562L105.328 8.84375C105.453 8.34375 105.516 7.95312 105.516 7.67188V5.60938C105.516 5.39062 105.547 5.21875 105.609 5.09375C105.672 5 105.828 4.9375 106.078 4.90625C106.141 4.875 106.203 4.85938 106.266 4.85938C106.516 4.85938 106.797 4.9375 107.109 5.09375C107.547 5.28125 108.016 5.54688 108.516 5.89062C109.047 6.23438 109.422 6.54688 109.641 6.82812C109.828 7.10938 109.922 7.34375 109.922 7.53125C109.859 7.65625 109.703 7.85938 109.453 8.14062C109.203 8.39062 109.016 8.60938 108.891 8.79688C108.766 8.95312 108.516 9.34375 108.141 9.96875C107.828 10.5938 107.484 11.1719 107.109 11.7031C106.766 12.2344 106.297 12.8906 105.703 13.6719C105.109 14.4219 104.672 14.9219 104.391 15.1719L103.078 16.5312ZM102.375 31.6719C103.094 31.5781 103.641 31.5156 104.016 31.4844L105.703 31.25L107.344 31.0625C107.875 31 108.297 30.9688 108.609 30.9688C109.047 30.9688 109.438 31.0156 109.781 31.1094C110.125 31.2344 110.406 31.375 110.625 31.5312L111.141 31.9062L111.422 29.6562L111.516 26.9844L111.656 24.4062L110.484 24.7344C110.109 24.8281 109.453 24.9688 108.516 25.1562C107.516 25.3438 106.578 25.5312 105.703 25.7188C104.828 25.9062 104.203 26.0312 103.828 26.0938C103.578 26.125 103.391 26.1406 103.266 26.1406H103.125L102.469 26L102.375 31.6719ZM102.469 24.3594C103.188 24.2031 103.812 24.0781 104.344 23.9844C104.875 23.8906 105.422 23.7656 105.984 23.6094C106.547 23.4844 107.062 23.3438 107.531 23.1875L108.609 22.9062C108.734 22.875 108.891 22.8594 109.078 22.8594C109.234 22.8594 109.422 22.875 109.641 22.9062C110.172 23 110.641 23.125 111.047 23.2812L111.609 23.4688L111.656 19.4844C111.656 19.3281 111.641 18.9688 111.609 18.4062C111.547 17.8125 111.453 17.4375 111.328 17.2812C111.203 17.0938 111.047 16.9688 110.859 16.9062C110.641 16.8125 110.344 16.75 109.969 16.7188C109.5 16.7188 109.047 16.75 108.609 16.8125L106.266 17.1875C105.078 17.375 104.375 17.5312 104.156 17.6562L102.703 18.2188L102.469 24.3594ZM121.734 14.1406L125.016 13.5312L127.078 13.1562C127.734 13.0312 128.328 12.9062 128.859 12.7812C129.422 12.6562 129.906 12.5312 130.312 12.4062C130.719 12.2812 131.016 12.2031 131.203 12.1719C131.547 12.1719 131.953 12.2969 132.422 12.5469C132.859 12.7656 133.297 13.0312 133.734 13.3438C134.172 13.6562 134.516 13.9531 134.766 14.2344C135.047 14.5156 135.188 14.7188 135.188 14.8438V14.9375C135.188 15.0625 135.109 15.2656 134.953 15.5469C134.766 15.8281 134.641 16.0938 134.578 16.3438C134.453 16.625 134.328 17.0625 134.203 17.6562C134.078 18.2188 134 18.6562 133.969 18.9688L133.172 30.8281C133.078 32.1719 132.859 33.4844 132.516 34.7656C132.172 36.0469 131.688 37.2188 131.062 38.2812C130.438 39.375 129.797 40.0938 129.141 40.4375C128.516 40.75 128.078 40.9062 127.828 40.9062C127.641 40.9062 127.422 40.8594 127.172 40.7656C126.984 40.6719 126.766 40.4688 126.516 40.1562C126.328 39.9062 126 39.4219 125.531 38.7031C125.062 37.9844 124.641 37.3906 124.266 36.9219L123.234 35.8438L122.625 35.0938C122.469 34.9062 122.391 34.7656 122.391 34.6719C122.391 34.6406 122.406 34.6094 122.438 34.5781C122.469 34.5469 122.531 34.5312 122.625 34.5312C122.719 34.5312 122.859 34.5625 123.047 34.625L124.078 35L126.094 35.75C126.656 35.9062 127.109 35.9844 127.453 35.9844C127.641 35.9844 127.797 35.9688 127.922 35.9375C128.234 35.8438 128.547 35.5469 128.859 35.0469C129.203 34.5469 129.516 33.75 129.797 32.6562C130.047 31.5312 130.234 30.2344 130.359 28.7656L131.016 19.8125V16.9062C131.016 16.1562 130.953 15.6406 130.828 15.3594C130.672 15.0781 130.469 14.875 130.219 14.75C130 14.625 129.641 14.5469 129.141 14.5156C128.641 14.5156 128.016 14.5625 127.266 14.6562C126.516 14.7188 125.812 14.7969 125.156 14.8906C124.469 14.9844 123.859 15.1406 123.328 15.3594C122.828 15.5469 122.516 15.6406 122.391 15.6406H122.156C121.938 15.6406 121.734 15.6094 121.547 15.5469L121.125 15.3594C120.906 15.6094 120.75 15.7812 120.656 15.875L119.672 17.1406C119.391 17.4844 118.984 17.9062 118.453 18.4062C117.953 18.9062 117.547 19.2812 117.234 19.5312L116.391 20.2812C116.203 20.4062 116.062 20.4688 115.969 20.4688C115.875 20.4688 115.812 20.4375 115.781 20.375C115.75 20.3438 115.734 20.2969 115.734 20.2344C115.734 20.0781 115.812 19.875 115.969 19.625L116.484 18.8281C117.047 17.9844 117.547 17.2031 117.984 16.4844C118.453 15.7656 118.891 14.9688 119.297 14.0938C119.734 13.2188 120.188 12.1406 120.656 10.8594C121.125 9.57812 121.5 8.48438 121.781 7.57812C122.062 6.67188 122.281 5.875 122.438 5.1875C122.562 4.625 122.625 4.15625 122.625 3.78125V3.17188C122.625 2.92188 122.641 2.75 122.672 2.65625C122.734 2.46875 122.859 2.34375 123.047 2.28125C123.109 2.25 123.172 2.23438 123.234 2.23438C123.422 2.23438 123.703 2.34375 124.078 2.5625C124.766 3.03125 125.234 3.35938 125.484 3.54688C125.703 3.70312 125.891 3.90625 126.047 4.15625C126.234 4.40625 126.328 4.59375 126.328 4.71875C126.328 4.84375 126.219 5.04688 126 5.32812C125.781 5.57812 125.578 5.90625 125.391 6.3125C125.203 6.6875 125.047 7.01562 124.922 7.29688L124.031 9.40625C123.562 10.5312 123.172 11.4219 122.859 12.0781C122.547 12.7344 122.312 13.2031 122.156 13.4844L121.734 14.1406ZM119.109 24.2188L118.312 23.1406C118.094 22.7969 117.984 22.5469 117.984 22.3906V22.2969C118.078 22.1719 118.219 22.1094 118.406 22.1094C118.5 22.1094 118.609 22.125 118.734 22.1562L120.047 22.4375C120.641 22.5625 121.297 22.8125 122.016 23.1875C122.766 23.5312 123.297 23.9062 123.609 24.3125C123.891 24.7188 124.047 25.2031 124.078 25.7656C124.109 25.9531 124.125 26.1406 124.125 26.3281C124.125 26.6719 124.078 26.9688 123.984 27.2188C123.859 27.5938 123.672 27.8438 123.422 27.9688C123.172 28.0938 122.906 28.1562 122.625 28.1562C122.25 28.0938 121.859 27.8906 121.453 27.5469C121.078 27.1719 120.609 26.5625 120.047 25.7188C119.484 24.875 119.172 24.375 119.109 24.2188ZM144.375 24.1719C148.438 20.7969 151.328 18.2031 153.047 16.3906C154.641 14.7031 156.188 12.7344 157.688 10.4844C158.906 8.60938 159.953 6.40625 160.828 3.875C161.078 3.09375 161.203 2.39062 161.203 1.76562C161.203 1.57812 161.188 1.39062 161.156 1.20312C161.125 1.10938 161.109 1.03125 161.109 0.96875C161.109 0.71875 161.234 0.546875 161.484 0.453125H161.625C162 0.453125 162.516 0.546875 163.172 0.734375C163.828 0.921875 164.406 1.26562 164.906 1.76562C165.312 2.14062 165.562 2.53125 165.656 2.9375V3.03125C165.656 3.3125 165.547 3.54688 165.328 3.73438C165.109 3.95312 164.781 4.375 164.344 5C164.25 5.09375 164.156 5.23438 164.062 5.42188C164.719 5.98438 165.859 7.10938 167.484 8.79688C169.578 10.7656 171.75 12.5156 174 14.0469C175.719 15.2969 177.812 16.4531 180.281 17.5156C182.375 18.3594 184.359 19.2031 186.234 20.0469C186.641 20.2031 186.844 20.4062 186.844 20.6562V20.75C186.844 20.875 186.484 20.9688 185.766 21.0312C184.234 21.25 182.734 21.3594 181.266 21.3594C180.266 21.3594 179.281 21.3125 178.312 21.2188C177 21.125 175.953 20.6406 175.172 19.7656C171.203 15.7031 167.391 11.3906 163.734 6.82812C163.609 6.64062 163.5 6.5 163.406 6.40625C161.031 10.1562 159 13.0156 157.312 14.9844C155.312 17.3594 153.328 19.2812 151.359 20.75C149.859 21.875 148.281 22.875 146.625 23.75C145.594 24.3125 144.875 24.5938 144.469 24.5938C144.25 24.5938 144.141 24.5469 144.141 24.4531C144.141 24.3906 144.219 24.2969 144.375 24.1719ZM155.953 18.7344C155.547 18.4219 155.344 18.1719 155.344 17.9844C155.344 17.7969 155.625 17.7031 156.188 17.7031H156.469C158.25 17.6094 159.938 17.4062 161.531 17.0938C162.938 16.875 164.297 16.5469 165.609 16.1094C166.234 15.8906 166.844 15.7812 167.438 15.7812C167.844 15.7812 168.25 15.8281 168.656 15.9219C169.594 16.2031 170.203 16.5469 170.484 16.9531C170.516 17.0469 170.531 17.125 170.531 17.1875C170.531 17.4062 170.438 17.6094 170.25 17.7969C170.062 17.8906 169.391 18.0625 168.234 18.3125C165.703 18.6875 163.234 19.0938 160.828 19.5312C160.172 19.625 159.562 19.6719 159 19.6719C158.562 19.6719 158.156 19.6406 157.781 19.5781C157.031 19.4531 156.422 19.1719 155.953 18.7344ZM158.109 35.0469L170.672 32.8906C170.078 32.0469 169.484 31.2812 168.891 30.5938C168.672 30.3438 168.562 30.0625 168.562 29.75C168.562 29.6562 168.578 29.5469 168.609 29.4219C168.641 29.2344 168.734 29.1406 168.891 29.1406C168.953 29.1406 169.031 29.1562 169.125 29.1875C170 29.6875 171.25 30.5156 172.875 31.6719C174.281 32.6094 175.266 33.4375 175.828 34.1562C176.234 34.7188 176.5 35.375 176.625 36.125C176.656 36.4688 176.672 36.7812 176.672 37.0625C176.672 37.875 176.531 38.4375 176.25 38.75C176.062 38.9375 175.859 39.0312 175.641 39.0312C175.578 39.0312 175.5 39.0156 175.406 38.9844C175.031 38.8594 174.609 38.4375 174.141 37.7188C173.203 36.3125 172.312 35.0469 171.469 33.9219L168.938 34.625C165.719 35.375 162.688 36.2344 159.844 37.2031C157.75 37.8594 155.844 38.7031 154.125 39.7344C153.906 39.8594 153.703 39.9219 153.516 39.9219C153.391 39.9219 153.266 39.8906 153.141 39.8281C152.766 39.6406 152.391 39.1875 152.016 38.4688C151.734 37.8125 151.594 37.1719 151.594 36.5469C151.594 36.2344 152.094 35.875 153.094 35.4688C154.5 34.8125 155.594 34.0781 156.375 33.2656C157.625 31.9531 158.641 30.6094 159.422 29.2344C159.891 28.3906 160.125 27.6562 160.125 27.0312C160.125 26.9062 160.109 26.7812 160.078 26.6562C160.078 26.5625 160.062 26.4688 160.031 26.375C157.656 26.75 155.375 27.1875 153.188 27.6875C152.938 27.7188 152.688 27.7344 152.438 27.7344C152.094 27.7344 151.719 27.7031 151.312 27.6406C150.75 27.5156 150.219 27.1875 149.719 26.6562C149.469 26.4062 149.344 26.2031 149.344 26.0469C149.344 25.8594 149.547 25.75 149.953 25.7188C154.359 25.1562 158.469 24.5469 162.281 23.8906C166.5 23.2344 169.859 22.6562 172.359 22.1562C172.703 22.0938 173.016 22.0625 173.297 22.0625C173.672 22.0625 174.016 22.1094 174.328 22.2031C175.078 22.4219 175.922 22.9062 176.859 23.6562C177.297 23.9688 177.516 24.2656 177.516 24.5469C177.516 24.6719 177.484 24.7812 177.422 24.875C177.328 25.1562 176.922 25.3125 176.203 25.3438C175.609 25.3438 174.031 25.375 171.469 25.4375C168.562 25.4375 165.766 25.6094 163.078 25.9531C163.547 26.1406 163.891 26.3906 164.109 26.7031C164.203 26.8281 164.25 26.9688 164.25 27.125C164.25 27.375 164.094 27.625 163.781 27.875C162.719 28.7188 160.688 30.9219 157.688 34.4844C157.562 34.6094 157.5 34.7344 157.5 34.8594V34.9531C157.531 35.0156 157.656 35.0469 157.875 35.0469H158.109ZM201.797 26.5625L202.172 18.9688C202.172 18.4375 202.141 17.875 202.078 17.2812C202.016 16.7188 201.938 16.0625 201.844 15.3125C201.75 14.5312 201.609 13.9531 201.422 13.5781C201.234 13.2031 201.141 12.9531 201.141 12.8281C201.141 12.6719 201.203 12.5312 201.328 12.4062C201.422 12.3125 201.562 12.2656 201.75 12.2656C201.844 12.2656 201.953 12.2812 202.078 12.3125C202.484 12.3438 202.812 12.4062 203.062 12.5L204.328 13.0156L211.219 12.3125L211.172 9.64062C211.141 9.20312 211.078 8.75 210.984 8.28125C210.891 7.78125 210.75 7.28125 210.562 6.78125L210.328 6.03125L206.109 6.5C205.578 6.59375 205.031 6.64062 204.469 6.64062C204.188 6.64062 203.906 6.625 203.625 6.59375C202.781 6.53125 202.188 6.45312 201.844 6.35938C201.5 6.26562 201.172 6.14062 200.859 5.98438C200.547 5.82812 200.375 5.67188 200.344 5.51562V5.375C200.344 5.28125 200.359 5.1875 200.391 5.09375C200.453 5.03125 200.875 4.9375 201.656 4.8125L203.578 4.625L205.266 4.53125C206.391 4.46875 208.156 4.28125 210.562 3.96875C212.969 3.71875 214.422 3.53125 214.922 3.40625L217.453 2.98438L219.375 2.65625L221.578 2.14062C221.922 2.14062 222.328 2.21875 222.797 2.375C223.266 2.5625 223.75 2.78125 224.25 3.03125C224.719 3.28125 224.953 3.51562 224.953 3.73438V3.78125C224.891 3.9375 224.75 4.07812 224.531 4.20312C224.312 4.32812 224.016 4.40625 223.641 4.4375L221.766 4.71875L218.203 5.28125L213.516 5.79688C213.766 5.92188 214 6.03125 214.219 6.125C214.438 6.25 214.641 6.375 214.828 6.5C214.953 6.65625 215.047 6.8125 215.109 6.96875V7.0625C215.109 7.21875 215.031 7.5 214.875 7.90625C214.719 8.375 214.625 8.9375 214.594 9.59375L214.5 11.8438L217.828 11.3281C218.328 11.2344 218.781 11.125 219.188 11C219.562 10.875 219.953 10.7188 220.359 10.5312C220.734 10.3438 221.016 10.2344 221.203 10.2031H221.391C221.672 10.2031 222 10.25 222.375 10.3438C222.875 10.5312 223.391 10.75 223.922 11C224.422 11.25 224.828 11.5156 225.141 11.7969C225.453 12.0781 225.625 12.3438 225.656 12.5938V12.6406C225.656 12.8594 225.484 13.3438 225.141 14.0938C224.953 14.5 224.797 15.0938 224.672 15.875C224.547 16.625 224.484 17.3281 224.484 17.9844V24.2656L227.672 23.7969L229.266 23.5625C229.578 23.5625 229.969 23.6094 230.438 23.7031C230.938 23.7969 231.406 23.9375 231.844 24.125C232.281 24.3125 232.672 24.5312 233.016 24.7812C233.391 25.0312 233.656 25.2812 233.812 25.5312C233.969 25.7188 234.047 25.9062 234.047 26.0938C233.984 26.2812 233.859 26.4219 233.672 26.5156C233.484 26.6094 233.172 26.6719 232.734 26.7031L231.516 26.7969L224.484 26.6562L224.672 33.6406C224.703 34.1406 224.719 34.5938 224.719 35C224.719 35.8438 224.672 36.5312 224.578 37.0625C224.453 37.9062 224.266 38.6094 224.016 39.1719C223.766 39.7656 223.422 40.3438 222.984 40.9062C222.484 41.4688 222.141 41.7812 221.953 41.8438C221.797 41.9062 221.656 41.9375 221.531 41.9375C221.438 41.9375 221.359 41.9219 221.297 41.8906C221.078 41.8594 220.641 41.4844 219.984 40.7656C219.359 40.0469 218.828 39.4688 218.391 39.0312C217.953 38.5938 217.453 38.125 216.891 37.625L216.328 37.1562C216.172 37.0625 216.094 36.9531 216.094 36.8281C216.094 36.7969 216.109 36.75 216.141 36.6875C216.234 36.5312 216.359 36.4531 216.516 36.4531C216.578 36.4531 216.641 36.4688 216.703 36.5L217.406 36.7344L218.578 37.0625C219.172 37.25 219.625 37.3438 219.938 37.3438H220.078C220.391 37.2812 220.656 37.1562 220.875 36.9688C221.094 36.7812 221.266 36.4219 221.391 35.8906C221.484 35.3594 221.547 34.4375 221.578 33.125C221.641 31.8125 221.672 31.0625 221.672 30.875L221.766 26.7969L212.156 27.3125C209.906 27.5 207.984 27.6719 206.391 27.8281L203.953 28.0625L203.484 33.8281L203.297 35.8438C203.203 36.4688 203.062 37.0625 202.875 37.625C202.719 38.1875 202.516 38.6406 202.266 38.9844C202.016 39.3281 201.766 39.5156 201.516 39.5469H201.469C201.156 39.5469 200.828 39.2188 200.484 38.5625C200.266 38.1875 200.078 37.6562 199.922 36.9688C199.859 36.6562 199.828 36.3438 199.828 36.0312C199.828 35.75 199.859 35.4688 199.922 35.1875C199.922 35.1562 200.031 34.875 200.25 34.3438C200.469 33.8438 200.703 33.1406 200.953 32.2344C201.203 31.3281 201.359 30.7031 201.422 30.3594L201.562 28.5312L198.516 29.0938C197.734 29.2188 197.156 29.3438 196.781 29.4688C196.406 29.5625 196.188 29.6094 196.125 29.6094H195.938C195.656 29.6094 195.328 29.5469 194.953 29.4219C194.516 29.2656 194.016 29.0469 193.453 28.7656C192.891 28.4844 192.5 28.2344 192.281 28.0156C192.125 27.8281 192.047 27.6562 192.047 27.5V27.4062C192.109 27.2188 192.297 27.125 192.609 27.125L194.297 26.9844L196.453 26.9375L201.797 26.5625ZM204.141 26.1406L211.078 25.4844L211.125 20.7031C210.406 20.8594 209.828 20.9688 209.391 21.0312C208.953 21.0938 208.328 21.1406 207.516 21.1719C207.016 21.2031 206.656 21.2188 206.438 21.2188H206.25L204.328 21.0312L204.141 26.1406ZM204.422 19.5781C205.172 19.5156 205.922 19.4375 206.672 19.3438C207.453 19.2812 208.25 19.1875 209.062 19.0625L211.172 18.8281L211.219 13.6719C210.156 13.8594 209.031 14.0156 207.844 14.1406C206.688 14.2656 206.078 14.3438 206.016 14.375L204.609 14.7031L204.422 19.5781ZM213.75 25.3438L221.859 24.5938V19.25C221.484 19.375 221.141 19.4688 220.828 19.5312C220.516 19.5938 219.609 19.7188 218.109 19.9062C216.609 20.0938 215.844 20.1875 215.812 20.1875L214.078 20.375L213.75 25.3438ZM214.172 18.4531L215.859 18.125C216.203 18.0625 216.797 17.9688 217.641 17.8438C218.328 17.75 218.859 17.7031 219.234 17.7031H219.516C220.016 17.7344 220.516 17.8281 221.016 17.9844L221.766 18.2188L221.672 13.6719C221.672 13.3281 221.594 13.0625 221.438 12.875C221.312 12.7188 221.047 12.6406 220.641 12.6406H220.406C219.875 12.6719 219.453 12.6875 219.141 12.6875L214.453 13.25L214.172 18.4531ZM256.125 9.3125H257.578C257.828 9.3125 258.375 9.28125 259.219 9.21875L261.094 9.07812C261.5 9.04688 262.578 8.90625 264.328 8.65625L267.984 8.14062C268.359 8.10938 268.969 8 269.812 7.8125L272.062 7.34375C272.531 7.25 272.875 7.20312 273.094 7.20312H273.234C273.359 7.23438 273.516 7.28125 273.703 7.34375C273.891 7.40625 274.344 7.76562 275.062 8.42188C275.781 9.07812 276.297 9.59375 276.609 9.96875C276.922 10.3438 277.094 10.7031 277.125 11.0469C277.125 11.3906 276.969 11.7031 276.656 11.9844C276.5 12.1406 276.344 12.25 276.188 12.3125C276.031 12.375 275.609 12.5156 274.922 12.7344C274.234 12.9531 273.531 13.2188 272.812 13.5312C272.094 13.8438 271.594 14.0938 271.312 14.2812L270.469 14.7969C270.188 14.9531 269.984 15.0312 269.859 15.0312C269.766 15.0312 269.703 15.0156 269.672 14.9844C269.641 14.9531 269.625 14.8906 269.625 14.7969C269.625 14.6719 269.688 14.5156 269.812 14.3281L270.422 13.2969C270.641 12.9531 270.906 12.5 271.219 11.9375C271.5 11.375 271.703 10.9531 271.828 10.6719C271.953 10.3906 272.031 10.125 272.062 9.875V9.73438C272.062 9.60938 272.031 9.48438 271.969 9.35938C271.906 9.23438 271.719 9.17188 271.406 9.17188C271.281 9.17188 271.141 9.1875 270.984 9.21875C270.422 9.25 270.078 9.26562 269.953 9.26562L265.312 9.875C264.656 9.96875 263.766 10.1094 262.641 10.2969L259.828 10.8594C259.078 11.0469 258.562 11.1562 258.281 11.1875H257.906C257.562 11.1875 257.297 11.1562 257.109 11.0938L256.266 10.7656C256.266 11.3281 256.25 11.7656 256.219 12.0781C256.188 12.3906 256.141 12.75 256.078 13.1562C255.984 13.5312 255.766 14.125 255.422 14.9375C255.078 15.75 254.734 16.3906 254.391 16.8594C254.047 17.2656 253.734 17.4688 253.453 17.4688H253.312C253.062 17.4688 252.828 17.3438 252.609 17.0938C252.359 16.8438 252.203 16.4844 252.141 16.0156C252.047 15.6406 252 15.3125 252 15.0312V14.7969C252 14.4531 252.047 14.1719 252.141 13.9531C252.203 13.7344 252.344 13.4688 252.562 13.1562C252.781 12.8438 253 12.4844 253.219 12.0781C253.438 11.7031 253.641 11.3125 253.828 10.9062C254.016 10.5312 254.156 10.2188 254.25 9.96875C254.344 9.71875 254.453 9.375 254.578 8.9375L254.766 8.04688C254.828 7.76562 254.953 7.59375 255.141 7.53125H255.234C255.391 7.53125 255.516 7.625 255.609 7.8125L255.844 8.46875L256.125 9.3125ZM242.016 15.4531L243.094 15.6875L244.266 16.1094C244.703 16.2656 245.078 16.4531 245.391 16.6719C245.734 16.8906 246.047 17.2188 246.328 17.6562C246.578 18.0938 246.719 18.5781 246.75 19.1094C246.75 19.6406 246.656 20.0625 246.469 20.375C246.344 20.5625 246.203 20.7188 246.047 20.8438C245.859 20.9375 245.672 20.9844 245.484 20.9844H245.391C245.234 20.9844 245 20.8906 244.688 20.7031C244.344 20.5156 243.922 20.0938 243.422 19.4375L242.344 17.8438C242.062 17.4375 241.828 17.0469 241.641 16.6719L241.359 16.1562C241.297 15.9688 241.266 15.8125 241.266 15.6875C241.266 15.625 241.281 15.5625 241.312 15.5C241.375 15.4375 241.469 15.4062 241.594 15.4062C241.719 15.4062 241.859 15.4219 242.016 15.4531ZM248.25 24.0312L249.281 22.2031C249.531 21.7656 249.766 21.5469 249.984 21.5469H250.078C250.234 21.6094 250.312 21.7188 250.312 21.875C250.312 22.0312 250.266 22.2031 250.172 22.3906L249.141 25.1562C248.859 25.9062 248.516 26.75 248.109 27.6875L246.938 30.3594C246.5 31.3281 246.109 32.25 245.766 33.125C245.453 33.9688 245.203 34.6719 245.016 35.2344L244.594 36.4062C244.469 36.6562 244.328 36.8125 244.172 36.875C244.078 36.9062 243.984 36.9219 243.891 36.9219H243.703C243.484 36.8906 243.25 36.6875 243 36.3125C242.75 35.9375 242.562 35.6094 242.438 35.3281C242.312 35.0469 242.156 34.625 241.969 34.0625C241.812 33.5 241.703 33.0312 241.641 32.6562V32.4219C241.641 32.1719 241.688 31.9688 241.781 31.8125C241.812 31.6875 241.891 31.5781 242.016 31.4844L243.469 30.5C243.844 30.2188 244.391 29.6094 245.109 28.6719L246.656 26.6094C247 26.1406 247.531 25.2812 248.25 24.0312ZM245.906 9.17188L245.109 7.90625C244.953 7.6875 244.875 7.51562 244.875 7.39062C244.875 7.32812 244.891 7.28125 244.922 7.25C245.016 7.15625 245.141 7.10938 245.297 7.10938C245.391 7.10938 245.484 7.125 245.578 7.15625L247.312 7.53125C248.031 7.71875 248.625 7.9375 249.094 8.1875C249.562 8.4375 249.953 8.79688 250.266 9.26562C250.453 9.57812 250.547 9.9375 250.547 10.3438C250.547 10.5625 250.516 10.8125 250.453 11.0938C250.391 11.2812 250.281 11.5 250.125 11.75C249.969 12.0312 249.703 12.2188 249.328 12.3125C249.266 12.3438 249.188 12.3594 249.094 12.3594C248.781 12.3594 248.406 12.1875 247.969 11.8438C247.625 11.5938 247.234 11.1406 246.797 10.4844C246.328 9.82812 246.031 9.39062 245.906 9.17188ZM250.266 37.3438L249.234 37.5312H249C248.781 37.5312 248.656 37.4688 248.625 37.3438V37.2969C248.625 37.1406 248.719 37.0156 248.906 36.9219L249.797 36.4062C250.297 36.1562 250.812 35.8125 251.344 35.375C251.875 34.9375 252.578 34.2188 253.453 33.2188C254.328 32.25 255.094 31.1562 255.75 29.9375C256.406 28.75 256.906 27.4375 257.25 26C257.594 24.5625 257.797 23.4531 257.859 22.6719C257.984 21.8594 258.047 21.3125 258.047 21.0312L257.953 19.6719C257.953 19.1406 257.891 18.75 257.766 18.5C257.703 18.2812 257.672 18.125 257.672 18.0312C257.672 17.9375 257.734 17.8594 257.859 17.7969C257.953 17.7344 258.094 17.7031 258.281 17.7031C258.75 17.7344 259.203 17.875 259.641 18.125C260.078 18.375 260.438 18.625 260.719 18.875C260.969 19.0938 261.094 19.3125 261.094 19.5312V19.625C261.062 19.6875 261 19.8438 260.906 20.0938C260.781 20.3438 260.688 20.6094 260.625 20.8906C260.594 21.2031 260.422 22.0625 260.109 23.4688L259.406 26.6562C259.25 27.3125 259 28.1094 258.656 29.0469C258.312 29.9531 257.891 30.8438 257.391 31.7188C256.953 32.5312 256.359 33.3594 255.609 34.2031C254.859 35.0156 254.141 35.625 253.453 36.0312C252.766 36.4375 252.109 36.75 251.484 36.9688C250.891 37.1562 250.484 37.2812 250.266 37.3438ZM278.25 30.1719L278.484 28.1562C278.547 27.8438 278.672 27.6875 278.859 27.6875C279.047 27.7188 279.172 27.8594 279.234 28.1094L279.656 30.5469C279.75 31.0156 279.906 31.5469 280.125 32.1406C280.344 32.7344 280.547 33.25 280.734 33.6875C280.953 34.125 281.062 34.4688 281.062 34.7188V34.8594C281.062 35.0469 281 35.25 280.875 35.4688C280.688 35.8125 280.203 36.2188 279.422 36.6875C278.672 37.125 277.688 37.4531 276.469 37.6719C275.406 37.8594 274.219 37.9531 272.906 37.9531H272.344C271.312 37.9531 270.359 37.875 269.484 37.7188C268.641 37.5938 267.906 37.3281 267.281 36.9219C266.625 36.5156 266.125 36.0312 265.781 35.4688C265.438 34.9062 265.234 34.2188 265.172 33.4062C265.141 32.8438 265.125 32.25 265.125 31.625V30.6875C265.156 29.75 265.188 28.9531 265.219 28.2969L265.547 22.5312C265.578 22.2188 265.594 21.9062 265.594 21.5938C265.594 21.25 265.578 20.9219 265.547 20.6094C265.547 19.9531 265.484 19.3906 265.359 18.9219C265.297 18.4531 265.172 17.9844 264.984 17.5156C264.859 17.2344 264.797 17 264.797 16.8125C264.797 16.75 264.812 16.6875 264.844 16.625C264.875 16.5625 264.953 16.5 265.078 16.4375C265.141 16.4062 265.234 16.3906 265.359 16.3906C265.453 16.3906 265.578 16.4062 265.734 16.4375C266.234 16.5 266.672 16.5938 267.047 16.7188C267.484 16.875 267.859 17.0469 268.172 17.2344C268.547 17.4219 268.828 17.625 269.016 17.8438C269.203 18.0312 269.297 18.1719 269.297 18.2656C269.297 18.3594 269.25 18.5 269.156 18.6875C269.062 18.875 268.938 19.1875 268.781 19.625C268.625 20.0312 268.516 20.3438 268.453 20.5625C268.391 20.75 268.328 21.0938 268.266 21.5938C268.203 22.0938 268.156 22.4219 268.125 22.5781L267.609 27.5C267.516 28.375 267.453 29.3281 267.422 30.3594V31.0625C267.422 31.75 267.453 32.2812 267.516 32.6562C267.641 33.2812 267.859 33.7344 268.172 34.0156C268.484 34.3281 268.922 34.5469 269.484 34.6719C270.078 34.7656 270.922 34.8125 272.016 34.8125C273.078 34.8125 273.906 34.7812 274.5 34.7188C275.094 34.6562 275.625 34.5 276.094 34.25C276.562 34 276.922 33.7188 277.172 33.4062C277.391 33.0938 277.609 32.625 277.828 32C278.016 31.375 278.156 30.7656 278.25 30.1719ZM293.766 3.96875C294.766 4 295.688 4.20312 296.531 4.57812C297.562 4.98438 298.312 5.67188 298.781 6.64062C299.062 7.29688 299.203 7.96875 299.203 8.65625C299.203 9.40625 298.906 9.78125 298.312 9.78125C297.344 9.78125 296.172 8.82812 294.797 6.92188C293.609 5.23438 293.016 4.3125 293.016 4.15625C293.016 4.03125 293.266 3.96875 293.766 3.96875ZM289.828 14.6562C290.828 14.6875 291.75 14.875 292.594 15.2188C293.625 15.6562 294.375 16.3594 294.844 17.3281C295.125 17.9844 295.266 18.6406 295.266 19.2969C295.266 19.9531 295.031 20.2812 294.562 20.2812C293.594 20.2812 292.422 19.3594 291.047 17.5156C289.859 15.8594 289.266 14.9531 289.266 14.7969C289.266 14.7031 289.453 14.6562 289.828 14.6562ZM298.5 21.3594C298.75 21.3594 298.875 21.5 298.875 21.7812C298.875 22.3125 298.109 24.7031 296.578 28.9531C294.922 33.3594 293.984 36.0781 293.766 37.1094C293.609 37.8906 293.312 38.2812 292.875 38.2812C292.375 38.2812 291.781 37.6562 291.094 36.4062C290.406 35.1875 290.062 34.1719 290.062 33.3594C290.062 32.9531 290.375 32.6562 291 32.4688C292.188 31.8438 293.391 30.4219 294.609 28.2031C297.109 23.6406 298.406 21.3594 298.5 21.3594ZM317.391 20.9844C317.828 20.9844 318.484 21.2344 319.359 21.7344C320.672 22.3906 321.328 22.9531 321.328 23.4219C321.328 23.6406 321.016 23.8906 320.391 24.1719C318.922 25.0156 317.297 26.0469 315.516 27.2656C313.391 28.6094 310.969 29.6875 308.25 30.5V32.4688C308.25 34.2188 308.75 35.5625 309.75 36.5C310.875 37.3125 312.562 37.7188 314.812 37.7188C316.906 37.7188 318.547 37.4375 319.734 36.875C320.703 36.4688 321.328 35.9844 321.609 35.4219C322.234 34.4531 322.719 32.6562 323.062 30.0312C323.156 29.375 323.266 29.0469 323.391 29.0469C323.641 29.0469 323.969 29.75 324.375 31.1562C324.812 32.9375 325.297 34.3906 325.828 35.5156C326.234 36.1094 326.438 36.5156 326.438 36.7344C326.438 37.5781 325.531 38.3125 323.719 38.9375C321.375 39.875 318.406 40.3438 314.812 40.3438C311.75 40.3438 309.375 39.5625 307.688 38C306.531 36.9375 305.953 35.0938 305.953 32.4688C305.953 30.2188 306.094 27.1406 306.375 23.2344C306.375 22.8281 306.172 21.9688 305.766 20.6562C305.766 20.4062 305.906 20.2812 306.188 20.2812C306.562 20.2812 307.188 20.5938 308.062 21.2188C308.781 21.75 309.141 22.2344 309.141 22.6719C309.141 22.8906 309.031 23.3594 308.812 24.0781C308.531 25.4531 308.359 27.2344 308.297 29.4219C308.609 29.2344 308.938 29.0469 309.281 28.8594C311.469 27.5781 313.391 26.125 315.047 24.5C316.266 23.25 316.875 22.3438 316.875 21.7812C316.875 21.5625 316.906 21.375 316.969 21.2188C317.094 21.0625 317.234 20.9844 317.391 20.9844ZM311.766 1.71875C312.109 1.71875 312.688 1.82812 313.5 2.04688C314.594 2.35938 315.141 2.67188 315.141 2.98438V3.03125C315.141 3.375 314.734 4.29688 313.922 5.79688C314.234 6.10938 314.531 6.4375 314.812 6.78125C318.125 10.625 320.891 13.2969 323.109 14.7969C324.609 15.9531 326.453 16.8281 328.641 17.4219C329.797 17.7656 330.375 18.0312 330.375 18.2188C330.375 18.5312 329.25 18.8438 327 19.1562C325.062 19.5312 323.562 19.7188 322.5 19.7188C322.25 19.7188 321.875 19.5156 321.375 19.1094C320.25 17.9844 318 14.625 314.625 9.03125C314.062 8.15625 313.625 7.45312 313.312 6.92188C312.812 7.89062 312.188 8.98438 311.438 10.2031C309.25 13.9531 307.031 16.875 304.781 18.9688C302.625 20.8438 300.953 21.8438 299.766 21.9688C299.516 21.9062 299.391 21.7656 299.391 21.5469C303.203 17.6406 306.219 13.7188 308.438 9.78125C310.156 6.78125 311.016 4.64062 311.016 3.35938V3.17188C311.016 2.92188 310.969 2.6875 310.875 2.46875C310.938 1.96875 311.234 1.71875 311.766 1.71875ZM11.7188 82.2031C11.4062 82.2656 11.1875 82.3125 11.0625 82.3438L9.89062 82.6719C9.64062 82.7344 9.40625 82.7656 9.1875 82.7656H9C8.71875 82.7656 8.21875 82.6406 7.5 82.3906C6.8125 82.1719 6.32812 81.9062 6.04688 81.5938C5.85938 81.4062 5.76562 81.25 5.76562 81.125V81.0312C5.85938 80.9062 6.03125 80.8281 6.28125 80.7969L7.40625 80.6562L9.98438 80.3281C10.7656 80.2344 12.2656 80.0156 14.4844 79.6719L20.5312 78.7812L24.9844 78.0312C26.5781 77.7812 27.75 77.5781 28.5 77.4219C29.2188 77.2344 29.7188 77.1406 30 77.1406C30.3125 77.1719 30.7188 77.2656 31.2188 77.4219C31.6562 77.5781 32.0938 77.7812 32.5312 78.0312C32.9688 78.2812 33.2812 78.5156 33.4688 78.7344C33.6562 78.9844 33.75 79.1875 33.75 79.3438C33.6875 79.5938 33.5 79.75 33.1875 79.8125C32.9062 79.875 32.4531 79.9219 31.8281 79.9531L30.5625 80C29.75 80.0312 28.9375 80.0781 28.125 80.1406L23.25 80.5156L24.5625 81.3125C24.9062 81.5312 25.25 81.8125 25.5938 82.1562C25.9688 82.4688 26.1562 82.75 26.1562 83C26.1562 83.2188 26.0625 83.5312 25.875 83.9375C25.6875 84.375 25.5312 84.8438 25.4062 85.3438C25.2812 85.8438 25.1875 86.5 25.125 87.3125L24.5625 92.8438L27.5625 92.1875C27.9375 92.125 28.4375 92 29.0625 91.8125C29.6875 91.625 30.1875 91.4688 30.5625 91.3438C30.9375 91.2188 31.2969 91.0625 31.6406 90.875C31.9844 90.6875 32.2188 90.5938 32.3438 90.5938C32.4375 90.5625 32.5469 90.5469 32.6719 90.5469C32.9219 90.5469 33.2656 90.5938 33.7031 90.6875C34.3594 90.8125 34.9062 90.9375 35.3438 91.0625C35.75 91.1562 36.0781 91.2969 36.3281 91.4844C36.5469 91.7031 36.6562 91.875 36.6562 92C36.6562 92.1562 36.5469 92.2969 36.3281 92.4219C36.1094 92.5781 35.8438 92.6875 35.5312 92.75L28.2188 94.5312C27.875 94.625 27.5312 94.6719 27.1875 94.6719H26.9062C26.4688 94.6719 26.0469 94.6406 25.6406 94.5781C25.2344 94.5156 25 94.4688 24.9375 94.4375L24.375 94.2031L24.1406 100.484V101.047C24.1406 101.453 24.1562 101.938 24.1875 102.5C24.25 103.375 24.3906 104.078 24.6094 104.609C24.8281 105.141 25.2344 105.625 25.8281 106.062C26.4219 106.469 27.1562 106.75 28.0312 106.906C28.875 107.094 29.9219 107.188 31.1719 107.188C32.0469 107.188 32.8125 107.156 33.4688 107.094C34.0938 107 34.7188 106.812 35.3438 106.531C35.9375 106.25 36.4375 105.844 36.8438 105.312C37.2188 104.812 37.4844 104.344 37.6406 103.906C37.7969 103.531 37.9375 103.031 38.0625 102.406C38.2188 101.781 38.3594 101.141 38.4844 100.484L38.625 99.6875C38.6875 99.3125 38.8125 99.1094 39 99.0781H39.0469C39.1719 99.0781 39.2656 99.2344 39.3281 99.5469L39.4688 100.344L39.75 102.5C39.875 103.188 40.0156 103.781 40.1719 104.281C40.3281 104.781 40.5469 105.25 40.8281 105.688C41.1094 106.125 41.25 106.438 41.25 106.625V106.719C41.25 106.938 41.125 107.219 40.875 107.562C40.5312 108.062 39.9688 108.562 39.1875 109.062C38.4062 109.562 37.3125 109.953 35.9062 110.234C34.5312 110.516 33.1719 110.656 31.8281 110.656C30.6094 110.656 29.3438 110.531 28.0312 110.281C26.7188 110.031 25.5625 109.594 24.5625 108.969C23.5625 108.406 22.8281 107.656 22.3594 106.719C21.8906 105.781 21.625 104.719 21.5625 103.531C21.5625 102.375 21.5938 101.141 21.6562 99.8281L22.4062 87.5938C22.5 86.0938 22.5469 85.1406 22.5469 84.7344V84.3125C22.5469 84 22.5312 83.6719 22.5 83.3281C22.4062 82.4844 22.2812 81.9062 22.125 81.5938L21.75 80.6562C18.6875 81.0312 16.7656 81.2969 15.9844 81.4531L12.7969 82.0625C13.3281 82.25 13.7031 82.4062 13.9219 82.5312C14.1406 82.6562 14.4062 82.8281 14.7188 83.0469C15.0312 83.2656 15.2812 83.4844 15.4688 83.7031C15.6562 83.9219 15.75 84.125 15.75 84.3125C15.6875 84.4375 15.5312 84.6406 15.2812 84.9219C15 85.1719 14.7188 85.4688 14.4375 85.8125C14.1875 86.125 13.9062 86.5156 13.5938 86.9844L12.7969 88.1562L11.4844 90.0312L14.1562 89.5625L15.5625 89.0938L16.4531 88.8125L17.4375 88.4844H17.5312C17.8125 88.4844 18.1562 88.5781 18.5625 88.7656C19.0625 88.9844 19.4688 89.2188 19.7812 89.4688C20.0625 89.6875 20.3125 89.9219 20.5312 90.1719C20.7188 90.3906 20.8125 90.5938 20.8125 90.7812C20.8125 90.9062 20.5938 91.125 20.1562 91.4375C19.7812 91.75 19.4375 92.1406 19.125 92.6094C18.8125 93.0781 18.2812 93.9219 17.5312 95.1406C16.7812 96.3594 16.0625 97.4531 15.375 98.4219L13.125 101.469C12.3125 102.469 11.5469 103.344 10.8281 104.094C10.1094 104.844 9.29688 105.562 8.39062 106.25L5.67188 108.219C4.76562 108.812 4.0625 109.219 3.5625 109.438C3.0625 109.656 2.59375 109.844 2.15625 110L1.40625 110.234C1.28125 110.266 1.17188 110.281 1.07812 110.281C0.984375 110.281 0.921875 110.25 0.890625 110.188V110.094C0.890625 109.969 0.9375 109.859 1.03125 109.766L1.6875 109.25L2.625 108.594C3.21875 108.188 3.9375 107.625 4.78125 106.906C5.65625 106.219 6.51562 105.469 7.35938 104.656C8.20312 103.844 8.96875 103 9.65625 102.125L10.5938 101L10.0312 100.531C9.84375 100.375 9.5625 100.047 9.1875 99.5469C8.8125 99.0781 8.51562 98.6562 8.29688 98.2812L7.59375 97.0156L7.125 96.3125L6.75 95.6562L5.48438 96.5469C5.07812 96.8281 4.65625 97.0781 4.21875 97.2969L3.65625 97.625C3.5 97.7188 3.35938 97.7656 3.23438 97.7656C3.14062 97.7656 3.0625 97.7344 3 97.6719C2.96875 97.6094 2.95312 97.5469 2.95312 97.4844C2.95312 97.3906 3.01562 97.2812 3.14062 97.1562L3.65625 96.6406C3.84375 96.4844 4.125 96.1719 4.5 95.7031L6.84375 92.8438C7.59375 91.9062 8.34375 90.8125 9.09375 89.5625C9.90625 88.25 10.4688 87.2656 10.7812 86.6094C11.0938 85.9531 11.3125 85.3438 11.4375 84.7812C11.5625 84.25 11.625 83.8125 11.625 83.4688L11.7188 82.2031ZM7.21875 95.1406C7.78125 95.3281 8.25 95.5 8.625 95.6562C9 95.8438 9.40625 96.0938 9.84375 96.4062C10.2812 96.6875 10.625 96.9531 10.875 97.2031C11.0938 97.4219 11.2656 97.7188 11.3906 98.0938C11.5469 98.4375 11.625 98.7188 11.625 98.9375L11.7188 99.6875C11.9688 99.375 12.2344 99 12.5156 98.5625C12.7969 98.1875 13.2656 97.4531 13.9219 96.3594C14.5781 95.2656 15.0469 94.4219 15.3281 93.8281L16.2188 91.9531C16.4062 91.6094 16.5 91.3438 16.5 91.1562V91.0625C16.4375 90.8125 16.3281 90.6562 16.1719 90.5938C16.1094 90.5625 16.0156 90.5469 15.8906 90.5469C15.7969 90.5469 15.6719 90.5625 15.5156 90.5938C15.2344 90.6875 14.9375 90.7812 14.625 90.875C14.25 90.9688 13.8438 91.0625 13.4062 91.1562C12.9688 91.25 12.4688 91.2969 11.9062 91.2969L10.5938 91.3438L8.90625 93.3594L7.21875 95.1406ZM66.9844 92.4688L66.9375 86.8438L63.6562 87.125C63.1875 87.1875 62.5156 87.2188 61.6406 87.2188C60.7969 87.2188 60.2188 87.1562 59.9062 87.0312C59.5625 86.875 59.2969 86.7031 59.1094 86.5156C58.9219 86.3594 58.8281 86.1875 58.8281 86C58.8594 85.875 58.9531 85.7656 59.1094 85.6719C59.2344 85.6094 59.8281 85.5 60.8906 85.3438L62.2969 85.1562C64.1094 84.9375 65.0938 84.8125 65.25 84.7812L66.8438 84.5L66.7969 78.0312C66.7969 77.5312 66.7812 77.0312 66.75 76.5312C66.7188 76.0312 66.6562 75.5781 66.5625 75.1719C66.4688 74.7344 66.3281 74.3125 66.1406 73.9062L65.7656 73.0625C65.7031 72.875 65.6719 72.7188 65.6719 72.5938C65.6719 72.5 65.6875 72.4062 65.7188 72.3125C65.8125 72.1875 66 72.0781 66.2812 71.9844H66.4688C66.7188 71.9844 67.0469 72.0156 67.4531 72.0781C68.0469 72.2031 68.4531 72.2969 68.6719 72.3594C68.8906 72.4219 69.2031 72.5469 69.6094 72.7344C70.0469 72.8906 70.375 73.0625 70.5938 73.25C70.8125 73.4375 70.9375 73.625 70.9688 73.8125V73.9062C70.9688 74.0938 70.8906 74.3594 70.7344 74.7031C70.6094 74.9844 70.5156 75.25 70.4531 75.5C70.3906 75.75 70.3281 76.1875 70.2656 76.8125C70.1719 77.4688 70.125 77.8906 70.125 78.0781L69.9375 83.9375C70.4688 83.875 71.2188 83.75 72.1875 83.5625C73.1562 83.375 74 83.1562 74.7188 82.9062C75.4375 82.625 75.9062 82.4688 76.125 82.4375H76.4531C76.8906 82.4375 77.3125 82.5312 77.7188 82.7188C78.2188 82.9375 78.6094 83.1562 78.8906 83.375C79.1406 83.5938 79.2812 83.7812 79.3125 83.9375C79.3125 84.125 79.2031 84.2969 78.9844 84.4531C78.7344 84.6719 78.2188 84.8438 77.4375 84.9688L74.4375 85.625L69.9844 86.375L69.8906 92.1875L78.0938 91.4375C79.625 91.3125 81.0469 91.125 82.3594 90.875C83.4219 90.6875 84.2188 90.5938 84.75 90.5938H85.125C85.5938 90.6562 86.1094 90.7812 86.6719 90.9688C87.2031 91.2188 87.7969 91.5625 88.4531 92C89.1094 92.4375 89.4375 92.8438 89.4375 93.2188V93.2656C89.4062 93.4531 89.3125 93.6562 89.1562 93.875C89.0312 94 88.7656 94.0625 88.3594 94.0625H87.8906C87.2031 93.9688 86.4844 93.9219 85.7344 93.9219L80.3906 93.875C78.0781 93.875 75.7969 93.9531 73.5469 94.1094L68.625 94.5312C68.9688 94.875 69.2656 95.1875 69.5156 95.4688C69.7656 95.7188 70.0312 96.0781 70.3125 96.5469C70.5312 96.8594 70.6406 97.1406 70.6406 97.3906C70.6406 97.5156 70.6094 97.625 70.5469 97.7188C70.4844 97.8438 70.3906 97.9375 70.2656 98L69.6094 98.3281L68.9531 98.9844L63.7969 104.281L61.9688 106.25C61.8125 106.375 61.7031 106.516 61.6406 106.672C61.6094 106.734 61.5938 106.797 61.5938 106.859C61.5938 106.922 61.6094 106.984 61.6406 107.047C61.7031 107.078 61.875 107.094 62.1562 107.094H62.6719C63.2969 107.094 63.7812 107.047 64.125 106.953L74.9062 104.891L72.2344 101.422C72.0156 101.141 71.9062 100.922 71.9062 100.766C71.9062 100.703 71.9219 100.656 71.9531 100.625C72.0469 100.562 72.1562 100.531 72.2812 100.531C72.4062 100.531 72.5312 100.547 72.6562 100.578L73.4531 100.906C73.8906 101.062 74.7188 101.5 75.9375 102.219C77.1562 102.969 78.1406 103.734 78.8906 104.516C79.6406 105.297 80.1719 106.047 80.4844 106.766C80.7969 107.516 81 108.219 81.0938 108.875C81.125 109.031 81.1406 109.188 81.1406 109.344C81.1406 109.781 81.0625 110.188 80.9062 110.562C80.6875 111.094 80.4375 111.391 80.1562 111.453H80.1094C79.7969 111.453 79.4219 111.266 78.9844 110.891C78.8594 110.797 77.9688 109.594 76.3125 107.281L75.4219 106.062L63.75 109.438L61.5469 110.188C60.7344 110.5 60.125 110.797 59.7188 111.078C59.3125 111.359 59.0469 111.5 58.9219 111.5C58.7344 111.5 58.5 111.391 58.2188 111.172C57.9375 110.953 57.5781 110.5 57.1406 109.812C56.7031 109.125 56.4375 108.625 56.3438 108.312C56.3125 108.188 56.2969 108.062 56.2969 107.938C56.2969 107.781 56.3281 107.625 56.3906 107.469C56.4531 107.344 56.7188 107.156 57.1875 106.906C57.625 106.719 57.9531 106.531 58.1719 106.344C58.4219 106.156 58.8906 105.688 59.5781 104.938L61.5469 102.875C62.0156 102.312 62.6719 101.469 63.5156 100.344L65.3438 97.8125C65.75 97.1875 66 96.75 66.0938 96.5L66.7031 94.6719L59.25 95.75C58.2812 95.875 57.0781 96.125 55.6406 96.5L53.8125 97.0625C53.5 97.125 53.2031 97.1875 52.9219 97.25C52.6719 97.3125 52.4531 97.3438 52.2656 97.3438C51.9531 97.3438 51.6406 97.2656 51.3281 97.1094C51.0156 96.9844 50.625 96.7344 50.1562 96.3594C49.6875 96.0156 49.3125 95.6719 49.0312 95.3281C48.8438 95.0469 48.75 94.8281 48.75 94.6719V94.5781C48.8125 94.4219 49.125 94.3281 49.6875 94.2969L51.2812 94.25L52.8281 94.1094C53.4531 94.0781 54.2031 94.0156 55.0781 93.9219C55.9531 93.8281 57.5625 93.6094 59.9062 93.2656L64.5469 92.6562L66.9844 92.4688ZM103.078 88.5312L106.453 87.8281C107.578 87.6094 108.438 87.4375 109.031 87.3125C109.625 87.2188 110.203 87.0938 110.766 86.9375C111.328 86.75 111.703 86.6562 111.891 86.6562C112.141 86.6875 112.469 86.7969 112.875 86.9844C113.281 87.2031 113.672 87.4375 114.047 87.6875C114.422 87.9375 114.75 88.2031 115.031 88.4844C115.344 88.7969 115.5 89.0312 115.5 89.1875V89.2812C115.5 89.4375 115.422 89.6719 115.266 89.9844C115.109 90.2656 114.984 90.6406 114.891 91.1094C114.828 91.6094 114.766 92.0312 114.703 92.375C114.672 92.75 114.641 93.3594 114.609 94.2031L114.141 102.781C114.078 103.562 113.859 104.469 113.484 105.5C113.078 106.562 112.734 107.312 112.453 107.75C112.141 108.188 111.859 108.516 111.609 108.734C111.359 108.891 111.188 108.969 111.094 108.969H111.047C110.859 108.969 110.688 108.859 110.531 108.641C110.375 108.422 110.234 108.125 110.109 107.75L109.453 106.25L108.984 104.984C107.922 105.047 106.969 105.094 106.125 105.125C105.281 105.188 104.625 105.25 104.156 105.312L102.328 105.5L102.047 106.812C101.922 107.344 101.734 107.656 101.484 107.75H101.344C101.188 107.75 100.984 107.656 100.734 107.469C100.484 107.312 100.281 107.031 100.125 106.625C99.9688 106.219 99.8906 105.875 99.8906 105.594V105.219C99.8906 104.969 99.9062 104.641 99.9375 104.234C100 103.641 100.047 103.016 100.078 102.359V100.531L99.7969 93.8281C99.7656 93.7344 99.7031 93.1875 99.6094 92.1875L99.375 90.3594C99.3438 90.0781 99.25 89.75 99.0938 89.375C99 89.0625 98.9531 88.7969 98.9531 88.5781V88.4375C99.0156 88.1875 99.1875 88 99.4688 87.875C99.5312 87.8438 99.6094 87.8281 99.7031 87.8281C99.9219 87.8281 100.203 87.8906 100.547 88.0156L101.812 88.5312L102.75 86.9375L103.922 84.5469C104.484 83.3906 104.828 82.5938 104.953 82.1562L105.328 80.8438C105.453 80.3438 105.516 79.9531 105.516 79.6719V77.6094C105.516 77.3906 105.547 77.2188 105.609 77.0938C105.672 77 105.828 76.9375 106.078 76.9062C106.141 76.875 106.203 76.8594 106.266 76.8594C106.516 76.8594 106.797 76.9375 107.109 77.0938C107.547 77.2812 108.016 77.5469 108.516 77.8906C109.047 78.2344 109.422 78.5469 109.641 78.8281C109.828 79.1094 109.922 79.3438 109.922 79.5312C109.859 79.6562 109.703 79.8594 109.453 80.1406C109.203 80.3906 109.016 80.6094 108.891 80.7969C108.766 80.9531 108.516 81.3438 108.141 81.9688C107.828 82.5938 107.484 83.1719 107.109 83.7031C106.766 84.2344 106.297 84.8906 105.703 85.6719C105.109 86.4219 104.672 86.9219 104.391 87.1719L103.078 88.5312ZM102.375 103.672C103.094 103.578 103.641 103.516 104.016 103.484L105.703 103.25L107.344 103.062C107.875 103 108.297 102.969 108.609 102.969C109.047 102.969 109.438 103.016 109.781 103.109C110.125 103.234 110.406 103.375 110.625 103.531L111.141 103.906L111.422 101.656L111.516 98.9844L111.656 96.4062L110.484 96.7344C110.109 96.8281 109.453 96.9688 108.516 97.1562C107.516 97.3438 106.578 97.5312 105.703 97.7188C104.828 97.9062 104.203 98.0312 103.828 98.0938C103.578 98.125 103.391 98.1406 103.266 98.1406H103.125L102.469 98L102.375 103.672ZM102.469 96.3594C103.188 96.2031 103.812 96.0781 104.344 95.9844C104.875 95.8906 105.422 95.7656 105.984 95.6094C106.547 95.4844 107.062 95.3438 107.531 95.1875L108.609 94.9062C108.734 94.875 108.891 94.8594 109.078 94.8594C109.234 94.8594 109.422 94.875 109.641 94.9062C110.172 95 110.641 95.125 111.047 95.2812L111.609 95.4688L111.656 91.4844C111.656 91.3281 111.641 90.9688 111.609 90.4062C111.547 89.8125 111.453 89.4375 111.328 89.2812C111.203 89.0938 111.047 88.9688 110.859 88.9062C110.641 88.8125 110.344 88.75 109.969 88.7188C109.5 88.7188 109.047 88.75 108.609 88.8125L106.266 89.1875C105.078 89.375 104.375 89.5312 104.156 89.6562L102.703 90.2188L102.469 96.3594ZM121.734 86.1406L125.016 85.5312L127.078 85.1562C127.734 85.0312 128.328 84.9062 128.859 84.7812C129.422 84.6562 129.906 84.5312 130.312 84.4062C130.719 84.2812 131.016 84.2031 131.203 84.1719C131.547 84.1719 131.953 84.2969 132.422 84.5469C132.859 84.7656 133.297 85.0312 133.734 85.3438C134.172 85.6562 134.516 85.9531 134.766 86.2344C135.047 86.5156 135.188 86.7188 135.188 86.8438V86.9375C135.188 87.0625 135.109 87.2656 134.953 87.5469C134.766 87.8281 134.641 88.0938 134.578 88.3438C134.453 88.625 134.328 89.0625 134.203 89.6562C134.078 90.2188 134 90.6562 133.969 90.9688L133.172 102.828C133.078 104.172 132.859 105.484 132.516 106.766C132.172 108.047 131.688 109.219 131.062 110.281C130.438 111.375 129.797 112.094 129.141 112.438C128.516 112.75 128.078 112.906 127.828 112.906C127.641 112.906 127.422 112.859 127.172 112.766C126.984 112.672 126.766 112.469 126.516 112.156C126.328 111.906 126 111.422 125.531 110.703C125.062 109.984 124.641 109.391 124.266 108.922L123.234 107.844L122.625 107.094C122.469 106.906 122.391 106.766 122.391 106.672C122.391 106.641 122.406 106.609 122.438 106.578C122.469 106.547 122.531 106.531 122.625 106.531C122.719 106.531 122.859 106.562 123.047 106.625L124.078 107L126.094 107.75C126.656 107.906 127.109 107.984 127.453 107.984C127.641 107.984 127.797 107.969 127.922 107.938C128.234 107.844 128.547 107.547 128.859 107.047C129.203 106.547 129.516 105.75 129.797 104.656C130.047 103.531 130.234 102.234 130.359 100.766L131.016 91.8125V88.9062C131.016 88.1562 130.953 87.6406 130.828 87.3594C130.672 87.0781 130.469 86.875 130.219 86.75C130 86.625 129.641 86.5469 129.141 86.5156C128.641 86.5156 128.016 86.5625 127.266 86.6562C126.516 86.7188 125.812 86.7969 125.156 86.8906C124.469 86.9844 123.859 87.1406 123.328 87.3594C122.828 87.5469 122.516 87.6406 122.391 87.6406H122.156C121.938 87.6406 121.734 87.6094 121.547 87.5469L121.125 87.3594C120.906 87.6094 120.75 87.7812 120.656 87.875L119.672 89.1406C119.391 89.4844 118.984 89.9062 118.453 90.4062C117.953 90.9062 117.547 91.2812 117.234 91.5312L116.391 92.2812C116.203 92.4062 116.062 92.4688 115.969 92.4688C115.875 92.4688 115.812 92.4375 115.781 92.375C115.75 92.3438 115.734 92.2969 115.734 92.2344C115.734 92.0781 115.812 91.875 115.969 91.625L116.484 90.8281C117.047 89.9844 117.547 89.2031 117.984 88.4844C118.453 87.7656 118.891 86.9688 119.297 86.0938C119.734 85.2188 120.188 84.1406 120.656 82.8594C121.125 81.5781 121.5 80.4844 121.781 79.5781C122.062 78.6719 122.281 77.875 122.438 77.1875C122.562 76.625 122.625 76.1562 122.625 75.7812V75.1719C122.625 74.9219 122.641 74.75 122.672 74.6562C122.734 74.4688 122.859 74.3438 123.047 74.2812C123.109 74.25 123.172 74.2344 123.234 74.2344C123.422 74.2344 123.703 74.3438 124.078 74.5625C124.766 75.0312 125.234 75.3594 125.484 75.5469C125.703 75.7031 125.891 75.9062 126.047 76.1562C126.234 76.4062 126.328 76.5938 126.328 76.7188C126.328 76.8438 126.219 77.0469 126 77.3281C125.781 77.5781 125.578 77.9062 125.391 78.3125C125.203 78.6875 125.047 79.0156 124.922 79.2969L124.031 81.4062C123.562 82.5312 123.172 83.4219 122.859 84.0781C122.547 84.7344 122.312 85.2031 122.156 85.4844L121.734 86.1406ZM119.109 96.2188L118.312 95.1406C118.094 94.7969 117.984 94.5469 117.984 94.3906V94.2969C118.078 94.1719 118.219 94.1094 118.406 94.1094C118.5 94.1094 118.609 94.125 118.734 94.1562L120.047 94.4375C120.641 94.5625 121.297 94.8125 122.016 95.1875C122.766 95.5312 123.297 95.9062 123.609 96.3125C123.891 96.7188 124.047 97.2031 124.078 97.7656C124.109 97.9531 124.125 98.1406 124.125 98.3281C124.125 98.6719 124.078 98.9688 123.984 99.2188C123.859 99.5938 123.672 99.8438 123.422 99.9688C123.172 100.094 122.906 100.156 122.625 100.156C122.25 100.094 121.859 99.8906 121.453 99.5469C121.078 99.1719 120.609 98.5625 120.047 97.7188C119.484 96.875 119.172 96.375 119.109 96.2188ZM165.562 81.5469L158.953 82.4375C157.609 82.625 156.406 82.8438 155.344 83.0938C154.406 83.3125 153.703 83.4219 153.234 83.4219H153.094C152.469 83.4219 151.812 83.2969 151.125 83.0469C150.438 82.7656 149.984 82.5156 149.766 82.2969C149.609 82.1406 149.531 81.9844 149.531 81.8281V81.6875C149.531 81.6562 149.562 81.5938 149.625 81.5C149.688 81.4375 149.938 81.3906 150.375 81.3594L151.406 81.2188L165.234 79.5781C167.359 79.3281 169.031 79.125 170.25 78.9688L172.922 78.5469L175.031 78.2188C175.875 78.0938 176.562 77.9688 177.094 77.8438C177.625 77.7188 178.062 77.6406 178.406 77.6094C178.594 77.5781 178.797 77.5625 179.016 77.5625C179.203 77.5625 179.406 77.5781 179.625 77.6094C180.062 77.7031 180.562 77.875 181.125 78.125C181.688 78.375 182.172 78.6875 182.578 79.0625C182.922 79.3438 183.094 79.5938 183.094 79.8125V79.9062C183.031 80.0938 182.859 80.2344 182.578 80.3281C182.328 80.4219 182.047 80.4688 181.734 80.4688C181.453 80.4688 181.094 80.5 180.656 80.5625C180.219 80.5625 179.562 80.5938 178.688 80.6562C177.844 80.6562 176.672 80.7031 175.172 80.7969C173.703 80.8906 172.562 80.9688 171.75 81.0312L167.906 81.3125L168.609 81.9219C168.828 82.1406 169.031 82.3906 169.219 82.6719C169.344 82.8906 169.406 83.0781 169.406 83.2344C169.406 83.3281 169.391 83.4062 169.359 83.4688C169.266 83.6875 169.078 83.9531 168.797 84.2656L167.156 86.5625L166.641 87.3125C167.078 87.7812 167.438 88.1875 167.719 88.5312C168.031 88.8438 168.25 89.1562 168.375 89.4688C168.5 89.7812 168.562 90.0781 168.562 90.3594C168.562 90.6719 168.531 91.0312 168.469 91.4375L168.281 92.8438C168.781 92.9688 169.328 93.0938 169.922 93.2188C170.516 93.3438 171.234 93.5156 172.078 93.7344C172.922 93.9531 173.938 94.2969 175.125 94.7656C176.375 95.2344 177.438 95.6875 178.312 96.125C179.188 96.5625 180.047 97.0938 180.891 97.7188C181.734 98.3438 182.328 98.9375 182.672 99.5C183.016 100.125 183.219 100.609 183.281 100.953C183.344 101.297 183.406 101.703 183.469 102.172C183.469 102.641 183.391 102.984 183.234 103.203C183.047 103.422 182.781 103.578 182.438 103.672C182.344 103.703 182.234 103.719 182.109 103.719C181.859 103.719 181.578 103.656 181.266 103.531C180.797 103.375 180.188 103.016 179.438 102.453C178.688 101.922 178 101.391 177.375 100.859L174.234 98.1875C172.766 96.9375 171.641 96.0312 170.859 95.4688C170.078 94.9062 169.5 94.5312 169.125 94.3438L168.188 93.875L167.812 105.875L167.672 108.594C167.641 109.719 167.578 110.516 167.484 110.984C167.391 111.453 167.281 111.922 167.156 112.391C167.031 112.859 166.875 113.156 166.688 113.281C166.531 113.406 166.391 113.469 166.266 113.469C166.109 113.469 165.969 113.422 165.844 113.328C165.656 113.234 165.438 112.906 165.188 112.344C164.906 111.812 164.703 111.391 164.578 111.078C164.422 110.797 164.297 110.406 164.203 109.906C164.109 109.438 164.047 109.094 164.016 108.875V108.781C164.016 108.562 164.094 108.219 164.25 107.75C164.625 106.375 164.875 105.406 165 104.844C165.125 104.281 165.219 103.484 165.281 102.453L165.469 99.9688C165.531 99 165.578 98.4375 165.609 98.2812L165.656 93.3125C165.656 92.125 165.625 91.1562 165.562 90.4062L165.375 89.0938L163.125 92.0938C162.438 92.9375 161.531 93.9219 160.406 95.0469C159.25 96.2031 158.109 97.2344 156.984 98.1406C155.828 99.0469 154.75 99.8438 153.75 100.531C152.688 101.219 151.656 101.828 150.656 102.359C149.625 102.922 148.875 103.281 148.406 103.438L147.281 103.812C147.125 103.875 147 103.906 146.906 103.906C146.812 103.906 146.75 103.875 146.719 103.812V103.766C146.719 103.641 146.844 103.469 147.094 103.25L147.797 102.688C148.703 102.062 149.594 101.406 150.469 100.719C151.406 100.031 152.672 99 154.266 97.625C155.859 96.1875 157.375 94.6719 158.812 93.0781C160.25 91.4844 161.391 90.0781 162.234 88.8594C163.078 87.6406 163.734 86.5938 164.203 85.7188C164.672 84.8438 164.984 84.1562 165.141 83.6562C165.297 83.125 165.406 82.6875 165.469 82.3438L165.562 81.5469ZM203.719 86.0938C203.688 86.0312 203.672 85.9844 203.672 85.9531C203.672 85.8594 203.703 85.7812 203.766 85.7188C203.797 85.6562 203.875 85.625 204 85.625C204.125 85.625 204.297 85.6562 204.516 85.7188L206.016 86.0938C206.266 86.1562 206.594 86.2812 207 86.4688C207.406 86.6875 207.688 86.9219 207.844 87.1719C208 87.4531 208.078 87.7969 208.078 88.2031C208.078 88.8281 207.938 89.2656 207.656 89.5156C207.375 89.7656 207.109 89.8906 206.859 89.8906H206.812C206.5 89.8906 206.172 89.6562 205.828 89.1875C205.578 88.9375 205.297 88.5625 204.984 88.0625C204.609 87.5625 204.312 87.125 204.094 86.75C203.875 86.375 203.75 86.1562 203.719 86.0938ZM214.828 88.3906L215.438 87.5469C215.719 87.2031 215.969 86.8438 216.188 86.4688L216.984 85.1562C217.297 84.6562 217.5 84.2344 217.594 83.8906C217.688 83.5469 217.781 83.3438 217.875 83.2812C217.906 83.25 217.953 83.2344 218.016 83.2344C218.109 83.2344 218.266 83.2812 218.484 83.375C218.859 83.5 219.266 83.7188 219.703 84.0312C220.141 84.375 220.453 84.7031 220.641 85.0156C220.828 85.2344 220.922 85.4219 220.922 85.5781V85.7188C220.859 85.8438 220.688 85.9688 220.406 86.0938L218.906 86.7969L217.125 87.7812C216.469 88.1562 216.125 88.3594 216.094 88.3906L215.203 88.9062C215.016 89.0312 214.859 89.0938 214.734 89.0938C214.703 89.0938 214.672 89.0781 214.641 89.0469C214.547 88.9844 214.5 88.9219 214.5 88.8594C214.5 88.7969 214.516 88.75 214.547 88.7188L214.828 88.3906ZM202.734 93.875L202.453 94.4375C202.328 94.6875 202.141 94.8281 201.891 94.8594C201.609 94.8594 201.328 94.5938 201.047 94.0625C200.797 93.5 200.641 93 200.578 92.5625L199.641 87.0781C199.516 86.2969 199.375 85.6719 199.219 85.2031C199.062 84.7344 198.875 84.3594 198.656 84.0781C198.438 83.8281 198.188 83.5781 197.906 83.3281C197.625 83.0469 197.469 82.8125 197.438 82.625V82.4844C197.438 82.3281 197.484 82.2188 197.578 82.1562C197.672 82.0938 197.797 82.0625 197.953 82.0625H198.141C199.016 82.1875 199.5 82.25 199.594 82.25L200.953 82.5781C201.797 82.5156 202.719 82.4531 203.719 82.3906C204.75 82.2969 205.547 82.2344 206.109 82.2031C206.672 82.1719 207.344 82.0938 208.125 81.9688C208.906 81.875 210.031 81.7188 211.5 81.5C212.969 81.2812 213.875 81.1406 214.219 81.0781C214.562 81.0156 215.453 80.8438 216.891 80.5625C218.328 80.25 219.281 80.0469 219.75 79.9531C220.219 79.8594 220.766 79.7031 221.391 79.4844C222.078 79.2656 222.547 79.1406 222.797 79.1094H223.031C223.375 79.1094 223.766 79.1562 224.203 79.25C224.766 79.4062 225.438 79.6562 226.219 80C226.969 80.3438 227.562 80.7344 228 81.1719C228.406 81.5156 228.609 81.8281 228.609 82.1094V82.2031C228.578 82.2969 228.422 82.5 228.141 82.8125C227.859 83.0625 227.562 83.4688 227.25 84.0312C226.938 84.5312 226.719 84.9688 226.594 85.3438L224.203 91.7188C224.016 92.0938 223.828 92.4375 223.641 92.75C223.453 93.0625 223.219 93.3281 222.938 93.5469C222.688 93.7344 222.422 93.8281 222.141 93.8281H222.047C221.766 93.7969 221.547 93.5625 221.391 93.125L221.062 92.4688C219.969 92.4688 219.078 92.4844 218.391 92.5156C217.703 92.5469 216.453 92.6562 214.641 92.8438L208.312 93.5C205.938 93.6875 204.547 93.7812 204.141 93.7812L202.734 93.875ZM210.516 83.2344C209.516 83.3594 208.547 83.4688 207.609 83.5625C206.672 83.6875 205.891 83.7656 205.266 83.7969L202.828 83.8906L201.562 83.9375C202.031 86.6875 202.312 88.4375 202.406 89.1875L202.828 92.375L206.297 92.0469L210.328 91.625L210.516 83.2344ZM212.859 91.3438L216.609 90.7344C218.266 90.4844 219.297 90.3438 219.703 90.3125C220.141 90.3125 220.516 90.3594 220.828 90.4531L221.625 90.7344L223.078 85.8125L223.453 83.75C223.516 83.375 223.547 83.0625 223.547 82.8125C223.547 82.5 223.5 82.2812 223.406 82.1562C223.25 81.9375 222.891 81.8125 222.328 81.7812H222.141C221.828 81.7812 221.391 81.8281 220.828 81.9219L217.828 82.25L213.141 82.8125C213.016 85.125 212.953 86.5 212.953 86.9375L212.859 91.3438ZM202.641 74.8906L202.219 74.375C202.062 74.1875 201.984 74.0469 201.984 73.9531C201.984 73.8281 202.031 73.7344 202.125 73.6719C202.156 73.6406 202.203 73.625 202.266 73.625C202.359 73.625 202.484 73.6562 202.641 73.7188L203.484 74L204.703 74.4688C205.016 74.5938 205.422 74.7812 205.922 75.0312C206.453 75.2812 206.859 75.5469 207.141 75.8281C207.453 76.1094 207.688 76.4062 207.844 76.7188C207.969 76.9375 208.031 77.2031 208.031 77.5156C208.031 77.6406 208.016 77.7812 207.984 77.9375C207.953 78.5 207.812 78.9219 207.562 79.2031C207.312 79.4531 207.031 79.5781 206.719 79.5781H206.672C206.391 79.5781 206.078 79.375 205.734 78.9688C205.453 78.7188 205.109 78.2969 204.703 77.7031C204.328 77.1094 203.984 76.5938 203.672 76.1562C203.359 75.75 203.016 75.3281 202.641 74.8906ZM215.203 79.25L214.312 79.7656C214.031 79.9219 213.844 80 213.75 80C213.656 79.9688 213.594 79.9062 213.562 79.8125V79.7656C213.562 79.6406 213.625 79.5156 213.75 79.3906L214.734 78.3125C214.859 78.125 215.234 77.5938 215.859 76.7188L216.797 75.4062C217.109 74.9688 217.422 74.4062 217.734 73.7188C218.078 73.0312 218.266 72.4688 218.297 72.0312C218.328 71.5938 218.391 71.3281 218.484 71.2344C218.578 71.2031 218.688 71.1875 218.812 71.1875H219.047C219.297 71.1875 219.609 71.25 219.984 71.375C220.359 71.5 220.797 71.7031 221.297 71.9844C221.766 72.2656 222.156 72.5625 222.469 72.875C222.75 73.1562 222.891 73.375 222.891 73.5312V73.5781C222.828 73.7031 222.703 73.8438 222.516 74L221.625 74.4688C221.344 74.5938 220.953 74.875 220.453 75.3125L218.531 76.9062L216.703 78.3125L215.203 79.25ZM206.062 110.75L205.734 112.016C205.578 112.484 205.375 112.719 205.125 112.719H205.078C204.859 112.719 204.625 112.5 204.375 112.062C204.25 111.875 204.094 111.547 203.906 111.078C203.688 110.609 203.547 110.25 203.484 110C203.453 109.875 203.438 109.75 203.438 109.625C203.438 109.5 203.453 109.375 203.484 109.25C203.484 109.062 203.562 108.688 203.719 108.125C203.875 107.594 203.984 107.109 204.047 106.672C204.109 106.266 204.172 105.672 204.234 104.891L204.281 103.109V101.562C204.25 100.875 204.219 100.312 204.188 99.875C204.156 99.4375 204.047 98.9688 203.859 98.4688C203.641 98 203.531 97.6562 203.531 97.4375C203.562 97.25 203.656 97.0938 203.812 96.9688C203.906 96.875 204.031 96.8281 204.188 96.8281C204.406 96.8281 204.672 96.9062 204.984 97.0625L206.203 97.5781L209.953 97.0156C210.891 96.8594 211.812 96.6875 212.719 96.5C213.594 96.3125 214.328 96.1406 214.922 95.9844C215.516 95.8594 215.984 95.75 216.328 95.6562C216.734 95.5312 217.016 95.4688 217.172 95.4688H217.406C217.656 95.4688 217.891 95.5 218.109 95.5625C218.484 95.6562 218.891 95.8438 219.328 96.125C219.766 96.4062 220.125 96.7031 220.406 97.0156C220.719 97.2969 220.891 97.5156 220.922 97.6719C220.922 97.8281 220.828 98.125 220.641 98.5625C220.453 98.9375 220.328 99.4688 220.266 100.156C220.203 100.719 220.172 101.203 220.172 101.609V105.219C220.172 105.594 220.234 106.234 220.359 107.141C220.484 108.047 220.547 108.75 220.547 109.25C220.484 109.688 220.391 110.172 220.266 110.703C220.109 111.203 219.906 111.672 219.656 112.109C219.406 112.578 219.109 112.969 218.766 113.281C218.391 113.625 218.078 113.797 217.828 113.797H217.734C217.484 113.797 217.281 113.703 217.125 113.516C216.969 113.297 216.703 112.844 216.328 112.156L215.25 110L211.969 110.281L208.172 110.656L206.062 110.75ZM206.109 109.062L210.75 108.5C211 108.5 211.578 108.406 212.484 108.219C213.422 108.062 214.109 107.984 214.547 107.984C215.172 108.016 215.609 108.078 215.859 108.172L217.078 108.734C217.203 108.141 217.328 107.578 217.453 107.047C217.516 106.516 217.562 105.938 217.594 105.312L217.641 103.344C217.266 103.406 216.969 103.469 216.75 103.531C216.5 103.594 215.859 103.688 214.828 103.812L212.766 104.188L209.578 104.656C208.859 104.781 208.359 104.844 208.078 104.844C207.953 104.844 207.859 104.828 207.797 104.797L206.297 104.422L206.109 109.062ZM206.391 103.391C206.984 103.359 207.422 103.312 207.703 103.25C208.016 103.219 208.828 103.094 210.141 102.875C211.484 102.625 212.516 102.422 213.234 102.266C213.953 102.109 214.484 102.016 214.828 101.984H215.109C215.672 101.984 216.109 102.062 216.422 102.219L217.641 102.688L217.594 99.7812C217.562 98.9062 217.453 98.375 217.266 98.1875C217.016 97.9375 216.547 97.8125 215.859 97.8125C215.172 97.8438 214.281 97.9375 213.188 98.0938C212.094 98.25 211.109 98.375 210.234 98.4688C209.359 98.5625 208.859 98.625 208.734 98.6562L206.484 99.0312L206.391 103.391ZM251.016 89.4219C251.391 89.4219 251.641 89.8906 251.766 90.8281C251.891 91.5469 251.953 92.2031 251.953 92.7969C251.953 93.7344 251.594 94.8281 250.875 96.0781C249.719 97.8906 248.578 98.7969 247.453 98.7969C246.859 98.7969 246.562 98.2969 246.562 97.2969C246.562 96.4844 247.109 95.4219 248.203 94.1094C249.453 92.6094 250.188 91.4844 250.406 90.7344C250.656 89.8594 250.859 89.4219 251.016 89.4219ZM255.797 81.2656C252.391 81.7344 250.125 81.9688 249 81.9688C248.156 81.9688 247.344 81.5312 246.562 80.6562C246.562 80.2812 246.688 80.0938 246.938 80.0938C252.75 79.7812 259.094 78.7812 265.969 77.0938C267.406 76.7188 268.188 76.5312 268.312 76.5312C268.906 76.5312 269.75 76.6875 270.844 77C271.906 77.4062 272.438 77.8125 272.438 78.2188C272.438 78.625 271.938 78.9219 270.938 79.1094C265.875 79.8906 261.688 80.5 258.375 80.9375C258.625 81.0625 258.875 81.2031 259.125 81.3594C260.469 82.2031 261.141 82.8906 261.141 83.4219C260.953 87.9531 260.547 91.7656 259.922 94.8594H259.969C260.25 95.0469 260.609 95.4062 261.047 95.9375C261.266 95.625 261.547 95.2812 261.891 94.9062C263.078 93.5 264.125 91.9219 265.031 90.1719C265.719 88.8594 266.062 87.8594 266.062 87.1719C266.062 86.9531 266.109 86.75 266.203 86.5625C266.297 86.375 266.438 86.2812 266.625 86.2812C267.062 86.2812 267.812 86.5156 268.875 86.9844C270.344 87.7344 271.078 88.3594 271.078 88.8594C271.078 89.0781 270.859 89.3281 270.422 89.6094C269.359 90.5781 268.203 91.7344 266.953 93.0781C265.391 94.5781 263.641 95.7656 261.703 96.6406C262.328 97.4219 263.062 98.3594 263.906 99.4531C266.062 102.578 268.016 104.688 269.766 105.781C271.547 106.906 274.016 107.922 277.172 108.828C279.266 109.359 280.312 109.719 280.312 109.906C280.312 110.25 279.516 110.5 277.922 110.656C276.141 111 273.859 111.172 271.078 111.172C269.703 111.172 268.656 110.734 267.938 109.859C267.031 108.891 265.344 106.297 262.875 102.078C261.312 99.4531 260.203 97.6562 259.547 96.6875C258.859 99.5625 257.969 101.781 256.875 103.344C254.625 106.656 252.031 108.938 249.094 110.188C246.875 111.25 245.078 111.781 243.703 111.781C243.234 111.75 243 111.672 243 111.547C243 111.422 243.656 111.094 244.969 110.562C248.656 109.094 251.609 106.703 253.828 103.391C256.203 99.7344 257.391 95.2812 257.391 90.0312V89.2812C257.391 85.9688 256.984 83.5469 256.172 82.0156C255.953 81.7031 255.828 81.4531 255.797 81.2656ZM302.25 100.156C302.625 100.156 302.812 100.281 302.812 100.531C302.812 100.875 302.203 101.406 300.984 102.125C297.047 104.406 294.406 106.078 293.062 107.141C292.281 107.984 291.828 108.406 291.703 108.406C291.016 108.406 290.172 107.984 289.172 107.141C288.359 106.391 287.953 105.859 287.953 105.547C287.953 105.234 288.328 105.031 289.078 104.938C290.766 104.75 294.25 103.531 299.531 101.281C301.156 100.531 302.062 100.156 302.25 100.156ZM299.766 83.8438C300.172 83.875 300.75 84.25 301.5 84.9688C302.188 85.5938 302.562 86.1562 302.625 86.6562C302.562 86.9375 302.344 87.2188 301.969 87.5C301.031 88.5625 298.625 91.6094 294.75 96.6406C299.031 95.5156 301.266 94.9219 301.453 94.8594C302.109 94.8906 302.438 95.0156 302.438 95.2344C302.438 95.5469 302.312 95.75 302.062 95.8438C297.562 97.5625 294.5 99.0312 292.875 100.25C292.312 100.656 291.859 100.859 291.516 100.859C290.859 100.859 290.25 100.438 289.688 99.5938C289.281 99.0938 289.078 98.5938 289.078 98.0938C289.109 98 289.359 97.9375 289.828 97.9062C291.047 97.4375 292.172 96.5938 293.203 95.375C294.797 93.375 296.141 91.5156 297.234 89.7969C295.953 89.9531 294.891 90.1562 294.047 90.4062C293.172 90.5938 292.219 91.0781 291.188 91.8594C290.812 92.1406 290.562 92.2812 290.438 92.2812C289.594 92.2188 289.094 91.4688 288.938 90.0312C289 89.4375 289.297 88.9844 289.828 88.6719C290.984 88.0469 291.875 87.0938 292.5 85.8125C293.375 84.3438 294.047 82.7344 294.516 80.9844C295.016 79.2969 295.266 77.8125 295.266 76.5312C295.266 76.2812 295.391 76.1562 295.641 76.1562C296.172 76.1562 296.875 76.5469 297.75 77.3281C298.594 78.1406 299.016 78.7969 299.016 79.2969C299.016 79.6094 298.844 79.9844 298.5 80.4219C297.406 81.8906 296.453 83.2969 295.641 84.6406C295.047 85.6719 294.125 87.0625 292.875 88.8125C294.625 88.5625 296.406 88.375 298.219 88.25C298.875 87.0312 299.203 85.8125 299.203 84.5938C299.203 84.125 299.391 83.875 299.766 83.8438ZM310.875 71.8438C311.375 71.8438 312.078 72.2812 312.984 73.1562C313.828 74.1562 314.25 74.8281 314.25 75.1719C314.25 75.4219 314.109 75.6406 313.828 75.8281C313.578 76.0469 312.875 77.125 311.719 79.0625C311.688 79.125 311.656 79.1719 311.625 79.2031C312.469 79.0781 313.25 78.8906 313.969 78.6406C315.5 78.1094 316.625 77.6094 317.344 77.1406C318.25 76.6094 318.781 76.3438 318.938 76.3438C319.25 76.3438 319.984 76.625 321.141 77.1875C322.172 77.9688 322.688 78.5469 322.688 78.9219C322.688 79.2344 322.328 79.5938 321.609 80C319.953 81 318.281 82.4844 316.594 84.4531C315.344 85.9844 314.391 87.0312 313.734 87.5938L316.312 87.125C317.281 87 318.203 86.7188 319.078 86.2812C319.609 86.0312 320 85.9062 320.25 85.9062C320.969 85.9062 321.844 86.1719 322.875 86.7031C324.125 87.4219 324.75 87.9688 324.75 88.3438C324.75 88.5 324.516 88.7188 324.047 89C323.609 89.25 323.141 90.0938 322.641 91.5312C322.047 93.0625 321.578 94.1562 321.234 94.8125C321.453 94.8438 321.641 94.9062 321.797 95C322.391 95.3438 322.688 95.6875 322.688 96.0312C322.688 96.2188 322.5 96.4062 322.125 96.5938C317.062 97.1875 312.109 97.8125 307.266 98.4688C307.078 98.4688 306.922 98.4375 306.797 98.375C306.766 99.7188 306.75 101.125 306.75 102.594C306.75 104.469 307.422 105.891 308.766 106.859C310.266 107.766 312.484 108.219 315.422 108.219C318.641 108.219 321.156 107.875 322.969 107.188C324.406 106.688 325.328 106.078 325.734 105.359C326.672 104.141 327.406 101.922 327.938 98.7031C328.094 97.8906 328.281 97.4844 328.5 97.4844C328.656 97.4844 328.844 98.3594 329.062 100.109C329.344 102.297 329.641 104.109 329.953 105.547C330.234 106.266 330.375 106.766 330.375 107.047C330.375 108.016 329.219 108.859 326.906 109.578C323.875 110.641 320.047 111.172 315.422 111.172C311.609 111.172 308.688 110.328 306.656 108.641C305.219 107.484 304.5 105.469 304.5 102.594V90.9219C304.5 90.5156 304.297 89.6562 303.891 88.3438C303.891 88.0938 304.031 87.9688 304.312 87.9688C304.688 87.9688 305.312 88.2812 306.188 88.9062C306.281 88.9688 306.344 89.0156 306.375 89.0469L312.141 87.9688C313.922 85.0625 315.5 82.4375 316.875 80.0938C316.875 79.6875 316.688 79.4844 316.312 79.4844C316.219 79.4844 315.547 79.7188 314.297 80.1875C312.984 80.5938 311.891 80.7969 311.016 80.7969H310.688C309.094 83.2344 307.453 85.0938 305.766 86.375C304.703 87.1562 303.953 87.5469 303.516 87.5469C303.266 87.5469 303.141 87.4844 303.141 87.3594C303.141 87.2031 303.641 86.5781 304.641 85.4844C306.047 83.8906 307.453 81.6094 308.859 78.6406C309.953 76.2969 310.5 74.2188 310.5 72.4062C310.5 72.0312 310.625 71.8438 310.875 71.8438ZM307.266 90.5938C307.234 90.9062 307.172 91.4062 307.078 92.0938C306.953 93.375 306.875 94.9375 306.844 96.7812C308.969 96.4375 310.812 96.1406 312.375 95.8906V93.7812C312.375 92.5312 312.156 91.1719 311.719 89.7031C309.344 90.2969 307.984 90.5938 307.641 90.5938H307.266ZM313.875 95.6094C316.406 95.2031 318.172 94.9375 319.172 94.8125C319.109 94.625 319.078 94.4688 319.078 94.3438C319.078 94.1875 319.188 93.7812 319.406 93.125C319.844 91.75 320.062 90.6562 320.062 89.8438C320.062 88.9688 319.688 88.5312 318.938 88.5312C317.906 88.5312 316.188 88.75 313.781 89.1875L313.969 89.2812C314.75 89.6562 315.141 90.0938 315.141 90.5938C315.141 90.75 315.094 91 315 91.3438C314.75 91.6562 314.531 92.6875 314.344 94.4375C314.25 94.9375 314.094 95.3281 313.875 95.6094Z" fill="black"/>
</svg>
