<svg width="333" height="291" viewBox="0 0 333 291" fill="none" xmlns="http://www.w3.org/2000/svg">
<path d="M8.744 44.696C7.976 44.696 7.512 44.616 7.352 44.456C7.544 40.904 7.64 36.136 7.64 30.152V15.8C5.752 18.584 3.848 20.984 1.928 23C1.736 22.552 1.288 21.88 0.584 20.984C2.984 18.584 5.272 15.624 7.448 12.104C9.624 8.584 11.4 4.952 12.776 1.208C13.32 1.4 13.848 1.656 14.36 1.976C14.904 2.296 15.144 2.552 15.08 2.744C15.016 2.904 14.888 3.032 14.696 3.128C14.376 3.288 14.136 3.576 13.976 3.992C12.792 6.84 11.416 9.608 9.848 12.296V28.376V36.44C9.848 39.832 9.944 42.504 10.136 44.456C10.008 44.616 9.544 44.696 8.744 44.696ZM24.872 43.928C22.344 43.928 20.648 43.56 19.784 42.824C18.856 42.056 18.392 40.552 18.392 38.312V21.32L13.16 23.384L12.344 21.32L18.392 18.92V12.2C18.392 9.448 18.296 7.144 18.104 5.288C18.776 5.224 19.448 5.24 20.12 5.336C20.952 5.464 21.368 5.672 21.368 5.96C20.856 6.728 20.6 7.496 20.6 8.264V18.056L28.904 14.792V7.928C28.904 5.08 28.808 2.728 28.616 0.871999C29.288 0.807998 29.96 0.823997 30.632 0.919998C31.464 1.048 31.88 1.256 31.88 1.544C31.368 2.312 31.112 3.08 31.112 3.848V13.928L39.896 10.424L40.28 10.136L40.712 9.704L42.296 10.376L42.152 10.856C42.152 21.48 41.912 27.656 41.432 29.384C41.048 31.176 40.088 32.152 38.552 32.312C37.496 32.472 36.008 32.52 34.088 32.456C33.992 31.624 33.784 30.904 33.464 30.296C34.264 30.36 35.432 30.376 36.968 30.344C37.224 30.344 37.4 30.344 37.496 30.344C38.008 30.344 38.392 30.248 38.648 30.056C38.936 29.8 39.176 29.352 39.368 28.712C39.816 27.176 40.04 21.864 40.04 12.776L31.112 16.28V25.256V29.768C31.112 31.272 31.176 32.76 31.304 34.232C31.208 34.36 30.776 34.424 30.008 34.424C29.24 34.424 28.776 34.36 28.616 34.232C28.808 32.12 28.904 29.288 28.904 25.736V17.192L20.6 20.456V38.36C20.6 39.736 20.872 40.648 21.416 41.096C21.96 41.576 23.08 41.816 24.776 41.816H38.36C39.8 41.816 40.76 41.336 41.24 40.376C41.688 39.512 42.024 37.592 42.248 34.616C42.952 35.128 43.672 35.464 44.408 35.624C44.12 38.92 43.64 41.096 42.968 42.152C42.168 43.336 40.616 43.928 38.312 43.928H24.872ZM56.888 44.888C56.088 44.888 55.608 44.808 55.448 44.648C55.64 42.344 55.736 39.272 55.736 35.432V26.216V16.952C55.736 13.112 55.64 10.04 55.448 7.736C55.448 7.576 55.544 7.496 55.736 7.496C57.336 7.656 59.288 7.736 61.592 7.736H67.496C68.552 4.856 69.304 2.584 69.752 0.919998C70.36 1.048 70.968 1.272 71.576 1.592C72.184 1.88 72.456 2.12 72.392 2.312C72.328 2.472 72.2 2.6 72.008 2.696C71.72 2.856 71.496 3.144 71.336 3.56C71.24 3.848 71.08 4.28 70.856 4.856C70.344 6.2 69.96 7.16 69.704 7.736H78.392C82.008 7.736 84.888 7.64 87.032 7.448C87.224 7.448 87.32 7.544 87.32 7.736C87.128 10.456 87.032 14.152 87.032 18.824V29.912C87.032 35.896 87.128 40.696 87.32 44.312C87.192 44.472 86.728 44.552 85.928 44.552C85.128 44.552 84.696 44.472 84.632 44.312C84.696 43.928 84.728 43.496 84.728 43.016V41.72H58.04V43.208C58.04 43.72 58.072 44.2 58.136 44.648C58.104 44.808 57.688 44.888 56.888 44.888ZM58.04 39.56H84.728V31.16H71.384H58.04V39.56ZM58.04 28.952H71.384H84.728V20.696H58.04V28.952ZM58.04 18.488H71.384H84.728V9.992H58.04V18.488ZM111.896 43.4C108.408 43.4 106.072 43.048 104.888 42.344C103.576 41.608 102.92 40.12 102.92 37.88V28.76C102.92 24.92 102.824 21.88 102.632 19.64C102.632 19.448 102.728 19.352 102.92 19.352C106.472 19.544 111.256 19.64 117.272 19.64H131.672V6.248H116.696C111.896 6.248 107.096 6.344 102.296 6.536C102.2 6.376 102.152 5.88 102.152 5.048C102.152 4.216 102.2 3.736 102.296 3.608C104.28 3.8 106.92 3.896 110.216 3.896H118.136H126.056C129.384 3.896 132.024 3.8 133.976 3.608C134.136 3.608 134.216 3.704 134.216 3.896C134.056 5.336 133.976 7.096 133.976 9.176V14.504C133.976 18.92 134.072 22.456 134.264 25.112C134.136 25.24 133.672 25.304 132.872 25.304C132.072 25.304 131.64 25.24 131.576 25.112C131.64 24.6 131.672 24.072 131.672 23.528V21.944H105.224V37.928C105.224 39.208 105.624 40.04 106.424 40.424C107.256 40.872 108.968 41.096 111.56 41.096H131.336C133.096 41.096 134.392 40.872 135.224 40.424C136.056 39.944 136.664 39.048 137.048 37.736C137.4 36.616 137.672 34.712 137.864 32.024C138.6 32.504 139.368 32.824 140.168 32.984C139.912 35.896 139.56 38.008 139.112 39.32C138.568 40.856 137.688 41.928 136.472 42.536C135.32 43.112 133.56 43.4 131.192 43.4H111.896ZM162.92 44.696C162.184 44.696 161.736 44.616 161.576 44.456C161.768 41.896 161.864 38.504 161.864 34.28V29.144C161.864 27.128 161.784 25.432 161.624 24.056C161.624 23.864 161.704 23.768 161.864 23.768C163.4 23.96 165.448 24.056 168.008 24.056H174.2H180.392C182.984 24.056 185.048 23.96 186.584 23.768C186.744 23.768 186.824 23.864 186.824 24.056C186.664 25.432 186.584 27.112 186.584 29.096V34.184C186.584 38.408 186.68 41.768 186.872 44.264C186.744 44.424 186.28 44.504 185.48 44.504C184.712 44.504 184.312 44.424 184.28 44.264C184.28 44.2 184.28 44.088 184.28 43.928C184.312 43.672 184.328 43.48 184.328 43.352V42.44H164.072V43.448C164.072 43.576 164.088 43.768 164.12 44.024C164.12 44.248 164.12 44.392 164.12 44.456C164.088 44.616 163.688 44.696 162.92 44.696ZM164.072 40.376H184.328V34.088H174.2H164.072V40.376ZM148.664 36.68C147.928 36.68 147.48 36.616 147.32 36.488C147.512 34.6 147.608 32.056 147.608 28.856V21.176V13.496C147.608 10.296 147.512 7.736 147.32 5.816C147.32 5.656 147.416 5.576 147.608 5.576C149.144 5.736 151 5.816 153.176 5.816H156.008C157.192 5.816 158.12 5.768 158.792 5.672C158.984 5.672 159.08 5.72 159.08 5.816C158.888 7.384 158.792 9.544 158.792 12.296V18.776C158.792 24.152 158.888 28.456 159.08 31.688C159.08 31.816 158.984 31.88 158.792 31.88C157.32 31.752 155.816 31.688 154.28 31.688H149.72V34.088C149.72 34.92 149.752 35.72 149.816 36.488C149.784 36.616 149.4 36.68 148.664 36.68ZM164.072 32.024H174.2H184.328V26.12H164.072V32.024ZM149.72 29.48H156.584V18.728V7.976H149.72V29.48ZM163.496 20.456C163.368 20.456 163.304 20.36 163.304 20.168C163.464 19.592 163.528 18.472 163.496 16.808C163.496 16.424 163.496 16.136 163.496 15.944V11.672C163.496 8.12 163.4 5.288 163.208 3.176C163.208 3.016 163.304 2.936 163.496 2.936C164.936 3.096 166.696 3.176 168.776 3.176H174.104H179.432C181.544 3.176 183.32 3.096 184.76 2.936C184.888 2.936 184.952 3.016 184.952 3.176C184.824 4.584 184.76 5.992 184.76 7.4V11.672C184.76 15.224 184.856 18.056 185.048 20.168C185.048 20.328 184.952 20.408 184.76 20.408C183.32 20.248 181.544 20.168 179.432 20.168H174.104C169.688 20.168 166.152 20.264 163.496 20.456ZM165.704 18.152H174.104H182.504V12.584H165.704V18.152ZM165.704 10.664H174.104H182.504V5.144H165.704V10.664ZM215.576 44.504C215.416 44.248 215.032 43.736 214.424 42.968C214.296 42.84 214.216 42.744 214.184 42.68C218.248 39.864 221.192 35.592 223.016 29.864C224.136 26.28 224.696 22.824 224.696 19.496V11.768H220.616C219.432 15.96 218.152 19.208 216.776 21.512C215.88 20.904 215.208 20.52 214.76 20.36C217.384 16.2 219.288 9.8 220.472 1.16C221.08 1.256 221.672 1.432 222.248 1.688C222.856 1.976 223.144 2.216 223.112 2.408C223.08 2.6 222.984 2.76 222.824 2.888C222.536 3.08 222.36 3.4 222.296 3.848C222.04 5.288 221.64 7.208 221.096 9.608H227.816H234.584L235.016 9.464L236.504 9.944C235.576 15 234.632 18.808 233.672 21.368L231.8 20.936C232.6 18.632 233.32 15.576 233.96 11.768H226.904V19.496C226.904 22.76 227.464 26.2 228.584 29.816C230.376 35.608 233.24 39.864 237.176 42.584C236.568 43.256 236.072 43.896 235.688 44.504C232.456 42.2 229.912 38.824 228.056 34.376C226.84 31.4 226.072 28.472 225.752 25.592C225.496 28.408 224.712 31.32 223.4 34.328C221.544 38.68 218.936 42.072 215.576 44.504ZM212.552 44.12C211.912 44.344 210.232 44.456 207.512 44.456C207.128 44.456 206.824 44.456 206.6 44.456C206.408 43.72 206.152 43.064 205.832 42.488C208.552 42.552 210.28 42.552 211.016 42.488C211.496 42.456 211.736 42.216 211.736 41.768V25.88H202.664C199.624 25.88 196.616 25.976 193.64 26.168C193.544 26.008 193.496 25.576 193.496 24.872C193.496 24.136 193.544 23.704 193.64 23.576C195.144 23.768 197.176 23.864 199.736 23.864H205.88H212.024C214.104 23.864 216.152 23.768 218.168 23.576C218.264 23.704 218.312 24.12 218.312 24.824C218.312 25.528 218.264 25.912 218.168 25.976C217.464 25.912 216.744 25.88 216.008 25.88H213.848V41.768C213.848 42.472 213.768 42.984 213.608 43.304C213.416 43.688 213.064 43.96 212.552 44.12ZM197.048 41.096C196.376 41.096 195.976 41.016 195.848 40.856C196.008 39.32 196.088 37.416 196.088 35.144V32.264C196.088 31.048 196.04 30.088 195.944 29.384C195.944 29.288 195.992 29.24 196.088 29.24C196.824 29.336 197.784 29.384 198.968 29.384H201.896H204.824C206.04 29.384 207 29.336 207.704 29.24C207.768 29.24 207.8 29.288 207.8 29.384C207.736 30.152 207.704 30.952 207.704 31.784V34.184C207.704 35.784 207.768 37.384 207.896 38.984C207.896 39.144 207.832 39.224 207.704 39.224C206.36 39.064 204.744 38.984 202.856 38.984H198.008V39.944C198.008 40.072 198.024 40.264 198.056 40.52C198.056 40.68 198.056 40.792 198.056 40.856C198.024 41.016 197.688 41.096 197.048 41.096ZM198.008 37.112H201.896H205.832V31.256H198.008V37.112ZM206.744 22.184C206.648 21.64 206.408 21.016 206.024 20.312C208.712 20.376 210.376 20.376 211.016 20.312C211.496 20.28 211.736 20.056 211.736 19.64V6.056H202.904C199.96 6.056 197.016 6.152 194.072 6.344C193.976 6.184 193.928 5.752 193.928 5.048C193.928 4.344 193.976 3.928 194.072 3.8C195.672 3.96 197.64 4.04 199.976 4.04H205.88H211.784C213.544 4.04 215.512 3.96 217.688 3.8C217.784 3.928 217.832 4.344 217.832 5.048C217.832 5.72 217.784 6.088 217.688 6.152C217.048 6.088 216.408 6.056 215.768 6.056H213.848V19.592C213.848 20.232 213.768 20.712 213.608 21.032C213.416 21.384 213.08 21.64 212.6 21.8C211.832 22.056 209.88 22.184 206.744 22.184ZM197.288 20.216C196.648 20.216 196.264 20.152 196.136 20.024C196.296 18.52 196.376 16.696 196.376 14.552V11.816C196.376 10.664 196.328 9.752 196.232 9.08C196.232 8.984 196.28 8.936 196.376 8.936C197.048 9.032 197.96 9.08 199.112 9.08H201.896H204.68C205.864 9.08 206.792 9.032 207.464 8.936C207.528 8.936 207.56 8.984 207.56 9.08C207.496 9.784 207.464 10.536 207.464 11.336V13.64C207.464 15.176 207.528 16.68 207.656 18.152C207.656 18.28 207.592 18.344 207.464 18.344C205.928 18.216 204.392 18.152 202.856 18.152H198.248V19.112C198.248 19.24 198.264 19.432 198.296 19.688C198.296 19.848 198.296 19.96 198.296 20.024C198.264 20.152 197.928 20.216 197.288 20.216ZM198.248 16.28H201.896H205.592V10.952H198.248V16.28ZM8.888 126.888C8.088 126.888 7.608 126.808 7.448 126.648C7.64 124.344 7.736 121.272 7.736 117.432V108.216V98.952C7.736 95.112 7.64 92.04 7.448 89.736C7.448 89.576 7.544 89.496 7.736 89.496C9.336 89.656 11.288 89.736 13.592 89.736H19.496C20.552 86.856 21.304 84.584 21.752 82.92C22.36 83.048 22.968 83.272 23.576 83.592C24.184 83.88 24.456 84.12 24.392 84.312C24.328 84.472 24.2 84.6 24.008 84.696C23.72 84.856 23.496 85.144 23.336 85.56C23.24 85.848 23.08 86.28 22.856 86.856C22.344 88.2 21.96 89.16 21.704 89.736H30.392C34.008 89.736 36.888 89.64 39.032 89.448C39.224 89.448 39.32 89.544 39.32 89.736C39.128 92.456 39.032 96.152 39.032 100.824V111.912C39.032 117.896 39.128 122.696 39.32 126.312C39.192 126.472 38.728 126.552 37.928 126.552C37.128 126.552 36.696 126.472 36.632 126.312C36.696 125.928 36.728 125.496 36.728 125.016V123.72H10.04V125.208C10.04 125.72 10.072 126.2 10.136 126.648C10.104 126.808 9.688 126.888 8.888 126.888ZM10.04 121.56H36.728V113.16H23.384H10.04V121.56ZM10.04 110.952H23.384H36.728V102.696H10.04V110.952ZM10.04 100.488H23.384H36.728V91.992H10.04V100.488ZM63.896 125.4C60.408 125.4 58.072 125.048 56.888 124.344C55.576 123.608 54.92 122.12 54.92 119.88V110.76C54.92 106.92 54.824 103.88 54.632 101.64C54.632 101.448 54.728 101.352 54.92 101.352C58.472 101.544 63.256 101.64 69.272 101.64H83.672V88.248H68.696C63.896 88.248 59.096 88.344 54.296 88.536C54.2 88.376 54.152 87.88 54.152 87.048C54.152 86.216 54.2 85.736 54.296 85.608C56.28 85.8 58.92 85.896 62.216 85.896H70.136H78.056C81.384 85.896 84.024 85.8 85.976 85.608C86.136 85.608 86.216 85.704 86.216 85.896C86.056 87.336 85.976 89.096 85.976 91.176V96.504C85.976 100.92 86.072 104.456 86.264 107.112C86.136 107.24 85.672 107.304 84.872 107.304C84.072 107.304 83.64 107.24 83.576 107.112C83.64 106.6 83.672 106.072 83.672 105.528V103.944H57.224V119.928C57.224 121.208 57.624 122.04 58.424 122.424C59.256 122.872 60.968 123.096 63.56 123.096H83.336C85.096 123.096 86.392 122.872 87.224 122.424C88.056 121.944 88.664 121.048 89.048 119.736C89.4 118.616 89.672 116.712 89.864 114.024C90.6 114.504 91.368 114.824 92.168 114.984C91.912 117.896 91.56 120.008 91.112 121.32C90.568 122.856 89.688 123.928 88.472 124.536C87.32 125.112 85.56 125.4 83.192 125.4H63.896ZM99.128 126.696C98.744 126.152 98.2 125.624 97.496 125.112C100.248 123 102.408 119.928 103.976 115.896C105.256 112.6 106.088 108.856 106.472 104.664C107.112 104.728 107.736 104.888 108.344 105.144C109.016 105.4 109.336 105.624 109.304 105.816C109.272 105.976 109.176 106.12 109.016 106.248C108.76 106.44 108.6 106.76 108.536 107.208C108.344 108.744 108.056 110.248 107.672 111.72C109.624 116.872 113.016 120.328 117.848 122.088V111.672V101.208H108.248C105.048 101.208 101.864 101.304 98.696 101.496C98.6 101.336 98.552 100.872 98.552 100.104C98.552 99.304 98.6 98.84 98.696 98.712C101.064 98.904 104.248 99 108.248 99H117.8V91.272H110.264C107.768 91.272 105.272 91.368 102.776 91.56C102.68 91.4 102.632 90.936 102.632 90.168C102.632 89.4 102.68 88.952 102.776 88.824C104.664 89.016 107.16 89.112 110.264 89.112H117.8V86.136C117.8 84.92 117.752 83.864 117.656 82.968C118.232 82.904 118.872 82.92 119.576 83.016C120.408 83.144 120.824 83.352 120.824 83.64C120.312 84.408 120.056 85.176 120.056 85.944V89.112H127.976C130.632 89.112 133.272 89.016 135.896 88.824C135.992 88.952 136.04 89.4 136.04 90.168C136.04 90.936 135.992 91.4 135.896 91.56C133.944 91.368 131.304 91.272 127.976 91.272H120.056V99H129.656C132.856 99 136.04 98.904 139.208 98.712C139.304 98.84 139.352 99.304 139.352 100.104C139.352 100.872 139.304 101.336 139.208 101.496C136.872 101.304 133.688 101.208 129.656 101.208H120.104V109.848H128.168C130.888 109.848 133.56 109.752 136.184 109.56C136.28 109.688 136.328 110.136 136.328 110.904C136.328 111.64 136.28 112.088 136.184 112.248C134.232 112.056 131.56 111.96 128.168 111.96H120.104V122.712C122.664 123.32 125.832 123.624 129.608 123.624H140.504C139.992 124.456 139.688 125.208 139.592 125.88H129.56C123.736 125.88 119.176 125.176 115.88 123.768C111.912 122.072 108.888 119.064 106.808 114.744C105.048 120.12 102.488 124.104 99.128 126.696ZM168.248 126.696C167.544 126.696 167.112 126.616 166.952 126.456C167.144 124.44 167.24 121.704 167.24 118.248V110.04C165.864 110.808 164.584 111.464 163.4 112.008C163.016 111.24 162.536 110.648 161.96 110.232C166.696 108.312 170.952 105.32 174.728 101.256C172.552 98.568 170.824 95.88 169.544 93.192C168.136 95.624 166.408 97.912 164.36 100.056C163.72 99.416 163.16 98.936 162.68 98.616V99.192H156.776V106.872H159.992C161.048 106.872 162.104 106.824 163.16 106.728C163.256 106.792 163.304 107.192 163.304 107.928C163.304 108.664 163.256 109.064 163.16 109.128C162.392 109.032 161.336 108.984 159.992 108.984H156.776V118.92C158.216 118.568 160.44 118.04 163.448 117.336L163.64 119.4C157.944 120.904 152.104 122.392 146.12 123.864L145.64 121.608L148.28 121.032V112.68C148.28 109.224 148.184 106.376 147.992 104.136C148.632 104.072 149.272 104.088 149.912 104.184C150.68 104.312 151.064 104.52 151.064 104.808C150.552 105.576 150.296 106.344 150.296 107.112V120.552L154.712 119.448V109.32V99.192H151.352C149.976 99.192 148.872 99.24 148.04 99.336C147.944 99.336 147.896 99.288 147.896 99.192C147.992 98.712 148.04 97.752 148.04 96.312C148.04 96.024 148.04 95.816 148.04 95.688V92.184C148.04 89.24 147.944 86.904 147.752 85.176C147.752 84.984 147.848 84.888 148.04 84.888C149.864 85.08 152.296 85.176 155.336 85.176H159.032C160.248 85.176 161.464 85.112 162.68 84.984C162.872 84.984 162.968 85.048 162.968 85.176C162.776 86.808 162.68 89 162.68 91.752V98.376C164.6 96.584 166.344 94.328 167.912 91.608C169.448 88.92 170.696 86.04 171.656 82.968C172.232 83.128 172.792 83.368 173.336 83.688C173.912 84.008 174.168 84.264 174.104 84.456C174.04 84.584 173.928 84.696 173.768 84.792C173.48 84.952 173.256 85.256 173.096 85.704C173 85.928 172.872 86.264 172.712 86.712C172.456 87.352 172.264 87.816 172.136 88.104H182.696L183.176 88.008L184.616 88.68C183.144 93.256 180.776 97.496 177.512 101.4C180.808 105.048 184.584 107.784 188.84 109.608C188.392 109.96 187.896 110.584 187.352 111.48C187.096 111.352 186.712 111.16 186.2 110.904C185.72 110.648 185.352 110.456 185.096 110.328V118.344C185.096 121.704 185.192 124.36 185.384 126.312C185.256 126.472 184.808 126.552 184.04 126.552C183.272 126.552 182.872 126.472 182.84 126.312C182.84 126.248 182.84 126.152 182.84 126.024C182.872 125.8 182.888 125.624 182.888 125.496V124.632H169.352V125.544C169.352 125.672 169.368 125.864 169.4 126.12C169.4 126.28 169.4 126.392 169.4 126.456C169.368 126.616 168.984 126.696 168.248 126.696ZM169.352 122.472H182.888V111.528H176.12H169.352V122.472ZM168.248 109.416H175.928H183.656C180.936 107.688 178.424 105.544 176.12 102.984C173.72 105.48 171.096 107.624 168.248 109.416ZM176.024 99.768C178.456 96.856 180.376 93.672 181.784 90.216H176.456H171.128L170.648 91.128C172.12 94.296 173.912 97.176 176.024 99.768ZM150.104 97.08H155.336H160.568V87.24H150.104V97.08ZM12.92 208.648C12.12 208.648 11.656 208.568 11.528 208.408C11.688 206.808 11.768 204.856 11.768 202.552V196.696V184.984C10.488 188.088 9 191.048 7.304 193.864C5.576 196.776 3.896 199.112 2.264 200.872C1.848 200.008 1.384 199.336 0.872 198.856C2.76 196.936 4.664 194.344 6.584 191.08C8.504 187.784 10.04 184.52 11.192 181.288H6.632C5.608 181.288 4.104 181.352 2.12 181.48C2.024 181.384 1.976 180.952 1.976 180.184C1.976 179.416 2.024 178.984 2.12 178.888C3.72 179.016 5.32 179.08 6.92 179.08H11.768V170.056C8.952 170.536 6.152 170.952 3.368 171.304C3.208 170.6 2.984 169.976 2.696 169.432C11.304 168.248 17.336 166.936 20.792 165.496C21.176 165.976 21.496 166.52 21.752 167.128C22.04 167.704 22.088 168.024 21.896 168.088C21.768 168.152 21.608 168.136 21.416 168.04C21.16 167.88 20.84 167.864 20.456 167.992C18.792 168.536 16.648 169.08 14.024 169.624V179.08H18.536C19.528 179.08 21.016 179.016 23 178.888C23.096 178.984 23.144 179.416 23.144 180.184C23.144 180.952 23.096 181.384 23 181.48C21.528 181.352 20.04 181.288 18.536 181.288H14.024V182.728C14.952 183.752 16.376 185.432 18.296 187.768C20.408 190.328 21.736 191.976 22.28 192.712L20.792 194.536C19.608 192.744 17.352 189.736 14.024 185.512V196.984C14.024 201.752 14.12 205.56 14.312 208.408C14.184 208.568 13.72 208.648 12.92 208.648ZM25.928 206.728C25.16 206.728 24.696 206.648 24.536 206.488C24.728 204.184 24.824 201.096 24.824 197.224V187.96V178.696C24.824 174.824 24.728 171.736 24.536 169.432C24.536 169.24 24.632 169.144 24.824 169.144C26.904 169.336 29.688 169.432 33.176 169.432H37.352C38.792 169.432 40.184 169.368 41.528 169.24C41.72 169.24 41.816 169.304 41.816 169.432C41.624 172.216 41.528 175.928 41.528 180.568V191.752C41.528 197.736 41.624 202.536 41.816 206.152C41.688 206.312 41.224 206.392 40.424 206.392C39.624 206.392 39.192 206.312 39.128 206.152C39.192 205.576 39.224 204.952 39.224 204.28V202.408H27.032V204.472C27.032 205.176 27.064 205.848 27.128 206.488C27.096 206.648 26.696 206.728 25.928 206.728ZM27.032 200.2H39.224V171.688H27.032V185.944V200.2ZM53.72 208.792C52.952 208.792 52.488 208.712 52.328 208.552C52.52 204.936 52.616 200.136 52.616 194.152V186.328C52.616 183.032 52.52 180.424 52.328 178.504C52.328 178.344 52.424 178.264 52.616 178.264C54.12 178.424 55.944 178.504 58.088 178.504H63.608V176.872V170.776H57.032C54.824 170.776 52.632 170.872 50.456 171.064C50.36 170.904 50.312 170.424 50.312 169.624C50.312 168.824 50.36 168.36 50.456 168.232C53.016 168.424 56.44 168.52 60.728 168.52H71H81.272C84.728 168.52 88.152 168.424 91.544 168.232C91.64 168.36 91.688 168.824 91.688 169.624C91.688 170.424 91.64 170.904 91.544 171.064C89.88 170.872 87.624 170.776 84.776 170.776H78.008V176.872C78.008 177.416 78.008 177.96 78.008 178.504H83.768C86.008 178.504 87.928 178.424 89.528 178.264C89.72 178.264 89.816 178.344 89.816 178.504C89.624 181.8 89.528 186.216 89.528 191.752V205.048C89.528 205.976 89.384 206.664 89.096 207.112C88.84 207.56 88.376 207.896 87.704 208.12C86.616 208.408 83.784 208.552 79.208 208.552C79.112 207.912 78.824 207.096 78.344 206.104C80.424 206.2 82.84 206.232 85.592 206.2C85.88 206.2 86.072 206.2 86.168 206.2C86.616 206.168 86.92 206.072 87.08 205.912C87.24 205.752 87.32 205.464 87.32 205.048V180.712H77.912C77.784 182.728 77.592 184.408 77.336 185.752C78.936 187.672 80.52 189.768 82.088 192.04C83.688 194.28 84.904 196.152 85.736 197.656L84.2 199.384C82.856 196.632 80.424 192.92 76.904 188.248C75.592 193.432 73.288 197.704 69.992 201.064C69.544 200.456 69 199.928 68.36 199.48C72.84 195.064 75.288 188.808 75.704 180.712H65.768C65.672 182.408 65.48 184.104 65.192 185.8C67.656 188.936 69.4 191.576 70.424 193.72L68.984 195.592C68.184 193.8 66.76 191.416 64.712 188.44C63.336 193.56 61.064 197.768 57.896 201.064C57.48 200.488 56.92 199.96 56.216 199.48C60.664 195.064 63.096 188.808 63.512 180.712H54.824V194.632C54.824 200.456 54.92 205.096 55.112 208.552C54.984 208.712 54.52 208.792 53.72 208.792ZM65.864 178.504H75.8V176.872V170.776H70.808H65.864V176.872C65.864 177.416 65.864 177.96 65.864 178.504ZM137.096 208.6C135.752 207 133.8 205.08 131.24 202.84C128.648 200.536 126.2 198.568 123.896 196.936L125.576 195.736C128.072 197.464 130.552 199.368 133.016 201.448C135.64 203.688 137.624 205.592 138.968 207.16L137.096 208.6ZM100.328 208.552C99.816 207.976 99.272 207.432 98.696 206.92C101.288 205.448 103.768 203.704 106.136 201.688C108.664 199.576 110.6 197.528 111.944 195.544C112.552 195.8 113.112 196.12 113.624 196.504C114.168 196.92 114.376 197.208 114.248 197.368C114.152 197.496 114.008 197.576 113.816 197.608C113.496 197.64 113.208 197.816 112.952 198.136C111.576 199.736 109.912 201.384 107.96 203.08C105.432 205.32 102.888 207.144 100.328 208.552ZM104.696 194.008C103.928 194.008 103.464 193.944 103.304 193.816C103.496 190.648 103.592 186.424 103.592 181.144V174.808C103.592 172.152 103.496 170.04 103.304 168.472C103.304 168.28 103.4 168.184 103.592 168.184C105.576 168.376 108.216 168.472 111.512 168.472H119.432H127.352C130.68 168.472 133.32 168.376 135.272 168.184C135.464 168.184 135.56 168.28 135.56 168.472C135.368 170.008 135.272 172.104 135.272 174.76V181.048C135.272 186.264 135.368 190.44 135.56 193.576C135.432 193.704 134.968 193.768 134.168 193.768C133.368 193.768 132.952 193.704 132.92 193.576C132.92 193.512 132.92 193.416 132.92 193.288C132.952 193.064 132.968 192.904 132.968 192.808V191.992H105.848V192.904C105.848 193.032 105.864 193.224 105.896 193.48C105.896 193.64 105.896 193.752 105.896 193.816C105.864 193.944 105.464 194.008 104.696 194.008ZM105.848 189.784H119.384H132.968V170.728H105.848V189.784ZM4.952 289.736L3.032 288.248C4.312 286.328 5.752 283.944 7.352 281.096C8.76 278.6 10.232 275.8 11.768 272.696C13.176 273.944 13.8 274.712 13.64 275C13.576 275.16 13.448 275.272 13.256 275.336C12.936 275.464 12.68 275.72 12.488 276.104C9.96 281.256 7.448 285.8 4.952 289.736ZM11.144 289.4C11.048 289.272 11 288.824 11 288.056C11 287.288 11.048 286.888 11.144 286.856C11.848 286.92 12.552 286.952 13.256 286.952H15.416V279.416C15.416 276.248 15.32 273.736 15.128 271.88C15.128 271.688 15.224 271.592 15.416 271.592C18.584 271.784 22.824 271.88 28.136 271.88H34.52C37.176 271.88 39.288 271.784 40.856 271.592C41.048 271.592 41.144 271.688 41.144 271.88C40.952 273.736 40.856 276.248 40.856 279.416V286.952H42.632C43.016 286.952 43.592 286.92 44.36 286.856C44.456 286.888 44.504 287.288 44.504 288.056C44.504 288.824 44.456 289.272 44.36 289.4C42.312 289.208 39.544 289.112 36.056 289.112H27.752H19.448C16.664 289.112 13.896 289.208 11.144 289.4ZM17.528 286.952H23.24V280.472V273.944H17.528V286.952ZM25.16 286.952H31.016V280.472V273.944H25.16V286.952ZM32.936 286.952H38.696V280.472V273.944H32.936V286.952ZM10.28 267.56C9.448 266.824 8.168 265.912 6.44 264.824C4.648 263.768 3.064 262.936 1.688 262.328L2.936 260.6C6.84 262.36 9.688 264.04 11.48 265.64L10.28 267.56ZM17 267.32C16.872 267.32 16.808 267.224 16.808 267.032C16.968 266.456 17.032 265.304 17 263.576C17 263.128 17 262.808 17 262.616V258.152C17 254.44 16.904 251.48 16.712 249.272C16.712 249.112 16.808 249.032 17 249.032C18.536 249.192 20.392 249.272 22.568 249.272H28.184H33.8C35.976 249.272 37.832 249.192 39.368 249.032C39.496 249.032 39.56 249.112 39.56 249.272C39.432 250.744 39.368 252.216 39.368 253.688V258.152C39.368 261.864 39.464 264.824 39.656 267.032C39.656 267.192 39.56 267.272 39.368 267.272C37.832 267.112 35.976 267.032 33.8 267.032H28.184C23.512 267.032 19.784 267.128 17 267.32ZM19.16 264.968H28.136H37.16V259.112H19.16V264.968ZM19.16 257.096H28.136H37.16V251.336H19.16V257.096ZM12.824 254.36C12.024 253.624 10.776 252.728 9.08 251.672C7.416 250.68 5.832 249.88 4.328 249.272L5.576 247.592C7.112 248.2 8.68 248.968 10.28 249.896C11.944 250.824 13.224 251.688 14.12 252.488L12.824 254.36ZM71 290.744C70.2 290.744 69.72 290.664 69.56 290.504C69.752 288.84 69.848 286.584 69.848 283.736V276.92C67.768 279.576 64.952 282.072 61.4 284.408C58.072 286.648 54.664 288.392 51.176 289.64C50.792 288.84 50.296 288.2 49.688 287.72C52.856 286.696 56.008 285.224 59.144 283.304C62.408 281.32 65.08 279.192 67.16 276.92H58.712C55.896 276.92 53.096 277.016 50.312 277.208C50.216 277.048 50.168 276.6 50.168 275.864C50.168 275.096 50.216 274.648 50.312 274.52C52.712 274.712 55.96 274.808 60.056 274.808H69.848V273.032C69.848 272.552 69.816 271.896 69.752 271.064C70.328 271 70.968 271.016 71.672 271.112C72.504 271.24 72.92 271.448 72.92 271.736C72.408 272.248 72.152 272.76 72.152 273.272V274.808H81.944H86.888C88.328 274.808 89.96 274.728 91.784 274.568C91.88 274.696 91.928 275.128 91.928 275.864C91.928 276.6 91.88 277.048 91.784 277.208C89.672 277.016 86.84 276.92 83.288 276.92H74.792C76.808 279.224 79.464 281.336 82.76 283.256C85.928 285.08 89.208 286.456 92.6 287.384C91.992 287.96 91.48 288.616 91.064 289.352C87.416 288.2 83.912 286.552 80.552 284.408C77 282.136 74.2 279.672 72.152 277.016V283.784C72.152 286.6 72.248 288.84 72.44 290.504C72.312 290.664 71.832 290.744 71 290.744ZM52.28 271.304C51.864 270.568 51.368 269.944 50.792 269.432C53.8 268.568 56.792 267.352 59.768 265.784C62.904 264.12 65.512 262.328 67.592 260.408H59.48C56.76 260.408 54.056 260.504 51.368 260.696C51.272 260.536 51.224 260.104 51.224 259.4C51.224 258.664 51.272 258.232 51.368 258.104C54.152 258.296 57.912 258.392 62.648 258.392H73.976C69.752 256.664 65.864 255.464 62.312 254.792L63.512 253.256C66.008 253.736 68.648 254.44 71.432 255.368C74.92 254.216 78.024 252.776 80.744 251.048H68.024C63.8 251.048 59.576 251.144 55.352 251.336C55.256 251.176 55.208 250.744 55.208 250.04C55.208 249.304 55.256 248.872 55.352 248.744C57.08 248.936 59.416 249.032 62.36 249.032H69.416H83.528L83.96 248.888L85.688 250.184C82.872 252.456 79.064 254.52 74.264 256.376C74.456 256.472 74.744 256.584 75.128 256.712C76.6 257.32 77.624 257.784 78.2 258.104L78.008 258.392H88.856L89.384 258.248L91.112 259.016C90.984 259.144 90.808 259.352 90.584 259.64C87.192 263.64 84.696 266.312 83.096 267.656L81.08 266.648C83 265.08 85.032 263 87.176 260.408H73.208V268.52C73.208 269.256 73.112 269.784 72.92 270.104C72.728 270.424 72.344 270.68 71.768 270.872C70.936 271.096 68.728 271.208 65.144 271.208C65.08 270.856 64.856 270.328 64.472 269.624C64.376 269.464 64.312 269.336 64.28 269.24C66.936 269.336 68.872 269.336 70.088 269.24C70.44 269.208 70.664 269.144 70.76 269.048C70.888 268.952 70.952 268.76 70.952 268.472V260.408H70.472C68.392 262.648 65.592 264.792 62.072 266.84C58.808 268.76 55.544 270.248 52.28 271.304ZM101.048 289.592C100.312 289.592 99.864 289.512 99.704 289.352C99.896 287.176 99.992 284.296 99.992 280.712V272.024V263.336C99.992 259.72 99.896 256.84 99.704 254.696C99.704 254.6 99.8 254.552 99.992 254.552C100.632 254.648 101.496 254.696 102.584 254.696H105.224C106.184 252.04 106.936 249.432 107.48 246.872C108.12 247.032 108.728 247.288 109.304 247.64C109.912 247.96 110.184 248.216 110.12 248.408C110.056 248.568 109.944 248.696 109.784 248.792C109.496 248.952 109.272 249.256 109.112 249.704C108.376 251.912 107.784 253.576 107.336 254.696H111.416C112.792 254.696 114.152 254.632 115.496 254.504C115.688 254.504 115.784 254.568 115.784 254.696C115.592 256.712 115.496 259.432 115.496 262.856V271.016C115.496 277 115.592 281.8 115.784 285.416C115.784 285.608 115.688 285.704 115.496 285.704C113.864 285.512 111.64 285.416 108.824 285.416H102.104V287.384C102.104 288.056 102.136 288.712 102.2 289.352C102.168 289.512 101.784 289.592 101.048 289.592ZM131.96 289.352C130.264 289.48 128.008 289.432 125.192 289.208C125.064 288.216 124.824 287.464 124.472 286.952C126.936 287.144 129.24 287.24 131.384 287.24C132.312 287.24 132.968 287 133.352 286.52C134.12 285.656 134.728 283.064 135.176 278.744C135.656 274.328 136.072 267.032 136.424 256.856H123.224C121.848 260.312 120.312 263.288 118.616 265.784C118.328 265.528 117.688 265.112 116.696 264.536C119.864 260.344 122.264 254.392 123.896 246.68C124.504 246.84 125.08 247.064 125.624 247.352C126.232 247.672 126.52 247.928 126.488 248.12C126.456 248.28 126.344 248.424 126.152 248.552C125.864 248.744 125.672 249.048 125.576 249.464C124.936 251.832 124.408 253.576 123.992 254.696H131.288H138.632V256.04C138.216 267.368 137.784 275.176 137.336 279.464C136.888 283.944 136.2 286.744 135.272 287.864C134.504 288.76 133.4 289.256 131.96 289.352ZM102.104 283.256H113.336V270.392H102.104V276.824V283.256ZM129.464 277.448C128.728 276.008 127.624 274.216 126.152 272.072C124.488 269.64 123.048 267.704 121.832 266.264L123.656 265.208C127.24 269.656 129.8 273.32 131.336 276.2L129.464 277.448ZM102.104 268.28H113.336V256.808H102.104V262.568V268.28ZM148.184 290.6C147.896 290.184 147.384 289.608 146.648 288.872C149.08 288.232 151.576 287.384 154.136 286.328C156.824 285.272 158.904 284.248 160.376 283.256C160.92 283.576 161.4 283.992 161.816 284.504C162.264 285.016 162.408 285.32 162.248 285.416C162.12 285.512 161.96 285.528 161.768 285.464C161.448 285.368 161.112 285.416 160.76 285.608C159.128 286.472 157.448 287.256 155.72 287.96C153.224 289.016 150.712 289.896 148.184 290.6ZM185.816 290.552C182.456 288.824 177.816 286.92 171.896 284.84L173.288 283.352C175.976 284.248 178.584 285.208 181.112 286.232C183.576 287.192 185.736 288.104 187.592 288.968L185.816 290.552ZM151.64 282.008C151.512 282.008 151.448 281.912 151.448 281.72C151.608 281.208 151.672 280.168 151.64 278.6C151.64 278.216 151.64 277.928 151.64 277.736V273.704C151.64 270.344 151.544 267.688 151.352 265.736C151.352 265.544 151.448 265.448 151.64 265.448C153.432 265.64 155.8 265.736 158.744 265.736H165.848V261.608H156.056C152.792 261.608 149.528 261.704 146.264 261.896C146.168 261.736 146.12 261.288 146.12 260.552C146.12 259.784 146.168 259.336 146.264 259.208C147.928 259.368 149.928 259.448 152.264 259.448H158.312V253.832H153.992C153.032 253.832 151.592 253.896 149.672 254.024C149.576 253.928 149.528 253.512 149.528 252.776C149.528 252.008 149.576 251.576 149.672 251.48C151.08 251.608 152.52 251.672 153.992 251.672H158.312V249.32C158.312 248.68 158.28 247.848 158.216 246.824C158.76 246.76 159.384 246.776 160.088 246.872C160.92 247 161.336 247.208 161.336 247.496C160.824 248.136 160.568 248.824 160.568 249.56V251.672H173.576V249.32C173.576 248.68 173.544 247.848 173.48 246.824C174.024 246.76 174.648 246.776 175.352 246.872C176.184 247 176.6 247.208 176.6 247.496C176.088 248.136 175.832 248.824 175.832 249.56V251.672H180.296C181.288 251.672 182.776 251.608 184.76 251.48C184.856 251.576 184.904 252.008 184.904 252.776C184.904 253.512 184.856 253.928 184.76 254.024C183.288 253.896 181.8 253.832 180.296 253.832H175.832V259.448H181.832C183.656 259.448 185.656 259.368 187.832 259.208C187.928 259.336 187.976 259.784 187.976 260.552C187.976 261.288 187.928 261.736 187.832 261.896C185.4 261.704 182.12 261.608 177.992 261.608H168.104V265.736H175.352C178.424 265.736 180.84 265.64 182.6 265.448C182.728 265.448 182.792 265.544 182.792 265.736C182.664 267.016 182.6 268.344 182.6 269.72V273.752C182.6 277.08 182.696 279.736 182.888 281.72C182.888 281.912 182.792 282.008 182.6 282.008C180.68 281.816 178.104 281.72 174.872 281.72H167.096H159.368C156.136 281.72 153.56 281.816 151.64 282.008ZM153.8 279.848H165.848V274.616H159.8H153.8V279.848ZM168.104 279.848H174.248H180.392V274.616H168.104V279.848ZM153.8 272.744H165.848V267.656H159.8H153.8V272.744ZM168.104 272.744H174.248H180.392V267.656H168.104V272.744ZM160.568 259.448H173.576V253.832H167.048H160.568V259.448ZM201.224 290.36C199.624 290.552 197.8 290.6 195.752 290.504C195.752 289.736 195.512 288.968 195.032 288.2C197.464 288.36 199.272 288.36 200.456 288.2C201.224 288.104 201.768 287.816 202.088 287.336C203.336 285.64 203.96 280.776 203.96 272.744C203.96 271.272 203.912 269.816 203.816 268.376C201.448 272.664 198.696 276.136 195.56 278.792C195.144 278.056 194.616 277.432 193.976 276.92C195.704 275.672 197.448 273.896 199.208 271.592C201 269.288 202.408 266.984 203.432 264.68C202.952 261.864 202.184 259.4 201.128 257.288C199.432 259.112 197.528 260.904 195.416 262.664C195.064 262.216 194.536 261.736 193.832 261.224C195.976 259.56 198.056 257.592 200.072 255.32C198.664 252.952 196.824 250.792 194.552 248.84L196.136 247.544C198.408 249.528 200.2 251.528 201.512 253.544C203.336 251.272 204.776 249.144 205.832 247.16C206.376 247.48 206.872 247.848 207.32 248.264C207.8 248.712 207.992 249.032 207.896 249.224C207.832 249.352 207.688 249.448 207.464 249.512C207.144 249.576 206.872 249.8 206.648 250.184C205.464 252.008 204.152 253.784 202.712 255.512C204.088 258.04 205.032 260.856 205.544 263.96C205.96 266.456 206.168 269.4 206.168 272.792C206.168 281.4 205.384 286.776 203.816 288.92C203.176 289.688 202.312 290.168 201.224 290.36ZM228.488 290.408C227.368 290.536 225.288 290.504 222.248 290.312C222.184 289.384 221.944 288.616 221.528 288.008C223.384 288.136 225.496 288.2 227.864 288.2C228.664 288.264 229.256 288.024 229.64 287.48C230.376 286.616 230.952 283.928 231.368 279.416C231.816 274.712 232.2 267.048 232.52 256.424H214.472C212.744 260.264 210.872 263.432 208.856 265.928C208.344 265.416 207.704 264.952 206.936 264.536C208.76 262.456 210.456 259.848 212.024 256.712C213.496 253.704 214.712 250.488 215.672 247.064C216.248 247.224 216.808 247.448 217.352 247.736C217.928 248.088 218.184 248.36 218.12 248.552C218.056 248.68 217.944 248.792 217.784 248.888C217.464 249.048 217.24 249.352 217.112 249.8C216.856 250.504 216.472 251.56 215.96 252.968C215.736 253.544 215.576 253.976 215.48 254.264H225.128H234.824C234.824 254.744 234.808 255.224 234.776 255.704C234.392 267.704 233.992 275.88 233.576 280.232C233.16 284.904 232.52 287.784 231.656 288.872C230.984 289.8 229.928 290.312 228.488 290.408ZM213.8 282.488C213.064 282.488 212.648 282.424 212.552 282.296C212.68 280.76 212.744 279.176 212.744 277.544V272.744V267.944C212.744 266.312 212.68 264.728 212.552 263.192C212.552 263 212.616 262.904 212.744 262.904C214.376 263.096 216.552 263.192 219.272 263.192H222.536C223.912 263.192 225 263.144 225.8 263.048C225.928 263.048 225.992 263.096 225.992 263.192C225.864 264.472 225.8 265.752 225.8 267.032V270.92C225.8 274.12 225.896 276.68 226.088 278.6C226.088 278.76 225.992 278.84 225.8 278.84C224.296 278.68 222.472 278.6 220.328 278.6H214.856V280.472C214.856 281.112 214.888 281.72 214.952 282.296C214.92 282.424 214.536 282.488 213.8 282.488ZM214.856 276.488H223.688V270.92V265.304H214.856V276.488ZM255.128 290.6C254.68 289.8 254.2 289.208 253.688 288.824C257.464 287.384 260.152 285.128 261.752 282.056C263.064 279.56 263.88 275.928 264.2 271.16H260.984C259.64 271.16 258.584 271.208 257.816 271.304C257.72 271.304 257.672 271.256 257.672 271.16C257.768 270.68 257.816 269.688 257.816 268.184C257.816 267.896 257.816 267.688 257.816 267.56V263.912C257.816 260.872 257.72 258.472 257.528 256.712C257.528 256.52 257.624 256.424 257.816 256.424C259.608 256.616 262.008 256.712 265.016 256.712H272.264C274.28 252.808 275.688 249.576 276.488 247.016C277.096 247.24 277.688 247.544 278.264 247.928C278.84 248.312 279.08 248.6 278.984 248.792C278.92 248.952 278.792 249.064 278.6 249.128C278.312 249.256 278.072 249.528 277.88 249.944C276.888 252.248 275.832 254.504 274.712 256.712H277.304C278.392 256.712 279.24 256.664 279.848 256.568C279.944 256.568 279.992 256.616 279.992 256.712C279.896 257.576 279.848 258.776 279.848 260.312V263.96C279.848 266.968 279.944 269.368 280.136 271.16C280.136 271.256 280.04 271.304 279.848 271.304C279.08 271.208 278.04 271.16 276.728 271.16H273.608V286.232C273.608 286.808 273.704 287.176 273.896 287.336C274.12 287.528 274.6 287.624 275.336 287.624H280.472C281.112 287.624 281.528 287.272 281.72 286.568C281.944 285.8 282.072 284.12 282.104 281.528C282.968 282.008 283.656 282.312 284.168 282.44C284.04 285.416 283.752 287.384 283.304 288.344C282.856 289.304 281.976 289.784 280.664 289.784H275.144C273.64 289.784 272.632 289.544 272.12 289.064C271.608 288.616 271.352 287.688 271.352 286.28V278.744V271.16H266.552C266.104 276.376 265.16 280.36 263.72 283.112C261.992 286.472 259.128 288.968 255.128 290.6ZM248.216 287.96C248.024 287.384 247.576 286.712 246.872 285.944C247.448 285.56 247.96 285.08 248.408 284.504C249.016 283.672 249.32 282.792 249.32 281.864V264.488H245.576C244.744 264.488 243.496 264.552 241.832 264.68C241.736 264.584 241.688 264.152 241.688 263.384C241.688 262.584 241.736 262.12 241.832 261.992C243.176 262.152 244.792 262.232 246.68 262.232H249.128C250.184 262.232 251 262.184 251.576 262.088C251.736 262.088 251.816 262.136 251.816 262.232C251.656 263.608 251.576 265.288 251.576 267.272V272.36V282.44L257.432 278.456C257.592 279.064 257.848 279.704 258.2 280.376C257.24 281.08 256.008 281.992 254.504 283.112C250.632 285.928 248.536 287.544 248.216 287.96ZM259.976 269.048H277.592V258.872H268.76H259.976V269.048ZM252.536 257.24C251.832 256.28 250.792 255.048 249.416 253.544C247.944 251.912 246.648 250.616 245.528 249.656L247.064 248.264C249.912 250.728 252.28 253.144 254.168 255.512L252.536 257.24ZM264.296 256.232C263.56 253.8 262.136 251.048 260.024 247.976L261.896 247.16C262.856 248.472 263.736 249.88 264.536 251.384C265.432 252.984 266.04 254.296 266.36 255.32L264.296 256.232ZM308.36 290.744C307.592 290.744 307.16 290.664 307.064 290.504C307.192 289.096 307.256 287.64 307.256 286.136V281.768V277.352C307.256 275.848 307.192 274.392 307.064 272.984C307.064 272.824 307.128 272.744 307.256 272.744C308.6 272.904 310.232 272.984 312.152 272.984H317.048V264.2H311C309.176 264.2 307.176 264.28 305 264.44C304.904 264.312 304.856 263.864 304.856 263.096C304.856 262.328 304.904 261.88 305 261.752C306.664 261.912 308.664 261.992 311 261.992H317.048V252.152C313.56 252.792 309.656 253.336 305.336 253.784C305.144 253.08 304.904 252.44 304.616 251.864C315.304 250.584 323.016 249.096 327.752 247.4C328.168 247.88 328.52 248.424 328.808 249.032C329.096 249.64 329.144 249.96 328.952 249.992C328.824 250.024 328.68 249.992 328.52 249.896C328.232 249.736 327.896 249.72 327.512 249.848C324.984 250.616 322.248 251.256 319.304 251.768V261.992H325.784C327.96 261.992 330.12 261.896 332.264 261.704C332.36 261.832 332.408 262.296 332.408 263.096C332.408 263.864 332.36 264.328 332.264 264.488C330.696 264.296 328.536 264.2 325.784 264.2H319.304V272.984H324.248C326.2 272.984 327.848 272.904 329.192 272.744C329.32 272.744 329.384 272.824 329.384 272.984C329.256 274.392 329.192 275.832 329.192 277.304V281.672C329.192 285.288 329.288 288.168 329.48 290.312C329.352 290.472 328.888 290.552 328.088 290.552C327.288 290.552 326.872 290.472 326.84 290.312C326.84 290.248 326.84 290.136 326.84 289.976C326.872 289.72 326.888 289.528 326.888 289.4V288.44H309.464V289.496C309.464 289.624 309.48 289.816 309.512 290.072C309.512 290.296 309.512 290.44 309.512 290.504C309.48 290.664 309.096 290.744 308.36 290.744ZM295.976 288.92C295.656 288.216 295.192 287.592 294.584 287.048C296.184 285.832 296.984 284.392 296.984 282.728V264.488H293.384C292.168 264.488 290.984 264.536 289.832 264.632C289.736 264.568 289.688 264.152 289.688 263.384C289.688 262.584 289.736 262.136 289.832 262.04C291.368 262.168 292.92 262.232 294.488 262.232H296.84C297.608 262.232 298.376 262.2 299.144 262.136C299.304 262.136 299.384 262.168 299.384 262.232C299.224 263.672 299.144 265.432 299.144 267.512V272.84V283.448L304.52 279.56C304.776 280.264 305.064 280.92 305.384 281.528C305.256 281.624 305.048 281.784 304.76 282.008C301.048 284.76 298.776 286.472 297.944 287.144C296.952 287.912 296.296 288.504 295.976 288.92ZM309.464 286.28H318.152H326.888V275.192H309.464V286.28ZM299.24 256.856C298.728 256.088 297.784 254.968 296.408 253.496C295 252.024 293.8 250.856 292.808 249.992L294.248 248.6C297.288 251.192 299.48 253.384 300.824 255.176L299.24 256.856Z" fill="white"/>
</svg>
