<svg width="470" height="237" viewBox="0 0 470 237" fill="none" xmlns="http://www.w3.org/2000/svg">
<path d="M80.75 29.1406H55.5312V39.9688H80.75V29.1406ZM53.2812 45.125V26.9844H83.0469V45.0781H80.75V42.2188H55.5312V45.125H53.2812ZM70.1094 19.25H89.1406V21.4531H47.0469V19.25H67.7656V10.5312H55.1562C53.5938 13.3125 51.9375 15.6719 50.1875 17.6094C49.75 17.2656 49.0625 16.8438 48.125 16.3438C51.5938 12.7812 54.4531 7.875 56.7031 1.625L58.9531 2.23438C58.3594 3.89062 57.4844 5.92188 56.3281 8.32812H67.7656V1.01562H70.1094V8.32812H85.25V10.5312H70.1094V19.25ZM113.234 16.1562V5.28125H99.0781V16.1562H113.234ZM115.438 3.17188V18.3125H96.875V3.17188H115.438ZM106.062 24.4531H116.047C116.047 24.4844 116.031 24.875 116 25.625C115.562 34.7188 115 40.1719 114.312 41.9844C114.125 42.4219 113.922 42.7656 113.703 43.0156C113.047 43.7031 112.172 44.0781 111.078 44.1406C109.453 44.2031 107.688 44.1719 105.781 44.0469C105.719 43.1719 105.5 42.4062 105.125 41.75C106.906 41.9375 108.594 42.0312 110.188 42.0312C110.938 42 111.469 41.8281 111.781 41.5156C112.625 40.5469 113.25 35.6094 113.656 26.7031C113.656 26.6719 113.656 26.6406 113.656 26.6094H105.781C105 33.3281 103 38.3281 99.7812 41.6094C98.5625 42.7969 97.1719 43.8281 95.6094 44.7031C95.1719 43.9844 94.625 43.4219 93.9688 43.0156C98.625 40.5469 101.609 36.3438 102.922 30.4062C103.203 29.2188 103.422 27.9531 103.578 26.6094H94.8125V24.4531H103.812C103.906 23.2969 104.016 21.6875 104.141 19.625H106.391C106.266 21.7188 106.156 23.3281 106.062 24.4531ZM125.047 6.73438V32.9844H122.75V6.73438H125.047ZM133.109 1.90625H135.359V41.0469C135.359 42.6406 134.828 43.6562 133.766 44.0938C133.672 44.125 133.594 44.1562 133.531 44.1875C132.406 44.4688 129.734 44.5938 125.516 44.5625C125.328 43.8438 125.016 43.0938 124.578 42.3125C127.859 42.4062 130.266 42.4062 131.797 42.3125C132.641 42.25 133.078 41.8438 133.109 41.0938V1.90625ZM180.266 4.85938L182.047 6.125C178.703 10.0312 174.312 13.7344 168.875 17.2344C167.594 18.0469 166.359 18.7812 165.172 19.4375V41.0469C165.172 42.6094 164.641 43.5781 163.578 43.9531C163.359 44.0469 163.156 44.1094 162.969 44.1406C162.031 44.3906 159.297 44.5156 154.766 44.5156H153.406C153.281 43.9531 152.953 43.1875 152.422 42.2188C157.047 42.375 160.062 42.3906 161.469 42.2656C162.25 42.2344 162.672 41.9688 162.734 41.4688C162.766 41.3125 162.781 41.1719 162.781 41.0469V17.2812H164.656C169.031 14.8125 173.125 11.7188 176.938 8C177.219 7.71875 177.469 7.46875 177.688 7.25H144.688V5H179.75L180.266 4.85938ZM232.062 6.875L230.469 8.23438C228.938 6.48438 226.812 4.67188 224.094 2.79688L225.688 1.57812C228.469 3.42188 230.594 5.1875 232.062 6.875ZM203.891 30.4531L204.312 32.5156C202.5 33.2656 199.797 34.3281 196.203 35.7031C193.891 36.6094 192.234 37.2656 191.234 37.6719L190.438 35.375C191.094 35.1562 192.203 34.7656 193.766 34.2031C194.922 33.7656 195.812 33.4375 196.438 33.2188V15.0312H190.859V12.875H196.438V1.48438H198.641V12.875H203.703V15.0312H198.641V32.4219L203.891 30.4531ZM230.047 16.625L232.203 17.0469C230.484 23.5469 228.188 28.9531 225.312 33.2656C226.688 38.9219 228.391 41.7656 230.422 41.7969C231.266 41.7969 231.812 40.1094 232.062 36.7344C232.125 35.7969 232.188 34.7031 232.25 33.4531C232.812 33.9844 233.438 34.375 234.125 34.625C233.844 39.2188 233.266 42.0469 232.391 43.1094C231.828 43.7344 231.094 44.0469 230.188 44.0469C227.469 43.9844 225.312 41.1562 223.719 35.5625C221.156 39 218.172 41.875 214.766 44.1875C214.359 43.625 213.812 43.0781 213.125 42.5469C217 40.0781 220.281 36.8594 222.969 32.8906C221.812 27.6406 221.031 20.3281 220.625 10.9531H208.25V18.2656H217.766C217.766 18.2969 217.75 18.6562 217.719 19.3438C217.594 28.3125 217.297 33.4688 216.828 34.8125C216.734 35.0312 216.656 35.2031 216.594 35.3281C216.031 35.9844 215.25 36.3594 214.25 36.4531C212.438 36.4531 210.938 36.4219 209.75 36.3594C209.688 35.5156 209.5 34.8281 209.188 34.2969C210.438 34.4219 211.875 34.4844 213.5 34.4844C214.094 34.4531 214.5 34.2812 214.719 33.9688C215.219 33.2812 215.531 28.75 215.656 20.375C215.656 20.3438 215.656 20.3125 215.656 20.2812H208.25V23.0938C208.219 32.7812 206.25 39.9688 202.344 44.6562C202 44.125 201.422 43.625 200.609 43.1562C204.078 39.0625 205.891 32.8906 206.047 24.6406C206.047 24.1406 206.047 23.625 206.047 23.0938V8.79688H220.531C220.5 6.51562 220.453 3.90625 220.391 0.96875H222.641C222.641 4.53125 222.672 7.14062 222.734 8.79688H233.422V10.9531H222.781C223.062 18.2344 223.688 24.6719 224.656 30.2656C226.844 26.4531 228.641 21.9062 230.047 16.625ZM281.328 10.25H261.078V17.6562H276.594V34.9062C276.594 36.2188 276.219 37.0781 275.469 37.4844C275.281 37.5781 275.078 37.6562 274.859 37.7188C273.734 38.0312 270.938 38.1875 266.469 38.1875C266.344 37.5312 266.062 36.75 265.625 35.8438C269.469 35.9375 272 35.9531 273.219 35.8906C273.875 35.6406 274.234 35.3125 274.297 34.9062V19.9062H261.078V44.6562H258.688V19.9062H246.125V38.4219H243.875V17.6562H258.688V10.25H238.719V7.95312H258.688V0.78125H261.078V7.95312H281.328V10.25ZM302.234 22.2969V10.8125H290.75V22.2969H302.234ZM290.75 37.25H302.234V24.4062H290.75V37.25ZM296.234 0.875L298.672 1.4375C297.703 4.3125 296.844 6.73438 296.094 8.70312H304.438V39.4062H290.75V43.3438H288.594V8.70312H293.938C295 5.67188 295.766 3.0625 296.234 0.875ZM328.016 8.70312V10.0625C327.453 25.4375 326.766 34.9219 325.953 38.5156C325.578 40.0781 325.125 41.1875 324.594 41.8438C323.812 42.75 322.703 43.25 321.266 43.3438C319.484 43.4375 317.172 43.3906 314.328 43.2031C314.172 42.2344 313.922 41.4844 313.578 40.9531C316.141 41.1406 318.484 41.2344 320.609 41.2344C321.609 41.2031 322.281 40.9688 322.625 40.5312C323.75 39.3125 324.594 34.125 325.156 24.9688C325.375 21.2188 325.578 16.5156 325.766 10.8594H312.312C310.812 14.5156 309.25 17.4844 307.625 19.7656C307.438 19.6094 306.781 19.2031 305.656 18.5469C308.812 14.4531 311.25 8.5 312.969 0.6875L315.266 1.20312C314.703 3.73438 313.984 6.23438 313.109 8.70312H328.016ZM320.562 30.2188L318.641 31.4375C317.016 28.375 314.531 24.7969 311.188 20.7031C311.062 20.5469 310.953 20.4062 310.859 20.2812L312.734 19.2031C316.453 23.8281 319.062 27.5 320.562 30.2188ZM375.594 8.89062L373.859 10.2031C372.391 8.26562 370.219 6.20312 367.344 4.01562C367.031 3.79688 366.75 3.59375 366.5 3.40625L368.141 2.23438C371.359 4.51562 373.812 6.70312 375.5 8.79688C375.531 8.82812 375.562 8.85938 375.594 8.89062ZM335.375 23.1406L333.594 22.2969C335.125 19.7969 336 15.9844 336.219 10.8594C336.219 10.5781 336.219 10.3281 336.219 10.1094L338.094 10.3906C337.969 15.4844 337.172 19.5312 335.703 22.5312C335.578 22.75 335.469 22.9531 335.375 23.1406ZM341.094 44.4688V1.01562H343.297V44.4688H341.094ZM349.859 17.0938L348.172 18.0781C347.484 15.3594 346.312 12.5156 344.656 9.54688C344.625 9.45312 344.594 9.39062 344.562 9.35938L346.203 8.65625C348.078 11.9688 349.297 14.7812 349.859 17.0938ZM377.703 14.8438H363.266C363.234 15.4375 363.109 16.875 362.891 19.1562H364.344V39.3594C364.344 40.2344 364.594 40.75 365.094 40.9062C365.438 41 365.891 41.0469 366.453 41.0469H372.875C373.688 41.0469 374.219 40.6094 374.469 39.7344C374.75 38.7969 374.938 36.7656 375.031 33.6406C375.594 34.0781 376.297 34.4219 377.141 34.6719C377.016 38.6719 376.562 41.1719 375.781 42.1719C375.188 42.8906 374.25 43.25 372.969 43.25H366.312C364.312 43.25 363.078 42.8281 362.609 41.9844C362.266 41.4219 362.094 40.5312 362.094 39.3125V24.4062C360.438 32.5938 356.844 38.625 351.312 42.5C350.25 43.2188 349.141 43.875 347.984 44.4688C347.672 44.0625 347.125 43.5312 346.344 42.875C352.656 39.7812 356.875 34.6719 359 27.5469C360 24.1094 360.641 19.875 360.922 14.8438H350.562V12.5938H361.156C361.25 10.1875 361.297 6.5 361.297 1.53125H363.594C363.594 5.75 363.531 9.4375 363.406 12.5938H377.703V14.8438ZM393.641 1.0625L395.844 1.71875C394.344 5.46875 392.562 9.09375 390.5 12.5938V44.4219H388.297V16.0625C386.391 18.8125 384.5 21.125 382.625 23C382.281 22.2812 381.797 21.5625 381.172 20.8438C385.453 16.75 389.062 11.4531 392 4.95312C392.625 3.64062 393.172 2.34375 393.641 1.0625ZM423.078 20.8438V22.1094C422.703 32.3281 422.156 38.5156 421.438 40.6719C421.219 41.2969 420.969 41.7812 420.688 42.125C420 42.8125 419 43.2031 417.688 43.2969C415.375 43.3594 413.062 43.2969 410.75 43.1094C410.594 42.2031 410.344 41.5 410 41C412.562 41.1562 414.859 41.2344 416.891 41.2344C417.828 41.2031 418.438 41.0312 418.719 40.7188C419.469 39.9688 420.031 36.5312 420.406 30.4062C420.531 28.4375 420.656 25.9844 420.781 23.0469H409.062C408.031 30.8281 405.547 36.6562 401.609 40.5312C399.984 42.125 398.094 43.4688 395.938 44.5625C395.562 44.0312 395.016 43.4688 394.297 42.875C399.922 40.1875 403.672 35.5469 405.547 28.9531C406.047 27.2031 406.453 25.2344 406.766 23.0469H396.453V20.8438H407.047C407.266 18.8125 407.438 16.3125 407.562 13.3438H409.859C409.672 16.7188 409.5 19.2188 409.344 20.8438H423.078ZM403.438 8.375H424.391V10.5781H402.172C400.453 13.5781 398.547 16.125 396.453 18.2188C395.859 17.6562 395.219 17.1875 394.531 16.8125C398.375 13.2188 401.406 8.29688 403.625 2.04688C403.75 1.70312 403.859 1.39062 403.953 1.10938L406.25 1.625C405.406 4.125 404.469 6.375 403.438 8.375ZM177.547 97.2031L179.703 97.8125C178.234 101.469 176.5 105 174.5 108.406V140.469H172.297V111.828C170.422 114.609 168.469 117.016 166.438 119.047C166.125 118.297 165.672 117.609 165.078 116.984C169.297 112.891 172.906 107.594 175.906 101.094C176.5 99.7812 177.047 98.4844 177.547 97.2031ZM186.266 116.984L188.516 117.406C186.734 124.312 184.312 129.828 181.25 133.953C180.906 133.703 180.234 133.281 179.234 132.688C182.203 129.031 184.547 123.797 186.266 116.984ZM206.891 108.828H196.25V137.375C196.25 138.75 195.828 139.641 194.984 140.047C194.922 140.078 194.859 140.109 194.797 140.141C193.922 140.422 191.938 140.562 188.844 140.562C188.656 139.781 188.391 139 188.047 138.219C190.297 138.312 192.016 138.312 193.203 138.219C193.703 138.156 193.969 137.875 194 137.375V108.828H185.609C184.297 112.109 182.719 115.047 180.875 117.641C179.938 116.922 179.297 116.469 178.953 116.281C182.328 111.875 184.922 105.531 186.734 97.25L189.031 97.7188C188.406 100.562 187.531 103.531 186.406 106.625H207.641L208.109 106.531L209.609 107C208.953 110.5 208.25 113.703 207.5 116.609L205.531 116.234C206.094 113.766 206.547 111.297 206.891 108.828ZM200.797 117.359L202.812 116.703C205.656 121.797 207.688 126.672 208.906 131.328C209.062 131.953 209.188 132.531 209.281 133.062L207.078 133.766C206.359 129.828 204.656 125.109 201.969 119.609C201.562 118.797 201.172 118.047 200.797 117.359ZM227.984 105.406L225.969 106.578C224.688 104.297 222.891 101.891 220.578 99.3594L222.5 98.4219C224.906 100.922 226.734 103.25 227.984 105.406ZM254.75 108.734V110.094C254.188 123.719 253.516 132.141 252.734 135.359C252.391 136.859 251.938 137.922 251.375 138.547C250.594 139.453 249.438 139.953 247.906 140.047C246.406 140.078 243.859 139.984 240.266 139.766C240.234 138.953 239.984 138.172 239.516 137.422C241.766 137.641 244.312 137.75 247.156 137.75C248.219 137.781 248.922 137.562 249.266 137.094C250.359 136.031 251.172 131.609 251.703 123.828C251.922 120.484 252.141 116.219 252.359 111.031H234.359C233.109 121.906 228.406 130.656 220.25 137.281C219.094 138.219 217.891 139.109 216.641 139.953C216.297 139.453 215.703 138.922 214.859 138.359C224.516 131.922 230.188 123.266 231.875 112.391C231.938 111.922 232 111.469 232.062 111.031H216.266V108.734H232.25C232.406 106.828 232.484 104.688 232.484 102.312V97.1094H234.781V102.312C234.781 104.594 234.719 106.734 234.594 108.734H254.75ZM245.516 127.203L243.547 128.422C242.172 125.797 239.984 122.797 236.984 119.422C236.766 119.172 236.562 118.953 236.375 118.766L238.25 117.734C241.375 121.016 243.703 124.016 245.234 126.734C245.359 126.922 245.453 127.078 245.516 127.203ZM295.906 104.141L293.797 104.984C293.266 103.016 292.219 100.781 290.656 98.2812L292.578 97.4844C294.141 99.8281 295.25 102.047 295.906 104.141ZM274.531 105.453L272.891 107.047C271.266 104.859 268.906 102.422 265.812 99.7344L267.406 98.375C270.562 101 272.938 103.359 274.531 105.453ZM272 133.484L277.438 129.641C277.625 130.109 277.906 130.734 278.281 131.516C272.531 135.703 269.375 138.109 268.812 138.734C268.781 138.797 268.75 138.844 268.719 138.875C268.438 138.344 267.953 137.766 267.266 137.141C268.641 136.172 269.453 134.922 269.703 133.391C269.734 133.141 269.75 132.906 269.75 132.688V114.5H262.391V112.25H272V133.484ZM282.922 126.828V134.703H292.672V126.828H282.922ZM292.672 115.109V107.891H282.922V115.109H292.672ZM292.672 124.672V117.266H282.922V124.672H292.672ZM305.656 134.703V136.859H282.922V140.516H280.719V110.609C279.562 112.422 278.234 114.156 276.734 115.812C275.766 114.844 275.234 114.328 275.141 114.266C278.516 110.703 281.328 105.984 283.578 100.109C283.922 99.1719 284.234 98.2656 284.516 97.3906L286.812 97.9531C285.812 100.891 284.719 103.484 283.531 105.734H304.156V107.891H294.875V115.109H303.172V117.266H294.875V124.672H303.172V126.828H294.875V134.703H305.656ZM26.6562 220.766V208.203H13.1562V220.766H26.6562ZM10.9062 206.047H28.9062V222.875H10.9062V206.047ZM2.60938 231.641H37.3906V197.469H2.60938V231.641ZM0.3125 195.172H39.7344V236.469H37.3906V233.844H2.60938V236.469H0.3125V195.172ZM60.2656 221.188V230.656C61.1406 230.531 62.4844 230.344 64.2969 230.094C67.5156 229.625 69.9219 229.281 71.5156 229.062L71.5625 231.172C61.7188 232.641 53.3906 233.859 46.5781 234.828L46.25 232.531C46.3125 232.531 50.2344 232 58.0156 230.938V221.188H48.1719V219.031H58.0156V212.656H60.2656V219.031H70.0625V221.188H60.2656ZM62.2344 202.812L64.0156 201.781C67.3281 205.438 69.9062 208.844 71.75 212C71.875 212.219 71.9844 212.422 72.0781 212.609L70.2031 213.734C69.7969 212.953 69.1406 211.875 68.2344 210.5C62.9844 210.875 55.8594 211.328 46.8594 211.859L46.625 209.609L51.125 209.375C52.6562 206.312 54.1094 202.656 55.4844 198.406H46.7656V196.203H71.4688V198.406H58.0625C55.9375 203.812 54.4375 207.438 53.5625 209.281C54.6875 209.219 56.4688 209.125 58.9062 209C62.375 208.781 65.0156 208.625 66.8281 208.531C65.0469 206.094 63.5156 204.188 62.2344 202.812ZM73.7188 224.938V198.734H75.9219V224.938H73.7188ZM85.2969 194.375H87.5V232.812C87.5 234.438 87.0469 235.484 86.1406 235.953C85.9844 236.016 85.8125 236.078 85.625 236.141C84.4688 236.391 81.8125 236.516 77.6562 236.516C77.4375 235.641 77.125 234.781 76.7188 233.938C79 234.031 81.4688 234.078 84.125 234.078C84.8438 233.859 85.2344 233.469 85.2969 232.906V194.375ZM134.609 195.078C133.016 195.547 131.172 195.984 129.078 196.391C126.984 196.766 124.766 197.109 122.422 197.422C120.109 197.703 117.734 197.953 115.297 198.172C112.891 198.359 110.562 198.516 108.312 198.641C108.25 198.391 108.156 198.078 108.031 197.703C107.906 197.297 107.797 196.969 107.703 196.719C109.891 196.562 112.172 196.375 114.547 196.156C116.922 195.938 119.234 195.688 121.484 195.406C123.734 195.094 125.844 194.766 127.812 194.422C129.781 194.047 131.453 193.656 132.828 193.25L134.609 195.078ZM127.062 208.531C127.562 207.875 128.078 207.141 128.609 206.328C129.172 205.516 129.719 204.672 130.25 203.797C130.781 202.891 131.281 202 131.75 201.125C132.25 200.25 132.672 199.438 133.016 198.688L135.359 199.672C134.891 200.484 134.375 201.328 133.812 202.203C133.281 203.078 132.734 203.938 132.172 204.781C131.609 205.625 131.047 206.438 130.484 207.219C129.922 208 129.375 208.703 128.844 209.328L127.062 208.531ZM121.203 207.547C120.984 206.391 120.609 205.047 120.078 203.516C119.578 201.953 119.016 200.5 118.391 199.156L120.406 198.547C120.75 199.203 121.078 199.891 121.391 200.609C121.703 201.328 121.984 202.062 122.234 202.812C122.484 203.531 122.703 204.234 122.891 204.922C123.109 205.609 123.266 206.234 123.359 206.797L121.203 207.547ZM112.625 208.672C112.5 208.141 112.297 207.562 112.016 206.938C111.766 206.281 111.469 205.625 111.125 204.969C110.812 204.281 110.469 203.594 110.094 202.906C109.719 202.219 109.344 201.578 108.969 200.984L110.938 200.328C111.75 201.516 112.5 202.797 113.188 204.172C113.906 205.547 114.422 206.781 114.734 207.875L112.625 208.672ZM102.875 213.172C102.406 212.766 101.828 212.344 101.141 211.906C100.453 211.438 99.7188 210.984 98.9375 210.547C98.1875 210.078 97.3906 209.625 96.5469 209.188C95.7344 208.75 94.9219 208.359 94.1094 208.016L95.4219 206.328C96.1719 206.641 96.9688 207 97.8125 207.406C98.6562 207.812 99.4688 208.234 100.25 208.672C101.031 209.109 101.766 209.562 102.453 210.031C103.141 210.469 103.719 210.875 104.188 211.25L102.875 213.172ZM95.5156 234.219C96.1094 233.281 96.7656 232.188 97.4844 230.938C98.2031 229.688 98.9375 228.375 99.6875 227C100.438 225.625 101.172 224.203 101.891 222.734C102.641 221.266 103.328 219.859 103.953 218.516L105.641 219.969C105.078 221.219 104.453 222.547 103.766 223.953C103.078 225.359 102.375 226.75 101.656 228.125C100.938 229.5 100.219 230.844 99.5 232.156C98.8125 233.469 98.1406 234.656 97.4844 235.719L95.5156 234.219ZM97.8594 193.484C98.6094 193.828 99.3906 194.219 100.203 194.656C101.016 195.062 101.797 195.5 102.547 195.969C103.328 196.438 104.047 196.906 104.703 197.375C105.391 197.844 105.953 198.297 106.391 198.734L105.078 200.703C104.609 200.234 104.047 199.75 103.391 199.25C102.734 198.75 102.031 198.25 101.281 197.75C100.531 197.25 99.7344 196.781 98.8906 196.344C98.0781 195.875 97.2812 195.453 96.5 195.078L97.8594 193.484ZM137.797 222.922H123.547V233.422C123.547 234.141 123.422 234.703 123.172 235.109C122.953 235.547 122.516 235.859 121.859 236.047C121.234 236.203 120.328 236.297 119.141 236.328C117.984 236.359 116.422 236.375 114.453 236.375C114.391 236.094 114.281 235.75 114.125 235.344C113.969 234.938 113.812 234.562 113.656 234.219C114.469 234.25 115.219 234.266 115.906 234.266C116.625 234.266 117.266 234.266 117.828 234.266C118.422 234.266 118.922 234.266 119.328 234.266C119.766 234.266 120.078 234.25 120.266 234.219C120.641 234.188 120.891 234.125 121.016 234.031C121.172 233.938 121.25 233.734 121.25 233.422V222.922H106.859V220.812H121.25V216.781H122.609C123.984 216.125 125.359 215.375 126.734 214.531C128.141 213.688 129.406 212.812 130.531 211.906H109.531V209.797H133.016L133.578 209.703L135.219 210.781C133.625 212.25 131.781 213.641 129.688 214.953C127.594 216.266 125.547 217.375 123.547 218.281V220.812H137.797V222.922ZM180.125 196.953V199.297H148.062V196.953H180.125ZM185.141 213.922H161.328C158.547 220.953 155.938 226.703 153.5 231.172C159.125 231.047 167.547 230.766 178.766 230.328C176.328 226.859 173.609 223.516 170.609 220.297L172.625 219.266C176.688 223.359 180.203 227.75 183.172 232.438C183.859 233.5 184.422 234.453 184.859 235.297L182.656 236.609C182.25 235.797 181.438 234.406 180.219 232.438C167.25 233.031 154.953 233.5 143.328 233.844L143.094 231.453C146.781 231.391 149.391 231.328 150.922 231.266C153.672 226.234 156.078 220.719 158.141 214.719C158.234 214.438 158.328 214.172 158.422 213.922H142.953V211.625H185.141V213.922ZM218.656 220.766V208.203H205.156V220.766H218.656ZM202.906 206.047H220.906V222.875H202.906V206.047ZM194.609 231.641H229.391V197.469H194.609V231.641ZM192.312 195.172H231.734V236.469H229.391V233.844H194.609V236.469H192.312V195.172ZM280.484 198.828H264.922C263.734 200.859 262.484 202.812 261.172 204.688V236.469H258.734V207.641C253.297 214.109 247.078 219.219 240.078 222.969C239.484 222.188 238.969 221.562 238.531 221.094C245.594 217.406 251.719 212.453 256.906 206.234C258.969 203.797 260.703 201.328 262.109 198.828H239.562V196.531H280.484V198.828ZM263.188 209.234L264.781 207.734C270.719 211.359 275.719 214.969 279.781 218.562C280.5 219.188 281.109 219.766 281.609 220.297L279.875 222.031C276.844 218.938 272.406 215.406 266.562 211.438C265.375 210.625 264.25 209.891 263.188 209.234ZM329.422 215.703H305.656C302.219 223.047 299.562 228.312 297.688 231.5C303 231.344 311.266 231.016 322.484 230.516C319.984 227.016 317.562 224 315.219 221.469L317.234 220.484C321.297 224.766 324.703 229.094 327.453 233.469C327.922 234.25 328.328 234.953 328.672 235.578L326.469 236.844C325.875 235.656 325.031 234.266 323.938 232.672C320.906 232.797 316.344 233 310.25 233.281C299.688 233.75 292.516 234.062 288.734 234.219L288.453 231.734C291.516 231.672 293.688 231.609 294.969 231.547C297.812 226.797 300.406 221.516 302.75 215.703H286.812V213.406H306.734V203.094H290.562V200.797H306.734V192.969H309.125V200.797H325.766V203.094H309.125V213.406H329.422V215.703ZM350.234 214.297V202.812H338.75V214.297H350.234ZM338.75 229.25H350.234V216.406H338.75V229.25ZM344.234 192.875L346.672 193.438C345.703 196.312 344.844 198.734 344.094 200.703H352.438V231.406H338.75V235.344H336.594V200.703H341.938C343 197.672 343.766 195.062 344.234 192.875ZM376.016 200.703V202.062C375.453 217.438 374.766 226.922 373.953 230.516C373.578 232.078 373.125 233.188 372.594 233.844C371.812 234.75 370.703 235.25 369.266 235.344C367.484 235.438 365.172 235.391 362.328 235.203C362.172 234.234 361.922 233.484 361.578 232.953C364.141 233.141 366.484 233.234 368.609 233.234C369.609 233.203 370.281 232.969 370.625 232.531C371.75 231.312 372.594 226.125 373.156 216.969C373.375 213.219 373.578 208.516 373.766 202.859H360.312C358.812 206.516 357.25 209.484 355.625 211.766C355.438 211.609 354.781 211.203 353.656 210.547C356.812 206.453 359.25 200.5 360.969 192.688L363.266 193.203C362.703 195.734 361.984 198.234 361.109 200.703H376.016ZM368.562 222.219L366.641 223.438C365.016 220.375 362.531 216.797 359.188 212.703C359.062 212.547 358.953 212.406 358.859 212.281L360.734 211.203C364.453 215.828 367.062 219.5 368.562 222.219ZM398.562 216.641H386.656V228.594H398.562V216.641ZM400.766 230.797H386.656V234.406H384.453V214.484H391.484V204.828H382.391V202.625H391.484V193.016H393.781V202.625H402.828V204.828H393.781V214.484H400.766V230.797ZM407.938 204.266L407.797 204.688C409.141 211.75 411.078 217.609 413.609 222.266C416.328 217.734 418.312 211.734 419.562 204.266H407.938ZM425.75 204.266H421.906C420.406 212.859 418.047 219.594 414.828 224.469C417.797 229.156 421.5 232.531 425.938 234.594C425.219 235.25 424.672 235.906 424.297 236.562C419.922 234.312 416.312 230.938 413.469 226.438C409.969 230.781 405.422 234.188 399.828 236.656C399.578 236.062 399.109 235.344 398.422 234.5C404.328 232.125 408.906 228.734 412.156 224.328C409.75 219.922 407.828 214.531 406.391 208.156C404.953 211.219 403.594 213.609 402.312 215.328C401.688 214.797 401.016 214.312 400.297 213.875C403.891 209.375 406.703 202.422 408.734 193.016L411.031 193.391C410.438 196.047 409.656 198.938 408.688 202.062H425.75V204.266ZM467.281 211.344L469.766 212.188C466.266 220.281 460.328 226.375 451.953 230.469C446.953 232.906 440.703 234.859 433.203 236.328C433.047 235.703 432.625 234.875 431.938 233.844C444.406 231.812 453.641 228.016 459.641 222.453C460.891 221.266 462.031 220.016 463.062 218.703C446.656 220.016 437.75 220.844 436.344 221.188C436.031 221.25 435.766 221.328 435.547 221.422C435.484 220.828 435.203 220.016 434.703 218.984C436.016 218.797 438.344 217.781 441.688 215.938C445.031 214.156 449.266 211.453 454.391 207.828C443.703 208.641 437.953 209.188 437.141 209.469C437.047 209.469 436.984 209.484 436.953 209.516C436.734 208.641 436.469 207.812 436.156 207.031C437.031 206.906 438.406 206.156 440.281 204.781C442.406 203.344 445.141 201.016 448.484 197.797C450.047 196.297 451.422 194.859 452.609 193.484L454.859 194.844C449.984 199.875 445.422 203.828 441.172 206.703L457.391 205.625C460.141 203.5 462.25 201.812 463.719 200.562L465.828 202.109C458.047 208.578 450.125 213.938 442.062 218.188L464.562 216.453C465.562 214.984 466.469 213.281 467.281 211.344Z" fill="black" fill-opacity="0.9"/>
</svg>
