<?xml version="1.0" encoding="UTF-8"?>
<svg width="330px" height="119px" viewBox="0 0 330 119" version="1.1" xmlns="http://www.w3.org/2000/svg" xmlns:xlink="http://www.w3.org/1999/xlink">
    <title>台湾教育部标准楷书</title>
    <g id="页面-1" stroke="none" stroke-width="1" fill="none" fill-rule="evenodd" fill-opacity="0.9">
        <g id="画板" transform="translate(-153.000000, -259.000000)" fill="#000000" fill-rule="nonzero">
            <path d="M183.382812,305.640625 C184.460938,305.640625 185,300.757812 185,290.992188 L185,290.992188 L184.953125,287.851562 L184.882812,283.421875 C185.523438,283.359375 186.015625,283.3125 186.359375,283.28125 L186.359375,283.28125 L188.890625,283.070312 C190.609375,282.914062 191.585938,282.835938 191.820312,282.835938 C193.085938,282.835938 193.71875,282.632812 193.71875,282.226562 C193.71875,282.085938 193.21875,281.546875 192.21875,280.609375 C193,278.296875 194.125,276.578125 195.59375,275.453125 C196,275.140625 196.203125,274.859375 196.203125,274.609375 C196.203125,274.171875 195.652344,273.597656 194.550781,272.886719 C193.449219,272.175781 192.554688,271.820312 191.867188,271.820312 C191.382812,271.820312 190.84375,271.921875 190.25,272.125 L190.25,272.125 L188.632812,272.6875 C187.726562,273.015625 186.53125,273.320312 185.046875,273.601562 C185.080529,273.121995 185.105122,272.762482 185.120655,272.523021 L185.131749,272.347171 C185.137666,272.249538 185.140625,272.191106 185.140625,272.171875 L185.140625,272.171875 L185.234375,269.992188 C185.234375,268.414062 185.46875,266.53125 185.9375,264.34375 C185.984375,264.109375 186.007812,263.898438 186.007812,263.710938 C186.007812,263.195312 185.554688,262.703125 184.648438,262.234375 C183.742188,261.765625 182.789062,261.53125 181.789062,261.53125 C181.242188,261.53125 180.96875,261.726562 180.96875,262.117188 C180.96875,262.226562 181.046875,262.382812 181.203125,262.585938 C182.25,264.039062 182.773438,267.40625 182.773438,272.6875 L182.773438,272.6875 L182.773438,273.953125 L181.320312,274.140625 C179.523438,274.359375 178.390625,274.46875 177.921875,274.46875 C176.875,274.46875 175.882812,274.273438 174.945312,273.882812 C174.804688,273.820312 174.6875,273.789062 174.59375,273.789062 C174.328125,273.789062 174.195312,273.921875 174.195312,274.1875 C174.195312,274.234375 174.210938,274.304688 174.242188,274.398438 C173.429688,273.929688 172.742188,273.695312 172.179688,273.695312 C171.835938,273.695312 171.515625,273.742188 171.21875,273.835938 L171.21875,273.835938 L169.296875,274.445312 C169.140625,274.492188 168.789062,274.578125 168.242188,274.703125 C168.382812,272.859375 168.648438,271.40625 169.039062,270.34375 C169.164062,270.015625 169.226562,269.742188 169.226562,269.523438 C169.226562,269.054688 168.804688,268.773438 167.960938,268.679688 C167.679688,268.632812 167.289062,268.5625 166.789062,268.46875 L166.789062,268.46875 L168.265625,267.976562 C169.09375,267.695312 169.78125,267.445312 170.328125,267.226562 C171.390625,266.820312 172.117188,266.570312 172.507812,266.476562 C173.601562,266.242188 174.148438,265.9375 174.148438,265.5625 C174.148438,265.1875 173.648438,264.6875 172.648438,264.0625 C171.648438,263.4375 170.84375,263.125 170.234375,263.125 C169.90625,263.125 169.601562,263.328125 169.320312,263.734375 L169.320312,263.734375 L168.6875,264.648438 C167.78125,265.960938 165.25,267.421875 161.09375,269.03125 C159.859375,269.5 159.25,269.84375 159.265625,270.0625 C159.28125,270.234375 159.445312,270.320312 159.757812,270.320312 C160.007812,270.320312 160.710938,270.179688 161.867188,269.898438 L161.867188,269.898438 L164.585938,269.242188 C164.789062,269.195312 165.203125,269.046875 165.828125,268.796875 L165.828125,268.796875 L166.039062,269.6875 C166.304688,270.734375 166.4375,272.273438 166.4375,274.304688 L166.4375,274.304688 L166.4375,275.007812 C165.671875,275.289062 164.46875,275.609375 162.828125,275.96875 L162.828125,275.96875 L159.945312,276.625 C159.445312,276.734375 158.703125,276.820312 157.71875,276.882812 C157.25,276.914062 156.859375,276.929688 156.546875,276.929688 L156.546875,276.929688 L156.148438,276.929688 C154.882812,276.929688 154.25,277.109375 154.25,277.46875 C154.25,277.796875 154.660156,278.203125 155.480469,278.6875 C156.300781,279.171875 156.992188,279.414062 157.554688,279.414062 C158.148438,279.414062 159.148438,279.15625 160.554688,278.640625 L160.554688,278.640625 L162.828125,277.820312 C163.1375,277.707812 163.534063,277.57 164.017812,277.406875 L164.530625,277.235312 C164.71125,277.175312 164.901562,277.1125 165.101562,277.046875 L165.101562,277.046875 L166.226562,276.695312 C163.585938,282.492188 159.875,287.398438 155.09375,291.414062 C154.703125,291.742188 154.515625,291.976562 154.53125,292.117188 C154.546875,292.304688 154.671875,292.398438 154.90625,292.398438 C155.15625,292.398438 155.5,292.257812 155.9375,291.976562 L155.9375,291.976562 L158.328125,290.40625 C161.46875,288.359375 164.171875,284.882812 166.4375,279.976562 L166.4375,279.976562 L166.4375,282.015625 L166.296875,286 C166.296875,288.875 166.132812,291.046875 165.804688,292.515625 L165.804688,292.515625 L165.382812,294.484375 C165.273438,294.953125 165.21875,295.453125 165.21875,295.984375 C165.21875,296.796875 165.429688,297.683594 165.851562,298.644531 C166.273438,299.605469 166.664062,300.085938 167.023438,300.085938 C167.898438,300.085938 168.335938,298.578125 168.335938,295.5625 L168.335938,295.5625 L168.3125,291.648438 L168.171875,284.898438 L168.125,281.96875 C168.953125,282.5 169.59375,282.992188 170.046875,283.445312 L170.046875,283.445312 L171.101562,284.5 C171.882812,285.28125 172.539062,285.671875 173.070312,285.671875 C173.492188,285.671875 173.703125,285.34375 173.703125,284.6875 C173.703125,282.515625 172.351562,281.429688 169.648438,281.429688 C169.273438,281.429688 168.78125,281.460938 168.171875,281.523438 L168.171875,281.523438 L168.171875,276.15625 C169.078125,275.984375 169.953125,275.851562 170.796875,275.757812 C172.25,275.601562 173.414062,275.335938 174.289062,274.960938 C175.023438,276.039062 175.546875,277.78125 175.859375,280.1875 C176.015625,281.25 176.148438,282.132812 176.257812,282.835938 C176.414062,283.789062 176.507812,284.375 176.539062,284.59375 C176.664062,285.546875 176.9375,286.007812 177.359375,285.976562 C177.703125,285.960938 177.890625,285.648438 177.921875,285.039062 C177.9375,284.820312 177.960938,284.507812 177.992188,284.101562 L177.992188,284.101562 L179.140625,283.984375 C180.234375,283.875 181.414062,283.742188 182.679688,283.585938 L182.679688,283.585938 L182.679688,285.367188 L182.632812,291.203125 L182.609375,299.101562 C182.609375,300.476562 182.625,301.492188 182.65625,302.148438 L182.65625,302.148438 L182.75,304.070312 C182.796875,305.117188 183.007812,305.640625 183.382812,305.640625 Z M184.929688,281.875 L185,277.726562 L185.046875,274.867188 C185.6875,274.773438 186.148438,274.703125 186.429688,274.65625 L186.429688,274.65625 L188.46875,274.304688 C189.046875,274.210938 189.59375,274.164062 190.109375,274.164062 C190.703125,274.164062 191,274.484375 191,275.125 C191,275.6875 190.859375,276.625 190.578125,277.9375 L190.578125,277.9375 L190.15625,279.929688 L189.921875,280.9375 L188.726562,281.195312 C187.429688,281.476562 186.164062,281.703125 184.929688,281.875 L184.929688,281.875 Z M178.109375,282.8125 C178.109375,280.90625 177.914062,278.570312 177.523438,275.804688 C178.007812,275.804688 178.757812,275.734375 179.773438,275.59375 L179.773438,275.59375 L181.296875,275.382812 C181.578125,275.335938 182.054688,275.265625 182.726562,275.171875 L182.726562,275.171875 L182.726562,282.0625 C182.007812,282.171875 181.539062,282.242188 181.320312,282.273438 L181.320312,282.273438 L179.398438,282.625 C179.210938,282.65625 178.78125,282.71875 178.109375,282.8125 Z M235.132812,302.640625 C236.914062,302.640625 237.804688,299.898438 237.804688,294.414062 L237.804688,294.414062 L237.664062,289.679688 L237.40625,280.046875 L237.429688,276.765625 C240.929688,276.171875 243.265625,275.875 244.4375,275.875 C245.078125,275.875 245.398438,275.710938 245.398438,275.382812 C245.398438,275.039062 245.140625,274.660156 244.625,274.246094 C244.109375,273.832031 243.632812,273.625 243.195312,273.625 C242.945312,273.625 242.570312,273.695312 242.070312,273.835938 C241.539062,273.992188 240.640625,274.179688 239.375,274.398438 L239.221354,274.425926 C238.790799,274.503086 238.193576,274.611111 237.429688,274.75 C237.460938,273.9375 237.492188,273.335938 237.523438,272.945312 L237.523438,272.945312 L237.78125,267.8125 C237.859375,266.59375 237.976562,265.75 238.132812,265.28125 C238.351562,264.65625 238.460938,264.1875 238.460938,263.875 C238.460938,263.46875 237.875,262.996094 236.703125,262.457031 C235.53125,261.917969 234.492188,261.648438 233.585938,261.648438 C233.085938,261.648438 232.835938,261.757812 232.835938,261.976562 C232.835938,262.023438 232.867188,262.085938 232.929688,262.164062 L232.929688,262.164062 L233.375,262.773438 C234.640625,264.523438 235.273438,267.398438 235.273438,271.398438 L235.273438,271.398438 L235.226562,275.242188 C234.554688,275.335938 234.007812,275.421875 233.585938,275.5 L233.585938,275.5 L230.84375,275.921875 C229.9375,276.0625 229.304688,276.132812 228.945312,276.132812 C228.601562,276.132812 228.234375,276.179688 227.84375,276.273438 L227.84375,276.273438 L227.46875,276.484375 L227.5625,276.648438 C228.125,277.382812 228.921875,277.75 229.953125,277.75 C230.046875,277.75 230.328125,277.71875 230.796875,277.65625 L230.796875,277.65625 L233.679688,277.257812 C233.960938,277.226562 234.492188,277.140625 235.273438,277 L235.273438,277 L235.203125,279.953125 L235.15625,287.453125 L235.15625,290.898438 L235.179688,292.75 C235.179688,294.65625 235.078125,295.898438 234.875,296.476562 C234.671875,297.054688 234.226562,297.34375 233.539062,297.34375 C233.132812,297.34375 232.789062,297.3125 232.507812,297.25 C231.054688,296.90625 230.171875,296.726562 229.859375,296.710938 C229.578125,296.695312 229.4375,296.765625 229.4375,296.921875 C229.4375,296.9375 229.484375,297.007812 229.578125,297.132812 L229.578125,297.132812 L230.796875,298.539062 L232.601562,300.4375 L234.3125,302.265625 C234.5625,302.515625 234.835938,302.640625 235.132812,302.640625 Z M211.390625,301.305072 C212.1875,301.273438 212.710938,299.585938 212.960938,296.242188 C213.039062,295.257812 213.078125,294.234375 213.078125,293.171875 L213.078125,293.171875 L213.007812,284.289062 L213.007812,282.109375 L213.5,282.789062 C215.015625,284.867188 216.21875,285.90625 217.109375,285.90625 C217.609375,285.90625 217.859375,285.546875 217.859375,284.828125 C217.859375,282.578125 216.429688,281.453125 213.570312,281.453125 L213.570312,281.453125 L213.007812,281.476562 L213.007812,277.351562 C214.085938,277.132812 214.882812,276.976562 215.398438,276.882812 C217.054688,276.570312 217.882812,276.203125 217.882812,275.78125 C217.882812,275.109375 217.382812,274.773438 216.382812,274.773438 C216.070312,274.773438 215.625,274.851562 215.046875,275.007812 C214.609375,275.132812 213.960938,275.289062 213.101562,275.476562 L213.101562,275.476562 L213.148438,273.25 C213.148438,270.28125 213.453125,268 214.0625,266.40625 L214.0625,266.40625 L214.554688,265.140625 C214.648438,264.90625 214.695312,264.710938 214.695312,264.554688 C214.695312,264.195312 214.195312,263.824219 213.195312,263.441406 C212.195312,263.058594 211.21875,262.867188 210.265625,262.867188 C209.84375,262.867188 209.640625,263.007812 209.65625,263.289062 C209.671875,263.460938 209.828125,263.71875 210.125,264.0625 C210.875,264.875 211.25,266.15625 211.25,267.90625 L211.25,267.90625 L211.273438,269.523438 L211.25,274.515625 L211.226562,275.921875 C207.492188,276.828125 205.039062,277.320312 203.867188,277.398438 C203.085938,277.445312 202.695312,277.601562 202.695312,277.867188 C202.695312,278.539062 203.6875,278.875 205.671875,278.875 C206.796875,278.875 208.476562,278.554688 210.710938,277.914062 C208.257812,283.507812 205.34375,287.882812 201.96875,291.039062 C201.4375,291.523438 201.179688,291.828125 201.195312,291.953125 C201.210938,292.09375 201.304688,292.164062 201.476562,292.164062 C202.492188,292.164062 204.039062,290.984375 206.117188,288.625 C208.195312,286.265625 209.898438,283.75 211.226562,281.078125 L211.226562,281.078125 L211.15625,284.640625 C211.15625,288.578125 210.882812,291.695312 210.335938,293.992188 C209.929688,295.695312 209.726562,296.828125 209.726562,297.390625 C209.726562,298.140625 209.925781,298.984375 210.324219,299.921875 C210.722656,300.859375 211.078125,301.320312 211.390625,301.305072 Z M214.695312,294.8125 C215.585938,294.8125 216.9375,293.894531 218.75,292.058594 C220.5625,290.222656 222.164062,288.148438 223.554688,285.835938 C223.789062,286.320312 223.953125,286.65625 224.046875,286.84375 L224.046875,286.84375 L225.3125,289.304688 C226.453125,291.523438 227.242188,292.632812 227.679688,292.632812 C228.445312,292.632812 228.828125,291.929688 228.828125,290.523438 C228.828125,289.039062 227.71875,287.046875 225.5,284.546875 C225.296875,284.328125 225,283.992188 224.609375,283.539062 C225.140625,282.070312 225.804688,280.039062 226.601562,277.445312 C227.210938,275.445312 227.859375,274.117188 228.546875,273.460938 C228.828125,273.210938 228.96875,273 228.96875,272.828125 C228.96875,272.46875 228.574219,272.039062 227.785156,271.539062 C226.996094,271.039062 226.320312,270.789062 225.757812,270.789062 C225.570312,270.789062 225.304688,270.898438 224.960938,271.117188 C223.460938,272.054688 222.015625,272.679688 220.625,272.992188 L220.625,272.992188 L219.101562,273.320312 C218.445312,273.476562 218.015625,273.554688 217.8125,273.554688 C217.15625,273.554688 216.828125,273.679688 216.828125,273.929688 C216.828125,274.414062 217.351562,274.65625 218.398438,274.65625 C218.726562,274.65625 219.078125,274.632812 219.453125,274.585938 L219.453125,274.585938 L222.171875,274.234375 C223.25,274.109375 223.828125,274.023438 223.90625,273.976562 C224.09375,273.898438 224.226562,273.859375 224.304688,273.859375 C224.585938,273.859375 224.726562,274.070312 224.726562,274.492188 C224.726562,276.132812 224.203125,278.570312 223.15625,281.804688 C220.78125,279.007812 219.085938,277.609375 218.070312,277.609375 C218.164062,277.875 218.328125,278.164062 218.5625,278.476562 L218.5625,278.476562 L219.523438,279.953125 L221.257812,282.507812 C221.398438,282.726562 221.710938,283.234375 222.195312,284.03125 C220.304688,287.828125 217.929688,291.101562 215.070312,293.851562 C214.632812,294.289062 214.414062,294.546875 214.414062,294.625 C214.429688,294.75 214.523438,294.8125 214.695312,294.8125 Z M231.523438,286.046875 C232.273438,286.046875 232.648438,285.304688 232.648438,283.820312 C232.648438,282.085938 231.164062,280.945312 228.195312,280.398438 C229.398438,284.164062 230.507812,286.046875 231.523438,286.046875 Z M277.578125,302.195312 C278.890625,302.195312 280.1875,301.320312 281.46875,299.570312 C282.953125,297.523438 284.023438,294.289062 284.679688,289.867188 L284.679688,289.867188 L285.3125,285.625 C285.9375,281.453125 286.632812,278.890625 287.398438,277.9375 C287.695312,277.5625 287.84375,277.289062 287.84375,277.117188 C287.84375,276.789062 287.265625,276.238281 286.109375,275.464844 C284.953125,274.691406 284.132812,274.304688 283.648438,274.304688 C283.382812,274.304688 282.953125,274.414062 282.359375,274.632812 C281.71875,274.867188 281.085938,275.039062 280.460938,275.148438 L280.460938,275.148438 L273.171875,276.4375 C273.515625,275.578125 273.71875,275.0625 273.78125,274.890625 L273.78125,274.890625 L274.976562,271.65625 C275.960938,268.96875 276.742188,267.085938 277.320312,266.007812 C277.554688,265.554688 277.671875,265.21875 277.671875,265 C277.671875,264.453125 277.109375,263.769531 275.984375,262.949219 C274.859375,262.128906 273.921875,261.71875 273.171875,261.71875 C272.6875,261.71875 272.445312,261.945312 272.445312,262.398438 C272.445312,262.679688 272.53125,263.101562 272.703125,263.664062 C272.859375,264.132812 272.9375,264.664062 272.9375,265.257812 C272.9375,267.945312 272.015625,271.867188 270.171875,277.023438 C265.71875,277.835938 262.8125,278.304688 261.453125,278.429688 L261.453125,278.429688 L258.804688,278.6875 C257.898438,278.78125 257.359375,278.828125 257.1875,278.828125 C255.984375,278.828125 255.382812,279.007812 255.382812,279.367188 C255.382812,279.679688 255.792969,280.066406 256.613281,280.527344 C257.433594,280.988281 258.117188,281.21875 258.664062,281.21875 C259.148438,281.21875 259.796875,281.117188 260.609375,280.914062 C263.03125,280.289062 265.992188,279.632812 269.492188,278.945312 C267.523438,283.414062 265.375,287.054688 263.046875,289.867188 C260.71875,292.679688 257.453125,295.59375 253.25,298.609375 C252.21875,299.34375 251.703125,299.773438 251.703125,299.898438 C251.71875,300.085938 251.914062,300.179688 252.289062,300.179688 C252.757812,300.179688 253.28125,300.039062 253.859375,299.757812 L253.859375,299.757812 L256.414062,298.515625 C259.429688,297.0625 262.378906,294.570312 265.261719,291.039062 C268.144531,287.507812 270.664062,283.304688 272.820312,278.429688 L272.820312,278.429688 L280.34375,277.210938 L281.375,277.09375 C281.921875,277.015625 282.195312,276.976562 282.195312,276.976562 C282.648438,277.117188 282.875,277.695312 282.875,278.710938 C282.875,279.210938 282.820312,279.90625 282.710938,280.796875 L282.710938,280.796875 L282.007812,286.492188 C281.164062,293.242188 279.617188,296.617188 277.367188,296.617188 C276.367188,296.617188 275.460938,296.382812 274.648438,295.914062 C273.960938,295.507812 273.421875,295.304688 273.03125,295.304688 C272.734375,295.304688 272.59375,295.4375 272.609375,295.703125 C272.609375,295.765625 272.664062,295.867188 272.773438,296.007812 C272.825521,296.098958 272.986111,296.412543 273.255208,296.948568 L273.429688,297.296875 C273.632812,297.6875 274.09375,298.390625 274.8125,299.40625 C274.921875,299.5625 275.210938,299.992188 275.679688,300.695312 C276.382812,301.695312 277.015625,302.195312 277.578125,302.195312 Z M264.734375,274.585938 C265.78125,274.585938 266.304688,273.828125 266.304688,272.3125 C266.304688,269.953125 264.359375,268.578125 260.46875,268.1875 C262.078125,272.453125 263.5,274.585938 264.734375,274.585938 Z M275.257812,290.03125 C276.101562,290.03125 276.523438,289.359375 276.523438,288.015625 C276.523438,285.671875 274.640625,284.265625 270.875,283.796875 C272.40625,287.953125 273.867188,290.03125 275.257812,290.03125 Z M300.195312,302.171875 C301.117188,302.171875 302.875,300.875 305.46875,298.28125 C309.53125,294.21875 312.148438,288.46875 313.320312,281.03125 L313.320312,281.03125 L313.507812,279.8125 C314.101562,280.046875 314.609375,280.164062 315.03125,280.164062 C315.828125,280.164062 317.015625,280.023438 318.59375,279.742188 L318.59375,279.742188 L321.429688,279.226562 L323.984375,278.78125 C327.203125,278.21875 329.695312,277.9375 331.460938,277.9375 L331.460938,277.9375 L334.625,277.796875 L337.039062,277.65625 C337.648438,277.65625 337.953125,277.429688 337.953125,276.976562 C337.953125,276.460938 337.453125,275.941406 336.453125,275.417969 C335.453125,274.894531 334.460938,274.632812 333.476562,274.632812 C333.205181,274.632812 332.585645,274.737502 331.617956,274.946881 L331.212312,275.036217 C329.727569,275.368432 327.560444,275.905839 324.710938,276.648438 C322.445312,277.242188 320.21875,277.710938 318.03125,278.054688 C315.953125,278.382812 314.460938,278.671875 313.554688,278.921875 L313.554688,278.921875 L313.765625,276.695312 C313.96875,274.679688 314.070312,273.398438 314.070312,272.851562 C314.070312,272.507812 314.023438,272.03125 313.929688,271.421875 L313.929688,271.421875 L314.328125,271.421875 C315.375,271.421875 318.46875,270.71875 323.609375,269.3125 C326.578125,268.5 328.867188,267.945312 330.476562,267.648438 C331.679688,267.414062 332.28125,267.101562 332.28125,266.710938 C332.28125,266.414062 331.542969,265.855469 330.066406,265.035156 C328.589844,264.214844 327.632812,263.820312 327.195312,263.851562 C326.898438,263.882812 326.578125,264.0625 326.234375,264.390625 L326.234375,264.390625 L325.039062,265.585938 C324.445312,266.179688 322.722656,267.074219 319.871094,268.269531 C317.019531,269.464844 315.179688,270.0625 314.351562,270.0625 C313.460938,270.0625 312.523438,269.773438 311.539062,269.195312 C310.898438,268.835938 310.34375,268.640625 309.875,268.609375 C309.609375,268.59375 309.476562,268.703125 309.476562,268.9375 C309.476562,269.046875 309.492188,269.148438 309.523438,269.242188 L309.523438,269.242188 L310.179688,270.648438 C310.742188,271.882812 311.023438,273.59375 311.023438,275.78125 C311.023438,285.15625 308.390625,292.6875 303.125,298.375 L303.125,298.375 L301.15625,300.507812 C300.6875,301.007812 300.382812,301.320312 300.242188,301.445312 C300.039062,301.632812 299.9375,301.796875 299.9375,301.9375 C299.9375,302.09375 300.023438,302.171875 300.195312,302.171875 Z M317.164062,300.390625 C317.632812,300.390625 317.867188,299.859375 317.867188,298.796875 C317.867188,298.5625 317.882812,298.1875 317.914062,297.671875 C318.492188,297.703125 318.921875,297.71875 319.203125,297.71875 C319.546875,297.71875 320.15625,297.6875 321.03125,297.625 L321.03125,297.625 L325.53125,297.296875 L330.96875,296.828125 L332.398438,296.898438 C332.960938,296.929688 333.234375,296.789062 333.21875,296.476562 C333.203125,296.148438 332.914062,295.75 332.351562,295.28125 C332.132812,295.09375 331.867188,294.828125 331.554688,294.484375 C332.242188,292.015625 333,290.359375 333.828125,289.515625 L333.828125,289.515625 L335.09375,288.226562 C335.34375,287.976562 335.46875,287.726562 335.46875,287.476562 C335.46875,287.054688 334.777344,286.457031 333.394531,285.683594 C332.011719,284.910156 330.945312,284.523438 330.195312,284.523438 C329.851562,284.523438 329.367188,284.632812 328.742188,284.851562 C323.804688,286.554688 319.84375,287.40625 316.859375,287.40625 C316.5625,287.40625 316.1875,287.367188 315.734375,287.289062 C314.984375,287.148438 314.414062,287.070312 314.023438,287.054688 C313.492188,287.023438 313.226562,287.242188 313.226562,287.710938 C313.226562,287.960938 313.289062,288.164062 313.414062,288.320312 L313.414062,288.320312 L314.164062,289.1875 C314.789062,289.921875 315.3125,292.3125 315.734375,296.359375 C316.015625,299.046875 316.492188,300.390625 317.164062,300.390625 Z M318.171875,296.171875 C318.171875,292.703125 317.835938,290.171875 317.164062,288.578125 L317.164062,288.578125 L317.773438,288.601562 C318.617188,288.601562 319.351562,288.554688 319.976562,288.460938 L319.976562,288.460938 L328.0625,287.265625 C328.359375,287.21875 328.664062,287.195312 328.976562,287.195312 C329.789062,287.195312 330.195312,287.53125 330.195312,288.203125 C330.195312,288.359375 330.164062,288.65625 330.101562,289.09375 L330.101562,289.09375 L329.703125,291.460938 C329.6875,291.554688 329.53125,292.203125 329.234375,293.40625 C329.171875,293.625 329.09375,293.953125 329,294.390625 C324.78125,295.25 321.171875,295.84375 318.171875,296.171875 Z M380.773438,296.78125 C381.617188,296.78125 383.3125,296.664062 385.859375,296.429688 L385.859375,296.429688 L389.65625,296.078125 C390.390625,296.015625 390.757812,295.835938 390.757812,295.539062 C390.757812,295.398438 389.9375,295.070312 388.296875,294.554688 L388.296875,294.554688 L385.765625,293.78125 C380.109375,292.046875 375.023438,288.382812 370.507812,282.789062 L370.507812,282.789062 L366.5,277.796875 C366.4375,277.734375 366.210938,277.460938 365.820312,276.976562 C366.023438,276.460938 366.171875,276.078125 366.265625,275.828125 C366.984375,273.9375 367.523438,272.6875 367.882812,272.078125 C368.976562,270.265625 369.523438,269.101562 369.523438,268.585938 C369.523438,268.054688 368.976562,267.394531 367.882812,266.605469 C366.789062,265.816406 365.875,265.421875 365.140625,265.421875 C364.640625,265.421875 364.390625,265.765625 364.390625,266.453125 C364.390625,266.65625 364.421875,266.875 364.484375,267.109375 C364.734375,268.015625 364.859375,268.828125 364.859375,269.546875 C364.859375,271.359375 363.765625,274.773438 361.578125,279.789062 C358.890625,285.992188 355.148438,290.65625 350.351562,293.78125 C348.914062,294.71875 348.125,295.257812 347.984375,295.398438 C347.5625,295.773438 347.335938,295.976562 347.304688,296.007812 C347.101562,296.164062 347,296.265625 347,296.3125 C347.015625,296.453125 347.15625,296.523438 347.421875,296.523438 C347.765625,296.523438 348.1875,296.4375 348.6875,296.265625 L348.6875,296.265625 L350.234375,295.703125 C352.796875,294.765625 355.445312,292.75 358.179688,289.65625 C360.914062,286.5625 363.210938,282.976562 365.070312,278.898438 C369.914062,285.914062 373.804688,291.085938 376.742188,294.414062 C378.132812,295.992188 379.476562,296.78125 380.773438,296.78125 Z M413.375,304.75 C414.34375,304.75 414.828125,302.484375 414.828125,297.953125 L414.828125,297.953125 L414.734375,294.742188 L414.640625,289.65625 L414.734375,284.007812 C415.234375,284.632812 415.609375,285.101562 415.859375,285.414062 C420.84375,291.679688 424.367188,295.40625 426.429688,296.59375 L426.429688,296.59375 L427.015625,296.851562 L433.8125,296.21875 C436.234375,295.984375 437.4375,295.640625 437.422025,295.1875 C437.40625,294.953125 436.4375,294.65625 434.515625,294.296875 C426.0625,292.6875 419.476562,288.523438 414.757812,281.804688 L414.757812,281.804688 L414.757812,271.210938 C418.648438,270.679688 421.953125,270.414062 424.671875,270.414062 L424.671875,270.414062 L426.289062,270.4375 L428.09375,270.484375 C429.28125,270.484375 429.875,270.195312 429.875,269.617188 C429.875,269.148438 429.5625,268.710938 428.9375,268.304688 C428.3125,267.898438 427.625,267.695312 426.875,267.695312 C426.09375,267.695312 425.21875,267.804688 424.25,268.023438 L424.25,268.023438 L421.203125,268.703125 C419.796875,269.03125 417.984375,269.335938 415.765625,269.617188 L415.765625,269.617188 L414.921875,269.734375 C415.078125,268.6875 415.289062,267.90625 415.554688,267.390625 C415.664062,267.15625 415.71875,266.992188 415.71875,266.898438 C415.71875,266.554688 415.25,266.226562 414.3125,265.914062 C413.953125,265.804688 413.40625,265.609375 412.671875,265.328125 C413.21875,265.203125 413.734375,265.09375 414.21875,265 C418.9375,264.078125 421.296875,263.289062 421.296875,262.632812 C421.296875,262.289062 420.835938,261.75 419.914062,261.015625 C418.992188,260.28125 418.3125,259.914062 417.875,259.914062 C417.640625,259.914062 417.445312,260.015625 417.289062,260.21875 L417.289062,260.21875 L416.84375,260.78125 C416.40625,261.328125 415.003906,262.183594 412.636719,263.347656 C410.269531,264.511719 408.421875,265.257812 407.09375,265.585938 C406.421875,265.757812 406.085938,265.90625 406.085938,266.03125 C406.085938,266.203125 406.390625,266.289062 407,266.289062 C407.578125,266.289062 408.203125,266.226562 408.875,266.101562 L408.875,266.101562 L411.21875,265.679688 C411.296875,265.664062 411.523438,265.632812 411.898438,265.585938 C412.554688,266.382812 412.882812,267.875 412.882812,270.0625 C412.039062,270.140625 411.5,270.195312 411.265625,270.226562 L411.265625,270.226562 L407.28125,270.765625 L403.625,271.234375 C402.21875,271.4375 401.429688,271.539062 401.257812,271.539062 C398.851562,271.539062 397.648438,271.71875 397.648438,272.078125 C397.648438,272.109375 397.945312,272.265625 398.539062,272.546875 L398.539062,272.546875 L399.992188,273.25 C400.304688,273.390625 400.632812,273.460938 400.976562,273.460938 C401.273438,273.460938 401.671875,273.398438 402.171875,273.273438 C403.859375,272.867188 405.820312,272.492188 408.054688,272.148438 L408.054688,272.148438 L412.0625,271.539062 C412.109375,271.523438 412.359375,271.476562 412.8125,271.398438 L412.8125,271.398438 L412.8125,282.34375 C408.6875,288.4375 403.523438,292.976562 397.320312,295.960938 L397.320312,295.960938 L395.046875,297.039062 L394.226562,297.460938 C394.070312,297.539062 393.992188,297.601562 393.992188,297.648438 C393.992188,297.804688 394.25,297.882812 394.765625,297.882812 C397.171875,297.882812 400.050781,296.789062 403.402344,294.601562 C406.753906,292.414062 409.703125,289.710938 412.25,286.492188 L412.25,286.492188 L412.859375,285.71875 L412.8125,288.109375 L412.71875,294.484375 C412.71875,296.40625 412.515625,298 412.109375,299.265625 L412.109375,299.265625 L411.664062,300.648438 C411.601562,300.835938 411.570312,301 411.570312,301.140625 C411.570312,301.703125 411.800781,302.445312 412.261719,303.367188 C412.722656,304.289062 413.09375,304.75 413.375,304.75 Z M423.265625,284.546875 C424.78125,284.546875 426.113281,284.347656 427.261719,283.949219 C428.410156,283.550781 428.984375,283.085938 428.984375,282.554688 C428.984375,282.460938 428.96875,282.359375 428.9375,282.25 L428.9375,282.25 L428.5625,281.007812 L427.90625,278.757812 C427.8125,278.429688 427.710938,278.273438 427.601562,278.289062 C427.492188,278.289062 427.40625,278.398438 427.34375,278.617188 L427.34375,278.617188 L426.757812,280.75 C426.382812,282.0625 424.851562,282.71875 422.164062,282.71875 C420.773438,282.71875 420.078125,282.109375 420.078125,280.890625 L420.078125,280.890625 L420.078125,278.101562 C420.890625,277.820312 421.460938,277.625 421.789062,277.515625 L421.789062,277.515625 L423.640625,276.835938 C424.640625,276.460938 425.789062,276.117188 427.085938,275.804688 C427.632812,275.664062 427.90625,275.46875 427.90625,275.21875 C427.90625,274.96875 427.546875,274.554688 426.828125,273.976562 C426.109375,273.398438 425.59375,273.109375 425.28125,273.109375 C424.96875,273.109375 424.6875,273.320312 424.4375,273.742188 L424.4375,273.742188 L424.039062,274.375 C423.382812,275.40625 422.078125,276.335938 420.125,277.164062 C420.133929,277.097098 420.142538,277.032526 420.150829,276.970344 L420.216837,276.475287 C420.235969,276.331792 420.252232,276.209821 420.265625,276.109375 C420.34375,275.375 420.539062,274.773438 420.851562,274.304688 C421.007812,274.039062 421.085938,273.84375 421.085938,273.71875 C421.085938,273.421875 420.714844,273.046875 419.972656,272.59375 C419.230469,272.140625 418.617188,271.914062 418.132812,271.914062 C417.992188,271.914062 417.921875,272 417.921875,272.171875 C417.921875,272.234375 417.929688,272.304688 417.945312,272.382812 C418.179688,273.195312 418.296875,273.8125 418.296875,274.234375 L418.296875,274.234375 L418.296875,275.289062 L418.34375,278.054688 C418.34375,280.898438 418.625,282.691406 419.1875,283.433594 C419.75,284.175781 421.109375,284.546875 423.265625,284.546875 Z M401.210938,286.84375 C401.414062,286.84375 402.273438,286.234375 403.789062,285.015625 C404.132812,284.75 404.679688,284.359375 405.429688,283.84375 L405.429688,283.84375 L406.8125,282.929688 L406.8125,284.242188 C406.8125,285.164062 406.992188,285.625 407.351562,285.625 C407.554688,285.625 407.8125,285.351562 408.125,284.804688 C408.4375,284.257812 408.59375,283.804688 408.59375,283.445312 L408.59375,283.445312 L408.78125,277.84375 C408.78125,277.015625 408.890625,276.34375 409.109375,275.828125 C409.265625,275.46875 409.34375,275.234375 409.34375,275.125 C409.34375,274.859375 408.988281,274.53125 408.277344,274.140625 C407.566406,273.75 406.976562,273.554688 406.507812,273.554688 C406.148438,273.554688 405.96875,273.664062 405.96875,273.882812 C405.96875,273.929688 406.007812,274.015625 406.085938,274.140625 C406.148438,274.25 406.234375,274.523438 406.34375,274.960938 L406.34375,274.960938 L406.601562,276.039062 C406.648438,276.257812 406.695312,276.703125 406.742188,277.375 C406.054688,277.46875 405.53125,277.539062 405.171875,277.585938 C404.09375,277.742188 403.492188,277.828125 403.367188,277.84375 L403.367188,277.84375 L401.28125,278.054688 L400.390625,278.335938 L400.929688,278.804688 C401.539062,279.289062 402.0625,279.53125 402.5,279.53125 C402.8125,279.53125 403.1875,279.476562 403.625,279.367188 L403.625,279.367188 L405.453125,278.875 L406.789062,278.546875 L406.789062,282.4375 C404.992188,283.078125 403.210938,283.609375 401.445312,284.03125 C401.023438,284.140625 400.710938,284.195312 400.507812,284.195312 L400.507812,284.195312 L399.171875,284.171875 C398.796875,284.171875 398.609375,284.296875 398.609375,284.546875 C398.609375,284.609375 398.6875,284.726562 398.84375,284.898438 L398.84375,284.898438 L399.40625,285.53125 C400.171875,286.40625 400.773438,286.84375 401.210938,286.84375 Z M468.921875,266.382812 C469.875,266.382812 470.351562,265.875 470.351562,264.859375 C470.351562,262.65625 468.8125,261.554688 465.734375,261.554688 C464.6875,261.554688 463.515625,261.851562 462.21875,262.445312 C464.75,265.070312 466.984375,266.382812 468.921875,266.382812 Z M457.390625,272.945312 C457.84375,272.945312 458.414062,272.867188 459.101562,272.710938 C461.570312,272.179688 463.703125,271.773438 465.5,271.492188 L465.5,271.492188 L469.976562,270.8125 C474.132812,270.1875 477.023438,269.921875 478.648438,270.015625 C479.304688,270.0625 479.804688,270.117188 480.148438,270.179688 C480.679688,270.304688 481.109375,270.367188 481.4375,270.367188 C482.4375,270.367188 482.90625,270.039062 482.84375,269.382812 C482.796875,268.929688 482.277344,268.433594 481.285156,267.894531 C480.292969,267.355469 479.40625,267.085938 478.625,267.085938 C478.03125,267.085938 477.109375,267.265625 475.859375,267.625 C474.34375,268.0625 471.804688,268.585938 468.242188,269.195312 L468.242188,269.195312 L464.867188,269.78125 C460.789062,270.5 457.859375,270.859375 456.078125,270.859375 C455.21875,270.859375 454.789062,271.015625 454.789062,271.328125 C454.789062,271.578125 455.125,271.910156 455.796875,272.324219 C456.46875,272.738281 457,272.945312 457.390625,272.945312 Z M451.929688,273.34375 C452.804688,273.34375 453.242188,272.664062 453.242188,271.304688 C453.242188,270.304688 452.753906,269.449219 451.777344,268.738281 C450.800781,268.027344 449.617188,267.671875 448.226562,267.671875 C447.648438,267.671875 446.859375,267.75 445.859375,267.90625 C448.046875,271.53125 450.070312,273.34375 451.929688,273.34375 Z M466.0625,303.15625 C466.65625,303.15625 467.253906,302.503906 467.855469,301.199219 C468.457031,299.894531 468.757812,298.601562 468.757812,297.320312 L468.757812,297.320312 L468.710938,295.117188 L468.664062,292.234375 C468.664062,289.53125 468.765625,287.84375 468.96875,287.171875 C469.09375,286.8125 469.15625,286.570312 469.15625,286.445312 C469.15625,286.085938 468.796875,285.703125 468.078125,285.296875 C467.75,285.109375 467.25,284.820312 466.578125,284.429688 C468.125,284.335938 469.28125,284.242188 470.046875,284.148438 C471.21875,284.039062 472.023438,283.984375 472.460938,283.984375 C473.789062,283.984375 474.453125,283.703125 474.453125,283.140625 C474.453125,283.03125 474.296875,282.78125 473.984375,282.390625 C473.859375,282.25 473.695312,282.03125 473.492188,281.734375 C473.976562,280.609375 474.585938,279.765625 475.320312,279.203125 C476.257812,278.5 476.726562,278.015625 476.726562,277.75 C476.726562,277.375 476.085938,276.824219 474.804688,276.097656 C473.523438,275.371094 472.546875,275.007812 471.875,275.007812 C471.625,275.007812 471.328125,275.070312 470.984375,275.195312 L470.984375,275.195312 L468.828125,275.992188 C467.03125,276.664062 465.015625,277 462.78125,277 C462.171875,277 461.203125,276.828125 459.875,276.484375 C459.734375,276.453125 459.601562,276.4375 459.476562,276.4375 C459.007812,276.4375 458.773438,276.640625 458.773438,277.046875 C458.773438,277.359375 459.007812,277.84375 459.476562,278.5 C459.867188,279.0625 460.242188,280.273438 460.601562,282.132812 L460.601562,282.132812 L461.09375,284.757812 L461.257812,285.648438 C461.382812,286.414062 461.648438,286.796875 462.054688,286.796875 C462.460938,286.796875 462.679688,286.429688 462.710938,285.695312 C462.726562,285.507812 462.742188,285.21875 462.757812,284.828125 L462.757812,284.828125 L465.59375,284.617188 C465.84375,285.617188 466.023438,286.453125 466.132812,287.125 L466.132812,287.125 L466.367188,289.539062 L466.226562,295 C466.226562,296.609375 465.960938,297.414062 465.429688,297.414062 C464.914062,297.414062 464.414062,297.320312 463.929688,297.132812 C463.242188,296.851562 462.640625,296.710938 462.125,296.710938 C461.84375,296.710938 461.703125,296.78125 461.703125,296.921875 C461.703125,296.953125 461.75,297.023438 461.84375,297.132812 C461.96875,297.257812 462.179688,297.539062 462.476562,297.976562 L462.476562,297.976562 L463.507812,299.523438 C463.820312,299.976562 464.132812,300.515625 464.445312,301.140625 C465.117188,302.484375 465.65625,303.15625 466.0625,303.15625 Z M446.75,294.25 C447.140625,294.25 447.484375,293.710938 447.78125,292.632812 C448.3125,290.773438 449.421875,288.296875 451.109375,285.203125 L451.109375,285.203125 L453.570312,280.75 L455.210938,277.632812 C455.414062,277.367188 455.515625,277.125 455.515625,276.90625 C455.515625,276.625 455.382812,276.484375 455.117188,276.484375 C454.726562,276.484375 453.125,278.460938 450.3125,282.414062 C448.109375,285.523438 446.554688,287.101562 445.648438,287.148438 L445.648438,287.148438 L444.640625,287.195312 C444.109375,287.210938 443.84375,287.476562 443.84375,287.992188 C443.84375,288.039062 443.867188,288.132812 443.914062,288.273438 C443.976562,288.476562 444.179688,289.273438 444.523438,290.664062 C445.148438,293.054688 445.890625,294.25 446.75,294.25 Z M462.710938,283.445312 L462.359375,278.382812 L469.648438,277.398438 C470.367188,277.304688 470.8125,277.257812 470.984375,277.257812 C471.375,277.257812 471.570312,277.484375 471.570312,277.9375 C471.570312,278.3125 471.5,279.0625 471.359375,280.1875 L471.359375,280.1875 L471.054688,282.4375 L462.710938,283.445312 Z M455.65625,298.492188 C456.421875,298.492188 457.25,297.726562 458.140625,296.195312 C459.03125,294.664062 459.476562,293.25 459.476562,291.953125 C459.476562,291.21875 459.355469,290.433594 459.113281,289.597656 C458.871094,288.761719 458.648438,288.34375 458.445312,288.34375 C458.351562,288.34375 458.21875,288.601562 458.046875,289.117188 C457.734375,290.117188 457,291.46875 455.84375,293.171875 C454.921875,294.53125 454.460938,295.5625 454.460938,296.265625 C454.460938,297.75 454.859375,298.492188 455.65625,298.492188 Z M479.09375,296.382812 C479.78125,296.382812 480.125,295.867188 480.125,294.835938 C480.125,293.414062 479.441406,292.164062 478.074219,291.085938 C476.707031,290.007812 475.117188,289.46875 473.304688,289.46875 C472.820312,289.46875 472.257812,289.484375 471.617188,289.515625 C474.414062,294.09375 476.90625,296.382812 479.09375,296.382812 Z M188.679688,377.09375 C189.367188,377.09375 189.710938,376.5 189.710938,375.3125 C189.710938,372.234375 185.96875,369.257812 178.484375,366.382812 C179.46875,365.023438 180.40625,363.273438 181.296875,361.132812 L181.296875,361.132812 L181.90625,359.679688 C184.0625,359.476562 186.40625,359.375 188.9375,359.375 C190.40625,359.375 191.515625,359.40625 192.265625,359.46875 C194.8125,359.65625 196.289062,359.75 196.695312,359.75 C197.757812,359.75 198.289062,359.429688 198.289062,358.789062 C198.289062,358.335938 197.777344,357.855469 196.753906,357.347656 C195.730469,356.839844 194.765625,356.585938 193.859375,356.585938 C192.8125,356.585938 191.25,356.773438 189.171875,357.148438 C187.96875,357.382812 185.578125,357.726562 182,358.179688 C181.4375,357.320312 180.65625,356.890625 179.65625,356.890625 C179.125,356.890625 178.867188,357.03125 178.882812,357.3125 C178.882812,357.375 178.960938,357.601562 179.117188,357.992188 C179.164062,358.148438 179.1875,358.34375 179.1875,358.578125 L179.1875,358.578125 L172.109375,359.585938 C172.84375,358.195312 173.445312,357.164062 173.914062,356.492188 C174.117188,356.195312 174.21875,355.960938 174.21875,355.789062 C174.21875,355.570312 173.9375,355.273438 173.375,354.898438 C173.21875,354.789062 172.984375,354.625 172.671875,354.40625 C174.21875,354.125 175.375,353.90625 176.140625,353.75 C178.109375,353.359375 179.546875,353.164062 180.453125,353.164062 C180.765625,353.164062 181.1875,353.179688 181.71875,353.210938 C182,353.851562 182.320312,354.171875 182.679688,354.171875 C183.148438,354.171875 183.867188,353.53125 184.835938,352.25 C186.320312,350.296875 187.382812,349.117188 188.023438,348.710938 C188.929688,348.164062 189.382812,347.726562 189.382812,347.398438 C189.382812,346.882812 188.835938,346.148438 187.742188,345.195312 C186.648438,344.242188 185.796875,343.765625 185.1875,343.765625 C185.015625,343.765625 184.75,343.828125 184.390625,343.953125 C183.3125,344.328125 181.945312,344.664062 180.289062,344.960938 C179.945312,345.023438 179.421875,345.125 178.71875,345.265625 L178.71875,345.265625 L179.070312,344.117188 L179.398438,342.96875 C179.507812,342.65625 179.625,342.289062 179.75,341.867188 C179.875,341.507812 179.9375,341.21875 179.9375,341 C179.9375,340.390625 179.210938,339.617188 177.757812,338.679688 C181.976562,337.851562 184.085938,337.148438 184.085938,336.570312 C184.085938,335.679688 183.429688,335.234375 182.117188,335.234375 C181.242188,335.234375 180.265625,335.398438 179.1875,335.726562 L179.1875,335.726562 L175.90625,336.6875 C174.5625,337.09375 173.148438,337.4375 171.664062,337.71875 L171.664062,337.71875 L168.640625,338.28125 C167.953125,338.421875 167.5,338.5 167.28125,338.515625 C166.1875,338.59375 165.640625,338.773438 165.640625,339.054688 C165.640625,339.445312 166.671875,339.789062 168.734375,340.085938 C169.328125,341.960938 169.710938,343.789062 169.882812,345.570312 C169.898438,345.867188 169.9375,346.296875 170,346.859375 C169.390625,346.953125 169.015625,347.007812 168.875,347.023438 L168.875,347.023438 L166.976562,347.328125 C166.257812,347.453125 165.648438,347.515625 165.148438,347.515625 C164.851562,347.515625 164.515625,347.46875 164.140625,347.375 C163.203125,347.15625 162.59375,347.046875 162.3125,347.046875 C161.890625,347.046875 161.679688,347.21875 161.679688,347.5625 C161.679688,347.828125 161.8125,348.125 162.078125,348.453125 C162.609375,349.09375 163.015625,349.734375 163.296875,350.375 L163.296875,350.375 L164.726562,353.65625 C165.273438,354.9375 165.5625,355.617188 165.59375,355.695312 C165.90625,356.523438 166.226562,356.9375 166.554688,356.9375 C167.007812,356.9375 167.234375,356.445312 167.234375,355.460938 L167.234375,355.460938 L171.734375,354.59375 C171.1875,356.515625 170.585938,358.28125 169.929688,359.890625 C167.617188,360.15625 165.882812,360.367188 164.726562,360.523438 C161.679688,360.898438 159.109375,361.164062 157.015625,361.320312 C156.109375,361.382812 155.476562,361.40625 155.117188,361.390625 L155.117188,361.390625 L154.601562,361.367188 C153.664062,361.320312 153.195312,361.507812 153.195312,361.929688 C153.195312,362.257812 153.578125,362.652344 154.34375,363.113281 C155.109375,363.574219 155.773438,363.804688 156.335938,363.804688 C156.664062,363.804688 157.109375,363.742188 157.671875,363.617188 C161.546875,362.742188 165.382812,362 169.179688,361.390625 L169.179688,361.390625 L168.523438,362.539062 L167.960938,363.570312 C167.773438,363.882812 167.679688,364.109375 167.679688,364.25 C167.679688,364.734375 168.382812,365.15625 169.789062,365.515625 C171.632812,365.96875 173.382812,366.523438 175.039062,367.179688 C170.914062,370.820312 165.96875,373 160.203125,373.71875 C159.234375,373.84375 158.75,374.007812 158.75,374.210938 C158.75,374.570312 159.554688,374.75 161.164062,374.75 C167.367188,374.75 172.765625,372.507812 177.359375,368.023438 C180.75,369.804688 183.796875,372.234375 186.5,375.3125 C187.546875,376.5 188.273438,377.09375 188.679688,377.09375 Z M171.617188,346.578125 L171.617188,345.898438 L171.710938,342.640625 L171.664062,342.007812 C171.632812,341.273438 171.304688,340.578125 170.679688,339.921875 C171.523438,339.828125 172.023438,339.765625 172.179688,339.734375 L172.179688,339.734375 L175.4375,339.125 C175.671875,339.078125 176.046875,339.015625 176.5625,338.9375 C176.796875,339.671875 176.914062,340.71875 176.914062,342.078125 C176.914062,342.59375 176.867188,343.421875 176.773438,344.5625 L176.773438,344.5625 L176.679688,345.617188 L171.617188,346.578125 Z M176.960938,352.320312 L178.53125,346.695312 L182.65625,346.085938 C183.28125,345.992188 183.679688,345.945312 183.851562,345.945312 C184.226562,345.945312 184.414062,346.15625 184.414062,346.578125 C184.414062,347.203125 184.28125,347.835938 184.015625,348.476562 L184.015625,348.476562 L183.335938,350.164062 C182.835938,351.382812 182.453125,351.992188 182.1875,351.992188 C182.140625,351.992188 182.054688,351.960938 181.929688,351.898438 C181.601562,351.742188 181.265625,351.664062 180.921875,351.664062 C180.46875,351.664062 179.585938,351.796875 178.273438,352.0625 C177.976562,352.125 177.539062,352.210938 176.960938,352.320312 L176.960938,352.320312 Z M171.804688,353.28125 L171.804688,347.84375 L176.421875,347.046875 L175.414062,352.601562 L171.804688,353.28125 Z M166.976562,354.3125 L165.242188,348.992188 L170.09375,348.148438 L170.515625,353.609375 L166.976562,354.3125 Z M176.351562,365.585938 C175.445312,365.351562 174.789062,365.179688 174.382812,365.070312 L174.382812,365.070312 L171.640625,364.320312 C170.59375,364.039062 170.0625,363.804688 170.046875,363.617188 C170.046875,363.585938 170.101562,363.484375 170.210938,363.3125 L170.210938,363.3125 L170.820312,362.257812 L171.59375,361.039062 L179.023438,360.03125 C178.367188,361.875 177.476562,363.726562 176.351562,365.585938 Z M206.28125,355.34375 C207.03125,355.34375 207.816406,354.625 208.636719,353.1875 C209.457031,351.75 210.023438,350.085938 210.335938,348.195312 L210.335938,348.195312 L211.0625,348.289062 C211.625,348.367188 212.046875,348.40625 212.328125,348.40625 C212.59375,348.40625 213.101562,348.359375 213.851562,348.265625 L213.851562,348.265625 L217.695312,347.726562 C221.960938,347.148438 224.679688,346.804688 225.851562,346.695312 C231.023438,346.164062 234.015625,345.8125 234.828125,345.640625 L234.828125,345.640625 L235.742188,345.546875 L236.867188,346.039062 L236.632812,346.507812 L235.671875,348.195312 C235.53125,348.445312 235.289062,348.828125 234.945312,349.34375 C234.476562,350.03125 234.242188,350.4375 234.242188,350.5625 C234.257812,350.8125 234.445312,350.9375 234.804688,350.9375 C235.195312,350.9375 235.648438,350.804688 236.164062,350.539062 L236.164062,350.539062 L238.53125,349.765625 L240.734375,348.992188 C242.25,348.460938 243.007812,347.960938 243.007812,347.492188 C243.007812,346.976562 242.296875,346.164062 240.875,345.054688 C239.453125,343.945312 238.414062,343.390625 237.757812,343.390625 C237.507812,343.390625 237.039062,343.492188 236.351562,343.695312 C235.789062,343.867188 234.835938,344.039062 233.492188,344.210938 L233.492188,344.210938 L228.757812,344.867188 C229.320312,343.914062 229.671875,343.320312 229.8125,343.085938 L229.8125,343.085938 L231.617188,340.109375 C232.585938,338.484375 233.140625,337.570312 233.28125,337.367188 L233.28125,337.367188 L234.125,336.078125 C234.375,335.703125 234.5,335.367188 234.5,335.070312 C234.5,334.679688 233.992188,334.183594 232.976562,333.582031 C231.960938,332.980469 231.125,332.679688 230.46875,332.679688 C229.84375,332.679688 229.53125,332.929688 229.53125,333.429688 C229.53125,333.554688 229.617188,333.820312 229.789062,334.226562 C229.960938,334.585938 230.046875,335.101562 230.046875,335.773438 C230.046875,338.570312 228.96875,341.671875 226.8125,345.078125 L226.8125,345.078125 L210.335938,347.234375 C210.148438,346.734375 210.015625,346.4375 209.9375,346.34375 L209.9375,346.34375 L209.257812,345.476562 C208.992188,345.148438 208.828125,344.984375 208.765625,344.984375 C208.625,344.984375 208.484375,345.21875 208.34375,345.6875 L208.34375,345.6875 L207.992188,346.953125 C207.757812,347.734375 207.09375,348.976562 206,350.679688 C205.34375,351.695312 205.015625,352.609375 205.015625,353.421875 C205.015625,354.703125 205.4375,355.34375 206.28125,355.34375 Z M223.203125,342.289062 C224.078125,342.289062 224.515625,341.515625 224.515625,339.96875 C224.515625,337.625 222.976562,335.9375 219.898438,334.90625 C220.820312,339.828125 221.921875,342.289062 223.203125,342.289062 Z M216.195312,343.414062 C216.867188,343.414062 217.203125,342.875 217.203125,341.796875 C217.203125,340.46875 216.730469,339.304688 215.785156,338.304688 C214.839844,337.304688 213.609375,336.671875 212.09375,336.40625 C213.078125,341.078125 214.445312,343.414062 216.195312,343.414062 Z M222.851562,377.492188 C223.992188,377.492188 224.9375,376.578125 225.6875,374.75 C226.4375,372.921875 226.8125,370.625 226.8125,367.859375 C226.8125,365.921875 226.640625,363.585938 226.296875,360.851562 C229.640625,360.664062 232.375,360.570312 234.5,360.570312 L234.5,360.570312 L237.875,360.640625 L240.078125,360.6875 C240.90625,360.6875 241.320312,360.414062 241.320312,359.867188 C241.320312,359.398438 240.925781,358.933594 240.136719,358.472656 C239.347656,358.011719 238.546875,357.78125 237.734375,357.78125 C236.75,357.78125 235.3125,357.953125 233.421875,358.296875 C232.984375,358.375 231.265625,358.601562 228.265625,358.976562 C227.78125,359.039062 227.046875,359.140625 226.0625,359.28125 C225.78125,358.21875 225.273438,357.398438 224.539062,356.820312 C225.773438,356.101562 227.0625,355.382812 228.40625,354.664062 C230.3125,353.632812 231.265625,352.945312 231.265625,352.601562 C231.265625,352.164062 230.703125,351.53125 229.578125,350.703125 C228.453125,349.875 227.59375,349.460938 227,349.460938 C226.75,349.460938 226.421875,349.523438 226.015625,349.648438 C221.453125,351.007812 218.179688,351.757812 216.195312,351.898438 C214.664062,352.007812 213.898438,352.210938 213.898438,352.507812 C213.898438,352.773438 214.355469,353.132812 215.269531,353.585938 C216.183594,354.039062 216.90625,354.265625 217.4375,354.265625 C217.6875,354.265625 218.625,353.960938 220.25,353.351562 C221.359375,352.945312 222.523438,352.570312 223.742188,352.226562 C224.554688,352.007812 225.125,351.820312 225.453125,351.664062 C225.6875,351.570312 225.867188,351.523438 225.992188,351.523438 C226.351562,351.539062 226.53125,351.734375 226.53125,352.109375 C226.53125,352.421875 226.382812,352.78125 226.085938,353.1875 L226.085938,353.1875 L225.007812,354.664062 C224.929688,354.772236 224.81458,354.922014 224.662491,355.113397 L224.462232,355.363027 C224.244222,355.632628 223.972957,355.962139 223.648438,356.351562 L223.648438,356.351562 L223.132812,356.164062 C222.789062,356.054688 222.46875,356 222.171875,356 C221.390625,356 221,356.195312 221,356.585938 C221,356.726562 221.15625,356.90625 221.46875,357.125 L221.46875,357.125 L222.546875,357.851562 C223.078125,358.210938 223.4375,358.789062 223.625,359.585938 C220.796875,359.945312 217.8125,360.289062 214.671875,360.617188 C212.875,360.820312 211.523438,360.984375 210.617188,361.109375 C209.148438,361.3125 208.242188,361.421875 207.898438,361.4375 C206.257812,361.578125 205.4375,361.8125 205.4375,362.140625 C205.4375,362.40625 205.867188,362.703125 206.726562,363.03125 C207.585938,363.359375 208.375,363.523438 209.09375,363.523438 C209.703125,363.523438 210.554688,363.40625 211.648438,363.171875 C213.929688,362.703125 217.09375,362.171875 221.140625,361.578125 L221.140625,361.578125 L223.859375,361.203125 C224.046875,363.359375 224.140625,365.46875 224.140625,367.53125 C224.140625,369.671875 223.945312,371.085938 223.554688,371.773438 C223.164062,372.460938 222.367188,372.804688 221.164062,372.804688 C220.429688,372.804688 219.78125,372.742188 219.21875,372.617188 C218.609375,372.492188 218.101562,372.429688 217.695312,372.429688 C217.257812,372.429688 217.039062,372.515625 217.039062,372.6875 C217.039062,372.734375 217.164062,372.859375 217.414062,373.0625 C217.585938,373.1875 217.828125,373.414062 218.140625,373.742188 C218.4375,374.070312 218.890625,374.507812 219.5,375.054688 L219.5,375.054688 L220.976562,376.390625 C221.789062,377.125 222.414062,377.492188 222.851562,377.492188 Z M290.164062,376.460938 C290.804688,376.460938 291.125,376.171875 291.125,375.59375 C291.125,375.171875 291.078125,374.632812 290.984375,373.976562 C290.65625,371.617188 290.492188,369.40625 290.492188,367.34375 C290.492188,366.546875 290.40625,366.148438 290.234375,366.148438 C290.078125,366.148438 289.929688,366.445312 289.789062,367.039062 C289.695312,367.429688 289.640625,367.664062 289.625,367.742188 L289.625,367.742188 L289.320312,368.796875 L288.875,370.367188 C288.515625,371.570312 288.085938,372.171875 287.585938,372.171875 C286.789062,372.171875 285.457031,371.175781 283.589844,369.183594 C281.722656,367.191406 280.070312,365 278.632812,362.609375 C279.757812,361.015625 280.632812,359.75 281.257812,358.8125 L281.257812,358.8125 L282.101562,357.570312 C282.335938,357.226562 282.554688,356.953125 282.757812,356.75 C283.273438,356.234375 283.53125,355.859375 283.53125,355.625 C283.53125,355.21875 283.132812,354.691406 282.335938,354.042969 C281.539062,353.394531 280.890625,353.070312 280.390625,353.070312 C279.96875,353.070312 279.757812,353.375 279.757812,353.984375 C279.757812,355.90625 278.929688,358.125 277.273438,360.640625 C277.007812,359.984375 276.804688,359.484375 276.664062,359.140625 C275.492188,356.359375 274.664062,353.890625 274.179688,351.734375 C275.085938,351.484375 275.671875,351.328125 275.9375,351.265625 L275.9375,351.265625 L278.492188,350.65625 C279.648438,350.359375 280.359375,350.195312 280.625,350.164062 C281.71875,349.976562 282.265625,349.640625 282.265625,349.15625 C282.265625,348.484375 281.53125,348.148438 280.0625,348.148438 C279.421875,348.148438 278.5625,348.359375 277.484375,348.78125 C277.03125,348.96875 276.304688,349.234375 275.304688,349.578125 L275.304688,349.578125 L273.804688,350.117188 C273.585938,348.804688 273.359375,347.28125 273.125,345.546875 L273.125,345.546875 L272.679688,342.171875 C272.429688,340.296875 272.304688,338.484375 272.304688,336.734375 C272.304688,336.25 272.335938,335.820312 272.398438,335.445312 C272.445312,335.164062 272.46875,334.953125 272.46875,334.8125 C272.46875,334.3125 272.019531,333.804688 271.121094,333.289062 C270.222656,332.773438 269.328125,332.515625 268.4375,332.515625 C268,332.515625 267.78125,332.65625 267.78125,332.9375 C267.78125,333.203125 267.960938,333.609375 268.320312,334.15625 C268.710938,334.765625 269.023438,335.75 269.257812,337.109375 L269.257812,337.109375 L270.171875,342.546875 C270.25,343.03125 270.492188,344.351562 270.898438,346.507812 C271.101562,347.523438 271.28125,348.5 271.4375,349.4375 L271.4375,349.4375 L271.695312,350.820312 L264.617188,352.90625 C264.617188,351.515625 264.734375,350.5 264.96875,349.859375 C265.0625,349.609375 265.109375,349.445312 265.109375,349.367188 C265.109375,348.882812 264.085938,348.265625 262.039062,347.515625 C263.773438,346.875 264.9375,346.476562 265.53125,346.320312 C266.96875,345.945312 267.6875,345.546875 267.6875,345.125 C267.6875,344.765625 267.191406,344.230469 266.199219,343.519531 C265.207031,342.808594 264.46875,342.453125 263.984375,342.453125 C263.546875,342.453125 263.296875,342.796875 263.234375,343.484375 C263.125,344.8125 260.992188,346.375 256.835938,348.171875 C256.242188,348.421875 255.945312,348.617188 255.945312,348.757812 C255.945312,348.914062 256.148438,348.992188 256.554688,348.992188 C256.710938,348.992188 256.890625,348.96875 257.09375,348.921875 L257.09375,348.921875 L258.734375,348.570312 C258.875,348.539062 259.40625,348.375 260.328125,348.078125 C260.578125,348 260.960938,347.882812 261.476562,347.726562 C262.273438,349.679688 262.726562,351.578125 262.835938,353.421875 C258.601562,354.53125 255.960938,355.148438 254.914062,355.273438 C253.835938,355.398438 253.296875,355.632812 253.296875,355.976562 C253.296875,356.210938 253.597656,356.46875 254.199219,356.75 C254.800781,357.03125 255.34375,357.171875 255.828125,357.171875 C256.234375,357.171875 257.070312,356.9375 258.335938,356.46875 C259.242188,356.125 260.742188,355.640625 262.835938,355.015625 L262.835938,355.015625 L262.835938,360.617188 L261.195312,361.296875 L257.539062,362.796875 C254.382812,364.0625 252.007812,364.695312 250.414062,364.695312 C249.820312,364.695312 249.523438,364.90625 249.523438,365.328125 C249.523438,365.65625 249.914062,366.121094 250.695312,366.722656 C251.476562,367.324219 252.085938,367.625 252.523438,367.625 C252.898438,367.625 253.40625,367.429688 254.046875,367.039062 L254.046875,367.039062 L257.445312,365.140625 L260.9375,363.195312 C261.171875,363.054688 261.804688,362.726562 262.835938,362.210938 L262.835938,362.210938 L262.789062,364.742188 L262.71875,367.695312 C262.71875,369.382812 262.359375,370.226562 261.640625,370.226562 C261.59375,370.226562 261.507812,370.203125 261.382812,370.15625 C261.023438,370.046875 260.570312,369.945312 260.023438,369.851562 C259.460938,369.773438 259.078125,369.6875 258.875,369.59375 C258.625,369.5 258.414062,369.453125 258.242188,369.453125 C257.992188,369.453125 257.867188,369.53125 257.867188,369.6875 C257.867188,369.734375 257.9375,369.820312 258.078125,369.945312 C258.234375,370.085938 258.421875,370.304688 258.640625,370.601562 C258.828125,370.851562 259.109375,371.210938 259.484375,371.679688 C260.03125,372.335938 260.414062,372.820312 260.632812,373.132812 C261.492188,374.273438 262.101562,374.84375 262.460938,374.84375 C263.117188,374.84375 263.667969,374.324219 264.113281,373.285156 C264.558594,372.246094 264.78125,370.945312 264.78125,369.382812 L264.78125,369.382812 L264.757812,367.554688 L264.664062,364.0625 L264.617188,361.414062 C268.507812,359.570312 270.453125,358.460938 270.453125,358.085938 C270.453125,357.898438 270.296875,357.804688 269.984375,357.804688 C269.84375,357.804688 269.6875,357.835938 269.515625,357.898438 L269.515625,357.898438 L268.554688,358.25 C268.429688,358.296875 268.085938,358.445312 267.523438,358.695312 C267.132812,358.867188 266.515625,359.125 265.671875,359.46875 L265.671875,359.46875 L264.617188,359.914062 L264.617188,354.476562 L272.09375,352.367188 C273.03125,356.195312 274.234375,359.492188 275.703125,362.257812 C274.03125,363.992188 272.164062,365.523438 270.101562,366.851562 L270.101562,366.851562 L268.742188,367.742188 C268.351562,367.992188 268.117188,368.140625 268.039062,368.1875 L268.039062,368.1875 L267.265625,368.890625 L267.523438,369.101562 L267.757812,369.054688 L269.1875,368.796875 C271.1875,368.421875 273.703125,366.90625 276.734375,364.25 C279.125,368.09375 281.503906,371.089844 283.871094,373.238281 C286.238281,375.386719 288.335938,376.460938 290.164062,376.460938 Z M281.726562,343.859375 C282.664062,343.859375 283.132812,343.421875 283.132812,342.546875 C283.132812,340.609375 281.671875,339.640625 278.75,339.640625 C277.84375,339.640625 276.867188,339.84375 275.820312,340.25 C278.460938,342.65625 280.429688,343.859375 281.726562,343.859375 Z M307.484375,374.632812 C308.484375,374.632812 308.984375,373.132812 308.984375,370.132812 L308.984375,370.132812 L309.59375,353.703125 C309.59375,353.505208 309.604167,353.210069 309.625,352.817708 L309.649306,352.39294 L309.649306,352.39294 L309.664062,352.15625 C309.695312,351.640625 309.710938,351.234375 309.710938,350.9375 C309.710938,349.640625 309.039062,348.5625 307.695312,347.703125 C308.617188,346.375 309.8125,344.59375 311.28125,342.359375 C311.953125,341.3125 312.46875,340.554688 312.828125,340.085938 C313.671875,339.007812 314.09375,338.28125 314.09375,337.90625 C314.09375,337.296875 313.617188,336.621094 312.664062,335.878906 C311.710938,335.136719 310.835938,334.765625 310.039062,334.765625 C309.742188,334.765625 309.59375,334.898438 309.59375,335.164062 C309.59375,335.398438 309.648438,335.796875 309.757812,336.359375 C309.789062,336.5625 309.804688,336.734375 309.804688,336.875 C309.804688,338.625 308.789062,341.277344 306.757812,344.832031 C304.726562,348.386719 302.390625,351.601562 299.75,354.476562 L299.75,354.476562 L298.460938,355.859375 C297.882812,356.484375 297.601562,356.875 297.617188,357.03125 C297.632812,357.21875 297.742188,357.3125 297.945312,357.3125 C298.335938,357.3125 298.835938,357.09375 299.445312,356.65625 L299.445312,356.65625 L301.273438,355.34375 C302.898438,354.171875 304.890625,351.882812 307.25,348.476562 C307.5,349.164062 307.625,350.132812 307.625,351.382812 L307.625,351.382812 L307.554688,353.5625 L307.203125,361.484375 C307.203125,363.453125 306.9375,365.5625 306.40625,367.8125 C306.015625,369.5 305.820312,370.578125 305.820312,371.046875 C305.820312,371.875 306.003906,372.679688 306.371094,373.460938 C306.738281,374.242188 307.109375,374.632812 307.484375,374.632812 Z M321.921875,344.328125 C322.640625,344.328125 323,343.773438 323,342.664062 C323,340.570312 321.640625,339.28125 318.921875,338.796875 C318.765625,338.78125 318.539062,338.742188 318.242188,338.679688 C318.429688,339.960938 318.929688,341.222656 319.742188,342.464844 C320.554688,343.707031 321.28125,344.328125 321.921875,344.328125 Z M334.15625,375.523438 C334.984375,375.523438 335.753906,374.699219 336.464844,373.050781 C337.175781,371.402344 337.53125,369.625 337.53125,367.71875 L337.53125,367.71875 L337.507812,367.34375 L336.734375,348.921875 L336.734375,348.40625 C336.734375,346.90625 336.929688,345.765625 337.320312,344.984375 L337.320312,344.984375 L337.835938,343.929688 C337.992188,343.632812 338.070312,343.367188 338.070312,343.132812 C338.070312,342.695312 337.496094,342.152344 336.347656,341.503906 C335.199219,340.855469 334.226562,340.53125 333.429688,340.53125 C333.101562,340.53125 332.78125,340.601562 332.46875,340.742188 L332.46875,340.742188 L330.734375,341.539062 C329.421875,342.117188 327.960938,342.460938 326.351562,342.570312 C325.007812,342.664062 324.335938,342.835938 324.335938,343.085938 C324.335938,343.289062 324.667969,343.53125 325.332031,343.8125 C325.996094,344.09375 326.570312,344.234375 327.054688,344.234375 C327.445312,344.234375 327.820312,344.179688 328.179688,344.070312 L328.179688,344.070312 L330.546875,343.320312 C331.34375,343.070312 332.117188,342.945312 332.867188,342.945312 C333.648438,342.945312 334.039062,343.992188 334.039062,346.085938 L334.039062,346.085938 L334.085938,348.382812 L334.367188,363.710938 C334.367188,367.882812 333.890625,369.96875 332.9375,369.96875 C332.40625,369.96875 331.75,369.882812 330.96875,369.710938 L330.96875,369.710938 L329.421875,369.359375 C329.03125,369.265625 328.734375,369.21875 328.53125,369.21875 C328.015625,369.21875 327.757812,369.328125 327.757812,369.546875 C327.757812,369.625 327.867188,369.765625 328.085938,369.96875 L328.085938,369.96875 L329.023438,370.882812 L330.664062,372.40625 C331.195312,372.90625 331.734375,373.476562 332.28125,374.117188 C333.0625,375.054688 333.6875,375.523438 334.15625,375.523438 Z M316.71875,372.851562 C317.375,372.820312 317.703125,371.914062 317.703125,370.132812 L317.703125,370.132812 L317.75,368.679688 L318.664062,348.148438 C318.679688,347.960938 318.6875,347.796875 318.6875,347.65625 C318.6875,346.609375 318.40625,345.710938 317.84375,344.960938 C317.28125,344.210938 316.601562,343.835938 315.804688,343.835938 C315.304688,343.835938 315.054688,344.023438 315.054688,344.398438 C315.054688,344.539062 315.203125,344.820312 315.5,345.242188 C316.046875,346.007812 316.320312,347.703125 316.320312,350.328125 C316.320312,356.3125 316.03125,360.976562 315.453125,364.320312 L315.453125,364.320312 L315.03125,366.78125 C314.9375,367.359375 314.890625,367.976562 314.890625,368.632812 C314.890625,369.664062 315.085938,370.632812 315.476562,371.539062 C315.867188,372.445312 316.28125,372.882812 316.71875,372.851562 Z M370.25,375.078125 C377.546875,375.078125 381.195312,373.921875 381.195312,371.609375 C381.195312,371.34375 381.109375,370.945312 380.9375,370.414062 C380.765625,369.898438 380.585938,369.171875 380.398438,368.234375 L380.398438,368.234375 L379.859375,365.5625 C379.6875,364.65625 379.515625,364.210938 379.34375,364.226562 C379.234375,364.226562 379.101562,364.585938 378.945312,365.304688 C378.335938,368.257812 377.542969,370.097656 376.566406,370.824219 C375.589844,371.550781 373.414062,371.914062 370.039062,371.914062 C366.382812,371.914062 364.554688,370.40625 364.554688,367.390625 L364.554688,367.390625 L364.554688,365.914062 C365.617188,365.851562 366.5,365.703125 367.203125,365.46875 L367.203125,365.46875 L369.96875,364.367188 L372.59375,363.335938 C373.484375,362.976562 374.460938,362.546875 375.523438,362.046875 C376.398438,361.625 377.078125,361.320312 377.5625,361.132812 C378.09375,360.945312 378.359375,360.773438 378.359375,360.617188 C378.359375,360.320312 377.785156,359.738281 376.636719,358.871094 C375.488281,358.003906 374.726562,357.570312 374.351562,357.570312 C374.039062,357.570312 373.773438,357.84375 373.554688,358.390625 L373.554688,358.390625 L372.921875,359.960938 C372.75,360.414062 371.726562,361.21875 369.851562,362.375 C367.976562,363.53125 366.25,364.429688 364.671875,365.070312 C364.734375,364.289062 364.789062,363.703125 364.835938,363.3125 C364.992188,362.234375 365.070312,361.5 365.070312,361.109375 C365.070312,360.96875 365.03125,360.664062 364.953125,360.195312 L364.953125,360.195312 L371.726562,353.1875 L373.320312,352.976562 C377.304688,352.429688 380.203125,352.15625 382.015625,352.15625 C382.5625,352.15625 383.101562,352.179688 383.632812,352.226562 C384.851562,352.320312 385.757812,352.367188 386.351562,352.367188 C387.273438,352.367188 387.734375,352.046875 387.734375,351.40625 C387.734375,350.03125 386.632812,349.34375 384.429688,349.34375 C382.445312,349.34375 378.59375,350.085938 372.875,351.570312 C373.734375,350.523438 374.257812,349.875 374.445312,349.625 L374.445312,349.625 L376.953125,345.992188 C377.828125,344.726562 378.640625,343.734375 379.390625,343.015625 C379.640625,342.78125 379.765625,342.601562 379.765625,342.476562 C379.765625,342.039062 379.253906,341.425781 378.230469,340.636719 C377.207031,339.847656 376.414062,339.453125 375.851562,339.453125 C375.679688,339.453125 375.59375,339.554688 375.59375,339.757812 C375.59375,339.929688 375.640625,340.296875 375.734375,340.859375 C375.765625,341.09375 375.78125,341.234375 375.78125,341.28125 C375.78125,342.109375 375.148438,343.644531 373.882812,345.886719 C372.617188,348.128906 371.226562,350.179688 369.710938,352.039062 L369.710938,352.039062 L365.914062,352.742188 L365.914062,346.953125 C370.570312,346.515625 372.898438,345.890625 372.898438,345.078125 C372.898438,344.265625 372.195312,343.859375 370.789062,343.859375 C370.304688,343.859375 369.617188,343.976562 368.726562,344.210938 C368.070312,344.398438 367.171875,344.617188 366.03125,344.867188 C366.109375,343.945312 366.164062,343.257812 366.195312,342.804688 C366.335938,340.289062 366.65625,338.5 367.15625,337.4375 C367.28125,337.1875 367.34375,337.015625 367.34375,336.921875 C367.34375,336.546875 366.722656,336.070312 365.480469,335.492188 C364.238281,334.914062 363.21875,334.625 362.421875,334.625 C362.015625,334.625 361.8125,334.796875 361.8125,335.140625 C361.8125,335.296875 362.0625,335.828125 362.5625,336.734375 C362.921875,337.390625 363.195312,338.195312 363.382812,339.148438 C363.601562,340.210938 363.710938,341.3125 363.710938,342.453125 L363.710938,342.453125 L363.6875,344.210938 L363.710938,345.242188 C363.398438,345.289062 363.164062,345.335938 363.007812,345.382812 C359.945312,345.976562 358.335938,346.28125 358.179688,346.296875 C356.929688,346.390625 356.304688,346.554688 356.304688,346.789062 C356.304688,346.976562 356.753906,347.195312 357.652344,347.445312 C358.550781,347.695312 359.359375,347.820312 360.078125,347.820312 C361.0625,347.820312 362.320312,347.664062 363.851562,347.351562 L363.851562,347.351562 L363.851562,353.351562 C360.898438,353.867188 358.984375,354.203125 358.109375,354.359375 L358.109375,354.359375 L353.140625,355.179688 C351.234375,355.507812 349.898438,355.695312 349.132812,355.742188 C347.382812,355.882812 346.507812,356.078125 346.507812,356.328125 C346.507812,356.59375 346.976562,356.964844 347.914062,357.441406 C348.851562,357.917969 349.585938,358.15625 350.117188,358.15625 C350.742188,358.15625 352.320312,357.75 354.851562,356.9375 C355.148438,356.84375 358.789062,355.960938 365.773438,354.289062 C366.367188,354.148438 367.257812,353.929688 368.445312,353.632812 C366.960938,355.367188 365.414062,357.046875 363.804688,358.671875 C363.054688,358.328125 362.382812,358.15625 361.789062,358.15625 C361.476562,358.15625 361.328125,358.28125 361.34375,358.53125 C361.34375,358.703125 361.398438,358.835938 361.507812,358.929688 L361.507812,358.929688 L362.023438,359.515625 C362.132812,359.625 362.28125,359.820312 362.46875,360.101562 C358.84375,363.632812 355.5,366.382812 352.4375,368.351562 L352.4375,368.351562 L349.859375,369.992188 C349,370.554688 348.289062,370.976562 347.726562,371.257812 C347.398438,371.414062 347.234375,371.523438 347.234375,371.585938 C347.234375,371.726562 347.453125,371.796875 347.890625,371.796875 C349.171875,371.796875 351.265625,370.886719 354.171875,369.066406 C357.078125,367.246094 359.960938,365.03125 362.820312,362.421875 C362.820312,362.59375 362.789062,363.257812 362.726562,364.414062 C362.664062,365.820312 362.632812,366.96875 362.632812,367.859375 C362.632812,372.671875 365.171875,375.078125 370.25,375.078125 Z M410.75,340.507812 C411.375,340.507812 411.6875,339.992188 411.6875,338.960938 C411.6875,336.429688 409.765625,335.164062 405.921875,335.164062 C405.390625,335.164062 404.695312,335.21875 403.835938,335.328125 C404.617188,336.53125 405.757812,337.695312 407.257812,338.820312 C408.757812,339.945312 409.921875,340.507812 410.75,340.507812 Z M411.171875,369.03125 C411.421875,369.03125 411.945312,368.929688 412.742188,368.726562 C417.851562,367.460938 423.445312,366.828125 429.523438,366.828125 C430.914062,366.828125 431.9375,366.875 432.59375,366.96875 L432.59375,366.96875 L435.289062,367.367188 C436.101562,367.492188 436.859375,367.554688 437.5625,367.554688 C438.125,367.554688 438.40625,367.335938 438.40625,366.898438 C438.40625,366.226562 437.960938,365.636719 437.070312,365.128906 C436.179688,364.621094 435.140625,364.367188 433.953125,364.367188 C432.609375,364.367188 431.0625,364.492188 429.3125,364.742188 L429.3125,364.742188 L429.40625,362.773438 L429.664062,356.1875 L429.96875,349.953125 C430.078125,347.625 430.171875,346.3125 430.25,346.015625 C430.328125,345.71875 430.804688,344.929688 431.679688,343.648438 C431.773438,343.492188 431.820312,343.375 431.820312,343.296875 C431.820312,342.9375 431.199219,342.332031 429.957031,341.480469 C428.714844,340.628906 427.835938,340.203125 427.320312,340.203125 C427.117188,340.203125 426.804688,340.3125 426.382812,340.53125 C425.273438,341.109375 424.257812,341.515625 423.335938,341.75 L423.335938,341.75 L419.84375,342.617188 C419.5,342.710938 419.25,342.757812 419.09375,342.757812 C419,342.757812 418.882812,342.734375 418.742188,342.6875 L418.742188,342.6875 L416.046875,341.984375 C415.9375,341.953125 415.835938,341.9375 415.742188,341.9375 C415.539062,341.921875 415.429688,342.007812 415.414062,342.195312 C415.398438,342.335938 415.476562,342.53125 415.648438,342.78125 C416.445312,343.96875 416.84375,347.546875 416.84375,353.515625 L416.84375,353.515625 L416.820312,361.53125 L416.820312,366.101562 C415.757812,366.195312 414.296875,366.390625 412.4375,366.6875 C411.3125,366.875 410.445312,366.96875 409.835938,366.96875 C409.039062,366.96875 408.640625,367.132812 408.640625,367.460938 C408.640625,367.679688 408.976562,367.996094 409.648438,368.410156 C410.320312,368.824219 410.828125,369.03125 411.171875,369.03125 Z M418.8125,365.914062 L418.8125,358.695312 C419.53125,358.804688 420.0625,358.859375 420.40625,358.859375 C421.625,358.859375 422.785156,358.695312 423.886719,358.367188 C424.988281,358.039062 425.539062,357.695312 425.539062,357.335938 C425.539062,356.726562 425.015625,356.421875 423.96875,356.421875 C423.75,356.421875 423.59375,356.4375 423.5,356.46875 L423.5,356.46875 L422,356.984375 C421.765625,357.0625 421.109375,357.210938 420.03125,357.429688 C419.796875,357.476562 419.453125,357.554688 419,357.664062 L419,357.664062 L419,351.664062 L419.5625,351.710938 L423.5,351.289062 C424.953125,351.132812 425.679688,350.75 425.679688,350.140625 C425.679688,349.4375 425.21875,349.085938 424.296875,349.085938 C424,349.085938 423.5,349.21875 422.796875,349.484375 C421.734375,349.90625 420.5,350.179688 419.09375,350.304688 L419.09375,350.304688 L419.09375,344.210938 L424.34375,343.085938 L425.539062,342.828125 C425.898438,342.75 426.242188,342.710938 426.570312,342.710938 C427.335938,342.710938 427.71875,343.140625 427.71875,344 C427.71875,344.21875 427.6875,344.757812 427.625,345.617188 L427.625,345.617188 L427.53125,347.960938 L426.6875,365.140625 L418.8125,365.914062 Z M405.21875,374.914062 C406.421875,374.914062 407.023438,371.1875 407.023438,363.734375 L407.023438,363.734375 L406.882812,357.617188 L406.835938,356.5625 C407.476562,357.0625 407.945312,357.460938 408.242188,357.757812 C409.710938,359.226562 410.679688,359.960938 411.148438,359.960938 C411.851562,359.960938 412.203125,359.453125 412.203125,358.4375 C412.203125,356.6875 410.382812,355.8125 406.742188,355.8125 L406.742188,355.8125 L406.742188,352.695312 C408.039062,350.289062 409.25,348.609375 410.375,347.65625 L410.375,347.65625 L411.148438,347 C411.367188,346.8125 411.476562,346.617188 411.476562,346.414062 C411.476562,346.179688 410.941406,345.789062 409.871094,345.242188 C408.800781,344.695312 408.046875,344.4375 407.609375,344.46875 C407.359375,344.484375 407.054688,344.640625 406.695312,344.9375 C405.226562,346.21875 403.257812,347.140625 400.789062,347.703125 L400.789062,347.703125 L398.398438,348.242188 C397.679688,348.398438 397.25,348.476562 397.109375,348.476562 L397.109375,348.476562 L395.070312,348.40625 C394.726562,348.40625 394.554688,348.53125 394.554688,348.78125 C394.554688,348.828125 394.671875,348.976562 394.90625,349.226562 L394.90625,349.226562 L395.65625,350.046875 C396.1875,350.609375 396.726562,350.890625 397.273438,350.890625 C397.585938,350.890625 398.046875,350.78125 398.65625,350.5625 L398.65625,350.5625 L401.445312,349.507812 L405.453125,348.101562 C405.578125,348.054688 405.898438,347.929688 406.414062,347.726562 C403.335938,354.789062 399.703125,360.335938 395.515625,364.367188 L395.515625,364.367188 L393.875,365.9375 L392.984375,366.804688 C392.828125,366.945312 392.75,367.046875 392.75,367.109375 C392.765625,367.28125 392.921875,367.367188 393.21875,367.367188 C394.3125,367.367188 395.9375,366.351562 398.09375,364.320312 C400.46875,362.085938 402.765625,359.070312 404.984375,355.273438 L404.984375,355.273438 L405.101562,356.773438 L404.84375,362.679688 C404.84375,365.773438 404.578125,368.046875 404.046875,369.5 C403.640625,370.609375 403.4375,371.40625 403.4375,371.890625 C403.4375,372.453125 403.652344,373.097656 404.082031,373.824219 C404.511719,374.550781 404.890625,374.914062 405.21875,374.914062 Z M463.976562,340.367188 C464.945312,340.367188 465.429688,339.65625 465.429688,338.234375 C465.429688,335.703125 463.03125,334.304688 458.234375,334.039062 C458.75,335.054688 459.273438,335.867188 459.804688,336.476562 L459.804688,336.476562 L462.03125,339.03125 C462.8125,339.921875 463.460938,340.367188 463.976562,340.367188 Z M446.09375,352.554688 C446.8125,352.554688 447.558594,351.867188 448.332031,350.492188 C449.105469,349.117188 449.65625,347.484375 449.984375,345.59375 L449.984375,345.59375 L470.914062,343.296875 L472.835938,343.085938 C473.351562,343.007812 473.71875,342.96875 473.9375,342.96875 C474.796875,342.96875 475.226562,343.179688 475.226562,343.601562 C475.226562,343.664062 475.125,343.828125 474.921875,344.09375 C474.546875,344.578125 474.179688,345.226562 473.820312,346.039062 C473.398438,347.039062 473.007812,347.757812 472.648438,348.195312 C472.539062,348.335938 472.484375,348.4375 472.484375,348.5 C472.484375,348.6875 472.617188,348.78125 472.882812,348.78125 C473.132812,348.78125 473.984375,348.484375 475.4375,347.890625 C478.3125,346.71875 480.507812,346.070312 482.023438,345.945312 C482.539062,345.898438 482.796875,345.726562 482.796875,345.429688 C482.796875,344.867188 481.789062,343.902344 479.773438,342.535156 C477.757812,341.167969 476.335938,340.484375 475.507812,340.484375 C475.195312,340.484375 474.765625,340.5625 474.21875,340.71875 C472.421875,341.234375 470.703125,341.59375 469.0625,341.796875 L469.0625,341.796875 L450.03125,344.117188 C450.03125,343.257812 449.703125,342.570312 449.046875,342.054688 C448.65625,342.648438 448.296875,343.226562 447.96875,343.789062 C446.90625,345.648438 446.195312,346.8125 445.835938,347.28125 C445.132812,348.234375 444.78125,349.21875 444.78125,350.234375 C444.78125,351.78125 445.21875,352.554688 446.09375,352.554688 Z M457.320312,353 C459.867188,353 462.464844,352.699219 465.113281,352.097656 C467.761719,351.496094 469.085938,350.898438 469.085938,350.304688 C469.085938,349.476562 468.320312,349.0625 466.789062,349.0625 C466.398438,349.0625 465.90625,349.140625 465.3125,349.296875 L465.3125,349.296875 L461.585938,350.28125 L457.789062,351.054688 C456.664062,351.289062 455.90625,351.421875 455.515625,351.453125 C454.171875,351.546875 453.5,351.679688 453.5,351.851562 C453.5,352.617188 454.773438,353 457.320312,353 Z M461.164062,376.554688 C461.882812,376.554688 462.554688,375.726562 463.179688,374.070312 C463.804688,372.414062 464.117188,370.648438 464.117188,368.773438 L464.117188,368.773438 L464.023438,365.515625 L463.929688,363.125 C463.929688,361.34375 463.5,360.085938 462.640625,359.351562 L462.640625,359.351562 L466.039062,359 C468.210938,358.765625 469.664062,358.617188 470.398438,358.554688 C471.367188,358.460938 472.078125,358.414062 472.53125,358.414062 L472.53125,358.414062 L474.476562,358.414062 C475.539062,358.414062 476.078125,358.1875 476.09375,357.734375 C476.109375,357.25 475.660156,356.792969 474.746094,356.363281 C473.832031,355.933594 472.828125,355.71875 471.734375,355.71875 C470.9375,355.71875 470.179688,355.78125 469.460938,355.90625 L469.460938,355.90625 L466.085938,356.609375 L459.828125,357.875 C455.703125,358.703125 452.421875,359.195312 449.984375,359.351562 C449.859375,359.367188 449.78125,359.375 449.75,359.375 L449.75,359.375 L448.320312,359.351562 C448.070312,359.351562 447.945312,359.4375 447.945312,359.609375 C447.945312,359.953125 448.382812,360.308594 449.257812,360.675781 C450.132812,361.042969 450.976562,361.226562 451.789062,361.226562 C452.507812,361.226562 453.859375,361.015625 455.84375,360.59375 C457.140625,360.3125 458.75,360.046875 460.671875,359.796875 C461.109375,361.171875 461.328125,363.609375 461.328125,367.109375 C461.328125,369.53125 460.835938,370.742188 459.851562,370.742188 C459.289062,370.742188 458.273438,370.59375 456.804688,370.296875 C456.742188,370.28125 456.679688,370.273438 456.617188,370.273438 C456.367188,370.273438 456.242188,370.34375 456.242188,370.484375 C456.242188,370.546875 456.320312,370.648438 456.476562,370.789062 C456.679688,370.960938 457.03125,371.414062 457.53125,372.148438 L457.53125,372.148438 L459.171875,374.351562 L460.34375,375.96875 C460.625,376.359375 460.898438,376.554688 461.164062,376.554688 Z M447.6875,373.859375 C448.59375,373.859375 449.609375,372.984375 450.734375,371.234375 C451.859375,369.484375 452.421875,367.90625 452.421875,366.5 C452.421875,365.578125 451.9375,364.609375 450.96875,363.59375 L450.96875,363.59375 L450.664062,364.34375 C450.117188,365.640625 449.703125,366.484375 449.421875,366.875 L449.421875,366.875 L447.335938,369.875 C446.960938,370.390625 446.773438,371.125 446.773438,372.078125 C446.773438,373.265625 447.078125,373.859375 447.6875,373.859375 Z M476.703125,372.59375 C477.515625,372.59375 477.921875,371.992188 477.921875,370.789062 C477.921875,368.976562 476.921875,367.414062 474.921875,366.101562 C472.921875,364.789062 470.554688,364.132812 467.820312,364.132812 C472.226562,369.773438 475.1875,372.59375 476.703125,372.59375 Z" id="台湾教育部标准楷书"></path>
        </g>
    </g>
</svg>