<svg width="768" height="159" viewBox="0 0 768 159" fill="none" xmlns="http://www.w3.org/2000/svg">
<path d="M17.6 37.76V24.576H23.552V15.808H17.6V2.24H8.96V15.808H1.92V24.576H8.96V41.344C5.888 42.496 3.136 43.584 0.896 44.352L4.608 53.696C10.688 50.88 18.112 47.296 24.896 43.776L22.784 35.584L17.6 37.76ZM51.2 22.976C51.2 31.168 51.2 34.752 51.072 35.52C50.944 36.48 50.624 36.672 49.984 36.672C49.472 36.672 48.448 36.672 47.616 36.608V24.576L51.2 22.976ZM39.68 52.672C35.904 52.672 35.456 52.224 35.456 48.32V29.888L38.912 28.352V46.784H47.616V36.736C48.512 38.592 49.216 42.048 49.472 44.288C51.712 44.288 54.528 44.224 56.512 43.136C58.56 42.112 59.584 40.32 59.712 37.184C59.904 34.496 60.032 27.84 60.032 15.488L60.352 14.016L53.888 11.712L52.224 12.8L50.752 13.76H50.816L47.616 15.104V1.28H38.912V18.88L35.456 20.352V7.616H26.624V24.128L20.608 26.688L24.064 34.88L26.624 33.728V48.32C26.624 58.24 29.248 60.928 38.784 60.928H51.328C59.264 60.928 61.952 57.792 63.04 48.576C60.544 48.064 56.96 46.592 54.976 45.248C54.4 51.392 53.76 52.672 50.432 52.672H39.68ZM113.088 50.368H107.712V26.368H113.088V50.368ZM78.336 26.368H83.392V50.368H78.336V26.368ZM99.392 29.376H91.648V26.368H99.392V29.376ZM91.648 47.104H99.392V50.368H91.648V47.104ZM99.392 39.936H91.648V36.544H99.392V39.936ZM125.376 13.376V4.608H66.88V13.376H89.664C89.472 14.848 89.216 16.384 89.024 17.856H69.376V62.08H78.336V58.88H113.088V62.08H122.56V17.856H98.88L100.288 13.376H125.376ZM159.104 16.128H180.608V20.416H189.376V8.32H175.296C174.528 6.144 173.312 3.136 172.224 0.895996L163.264 2.88C163.968 4.48 164.736 6.464 165.312 8.32H150.72V20.416H159.104V16.128ZM149.184 28.608L144.576 30.144V20.544H149.376V12.032H144.576V1.216H136.128V12.032H130.304V20.544H136.128V32.832C133.632 33.6 131.328 34.24 129.408 34.752L131.136 43.712L136.128 41.984V51.264C136.128 52.096 135.872 52.352 135.104 52.352C134.336 52.352 132.224 52.352 130.176 52.288C131.264 54.72 132.288 58.56 132.48 60.864C136.64 60.864 139.648 60.544 141.824 59.072C144 57.664 144.576 55.36 144.576 51.328V38.976C146.624 38.208 148.736 37.504 150.72 36.736L149.184 28.608ZM174.144 51.968V41.024H185.728V32.96H183.488L188.544 27.456C185.536 24.896 179.456 20.672 175.616 17.92L170.24 23.36C173.952 26.24 179.136 30.272 182.08 32.96H157.568C161.92 29.888 166.592 25.408 169.6 21.248L161.792 18.24C159.168 21.504 154.688 24.768 150.592 26.816C151.808 28.224 153.728 30.976 154.88 32.96H153.408V41.024H164.8V51.968H148.672V60.032H190.464V51.968H174.144ZM201.088 21.504C201.6 20.416 202.176 19.136 202.688 17.792H208.064V21.504H201.088ZM220.672 41.664V48.96C220.672 49.536 220.48 49.664 219.968 49.664C219.456 49.664 218.112 49.664 216.896 49.6V41.664H220.672ZM216.896 17.792H227.584V9.408H216.896V1.792H208.064V9.408H205.44C205.952 7.616 206.336 5.824 206.72 4.032L198.208 2.304C197.184 8.32 195.136 14.848 192.64 18.88C194.304 19.456 197.056 20.544 199.104 21.504H194.048V29.888H208.064V33.408H196.288V57.024H204.544V41.664H208.064V62.016H216.896V49.728C217.856 51.904 218.816 55.168 219.008 57.408C222.016 57.472 224.448 57.344 226.496 56.064C228.544 54.72 228.992 52.544 228.992 49.152V33.408H216.896V29.888H230.08V21.504H216.896V17.792ZM240.576 6.272H231.936V42.88H240.576V6.272ZM243.52 2.624V51.584C243.52 52.608 243.136 52.928 242.112 52.928C241.024 52.928 237.824 52.928 234.752 52.8C235.904 55.424 237.184 59.52 237.504 62.08C242.56 62.08 246.4 61.76 249.024 60.288C251.584 58.752 252.416 56.32 252.416 51.648V2.624H243.52ZM292.8 33.344V21.376H305.152V33.344H292.8ZM270.656 33.344V21.376H282.944V33.344H270.656ZM292.8 12.224V1.28H282.944V12.224H261.312V45.824H270.656V42.496H282.944V62.08H292.8V42.496H305.152V45.504H314.944V12.224H292.8ZM340.544 7.936C346.496 11.84 354.56 17.792 358.08 21.76L364.992 14.4C361.024 10.432 352.64 4.992 346.88 1.536L340.544 7.936ZM366.272 24.32C369.536 31.872 372.672 42.048 373.632 48.576L383.104 44.608C381.76 37.952 378.56 28.352 374.976 20.736L366.272 24.32ZM326.464 23.04C325.76 32.192 324.032 41.6 321.984 48.512L331.52 52.352C333.44 44.864 334.784 33.536 335.616 24.768L326.464 23.04ZM338.816 19.84V48.576C338.816 57.792 341.312 60.736 350.464 60.736H359.936C368.256 60.736 370.688 56.832 371.648 44.672C369.152 44.032 365.056 42.368 362.944 40.768C362.496 50.24 361.984 52.096 359.104 52.096H351.744C348.928 52.096 348.544 51.712 348.544 48.576V19.84H338.816ZM398.848 15.936V36.864H395.904V15.936H398.848ZM407.04 7.36H387.84V50.304H395.904V45.44H407.04V7.36ZM431.424 12.032C436.16 11.328 440.768 10.432 444.864 9.344L438.72 1.728C430.72 4.032 418.624 5.568 407.488 6.336C408.448 8.32 409.664 11.84 409.92 14.016C413.824 13.824 417.984 13.568 422.144 13.184V31.936H408.64V40.704H422.144V51.84C422.144 52.928 421.76 53.248 420.608 53.248C419.456 53.248 415.68 53.248 412.416 53.056C413.76 55.488 415.232 59.52 415.616 62.08C420.864 62.08 424.832 61.824 427.648 60.352C430.528 58.944 431.424 56.576 431.424 51.968V40.704H445.824V31.936H431.424V12.032ZM420.608 28.608C420.032 24.768 418.24 19.2 415.936 14.976L408.32 17.6C410.432 21.888 412.096 27.712 412.416 31.488L420.608 28.608ZM439.168 31.36C441.216 27.648 443.648 21.952 445.888 16.512L436.8 14.08C435.776 18.816 433.664 25.024 431.808 29.056L439.168 31.36ZM466.624 15.04V38.336H460.672V15.04H466.624ZM475.52 6.464H452.032V52.288H460.672V46.912H475.52V6.464ZM498.048 2.496V36.864L489.6 38.976V7.36H480V38.208C480 41.472 477.76 43.648 476.032 44.736C477.504 46.336 479.552 50.048 480.192 52.16C482.176 50.752 484.864 49.408 498.048 45.632V62.144H507.84V2.496H498.048ZM553.088 20.992C558.528 17.6 564.288 13.44 569.536 8.832L563.136 3.52L561.536 4.096H534.08V8.96C531.584 6.72 526.784 4.032 523.2 2.304L517.888 8.832C521.536 10.816 526.336 14.016 528.512 16.256L534.08 9.28V12.864H550.4C546.368 15.808 542.72 17.984 541.184 18.88C538.496 20.48 536 21.824 533.824 22.208C535.104 24.448 536.96 28.864 537.6 30.784C538.048 30.272 539.968 29.888 541.888 29.76C539.584 35.136 535.68 39.744 530.944 42.88L531.648 40.64L523.968 35.392C521.472 42.752 518.336 50.304 515.968 55.168L524.608 60.288C526.784 55.04 528.832 49.408 530.624 43.776C532.736 45.056 535.808 47.296 537.28 48.64C542.912 44.416 548.096 37.632 551.04 29.696H553.408C549.888 41.472 543.296 50.816 533.76 56.256C535.808 57.408 539.52 60.096 541.056 61.504C550.72 54.784 558.08 43.84 562.24 29.696H563.712C562.688 44.544 561.472 50.816 560.064 52.352C559.296 53.248 558.656 53.504 557.632 53.504C556.416 53.504 554.304 53.44 551.872 53.184C553.28 55.616 554.304 59.328 554.432 61.824C557.568 61.952 560.448 61.952 562.368 61.568C564.672 61.12 566.272 60.416 568 58.112C570.432 55.168 571.84 46.592 573.184 24.896C573.312 23.744 573.376 20.992 573.376 20.992H553.088ZM531.008 26.432C528.512 24.32 523.392 21.568 519.744 19.968L514.624 26.624C518.336 28.544 523.264 31.68 525.504 33.856L531.008 26.432ZM587.84 37.12C588.8 32.512 589.76 27.392 590.592 22.144H592.832C592.256 28.48 591.232 34.112 589.632 38.912L587.84 37.12ZM596.224 13.632L594.752 13.76H591.808C592.32 9.728 592.768 5.76 593.024 1.984L584.96 1.6C584.768 5.44 584.32 9.6 583.808 13.76H578.752V22.144H582.656C581.568 28.736 580.288 35.008 578.944 39.808C581.12 41.984 583.488 44.48 585.792 47.04C583.552 50.56 580.736 53.184 577.28 54.912C579.072 56.64 581.248 59.968 582.464 62.144C586.048 59.968 589.056 57.28 591.552 53.952C593.216 56.128 594.624 58.176 595.584 59.968L602.24 53.568C600.832 51.264 598.656 48.576 596.16 45.76C599.424 37.888 601.024 27.648 601.472 14.208L596.224 13.632ZM619.52 43.648L625.28 39.744C623.936 37.632 621.056 34.24 618.944 31.744H626.688C626.56 36.672 626.432 40.576 626.24 43.648H619.52ZM618.368 31.744L612.864 35.2C614.848 37.824 617.536 41.408 618.88 43.648H611.52C611.776 39.936 612.096 35.904 612.352 31.744H618.368ZM627.072 11.648C627.008 16 626.944 19.968 626.88 23.488H619.776L625.856 19.52C624.576 17.472 621.888 14.08 619.968 11.712L614.08 15.296C615.936 17.856 618.432 21.376 619.584 23.488H612.864C613.056 19.52 613.248 15.552 613.44 11.648H627.072ZM638.528 31.744V23.488H635.456C635.52 18.944 635.648 13.76 635.712 7.936C635.712 6.848 635.776 3.584 635.776 3.584H605.184C605.056 9.792 604.736 16.704 604.352 23.488H601.024V31.744H603.776C603.264 39.232 602.56 46.272 601.856 51.84H608.256V51.904H625.152C625.088 52.224 624.96 52.48 624.832 52.672C624.192 53.696 623.616 54.08 622.592 54.08C621.248 54.08 619.264 54.08 616.832 53.824C618.112 56.064 619.136 59.584 619.2 61.76C622.208 61.824 625.152 61.888 627.264 61.376C629.568 60.8 631.104 59.968 632.704 57.216C633.28 56.192 633.728 54.592 634.112 51.904H637.12V43.648H634.816C635.008 40.384 635.136 36.48 635.264 31.744H638.528ZM653.44 10.304C650.88 17.92 646.528 26.432 642.304 31.616C644.544 32.576 648.576 34.688 650.432 36.032C654.4 30.272 659.136 21.056 662.272 12.672L653.44 10.304ZM682.624 13.888C686.784 20.736 691.84 30.08 694.08 35.904L702.08 31.168C699.52 25.408 694.528 16.704 690.176 9.92L682.624 13.888ZM686.208 34.432C678.336 47.808 662.464 51.648 641.152 53.056C642.88 55.424 644.672 59.2 645.44 61.952C668.544 59.52 685.44 54.208 694.784 38.144L686.208 34.432ZM666.624 1.408V41.728H675.904V1.408H666.624ZM753.216 18.432L749.056 22.016C751.808 24.64 754.944 28.032 757.184 31.168L750.784 29.44C749.76 32.896 748.288 36.096 746.432 39.04C744.448 36.096 742.848 32.896 741.632 29.376L738.112 30.208C740.672 27.52 743.104 24.448 745.152 21.44L738.752 18.432H753.216ZM766.464 29.056C764.672 25.92 760.832 21.824 757.184 18.432H765.76V9.92H749.184L752.96 8.384C752.128 6.08 750.208 2.816 748.352 0.383999L739.968 3.392C741.248 5.312 742.592 7.808 743.488 9.92H729.984V18.432H736.448C733.888 22.336 729.92 26.816 726.336 29.568C724.736 27.008 723.2 24.64 722.432 23.616V21.952H728.384V13.376H722.432V1.28H713.984V13.376H706.752V21.952H712.512C710.976 29.248 708.16 37.696 704.704 42.496C706.112 44.992 708.096 49.28 708.864 51.904C710.784 48.704 712.512 44.16 713.984 39.168V62.08H722.432V35.84C723.648 38.528 724.736 41.28 725.44 43.328L730.624 36.48C730.048 35.456 728.32 32.704 726.592 29.888C728.512 31.424 731.2 33.856 732.608 35.52C733.248 35.008 733.824 34.496 734.464 33.92C736.192 38.4 738.176 42.496 740.608 46.08C736.64 49.856 731.648 52.736 725.76 54.784C727.552 56.384 730.368 60.096 731.52 62.144C737.408 59.84 742.4 56.896 746.624 53.12C750.592 56.832 755.392 59.712 761.344 61.696C762.688 59.072 765.504 55.168 767.552 53.248C761.728 51.712 756.864 49.216 752.896 45.952C755.392 42.432 757.44 38.336 758.976 33.856C759.232 34.24 759.488 34.688 759.68 35.072L766.464 29.056ZM16.128 108.616V129.736H12.672V108.616H16.128ZM25.28 138.76V99.656H3.776V144.008H12.672V138.76H25.28ZM61.056 114.248H39.552V107.848C46.656 106.504 54.016 104.584 60.224 102.152L52.8 94.6C46.976 97.288 38.144 99.848 29.824 101.32V119.176C29.824 128.392 29.312 141.192 22.848 149.64C25.024 150.728 29.184 153.928 30.848 155.72C37.376 147.4 39.168 133.832 39.488 123.464H46.016V154.76H55.616V123.464H61.056V114.248ZM112.896 104.52H98.688V102.472H112.896V104.52ZM112.896 112.584H98.688V110.472H112.896V112.584ZM122.304 96.072H89.728V118.984H122.304V96.072ZM78.144 94.344C75.456 98.44 69.824 103.624 64.896 106.568C66.304 108.552 68.48 112.392 69.44 114.504C75.648 110.536 82.432 104.072 86.976 97.928L78.144 94.344ZM80.128 108.36C76.352 114.376 70.016 120.52 64.448 124.36C65.792 126.664 68.032 131.976 68.672 134.088C70.272 132.872 71.872 131.464 73.472 129.928V155.08H82.496V120.008C84.672 117.32 86.592 114.504 88.256 111.816L80.128 108.36ZM107.52 145.928C107.52 146.632 107.264 146.824 106.368 146.888C105.664 146.888 103.296 146.888 101.312 146.824L102.72 145.8C101.376 143.816 98.752 141.064 96.448 138.824H107.52V145.928ZM125.248 131.016H116.928V128.456H123.84V120.904H86.912V128.456H107.52V131.016H85.184V138.824H93.376L88.704 141.96C91.264 144.584 94.464 148.296 95.808 150.664L100.736 147.208C101.824 149.448 102.976 152.648 103.36 155.016C107.52 155.016 110.784 154.952 113.472 153.672C116.224 152.392 116.928 150.216 116.928 146.184V138.824H125.248V131.016ZM153.024 135.304H163.84V127.304H153.024V122.248H144.256V127.304H132.992V135.304H144.256V142.728C139.264 143.496 134.656 144.2 130.88 144.648L132.864 153.16C141.76 151.624 153.92 149.512 165.12 147.4L164.608 139.464C160.768 140.104 156.864 140.744 153.024 141.32V135.304ZM143.936 113.224C145.536 110.92 147.136 108.296 148.48 105.736H154.176L149.824 108.36C150.784 109.768 151.808 111.24 152.832 112.84L143.936 113.224ZM131.584 105.736H138.496C137.344 108.424 136.128 110.6 135.552 111.432C134.592 112.84 133.568 113.8 132.544 114.12C133.504 116.488 134.976 120.648 135.488 122.44C137.6 121.544 140.48 121.352 156.928 120.136C157.376 121.096 157.76 121.992 158.016 122.76L165.12 118.216C163.712 114.696 160.448 109.768 157.44 105.736H165.312V97.8H131.584V105.736ZM175.744 100.488H167.168V139.4H175.744V100.488ZM179.2 94.792V144.2C179.2 145.288 178.816 145.672 177.664 145.672C176.576 145.672 173.12 145.672 169.92 145.544C171.2 147.912 172.672 151.88 173.056 154.312C178.24 154.312 182.016 153.992 184.768 152.584C187.456 151.176 188.288 148.808 188.288 144.264V94.792H179.2ZM208.128 108.04V129.928H204.16V108.04H208.128ZM216.32 99.528H195.776V143.88H204.16V138.44H216.32V99.528ZM240.896 134.6H217.536V142.792H240.896V134.6ZM246.528 121.864C247.488 113.8 248.384 104.968 248.832 97.544L242.24 96.968L240.832 97.288H218.304V105.608H239.36C238.912 110.6 238.336 116.424 237.696 121.864H228.736C229.248 117.256 229.76 112.2 230.08 107.72L221.376 107.208C220.928 114.504 219.968 123.784 219.008 129.672H243.776C242.88 140.104 241.792 144.776 240.576 145.992C239.872 146.76 239.232 146.888 238.272 146.888C237.056 146.888 234.816 146.888 232.384 146.632C233.728 148.872 234.688 152.392 234.816 154.888C237.888 154.952 240.704 154.888 242.56 154.632C244.736 154.312 246.4 153.608 248.064 151.624C250.304 149.128 251.648 142.088 252.864 125.384C252.992 124.296 253.12 121.864 253.12 121.864H246.528ZM275.712 146.056C275.2 148.808 272.256 151.432 267.328 152.776L269.696 158.92C278.336 156.552 283.264 150.28 283.264 142.856C283.264 136.968 280.576 133.256 275.52 133.256C271.616 133.256 268.416 135.752 268.416 139.656C268.416 143.688 271.744 146.056 275.264 146.056H275.712ZM361.088 113.992C366.528 110.6 372.288 106.44 377.536 101.832L371.136 96.52L369.536 97.096H342.08V101.96C339.584 99.72 334.784 97.032 331.2 95.304L325.888 101.832C329.536 103.816 334.336 107.016 336.512 109.256L342.08 102.28V105.864H358.4C354.368 108.808 350.72 110.984 349.184 111.88C346.496 113.48 344 114.824 341.824 115.208C343.104 117.448 344.96 121.864 345.6 123.784C346.048 123.272 347.968 122.888 349.888 122.76C347.584 128.136 343.68 132.744 338.944 135.88L339.648 133.64L331.968 128.392C329.472 135.752 326.336 143.304 323.968 148.168L332.608 153.288C334.784 148.04 336.832 142.408 338.624 136.776C340.736 138.056 343.808 140.296 345.28 141.64C350.912 137.416 356.096 130.632 359.04 122.696H361.408C357.888 134.472 351.296 143.816 341.76 149.256C343.808 150.408 347.52 153.096 349.056 154.504C358.72 147.784 366.08 136.84 370.24 122.696H371.712C370.688 137.544 369.472 143.816 368.064 145.352C367.296 146.248 366.656 146.504 365.632 146.504C364.416 146.504 362.304 146.44 359.872 146.184C361.28 148.616 362.304 152.328 362.432 154.824C365.568 154.952 368.448 154.952 370.368 154.568C372.672 154.12 374.272 153.416 376 151.112C378.432 148.168 379.84 139.592 381.184 117.896C381.312 116.744 381.376 113.992 381.376 113.992H361.088ZM339.008 119.432C336.512 117.32 331.392 114.568 327.744 112.968L322.624 119.624C326.336 121.544 331.264 124.68 333.504 126.856L339.008 119.432ZM395.84 130.12C396.8 125.512 397.76 120.392 398.592 115.144H400.832C400.256 121.48 399.232 127.112 397.632 131.912L395.84 130.12ZM404.224 106.632L402.752 106.76H399.808C400.32 102.728 400.768 98.76 401.024 94.984L392.96 94.6C392.768 98.44 392.32 102.6 391.808 106.76H386.752V115.144H390.656C389.568 121.736 388.288 128.008 386.944 132.808C389.12 134.984 391.488 137.48 393.792 140.04C391.552 143.56 388.736 146.184 385.28 147.912C387.072 149.64 389.248 152.968 390.464 155.144C394.048 152.968 397.056 150.28 399.552 146.952C401.216 149.128 402.624 151.176 403.584 152.968L410.24 146.568C408.832 144.264 406.656 141.576 404.16 138.76C407.424 130.888 409.024 120.648 409.472 107.208L404.224 106.632ZM427.52 136.648L433.28 132.744C431.936 130.632 429.056 127.24 426.944 124.744H434.688C434.56 129.672 434.432 133.576 434.24 136.648H427.52ZM426.368 124.744L420.864 128.2C422.848 130.824 425.536 134.408 426.88 136.648H419.52C419.776 132.936 420.096 128.904 420.352 124.744H426.368ZM435.072 104.648C435.008 109 434.944 112.968 434.88 116.488H427.776L433.856 112.52C432.576 110.472 429.888 107.08 427.968 104.712L422.08 108.296C423.936 110.856 426.432 114.376 427.584 116.488H420.864C421.056 112.52 421.248 108.552 421.44 104.648H435.072ZM446.528 124.744V116.488H443.456C443.52 111.944 443.648 106.76 443.712 100.936C443.712 99.848 443.776 96.584 443.776 96.584H413.184C413.056 102.792 412.736 109.704 412.352 116.488H409.024V124.744H411.776C411.264 132.232 410.56 139.272 409.856 144.84H416.256V144.904H433.152C433.088 145.224 432.96 145.48 432.832 145.672C432.192 146.696 431.616 147.08 430.592 147.08C429.248 147.08 427.264 147.08 424.832 146.824C426.112 149.064 427.136 152.584 427.2 154.76C430.208 154.824 433.152 154.888 435.264 154.376C437.568 153.8 439.104 152.968 440.704 150.216C441.28 149.192 441.728 147.592 442.112 144.904H445.12V136.648H442.816C443.008 133.384 443.136 129.48 443.264 124.744H446.528ZM461.44 103.304C458.88 110.92 454.528 119.432 450.304 124.616C452.544 125.576 456.576 127.688 458.432 129.032C462.4 123.272 467.136 114.056 470.272 105.672L461.44 103.304ZM490.624 106.888C494.784 113.736 499.84 123.08 502.08 128.904L510.08 124.168C507.52 118.408 502.528 109.704 498.176 102.92L490.624 106.888ZM494.208 127.432C486.336 140.808 470.464 144.648 449.152 146.056C450.88 148.424 452.672 152.2 453.44 154.952C476.544 152.52 493.44 147.208 502.784 131.144L494.208 127.432ZM474.624 94.408V134.728H483.904V94.408H474.624ZM561.216 111.432L557.056 115.016C559.808 117.64 562.944 121.032 565.184 124.168L558.784 122.44C557.76 125.896 556.288 129.096 554.432 132.04C552.448 129.096 550.848 125.896 549.632 122.376L546.112 123.208C548.672 120.52 551.104 117.448 553.152 114.44L546.752 111.432H561.216ZM574.464 122.056C572.672 118.92 568.832 114.824 565.184 111.432H573.76V102.92H557.184L560.96 101.384C560.128 99.08 558.208 95.816 556.352 93.384L547.968 96.392C549.248 98.312 550.592 100.808 551.488 102.92H537.984V111.432H544.448C541.888 115.336 537.92 119.816 534.336 122.568C532.736 120.008 531.2 117.64 530.432 116.616V114.952H536.384V106.376H530.432V94.28H521.984V106.376H514.752V114.952H520.512C518.976 122.248 516.16 130.696 512.704 135.496C514.112 137.992 516.096 142.28 516.864 144.904C518.784 141.704 520.512 137.16 521.984 132.168V155.08H530.432V128.84C531.648 131.528 532.736 134.28 533.44 136.328L538.624 129.48C538.048 128.456 536.32 125.704 534.592 122.888C536.512 124.424 539.2 126.856 540.608 128.52C541.248 128.008 541.824 127.496 542.464 126.92C544.192 131.4 546.176 135.496 548.608 139.08C544.64 142.856 539.648 145.736 533.76 147.784C535.552 149.384 538.368 153.096 539.52 155.144C545.408 152.84 550.4 149.896 554.624 146.12C558.592 149.832 563.392 152.712 569.344 154.696C570.688 152.072 573.504 148.168 575.552 146.248C569.728 144.712 564.864 142.216 560.896 138.952C563.392 135.432 565.44 131.336 566.976 126.856C567.232 127.24 567.488 127.688 567.68 128.072L574.464 122.056ZM586.368 131.976H596.352C595.776 123.272 606.464 122.568 606.464 113.032C606.464 104.328 600.256 100.36 592.256 100.36C586.496 100.36 581.44 102.984 578.048 107.144L584.32 112.904C586.24 110.664 588.288 109.576 590.912 109.576C593.664 109.576 595.584 111.048 595.584 114.056C595.584 119.88 585.28 121.928 586.368 131.976ZM591.36 149.768C595.136 149.768 597.888 147.016 597.888 143.24C597.888 139.464 595.136 136.84 591.36 136.84C587.584 136.84 584.832 139.464 584.832 143.24C584.832 147.016 587.52 149.768 591.36 149.768Z" fill="black" fill-opacity="0.9"/>
</svg>
