<svg width="573" height="238" viewBox="0 0 573 238" fill="none" xmlns="http://www.w3.org/2000/svg">
<path d="M0.728 20.744L1.16 22.28H44.168C44.984 22.28 45.512 22.04 45.656 21.512C43.016 19.016 38.6 15.176 38.6 15.176L34.616 20.744H0.728ZM79.208 14.648C79.16 31.16 79.4 39.032 67.256 44.504L67.736 45.32C76.424 42.872 80.216 39.176 81.992 33.8C84.584 36.68 87.56 40.856 88.616 44.36C93.848 47.72 97.208 37.208 82.232 33.032C83.432 28.808 83.528 23.528 83.72 17.048C84.824 17.048 85.352 16.616 85.544 16.04L79.208 14.648ZM76.904 11.96L71.624 9.8V25.736C69.848 24.056 67.16 21.752 67.16 21.752L64.472 25.448H62.12V20.456H64.472V21.992H65.24C66.824 21.992 69.224 21.08 69.272 20.744V5.672C69.944 5.528 70.52 5.288 70.904 5.048L71.048 5.48H78.776C78.728 7.592 78.584 10.184 78.488 11.96H76.904ZM54.632 12.584H57.56V19.064H54.632V12.584ZM57.56 4.856V11.24H54.632V4.856H57.56ZM64.472 4.856V11.24H61.736V4.856H64.472ZM64.472 19.064H61.736V12.584H64.472V19.064ZM85.496 4.088H70.664L70.712 4.28L66.296 0.919998L63.992 3.464H55.256L49.976 1.4V22.616H50.792C53.192 22.616 54.632 21.512 54.632 21.176V20.456H57.224V25.448H48.344L48.728 26.792H55.064C53.768 32.408 51.416 38.072 47.864 42.152L48.392 42.776C52.04 40.328 55.016 37.352 57.224 33.944V45.32H58.088C60.536 45.32 62.072 44.216 62.12 43.976V29.24C63.704 31.64 65.096 34.712 65.384 37.448C69.944 41.24 74.456 32.024 62.12 27.704V26.792H70.568C71 26.792 71.384 26.696 71.624 26.456V33.368H72.392C74.504 33.368 76.664 32.264 76.664 31.784V13.304H86.024V32.888H86.84C88.472 32.888 90.92 31.928 90.968 31.544V13.928C91.784 13.784 92.36 13.448 92.6 13.112L87.896 9.512L85.592 11.96H79.784C81.464 10.28 83.288 7.736 84.776 5.48H92.552C93.272 5.48 93.752 5.24 93.896 4.712C91.88 2.84 88.52 0.247998 88.52 0.247998L85.496 4.088ZM110.456 40.424V32.024H127.592V40.424H110.456ZM127.112 30.68H110.792L104.984 28.376V45.272H105.752C108.008 45.272 110.456 44.072 110.456 43.592V41.768H127.592V45.032H128.552C130.376 45.032 133.208 44.024 133.256 43.688V32.84C134.12 32.648 134.696 32.264 134.984 31.928L129.656 27.944L127.112 30.68ZM132.488 25.112H123.368C126.008 23.336 128.696 21.08 130.28 19.304C131.384 19.352 131.912 18.92 132.104 18.296L124.328 16.616C123.848 19.112 122.984 22.568 121.928 25.112H112.952C116.264 24.68 117.8 18.632 108.056 16.52L107.672 16.76C108.776 18.728 110.024 21.56 110.12 24.152C110.792 24.728 111.464 25.016 112.136 25.112H97.496L97.88 26.456H139.688C140.36 26.456 140.84 26.216 140.984 25.688C138.92 23.864 135.512 21.272 135.512 21.272L132.488 25.112ZM100.328 16.472H136.904C137.576 16.472 138.056 16.232 138.2 15.704C136.184 13.976 132.872 11.384 132.872 11.384L129.944 15.128H120.344C122.984 13.88 123.272 9.272 114.776 9.608L114.488 9.896C115.544 10.952 116.696 12.872 116.84 14.696C117.08 14.888 117.368 15.032 117.608 15.128H99.944L100.328 16.472ZM133.736 6.008H129.752V2.312C131 2.168 131.336 1.688 131.432 1.064L124.28 0.391999V6.008H113.336V2.312C114.584 2.12 114.968 1.688 115.016 1.064L107.96 0.391999V6.008H96.488L96.824 7.352H107.96V12.008H108.872C111.272 12.008 113.336 11.288 113.336 10.904V7.352H124.28V11.768H125.192C127.784 11.72 129.752 11.096 129.752 10.664V7.352H140.264C140.936 7.352 141.416 7.112 141.56 6.584C139.736 4.856 136.472 2.36 136.472 2.36L133.736 6.008ZM162.248 19.064C160.088 19.64 157.88 20.216 155.768 20.744V12.92H161.576C162.248 12.92 162.728 12.68 162.872 12.152C161.336 10.424 158.552 7.784 158.552 7.784L156.152 11.528H155.768V2.216C156.968 2.024 157.448 1.544 157.544 0.871999L150.44 0.151999V11.528H144.536L144.92 12.92H150.44V22.04C147.608 22.712 145.304 23.192 143.96 23.432L146.072 30.104C146.6 29.96 147.128 29.384 147.368 28.76C148.424 28.184 149.48 27.608 150.44 27.032V38.456C150.44 39.08 150.248 39.272 149.528 39.272C148.664 39.272 144.776 39.032 144.776 39.032V39.704C146.744 40.04 147.656 40.616 148.28 41.432C148.904 42.296 149.096 43.592 149.144 45.272C155 44.744 155.768 42.632 155.768 38.84V23.864C158.504 22.184 160.712 20.744 162.392 19.592L162.248 19.064ZM169.16 15.992V11.144H180.152V15.992H169.16ZM180.152 5V9.848H169.16V5H180.152ZM177.368 31.736H187.064C187.736 31.736 188.216 31.496 188.36 30.968C186.44 29.096 183.176 26.408 183.176 26.408L180.296 30.344H177.368V23.624H188.168C188.84 23.624 189.32 23.384 189.464 22.904C187.88 21.416 185.432 19.448 184.568 18.776C185.144 18.536 185.528 18.296 185.528 18.152V5.864C186.536 5.672 187.208 5.288 187.496 4.904L182.216 0.823999L179.672 3.608H169.4L163.784 1.352V20.552H164.6C166.808 20.552 169.16 19.352 169.16 18.824V17.384H180.152V19.64H181.064C181.928 19.64 182.936 19.4 183.8 19.064L181.304 22.28H160.856L161.192 23.624H172.04V37.88C170.12 37.064 168.632 35.72 167.432 33.608C168.008 32.072 168.488 30.44 168.872 28.568C169.976 28.472 170.456 28.04 170.648 27.416L163.256 26.12C163.112 34.184 160.664 40.424 156.536 44.888L157.064 45.368C161.48 43.256 164.744 40.04 166.904 35C169.208 42.296 173.384 44.216 180.44 44.216H187.88C187.88 41.96 188.6 39.944 190.184 39.56V39.032C187.736 39.08 182.792 39.08 180.632 39.08C179.48 39.08 178.376 39.032 177.368 38.984V31.736ZM194.264 51.656C200.12 49.064 202.232 43.688 202.232 39.32C202.232 36.008 200.312 34.088 197.816 34.088C195.32 34.088 193.736 35.96 193.736 38.024C193.736 41.24 197 42.392 199.112 43.112C198.776 45.32 197.384 48.2 193.496 50.216L194.264 51.656ZM253.736 20.936C256.28 17.96 258.392 14.696 260.024 11.432H283.592C284.312 11.432 284.792 11.192 284.936 10.664C282.632 8.696 278.84 5.768 278.84 5.768L275.48 10.04H260.744C261.848 7.736 262.808 5.432 263.576 3.272C264.872 3.224 265.304 2.84 265.448 2.264L257.336 0.151999C256.664 3.272 255.656 6.632 254.36 10.04H241.448L241.832 11.432H253.784C250.808 18.68 246.344 25.928 240.2 31.064L240.632 31.592C243.416 30.104 245.96 28.424 248.264 26.456V45.176H249.368C251.576 45.176 253.928 44.024 254.024 43.592V22.52C254.888 22.328 255.368 22.04 255.512 21.56L253.736 20.936ZM276.488 40.856H271.304V26.168H281.096C281.768 26.168 282.296 25.928 282.44 25.4C280.376 23.624 277.016 21.032 277.016 21.032L273.992 24.824H271.304V15.464C272.408 15.272 272.792 14.84 272.84 14.216L265.544 13.544V24.824H256.472L256.856 26.168H265.544V40.856H254.744L255.128 42.248H284.12C284.84 42.248 285.368 42.008 285.512 41.48C283.256 39.56 279.656 36.824 279.656 36.824L276.488 40.856ZM295.736 28.232V8.936H300.632V28.232H295.736ZM325.928 17.96H321.416V3.128C322.712 2.936 323.096 2.408 323.192 1.736L315.656 0.967998V17.96H306.296V9.896C307.256 9.704 307.928 9.272 308.264 8.84L302.792 4.616L300.152 7.592H295.976L290.168 5.144V36.68H291.032C293.48 36.68 295.736 35.336 295.736 34.808V29.576H300.632V34.568H301.544C303.512 34.568 306.248 33.416 306.296 33.08V19.352H315.656V45.128H316.712C318.92 45.128 321.416 43.736 321.416 43.112V19.352H332.936C333.656 19.352 334.184 19.112 334.328 18.584C332.312 16.664 328.952 13.736 328.952 13.736L325.928 17.96ZM371.816 41.336H360.536V20.408H376.712C377.384 20.408 377.864 20.168 378.008 19.64C375.704 17.576 371.864 14.648 371.864 14.648L368.408 19.064H360.536V2.984C361.832 2.792 362.168 2.312 362.312 1.64L354.344 0.871999V41.336H336.488L336.872 42.68H380.216C380.936 42.68 381.464 42.44 381.608 41.912C379.208 39.896 375.32 36.872 375.32 36.872L371.816 41.336ZM421.064 40.328H392.888V14.408C394.088 14.216 394.52 13.736 394.664 13.016L387.464 12.296V39.704C386.792 40.136 386.072 40.712 385.64 41.192L391.4 44.216L393.176 41.72H421.064V45.176H422.12C424.136 45.176 426.488 44.024 426.488 43.544V14.072C427.688 13.88 428.024 13.448 428.12 12.824L421.064 12.152V40.328ZM409.304 32.888V22.616H412.856V32.888H409.304ZM401.048 22.616H404.696V32.888H401.048V22.616ZM404.696 12.008V21.224H401.048V12.008H404.696ZM412.856 12.008V21.224H409.304V12.008H412.856ZM413.672 36.392C415.304 36.392 417.656 35.384 417.752 35V12.728C418.616 12.536 419.24 12.152 419.528 11.816L414.728 8.12L412.376 10.664H401.288L396.2 8.504V37.16H396.968C399.032 37.16 401.048 36.008 401.048 35.528V34.28H412.856V36.392H413.672ZM420.44 4.568H384.44L384.824 5.912H428.6C429.272 5.912 429.8 5.672 429.944 5.144C427.592 3.176 423.8 0.391999 423.8 0.391999L420.44 4.568ZM468.584 24.68V39.416H457.592V20.36H466.232V23.096H467.192C469.304 23.096 471.704 22.184 471.704 21.8V6.92C472.856 6.728 473.24 6.296 473.288 5.672L466.232 5.048V19.016H457.592V2.696C458.888 2.504 459.224 2.024 459.32 1.304L451.88 0.583997V19.016H443.624V6.824C444.872 6.632 445.304 6.2 445.4 5.672L438.248 5V18.44C437.672 18.872 437.096 19.448 436.76 19.88L442.28 23.144L443.96 20.36H451.88V39.416H441.368V26.36C442.616 26.168 443.048 25.784 443.144 25.256L435.896 24.536V38.888C435.32 39.272 434.744 39.848 434.36 40.28L439.976 43.592L441.704 40.808H468.584V44.84H469.544C471.608 44.84 474.056 43.88 474.056 43.496V26.552C475.208 26.36 475.592 25.928 475.64 25.352L468.584 24.68ZM493.544 40.04V30.776H513.032V40.04H493.544ZM513.032 20.36V29.432H493.544V20.36H513.032ZM513.032 10.232V18.968H493.544V10.232H513.032ZM515.432 5.624L512.552 8.84H500.312C502.568 6.92 504.776 4.52 506.264 2.696C507.416 2.648 507.896 2.216 508.04 1.592L499.448 0.199999C499.256 2.696 498.824 6.2 498.296 8.84H493.976L487.688 6.296V45.128H488.648C491.192 45.128 493.544 43.736 493.544 43.016V41.384H513.032V44.984H513.992C516.152 44.984 518.936 43.64 519.032 43.208V11.24C520.088 11.048 520.76 10.616 521.096 10.184L515.432 5.624ZM569.672 29.24H569.144C568.184 32.312 566.936 35.576 566.072 36.824C565.208 38.024 563.912 38.168 561.128 38.168H542.6C539.912 38.168 538.712 37.784 538.712 36.248V20.024H560.024V24.344H560.984C562.904 24.344 565.832 23.288 565.88 22.952V6.68C566.984 6.44 567.704 5.96 568.04 5.528L562.232 1.112L559.496 4.184H532.664L533.096 5.528H560.024V18.632H539.384L532.952 16.232V36.008C532.952 42.104 535.832 43.736 542.888 43.736H561.704C570.872 43.736 572.936 42.104 572.936 39.416C572.936 38.168 572.168 37.832 569.72 37.016L569.672 29.24ZM3.752 96.872C5.48 98.984 7.544 102.248 8.264 105.08C13.256 108.392 17.384 98.792 4.184 96.584L3.752 96.872ZM16.328 126.68C14.792 127.64 13.208 128.552 11.72 129.416V111.464C12.872 111.272 13.448 110.888 13.64 110.552L9.032 106.712L6.536 109.208H0.296L0.68 110.6H6.44V130.52C6.44 131.624 6.104 132.056 3.992 133.208L7.928 139.16C8.6 138.68 9.32 137.768 9.656 136.424C12.824 132.632 15.272 129.032 16.616 127.16L16.328 126.68ZM23.192 129.176V125H35.48V129.176H23.192ZM35.48 119.432V123.608H23.192V119.432H35.48ZM35 118.088H23.48L17.72 115.784V141.128H18.536C20.84 141.128 23.192 139.928 23.192 139.4V130.568H35.48V134.216C35.48 134.792 35.288 135.128 34.568 135.128C33.608 135.128 29.48 134.84 29.48 134.84V135.512C31.592 135.896 32.456 136.472 33.128 137.336C33.8 138.152 33.992 139.448 34.088 141.224C40.232 140.696 41.048 138.536 41.048 134.84V120.392C42.008 120.152 42.68 119.72 43.016 119.336L37.448 115.208L35 118.088ZM36.92 113.48H31.352V108.968H41.576C42.248 108.968 42.776 108.728 42.92 108.2C41 106.52 37.88 104.12 37.88 104.12L35.144 107.624H31.352V103.4H43.4C44.072 103.4 44.6 103.16 44.744 102.632C42.68 100.808 39.32 98.216 39.32 98.216L36.392 102.008H31.352V98.072C32.456 97.88 32.84 97.448 32.888 96.824L25.736 96.2V102.008H15.32L15.704 103.4H25.736V107.624H17.192L17.576 108.968H25.736V113.48H14.168L14.552 114.872H44.072C44.792 114.872 45.272 114.632 45.416 114.104C43.352 112.232 39.992 109.64 39.992 109.64L36.92 113.48ZM62.168 116.888C65.624 114.392 68.696 111.08 71.288 107.048H86.408C86.12 109.256 85.64 112.184 85.208 114.152L85.64 114.488C87.896 112.904 90.584 110.168 92.168 108.2C93.176 108.152 93.656 108.008 94.04 107.624L88.952 102.776L85.976 105.752H72.104C73.16 103.928 74.168 102.008 75.08 99.944C76.136 99.992 76.808 99.608 77 98.984L69.512 96.296C67.88 103.928 64.76 111.608 61.592 116.504L62.168 116.888ZM57.704 96.152C55.736 105.512 51.848 114.968 47.912 120.968L48.488 121.352C50.552 119.72 52.472 117.896 54.248 115.784V141.176H55.256C57.512 141.176 59.816 139.928 59.912 139.544V111.56C60.824 111.416 61.208 111.08 61.352 110.648L58.616 109.64C60.488 106.616 62.12 103.208 63.56 99.512C64.616 99.56 65.192 99.128 65.432 98.504L57.704 96.152ZM67.784 114.776C66.488 121.448 64.04 128.264 61.4 132.584L62.024 133.016C66.44 129.656 70.28 124.424 73.016 117.944C74.12 117.992 74.744 117.56 74.936 116.984L67.784 114.776ZM75.368 134.024C75.368 134.648 75.08 134.888 74.312 134.888C73.256 134.888 68.024 134.552 68.024 134.552V135.224C70.472 135.656 71.576 136.28 72.392 137.192C73.16 138.056 73.4 139.4 73.592 141.224C80.024 140.648 80.888 138.392 80.888 134.456V109.544C81.992 109.352 82.472 108.92 82.568 108.248L75.368 107.576V134.024ZM82.712 115.544C85.016 120.008 87.656 125.96 88.28 130.952C93.752 135.896 98.312 124.04 83.288 115.256L82.712 115.544ZM110.12 110.312L110.504 111.704H134.84C134.504 113.816 133.976 116.6 133.496 118.52L133.976 118.856C136.088 117.272 138.728 114.632 140.264 112.712C141.224 112.664 141.752 112.52 142.136 112.184L137.24 107.528L134.456 110.312H127.016V104.456H137.72C138.392 104.456 138.872 104.216 139.016 103.688C137.096 101.912 133.832 99.464 133.832 99.464L131.048 103.112H127.016V98.072C128.168 97.88 128.552 97.448 128.648 96.824L121.736 96.2V103.112H112.136L112.52 104.456H121.736V110.312H110.12ZM114.008 113.624C115.832 114.776 117.8 116.984 118.472 118.904C122.936 121.112 125.432 112.472 114.392 113.24L114.008 113.624ZM111.848 119.912C113.624 121.112 115.64 123.416 116.264 125.432C120.728 127.736 123.416 119.192 112.232 119.528L111.848 119.912ZM99.656 96.92C101.432 99.032 103.544 102.152 104.312 104.936C109.352 108.2 113.336 98.6 100.088 96.632L99.656 96.92ZM112.568 128.984C110.84 129.8 109.064 130.568 107.432 131.288V111.464C108.584 111.272 109.16 110.888 109.4 110.552L104.744 106.712L102.248 109.208H96.248L96.68 110.6H102.2V131.336C102.2 132.392 101.864 132.824 99.704 133.976L103.64 139.928C104.216 139.544 104.84 138.824 105.224 137.768C108.68 134.36 111.464 131.144 112.76 129.464L112.568 128.984ZM127.064 130.088C130.376 132.728 134.6 137 136.424 140.6C141.992 143.384 144.392 132.632 127.496 129.704L127.064 130.088ZM133.352 126.584H127.544C128.936 123.176 129.8 119.192 130.28 114.488C131.576 114.488 131.96 114.152 132.104 113.624L124.328 112.52C124.376 117.992 123.8 122.648 122.456 126.584H109.4L109.784 127.976H121.928C119.48 133.976 114.824 138.104 107.24 140.792L107.48 141.368C117.896 138.92 123.704 134.744 126.968 127.976H140.312C140.984 127.976 141.512 127.736 141.608 127.208C139.592 125.384 136.28 122.792 136.28 122.792L133.352 126.584ZM144.728 116.744L145.16 118.28H188.168C188.984 118.28 189.512 118.04 189.656 117.512C187.016 115.016 182.6 111.176 182.6 111.176L178.616 116.744H144.728ZM206.12 110.312L206.504 111.704H230.84C230.504 113.816 229.976 116.6 229.496 118.52L229.976 118.856C232.088 117.272 234.728 114.632 236.264 112.712C237.224 112.664 237.752 112.52 238.136 112.184L233.24 107.528L230.456 110.312H223.016V104.456H233.72C234.392 104.456 234.872 104.216 235.016 103.688C233.096 101.912 229.832 99.464 229.832 99.464L227.048 103.112H223.016V98.072C224.168 97.88 224.552 97.448 224.648 96.824L217.736 96.2V103.112H208.136L208.52 104.456H217.736V110.312H206.12ZM210.008 113.624C211.832 114.776 213.8 116.984 214.472 118.904C218.936 121.112 221.432 112.472 210.392 113.24L210.008 113.624ZM207.848 119.912C209.624 121.112 211.64 123.416 212.264 125.432C216.728 127.736 219.416 119.192 208.232 119.528L207.848 119.912ZM195.656 96.92C197.432 99.032 199.544 102.152 200.312 104.936C205.352 108.2 209.336 98.6 196.088 96.632L195.656 96.92ZM208.568 128.984C206.84 129.8 205.064 130.568 203.432 131.288V111.464C204.584 111.272 205.16 110.888 205.4 110.552L200.744 106.712L198.248 109.208H192.248L192.68 110.6H198.2V131.336C198.2 132.392 197.864 132.824 195.704 133.976L199.64 139.928C200.216 139.544 200.84 138.824 201.224 137.768C204.68 134.36 207.464 131.144 208.76 129.464L208.568 128.984ZM223.064 130.088C226.376 132.728 230.6 137 232.424 140.6C237.992 143.384 240.392 132.632 223.496 129.704L223.064 130.088ZM229.352 126.584H223.544C224.936 123.176 225.8 119.192 226.28 114.488C227.576 114.488 227.96 114.152 228.104 113.624L220.328 112.52C220.376 117.992 219.8 122.648 218.456 126.584H205.4L205.784 127.976H217.928C215.48 133.976 210.824 138.104 203.24 140.792L203.48 141.368C213.896 138.92 219.704 134.744 222.968 127.976H236.312C236.984 127.976 237.512 127.736 237.608 127.208C235.592 125.384 232.28 122.792 232.28 122.792L229.352 126.584ZM29.384 222.776C27.8 224.84 25.736 226.712 23.288 228.344C20.648 227.336 18.44 226.04 16.664 224.456C17.24 223.928 17.816 223.352 18.392 222.776H29.384ZM31.928 217.544V219.272H32.312L29.72 221.384H19.592C20.6 220.136 21.512 218.888 22.232 217.544H31.928ZM13.928 212.36H31.928V216.2H13.928V212.36ZM31.928 202.136V205.88H13.928V202.136H31.928ZM31.928 211.016H13.928V207.224H31.928V211.016ZM34.088 219.128C35.816 218.84 37.544 217.928 37.592 217.64V203.048C38.504 202.856 39.08 202.472 39.416 202.088L34.04 198.104L31.448 200.84H21.32C22.52 199.688 23.864 198.296 24.968 197H43.64C44.36 197 44.888 196.76 45.032 196.232C42.776 194.456 39.176 192.104 39.176 192.104L36.056 195.608H1.4L1.784 197H18.632C18.488 198.2 18.296 199.64 18.056 200.84H14.264L8.36 198.488V220.328H9.224C11.528 220.328 13.928 219.08 13.928 218.552V217.544H15.416C13.016 222.632 8.84 227.768 3.608 231.224L3.992 231.848C8.456 230.12 12.44 227.96 15.656 225.272C17.096 227.144 18.536 228.728 20.264 230.12C14.744 233.144 7.784 235.304 0.392 236.648L0.632 237.32C9.416 236.888 17.384 235.4 23.96 232.568C28.376 234.968 34.088 236.408 42.056 237.176C42.344 234.488 43.496 232.76 45.608 231.944L45.704 231.368C39.224 231.368 33.656 230.936 29 229.976C31.736 228.296 34.184 226.328 36.2 223.976C37.496 223.928 38.024 223.784 38.408 223.256L34.088 219.128ZM91.928 212.84C92.648 212.84 93.176 212.6 93.32 212.072C91.064 210.056 87.272 207.224 87.272 207.224L83.912 211.448H72.824C73.208 207.608 73.304 203.432 73.4 198.872H89.048C89.72 198.872 90.296 198.632 90.44 198.104C88.136 196.136 84.392 193.304 84.392 193.304L81.08 197.48H52.52L52.904 198.872H67.016C67.016 203.432 67.016 207.56 66.68 211.448H49.736L50.12 212.84H66.536C65.384 222.488 61.544 230.216 48.44 236.552L48.824 237.272C65.432 231.992 70.664 224.36 72.392 214.136C73.928 222.2 77.864 231.752 88.856 237.272C89.288 234.104 90.968 232.568 93.8 232.04L93.848 231.464C80.648 227.24 74.84 220.136 73.016 212.84H91.928ZM134.36 194.072C133.736 197 132.248 202.088 130.712 205.496L131.24 205.928C134.12 203.576 136.952 200.504 138.824 198.296C140.024 198.488 140.456 198.152 140.696 197.672L134.36 194.072ZM112.328 195.512C114.2 197.768 116.264 201.368 116.744 204.488C121.4 208.04 125.72 198.632 112.808 195.176L112.328 195.512ZM100.664 193.256C102.44 195.128 104.6 198.008 105.272 200.696C110.504 204.056 114.68 194.12 101.048 192.92L100.664 193.256ZM96.44 204.008C98.264 205.736 100.328 208.424 100.952 210.968C106.04 214.04 109.832 204.392 96.824 203.72L96.44 204.008ZM112.568 200.024C102.968 219.896 102.968 219.896 101.816 221.768C101.192 222.776 101.048 222.776 100.28 222.776H98.072V223.688C99.08 223.784 99.944 224.024 100.616 224.504C101.768 225.272 102.008 229.736 101.096 234.776C101.48 236.6 102.632 237.272 103.736 237.272C106.088 237.272 107.72 235.688 107.768 233.24C108.008 229.016 105.992 227.384 105.944 224.744C105.896 223.496 106.28 221.72 106.76 220.088C107.48 217.496 111.224 206.264 113.288 200.264L112.568 200.024ZM118.376 222.968V216.488H133.112V222.968H118.376ZM133.112 208.856V215.096H118.376V208.856H133.112ZM132.632 207.464H128.648V194.12C129.752 193.928 130.088 193.496 130.184 192.872L123.176 192.248V207.464H118.712L112.952 205.112V237.224H113.816C116.168 237.224 118.376 236.024 118.376 235.352V224.312H133.112V230.36C133.112 230.984 132.92 231.272 132.152 231.272C131.096 231.272 127.112 231.032 127.112 231.032V231.704C129.224 232.04 130.136 232.664 130.808 233.528C131.432 234.344 131.624 235.688 131.768 237.32C137.864 236.84 138.632 234.728 138.632 230.936V209.768C139.592 209.576 140.312 209.144 140.6 208.76L135.176 204.584L132.632 207.464ZM188.024 215.912C188.744 215.912 189.224 215.672 189.368 215.144C187.064 213.224 183.368 210.344 183.368 210.344L180.008 214.568H168.872C169.448 211.4 169.688 207.944 169.784 204.2H183.752C184.472 204.2 184.952 203.96 185.048 203.432C182.84 201.56 179.144 198.776 179.144 198.776L175.832 202.904H169.832C169.88 200.264 169.88 197.528 169.928 194.6C171.08 194.456 171.608 193.976 171.752 193.208L163.832 192.488C163.832 196.184 163.88 199.64 163.832 202.904H156.488C157.496 200.984 158.408 198.92 159.176 196.664C160.28 196.664 160.856 196.232 161.048 195.608L153.224 193.592C152.36 200.888 149.912 207.944 147.032 212.696L147.608 213.08C150.776 210.872 153.512 207.944 155.72 204.2H163.832C163.736 207.944 163.544 211.4 163.016 214.568H145.208L145.64 215.912H162.728C160.904 224.456 156.248 231.08 144.296 236.504L144.68 237.224C160.76 232.52 166.472 225.512 168.584 215.912H168.776C170.168 223.592 173.864 232.568 184.952 237.368C185.288 233.96 187.064 232.328 190.088 231.752V231.128C177.416 227.864 171.56 222.2 169.592 215.912H188.024ZM199.688 228.776V216.152H206.984V228.776H199.688ZM206.984 202.856V214.76H199.688V202.856H206.984ZM209.048 198.584L206.504 201.464H202.328C203.864 199.592 205.736 197.096 206.984 195.416C208.088 195.416 208.76 195.08 208.952 194.264L201.176 192.392C200.936 195.08 200.504 198.824 200.168 201.464H199.88L194.504 199.208V235.496H195.368C197.672 235.496 199.688 234.296 199.688 233.672V230.12H206.984V233.912H207.8C209.672 233.912 212.216 232.712 212.264 232.328V203.72C213.224 203.528 213.944 203.144 214.28 202.712L209.048 198.584ZM232.568 198.2L229.544 201.32H221.912C222.92 199.496 223.784 197.576 224.6 195.512C225.704 195.512 226.28 195.176 226.472 194.552L218.888 192.344C217.64 199.688 215.048 207.512 212.408 212.408L213.032 212.792C216.104 210.2 218.84 206.792 221.144 202.712H230.072C229.736 219.08 229.256 228.632 227.48 230.264C227 230.696 226.568 230.888 225.704 230.888C224.456 230.888 221.144 230.648 218.84 230.456L218.792 231.128C221.144 231.56 223.016 232.328 223.88 233.24C224.696 234.008 224.936 235.352 224.936 237.176C228.104 237.176 230.216 236.408 231.944 234.584C234.584 231.752 235.256 222.968 235.592 203.624C236.696 203.48 237.32 203.144 237.704 202.712L232.568 198.2ZM216.104 211.4C218.024 214.04 219.944 217.928 220.184 221.336C225.272 225.608 230.504 215.24 216.488 211.112L216.104 211.4ZM244.136 192.632C246.392 195.032 249.128 198.728 250.232 201.992C255.752 205.256 259.448 194.504 244.52 192.344L244.136 192.632ZM257.912 223.064C255.944 224.216 254.072 225.32 252.248 226.28V208.136C253.304 207.944 253.832 207.56 254.12 207.224L249.464 203.288L246.92 205.88H240.536L240.92 207.272H246.824V227.048C246.824 228.104 246.488 228.536 244.52 229.688L248.456 235.688C249.032 235.304 249.656 234.632 249.992 233.624C253.784 229.4 256.664 225.512 258.2 223.496L257.912 223.064ZM283.448 223.64H282.92C281.96 226.712 281.144 228.92 280.568 229.832C280.136 230.312 279.752 230.504 278.936 230.552C278.024 230.6 275.96 230.648 273.56 230.648H267.08C264.92 230.648 264.536 230.36 264.536 229.352V212.984H275.576V216.968H276.44C278.312 216.968 281.096 216.008 281.144 215.672V199.016C282.344 198.776 283.16 198.248 283.544 197.768L277.736 193.256L275 196.376H256.76L257.192 197.768H275.576V211.64H265.16L259.064 209.336V230.36C259.064 234.344 260.648 235.208 266.408 235.208H273.08C283.4 235.208 285.8 234.584 285.8 232.184C285.8 231.176 285.32 230.6 283.592 230.024L283.448 223.64ZM292.04 201.512C292.28 204.824 290.84 208.52 289.544 209.96C288.344 210.92 287.768 212.36 288.536 213.656C289.496 215.048 291.752 214.856 292.856 213.464C294.344 211.4 294.92 207.08 292.808 201.512H292.04ZM295.448 192.296V237.272H296.552C298.616 237.272 300.92 236.168 300.92 235.688V194.36C302.168 194.168 302.504 193.688 302.648 193.016L295.448 192.296ZM301.352 200.792C302.36 202.904 303.416 205.976 303.368 208.616C307.208 212.36 312.248 204.536 301.832 200.552L301.352 200.792ZM331.256 223.304L330.728 223.256C329.768 226.28 328.904 228.584 327.848 229.784C327.368 230.312 326.648 230.552 322.808 230.552H316.376C312.584 230.552 310.568 230.072 310.28 228.2C309.944 225.128 314.888 216.92 328.136 200.024C329.528 199.88 330.344 199.592 330.872 199.16L325.448 194.36L322.904 197.192H304.808L305.24 198.584H322.472C309.656 216.152 304.04 223.688 304.568 228.92C305 233.624 308.504 235.688 316.472 235.688H322.424C330.296 235.688 333.752 234.584 333.752 231.896C333.752 230.792 333.224 230.456 331.16 229.688L331.256 223.304Z" fill="white"/>
</svg>
