<svg width="525" height="93" viewBox="0 0 525 93" fill="none" xmlns="http://www.w3.org/2000/svg">
<path d="M39.744 8.444C38.38 6.376 35.432 3.384 32.968 1.272L29.888 3.384C32.352 5.584 35.212 8.752 36.444 10.82L39.744 8.444ZM35.08 18.388C33.804 20.896 32.044 23.316 30.064 25.56C29.448 22.876 28.92 19.928 28.48 16.628H40.536V12.756H28.04C27.688 8.884 27.512 4.704 27.556 0.479998H23.332C23.376 4.66 23.552 8.796 23.904 12.756H14.576V5.848C17.172 5.32 19.68 4.704 21.836 4L18.976 0.567997C14.708 2.064 7.712 3.472 1.596 4.396C2.124 5.276 2.652 6.86 2.872 7.784C5.248 7.476 7.844 7.124 10.44 6.684V12.756H1.552V16.628H10.44V23.58C6.788 24.284 3.4 24.9 0.804 25.34L1.948 29.432C4.456 28.904 7.316 28.288 10.44 27.628V35.46C10.44 36.164 10.176 36.384 9.384 36.428C8.636 36.472 6.084 36.472 3.4 36.384C4.016 37.484 4.72 39.376 4.94 40.52C8.46 40.52 10.924 40.388 12.464 39.728C14.004 39.068 14.576 37.88 14.576 35.46V26.704C17.128 26.176 19.724 25.56 22.232 24.988L21.924 21.336L14.576 22.788V16.628H24.3C24.828 21.16 25.576 25.384 26.632 28.948C23.508 31.676 20.076 34.008 16.468 35.68C17.524 36.604 18.624 37.968 19.284 38.98C22.364 37.352 25.268 35.372 27.996 33.04C29.932 37.748 32.528 40.652 35.872 40.652C39.436 40.652 40.8 38.628 41.504 31.148C40.404 30.796 38.996 29.828 38.072 28.86C37.852 34.316 37.324 36.472 36.268 36.472C34.464 36.472 32.748 34.008 31.296 29.916C34.244 26.924 36.752 23.58 38.732 19.928L35.08 18.388ZM57.212 7.74C55.804 5.848 52.68 2.944 50.348 0.919998L47.62 3.384C49.952 5.54 52.944 8.664 54.308 10.6L57.212 7.74ZM55.144 30.4V13.636H45.068V17.64H51.008V31.236C51.008 33.216 49.292 34.888 48.28 35.46C49.072 36.384 50.216 38.188 50.612 39.244C51.316 38.276 52.68 37.132 61.172 30.708C60.776 29.916 60.116 28.244 59.808 27.012L55.144 30.4ZM63.768 12.404H77.452V19.488H63.768V12.404ZM77.672 36.12C76.792 36.12 76.616 35.944 76.616 34.712V23.096H81.588V8.796H77.232C78.464 6.596 79.652 3.956 80.796 1.404L76.484 0.127997C75.692 2.768 74.196 6.288 72.92 8.796H66.232L69.092 7.564C68.432 5.496 66.672 2.46 64.912 0.171999L61.48 1.624C63.02 3.824 64.56 6.772 65.176 8.796H59.808V23.096H65C64.472 29.784 63.196 34.668 56.068 37.352C56.948 38.1 58.048 39.552 58.532 40.52C66.628 37.088 68.432 31.236 69.092 23.096H72.612V34.8C72.612 38.716 73.448 39.904 77.012 39.904H80.796C83.744 39.904 84.756 38.364 85.152 32.512C84.052 32.204 82.38 31.544 81.544 30.84C81.456 35.46 81.236 36.12 80.4 36.12H77.672ZM127.744 8.444C126.38 6.376 123.432 3.384 120.968 1.272L117.888 3.384C120.352 5.584 123.212 8.752 124.444 10.82L127.744 8.444ZM123.08 18.388C121.804 20.896 120.044 23.316 118.064 25.56C117.448 22.876 116.92 19.928 116.48 16.628H128.536V12.756H116.04C115.688 8.884 115.512 4.704 115.556 0.479998H111.332C111.376 4.66 111.552 8.796 111.904 12.756H102.576V5.848C105.172 5.32 107.68 4.704 109.836 4L106.976 0.567997C102.708 2.064 95.712 3.472 89.596 4.396C90.124 5.276 90.652 6.86 90.872 7.784C93.248 7.476 95.844 7.124 98.44 6.684V12.756H89.552V16.628H98.44V23.58C94.788 24.284 91.4 24.9 88.804 25.34L89.948 29.432C92.456 28.904 95.316 28.288 98.44 27.628V35.46C98.44 36.164 98.176 36.384 97.384 36.428C96.636 36.472 94.084 36.472 91.4 36.384C92.016 37.484 92.72 39.376 92.94 40.52C96.46 40.52 98.924 40.388 100.464 39.728C102.004 39.068 102.576 37.88 102.576 35.46V26.704C105.128 26.176 107.724 25.56 110.232 24.988L109.924 21.336L102.576 22.788V16.628H112.3C112.828 21.16 113.576 25.384 114.632 28.948C111.508 31.676 108.076 34.008 104.468 35.68C105.524 36.604 106.624 37.968 107.284 38.98C110.364 37.352 113.268 35.372 115.996 33.04C117.932 37.748 120.528 40.652 123.872 40.652C127.436 40.652 128.8 38.628 129.504 31.148C128.404 30.796 126.996 29.828 126.072 28.86C125.852 34.316 125.324 36.472 124.268 36.472C122.464 36.472 120.748 34.008 119.296 29.916C122.244 26.924 124.752 23.58 126.732 19.928L123.08 18.388ZM163.604 7.696H142.088V4.748H163.604V7.696ZM163.604 13.46H142.088V10.556H163.604V13.46ZM167.74 1.712H138.128V16.496H167.74V1.712ZM155.464 30.4H169.456V26.836H155.464V22.656H172.316V19.048H133.772V22.656H151.372V34.976C147.94 34.052 145.476 32.116 143.892 28.552C144.332 27.276 144.684 25.868 144.992 24.416L140.9 23.844C139.8 29.96 137.072 34.8 132.584 37.66C133.464 38.32 135.004 39.816 135.62 40.564C138.304 38.628 140.504 36.032 142.132 32.864C145.74 38.452 151.328 39.684 159.732 39.684H171.876C172.096 38.54 172.712 36.736 173.284 35.812C170.688 35.856 161.888 35.9 159.952 35.856C158.368 35.856 156.828 35.812 155.464 35.68V30.4ZM187.32 12.228H191.5V8.488H202.412V12.228H206.636V8.488H216.052V4.572H206.636V0.083998H202.412V4.572H191.5V0.083998H187.32V4.572H177.64V8.488H187.32V12.228ZM190.84 35.328C188.332 35.328 186.704 34.756 186.704 33.436C186.704 31.896 188.244 29.608 209.936 17.728C210.332 17.596 210.684 17.332 210.86 17.156L207.956 15L207.076 15.132H181.82V18.916H199.728C183.316 28.508 182.524 31.148 182.524 33.832C182.524 37.176 185.296 39.288 191.236 39.288H208.528C213.72 39.288 215.568 37.836 216.14 30.268C214.908 30.048 213.412 29.564 212.312 28.904C212.092 34.448 211.256 35.328 208.924 35.328H190.84ZM256.312 6.904C254.64 5.144 251.164 2.504 248.656 0.699998L245.62 3.208C248.216 5.144 251.56 7.916 253.144 9.764L256.312 6.904ZM259.744 15V10.996H243.332V0.127997H238.844V10.996H222.036V15H237.744C233.96 21.996 227.272 28.728 220.54 32.16C221.552 33.04 222.916 34.668 223.664 35.68C229.34 32.424 234.752 26.968 238.844 20.72V40.476H243.332V19.092C247.512 25.428 253.056 31.632 258.116 35.372C258.908 34.228 260.36 32.6 261.416 31.72C255.608 28.112 248.964 21.336 245.048 15H259.744ZM270.876 7.52H299.212V12.932H303.348V3.78H287.068V0.083998H282.844V3.78H266.828V12.932H270.876V7.52ZM299.872 15.704C298.068 17.376 295.296 19.444 292.788 21.072C291.864 19.092 291.072 16.936 290.456 14.736H296.924V11.216H272.856V14.736H280.952C276.948 17.112 271.536 18.96 266.52 20.104C267.18 20.808 268.28 22.524 268.676 23.272C272.152 22.304 275.892 20.984 279.28 19.356C279.896 19.84 280.424 20.368 280.908 20.896C277.564 23.36 271.492 26 266.96 27.188C267.708 28.024 268.588 29.388 269.028 30.356C273.428 28.772 279.06 25.956 282.8 23.36C283.24 24.108 283.636 24.856 283.988 25.604C279.632 29.52 271.888 33.392 265.42 35.064C266.212 35.944 267.048 37.484 267.576 38.452C273.384 36.516 280.292 32.864 285.088 29.124C285.616 32.248 284.956 34.888 283.636 35.856C282.8 36.648 281.876 36.736 280.732 36.736C279.676 36.736 278.224 36.692 276.64 36.516C277.344 37.704 277.696 39.332 277.784 40.432C279.148 40.52 280.468 40.564 281.568 40.564C283.68 40.564 284.956 40.168 286.496 38.936C290.764 35.856 290.94 24.812 282.624 17.552C284.076 16.716 285.484 15.748 286.672 14.736H286.76C289.4 25.032 294.152 33.26 302.248 37.176C302.864 36.032 304.14 34.448 305.108 33.612C300.62 31.764 297.1 28.42 294.504 24.152C297.276 22.612 300.532 20.456 303.084 18.432L299.872 15.704ZM314.612 42.28C319.628 40.696 322.708 36.868 322.708 32.028C322.708 28.684 321.256 26.528 318.484 26.528C316.46 26.528 314.744 27.804 314.744 30.048C314.744 32.292 316.46 33.524 318.44 33.524C318.66 33.524 318.88 33.524 319.056 33.48C318.836 36.164 316.856 38.188 313.468 39.42L314.612 42.28ZM361.34 23.888L362.572 19.752C363.584 16.32 364.552 12.712 365.476 9.104H365.652C366.576 12.712 367.632 16.32 368.644 19.752L369.832 23.888H361.34ZM373.66 37H379.248L368.732 4.968H362.616L352.144 37H357.468L360.108 28.068H371.064L373.66 37ZM386.948 37H392.14V23.536C394.692 18.828 397.992 17.068 401.336 17.068C403.14 17.068 404.108 17.332 405.692 17.816L406.836 13.416C405.384 12.756 404.02 12.448 402.128 12.448C397.948 12.448 394.252 14.648 391.832 18.52H391.656L391.216 13.02H386.948V37ZM428.879 37.572C431.959 37.572 434.335 36.956 436.491 36.208L435.435 32.424C433.851 33.04 432.135 33.436 430.067 33.436C425.887 33.436 424.391 31.5 424.391 27.452V17.2H435.567V13.064H424.391V5.496H420.123L419.375 13.064L412.731 13.284V17.2H419.199V27.452C419.199 33.48 421.619 37.572 428.879 37.572ZM453.827 37H459.019V13.02H443.223V17.2H453.827V37ZM456.027 8.488C458.227 8.488 459.811 7.08 459.811 4.88C459.811 2.724 458.227 1.272 456.027 1.272C453.827 1.272 452.199 2.724 452.199 4.88C452.199 7.08 453.827 8.488 456.027 8.488ZM483.307 37.572C490.479 37.572 494.395 34.272 494.395 30.268C494.395 26.44 492.415 24.416 484.671 22.744C480.095 21.732 478.203 21.072 478.203 19.268C478.203 17.684 479.523 16.408 482.955 16.408C485.815 16.408 488.587 17.332 490.919 18.828L493.295 15.616C490.875 13.988 487.267 12.448 483.395 12.448C476.707 12.448 473.011 15.44 473.011 19.532C473.011 23.184 475.959 25.384 482.295 26.704C488.147 27.892 489.203 28.86 489.203 30.532C489.203 32.248 487.487 33.612 483.967 33.612C479.919 33.612 476.663 32.468 473.847 30.532L471.559 33.876C474.507 35.9 478.775 37.572 483.307 37.572ZM516.922 37.572C520.002 37.572 522.378 36.956 524.534 36.208L523.478 32.424C521.894 33.04 520.178 33.436 518.11 33.436C513.93 33.436 512.434 31.5 512.434 27.452V17.2H523.61V13.064H512.434V5.496H508.166L507.418 13.064L500.774 13.284V17.2H507.242V27.452C507.242 33.48 509.662 37.572 516.922 37.572ZM33.54 66.56H20.472V58.86H33.54V66.56ZM33.54 78.132H20.472V70.344H33.54V78.132ZM37.94 55.076H16.248V81.96H37.94V55.076ZM10.88 52.26C8.46 58.684 4.456 65.152 0.232 69.2C0.936 70.168 2.124 72.456 2.52 73.468C3.796 72.148 5.116 70.652 6.348 68.98V92.388H10.396V62.732C12.112 59.784 13.608 56.616 14.84 53.536L10.88 52.26ZM12.816 87.02V90.804H41.372V87.02H12.816ZM75.604 59.696H54.088V56.748H75.604V59.696ZM75.604 65.46H54.088V62.556H75.604V65.46ZM79.74 53.712H50.128V68.496H79.74V53.712ZM67.464 82.4H81.456V78.836H67.464V74.656H84.316V71.048H45.772V74.656H63.372V86.976C59.94 86.052 57.476 84.116 55.892 80.552C56.332 79.276 56.684 77.868 56.992 76.416L52.9 75.844C51.8 81.96 49.072 86.8 44.584 89.66C45.464 90.32 47.004 91.816 47.62 92.564C50.304 90.628 52.504 88.032 54.132 84.864C57.74 90.452 63.328 91.684 71.732 91.684H83.876C84.096 90.54 84.712 88.736 85.284 87.812C82.688 87.856 73.888 87.9 71.952 87.856C70.368 87.856 68.828 87.812 67.464 87.68V82.4ZM98.396 52.26C96.02 58.684 92.104 65.108 87.968 69.2C88.628 70.168 89.816 72.324 90.212 73.292C91.444 71.972 92.676 70.476 93.864 68.848V92.432H97.868V62.556C99.496 59.608 100.992 56.484 102.136 53.448L98.396 52.26ZM112.036 88.208C109 88.208 108.472 87.68 108.472 85.128V70.3L113.972 68.188V82.488H117.844V66.648L123.652 64.404C123.608 70.784 123.52 74.524 123.3 75.58C123.036 76.548 122.64 76.724 121.98 76.724C121.408 76.724 120 76.724 118.9 76.68C119.384 77.604 119.78 79.32 119.868 80.42C121.232 80.464 123.212 80.42 124.488 79.98C125.852 79.54 126.732 78.572 126.996 76.504C127.348 74.656 127.436 68.804 127.48 60.972L127.656 60.356L124.84 59.212L124.136 59.784L123.52 60.268L117.844 62.468V52.216H113.972V63.964L108.472 66.076V56.66H104.424V67.66L98.968 69.772L100.596 73.424L104.424 71.884V85.084C104.424 90.452 106.052 91.86 111.772 91.86H122.42C127.48 91.86 128.712 89.836 129.328 83.588C128.228 83.368 126.556 82.62 125.632 81.96C125.236 87.02 124.752 88.208 122.156 88.208H112.036ZM140.592 52.348C138.832 58.816 135.928 65.372 132.54 69.684C133.244 70.74 134.3 73.028 134.652 74.04C135.532 72.94 136.324 71.752 137.116 70.388V92.476H140.988V62.82C142.352 59.74 143.452 56.528 144.42 53.404L140.592 52.348ZM145.564 92.476H149.568V61.236H145.564V92.476ZM147.412 53.888C149.304 56.528 151.548 60.18 152.516 62.424L155.86 60.4C154.804 58.2 152.472 54.636 150.58 52.128L147.412 53.888ZM171.568 53.624H156.256V57.32H167.52V87.636C167.52 88.34 167.3 88.604 166.552 88.604C165.892 88.648 163.516 88.692 161.228 88.56C161.756 89.572 162.372 91.332 162.504 92.388C165.936 92.388 168.224 92.3 169.632 91.64C171.084 91.024 171.568 89.88 171.568 87.68V53.624ZM189.08 65.108V60.488H193.392C192.38 62.116 191.368 63.656 190.18 65.108H189.08ZM193.788 79.364H185.076V75.756H193.788V79.364ZM185.076 86.536V82.576H193.788V86.536H185.076ZM196.736 53.756C195.988 55.692 195.108 57.54 194.14 59.256V56.968H189.08V52.436H185.296V56.968H179.004V60.488H185.296V65.108H177.068V68.672H186.968C183.8 71.796 180.06 74.436 176.012 76.416C176.716 77.208 177.992 78.88 178.388 79.76C179.444 79.188 180.412 78.572 181.38 78V92.3H185.076V89.88H193.788V91.684H197.66V72.456H188.464C189.696 71.268 190.928 69.992 192.072 68.672H199.42V65.108H194.844C197.044 61.984 198.892 58.596 200.432 54.856L196.736 53.756ZM214.424 54.372L213.808 54.548H201.092V92.432H205.096V58.376H212.092C210.86 61.852 209.056 66.428 207.428 69.86C211.564 73.468 212.796 76.724 212.796 79.32C212.796 80.904 212.488 82.048 211.564 82.576C211.08 82.884 210.376 83.016 209.628 83.06C208.748 83.104 207.604 83.104 206.328 82.972C206.944 84.028 207.384 85.832 207.428 86.932C208.836 87.02 210.288 87.02 211.432 86.888C212.576 86.712 213.632 86.404 214.424 85.876C216.052 84.776 216.756 82.664 216.712 79.716C216.712 76.724 215.744 73.292 211.52 69.376C213.5 65.416 215.7 60.4 217.416 56.264L214.424 54.372ZM251.956 77.076H234.356V74.568H251.956V77.076ZM234.356 87.724V85.04H251.956V87.724H234.356ZM234.356 79.804H251.956V82.312H234.356V79.804ZM260.272 68.848V65.592H237.876C238.272 64.756 238.668 63.832 239.02 62.952H257.808V59.74H240.12C240.428 58.816 240.736 57.936 241 57.012C247.116 56.66 252.968 56.088 257.5 55.296L255.036 52.348C247.908 53.668 234.928 54.284 224.28 54.328C224.676 55.164 225.028 56.528 225.072 57.452C228.724 57.452 232.596 57.364 236.468 57.232C236.248 58.068 236.028 58.904 235.72 59.74H224.852V62.952H234.62C234.224 63.832 233.828 64.756 233.388 65.592H221.728V68.848H231.628C228.944 73.292 225.292 77.164 220.54 79.848C221.332 80.596 222.52 82.092 223.048 83.06C225.864 81.432 228.328 79.408 230.44 77.164V92.608H234.356V90.936H251.956V92.608H256.048V71.4H234.84C235.368 70.564 235.808 69.728 236.292 68.848H260.272ZM303.832 59.256V55.076H266.168V59.256H284.736C280.512 66.428 273.296 73.468 264.936 77.56C265.816 78.44 267.092 80.112 267.752 81.212C273.428 78.22 278.532 74.04 282.756 69.332V92.432H287.2V63.788C288.256 62.292 289.18 60.752 290.104 59.256H303.832ZM287.376 68.584C292.392 72.148 298.904 77.384 301.852 80.772L305.284 77.604C302.072 74.216 295.384 69.244 290.456 65.944L287.376 68.584ZM328.252 60.224H331.772V58.024H339.34V60.092H342.904V58.024H349.02V55.12H342.904V52.084H339.34V55.12H331.772V52.084H328.252V55.12H322.18V58.024H328.252V60.224ZM311.488 72.984C312.544 69.816 313.336 64.668 313.468 61.016L310.388 60.576C310.124 64.14 309.376 68.98 308.276 71.884L311.488 72.984ZM314.436 92.432H318.308V52.128H314.436V92.432ZM328.076 79.056V76.768H333.708V79.056H328.076ZM328.076 72.324H333.708V74.568H328.076V72.324ZM343.212 72.324V74.568H337.448V72.324H343.212ZM343.212 79.056H337.448V76.768H343.212V79.056ZM337.448 88.384V86.184H347.7V83.28H337.448V81.344H347.04V70.036H337.448V68.232H349.372V65.328H337.448V63.392C341.276 63.128 344.84 62.82 347.744 62.468L345.94 59.828C340.66 60.576 331.552 61.104 323.984 61.236C324.336 61.984 324.644 63.084 324.732 63.832C327.592 63.832 330.672 63.744 333.708 63.612V65.328H322.18L323.324 64.844C322.928 63.304 322.048 60.708 321.168 58.728L318.484 59.74C319.276 61.764 320.112 64.448 320.42 66.076L322.004 65.416V68.232H333.708V70.036H324.424V81.344H333.708V83.28H323.764V86.184H333.708V88.384H321.52V91.376H349.416V88.384H337.448ZM391.744 60.444C390.38 58.376 387.432 55.384 384.968 53.272L381.888 55.384C384.352 57.584 387.212 60.752 388.444 62.82L391.744 60.444ZM387.08 70.388C385.804 72.896 384.044 75.316 382.064 77.56C381.448 74.876 380.92 71.928 380.48 68.628H392.536V64.756H380.04C379.688 60.884 379.512 56.704 379.556 52.48H375.332C375.376 56.66 375.552 60.796 375.904 64.756H366.576V57.848C369.172 57.32 371.68 56.704 373.836 56L370.976 52.568C366.708 54.064 359.712 55.472 353.596 56.396C354.124 57.276 354.652 58.86 354.872 59.784C357.248 59.476 359.844 59.124 362.44 58.684V64.756H353.552V68.628H362.44V75.58C358.788 76.284 355.4 76.9 352.804 77.34L353.948 81.432C356.456 80.904 359.316 80.288 362.44 79.628V87.46C362.44 88.164 362.176 88.384 361.384 88.428C360.636 88.472 358.084 88.472 355.4 88.384C356.016 89.484 356.72 91.376 356.94 92.52C360.46 92.52 362.924 92.388 364.464 91.728C366.004 91.068 366.576 89.88 366.576 87.46V78.704C369.128 78.176 371.724 77.56 374.232 76.988L373.924 73.336L366.576 74.788V68.628H376.3C376.828 73.16 377.576 77.384 378.632 80.948C375.508 83.676 372.076 86.008 368.468 87.68C369.524 88.604 370.624 89.968 371.284 90.98C374.364 89.352 377.268 87.372 379.996 85.04C381.932 89.748 384.528 92.652 387.872 92.652C391.436 92.652 392.8 90.628 393.504 83.148C392.404 82.796 390.996 81.828 390.072 80.86C389.852 86.316 389.324 88.472 388.268 88.472C386.464 88.472 384.748 86.008 383.296 81.916C386.244 78.924 388.752 75.58 390.732 71.928L387.08 70.388ZM402.524 84.336V74.612H410.708V84.336H402.524ZM410.708 62.688V71.048H402.524V62.688H410.708ZM423.16 58.904C423.864 56.968 424.436 54.944 424.964 52.92L421.004 51.996C419.684 57.804 417.352 63.656 414.448 67.44V59.124H407.408C408.112 57.276 408.948 54.944 409.696 52.744L405.252 51.996C404.988 54.108 404.328 57.012 403.712 59.124H398.784V91.288H402.524V87.944H414.448V67.748C415.46 68.32 417 69.42 417.66 70.036C419.068 68.012 420.432 65.46 421.664 62.644H432.048C431.476 79.232 430.904 85.876 429.496 87.328C429.012 87.944 428.528 88.076 427.648 88.076C426.548 88.076 423.996 88.032 421.18 87.812C421.928 88.956 422.412 90.672 422.5 91.772C425.008 91.904 427.604 91.948 429.144 91.772C430.816 91.552 431.872 91.156 432.972 89.704C434.732 87.504 435.26 80.684 435.876 60.84C435.92 60.312 435.92 58.904 435.92 58.904H423.16ZM428.792 78.748C427.472 76.152 424.48 71.972 422.148 68.936L418.936 70.74C421.268 73.908 424.128 78.22 425.36 80.904L428.792 78.748ZM455.324 56.88V60.488H446.744V56.88H455.324ZM455.676 73.16H448.768V69.332H455.676V73.16ZM445.38 76.24H459.284V66.252H446.436C446.524 65.372 446.612 64.492 446.656 63.656H459.064V53.756H443.136V60.972C443.136 64.888 442.872 70.168 440.276 74.04C440.936 74.524 442.388 76.064 442.828 76.812C443.972 75.228 444.808 73.38 445.38 71.444V76.24ZM463.024 83.28H476.84V79.804H463.024V76.856H458.844V79.804H445.688V83.28H458.844V87.548H441.596V91.112H480.624V87.548H463.024V83.28ZM473.716 58.156C473.408 59.476 472.792 61.192 472.308 62.38L473.804 62.644H466.632L468.216 62.292C468.04 61.236 467.424 59.476 466.764 58.156H473.716ZM475.652 62.644C476.18 61.456 476.752 59.96 477.368 58.42L475.828 58.156H479.876V55.032H472.22V52.48H468.436V55.032H461.176V58.156H465.268L463.464 58.508C464.036 59.784 464.52 61.412 464.784 62.644H460.076V65.944H468.436V69.068H460.868V72.28H468.436V77.34H472.22V72.28H479.876V69.068H472.22V65.944H480.888V62.644H475.652ZM519.124 85.92H490.964V62.38H486.96V92.432H490.964V89.792H519.124V92.344H523.128V62.38H519.124V85.92ZM511.82 71.136H506.628V66.34H511.82V71.136ZM511.82 79.232H506.628V74.392H511.82V79.232ZM497.916 74.392H503.064V79.232H497.916V74.392ZM497.916 66.34H503.064V71.136H497.916V66.34ZM485.596 54.856V58.64H502.8V62.952H494.484V82.62H515.384V62.952H506.892V58.64H524.404V54.856H485.596Z" fill="white"/>
</svg>
