<svg width="282" height="281" viewBox="0 0 282 281" fill="none" xmlns="http://www.w3.org/2000/svg">
<path d="M34.2031 10.4844C32.4062 8.47917 30.4401 6.61719 28.3047 4.89844L30.7656 2.75C33.0573 4.57292 35.1536 6.55208 37.0547 8.6875L34.2031 10.4844ZM14.5547 15.0156V19.8594L21.7031 17.5156L21.9766 19.9766L14.5547 22.75L14.5156 35.9531C14.4115 37.776 13.6172 38.9479 12.1328 39.4688C10.987 39.8594 9.67188 39.9505 8.1875 39.7422L5.45312 39.6641C5.55729 38.4141 5.46615 37.1901 5.17969 35.9922C7.41927 36.3047 9.1901 36.3307 10.4922 36.0703C11.013 35.9922 11.2865 35.6927 11.3125 35.1719V24.0391C8.13542 25.3672 5.08854 26.8516 2.17188 28.4922C1.83333 27.1901 1.35156 25.9531 0.726562 24.7812L6.97656 22.4766L11.3125 20.9531V15.0156H3.77344C2.91406 15.0156 2.05469 15.0938 1.19531 15.25C1.29948 14.2604 1.29948 13.2708 1.19531 12.2812C2.05469 12.4375 2.91406 12.5156 3.77344 12.5156H11.3125V7.94531C8.63021 8.72656 5.92188 9.13021 3.1875 9.15625C3.26562 8.0625 3.14844 6.98177 2.83594 5.91406C5.70052 6.14844 8.46094 5.78385 11.1172 4.82031C13.7995 3.83073 16.1823 2.41146 18.2656 0.5625C18.9427 1.68229 19.7109 2.71094 20.5703 3.64844C18.6432 4.89844 16.638 5.95312 14.5547 6.8125V12.5156H22.9922L22.6797 1.57812C23.9818 1.70833 25.2839 1.70833 26.5859 1.57812L26.2734 12.5156H28.1875C32.0417 12.5156 35.9089 12.4375 39.7891 12.2812C39.6849 13.2708 39.6849 14.2604 39.7891 15.25C35.9089 15.0938 32.0417 15.0156 28.1875 15.0156H26.3125C26.4688 18.4271 27.1589 21.5911 28.3828 24.5078C30.5703 22.3464 32.3411 19.9115 33.6953 17.2031C34.8151 18.0885 36.013 18.8568 37.2891 19.5078C34.8932 22.5547 32.4323 25.237 29.9062 27.5547C31.625 30.4193 33.8385 32.8672 36.5469 34.8984C36.651 32.5547 36.4688 30.263 36 28.0234C37.5365 28.2578 39.0859 28.3229 40.6484 28.2188C39.6849 31.3438 39.3073 34.5339 39.5156 37.7891C39.4115 38.6224 39.0078 39.1823 38.3047 39.4688C37.8359 39.625 37.3802 39.599 36.9375 39.3906C32.9792 36.7865 29.8021 33.5443 27.4062 29.6641C24.0469 32.3724 20.5703 34.3906 16.9766 35.7188C16.612 34.4688 16.0391 33.3099 15.2578 32.2422C19.2422 30.9922 22.7708 29.1562 25.8438 26.7344C24.1771 23.1406 23.2396 19.2344 23.0312 15.0156H14.5547ZM77.25 27.8281C74.5417 23.9219 71.612 20.1458 68.4609 16.5L71.4688 14.6641C74.6979 18.4141 77.7057 22.2812 80.4922 26.2656L77.25 27.8281ZM63.3438 12.6719C60.9219 9.18229 58.2917 5.8099 55.4531 2.55469L58.5 0.71875C61.4167 4.05208 64.112 7.51562 66.5859 11.1094L63.3438 12.6719ZM57.4844 39.8203C56.0521 39.8203 54.8542 39.3125 53.8906 38.2969C52.9531 37.3073 52.4844 36.0182 52.4844 34.4297V14.4297C52.4844 13.2318 52.3672 12.0599 52.1328 10.9141C53.487 11.0443 54.8411 11.0443 56.1953 10.9141C55.987 12.0599 55.8828 13.2318 55.8828 14.4297V34.4297C55.8828 35.0286 56.026 35.5495 56.3125 35.9922C56.625 36.4349 57.0417 36.6562 57.5625 36.6562H67.3281C67.875 36.6302 68.2266 36.3568 68.3828 35.8359C68.5911 35.3411 68.7344 34.7812 68.8125 34.1562L69.75 28.2578C70.7396 28.9349 71.8333 29.2865 73.0312 29.3125L71.4688 37.9062C71.3385 38.5833 71.0521 39.1302 70.6094 39.5469C70.401 39.7292 70.1406 39.8203 69.8281 39.8203H57.4844ZM49.2031 17.75C47.7188 22.3854 46 26.9688 44.0469 31.5L40.5312 30.4062C42.4323 25.9792 44.112 21.487 45.5703 16.9297L49.2031 17.75ZM102.562 40.0938C101.208 39.9635 99.8542 39.9635 98.5 40.0938C98.7083 36.1615 98.8125 32.2292 98.8125 28.2969V24.8203H85.8047V26.4609H82.4062V9.11719H98.8125V4.35156C98.8125 3.15365 98.7083 1.98177 98.5 0.835938C99.8542 0.966146 101.208 0.966146 102.562 0.835938C102.354 1.98177 102.25 3.15365 102.25 4.35156V9.11719H118.656V26.4609H115.258V24.8203H102.25V28.2969C102.25 32.2292 102.354 36.1615 102.562 40.0938ZM102.25 21.9297H115.258V12.0078H102.25V21.9297ZM98.8125 21.9297V12.0078H85.8047V21.9297H98.8125ZM145.023 36.6562C146.951 36.9167 148.461 36.9557 149.555 36.7734C149.893 36.7214 150.062 36.513 150.062 36.1484V30.9531H135.727L135.766 32.7109C135.844 35.1589 136.026 37.6068 136.312 40.0547C135.01 39.9505 133.708 39.9896 132.406 40.1719C132.536 37.724 132.562 35.276 132.484 32.8281L132.094 20.5234C129.411 23.6224 126.482 26.2266 123.305 28.3359C122.654 27.1901 121.807 26.1875 120.766 25.3281C125.193 22.6198 128.904 19.3125 131.898 15.4062V14.7031C131.951 14.7031 131.964 14.6771 131.938 14.625H132.484C133.37 13.401 134.177 12.138 134.906 10.8359H124.789C123.878 10.8359 122.979 10.9271 122.094 11.1094C122.198 10.0677 122.198 9.02604 122.094 7.98438C122.979 8.14062 123.878 8.21875 124.789 8.21875H136.234C137.224 6.03125 137.979 3.76562 138.5 1.42188C139.854 1.99479 141.234 2.42448 142.641 2.71094C141.885 4.61198 141.065 6.44792 140.18 8.21875H148.734C152.536 8.21875 156.352 8.14062 160.18 7.98438C160.076 9.02604 160.076 10.0677 160.18 11.1094C156.378 10.9271 152.562 10.8359 148.734 10.8359H138.773C138.044 12.138 137.276 13.401 136.469 14.625H153.383V35.7188C153.383 37.5677 152.94 38.8307 152.055 39.5078C151.169 40.2109 149.711 40.5234 147.68 40.4453L145.258 40.4062C145.336 39.1302 145.258 37.8802 145.023 36.6562ZM150.062 21.6562V17.2422H135.258L135.414 21.6562H150.062ZM150.062 28.3359V24.2734H135.492L135.609 28.3359H150.062ZM200.219 17.2422C200.062 18.6224 200.062 19.9896 200.219 21.3438C196.286 21.1094 192.341 20.9922 188.383 20.9922H164.477C163.279 20.9922 162.094 21.1094 160.922 21.3438C161.078 19.9896 161.078 18.6224 160.922 17.2422C162.094 17.4766 163.279 17.5938 164.477 17.5938H188.383C192.341 17.5938 196.286 17.4766 200.219 17.2422ZM236.078 37.5938C232.875 35.1458 229.529 32.8542 226.039 30.7188L228.109 28.3359C231.729 30.5234 235.193 32.8802 238.5 35.4062L236.078 37.5938ZM223.305 35.3281C223.305 36.7865 222.927 37.8802 222.172 38.6094C221.052 39.5208 219.203 39.8724 216.625 39.6641H215.766C215.844 38.362 215.753 37.0599 215.492 35.7578C217.133 36.1224 218.5 36.2526 219.594 36.1484C219.906 36.1224 220.062 35.9531 220.062 35.6406V27.9062H213.031C213.969 28.7917 214.984 29.5729 216.078 30.25C212.432 34.1302 208.591 36.9167 204.555 38.6094C204.216 37.5417 203.708 36.5781 203.031 35.7188C205.193 35.0677 207.12 34.0651 208.812 32.7109C210.505 31.3307 211.898 29.7292 212.992 27.9062H209.281C208.422 27.9062 207.562 27.9844 206.703 28.1406C206.807 27.151 206.807 26.1615 206.703 25.1719C207.562 25.3281 208.422 25.4062 209.281 25.4062H220.062C220.115 23.7135 220.01 22.112 219.75 20.6016C221.026 20.7578 222.315 20.7578 223.617 20.6016C223.331 22.112 223.227 23.7135 223.305 25.4062H227.289C230.232 25.4062 233.188 25.3281 236.156 25.1719C236.052 26.1615 236.052 27.151 236.156 28.1406C233.188 27.9844 230.232 27.9062 227.289 27.9062H223.305V35.3281ZM214.906 1.69531C216.13 2.08594 217.393 2.33333 218.695 2.4375C218.409 3.53125 218.044 4.59896 217.602 5.64062H233.188C230.531 9.02604 227.523 12.099 224.164 14.8594C228.904 17.5156 234.242 19.2865 240.18 20.1719C239.06 21.1875 238.396 22.4375 238.188 23.9219C232.068 22.8802 226.469 20.5755 221.391 17.0078C215.974 20.9401 210.049 23.8828 203.617 25.8359C202.836 24.3255 201.82 22.9844 200.57 21.8125C207.185 21.0573 213.227 18.7786 218.695 14.9766C217.211 13.7786 215.766 12.4505 214.359 10.9922C212.432 13.362 210.128 15.224 207.445 16.5781C207.029 15.5365 206.456 14.599 205.727 13.7656C208.174 12.8802 210.219 11.3438 211.859 9.15625C213.526 6.94271 214.542 4.45573 214.906 1.69531ZM221.234 13.0625C223.057 11.5521 224.724 9.91146 226.234 8.14062H216.312L216.039 8.64844C217.576 10.263 219.307 11.7344 221.234 13.0625ZM266.43 35.9141C268.279 36.1484 269.776 36.1745 270.922 35.9922C271.443 35.9401 271.716 35.6536 271.742 35.1328V7.59375H257.719C256.781 7.59375 255.844 7.6849 254.906 7.86719C255.01 6.77344 255.01 5.67969 254.906 4.58594C255.844 4.76823 256.781 4.85938 257.719 4.85938H272.562C275.115 4.85938 277.654 4.76823 280.18 4.58594C280.076 5.67969 280.076 6.77344 280.18 7.86719C278.487 7.76302 276.794 7.6849 275.102 7.63281L275.062 35.875C274.88 38.0365 273.852 39.2865 271.977 39.625C270.492 39.8073 269.06 39.8333 267.68 39.7031H266.703C266.781 38.4271 266.69 37.1641 266.43 35.9141ZM259.32 30.1719H256V12.8672H268.031V30.1719H264.672V26.9688H259.32V30.1719ZM264.672 24.2344V15.6016H259.32V24.2344H264.672ZM247.445 37.3594C245.831 36.6562 244.086 36.0964 242.211 35.6797L245.141 29.6641L251.703 15.6016L254.555 17.3203L249.75 31.1094L247.445 37.3594ZM249.32 15.9141L245.766 17.75L240.883 12.7109L244.477 10.9141L249.32 15.9141ZM250.18 10.5625C248.852 8.45312 247.302 6.51302 245.531 4.74219L249.086 2.86719C250.987 4.82031 252.68 6.94271 254.164 9.23438L250.18 10.5625ZM26.7812 120.094C25.4531 119.964 24.112 119.964 22.7578 120.094C23.0964 116.474 23.2135 112.698 23.1094 108.766H14.125C13.1875 108.766 12.25 108.857 11.3125 109.039C11.4167 107.945 11.4167 106.852 11.3125 105.758C12.25 105.94 13.1875 106.031 14.125 106.031H23.1094V101.383H15.8047C14.8672 101.383 13.9297 101.474 12.9922 101.656C13.0964 100.562 13.0964 99.4688 12.9922 98.375C13.9297 98.5573 14.8672 98.6484 15.8047 98.6484H29.5547C31.9505 98.6484 34.3333 98.5573 36.7031 98.375C36.5729 99.4688 36.5729 100.562 36.7031 101.656C34.3073 101.474 31.9245 101.383 29.5547 101.383H26.4297V106.031H31.4688C34.3594 106.031 37.25 105.94 40.1406 105.758C40.0365 106.852 40.0365 107.945 40.1406 109.039C37.25 108.857 34.3594 108.766 31.4688 108.766H26.4297C26.3516 112.698 26.4688 116.474 26.7812 120.094ZM7.44531 106.266V92.8281H30.6484C33.7474 92.8281 36.8464 92.737 39.9453 92.5547C39.8411 93.6484 39.8411 94.7422 39.9453 95.8359C36.8464 95.6536 33.7474 95.5625 30.6484 95.5625H10.8047V106.266C10.8047 109.469 10.1536 112.281 8.85156 114.703C7.57552 117.151 5.86979 119.091 3.73438 120.523C3.16146 119.299 2.39323 118.206 1.42969 117.242C5.4401 115.576 7.44531 111.917 7.44531 106.266ZM37.1328 91.4609C35.7526 91.3307 34.3724 91.3307 32.9922 91.4609C33.0964 91.0443 33.1745 90.6406 33.2266 90.25H7.44531V85.9141C7.44531 84.8724 7.32812 83.8307 7.09375 82.7891C8.47396 82.9193 9.85417 82.9193 11.2344 82.7891C10.9479 84.2995 10.8438 85.901 10.9219 87.5938H19.9453V83.8438C19.9453 82.8021 19.8411 81.7604 19.6328 80.7188C21.013 80.849 22.3932 80.849 23.7734 80.7188C23.5391 81.7604 23.4219 82.8021 23.4219 83.8438V87.5938H33.3047C33.3828 85.901 33.2786 84.2995 32.9922 82.7891C34.3724 82.9193 35.7526 82.9193 37.1328 82.7891C36.7943 84.6641 36.6771 86.6693 36.7812 88.8047C36.7812 89.6901 36.8984 90.5755 37.1328 91.4609ZM46.9766 120.016H43.6172V82.75L77.4453 82.7891V118.531H74.0859V116.109H46.9766V120.016ZM61.8203 113.375H74.0859V100.758H61.8203V113.375ZM58.4609 113.375V100.758H46.9766V113.375H58.4609ZM61.8203 98.0234H74.0859V85.5234H61.8203V98.0234ZM58.4609 98.0234V85.5234H46.9766V98.0234H58.4609ZM120.18 114.195C120.076 115.419 120.076 116.63 120.18 117.828C116.247 117.646 112.315 117.555 108.383 117.555H84.0859C83.0182 117.555 81.9766 117.646 80.9609 117.828C81.0651 116.63 81.0651 115.419 80.9609 114.195C81.9766 114.404 83.0182 114.508 84.0859 114.508H97.2109V84.3906C97.2109 83.1927 97.0938 82.0078 96.8594 80.8359C98.2396 80.9661 99.6198 80.9661 101 80.8359C100.792 82.0078 100.688 83.1927 100.688 84.3906V92.8281H110.688C112.406 92.8281 114.112 92.724 115.805 92.5156C115.701 93.7396 115.701 94.9635 115.805 96.1875C114.112 95.9792 112.406 95.875 110.688 95.875H100.688V114.508H108.383C112.315 114.508 116.247 114.404 120.18 114.195ZM145.023 116.656C146.951 116.917 148.461 116.956 149.555 116.773C149.893 116.721 150.062 116.513 150.062 116.148V110.953H135.727L135.766 112.711C135.844 115.159 136.026 117.607 136.312 120.055C135.01 119.951 133.708 119.99 132.406 120.172C132.536 117.724 132.562 115.276 132.484 112.828L132.094 100.523C129.411 103.622 126.482 106.227 123.305 108.336C122.654 107.19 121.807 106.188 120.766 105.328C125.193 102.62 128.904 99.3125 131.898 95.4062V94.7031C131.951 94.7031 131.964 94.6771 131.938 94.625H132.484C133.37 93.401 134.177 92.138 134.906 90.8359H124.789C123.878 90.8359 122.979 90.9271 122.094 91.1094C122.198 90.0677 122.198 89.026 122.094 87.9844C122.979 88.1406 123.878 88.2188 124.789 88.2188H136.234C137.224 86.0312 137.979 83.7656 138.5 81.4219C139.854 81.9948 141.234 82.4245 142.641 82.7109C141.885 84.612 141.065 86.4479 140.18 88.2188H148.734C152.536 88.2188 156.352 88.1406 160.18 87.9844C160.076 89.026 160.076 90.0677 160.18 91.1094C156.378 90.9271 152.562 90.8359 148.734 90.8359H138.773C138.044 92.138 137.276 93.401 136.469 94.625H153.383V115.719C153.383 117.568 152.94 118.831 152.055 119.508C151.169 120.211 149.711 120.523 147.68 120.445L145.258 120.406C145.336 119.13 145.258 117.88 145.023 116.656ZM150.062 101.656V97.2422H135.258L135.414 101.656H150.062ZM150.062 108.336V104.273H135.492L135.609 108.336H150.062ZM200.219 97.2422C200.062 98.6224 200.062 99.9896 200.219 101.344C196.286 101.109 192.341 100.992 188.383 100.992H164.477C163.279 100.992 162.094 101.109 160.922 101.344C161.078 99.9896 161.078 98.6224 160.922 97.2422C162.094 97.4766 163.279 97.5938 164.477 97.5938H188.383C192.341 97.5938 196.286 97.4766 200.219 97.2422ZM231.117 120.094C229.919 119.964 228.734 119.964 227.562 120.094C227.745 117.203 227.836 114.312 227.836 111.422V108.102H222.523C221.846 108.102 221.156 108.167 220.453 108.297C220.531 107.49 220.531 106.682 220.453 105.875C221.156 106.005 221.846 106.07 222.523 106.07H227.836V99.8984H224.086C223.383 99.8984 222.68 99.9635 221.977 100.094C222.081 99.2865 222.081 98.4792 221.977 97.6719C222.68 97.8021 223.383 97.8672 224.086 97.8672H227.836V92.4766H218.969V99.7031H211.273C211.091 101.031 210.818 102.294 210.453 103.492H219.32V118.531H216.352V116.227H210.531V120.016H207.523V109.352C206.456 110.836 205.167 112.125 203.656 113.219C203.083 112.177 202.341 111.253 201.43 110.445C205.31 108.362 207.589 104.781 208.266 99.7031C206.703 99.625 205.245 99.6901 203.891 99.8984C203.969 99.0911 203.969 98.2839 203.891 97.4766C205.297 97.6849 206.82 97.75 208.461 97.6719L208.5 92.4766H204.359C203.656 92.4766 202.953 92.5417 202.25 92.6719C202.354 91.8646 202.354 91.0573 202.25 90.25C202.953 90.3802 203.656 90.4453 204.359 90.4453H208.5V85.9141C206.833 85.8359 205.271 85.901 203.812 86.1094C203.891 85.3021 203.891 84.4948 203.812 83.6875C204.49 83.8177 205.18 83.8828 205.883 83.8828H218.969V90.4453H229.32C229.164 90.3672 228.995 90.3021 228.812 90.25C230.948 88.1146 232.211 85.263 232.602 81.6953C233.721 82.0599 234.88 82.3203 236.078 82.4766C235.062 85.4974 233.812 88.1536 232.328 90.4453H234.164C235.883 90.4453 237.615 90.3802 239.359 90.25C239.281 91.0573 239.281 91.8646 239.359 92.6719C237.615 92.5417 235.883 92.4766 234.164 92.4766H230.844V97.8672H233.305C234.945 97.8672 236.586 97.8021 238.227 97.6719C238.122 98.4792 238.122 99.2865 238.227 100.094C236.586 99.9635 234.945 99.8984 233.305 99.8984H230.844V106.07H234.203C236.182 106.07 238.161 106.005 240.141 105.875C240.036 106.682 240.036 107.49 240.141 108.297C238.161 108.167 236.182 108.102 234.203 108.102H230.844V111.422C230.844 114.312 230.935 117.203 231.117 120.094ZM225.531 89.3906C224.385 87.3073 223.031 85.3151 221.469 83.4141L224.164 81.8906C225.831 83.8958 227.289 86.0052 228.539 88.2188L225.531 89.3906ZM216.352 105.523H210.531V114.391H216.352V105.523ZM211.43 97.6719H215.961V92.4766H211.469L211.43 97.6719ZM211.469 90.4453H215.961V85.9141H211.469V90.4453ZM258.344 82.0469C259.88 82.2031 261.43 82.2031 262.992 82.0469C263.018 84.8594 262.823 87.75 262.406 90.7188C262.979 96.8646 264.984 102.242 268.422 106.852C271.625 111.018 275.753 114.378 280.805 116.93C279.32 117.607 278.214 118.674 277.484 120.133C269.229 115.68 263.63 108.44 260.688 98.4141C258.734 105.055 255.753 110.432 251.742 114.547C249.242 117.125 246.365 119.169 243.109 120.68C242.589 119.352 241.859 118.154 240.922 117.086C244.099 115.758 246.924 113.844 249.398 111.344C251.872 108.844 253.839 106.044 255.297 102.945C256.755 99.8203 257.745 96.4609 258.266 92.8672C258.812 89.2474 258.839 85.6406 258.344 82.0469ZM12.6016 195.875C14.5286 196.135 16.0911 196.161 17.2891 195.953C17.8099 195.875 18.0833 195.576 18.1094 195.055V183.844H12.25C11.5469 190.901 8.78646 196.422 3.96875 200.406C3.23958 199.234 2.34115 198.219 1.27344 197.359C5.67448 194.677 8.20052 190.172 8.85156 183.844H5.21875C4.20312 183.844 3.21354 183.948 2.25 184.156C2.35417 182.984 2.35417 181.826 2.25 180.68C3.21354 180.888 4.20312 180.992 5.21875 180.992H9.00781L9.04688 174.508C6.98958 174.43 5.08854 174.521 3.34375 174.781C3.44792 173.635 3.44792 172.49 3.34375 171.344C5.08854 171.63 6.98958 171.721 9.04688 171.617V165.562C6.98958 165.484 5.08854 165.589 3.34375 165.875C3.44792 164.703 3.44792 163.544 3.34375 162.398C4.30729 162.607 5.29688 162.711 6.3125 162.711H21.5078V195.836C21.3776 197.398 20.7786 198.518 19.7109 199.195C18.9297 199.586 18.1745 199.794 17.4453 199.82L12.8359 199.742C12.9401 198.44 12.862 197.151 12.6016 195.875ZM18.1094 180.992V174.508H12.4453L12.4062 180.992H18.1094ZM12.4453 171.617H18.1094V165.562H12.4453V171.617ZM33.2656 195.367C32.849 194.117 32.2891 193.01 31.5859 192.047L34.5547 190.953C36.2734 190.302 37.1328 189.404 37.1328 188.258C37.1328 185.836 36.5729 183.583 35.4531 181.5C34.3333 179.417 32.8229 177.802 30.9219 176.656L35.2188 165.25H28.2656L28.3047 189.078C28.3047 192.776 28.4089 196.448 28.6172 200.094C27.3672 199.964 26.1042 199.964 24.8281 200.094C25.0365 196.448 25.1406 192.789 25.1406 189.117L25.1016 162.047H39.125V165.289C38.6562 165.732 38.2917 166.266 38.0312 166.891L34.5547 176.148C36.4036 177.477 37.849 179.221 38.8906 181.383C39.9583 183.518 40.4922 185.823 40.4922 188.297C40.4922 190.771 38.6693 192.893 35.0234 194.664C34.4505 194.951 33.8646 195.185 33.2656 195.367ZM59.8672 182.438H44.9844C44.0208 182.438 43.0703 182.529 42.1328 182.711C42.263 181.617 42.263 180.523 42.1328 179.43C43.0703 179.612 44.0208 179.703 44.9844 179.703H68.2266C71.9766 179.703 75.7266 179.612 79.4766 179.43C79.3464 180.523 79.3464 181.617 79.4766 182.711C75.7266 182.529 71.9766 182.438 68.2266 182.438H63.2266V186.812H71.4688C72.9271 186.812 74.3854 186.721 75.8438 186.539C75.7135 187.633 75.7135 188.74 75.8438 189.859C74.3854 189.677 72.9271 189.586 71.4688 189.586H63.2266V195.211C65.5443 195.497 67.7188 195.667 69.75 195.719C71.7812 195.797 75.0365 195.836 79.5156 195.836C78.526 196.982 78.0182 198.31 77.9922 199.82C75.7786 199.69 73.2917 199.56 70.5312 199.43C67.7708 199.299 65.7396 199.156 64.4375 199C58.474 198.349 54.125 196.526 51.3906 193.531C49.5156 196.839 46.625 199.247 42.7188 200.758C42.4583 199.638 42.0026 198.609 41.3516 197.672C43.1224 197.229 44.6979 196.409 46.0781 195.211C48.6042 193.049 49.6979 189.898 49.3594 185.758C49.3333 184.977 49.3203 184.404 49.3203 184.039C50.6484 183.935 51.9505 183.688 53.2266 183.297C53.2266 185.849 53.0573 187.984 52.7188 189.703C54.2292 192.229 56.612 193.87 59.8672 194.625V182.438ZM50.7656 175.133H47.3672V161.5H74.2031V175.133H70.8047V173.883H50.7656V175.133ZM70.8047 166.539V163.883H50.7656V166.539H70.8047ZM70.8047 168.922H50.7656V171.5H70.8047V168.922ZM101.352 187.945V195.797C101.352 196.812 101.143 197.568 100.727 198.062C100.336 198.557 99.9453 198.909 99.5547 199.117C99.1641 199.352 98.7083 199.495 98.1875 199.547C97.6927 199.625 97.263 199.664 96.8984 199.664L92.9922 199.586C93.0964 198.388 93.0182 197.216 92.7578 196.07L96.3516 196.305L97.6406 196.539C98.0573 196.565 98.2656 196.37 98.2656 195.953V190.172H93.7344C92.901 192.828 91.4818 195.055 89.4766 196.852C87.4714 198.674 85.1536 199.924 82.5234 200.602C82.3932 199.586 82.0807 198.648 81.5859 197.789C83.2526 197.555 84.776 196.969 86.1562 196.031C88.1354 194.703 89.4245 192.75 90.0234 190.172C88.2005 190.094 86.5078 190.159 84.9453 190.367C85.0495 189.482 85.0495 188.596 84.9453 187.711C86.612 187.945 88.4089 188.023 90.3359 187.945C90.388 187.242 90.4141 186.357 90.4141 185.289C91.7943 185.315 93.1484 185.198 94.4766 184.938C94.4766 185.979 94.3984 186.982 94.2422 187.945H101.352ZM120.141 182.438C120.036 183.323 120.036 184.208 120.141 185.094C116.339 184.938 112.536 184.859 108.734 184.859H104.672C104.62 184.911 104.581 184.911 104.555 184.859H84.5547C83.7734 184.859 83.0052 184.938 82.25 185.094C82.3542 184.208 82.3542 183.323 82.25 182.438C83.0052 182.568 83.7734 182.633 84.5547 182.633H94.7109L92.5625 180.328L94.1641 179.312H88.6953V172.438H113.461V179.312H108.344C108.812 179.521 109.281 179.716 109.75 179.898C109.021 180.94 108.253 181.852 107.445 182.633H108.734C112.536 182.633 116.339 182.568 120.141 182.438ZM114.867 168.805C114.763 169.69 114.763 170.576 114.867 171.461C111.977 171.331 109.099 171.266 106.234 171.266H88.5C87.7188 171.266 86.9505 171.331 86.1953 171.461C86.2734 170.576 86.2734 169.69 86.1953 168.805C86.9505 168.961 87.7188 169.039 88.5 169.039H99.3984V166.344H86.3125C85.5312 166.344 84.763 166.422 84.0078 166.578C84.112 165.693 84.112 164.807 84.0078 163.922C84.763 164.052 85.5312 164.117 86.3125 164.117H99.3984C99.3984 163.023 99.2943 161.93 99.0859 160.836C100.31 160.966 101.547 160.966 102.797 160.836C102.589 161.93 102.484 163.023 102.484 164.117H108.617C112.159 164.117 115.688 164.052 119.203 163.922C119.099 164.807 119.099 165.693 119.203 166.578C115.688 166.422 112.159 166.344 108.617 166.344H102.484V169.039H106.234C109.099 169.039 111.977 168.961 114.867 168.805ZM107.406 189.234V195.094H114.477V189.234H107.406ZM104.32 187.008H117.602V197.32H104.32V187.008ZM102.992 182.633L102.719 182.398C104.229 181.93 105.349 180.901 106.078 179.312H95.9219L98.7734 182.398L98.4219 182.633H102.992ZM91.7812 174.664V177.047H110.336V174.664H91.7812ZM160.18 194.664C160.076 195.758 160.076 196.852 160.18 197.945C156.247 197.763 152.315 197.672 148.383 197.672H123.773C122.836 197.672 121.898 197.763 120.961 197.945C121.065 196.852 121.065 195.758 120.961 194.664C121.898 194.846 122.836 194.938 123.773 194.938H148.383C152.315 194.938 156.247 194.846 160.18 194.664ZM153.969 182.516C153.839 183.609 153.839 184.703 153.969 185.797C151.104 185.615 148.24 185.523 145.375 185.523H128.305C127.341 185.523 126.391 185.615 125.453 185.797C125.583 184.703 125.583 183.609 125.453 182.516C126.391 182.698 127.341 182.789 128.305 182.789H145.375C148.24 182.789 151.104 182.698 153.969 182.516ZM157.719 171.383C157.615 172.477 157.615 173.57 157.719 174.664C154.307 174.482 150.896 174.391 147.484 174.391H126.586C125.622 174.391 124.672 174.482 123.734 174.664C123.865 173.57 123.865 172.477 123.734 171.383C124.672 171.565 125.622 171.656 126.586 171.656H142.758C145.128 169.365 146.625 166.096 147.25 161.852C148.5 162.294 149.789 162.607 151.117 162.789C150.023 165.992 148.604 168.948 146.859 171.656H147.484C150.896 171.656 154.307 171.565 157.719 171.383ZM133.852 170.992C131.638 168.076 129.216 165.289 126.586 162.633L129.438 160.68C132.172 163.44 134.685 166.331 136.977 169.352L133.852 170.992ZM187.562 196.07C189.047 196.201 190.128 196.266 190.805 196.266C191.482 196.266 192.042 196.279 192.484 196.305C192.927 196.357 193.279 196.383 193.539 196.383C193.826 196.409 194.112 196.396 194.398 196.344C194.971 196.292 195.258 195.966 195.258 195.367V171.734H186.391C185.193 174.625 183.839 177.177 182.328 179.391L185.219 177.828C187.432 180.615 189.438 183.505 191.234 186.5L188.07 187.789C186.352 184.924 184.424 182.151 182.289 179.469C181.534 180.589 180.701 181.656 179.789 182.672C179.242 182.125 178.656 181.643 178.031 181.227V199.508H174.828V197.242H166.039V200.016H162.875V170.133H167.484C169.281 168.049 170.18 165.328 170.18 161.969C171.43 162.229 172.68 162.359 173.93 162.359C173.409 165.172 172.471 167.763 171.117 170.133H178.031V179.078C180.089 176.786 181.768 174.182 183.07 171.266C184.398 168.349 185.128 165.185 185.258 161.773C186.612 162.112 187.992 162.307 189.398 162.359C188.799 164.833 188.096 167.151 187.289 169.312H198.461V194.82C198.461 196.617 198.188 197.828 197.641 198.453C197.12 199.104 196.495 199.534 195.766 199.742C195.036 199.951 194.346 200.042 193.695 200.016L189.203 199.625H187.875C187.979 198.427 187.875 197.242 187.562 196.07ZM174.828 182.477V172.516H166.039V182.477H174.828ZM174.828 184.898H166.039V194.82H174.828V184.898ZM226.43 195.914C228.279 196.148 229.776 196.174 230.922 195.992C231.443 195.94 231.716 195.654 231.742 195.133V167.594H217.719C216.781 167.594 215.844 167.685 214.906 167.867C215.01 166.773 215.01 165.68 214.906 164.586C215.844 164.768 216.781 164.859 217.719 164.859H232.562C235.115 164.859 237.654 164.768 240.18 164.586C240.076 165.68 240.076 166.773 240.18 167.867C238.487 167.763 236.794 167.685 235.102 167.633L235.062 195.875C234.88 198.036 233.852 199.286 231.977 199.625C230.492 199.807 229.06 199.833 227.68 199.703H226.703C226.781 198.427 226.69 197.164 226.43 195.914ZM219.32 190.172H216V172.867H228.031V190.172H224.672V186.969H219.32V190.172ZM224.672 184.234V175.602H219.32V184.234H224.672ZM207.445 197.359C205.831 196.656 204.086 196.096 202.211 195.68L205.141 189.664L211.703 175.602L214.555 177.32L209.75 191.109L207.445 197.359ZM209.32 175.914L205.766 177.75L200.883 172.711L204.477 170.914L209.32 175.914ZM210.18 170.562C208.852 168.453 207.302 166.513 205.531 164.742L209.086 162.867C210.987 164.82 212.68 166.943 214.164 169.234L210.18 170.562ZM273.812 199.664C272.38 199.664 271.221 199.221 270.336 198.336C269.477 197.451 269.047 196.292 269.047 194.859V184.156C269.047 183.036 268.93 181.93 268.695 180.836C269.997 180.966 271.299 180.966 272.602 180.836C272.393 181.93 272.289 183.036 272.289 184.156V194.859C272.289 195.38 272.432 195.836 272.719 196.227C273.031 196.617 273.409 196.812 273.852 196.812L276.664 196.773C276.898 196.773 277.055 196.695 277.133 196.539C277.263 196.018 277.328 195.471 277.328 194.898L278.188 190.406C279.151 190.979 280.193 191.305 281.312 191.383L279.984 197.281L279.789 198.883C279.711 199.352 279.438 199.612 278.969 199.664H273.812ZM265.492 200.094C264.19 199.964 262.888 199.964 261.586 200.094C261.794 198.193 261.898 196.279 261.898 194.352V184.469C261.898 183.349 261.794 182.229 261.586 181.109C262.888 181.266 264.19 181.266 265.492 181.109C265.258 182.229 265.141 183.349 265.141 184.469V194.352C265.141 196.279 265.258 198.193 265.492 200.094ZM255.453 188.57V184.469C255.453 183.349 255.349 182.229 255.141 181.109C256.443 181.266 257.745 181.266 259.047 181.109C258.812 182.229 258.695 183.349 258.695 184.469V188.57C258.695 191.174 258.018 193.544 256.664 195.68C255.336 197.815 253.591 199.443 251.43 200.562C251.013 199.312 250.401 198.18 249.594 197.164C251.339 196.695 252.745 195.693 253.812 194.156C254.906 192.646 255.453 190.784 255.453 188.57ZM277.641 166.031C277.536 167.021 277.536 168.01 277.641 169C275.297 168.844 272.953 168.766 270.609 168.766H264.281C264.75 169.052 265.232 169.312 265.727 169.547L264.789 170.562C263.044 172.438 261.365 174.352 259.75 176.305L269.516 175.289C268.604 174.221 267.654 173.18 266.664 172.164L269.438 170.289C271.781 172.711 273.917 175.25 275.844 177.906L272.797 179.43L271.352 177.516L269.711 177.555L254.672 179.43L254.359 176.93C254.958 176.956 255.401 176.839 255.688 176.578L258.148 174.352C259.763 172.919 260.948 171.474 261.703 170.016C261.885 169.625 262.042 169.208 262.172 168.766H256.898C256.039 168.766 255.18 168.844 254.32 169C254.424 168.01 254.424 167.021 254.32 166.031C255.18 166.188 256.039 166.266 256.898 166.266H263.031L259.789 162.516L262.68 160.758L266.82 165.562L265.648 166.266H270.609C272.953 166.266 275.297 166.188 277.641 166.031ZM246.82 197.359C245.362 196.656 243.786 196.096 242.094 195.68L244.75 189.664L250.688 175.602L253.266 177.32L248.891 191.109L246.82 197.359ZM248.539 175.914L245.297 177.75L240.922 172.711L244.125 170.914L248.539 175.914ZM249.281 170.562C248.083 168.453 246.69 166.513 245.102 164.742L248.305 162.867C250.023 164.82 251.547 166.943 252.875 169.234L249.281 170.562ZM34.2031 250.484C32.4062 248.479 30.4401 246.617 28.3047 244.898L30.7656 242.75C33.0573 244.573 35.1536 246.552 37.0547 248.688L34.2031 250.484ZM14.5547 255.016V259.859L21.7031 257.516L21.9766 259.977L14.5547 262.75L14.5156 275.953C14.4115 277.776 13.6172 278.948 12.1328 279.469C10.987 279.859 9.67188 279.951 8.1875 279.742L5.45312 279.664C5.55729 278.414 5.46615 277.19 5.17969 275.992C7.41927 276.305 9.1901 276.331 10.4922 276.07C11.013 275.992 11.2865 275.693 11.3125 275.172V264.039C8.13542 265.367 5.08854 266.852 2.17188 268.492C1.83333 267.19 1.35156 265.953 0.726562 264.781L6.97656 262.477L11.3125 260.953V255.016H3.77344C2.91406 255.016 2.05469 255.094 1.19531 255.25C1.29948 254.26 1.29948 253.271 1.19531 252.281C2.05469 252.438 2.91406 252.516 3.77344 252.516H11.3125V247.945C8.63021 248.727 5.92188 249.13 3.1875 249.156C3.26562 248.062 3.14844 246.982 2.83594 245.914C5.70052 246.148 8.46094 245.784 11.1172 244.82C13.7995 243.831 16.1823 242.411 18.2656 240.562C18.9427 241.682 19.7109 242.711 20.5703 243.648C18.6432 244.898 16.638 245.953 14.5547 246.812V252.516H22.9922L22.6797 241.578C23.9818 241.708 25.2839 241.708 26.5859 241.578L26.2734 252.516H28.1875C32.0417 252.516 35.9089 252.438 39.7891 252.281C39.6849 253.271 39.6849 254.26 39.7891 255.25C35.9089 255.094 32.0417 255.016 28.1875 255.016H26.3125C26.4688 258.427 27.1589 261.591 28.3828 264.508C30.5703 262.346 32.3411 259.911 33.6953 257.203C34.8151 258.089 36.013 258.857 37.2891 259.508C34.8932 262.555 32.4323 265.237 29.9062 267.555C31.625 270.419 33.8385 272.867 36.5469 274.898C36.651 272.555 36.4688 270.263 36 268.023C37.5365 268.258 39.0859 268.323 40.6484 268.219C39.6849 271.344 39.3073 274.534 39.5156 277.789C39.4115 278.622 39.0078 279.182 38.3047 279.469C37.8359 279.625 37.3802 279.599 36.9375 279.391C32.9792 276.786 29.8021 273.544 27.4062 269.664C24.0469 272.372 20.5703 274.391 16.9766 275.719C16.612 274.469 16.0391 273.31 15.2578 272.242C19.2422 270.992 22.7708 269.156 25.8438 266.734C24.1771 263.141 23.2396 259.234 23.0312 255.016H14.5547ZM63.3438 279.859C61.8854 279.859 60.6615 279.365 59.6719 278.375C58.7083 277.411 58.2266 276.161 58.2266 274.625V256.773L73.8125 256.812V247.438H60.4922C59.4505 247.438 58.4089 247.542 57.3672 247.75C57.4974 246.526 57.4974 245.315 57.3672 244.117C58.4089 244.299 59.4505 244.391 60.4922 244.391H77.2891V260.953H73.8125V259.82H61.7031L61.6641 274.625C61.6641 275.172 61.8203 275.641 62.1328 276.031C62.4714 276.422 62.888 276.617 63.3828 276.617H74.4375C75.2708 276.617 75.8177 275.914 76.0781 274.508L77.0547 269.547C78.0703 270.172 79.1771 270.536 80.375 270.641L78.9688 277.203C78.6302 278.974 77.9531 279.859 76.9375 279.859H63.3438ZM40.9609 257.672C41.0651 256.37 41.0651 255.081 40.9609 253.805C41.8724 254.013 42.7969 254.117 43.7344 254.117H49.2422V272.047L52.875 267.125L54.0469 264.664L56.1562 267.555L54.75 268.961L47.9531 279.039L45.7656 276.891C46.1042 276.214 46.2734 275.471 46.2734 274.664V257.32C44.3724 257.242 42.6016 257.359 40.9609 257.672ZM48.5 249.234C47.1719 246.891 45.5964 244.807 43.7734 242.984L46.1172 240.719C48.2005 242.828 49.9453 245.133 51.3516 247.633L48.5 249.234ZM96.8984 268.766C96.013 268.766 95.1146 268.844 94.2031 269C94.3333 267.958 94.3333 266.917 94.2031 265.875C95.1146 266.057 96.013 266.148 96.8984 266.148H110.297V262.828H99.3203C98.4089 262.828 97.5104 262.919 96.625 263.102C96.7292 262.06 96.7292 261.005 96.625 259.938C97.5104 260.12 98.4089 260.211 99.3203 260.211H111.859C114.073 260.211 116.273 260.12 118.461 259.938C118.331 260.979 118.331 262.034 118.461 263.102C116.846 262.971 115.232 262.88 113.617 262.828V266.148C115.805 266.122 117.992 266.031 120.18 265.875C120.076 266.917 120.076 267.958 120.18 269C117.992 268.87 115.805 268.792 113.617 268.766V275.328C113.617 277.229 113.018 278.492 111.82 279.117C110.727 279.664 109.359 279.872 107.719 279.742L105.219 279.703C105.323 278.427 105.245 277.177 104.984 275.953C106.104 276.057 106.911 276.109 107.406 276.109C107.901 276.109 108.279 276.122 108.539 276.148C108.799 276.201 109.021 276.227 109.203 276.227C109.385 276.253 109.568 276.266 109.75 276.266C110.115 276.24 110.297 276.031 110.297 275.641V268.766H101.742L105.023 273.805L101.859 275.25L98.3047 269.82L100.648 268.766H96.8984ZM102.602 245.016V248.531H112.367V245.016H102.602ZM102.602 251.148V254.742H112.328V251.148H102.602ZM99.2812 242.398H115.688L115.609 257.359H99.2812V242.398ZM92.875 251.383C94.2031 252.034 95.6354 252.568 97.1719 252.984C95.8958 255.146 94.4635 257.203 92.875 259.156V273.258C92.875 275.549 93.0052 277.828 93.2656 280.094C91.6771 279.964 90.0885 279.964 88.5 280.094C88.7865 277.828 88.9297 275.549 88.9297 273.258V263.375C87.263 264.911 85.4792 266.331 83.5781 267.633C82.8229 266.617 81.9115 265.758 80.8438 265.055C84.0729 263.258 86.7682 260.992 88.9297 258.258V257.555H89.4375C90.8438 255.654 91.9896 253.596 92.875 251.383ZM92.0547 241.148C93.3307 241.878 94.724 242.503 96.2344 243.023C93.8385 246.435 90.9479 249.534 87.5625 252.32C86.3125 253.336 85.0104 254.273 83.6562 255.133C82.9271 254.117 82.0417 253.245 81 252.516C86.026 249.911 89.7109 246.122 92.0547 241.148ZM143.5 274.781C143.63 277.646 142.589 279.26 140.375 279.625C138.891 279.807 137.458 279.833 136.078 279.703H135.062C135.141 278.427 135.049 277.164 134.789 275.914C136.768 276.201 138.357 276.227 139.555 275.992C139.919 275.914 140.115 275.68 140.141 275.289V251.812H133.188C132.224 251.812 131.273 251.904 130.336 252.086C130.466 250.992 130.466 249.898 130.336 248.805C131.273 248.987 132.224 249.078 133.188 249.078H143.5V252.047C144.151 254.495 145.076 256.826 146.273 259.039C149.268 257.086 151.69 254.143 153.539 250.211C154.607 250.992 155.753 251.656 156.977 252.203C154.32 256.057 151.326 259.273 147.992 261.852C149.034 263.388 150.206 264.794 151.508 266.07C153.878 268.466 156.977 270.823 160.805 273.141C159.346 273.688 158.227 274.625 157.445 275.953C151.508 272.125 146.859 266.891 143.5 260.25V274.781ZM122.836 259.625C122.94 258.531 122.94 257.438 122.836 256.344C123.773 256.526 124.711 256.617 125.648 256.617H135.805C135.31 260.888 134.047 264.833 132.016 268.453C129.984 272.047 127.445 275.094 124.398 277.594C123.07 276.448 121.586 275.549 119.945 274.898C123.07 273.44 125.701 271.344 127.836 268.609C129.997 265.875 131.391 262.789 132.016 259.352H125.648C124.711 259.352 123.773 259.443 122.836 259.625ZM142.055 247.398C140.466 245.732 138.708 244.195 136.781 242.789L139.164 240.484C141.299 241.995 143.227 243.674 144.945 245.523L142.055 247.398ZM174.672 274.117C176.938 275.654 180.102 276.357 184.164 276.227L199.75 276.109C199.151 276.552 198.669 277.112 198.305 277.789C197.966 278.492 197.823 279.26 197.875 280.094L184.164 280.133C181.221 280.133 178.448 279.508 175.844 278.258C173.24 277.034 171.234 275.445 169.828 273.492L164.828 277.945L163.383 279.469C162.706 278.349 161.924 277.32 161.039 276.383L162.836 275.406L168.188 271.734V259.547H163.695C162.836 259.547 161.977 259.638 161.117 259.82C161.221 258.805 161.221 257.802 161.117 256.812C161.977 256.969 162.836 257.047 163.695 257.047H171.43V271.539C172.211 272.216 172.901 272.789 173.5 273.258C173.057 272.503 172.536 271.812 171.938 271.188C173.5 270.51 174.906 269.508 176.156 268.18C178.526 265.862 179.477 262.398 179.008 257.789C178.904 256.409 178.839 255.536 178.812 255.172H174.633C173.773 255.172 172.914 255.25 172.055 255.406C172.159 254.417 172.159 253.414 172.055 252.398C172.914 252.581 173.773 252.672 174.633 252.672H191.625C194.464 252.672 197.289 252.581 200.102 252.398C199.971 253.414 199.971 254.417 200.102 255.406C197.289 255.25 194.464 255.172 191.625 255.172H189.984C189.854 256.057 189.789 256.956 189.789 257.867V267.438C189.789 267.958 189.932 268.414 190.219 268.805C190.531 269.169 190.922 269.352 191.391 269.352H195.609C195.844 269.352 196.013 269.273 196.117 269.117C196.221 268.961 196.286 268.805 196.312 268.648L196.469 267.203L197.328 262.242C198.292 262.815 199.333 263.128 200.453 263.18L199.164 269.625C199.086 270.745 198.865 271.565 198.5 272.086C198.344 272.19 198.161 272.242 197.953 272.242H191.352C189.919 272.242 188.76 271.799 187.875 270.914C186.99 270.003 186.547 268.844 186.547 267.438V257.867C186.547 256.956 186.482 256.057 186.352 255.172H183.07C182.94 264.729 180.141 271.044 174.672 274.117ZM196.273 243.102C196.169 244.091 196.169 245.081 196.273 246.07C194.19 245.914 192.094 245.836 189.984 245.836H178.031C177.172 245.836 176.312 245.914 175.453 246.07C175.557 245.081 175.557 244.091 175.453 243.102C176.312 243.258 177.172 243.336 178.031 243.336H189.984C192.094 243.336 194.19 243.258 196.273 243.102ZM169.398 250.445C168.07 248.023 166.547 245.693 164.828 243.453L167.797 241.852C169.646 244.195 171.26 246.643 172.641 249.195L169.398 250.445ZM223.344 279.859C221.885 279.859 220.661 279.365 219.672 278.375C218.708 277.411 218.227 276.161 218.227 274.625V256.773L233.812 256.812V247.438H220.492C219.451 247.438 218.409 247.542 217.367 247.75C217.497 246.526 217.497 245.315 217.367 244.117C218.409 244.299 219.451 244.391 220.492 244.391H237.289V260.953H233.812V259.82H221.703L221.664 274.625C221.664 275.172 221.82 275.641 222.133 276.031C222.471 276.422 222.888 276.617 223.383 276.617H234.438C235.271 276.617 235.818 275.914 236.078 274.508L237.055 269.547C238.07 270.172 239.177 270.536 240.375 270.641L238.969 277.203C238.63 278.974 237.953 279.859 236.938 279.859H223.344ZM200.961 257.672C201.065 256.37 201.065 255.081 200.961 253.805C201.872 254.013 202.797 254.117 203.734 254.117H209.242V272.047L212.875 267.125L214.047 264.664L216.156 267.555L214.75 268.961L207.953 279.039L205.766 276.891C206.104 276.214 206.273 275.471 206.273 274.664V257.32C204.372 257.242 202.602 257.359 200.961 257.672ZM208.5 249.234C207.172 246.891 205.596 244.807 203.773 242.984L206.117 240.719C208.201 242.828 209.945 245.133 211.352 247.633L208.5 249.234ZM256.898 268.766C256.013 268.766 255.115 268.844 254.203 269C254.333 267.958 254.333 266.917 254.203 265.875C255.115 266.057 256.013 266.148 256.898 266.148H270.297V262.828H259.32C258.409 262.828 257.51 262.919 256.625 263.102C256.729 262.06 256.729 261.005 256.625 259.938C257.51 260.12 258.409 260.211 259.32 260.211H271.859C274.073 260.211 276.273 260.12 278.461 259.938C278.331 260.979 278.331 262.034 278.461 263.102C276.846 262.971 275.232 262.88 273.617 262.828V266.148C275.805 266.122 277.992 266.031 280.18 265.875C280.076 266.917 280.076 267.958 280.18 269C277.992 268.87 275.805 268.792 273.617 268.766V275.328C273.617 277.229 273.018 278.492 271.82 279.117C270.727 279.664 269.359 279.872 267.719 279.742L265.219 279.703C265.323 278.427 265.245 277.177 264.984 275.953C266.104 276.057 266.911 276.109 267.406 276.109C267.901 276.109 268.279 276.122 268.539 276.148C268.799 276.201 269.021 276.227 269.203 276.227C269.385 276.253 269.568 276.266 269.75 276.266C270.115 276.24 270.297 276.031 270.297 275.641V268.766H261.742L265.023 273.805L261.859 275.25L258.305 269.82L260.648 268.766H256.898ZM262.602 245.016V248.531H272.367V245.016H262.602ZM262.602 251.148V254.742H272.328V251.148H262.602ZM259.281 242.398H275.688L275.609 257.359H259.281V242.398ZM252.875 251.383C254.203 252.034 255.635 252.568 257.172 252.984C255.896 255.146 254.464 257.203 252.875 259.156V273.258C252.875 275.549 253.005 277.828 253.266 280.094C251.677 279.964 250.089 279.964 248.5 280.094C248.786 277.828 248.93 275.549 248.93 273.258V263.375C247.263 264.911 245.479 266.331 243.578 267.633C242.823 266.617 241.911 265.758 240.844 265.055C244.073 263.258 246.768 260.992 248.93 258.258V257.555H249.438C250.844 255.654 251.99 253.596 252.875 251.383ZM252.055 241.148C253.331 241.878 254.724 242.503 256.234 243.023C253.839 246.435 250.948 249.534 247.562 252.32C246.312 253.336 245.01 254.273 243.656 255.133C242.927 254.117 242.042 253.245 241 252.516C246.026 249.911 249.711 246.122 252.055 241.148Z" fill="white"/>
</svg>
