<svg width="381" height="133" viewBox="0 0 381 133" fill="none" xmlns="http://www.w3.org/2000/svg">
<path d="M7.23828 2.03125H43.7617V17.9297H7.23828V2.03125ZM11.5352 8.26172H39.6797V5.46875H11.5352V8.26172ZM11.5352 14.2773H39.6797V11.4844H11.5352V14.2773ZM0.792969 20.9375H50.207V24.375H24.2109V40.2734L27.0039 39.8438L27.6484 43.7109L24.2109 44.1406V49.9414H20.1289V44.7852C14.3997 45.6445 8.16927 46.3607 1.4375 46.9336L0.792969 42.8516L5.08984 42.4219V24.375H0.792969V20.9375ZM9.38672 28.0273H20.1289V24.375H9.38672V28.0273ZM9.38672 34.9023H20.1289V31.0352H9.38672V34.9023ZM9.38672 42.207L20.1289 40.918V37.9102H9.38672V42.207ZM30.2266 32.1094C32.0885 35.1172 34.3086 37.6237 36.8867 39.6289C39.1784 37.0508 40.8971 34.2578 42.043 31.25H27.8633V27.3828H46.7695V31.25C45.0508 35.5469 42.9023 39.1276 40.3242 41.9922C43.332 43.5677 46.6263 44.8568 50.207 45.8594L48.2734 49.9414C44.263 48.7956 40.6107 47.1484 37.3164 45C34.7383 47.0052 31.6589 48.6523 28.0781 49.9414L26.5742 46.2891C29.2956 45.2865 31.7305 43.9974 33.8789 42.4219C31.7305 40.4167 29.7969 38.0534 28.0781 35.332L30.2266 32.1094ZM61.5938 2.24609H99.1914V25.8789H82.4336V32.1094H104.777V36.1914H82.4336V49.9414H78.1367V36.1914H56.2227V32.1094H78.1367V25.8789H61.5938V2.24609ZM65.8906 12.1289H94.8945V6.32812H65.8906V12.1289ZM65.8906 21.7969H94.8945V15.9961H65.8906V21.7969ZM140.441 0.742188L144.738 1.60156C144.022 4.32292 143.091 6.97266 141.945 9.55078H158.703C158.703 28.457 158.059 40.1302 156.77 44.5703C155.767 48.151 153.404 49.9414 149.68 49.9414C147.818 49.9414 145.598 49.6549 143.02 49.082L141.945 44.5703C145.526 45.1432 148.104 45.4297 149.68 45.4297C151.398 45.4297 152.473 44.4271 152.902 42.4219C153.762 38.5547 154.191 28.9583 154.191 13.6328H139.797C138.078 16.6406 136.216 19.1471 134.211 21.1523L130.988 18.1445C135.285 13.418 138.436 7.61719 140.441 0.742188ZM142.16 22.0117C144.309 25.1628 146.099 28.6719 147.531 32.5391L143.449 34.4727C142.017 30.4622 140.227 26.8815 138.078 23.7305L142.16 22.0117ZM130.129 7.61719V46.5039H126.262V44.7852H116.379V48.0078H112.512V7.61719H117.238C117.954 5.32552 118.456 2.96224 118.742 0.527344L123.254 1.38672C122.681 3.67839 122.036 5.75521 121.32 7.61719H130.129ZM126.262 24.1602V11.6992H116.379V24.1602H126.262ZM116.379 28.2422V40.7031H126.262V28.2422H116.379ZM167.512 20.9375H213.273V25.0195H167.512V20.9375ZM230.891 0.527344L235.188 1.81641C233.898 5.82682 232.395 9.76562 230.676 13.6328V49.9414H226.379V21.7969C225.09 23.8021 223.729 25.6641 222.297 27.3828L220.148 23.0859C225.018 15.9245 228.599 8.40495 230.891 0.527344ZM242.277 2.46094L246.359 3.75C245.643 6.1849 244.784 8.54818 243.781 10.8398H251.301V0.527344H255.598V10.8398H268.488V14.9219H255.598V27.5977H270.422V31.6797H255.598V49.9414H251.301V31.6797H234.328V27.5977H251.301V14.9219H242.062C240.487 18.3594 238.697 21.3672 236.691 23.9453L233.039 21.1523C237.193 15.7096 240.272 9.47917 242.277 2.46094ZM285.891 29.1016C283.456 31.1068 280.878 32.8971 278.156 34.4727L275.363 31.0352C283.814 25.7357 289.973 19.5768 293.84 12.5586H277.082V8.47656H298.781C297.922 6.04167 296.919 3.89323 295.773 2.03125L300.285 0.527344C301.861 2.96224 303.007 5.61198 303.723 8.47656H323.918V12.5586H299.641C301.932 18.8607 304.654 24.375 307.805 29.1016C312.245 26.6667 316.255 23.5156 319.836 19.6484L323.059 23.3008C318.905 27.168 314.68 30.2474 310.383 32.5391C315.396 38.5547 320.48 42.7799 325.637 45.2148L323.059 49.9414C311.457 42.9232 302.577 31.8945 296.418 16.8555C295.272 18.7174 294.126 20.293 292.98 21.582L290.402 24.8047V44.1406C290.546 44.1406 290.689 44.069 290.832 43.9258C295.129 42.4935 299.139 41.0612 302.863 39.6289L304.152 43.7109C298.566 46.1458 293.195 48.2227 288.039 49.9414L285.891 47.1484V29.1016ZM331.438 27.8125H353.781C353.495 26.9531 353.137 26.1654 352.707 25.4492L357.004 24.1602C357.577 25.306 358.078 26.5234 358.508 27.8125H378.918V31.6797H358.293C359.582 33.3984 360.799 34.7591 361.945 35.7617L365.168 38.125C367.746 36.5495 369.895 34.9023 371.613 33.1836L375.91 35.7617C373.475 37.6237 371.04 39.1992 368.605 40.4883C371.9 42.4935 375.839 44.2839 380.422 45.8594L377.414 49.7266C366.672 45.4297 358.723 39.5573 353.566 32.1094C351.704 33.6849 349.556 35.1888 347.121 36.6211V45.4297C350.988 44.4271 354.569 43.4245 357.863 42.4219L358.723 45.8594C353.853 47.4349 349.27 48.7956 344.973 49.9414L342.609 47.793V38.9844C339.888 40.4167 336.737 41.7057 333.156 42.8516L330.793 38.7695C338.241 36.6211 343.898 34.2578 347.766 31.6797H331.438V27.8125ZM352.922 0.3125H357.004V7.1875H363.879C365.311 5.32552 366.529 3.39193 367.531 1.38672L372.043 2.67578C370.897 4.39453 369.823 5.89844 368.82 7.1875H378.488V15.3516H374.406V11.0547H336.164V15.5664H332.297V7.1875H341.965C341.105 5.75521 340.103 4.32292 338.957 2.89062L342.395 1.17188C344.113 3.03385 345.546 5.03906 346.691 7.1875H352.922V0.3125ZM340.891 13.418H369.895V25.2344H340.891V13.418ZM344.973 21.3672H365.812V17.0703H344.973V21.3672ZM7.23828 85.0312H43.7617V100.93H7.23828V85.0312ZM11.5352 91.2617H39.6797V88.4688H11.5352V91.2617ZM11.5352 97.2773H39.6797V94.4844H11.5352V97.2773ZM0.792969 103.938H50.207V107.375H24.2109V123.273L27.0039 122.844L27.6484 126.711L24.2109 127.141V132.941H20.1289V127.785C14.3997 128.645 8.16927 129.361 1.4375 129.934L0.792969 125.852L5.08984 125.422V107.375H0.792969V103.938ZM9.38672 111.027H20.1289V107.375H9.38672V111.027ZM9.38672 117.902H20.1289V114.035H9.38672V117.902ZM9.38672 125.207L20.1289 123.918V120.91H9.38672V125.207ZM30.2266 115.109C32.0885 118.117 34.3086 120.624 36.8867 122.629C39.1784 120.051 40.8971 117.258 42.043 114.25H27.8633V110.383H46.7695V114.25C45.0508 118.547 42.9023 122.128 40.3242 124.992C43.332 126.568 46.6263 127.857 50.207 128.859L48.2734 132.941C44.263 131.796 40.6107 130.148 37.3164 128C34.7383 130.005 31.6589 131.652 28.0781 132.941L26.5742 129.289C29.2956 128.286 31.7305 126.997 33.8789 125.422C31.7305 123.417 29.7969 121.053 28.0781 118.332L30.2266 115.109ZM61.5938 85.2461H99.1914V108.879H82.4336V115.109H104.777V119.191H82.4336V132.941H78.1367V119.191H56.2227V115.109H78.1367V108.879H61.5938V85.2461ZM65.8906 95.1289H94.8945V89.3281H65.8906V95.1289ZM65.8906 104.797H94.8945V98.9961H65.8906V104.797ZM140.441 83.7422L144.738 84.6016C144.022 87.3229 143.091 89.9727 141.945 92.5508H158.703C158.703 111.457 158.059 123.13 156.77 127.57C155.767 131.151 153.404 132.941 149.68 132.941C147.818 132.941 145.598 132.655 143.02 132.082L141.945 127.57C145.526 128.143 148.104 128.43 149.68 128.43C151.398 128.43 152.473 127.427 152.902 125.422C153.762 121.555 154.191 111.958 154.191 96.6328H139.797C138.078 99.6406 136.216 102.147 134.211 104.152L130.988 101.145C135.285 96.418 138.436 90.6172 140.441 83.7422ZM142.16 105.012C144.309 108.163 146.099 111.672 147.531 115.539L143.449 117.473C142.017 113.462 140.227 109.882 138.078 106.73L142.16 105.012ZM130.129 90.6172V129.504H126.262V127.785H116.379V131.008H112.512V90.6172H117.238C117.954 88.3255 118.456 85.9622 118.742 83.5273L123.254 84.3867C122.681 86.6784 122.036 88.7552 121.32 90.6172H130.129ZM126.262 107.16V94.6992H116.379V107.16H126.262ZM116.379 111.242V123.703H126.262V111.242H116.379ZM167.512 103.938H213.273V108.02H167.512V103.938ZM227.883 84.1719H232.18V97.0625H248.078V83.957H252.375V97.0625H267.199V101.145H232.18V109.738H258.82V132.941H254.523V113.82H231.75C230.747 121.555 228.098 127.928 223.801 132.941L220.363 130.148C225.376 124.133 227.883 116.757 227.883 108.02V84.1719ZM320.91 84.1719L323.059 88.0391C319.478 88.8984 315.539 89.6146 311.242 90.1875V108.879H325.207V112.961H311.242V126.926C311.242 129.217 310.92 130.757 310.275 131.545C309.631 132.333 308.592 132.727 307.16 132.727C305.441 132.727 303.866 132.512 302.434 132.082L301.359 127.785C303.078 128.215 304.797 128.43 306.516 128.43C306.945 128.43 307.16 127.57 307.16 125.852V112.961H293.41V108.879H307.16V90.6172C303.866 90.9036 300.357 91.1185 296.633 91.2617L295.344 87.1797C303.794 87.1797 312.316 86.1771 320.91 84.1719ZM318.332 92.5508L322.414 94.0547C321.268 99.0677 319.836 103.221 318.117 106.516L314.25 104.582C315.969 100.572 317.329 96.5612 318.332 92.5508ZM298.781 93.625C300.786 97.0625 302.505 100.858 303.938 105.012L300.07 106.945C298.781 102.935 297.134 99.1393 295.129 95.5586L298.781 93.625ZM290.832 88.2539V122.199H286.535V118.762H281.809V124.133H277.512V88.2539H290.832ZM281.809 114.68H286.535V92.3359H281.809V114.68ZM345.832 88.2539V122.199H341.535V118.762H336.809V124.133H332.512V88.2539H345.832ZM336.809 114.68H341.535V92.3359H336.809V114.68ZM357.648 83.3125L361.73 84.1719C361.301 85.6042 360.728 86.9648 360.012 88.2539H371.398V91.6914C370.253 94.4128 369.035 96.776 367.746 98.7812H376.555V113.176H379.992V117.258H367.746C369.895 122.557 374.048 126.281 380.207 128.43L377.844 132.941C370.969 130.077 366.171 124.921 363.449 117.473C361.444 123.632 357.076 128.788 350.344 132.941L347.121 129.504C352.993 125.923 356.861 121.841 358.723 117.258H347.336V113.176H350.773V98.7812H363.02C364.452 96.4896 365.669 94.2695 366.672 92.1211H357.863C356.145 94.4128 354.211 96.418 352.062 98.1367L349.055 95.1289C352.922 91.9779 355.786 88.0391 357.648 83.3125ZM372.258 113.176V102.648H366.027C365.884 106.659 365.454 110.168 364.738 113.176H372.258ZM360.227 113.176C360.943 110.168 361.372 106.659 361.516 102.648H355.07V113.176H360.227Z" fill="black" fill-opacity="0.8"/>
</svg>
