<svg width="380" height="151" viewBox="0 0 380 151" fill="none" xmlns="http://www.w3.org/2000/svg">
<path d="M18.288 11.416L13.04 16.792C12.4 15.8107 11.504 14.7227 10.352 13.528C9.24267 12.2907 8.048 11.032 6.768 9.752C5.488 8.472 4.272 7.32 3.12 6.296L7.984 1.752C9.136 2.69066 10.3733 3.736 11.696 4.888C13.0187 6.04 14.256 7.192 15.408 8.344C16.6027 9.45333 17.5627 10.4773 18.288 11.416ZM48.176 43.736H30.128V51.864H48.176V43.736ZM22.896 48.088V37.208H55.792V60.376H48.176V58.456H30.128V60.568H22.896V49.112C20.1653 51.032 17.9467 52.6107 16.24 53.848C14.5333 55.0427 13.1893 56.0027 12.208 56.728C11.2267 57.496 10.48 58.0933 9.968 58.52C9.49867 58.9893 9.136 59.3947 8.88 59.736C8.66667 59.1387 8.32533 58.4133 7.856 57.56C7.42933 56.7493 6.96 55.9387 6.448 55.128C5.936 54.3173 5.46667 53.656 5.04 53.144C5.68 52.6747 6.32 51.928 6.96 50.904C7.64267 49.88 7.984 48.664 7.984 47.256V27.672H0.368V20.376H15.088V46.616L21.36 42.392C21.488 43.2453 21.7013 44.2267 22 45.336C22.2987 46.4027 22.5973 47.32 22.896 48.088ZM46.256 20.824H37.616C37.4027 21.848 37.168 22.8507 36.912 23.832C36.6987 24.7707 36.4853 25.7093 36.272 26.648H45.744C45.8293 25.6667 45.9147 24.6853 46 23.704C46.128 22.7227 46.2133 21.7627 46.256 20.824ZM52.976 26.648H59.824V33.496H18.288V26.648H28.528C28.7413 25.7093 28.976 24.7707 29.232 23.832C29.488 22.8507 29.7227 21.848 29.936 20.824H22.64V14.36H31.28C31.4507 13.5067 31.6 12.696 31.728 11.928C31.8987 11.1173 32.0693 10.3067 32.24 9.496H20.464V2.84H57.712V9.496H39.856C39.6 11.032 39.28 12.6533 38.896 14.36H47.344L48.56 14.104L53.872 14.424C53.8293 16.472 53.7227 18.5413 53.552 20.632C53.3813 22.7227 53.1893 24.728 52.976 26.648ZM107.44 46.296H80.688V52.056H107.44V46.296ZM73.2 60.568V39.96H115.312V60.376H107.44V58.328H80.688V60.568H73.2ZM73.968 35.48V29.528H114.608V35.48H73.968ZM114.608 19.608V25.56H73.968V19.608H114.608ZM100.336 9.432H123.12V15.832H65.072V9.432H91.376C90.864 8.28 90.224 7.08533 89.456 5.848C88.7307 4.568 87.984 3.39466 87.216 2.328L94.896 0.407997C96.0053 1.77333 97.0507 3.288 98.032 4.952C99.0133 6.57333 99.7813 8.06667 100.336 9.432ZM137.776 47.256H147.952V34.712H137.776V47.256ZM147.952 28.12V17.752H137.776V28.12H147.952ZM168.304 10.648H186.288C186.288 10.648 186.288 10.8827 186.288 11.352C186.288 11.7787 186.288 12.2693 186.288 12.824C186.288 13.3787 186.267 13.8053 186.224 14.104C186.011 21.272 185.797 27.352 185.584 32.344C185.371 37.336 185.115 41.4533 184.816 44.696C184.517 47.896 184.133 50.4133 183.664 52.248C183.237 54.0827 182.704 55.4267 182.064 56.28C181.168 57.4747 180.229 58.3067 179.248 58.776C178.309 59.2453 177.2 59.5867 175.92 59.8C174.725 59.9707 173.211 60.0347 171.376 59.992C169.584 59.992 167.749 59.9707 165.872 59.928C165.829 58.8613 165.573 57.624 165.104 56.216C164.635 54.808 164.059 53.5707 163.376 52.504C165.424 52.6747 167.323 52.7813 169.072 52.824C170.821 52.8667 172.101 52.888 172.912 52.888C174.064 52.888 175.003 52.5253 175.728 51.8C176.368 51.1173 176.88 49.5173 177.264 47C177.691 44.4827 178.053 40.8347 178.352 36.056C178.651 31.2347 178.907 25.0693 179.12 17.56H165.424C164.613 19.48 163.717 21.3147 162.736 23.064C161.755 24.7707 160.773 26.3067 159.792 27.672C159.28 27.2027 158.533 26.6267 157.552 25.944C156.613 25.2613 155.717 24.6427 154.864 24.088V53.976H137.776V58.648H130.864V11.096H138.096C138.523 9.47466 138.907 7.72533 139.248 5.848C139.589 3.97066 139.824 2.28533 139.952 0.791996L148.272 1.944C147.717 3.52266 147.163 5.10133 146.608 6.68C146.053 8.25866 145.499 9.73066 144.944 11.096H154.864V21.464C156.741 18.776 158.405 15.6187 159.856 11.992C161.349 8.32266 162.565 4.61067 163.504 0.855999L170.8 2.52C170.117 5.208 169.285 7.91733 168.304 10.648ZM175.664 39.832L169.2 43.8C168.603 42.52 167.792 41.0267 166.768 39.32C165.787 37.6133 164.72 35.864 163.568 34.072C162.459 32.2373 161.371 30.552 160.304 29.016L166.256 25.624C167.323 27.0747 168.453 28.6747 169.648 30.424C170.843 32.1733 171.973 33.88 173.04 35.544C174.149 37.1653 175.024 38.5947 175.664 39.832ZM211.376 2.968L216.304 5.848C215.493 8.536 214.576 11.3947 213.552 14.424C212.571 17.4107 211.653 20.1413 210.8 22.616C212.72 25.0907 213.957 27.4587 214.512 29.72C215.109 31.9813 215.408 34.0507 215.408 35.928C215.408 37.976 215.173 39.704 214.704 41.112C214.277 42.4773 213.552 43.544 212.528 44.312C212.059 44.696 211.525 44.9947 210.928 45.208C210.331 45.4213 209.669 45.592 208.944 45.72C208.389 45.8053 207.728 45.8693 206.96 45.912C206.235 45.912 205.509 45.8907 204.784 45.848C204.784 44.9093 204.635 43.8213 204.336 42.584C204.037 41.3467 203.632 40.2587 203.12 39.32C203.675 39.3627 204.187 39.4053 204.656 39.448C205.125 39.448 205.531 39.4267 205.872 39.384C206.213 39.384 206.533 39.3413 206.832 39.256C207.131 39.1707 207.387 39.0427 207.6 38.872C207.984 38.5733 208.261 38.104 208.432 37.464C208.645 36.7813 208.752 35.992 208.752 35.096C208.752 33.5173 208.453 31.7253 207.856 29.72C207.301 27.7147 206.107 25.6027 204.272 23.384C204.869 21.4213 205.488 19.2453 206.128 16.856C206.811 14.424 207.408 12.1627 207.92 10.072H201.712V60.44H195.056V3.288H210.288L211.376 2.968ZM225.648 21.016V26.136H239.728V21.016H225.648ZM239.728 9.88H225.648V14.872H239.728V9.88ZM245.872 33.368L250.8 38.744C249.435 39.8107 247.963 40.92 246.384 42.072C244.805 43.224 243.291 44.2693 241.84 45.208C243.205 47.0427 244.741 48.6853 246.448 50.136C248.197 51.5867 250.117 52.8027 252.208 53.784C251.397 54.5093 250.48 55.512 249.456 56.792C248.475 58.1147 247.707 59.3093 247.152 60.376C242.373 57.7307 238.597 54.04 235.824 49.304C233.093 44.5253 230.981 39 229.488 32.728H225.648V50.712L234.544 48.728C234.501 49.7947 234.501 51.0107 234.544 52.376C234.629 53.7413 234.736 54.8293 234.864 55.64C231.749 56.4507 229.211 57.112 227.248 57.624C225.285 58.1787 223.728 58.648 222.576 59.032C221.424 59.416 220.549 59.736 219.952 59.992C219.355 60.248 218.864 60.504 218.48 60.76C218.181 59.9067 217.691 58.8613 217.008 57.624C216.368 56.3867 215.771 55.448 215.216 54.808C215.899 54.3813 216.56 53.72 217.2 52.824C217.84 51.928 218.16 50.7333 218.16 49.24V3.352H247.088V32.728H236.016C236.741 35.288 237.595 37.6133 238.576 39.704C239.899 38.7227 241.2 37.6773 242.48 36.568C243.803 35.416 244.933 34.3493 245.872 33.368ZM268.848 13.4V23.256C268.848 25.944 268.763 28.9093 268.592 32.152C268.464 35.352 268.187 38.6373 267.76 42.008C267.333 45.336 266.715 48.6 265.904 51.8C265.093 54.9573 264.027 57.8373 262.704 60.44C262.192 60.056 261.509 59.6507 260.656 59.224C259.803 58.7973 258.928 58.392 258.032 58.008C257.179 57.624 256.411 57.3467 255.728 57.176C257.008 54.7013 258.011 52.0133 258.736 49.112C259.504 46.2107 260.059 43.2453 260.4 40.216C260.784 37.1867 261.019 34.2213 261.104 31.32C261.232 28.4187 261.296 25.752 261.296 23.32V6.296H285.168C284.955 5.57066 284.72 4.84533 284.464 4.12C284.208 3.352 283.931 2.66933 283.632 2.072L291.376 0.343998C292.357 2.264 293.168 4.248 293.808 6.296H314.928V13.4H268.848ZM297.584 25.048H285.936V29.272H297.584V25.048ZM305.136 35.032H278.768V25.048H270.128V19.096H278.768V14.872H285.936V19.096H297.584V14.872H305.136V19.096H314.352V25.048H305.136V35.032ZM299.696 43.544H282.8C283.909 44.568 285.168 45.5067 286.576 46.36C288.027 47.2133 289.584 48.0027 291.248 48.728C292.869 48.0027 294.384 47.2347 295.792 46.424C297.2 45.5707 298.501 44.6107 299.696 43.544ZM306.416 37.336L311.152 39.768C309.829 42.2427 308.208 44.4613 306.288 46.424C304.411 48.3867 302.277 50.1147 299.888 51.608C302.32 52.1627 304.88 52.632 307.568 53.016C310.256 53.4 313.051 53.6987 315.952 53.912C315.227 54.7227 314.437 55.768 313.584 57.048C312.731 58.3707 312.069 59.5227 311.6 60.504C307.717 60.12 304.048 59.544 300.592 58.776C297.136 58.008 293.893 57.0267 290.864 55.832C287.835 56.8987 284.613 57.7733 281.2 58.456C277.787 59.1813 274.267 59.736 270.64 60.12C270.341 59.224 269.893 58.136 269.296 56.856C268.699 55.6187 268.101 54.5947 267.504 53.784C270.149 53.5707 272.731 53.2933 275.248 52.952C277.808 52.568 280.261 52.0987 282.608 51.544C279.664 49.5387 277.083 47.2133 274.864 44.568L277.424 43.544H270.64V37.592H305.072L306.416 37.336ZM34.16 115.432L38.896 111.464C40.6027 112.701 42.4373 114.067 44.4 115.56C46.4053 117.011 48.3893 118.525 50.352 120.104C52.3573 121.64 54.2133 123.155 55.92 124.648C57.6267 126.141 59.056 127.528 60.208 128.808L53.744 134.632C52.4213 133.053 50.6507 131.261 48.432 129.256C46.256 127.208 43.9093 125.139 41.392 123.048C38.8747 120.957 36.464 119.037 34.16 117.288V150.44H25.84V119.208C22.9387 122.323 19.7813 125.224 16.368 127.912C12.9547 130.6 9.328 132.947 5.488 134.952C4.89067 133.928 4.08 132.733 3.056 131.368C2.032 130.003 1.09333 128.893 0.24 128.04C4.12267 126.205 7.792 123.965 11.248 121.32C14.704 118.632 17.84 115.709 20.656 112.552C23.472 109.352 25.8613 106.131 27.824 102.888H2.288V95.08H57.776V102.888H37.872C37.3173 103.869 36.72 104.851 36.08 105.832C35.4827 106.813 34.8427 107.795 34.16 108.776V115.432ZM90.736 117.16H78.576V127.4H90.736V117.16ZM98.288 134.696H78.576V139.56H71.152V109.928H98.288V134.696ZM122.928 95.08V102.76H115.568V140.904C115.568 143.208 115.248 144.979 114.608 146.216C114.011 147.453 112.965 148.392 111.472 149.032C109.893 149.672 107.909 150.056 105.52 150.184C103.131 150.355 100.293 150.44 97.008 150.44C96.88 149.672 96.624 148.797 96.24 147.816C95.8987 146.835 95.5147 145.853 95.088 144.872C94.6613 143.891 94.256 143.059 93.872 142.376C95.408 142.461 96.9653 142.525 98.544 142.568C100.165 142.568 101.595 142.568 102.832 142.568C104.112 142.568 105.008 142.568 105.52 142.568C106.245 142.568 106.757 142.44 107.056 142.184C107.397 141.928 107.568 141.459 107.568 140.776V102.76H65.264V95.08H122.928ZM158.576 123.24H147.568C147.525 123.667 147.461 124.115 147.376 124.584C147.291 125.011 147.205 125.437 147.12 125.864C147.973 126.675 148.976 127.72 150.128 129C151.323 130.28 152.517 131.603 153.712 132.968C154.907 134.333 155.995 135.592 156.976 136.744C158 137.896 158.725 138.728 159.152 139.24L154.032 145.64C152.965 143.976 151.6 142.056 149.936 139.88C148.315 137.661 146.715 135.571 145.136 133.608C144.069 136.723 142.555 139.731 140.592 142.632C138.629 145.533 136.112 148.115 133.04 150.376C132.699 149.821 132.187 149.16 131.504 148.392C130.864 147.667 130.181 146.941 129.456 146.216C128.773 145.533 128.155 145 127.6 144.616C130.373 142.611 132.592 140.435 134.256 138.088C135.963 135.741 137.243 133.309 138.096 130.792C138.949 128.232 139.547 125.715 139.888 123.24H128.56V116.072H140.4V114.472V105.896H137.84C137.2 107.517 136.517 109.053 135.792 110.504C135.067 111.955 134.299 113.277 133.488 114.472C133.019 114.045 132.4 113.555 131.632 113C130.907 112.403 130.16 111.848 129.392 111.336C128.624 110.781 127.941 110.355 127.344 110.056C129.093 107.752 130.565 104.872 131.76 101.416C132.955 97.96 133.872 94.4187 134.512 90.792L141.808 92.264C141.595 93.3733 141.36 94.4827 141.104 95.592C140.848 96.6587 140.549 97.7467 140.208 98.856H157.104V105.896H148.08V114.536V116.072H158.576V123.24ZM167.664 136.936H176.944V103.464H167.664V136.936ZM160.304 96.296H184.688V147.752H176.944V144.104H167.664V148.712H160.304V96.296ZM201.776 137.256H211.952V124.712H201.776V137.256ZM211.952 118.12V107.752H201.776V118.12H211.952ZM232.304 100.648H250.288C250.288 100.648 250.288 100.883 250.288 101.352C250.288 101.779 250.288 102.269 250.288 102.824C250.288 103.379 250.267 103.805 250.224 104.104C250.011 111.272 249.797 117.352 249.584 122.344C249.371 127.336 249.115 131.453 248.816 134.696C248.517 137.896 248.133 140.413 247.664 142.248C247.237 144.083 246.704 145.427 246.064 146.28C245.168 147.475 244.229 148.307 243.248 148.776C242.309 149.245 241.2 149.587 239.92 149.8C238.725 149.971 237.211 150.035 235.376 149.992C233.584 149.992 231.749 149.971 229.872 149.928C229.829 148.861 229.573 147.624 229.104 146.216C228.635 144.808 228.059 143.571 227.376 142.504C229.424 142.675 231.323 142.781 233.072 142.824C234.821 142.867 236.101 142.888 236.912 142.888C238.064 142.888 239.003 142.525 239.728 141.8C240.368 141.117 240.88 139.517 241.264 137C241.691 134.483 242.053 130.835 242.352 126.056C242.651 121.235 242.907 115.069 243.12 107.56H229.424C228.613 109.48 227.717 111.315 226.736 113.064C225.755 114.771 224.773 116.307 223.792 117.672C223.28 117.203 222.533 116.627 221.552 115.944C220.613 115.261 219.717 114.643 218.864 114.088V143.976H201.776V148.648H194.864V101.096H202.096C202.523 99.4747 202.907 97.7253 203.248 95.848C203.589 93.9707 203.824 92.2853 203.952 90.792L212.272 91.944C211.717 93.5227 211.163 95.1013 210.608 96.68C210.053 98.2587 209.499 99.7307 208.944 101.096H218.864V111.464C220.741 108.776 222.405 105.619 223.856 101.992C225.349 98.3227 226.565 94.6107 227.504 90.856L234.8 92.52C234.117 95.208 233.285 97.9173 232.304 100.648ZM239.664 129.832L233.2 133.8C232.603 132.52 231.792 131.027 230.768 129.32C229.787 127.613 228.72 125.864 227.568 124.072C226.459 122.237 225.371 120.552 224.304 119.016L230.256 115.624C231.323 117.075 232.453 118.675 233.648 120.424C234.843 122.173 235.973 123.88 237.04 125.544C238.149 127.165 239.024 128.595 239.664 129.832ZM303.216 99.496L298.352 105.448C297.541 104.552 296.453 103.549 295.088 102.44C293.765 101.288 292.357 100.136 290.864 98.984C289.371 97.7893 287.984 96.7013 286.704 95.72L291.376 90.536C292.613 91.3893 293.979 92.3493 295.472 93.416C296.965 94.4827 298.395 95.5493 299.76 96.616C301.168 97.6827 302.32 98.6427 303.216 99.496ZM277.872 128.424L274.928 132.52C274.629 131.667 274.203 130.664 273.648 129.512C273.136 128.317 272.581 127.101 271.984 125.864V150.568H264.944V129.512C264.091 131.645 263.173 133.672 262.192 135.592C261.253 137.512 260.272 139.176 259.248 140.584C258.864 139.475 258.288 138.195 257.52 136.744C256.795 135.251 256.133 134.035 255.536 133.096C256.645 131.688 257.733 130.045 258.8 128.168C259.867 126.291 260.848 124.307 261.744 122.216C262.683 120.083 263.493 117.992 264.176 115.944H257.264V108.84H264.944V101.096C262.981 101.48 261.104 101.8 259.312 102.056C259.184 101.203 258.907 100.221 258.48 99.112C258.053 98.0027 257.627 97.0427 257.2 96.232C260.272 95.6347 263.387 94.888 266.544 93.992C269.701 93.096 272.411 92.1147 274.672 91.048L279.088 97.256C278.021 97.6827 276.891 98.088 275.696 98.472C274.501 98.856 273.264 99.1973 271.984 99.496V108.84H278.832V115.944H271.984V116.776C272.453 117.331 273.115 118.163 273.968 119.272C274.821 120.381 275.675 121.512 276.528 122.664C277.424 123.816 278.149 124.776 278.704 125.544C279.344 123.112 279.877 120.488 280.304 117.672C280.731 114.813 281.029 112.104 281.2 109.544L286.832 110.824C286.661 113.043 286.427 115.432 286.128 117.992C285.829 120.552 285.445 123.027 284.976 125.416C284.549 127.805 284.016 129.875 283.376 131.624L277.424 129.64C277.509 129.427 277.595 129.235 277.68 129.064C277.765 128.851 277.829 128.637 277.872 128.424ZM298.032 143.016H303.536C304.176 143.016 304.645 142.803 304.944 142.376C305.285 141.907 305.52 141.032 305.648 139.752C305.819 138.472 305.947 136.637 306.032 134.248C306.843 134.803 307.867 135.357 309.104 135.912C310.384 136.467 311.536 136.872 312.56 137.128C312.304 140.285 311.877 142.803 311.28 144.68C310.725 146.515 309.872 147.816 308.72 148.584C307.611 149.352 306.096 149.736 304.176 149.736H296.88C294.149 149.736 292.165 149.267 290.928 148.328C289.691 147.389 288.944 145.704 288.688 143.272C287.621 144.339 286.533 145.341 285.424 146.28C284.315 147.219 283.205 148.136 282.096 149.032C281.669 148.563 281.072 147.987 280.304 147.304C279.579 146.664 278.811 146.003 278 145.32C277.232 144.68 276.549 144.168 275.952 143.784C278.341 142.163 280.56 140.371 282.608 138.408C284.699 136.445 286.661 134.355 288.496 132.136V105.896H295.792V121.192C297.925 117.267 299.824 113.107 301.488 108.712C303.152 104.275 304.581 99.624 305.776 94.76L313.072 96.296C312.219 99.4533 311.28 102.547 310.256 105.576C309.232 108.605 308.165 111.507 307.056 114.28L310.832 113.256C311.643 115.219 312.389 117.309 313.072 119.528C313.797 121.704 314.437 123.837 314.992 125.928C315.547 128.019 315.973 129.917 316.272 131.624L309.36 133.672C309.061 131.539 308.528 129.085 307.76 126.312C307.035 123.496 306.245 120.787 305.392 118.184C304.027 121.171 302.533 124.072 300.912 126.888C299.291 129.704 297.584 132.371 295.792 134.888V139.88C295.792 141.203 295.92 142.056 296.176 142.44C296.432 142.824 297.051 143.016 298.032 143.016ZM330.032 102.312V108.968H322.608V95.528H346.16C345.989 94.8027 345.776 94.056 345.52 93.288C345.307 92.52 345.072 91.816 344.816 91.176L352.176 89.896C352.517 90.7493 352.859 91.688 353.2 92.712C353.584 93.6933 353.904 94.632 354.16 95.528H377.52V108.968H369.712V102.312H345.072C346.779 102.995 348.485 103.784 350.192 104.68C351.899 105.533 353.264 106.387 354.288 107.24L350.448 112.104C349.68 111.421 348.677 110.717 347.44 109.992C346.203 109.224 344.88 108.499 343.472 107.816C342.107 107.091 340.763 106.472 339.44 105.96L342.384 102.312H330.032ZM328.752 109.224L334.896 111.976C333.957 113.981 332.805 116.051 331.44 118.184C330.075 120.275 328.517 122.067 326.768 123.56L320.624 119.848C322.373 118.525 323.952 116.883 325.36 114.92C326.768 112.957 327.899 111.059 328.752 109.224ZM358.768 127.528H346.864C345.157 127.528 343.685 127.443 342.448 127.272C341.211 127.101 340.208 126.803 339.44 126.376C336.965 127.443 334.448 128.445 331.888 129.384C329.328 130.28 326.789 131.091 324.272 131.816C323.973 131.261 323.568 130.6 323.056 129.832C322.544 129.064 322.011 128.296 321.456 127.528C320.901 126.717 320.389 126.077 319.92 125.608C325.765 124.328 331.312 122.557 336.56 120.296V119.528V108.712H343.408V117.16C346.949 115.325 350.213 113.299 353.2 111.08C356.187 108.819 358.747 106.387 360.88 103.784L367.28 106.92C364.848 109.779 362.075 112.445 358.96 114.92C355.888 117.395 352.581 119.635 349.04 121.64H358.192C359.131 121.64 359.835 121.512 360.304 121.256C360.816 120.957 361.179 120.381 361.392 119.528C361.605 118.675 361.755 117.395 361.84 115.688C362.565 116.2 363.525 116.669 364.72 117.096C365.915 117.523 366.981 117.843 367.92 118.056C367.664 120.573 367.216 122.536 366.576 123.944C365.936 125.309 364.997 126.248 363.76 126.76C362.565 127.272 360.901 127.528 358.768 127.528ZM365.104 141.032V131.048H372.72V150.248H365.104V148.136H327.664V132.072H335.152V141.032H346.032V129H353.776V141.032H365.104ZM363.952 113.256L369.328 109.672C370.608 110.739 371.909 111.955 373.232 113.32C374.597 114.643 375.856 115.965 377.008 117.288C378.203 118.611 379.163 119.827 379.888 120.936L374.064 124.968C373.424 123.901 372.549 122.685 371.44 121.32C370.331 119.955 369.115 118.568 367.792 117.16C366.512 115.752 365.232 114.451 363.952 113.256Z" fill="white"/>
</svg>
