<svg width="332" height="119" viewBox="0 0 332 119" fill="none" xmlns="http://www.w3.org/2000/svg">
<path d="M20.704 44.648C21.44 45.032 22.32 44.92 23.344 44.312C24.4 43.704 24.912 43 24.88 42.2C24.88 42.136 24.88 42.04 24.88 41.912C24.848 41.24 24.896 40.824 25.024 40.664C25.184 40.408 25.632 40.248 26.368 40.184C26.88 40.152 28.08 40.136 29.968 40.136C30.32 40.136 30.576 40.136 30.736 40.136C31.024 40.136 31.44 40.136 31.984 40.136C33.712 40.136 34.816 40.152 35.296 40.184C35.936 40.248 36.32 40.408 36.448 40.664C36.576 40.856 36.608 41.304 36.544 42.008C36.544 42.2 36.544 42.36 36.544 42.488C36.512 43.544 36.592 44.168 36.784 44.36C37.008 44.584 37.552 44.6 38.416 44.408C40.464 43.928 41.44 43.064 41.344 41.816C41.12 38.392 41.008 31.8 41.008 22.04C41.008 12.28 41.12 7.24 41.344 6.92C41.568 6.632 41.792 6.44 42.016 6.344C42.624 6.024 42.848 5.704 42.688 5.384C42.56 5.032 41.968 4.408 40.912 3.512C39.792 2.584 39.072 2.12 38.752 2.12C38.432 2.12 37.856 2.584 37.024 3.512C36.992 3.544 36.944 3.608 36.88 3.704C36.528 4.12 36.144 4.36 35.728 4.424C35.312 4.488 34.016 4.52 31.84 4.52C31.264 4.52 30.816 4.52 30.496 4.52C30.208 4.52 29.824 4.52 29.344 4.52C27.2 4.52 25.856 4.488 25.312 4.424C24.8 4.36 24.032 4.104 23.008 3.656C22.72 3.496 22.48 3.384 22.288 3.32C22.16 3.256 22 3.192 21.808 3.128C20.88 2.712 20.336 2.52 20.176 2.552C20.048 2.584 20.016 2.904 20.08 3.512C20.112 3.64 20.128 3.736 20.128 3.8C20.288 5.208 20.384 6.712 20.416 8.312C20.448 9.688 20.48 13.24 20.512 18.968C20.512 19.192 20.512 19.368 20.512 19.496C20.544 30.12 20.448 37.176 20.224 40.664C20.096 42.456 20.048 43.512 20.08 43.832C20.144 44.152 20.352 44.424 20.704 44.648ZM8.272 44.936C8.72 45.096 9.36 45.048 10.192 44.792C11.056 44.568 11.744 44.248 12.256 43.832C12.448 43.704 12.544 43.48 12.544 43.16C12.576 42.872 12.56 41.88 12.496 40.184C12.368 37.432 12.304 33.48 12.304 28.328C12.336 23.176 12.416 20.52 12.544 20.36C12.864 20.008 13.408 20.456 14.176 21.704C14.944 22.92 15.472 24.2 15.76 25.544C15.92 26.184 16.352 26.584 17.056 26.744C17.792 26.904 18.368 26.728 18.784 26.216C19.648 25.192 19.616 23.928 18.688 22.424C17.76 20.92 16.192 19.624 13.984 18.536C13.184 18.12 12.704 17.8 12.544 17.576C12.384 17.32 12.304 16.728 12.304 15.8C12.304 15.768 12.304 15.72 12.304 15.656C12.304 14.856 12.352 14.344 12.448 14.12C12.576 13.832 12.88 13.64 13.36 13.544C13.712 13.512 14.544 13.48 15.856 13.448C15.952 13.448 16.032 13.448 16.096 13.448C18.24 13.416 19.408 13.24 19.6 12.92C19.792 12.6 19.216 11.784 17.872 10.472C16.88 9.48 16.24 8.984 15.952 8.984C15.664 8.952 15.248 9.352 14.704 10.184C14.256 10.952 13.904 11.448 13.648 11.672C13.392 11.896 13.12 11.944 12.832 11.816C12.352 11.656 12.128 10.28 12.16 7.688C12.224 5.064 12.512 3.528 13.024 3.08C13.44 2.664 13.376 2.312 12.832 2.024C12.288 1.704 10.976 1.288 8.896 0.775997C8.864 0.775997 8.816 0.759997 8.752 0.727998C8.112 0.567998 7.744 0.535998 7.648 0.631999C7.552 0.695998 7.552 1.064 7.648 1.736C7.648 1.8 7.648 1.848 7.648 1.88C7.808 3.416 7.92 5.272 7.984 7.448C8.08 9.624 8.08 10.888 7.984 11.24C7.824 11.72 7.248 12.008 6.256 12.104C5.264 12.2 3.632 12.12 1.36 11.864C1.008 11.832 0.816 11.864 0.784 11.96C0.784 12.056 0.944 12.424 1.264 13.064C1.296 13.128 1.344 13.224 1.408 13.352C1.6 13.736 1.76 13.944 1.888 13.976C2.016 14.008 2.368 13.96 2.944 13.832C3.104 13.8 3.232 13.768 3.328 13.736C4.768 13.416 5.776 13.368 6.352 13.592C6.928 13.816 7.152 14.328 7.024 15.128C6.608 17.56 5.792 20.472 4.576 23.864C3.36 27.256 2.128 30.024 0.88 32.168C0.528 32.808 0.32 33.224 0.256 33.416C0.224 33.576 0.272 33.72 0.4 33.848C0.624 34.04 1.264 33.528 2.32 32.312C3.408 31.064 4.592 29.48 5.872 27.56C6.576 26.536 7.056 25.928 7.312 25.736C7.568 25.512 7.76 25.592 7.888 25.976C8.016 26.296 8.064 28.216 8.032 31.736C8 35.224 7.904 38.296 7.744 40.952C7.616 42.776 7.568 43.864 7.6 44.216C7.664 44.568 7.888 44.808 8.272 44.936ZM35.968 38.648C35.712 38.776 33.968 38.824 30.736 38.792C27.536 38.792 25.808 38.728 25.552 38.6C25.232 38.44 25.04 38.152 24.976 37.736C24.912 37.32 24.88 35.928 24.88 33.56C24.88 33.144 24.88 32.6 24.88 31.928C24.848 30.616 24.88 29.784 24.976 29.432C25.104 28.92 25.456 28.616 26.032 28.52C26.448 28.424 27.408 28.392 28.912 28.424C29.68 28.424 30.304 28.424 30.784 28.424C31.232 28.424 31.824 28.424 32.56 28.424C34.128 28.392 35.12 28.424 35.536 28.52C36.112 28.648 36.464 28.968 36.592 29.48C36.688 29.864 36.72 30.776 36.688 32.216C36.688 32.888 36.688 33.416 36.688 33.8C36.656 36.04 36.608 37.368 36.544 37.784C36.512 38.2 36.32 38.488 35.968 38.648ZM35.968 26.936C35.712 27.064 33.968 27.112 30.736 27.08C27.536 27.08 25.808 27.016 25.552 26.888C25.232 26.76 25.04 26.488 24.976 26.072C24.912 25.656 24.88 24.312 24.88 22.04C24.88 21.656 24.88 21.144 24.88 20.504C24.848 19.224 24.88 18.408 24.976 18.056C25.104 17.576 25.456 17.288 26.032 17.192C26.448 17.096 27.424 17.064 28.96 17.096C29.728 17.096 30.336 17.096 30.784 17.096C31.232 17.096 31.808 17.096 32.512 17.096C34.08 17.064 35.072 17.096 35.488 17.192C36.064 17.32 36.432 17.64 36.592 18.152C36.688 18.504 36.72 19.368 36.688 20.744C36.688 21.384 36.688 21.896 36.688 22.28C36.656 24.424 36.608 25.704 36.544 26.12C36.512 26.504 36.32 26.776 35.968 26.936ZM35.968 15.608C35.712 15.736 33.968 15.784 30.736 15.752C27.536 15.752 25.808 15.688 25.552 15.56C25.232 15.432 25.04 15.16 24.976 14.744C24.912 14.328 24.88 13 24.88 10.76C24.88 10.376 24.88 9.864 24.88 9.224C24.848 7.944 24.88 7.144 24.976 6.824C25.104 6.344 25.456 6.056 26.032 5.96C26.448 5.864 27.424 5.832 28.96 5.864C29.728 5.864 30.336 5.864 30.784 5.864C31.232 5.864 31.824 5.864 32.56 5.864C34.096 5.832 35.072 5.864 35.488 5.96C36.064 6.088 36.432 6.392 36.592 6.872C36.688 7.256 36.72 8.12 36.688 9.464C36.688 10.104 36.688 10.616 36.688 11C36.656 13.144 36.608 14.408 36.544 14.792C36.512 15.176 36.32 15.448 35.968 15.608ZM61.648 44.744C62.128 45.256 63.12 45.16 64.624 44.456L64.72 44.408C65.232 44.152 65.52 43.896 65.584 43.64C65.648 43.384 65.648 42.6 65.584 41.288C65.584 41.128 65.584 41 65.584 40.904C65.424 37.544 65.36 35.272 65.392 34.088C65.424 32.648 65.584 31.704 65.872 31.256C66.128 30.904 66.624 30.728 67.36 30.728C68.096 30.728 68.592 30.936 68.848 31.352C69.136 31.832 69.296 32.792 69.328 34.232C69.36 35.48 69.28 37.656 69.088 40.76C68.992 42.552 69.088 43.624 69.376 43.976C69.664 44.328 70.4 44.296 71.584 43.88C72.32 43.656 72.736 43.4 72.832 43.112C72.928 42.856 72.944 42.024 72.88 40.616C72.72 37.384 72.656 35.192 72.688 34.04C72.72 32.632 72.896 31.704 73.216 31.256C73.472 30.904 73.968 30.728 74.704 30.728C75.472 30.728 76 30.952 76.288 31.4C76.608 31.912 76.768 32.952 76.768 34.52C76.768 35.864 76.656 38.232 76.432 41.624C76.368 42.648 76.4 43.288 76.528 43.544C76.656 43.8 77.04 43.912 77.68 43.88C79.312 43.848 80.144 43.352 80.176 42.392C80.24 41.56 80.512 41.096 80.992 41C81.44 40.904 81.904 41.144 82.384 41.72C82.896 42.296 83.216 43.048 83.344 43.976C83.408 44.52 83.504 44.808 83.632 44.84C83.792 44.904 84.272 44.856 85.072 44.696C86.096 44.472 86.784 44.184 87.136 43.832C87.584 43.416 87.872 42.712 88 41.72C88.128 40.888 88.208 39.304 88.24 36.968C88.24 36.808 88.24 36.6 88.24 36.344C88.272 34.008 88.32 32.632 88.384 32.216C88.48 31.768 88.752 31.416 89.2 31.16L89.344 31.112C89.888 30.856 90.032 30.504 89.776 30.056C89.52 29.608 88.768 28.904 87.52 27.944C86.72 27.304 86.192 26.968 85.936 26.936C85.712 26.936 85.392 27.24 84.976 27.848C84.912 27.912 84.848 28.008 84.784 28.136C84.336 28.808 83.872 29.208 83.392 29.336C82.944 29.432 81.616 29.48 79.408 29.48C79.024 29.48 78.736 29.48 78.544 29.48C76.208 29.48 74.752 29.448 74.176 29.384C73.376 29.288 73.056 29.064 73.216 28.712C73.312 28.456 73.824 27.832 74.752 26.84C74.848 26.744 74.992 26.6 75.184 26.408C75.696 25.832 76.208 25.496 76.72 25.4C77.264 25.304 78.8 25.256 81.328 25.256C82.224 25.256 82.928 25.256 83.44 25.256C86.768 25.256 88.912 25.208 89.872 25.112C91.056 24.984 91.552 24.712 91.36 24.296C91.232 23.976 90.48 23.304 89.104 22.28L89.056 22.232C88 21.4 87.312 21 86.992 21.032C86.704 21.032 86.176 21.512 85.408 22.472L85.36 22.568C85.296 22.664 85.2 22.792 85.072 22.952C84.816 23.304 84.56 23.528 84.304 23.624C83.92 23.752 83.168 23.832 82.048 23.864C81.28 23.896 79.44 23.912 76.528 23.912C75.312 23.912 74.352 23.912 73.648 23.912C66.352 23.912 61.76 23.832 59.872 23.672C59.424 23.64 59.184 23.672 59.152 23.768C59.12 23.864 59.28 24.232 59.632 24.872C59.664 24.936 59.712 25.016 59.776 25.112C60 25.496 60.176 25.72 60.304 25.784C60.464 25.816 60.896 25.784 61.6 25.688C61.728 25.656 61.824 25.64 61.888 25.64C63.904 25.384 65.872 25.24 67.792 25.208C69.744 25.176 70.832 25.288 71.056 25.544C71.44 25.928 71.472 26.632 71.152 27.656C70.832 28.648 70.4 29.224 69.856 29.384C68.096 29.864 65.888 29.528 63.232 28.376C61.952 27.832 61.296 27.56 61.264 27.56C61.168 27.56 61.2 28.36 61.36 29.96C61.744 34.216 61.76 38.744 61.408 43.544C61.376 43.992 61.36 44.264 61.36 44.36C61.392 44.488 61.488 44.616 61.648 44.744ZM52.96 44.936C53.408 45.032 53.968 44.936 54.64 44.648C56.656 43.656 56.912 40.552 55.408 35.336C54.992 33.896 54.912 32.312 55.168 30.584C55.456 28.92 56.416 24.984 58.048 18.776C58.56 16.92 58.832 15.848 58.864 15.56C58.896 15.24 58.768 15.08 58.48 15.08C58.352 15.08 58.176 15.288 57.952 15.704C57.76 16.12 57.184 17.512 56.224 19.88C56.128 20.136 56.048 20.328 55.984 20.456C55.792 20.904 55.536 21.528 55.216 22.328C53.936 25.528 53.088 27.56 52.672 28.424C52.16 29.608 51.728 30.344 51.376 30.632C51.12 30.856 50.688 30.984 50.08 31.016C49.952 31.016 49.856 31.016 49.792 31.016C49.28 31.048 48.96 31.096 48.832 31.16C48.704 31.224 48.672 31.384 48.736 31.64C48.8 31.832 49.04 31.96 49.456 32.024C51.6 32.472 52.288 35.576 51.52 41.336C51.264 43.448 51.744 44.648 52.96 44.936ZM83.632 40.088C83.344 40.184 82.576 40.216 81.328 40.184C80.784 40.152 80.448 39.896 80.32 39.416C80.224 38.904 80.176 37.48 80.176 35.144C80.176 35.08 80.176 34.984 80.176 34.856C80.208 33.32 80.24 32.344 80.272 31.928C80.336 31.384 80.512 31.032 80.8 30.872C80.992 30.776 81.44 30.728 82.144 30.728H82.336H82.432C83.168 30.728 83.632 30.776 83.824 30.872C84.08 31.032 84.24 31.416 84.304 32.024C84.368 32.472 84.4 33.512 84.4 35.144C84.4 35.272 84.4 35.368 84.4 35.432C84.4 37.576 84.368 38.856 84.304 39.272C84.24 39.688 84.016 39.96 83.632 40.088ZM73.072 22.328C73.328 22.488 73.776 22.52 74.416 22.424C75.056 22.328 75.584 22.168 76 21.944C76.448 21.72 76.72 21.544 76.816 21.416C76.912 21.288 76.976 21.064 77.008 20.744C77.136 19.592 77.456 19.352 77.968 20.024L78.016 20.072C78.272 20.456 78.464 20.68 78.592 20.744C78.72 20.776 79.04 20.744 79.552 20.648C79.648 20.616 79.728 20.6 79.792 20.6C81.616 20.248 83.424 20.12 85.216 20.216C88.256 20.376 88.464 19.48 85.84 17.528C85.136 17.016 84.656 16.744 84.4 16.712C84.176 16.712 83.84 16.968 83.392 17.48C82.752 18.184 82.144 18.616 81.568 18.776C81.024 18.904 80.016 18.872 78.544 18.68C78 18.616 77.664 18.584 77.536 18.584C77.44 18.616 77.408 18.696 77.44 18.824C77.664 19.432 77.552 19.32 77.104 18.488C76.944 18.104 76.864 17.208 76.864 15.8C76.864 14.456 76.832 13.368 76.768 12.536C76.768 12.472 76.768 12.408 76.768 12.344C76.704 11.512 76.72 10.984 76.816 10.76C76.976 10.44 77.36 10.248 77.968 10.184C78.384 10.12 79.424 10.088 81.088 10.088C81.312 10.088 81.488 10.088 81.616 10.088C83.408 10.088 84.528 10.104 84.976 10.136C85.648 10.2 86.048 10.328 86.176 10.52C86.304 10.648 86.336 10.968 86.272 11.48C86.24 12.376 86.096 12.936 85.84 13.16C85.584 13.352 85.2 13.272 84.688 12.92C84.624 12.888 84.56 12.84 84.496 12.776C83.6 12.168 83.04 11.864 82.816 11.864C82.592 11.832 82.288 12.072 81.904 12.584L81.808 12.68C81.232 13.352 80.752 13.752 80.368 13.88C80.016 14.008 79.408 14.008 78.544 13.88C77.968 13.784 77.648 13.784 77.584 13.88C77.552 13.976 77.68 14.312 77.968 14.888C78.224 15.4 78.4 15.704 78.496 15.8C78.624 15.864 78.848 15.816 79.168 15.656C79.36 15.528 79.6 15.464 79.888 15.464C80.176 15.432 80.992 15.4 82.336 15.368H82.48C83.984 15.336 84.896 15.304 85.216 15.272C85.536 15.208 85.76 15.064 85.888 14.84C85.984 14.68 86.096 14.6 86.224 14.6C86.384 14.6 86.56 14.52 86.752 14.36C86.976 14.168 87.472 13.656 88.24 12.824C89.104 11.896 89.664 11.336 89.92 11.144C90.208 10.92 90.576 10.728 91.024 10.568C91.568 10.408 91.776 10.168 91.648 9.848C91.552 9.496 91.056 8.872 90.16 7.976C89.328 7.144 88.768 6.696 88.48 6.632C88.224 6.568 87.84 6.84 87.328 7.448C87.296 7.48 87.248 7.528 87.184 7.592C86.672 8.168 86.192 8.504 85.744 8.6C85.328 8.696 84.128 8.744 82.144 8.744C81.92 8.744 81.76 8.744 81.664 8.744C79.872 8.744 78.752 8.728 78.304 8.696C77.632 8.632 77.2 8.488 77.008 8.264C76.88 8.136 76.8 7.784 76.768 7.208V7.112C76.768 7.048 76.752 6.936 76.72 6.776C76.656 6.104 76.704 5.672 76.864 5.48C77.024 5.224 77.52 5.064 78.352 5C78.96 4.968 80.4 4.936 82.672 4.904C83.024 4.904 83.296 4.904 83.488 4.904C86.656 4.872 88.512 4.84 89.056 4.808C89.6 4.776 89.952 4.632 90.112 4.376C90.4 3.992 89.728 3.144 88.096 1.832C87.072 0.999997 86.416 0.567997 86.128 0.535997C85.872 0.503998 85.488 0.791998 84.976 1.4C84.144 2.52 83.52 3.176 83.104 3.368C82.752 3.528 79.728 3.592 74.032 3.56C68.368 3.528 64.656 3.432 62.896 3.272C62.352 3.208 62.048 3.208 61.984 3.272C61.952 3.304 62.08 3.64 62.368 4.28C62.656 4.888 62.864 5.272 62.992 5.432C63.056 5.496 63.552 5.448 64.48 5.288C67.776 4.808 70 4.68 71.152 4.904C72.304 5.096 72.88 5.736 72.88 6.824C72.88 7.528 72.832 7.976 72.736 8.168C72.576 8.424 72.176 8.6 71.536 8.696C71.088 8.728 70.032 8.744 68.368 8.744C66.192 8.744 64.896 8.696 64.48 8.6C64.064 8.472 63.776 8.104 63.616 7.496C63.488 6.856 63.328 6.552 63.136 6.584C62.976 6.616 62.816 6.968 62.656 7.64C62.368 9.208 61.696 10.52 60.64 11.576C59.936 12.248 59.568 12.968 59.536 13.736C59.504 14.44 59.744 14.936 60.256 15.224C60.832 15.576 61.52 15.56 62.32 15.176C62.992 14.824 63.424 14.76 63.616 14.984C63.776 15.176 63.984 15.288 64.24 15.32C64.496 15.352 65.28 15.368 66.592 15.368C67.008 15.368 67.344 15.368 67.6 15.368C69.52 15.336 70.656 15.304 71.008 15.272C71.392 15.208 71.632 15.048 71.728 14.792C71.824 14.536 71.664 14.184 71.248 13.736C70.864 13.288 70.32 12.824 69.616 12.344C69.136 12.024 68.8 11.896 68.608 11.96C68.416 11.992 68.096 12.28 67.648 12.824C67.04 13.592 66.272 14.024 65.344 14.12C64.416 14.184 63.936 13.864 63.904 13.16C63.904 12.424 63.968 11.784 64.096 11.24C64.256 10.696 64.448 10.36 64.672 10.232C64.928 10.104 66.208 10.056 68.512 10.088C70.848 10.088 72.112 10.136 72.304 10.232C72.592 10.392 72.784 11.256 72.88 12.824C72.976 14.36 72.944 15.96 72.784 17.624C72.496 20.536 72.592 22.104 73.072 22.328ZM63.088 20.648C63.216 20.776 63.408 20.76 63.664 20.6C64.24 20.312 65.76 20.168 68.224 20.168C69.92 20.168 70.944 20.136 71.296 20.072C71.648 19.976 71.824 19.752 71.824 19.4C71.824 19.176 71.52 18.792 70.912 18.248C70.304 17.672 69.728 17.24 69.184 16.952C68.864 16.792 68.624 16.744 68.464 16.808C68.304 16.872 68 17.16 67.552 17.672C67.04 18.28 66.416 18.664 65.68 18.824C64.976 18.952 64 18.888 62.752 18.632C62.4 18.568 62.224 18.568 62.224 18.632C62.16 18.664 62.256 18.968 62.512 19.544C62.768 20.12 62.96 20.488 63.088 20.648ZM53.056 18.488C54.08 18.84 54.832 18.68 55.312 18.008C55.792 17.4 55.888 16.6 55.6 15.608C55.28 14.552 54.624 13.704 53.632 13.064C52.8 12.552 51.936 12.152 51.04 11.864C50.176 11.608 49.536 11.544 49.12 11.672C48.736 11.8 48.752 12.104 49.168 12.584C50.352 13.832 51.264 15.352 51.904 17.144C52.064 17.592 52.208 17.896 52.336 18.056C52.496 18.216 52.736 18.36 53.056 18.488ZM56.416 8.408C57.152 8.696 57.824 8.632 58.432 8.216C59.072 7.768 59.392 7.144 59.392 6.344C59.392 5.192 58.784 4.152 57.568 3.224C56.384 2.296 54.8 1.624 52.816 1.208C52.08 1.048 51.68 1.048 51.616 1.208C51.584 1.336 51.824 1.704 52.336 2.312C54.032 4.296 55.12 6.056 55.6 7.592C55.728 7.976 56 8.248 56.416 8.408ZM106.96 44.648C107.056 44.872 107.376 44.904 107.92 44.744C108.496 44.616 109.728 44.184 111.616 43.448C117.312 41.304 122.064 38.376 125.872 34.664C126.704 33.896 127.248 33.448 127.504 33.32C127.888 33.128 128.288 33.208 128.704 33.56C128.992 33.848 129.584 34.584 130.48 35.768C132.176 38.04 133.52 40.152 134.512 42.104C135.024 43.096 135.376 43.704 135.568 43.928C135.792 44.184 136.16 44.36 136.672 44.456C137.792 44.68 138.56 44.264 138.976 43.208C139.424 42.184 139.344 40.968 138.736 39.56C137.648 36.872 135.12 34.456 131.152 32.312C130.128 31.736 129.552 31.304 129.424 31.016C129.328 30.696 129.52 30.088 130 29.192C131.472 26.504 132.528 23.624 133.168 20.552C133.84 17.48 134.32 13.272 134.608 7.928C134.64 6.776 134.704 6.008 134.8 5.624C134.928 5.24 135.136 4.968 135.424 4.808C136.032 4.456 136.016 4.168 135.376 3.944C134.736 3.688 133.344 3.448 131.2 3.224C130.368 3.128 129.856 3.096 129.664 3.128C129.472 3.16 129.408 3.256 129.472 3.416C129.664 3.96 129.728 6.12 129.664 9.896C129.536 18.184 127.84 24.92 124.576 30.104C121.312 35.256 116 39.672 108.64 43.352C107.712 43.8 107.184 44.072 107.056 44.168C106.928 44.296 106.896 44.456 106.96 44.648ZM98.608 41C98.768 41.16 98.992 41.096 99.28 40.808C99.632 40.36 100.032 40.008 100.48 39.752C100.928 39.464 102 38.888 103.696 38.024C107.216 36.264 110.624 34.44 113.92 32.552C117.216 30.632 118.896 29.544 118.96 29.288C118.992 29.064 118.768 29.016 118.288 29.144C117.84 29.24 116.304 29.72 113.68 30.584C110.96 31.48 109.28 32.008 108.64 32.168C108.032 32.328 107.616 32.328 107.392 32.168C107.2 31.976 107.072 31.256 107.008 30.008C106.944 28.6 106.88 24.664 106.816 18.2C106.816 17.528 106.8 16.6 106.768 15.416C106.704 11.544 106.688 9.08 106.72 8.024C106.72 6.552 106.752 5.608 106.816 5.192C106.88 4.904 107.024 4.68 107.248 4.52L107.344 4.424C107.76 4.072 107.808 3.832 107.488 3.704C107.168 3.544 106.352 3.4 105.04 3.272C103.248 3.112 102.352 3.128 102.352 3.32C102.288 3.608 102.336 8.472 102.496 17.912C102.496 18.424 102.512 19.144 102.544 20.072C102.64 26.728 102.688 30.632 102.688 31.784C102.688 32.904 102.624 33.544 102.496 33.704C102.208 34.184 100.512 34.808 97.408 35.576C96.704 35.736 96.352 35.864 96.352 35.96C96.32 35.992 96.656 36.808 97.36 38.408C98.096 39.976 98.512 40.84 98.608 41ZM119.632 20.408C120.72 20.76 121.536 20.488 122.08 19.592C122.624 18.696 122.656 17.576 122.176 16.232C121.184 13.384 118.384 11.032 113.776 9.176C112.752 8.792 112.192 8.664 112.096 8.792C112.032 8.92 112.352 9.416 113.056 10.28C115.584 13.48 117.328 16.376 118.288 18.968C118.608 19.736 119.056 20.216 119.632 20.408ZM149.44 44.792C150.464 45.336 151.344 45.272 152.08 44.6C152.784 43.992 153.216 42.968 153.376 41.528C153.568 40.024 153.408 38.392 152.896 36.632C152.48 35.288 152.224 34.312 152.128 33.704C152.064 33.096 152.08 32.424 152.176 31.688C152.336 30.664 152.608 29.512 152.992 28.232C153.408 26.856 154.304 24.184 155.68 20.216C156.416 18.232 157.12 16.216 157.792 14.168C158.08 13.4 158.224 12.92 158.224 12.728C158.256 12.504 158.16 12.392 157.936 12.392C157.776 12.392 157.552 12.664 157.264 13.208C156.464 14.904 155.072 17.752 153.088 21.752C151.104 25.72 149.984 27.944 149.728 28.424C149.056 29.64 148.544 30.392 148.192 30.68C147.84 30.968 147.264 31.112 146.464 31.112C145.728 31.112 145.296 31.256 145.168 31.544C145.072 31.8 145.36 32.008 146.032 32.168C148.24 32.616 148.992 35.656 148.288 41.288C148.16 42.28 148.176 43.032 148.336 43.544C148.528 44.056 148.896 44.472 149.44 44.792ZM169.504 44.744C169.92 45 170.56 45 171.424 44.744C172.32 44.52 173.04 44.136 173.584 43.592C173.84 43.368 173.984 43.128 174.016 42.872C174.048 42.616 174.032 41.784 173.968 40.376C173.904 38.296 173.856 35.56 173.824 32.168C173.792 28.648 173.808 26.712 173.872 26.36C174 25.656 174.16 25.416 174.352 25.64C174.576 25.832 174.96 26.584 175.504 27.896C177.424 32.76 180 36.616 183.232 39.464C183.648 39.88 183.936 40.088 184.096 40.088C184.192 40.088 184.32 39.912 184.48 39.56C185.088 38.056 185.968 37.048 187.12 36.536C187.664 36.28 187.952 36.072 187.984 35.912C187.984 35.816 187.728 35.624 187.216 35.336C184.88 34.152 182.608 32.472 180.4 30.296C178.224 28.12 176.56 25.88 175.408 23.576C174.992 22.776 174.864 22.248 175.024 21.992C175.152 21.768 175.456 21.64 175.936 21.608C176.448 21.576 178.144 21.544 181.024 21.512C183.232 21.48 184.64 21.464 185.248 21.464C186.08 21.432 186.592 21.368 186.784 21.272C186.944 21.208 187.024 21.048 187.024 20.792C187.024 20.536 186.496 19.896 185.44 18.872C184.384 17.848 183.568 17.176 182.992 16.856C182.768 16.728 182.576 16.728 182.416 16.856C182.256 16.984 181.856 17.48 181.216 18.344L181.168 18.44C180.56 19.304 180.08 19.816 179.728 19.976C179.408 20.104 178.576 20.168 177.232 20.168C177.04 20.168 176.896 20.168 176.8 20.168C176.608 20.168 176.368 20.168 176.08 20.168C174.928 20.168 174.256 20.024 174.064 19.736C173.872 19.448 173.776 18.456 173.776 16.76C173.776 16.312 173.776 15.96 173.776 15.704C173.776 15.352 173.776 14.872 173.776 14.264C173.744 13.016 173.792 12.232 173.92 11.912C174.08 11.432 174.496 11.144 175.168 11.048C175.648 10.952 176.784 10.92 178.576 10.952C179.44 10.952 180.128 10.952 180.64 10.952C183.712 10.952 185.536 10.936 186.112 10.904C186.688 10.872 187.04 10.744 187.168 10.52C187.328 10.296 187.072 9.816 186.4 9.08C185.76 8.312 184.976 7.592 184.048 6.92C183.472 6.472 183.088 6.28 182.896 6.344C182.704 6.376 182.352 6.76 181.84 7.496L181.792 7.592C181.76 7.656 181.712 7.736 181.648 7.832C180.976 8.76 180.464 9.304 180.112 9.464C179.792 9.624 178.96 9.704 177.616 9.704C177.456 9.704 177.328 9.704 177.232 9.704C177.168 9.704 177.072 9.704 176.944 9.704C175.344 9.704 174.416 9.592 174.16 9.368C173.904 9.112 173.776 8.296 173.776 6.92C173.776 6.76 173.776 6.632 173.776 6.536C173.776 5.288 173.808 4.504 173.872 4.184C173.968 3.832 174.192 3.496 174.544 3.176C174.928 2.824 174.88 2.52 174.4 2.264C173.92 2.008 172.736 1.64 170.848 1.16C170.752 1.128 170.608 1.096 170.416 1.064C169.616 0.839998 169.152 0.759998 169.024 0.823999C168.928 0.887999 168.912 1.256 168.976 1.928C169.008 2.056 169.024 2.168 169.024 2.264C169.28 4.856 169.376 6.664 169.312 7.688C169.28 8.712 169.072 9.336 168.688 9.56C168.432 9.688 166.672 9.72 163.408 9.656C160.176 9.592 158.128 9.496 157.264 9.368C157.008 9.336 156.864 9.384 156.832 9.512C156.832 9.608 156.96 9.896 157.216 10.376C157.248 10.44 157.296 10.52 157.36 10.616C157.616 11.128 157.808 11.432 157.936 11.528C158.096 11.592 158.48 11.576 159.088 11.48C159.184 11.448 159.248 11.432 159.28 11.432C161.84 11.08 164.08 10.92 166 10.952C167.92 10.984 168.992 11.208 169.216 11.624C169.376 12.008 169.424 13.416 169.36 15.848C169.328 18.28 169.2 19.592 168.976 19.784C168.752 20.008 167.408 20.136 164.944 20.168C162.48 20.2 160.176 20.12 158.032 19.928C157.616 19.864 157.392 19.896 157.36 20.024C157.36 20.12 157.52 20.488 157.84 21.128C157.872 21.16 157.904 21.208 157.936 21.272C158.16 21.72 158.336 21.976 158.464 22.04C158.592 22.104 158.896 22.104 159.376 22.04C159.472 22.008 159.536 21.992 159.568 21.992C162.864 21.416 165.024 21.288 166.048 21.608C167.104 21.896 167.344 22.728 166.768 24.104C164.048 30.568 160.192 35.816 155.2 39.848C154.464 40.424 154.192 40.808 154.384 41C154.512 41.096 154.672 41.096 154.864 41C155.056 40.936 155.536 40.68 156.304 40.232C160.624 37.768 164.24 34.776 167.152 31.256C167.856 30.424 168.336 29.944 168.592 29.816C168.848 29.656 169.056 29.752 169.216 30.104C169.344 30.424 169.392 31.96 169.36 34.712C169.328 37.56 169.232 40.152 169.072 42.488C169.008 43.384 168.992 43.944 169.024 44.168C169.088 44.392 169.248 44.584 169.504 44.744ZM149.968 19.64C150.608 19.864 151.2 19.736 151.744 19.256C152.32 18.776 152.608 18.152 152.608 17.384C152.608 16.264 152.064 15.288 150.976 14.456C149.888 13.592 148.416 13 146.56 12.68C145.408 12.456 144.736 12.408 144.544 12.536C144.384 12.664 144.608 13.016 145.216 13.592C146.752 15.128 147.888 16.696 148.624 18.296C148.848 18.776 149.024 19.08 149.152 19.208C149.312 19.336 149.584 19.48 149.968 19.64ZM153.472 8.984C154.368 9.336 155.152 9.224 155.824 8.648C156.528 8.072 156.784 7.304 156.592 6.344C156.368 5.288 155.712 4.376 154.624 3.608C153.568 2.808 152.16 2.248 150.4 1.928C149.024 1.672 148.224 1.608 148 1.736C147.776 1.832 148.016 2.2 148.72 2.84C149.456 3.448 150.208 4.264 150.976 5.288C151.744 6.28 152.336 7.192 152.752 8.024C153.008 8.568 153.248 8.888 153.472 8.984ZM224.032 44.84C224.16 45 224.672 45 225.568 44.84C226.464 44.68 227.232 44.44 227.872 44.12C229.152 43.512 230.128 42.44 230.8 40.904C231.504 39.272 232.048 36.76 232.432 33.368C232.752 30.2 233.008 25.56 233.2 19.448C233.2 19.096 233.216 18.584 233.248 17.912C233.344 14.808 233.424 12.984 233.488 12.44C233.584 11.864 233.856 11.464 234.304 11.24C234.4 11.208 234.464 11.176 234.496 11.144C234.912 10.92 235.152 10.76 235.216 10.664C235.312 10.536 235.312 10.392 235.216 10.232C235.056 9.912 234.496 9.304 233.536 8.408C232.608 7.512 231.952 6.968 231.568 6.776C231.344 6.648 231.152 6.632 230.992 6.728C230.832 6.824 230.528 7.144 230.08 7.688C230.016 7.752 229.936 7.848 229.84 7.976C229.232 8.648 228.752 9.048 228.4 9.176C228.048 9.272 227.088 9.32 225.52 9.32C225.168 9.32 224.88 9.32 224.656 9.32C224.528 9.32 224.336 9.32 224.08 9.32C222.64 9.32 221.744 9.288 221.392 9.224C220.88 9.128 220.64 8.904 220.672 8.552C220.672 8.296 220.88 7.672 221.296 6.68C221.36 6.52 221.408 6.392 221.44 6.296C222.016 4.92 222.4 4.072 222.592 3.752C222.784 3.4 223.04 3.16 223.36 3.032C223.872 2.776 223.776 2.472 223.072 2.12C222.368 1.736 220.88 1.208 218.608 0.535997L218.56 0.487998C218.112 0.359998 217.84 0.343998 217.744 0.439999C217.68 0.535997 217.6 0.935997 217.504 1.64C217.504 1.736 217.504 1.8 217.504 1.832C216.992 6.472 215.536 11.528 213.136 17C212.24 18.952 211.664 19.864 211.408 19.736C211.184 19.576 211.056 18.248 211.024 15.752C211.024 13.768 211.072 12.584 211.168 12.2C211.264 11.784 211.616 11.4 212.224 11.048C212.704 10.792 212.816 10.472 212.56 10.088C212.336 9.672 211.616 9 210.4 8.072C209.504 7.368 208.928 7.016 208.672 7.016C208.448 7.048 208.016 7.448 207.376 8.216C206.768 8.952 205.76 9.4 204.352 9.56C202.976 9.72 202.288 9.448 202.288 8.744C202.288 8.36 202.848 7.32 203.968 5.624C205.12 3.928 205.856 3.016 206.176 2.888C206.912 2.632 206.992 2.344 206.416 2.024C205.872 1.704 204.56 1.288 202.48 0.775997C202.384 0.743998 202.256 0.711998 202.096 0.679998C201.328 0.487999 200.88 0.439999 200.752 0.535997C200.624 0.599998 200.544 0.983998 200.512 1.688C200.512 1.88 200.512 2.024 200.512 2.12C200.512 3.144 200.448 4.168 200.32 5.192C200.128 6.888 199.968 7.96 199.84 8.408C199.648 8.984 199.312 9.24 198.832 9.176C198.448 9.144 197.632 8.84 196.384 8.264C195.168 7.688 194.496 7.4 194.368 7.4C194.272 7.4 194.224 7.496 194.224 7.688C194.224 7.848 194.272 8.36 194.368 9.224C194.592 11.464 194.704 16.184 194.704 23.384C194.704 31.032 194.592 36.6 194.368 40.088C194.24 41.752 194.32 42.76 194.608 43.112C194.896 43.464 195.6 43.48 196.72 43.16C197.552 42.904 198.096 42.584 198.352 42.2C198.64 41.848 198.768 41.208 198.736 40.28V40.232C198.704 39.464 198.736 38.968 198.832 38.744C198.96 38.456 199.296 38.28 199.84 38.216C200.192 38.152 201.088 38.12 202.528 38.12C202.624 38.12 202.704 38.12 202.768 38.12C202.832 38.12 202.928 38.12 203.056 38.12C204.432 38.12 205.296 38.136 205.648 38.168C206.16 38.232 206.48 38.392 206.608 38.648C206.704 38.84 206.752 39.272 206.752 39.944V40.088C206.752 41.08 207.008 41.64 207.52 41.768C208.032 41.928 208.944 41.688 210.256 41.048C210.352 41.016 210.464 40.968 210.592 40.904C210.976 40.744 211.184 40.488 211.216 40.136C211.28 39.752 211.28 38.584 211.216 36.632C211.184 35.704 211.152 34.968 211.12 34.424C211.056 32.28 211.024 29.56 211.024 26.264C211.024 22.872 211.072 21.048 211.168 20.792C211.264 20.504 211.376 20.28 211.504 20.12C211.632 19.928 211.664 19.944 211.6 20.168C211.568 20.328 211.616 20.456 211.744 20.552C211.872 20.616 212.016 20.632 212.176 20.6C212.56 20.472 213.456 19.48 214.864 17.624C216.304 15.768 217.488 14.056 218.416 12.488C218.448 12.456 218.48 12.392 218.512 12.296C218.992 11.496 219.44 11.032 219.856 10.904C220.304 10.744 221.632 10.664 223.84 10.664C224 10.664 224.128 10.664 224.224 10.664C224.544 10.664 224.976 10.664 225.52 10.664C226.832 10.664 227.664 10.696 228.016 10.76C228.496 10.856 228.8 11.096 228.928 11.48C229.024 11.768 229.056 12.456 229.024 13.544C229.024 13.992 229.024 14.344 229.024 14.6C228.992 19.176 228.832 23.544 228.544 27.704C228.288 31.832 227.952 34.776 227.536 36.536C227.28 37.592 226.976 38.312 226.624 38.696C226.208 39.176 225.52 39.448 224.56 39.512C223.76 39.576 222.352 39.512 220.336 39.32C219.312 39.224 218.688 39.192 218.464 39.224C218.272 39.256 218.208 39.368 218.272 39.56C218.304 39.72 218.72 39.912 219.52 40.136C222.432 40.84 223.888 42.216 223.888 44.264C223.888 44.552 223.936 44.744 224.032 44.84ZM201.616 36.776C200.496 36.808 199.792 36.76 199.504 36.632C199.088 36.472 198.832 36.072 198.736 35.432C198.64 34.952 198.608 33.848 198.64 32.12C198.64 31.32 198.64 30.696 198.64 30.248C198.64 29.864 198.64 29.32 198.64 28.616C198.64 26.92 198.672 25.848 198.736 25.4C198.864 24.76 199.136 24.376 199.552 24.248C199.84 24.12 200.544 24.072 201.664 24.104C202.112 24.104 202.48 24.104 202.768 24.104C203.056 24.104 203.424 24.104 203.872 24.104C204.992 24.072 205.696 24.12 205.984 24.248C206.4 24.376 206.672 24.76 206.8 25.4C206.864 25.848 206.896 26.92 206.896 28.616C206.896 29.32 206.896 29.864 206.896 30.248C206.896 33.192 206.864 34.936 206.8 35.48C206.768 35.992 206.608 36.344 206.32 36.536C206.16 36.664 205.92 36.744 205.6 36.776C205.312 36.776 204.368 36.776 202.768 36.776C202.48 36.776 202.096 36.776 201.616 36.776ZM220.96 30.008C221.728 30.264 222.4 30.168 222.976 29.72C223.584 29.272 223.92 28.584 223.984 27.656C224.048 26.248 223.536 24.888 222.448 23.576C221.36 22.232 219.776 21.064 217.696 20.072C216.512 19.496 215.824 19.256 215.632 19.352C215.472 19.416 215.68 19.88 216.256 20.744C218.272 23.752 219.488 26.504 219.904 29C219.936 29.416 220.288 29.752 220.96 30.008ZM201.664 22.76C200.512 22.792 199.792 22.744 199.504 22.616C199.088 22.488 198.832 22.104 198.736 21.464C198.64 21.048 198.608 20.008 198.64 18.344C198.64 17.608 198.64 17.016 198.64 16.568C198.64 16.184 198.64 15.672 198.64 15.032C198.64 13.432 198.672 12.424 198.736 12.008C198.864 11.432 199.12 11.064 199.504 10.904C199.792 10.808 200.464 10.76 201.52 10.76C202 10.76 202.384 10.76 202.672 10.76C202.96 10.76 203.328 10.76 203.776 10.76C204.928 10.728 205.664 10.776 205.984 10.904C206.4 11.032 206.656 11.4 206.752 12.008C206.848 12.424 206.896 13.448 206.896 15.08C206.896 15.72 206.896 16.216 206.896 16.568C206.896 19.32 206.864 20.968 206.8 21.512C206.768 22.024 206.608 22.36 206.32 22.52C206.16 22.648 205.92 22.728 205.6 22.76C205.312 22.76 204.368 22.76 202.768 22.76C202.48 22.76 202.112 22.76 201.664 22.76ZM264.832 44.84C265.216 45.224 266.128 45.08 267.568 44.408C269.04 43.768 269.936 43.096 270.256 42.392C270.256 42.36 270.272 42.312 270.304 42.248C270.56 41.768 270.704 40.936 270.736 39.752C270.768 38.536 270.8 34.6 270.832 27.944C270.832 27.336 270.832 26.488 270.832 25.4C270.864 19.96 270.896 16.776 270.928 15.848C270.992 14.92 271.136 14.376 271.36 14.216L271.504 14.168C271.92 13.944 272.032 13.736 271.84 13.544C271.68 13.352 271.152 13.08 270.256 12.728C268.496 12.088 267.728 11.688 267.952 11.528C268.208 11.336 269.696 11.208 272.416 11.144C272.608 11.144 272.896 11.144 273.28 11.144C274.848 11.112 275.84 11.144 276.256 11.24C276.832 11.368 277.136 11.704 277.168 12.248C277.168 12.632 277.008 13.544 276.688 14.984C276.624 15.304 276.576 15.544 276.544 15.704C276.48 15.992 276.4 16.392 276.304 16.904C276.144 17.544 276.064 17.88 276.064 17.912C275.904 18.648 276.352 18.52 277.408 17.528C278.496 16.536 279.776 15.064 281.248 13.112C281.792 12.472 282.288 12.104 282.736 12.008C283.376 11.848 283.632 11.576 283.504 11.192C283.376 10.808 282.8 10.12 281.776 9.128C280.752 8.072 280.08 7.512 279.76 7.448C279.472 7.384 278.992 7.72 278.32 8.456C278.224 8.552 278.112 8.68 277.984 8.84C277.472 9.384 276.96 9.704 276.448 9.8C275.936 9.864 274.384 9.896 271.792 9.896C271.056 9.896 270.48 9.896 270.064 9.896C265.808 9.896 263.584 9.864 263.392 9.8C262.816 9.576 262.736 9 263.152 8.072C264.048 6.024 264.624 4.776 264.88 4.328C265.136 3.848 265.424 3.544 265.744 3.416C266.288 3.192 266.336 2.936 265.888 2.648C265.44 2.328 264.288 1.816 262.432 1.112C262.304 1.048 262.128 0.983997 261.904 0.919998C261.072 0.599998 260.576 0.455998 260.416 0.487998C260.288 0.519998 260.208 0.759997 260.176 1.208C260.144 1.304 260.128 1.384 260.128 1.448C259.776 4.2 259.024 7.208 257.872 10.472C256.72 13.704 255.328 16.68 253.696 19.4C253.28 20.136 253.04 20.616 252.976 20.84C252.944 21.032 253.088 21.128 253.408 21.128C253.728 21.128 254.656 20.232 256.192 18.44C257.76 16.648 259.04 15.016 260.032 13.544C260.704 12.552 261.12 11.96 261.28 11.768C261.472 11.544 261.696 11.384 261.952 11.288C262.528 11.064 263.44 11.032 264.688 11.192C265.968 11.352 266.416 11.544 266.032 11.768C265.968 11.768 265.968 11.976 266.032 12.392C266.224 13.8 266.352 15.208 266.416 16.616C266.448 18.184 266.464 21.752 266.464 27.32C266.464 28.216 266.48 29.4 266.512 30.872C266.544 34.264 266.528 36.408 266.464 37.304C266.368 38.552 266.112 39.32 265.696 39.608C265.376 39.8 264.656 39.832 263.536 39.704C262.992 39.672 262.56 39.64 262.24 39.608C260.544 39.512 259.648 39.496 259.552 39.56C259.232 39.816 259.568 40.056 260.56 40.28C261.84 40.6 262.848 41.128 263.584 41.864C264.32 42.632 264.688 43.512 264.688 44.504C264.688 44.632 264.736 44.744 264.832 44.84ZM246.496 44.792C247.296 45.144 248.384 44.968 249.76 44.264C250.432 43.944 250.816 43.672 250.912 43.448C251.008 43.224 251.024 42.552 250.96 41.432C250.768 37.752 250.672 32.776 250.672 26.504C250.672 20.2 250.768 16.888 250.96 16.568C251.056 16.344 251.216 16.152 251.44 15.992C251.92 15.736 251.776 15.24 251.008 14.504C250.496 14.024 250.24 13.64 250.24 13.352C250.272 13.032 250.576 12.248 251.152 11C251.92 9.464 252.72 7.672 253.552 5.624C254.096 4.184 254.624 3.352 255.136 3.128C255.648 2.904 255.632 2.632 255.088 2.312C254.576 1.96 253.344 1.464 251.392 0.823999C251.328 0.791998 251.216 0.759997 251.056 0.727998C250.224 0.439998 249.728 0.311997 249.568 0.343997C249.408 0.375998 249.312 0.631999 249.28 1.112C248.992 4.024 248.064 7.624 246.496 11.912C244.896 16.232 243.088 20.072 241.072 23.432C240.656 24.136 240.416 24.584 240.352 24.776C240.288 24.936 240.304 25.064 240.4 25.16C240.688 25.416 241.84 24.392 243.856 22.088C244.624 21.224 245.136 20.696 245.392 20.504C245.68 20.312 245.92 20.328 246.112 20.552C246.304 20.776 246.384 23.56 246.352 28.904C246.32 34.216 246.208 38.52 246.016 41.816C245.92 43.128 245.888 43.912 245.92 44.168C245.984 44.456 246.176 44.664 246.496 44.792ZM252.976 36.872C253.104 37 253.28 37.016 253.504 36.92C253.728 36.792 254.128 36.44 254.704 35.864C257.936 32.696 260.624 28.632 262.768 23.672C263.248 22.52 263.76 21.816 264.304 21.56C264.72 21.368 264.832 21.176 264.64 20.984C264.48 20.792 263.952 20.552 263.056 20.264C262.96 20.232 262.816 20.184 262.624 20.12C261.536 19.768 260.8 19.512 260.416 19.352C260.352 19.32 260.256 19.288 260.128 19.256C259.488 19 259.104 18.904 258.976 18.968C258.88 19 258.8 19.256 258.736 19.736C258.736 19.832 258.736 19.896 258.736 19.928C258.48 22.36 257.84 25.048 256.816 27.992C255.824 30.936 254.656 33.528 253.312 35.768C252.96 36.344 252.848 36.712 252.976 36.872ZM281.296 36.152C281.648 36.088 281.968 35.96 282.256 35.768C283.248 34.936 283.504 33.464 283.024 31.352C282.544 29.24 281.488 27.16 279.856 25.112C279.12 24.184 277.984 23.032 276.448 21.656C274.944 20.28 274.048 19.592 273.76 19.592C273.472 19.592 273.36 19.72 273.424 19.976C273.52 20.232 273.936 21.096 274.672 22.568C277.136 27.56 278.64 31.56 279.184 34.568C279.312 35.336 279.824 35.832 280.72 36.056C281.04 36.12 281.232 36.152 281.296 36.152ZM302.944 44.84C303.392 44.968 303.952 44.904 304.624 44.648C305.328 44.392 305.824 44.072 306.112 43.688C306.208 43.528 306.224 42.808 306.16 41.528C306.032 39.448 305.968 37.512 305.968 35.72C305.968 33.928 306.032 32.952 306.16 32.792C306.416 32.376 306.736 32.344 307.12 32.696C307.536 33.016 307.776 33.528 307.84 34.232C307.904 34.744 307.984 35.048 308.08 35.144C308.208 35.208 308.56 35.176 309.136 35.048C310.544 34.76 311.52 33.704 312.064 31.88C312.544 30.184 312.544 28.152 312.064 25.784C311.552 23.32 310.608 21.048 309.232 18.968C308.752 18.264 308.496 17.784 308.464 17.528C308.464 17.24 308.672 16.632 309.088 15.704C309.12 15.64 309.152 15.56 309.184 15.464C309.888 13.64 310.416 12.264 310.768 11.336C311.472 9.48 311.904 8.344 312.064 7.928C312.224 7.576 312.384 7.32 312.544 7.16C312.896 6.744 313.52 6.536 314.416 6.536C314.704 6.536 315.328 6.472 316.288 6.344C321.952 5.576 324.912 5.784 325.168 6.968C325.296 7.48 325.328 13 325.264 23.528C325.232 34.024 325.152 39.368 325.024 39.56C324.8 39.912 324.416 40.12 323.872 40.184C323.328 40.248 322.224 40.216 320.56 40.088C319.408 39.96 318.768 39.96 318.64 40.088C318.544 40.184 318.544 40.296 318.64 40.424C318.736 40.552 318.896 40.632 319.12 40.664C320.432 40.888 321.424 41.256 322.096 41.768C322.768 42.312 323.184 43.064 323.344 44.024C323.408 44.44 323.472 44.68 323.536 44.744C323.632 44.84 323.808 44.872 324.064 44.84C325.024 44.776 325.904 44.52 326.704 44.072C327.536 43.656 328.096 43.144 328.384 42.536C328.416 42.504 328.448 42.44 328.48 42.344C328.736 41.896 328.88 41.048 328.912 39.8C328.944 38.552 328.976 34.392 329.008 27.32C329.008 25.784 329.008 24.6 329.008 23.768C329.008 22.712 329.008 21.256 329.008 19.4C329.008 14.408 329.024 11.24 329.056 9.896C329.12 8.04 329.216 6.888 329.344 6.44C329.44 6.12 329.696 5.96 330.112 5.96C330.272 5.96 330.4 5.96 330.496 5.96C331.424 5.864 331.904 5.656 331.936 5.336C332 5.016 331.616 4.44 330.784 3.608C329.504 2.328 328.656 1.656 328.24 1.592C327.856 1.496 327.36 1.864 326.752 2.696C325.984 3.784 325.36 4.392 324.88 4.52C324.624 4.584 323.232 4.6 320.704 4.568C318.24 4.536 316.56 4.488 315.664 4.424C314.832 4.36 314.24 4.328 313.888 4.328C313.536 4.296 313.248 4.232 313.024 4.136C312.8 4.008 312.416 3.704 311.872 3.224C311.424 2.872 311.104 2.712 310.912 2.744C310.752 2.744 310.448 2.968 310 3.416C309.2 4.216 308.448 4.632 307.744 4.664C307.04 4.664 305.808 4.312 304.048 3.608L304 3.56C303.04 3.176 302.48 3 302.32 3.032C302.192 3.032 302.16 3.272 302.224 3.752V3.848C302.384 4.904 302.352 5.544 302.128 5.768C301.936 5.96 301.504 5.784 300.832 5.24C299.648 4.248 298.88 3.736 298.528 3.704C298.208 3.672 297.728 4.024 297.088 4.76C296.544 5.432 295.872 5.768 295.072 5.768C294.304 5.736 293.152 5.368 291.616 4.664C290.624 4.184 290.016 3.928 289.792 3.896C289.6 3.864 289.536 3.976 289.6 4.232C289.92 6.216 290.096 10.52 290.128 17.144C290.16 23.768 290.048 29.304 289.792 33.752C289.696 35.256 289.664 36.232 289.696 36.68C289.728 37.288 289.872 37.656 290.128 37.784C290.32 37.912 290.72 37.928 291.328 37.832C292.384 37.672 293.04 37.384 293.296 36.968C293.552 36.52 293.664 35.528 293.632 33.992C293.6 32.36 293.664 31.368 293.824 31.016C293.984 30.632 294.432 30.44 295.168 30.44C295.872 30.44 296.32 30.632 296.512 31.016C296.736 31.368 296.816 32.104 296.752 33.224C296.688 34.28 296.768 34.92 296.992 35.144C297.216 35.368 297.776 35.32 298.672 35C299.632 34.68 300.208 34.376 300.4 34.088C300.592 33.768 300.656 33.016 300.592 31.832C300.432 28.408 300.336 23.672 300.304 17.624C300.304 11.512 300.384 8.28 300.544 7.928C300.768 7.48 301.088 7.192 301.504 7.064C301.952 6.904 302.24 7 302.368 7.352C302.624 7.928 302.752 12.68 302.752 21.608C302.752 30.504 302.624 36.888 302.368 40.76C302.24 42.648 302.192 43.768 302.224 44.12C302.288 44.472 302.528 44.712 302.944 44.84ZM313.744 33.08C313.968 33.304 314.384 33.352 314.992 33.224C315.6 33.096 316.096 32.856 316.48 32.504C316.64 32.344 316.736 32.2 316.768 32.072C316.8 31.944 316.8 31.576 316.768 30.968C316.704 30.072 316.784 29.48 317.008 29.192C317.232 28.872 317.648 28.728 318.256 28.76C318.768 28.792 319.104 28.952 319.264 29.24C319.424 29.496 319.488 29.976 319.456 30.68C319.424 31.48 319.52 31.976 319.744 32.168C319.968 32.328 320.464 32.264 321.232 31.976C321.328 31.944 321.456 31.896 321.616 31.832C322.096 31.704 322.4 31.56 322.528 31.4C322.688 31.176 322.784 30.728 322.816 30.056C322.816 29.576 322.784 28.472 322.72 26.744C322.688 26.104 322.672 25.592 322.672 25.208C322.512 21.112 322.48 18.264 322.576 16.664C322.704 15.064 322.992 14.104 323.44 13.784C323.792 13.528 323.904 13.256 323.776 12.968C323.648 12.648 323.248 12.2 322.576 11.624C321.84 10.984 321.344 10.648 321.088 10.616C320.832 10.552 320.496 10.776 320.08 11.288C319.44 12.088 318.768 12.504 318.064 12.536C317.392 12.536 316.288 12.184 314.752 11.48C313.92 11.128 313.472 10.952 313.408 10.952C313.312 10.952 313.264 11.032 313.264 11.192C313.264 11.352 313.312 11.88 313.408 12.776C313.568 14.504 313.68 16.952 313.744 20.12C313.808 23.352 313.776 25.864 313.648 27.656C313.488 29.896 313.408 31.32 313.408 31.928C313.44 32.536 313.552 32.92 313.744 33.08ZM308.224 31.16C307.68 31.416 307.2 31.48 306.784 31.352C306.368 31.224 306.096 30.936 305.968 30.488C305.904 30.168 305.872 26.2 305.872 18.584C305.872 10.968 305.92 7.032 306.016 6.776C306.208 6.136 306.736 5.848 307.6 5.912C308.496 5.944 308.96 6.28 308.992 6.92C309.024 7.176 308.88 8.28 308.56 10.232C308.24 12.184 307.92 14.008 307.6 15.704C307.376 16.728 307.264 17.368 307.264 17.624C307.264 17.848 307.36 18.168 307.552 18.584C308.576 20.952 309.152 23.544 309.28 26.36C309.44 29.144 309.088 30.744 308.224 31.16ZM296.272 28.856C295.92 29.112 295.44 29.208 294.832 29.144C294.256 29.048 293.888 28.824 293.728 28.472C293.6 28.216 293.536 24.76 293.536 18.104C293.568 11.416 293.648 7.944 293.776 7.688C294 7.24 294.448 7.016 295.12 7.016C295.792 7.016 296.288 7.224 296.608 7.64C296.704 7.768 296.752 8.264 296.752 9.128C296.784 9.96 296.816 12.872 296.848 17.864C296.848 23.176 296.816 26.296 296.752 27.224C296.72 28.12 296.56 28.664 296.272 28.856ZM319.024 27.128C318.704 27.352 318.304 27.432 317.824 27.368C317.344 27.272 317.024 27.064 316.864 26.744C316.736 26.488 316.672 24.44 316.672 20.6C316.672 16.728 316.736 14.68 316.864 14.456C317.088 13.976 317.536 13.768 318.208 13.832C318.88 13.864 319.296 14.136 319.456 14.648C319.552 14.904 319.6 16.888 319.6 20.6C319.6 24.312 319.552 26.296 319.456 26.552C319.424 26.776 319.28 26.968 319.024 27.128ZM0.736 117.936C0.832 117.936 1.52 117.6 2.8 116.928C6.032 115.136 8.752 112.704 10.96 109.632C11.472 108.928 11.872 108.592 12.16 108.624C12.448 108.656 12.8 109.072 13.216 109.872C14.144 111.696 15.232 113.12 16.48 114.144C17.76 115.2 19.328 115.952 21.184 116.4C23.104 116.88 26.928 117.12 32.656 117.12C38.384 117.12 41.296 116.88 41.392 116.4C41.648 115.056 42.192 114.16 43.024 113.712C43.504 113.52 43.648 113.328 43.456 113.136C43.392 113.072 41.408 113.024 37.504 112.992C36.192 112.992 35.152 112.992 34.384 112.992C33.552 112.992 32.448 112.992 31.072 112.992C28.608 113.024 27.056 113.008 26.416 112.944C25.488 112.848 24.912 112.624 24.688 112.272C24.528 112.016 24.464 111.424 24.496 110.496C24.496 109.984 24.496 109.568 24.496 109.248C24.496 108.928 24.48 108.496 24.448 107.952C24.416 106.8 24.464 106.08 24.592 105.792C24.752 105.376 25.2 105.104 25.936 104.976C26.448 104.912 27.68 104.88 29.632 104.88C30.56 104.88 31.296 104.88 31.84 104.88C35.424 104.848 37.52 104.816 38.128 104.784C38.736 104.72 39.072 104.544 39.136 104.256C39.2 104.032 38.88 103.536 38.176 102.768C37.472 102 36.64 101.248 35.68 100.512L35.632 100.464C34.992 100.016 34.56 99.84 34.336 99.936C34.144 100 33.712 100.496 33.04 101.424C32.976 101.488 32.912 101.584 32.848 101.712C32.208 102.64 31.712 103.184 31.36 103.344C31.04 103.472 30.144 103.536 28.672 103.536C28.416 103.536 28.208 103.536 28.048 103.536C27.92 103.536 27.728 103.536 27.472 103.536C25.968 103.504 25.088 103.376 24.832 103.152C24.608 102.928 24.496 102.112 24.496 100.704C24.496 100.512 24.496 100.352 24.496 100.224C24.496 99.968 24.48 99.632 24.448 99.216C24.416 98.352 24.48 97.808 24.64 97.584C24.864 97.264 25.456 97.072 26.416 97.008C27.056 96.944 28.64 96.912 31.168 96.912C32.288 96.912 33.184 96.912 33.856 96.912C37.248 96.88 39.408 96.864 40.336 96.864C41.584 96.832 42.384 96.784 42.736 96.72C42.96 96.656 43.104 96.512 43.168 96.288C43.328 95.776 42.352 94.672 40.24 92.976C39.408 92.304 38.864 92 38.608 92.064C38.352 92.128 37.872 92.688 37.168 93.744L37.024 93.888C36.672 94.4 36.416 94.72 36.256 94.848C36.224 94.88 36.192 94.928 36.16 94.992C36 95.216 35.76 95.36 35.44 95.424C34.992 95.488 33.984 95.52 32.416 95.52C31.296 95.552 28.672 95.552 24.544 95.52C22.4 95.52 20.688 95.52 19.408 95.52C8.24 95.52 2.096 95.424 0.976 95.232C0.72 95.168 0.592 95.216 0.592 95.376C0.624 95.536 0.768 95.872 1.024 96.384C1.056 96.448 1.104 96.544 1.168 96.672C1.392 97.088 1.568 97.328 1.696 97.392C1.856 97.456 2.256 97.44 2.896 97.344C3.088 97.312 3.232 97.296 3.328 97.296C5.44 97.04 8.736 96.912 13.216 96.912C16.352 96.912 18.192 96.944 18.736 97.008C19.312 97.04 19.68 97.216 19.84 97.536C19.968 97.824 20.016 100.176 19.984 104.592C19.984 108.976 19.92 111.28 19.792 111.504C19.44 112.208 18.496 112.112 16.96 111.216C15.424 110.288 14.224 109.12 13.36 107.712C12.976 107.072 12.992 106.272 13.408 105.312C13.728 104.512 13.968 103.872 14.128 103.392C14.416 102.592 14.64 102.064 14.8 101.808C14.992 101.52 15.216 101.328 15.472 101.232C16.016 100.976 15.984 100.704 15.376 100.416C14.768 100.096 13.472 99.712 11.488 99.264C10.592 99.04 10.048 98.944 9.856 98.976C9.696 99.008 9.616 99.152 9.616 99.408C9.616 102.448 8.816 105.6 7.216 108.864C5.648 112.128 3.648 114.752 1.216 116.736C0.8 117.088 0.544 117.328 0.448 117.456C0.384 117.616 0.432 117.744 0.592 117.84C0.656 117.872 0.704 117.904 0.736 117.936ZM9.088 93.984C9.76 94.112 10.608 93.968 11.632 93.552C12.656 93.104 13.168 92.672 13.168 92.256C13.168 92.064 13.232 91.856 13.36 91.632C13.52 91.408 13.68 91.264 13.84 91.2C14 91.104 16.768 91.056 22.144 91.056C27.52 91.056 30.288 91.104 30.448 91.2C30.8 91.36 31.024 91.808 31.12 92.544C31.152 93.44 32.048 93.584 33.808 92.976C33.936 92.944 34.112 92.896 34.336 92.832C34.944 92.64 35.328 92.464 35.488 92.304C35.712 92.08 35.84 91.632 35.872 90.96C35.872 90.512 35.84 89.44 35.776 87.744C35.744 87.104 35.728 86.592 35.728 86.208C35.632 82.944 35.616 80.912 35.68 80.112C35.744 79.28 35.984 78.752 36.4 78.528C36.976 78.176 37.296 77.936 37.36 77.808C37.456 77.68 37.408 77.488 37.216 77.232C36.992 76.912 36.432 76.4 35.536 75.696C34.64 74.96 33.952 74.48 33.472 74.256C33.216 74.128 32.976 74.112 32.752 74.208C32.56 74.304 32.24 74.624 31.792 75.168C31.728 75.232 31.632 75.344 31.504 75.504C31.088 76.048 30.576 76.368 29.968 76.464C29.36 76.528 27.424 76.56 24.16 76.56C23.232 76.56 22.496 76.56 21.952 76.56C21.376 76.56 20.576 76.56 19.552 76.56C16.48 76.56 14.592 76.528 13.888 76.464C13.216 76.368 12.352 76.096 11.296 75.648C11.008 75.488 10.768 75.376 10.576 75.312C10.416 75.248 10.208 75.168 9.952 75.072C9.056 74.656 8.528 74.48 8.368 74.544C8.24 74.608 8.208 74.992 8.272 75.696C8.304 75.888 8.32 76.032 8.32 76.128C8.48 78.016 8.592 80.368 8.656 83.184C8.72 86.096 8.688 88.528 8.56 90.48C8.464 92.016 8.432 92.976 8.464 93.36C8.528 93.712 8.736 93.92 9.088 93.984ZM22.384 89.712C16.976 89.776 14.144 89.744 13.888 89.616C13.472 89.456 13.216 88.688 13.12 87.312C13.056 85.936 13.216 85.072 13.6 84.72C13.792 84.528 16.64 84.432 22.144 84.432C27.648 84.432 30.496 84.528 30.688 84.72C31.008 85.008 31.168 85.792 31.168 87.072C31.168 88.352 31.008 89.136 30.688 89.424C30.56 89.552 27.792 89.648 22.384 89.712ZM22.384 83.088C16.976 83.152 14.144 83.12 13.888 82.992C13.408 82.8 13.152 82.016 13.12 80.64C13.088 79.264 13.296 78.432 13.744 78.144C14 77.952 16.8 77.856 22.144 77.856C27.52 77.856 30.32 77.952 30.544 78.144C30.928 78.368 31.136 79.12 31.168 80.4C31.2 81.648 31.04 82.448 30.688 82.8C30.56 82.928 27.792 83.024 22.384 83.088ZM67.696 117.84C68.112 118.096 68.784 118.096 69.712 117.84C70.64 117.584 71.376 117.2 71.92 116.688C72.144 116.464 72.272 116.256 72.304 116.064C72.336 115.904 72.32 115.408 72.256 114.576C72.096 110.416 72.016 106.72 72.016 103.488C72.048 100.96 72.16 99.584 72.352 99.36C72.576 99.104 73.104 99.728 73.936 101.232C77.104 106.96 81.36 111.296 86.704 114.24C87.216 114.56 87.552 114.72 87.712 114.72C87.872 114.72 87.984 114.592 88.048 114.336C88.24 113.696 88.592 113.072 89.104 112.464C89.648 111.856 90.208 111.424 90.784 111.168C91.296 110.912 91.52 110.736 91.456 110.64C91.424 110.512 91.024 110.304 90.256 110.016C87.12 108.896 84.192 107.408 81.472 105.552C78.752 103.664 76.464 101.6 74.608 99.36C74.064 98.688 73.728 98.224 73.6 97.968C73.504 97.68 73.552 97.424 73.744 97.2C73.84 97.072 74.24 97.008 74.944 97.008C75.648 96.976 78.08 96.944 82.24 96.912C82.624 96.912 83.136 96.912 83.776 96.912C86.464 96.88 88.176 96.864 88.912 96.864C89.904 96.832 90.528 96.784 90.784 96.72C90.976 96.656 91.088 96.512 91.12 96.288V96.192C91.152 95.904 90.416 95.12 88.912 93.84C87.44 92.56 86.528 91.92 86.176 91.92C85.92 91.92 85.408 92.448 84.64 93.504C84.544 93.632 84.432 93.792 84.304 93.984C83.728 94.784 83.216 95.248 82.768 95.376C82.32 95.504 81.024 95.568 78.88 95.568C78.336 95.568 77.904 95.568 77.584 95.568C77.136 95.568 76.528 95.568 75.76 95.568C74.352 95.6 73.472 95.552 73.12 95.424C72.576 95.296 72.24 94.944 72.112 94.368C72.048 93.952 72.016 92.96 72.016 91.392C72.016 90.528 72.016 89.84 72.016 89.328C72.016 88.944 72.016 88.4 72.016 87.696C72.016 85.872 72.048 84.704 72.112 84.192C72.176 83.52 72.384 83.104 72.736 82.944C72.992 82.816 73.6 82.768 74.56 82.8C74.912 82.8 75.2 82.8 75.424 82.8C75.488 82.8 75.584 82.8 75.712 82.8C77.344 82.8 78.272 82.88 78.496 83.04C78.72 83.168 78.72 83.648 78.496 84.48V84.576C77.696 87.68 76.736 90.4 75.616 92.736C74.88 94.304 74.896 94.848 75.664 94.368C77.52 93.12 79.52 91.264 81.664 88.8C82.752 87.552 83.504 86.848 83.92 86.688C84.464 86.496 84.672 86.304 84.544 86.112C84.448 85.888 83.968 85.6 83.104 85.248C80.736 84.288 79.648 83.648 79.84 83.328C80.064 83.008 81.664 82.832 84.64 82.8C86.848 82.768 88.144 82.736 88.528 82.704C88.944 82.64 89.184 82.48 89.248 82.224C89.408 81.776 88.384 80.704 86.176 79.008L86.08 78.96C85.248 78.288 84.704 77.968 84.448 78C84.192 78.032 83.728 78.496 83.056 79.392C82.992 79.488 82.944 79.552 82.912 79.584C82.816 79.68 82.704 79.824 82.576 80.016C82.064 80.752 81.616 81.184 81.232 81.312C80.848 81.408 79.808 81.456 78.112 81.456C77.6 81.456 77.2 81.456 76.912 81.456C76.688 81.456 76.368 81.456 75.952 81.456C74.48 81.456 73.552 81.44 73.168 81.408C72.624 81.312 72.288 81.12 72.16 80.832C72.064 80.64 72.016 80.144 72.016 79.344C72.016 79.12 72.016 78.944 72.016 78.816C72.016 77.792 72.064 77.12 72.16 76.8C72.256 76.448 72.464 76.16 72.784 75.936C73.264 75.616 73.184 75.296 72.544 74.976C71.904 74.624 70.592 74.192 68.608 73.68C68.544 73.68 68.464 73.664 68.368 73.632C67.76 73.472 67.408 73.424 67.312 73.488C67.248 73.552 67.232 73.856 67.264 74.4C67.296 74.496 67.312 74.576 67.312 74.64C67.536 76.912 67.632 78.528 67.6 79.488C67.568 80.416 67.392 81.008 67.072 81.264C66.848 81.424 64.688 81.504 60.592 81.504C56.464 81.472 53.44 81.376 51.52 81.216C51.104 81.152 50.88 81.168 50.848 81.264C50.816 81.36 50.944 81.712 51.232 82.32C51.264 82.384 51.296 82.464 51.328 82.56C51.552 83.04 51.728 83.312 51.856 83.376C52.016 83.44 52.384 83.424 52.96 83.328C53.056 83.296 53.136 83.28 53.2 83.28C54.16 83.152 54.976 83.088 55.648 83.088C56.512 83.088 57.152 83.04 57.568 82.944C58.176 82.816 59.824 82.768 62.512 82.8C65.2 82.8 66.688 82.88 66.976 83.04C67.296 83.168 67.472 83.504 67.504 84.048C67.568 84.56 67.6 86.32 67.6 89.328C67.568 92.112 67.536 93.744 67.504 94.224C67.472 94.704 67.376 95.024 67.216 95.184C66.992 95.408 64.528 95.536 59.824 95.568C55.152 95.6 51.664 95.52 49.36 95.328C48.944 95.296 48.72 95.328 48.688 95.424C48.656 95.52 48.816 95.888 49.168 96.528C49.2 96.592 49.248 96.672 49.312 96.768C49.536 97.152 49.712 97.376 49.84 97.44C50 97.472 50.432 97.44 51.136 97.344C51.264 97.312 51.36 97.296 51.424 97.296C53.312 97.04 55.824 96.896 58.96 96.864C62.096 96.832 63.776 96.928 64 97.152C64.224 97.376 64.288 97.664 64.192 98.016C64.096 98.336 63.776 98.928 63.232 99.792C61.472 102.672 59.328 105.44 56.8 108.096C54.304 110.72 51.776 112.864 49.216 114.528C48.8 114.784 48.544 114.96 48.448 115.056C48.384 115.152 48.416 115.264 48.544 115.392C48.672 115.552 48.832 115.6 49.024 115.536C49.248 115.472 49.856 115.2 50.848 114.72C53.824 113.248 56.464 111.648 58.768 109.92C61.104 108.16 63.424 106.032 65.728 103.536C66.24 102.96 66.592 102.624 66.784 102.528C67.008 102.4 67.2 102.416 67.36 102.576C67.52 102.736 67.6 104.256 67.6 107.136C67.6 110.048 67.504 112.88 67.312 115.632C67.248 116.496 67.232 117.04 67.264 117.264C67.296 117.488 67.44 117.68 67.696 117.84ZM60.352 93.984C61.344 94.464 62.16 94.4 62.8 93.792C63.376 93.216 63.632 92.352 63.568 91.2C63.504 89.984 63.072 88.832 62.272 87.744C61.728 87.008 60.88 86.224 59.728 85.392C58.64 84.624 57.728 84.112 56.992 83.856C56.192 83.568 55.984 83.728 56.368 84.336C57.008 85.392 57.616 86.704 58.192 88.272C58.768 89.808 59.152 91.152 59.344 92.304C59.44 92.88 59.536 93.264 59.632 93.456C59.728 93.616 59.968 93.792 60.352 93.984ZM104.224 117.648C105.184 117.84 106.112 117.664 107.008 117.12C107.904 116.608 108.336 115.984 108.304 115.248C108.304 115.152 108.304 114.992 108.304 114.768C108.272 114.192 108.336 113.824 108.496 113.664C108.752 113.472 109.392 113.344 110.416 113.28C111.152 113.248 112.912 113.232 115.696 113.232C116.688 113.232 117.472 113.232 118.048 113.232C118.72 113.232 119.616 113.232 120.736 113.232C123.456 113.232 125.168 113.248 125.872 113.28C126.896 113.344 127.52 113.488 127.744 113.712C127.904 113.872 127.952 114.256 127.888 114.864C127.856 115.12 127.84 115.312 127.84 115.44C127.808 116.464 127.952 117.072 128.272 117.264C128.624 117.488 129.344 117.408 130.432 117.024C131.648 116.608 132.368 116.224 132.592 115.872C132.848 115.552 132.944 114.784 132.88 113.568C132.752 110.752 132.656 104.848 132.592 95.856C132.528 86.864 132.56 82.064 132.688 81.456C132.816 80.944 133.216 80.496 133.888 80.112C134.304 79.888 134.432 79.616 134.272 79.296C134.112 78.976 133.552 78.416 132.592 77.616C131.312 76.528 130.496 75.984 130.144 75.984C129.792 75.952 129.2 76.416 128.368 77.376C128.336 77.44 128.272 77.52 128.176 77.616C127.952 77.936 127.712 78.144 127.456 78.24C127.104 78.336 126.4 78.4 125.344 78.432C124.608 78.464 122.864 78.48 120.112 78.48C119.216 78.48 118.512 78.48 118 78.48C117.52 78.48 116.864 78.48 116.032 78.48C112.384 78.48 110.16 78.448 109.36 78.384C108.592 78.32 107.696 78.064 106.672 77.616C106.352 77.456 106.096 77.344 105.904 77.28C104.336 76.608 103.504 76.272 103.408 76.272C103.312 76.272 103.36 77.248 103.552 79.2C103.68 80.256 103.744 85.024 103.744 93.504C103.776 103.744 103.68 110.72 103.456 114.432C103.36 115.584 103.312 116.352 103.312 116.736C103.312 116.928 103.408 117.104 103.6 117.264C103.792 117.456 104 117.584 104.224 117.648ZM127.264 111.744C127.008 111.872 123.952 111.92 118.096 111.888C112.272 111.888 109.216 111.824 108.928 111.696L108.88 111.648C108.592 111.52 108.416 111.2 108.352 110.688C108.32 110.144 108.304 108.368 108.304 105.36C108.304 104.784 108.304 104.336 108.304 104.016C108.304 100.4 108.32 98.272 108.352 97.632C108.416 96.992 108.592 96.576 108.88 96.384C109.136 96.224 112.224 96.16 118.144 96.192C124.096 96.224 127.184 96.32 127.408 96.48C127.696 96.672 127.856 97.088 127.888 97.728C127.952 98.368 127.984 100.544 127.984 104.256C127.984 104.544 127.984 104.96 127.984 105.504C127.952 108.48 127.904 110.224 127.84 110.736C127.808 111.248 127.648 111.568 127.36 111.696L127.264 111.744ZM127.264 94.752C127.008 94.88 123.952 94.928 118.096 94.896C112.272 94.896 109.2 94.832 108.88 94.704C108.592 94.544 108.416 94.208 108.352 93.696C108.32 93.184 108.304 91.488 108.304 88.608C108.304 88.064 108.304 87.632 108.304 87.312C108.304 83.824 108.32 81.776 108.352 81.168C108.416 80.56 108.592 80.16 108.88 79.968C109.136 79.808 112.224 79.744 118.144 79.776C124.096 79.808 127.184 79.904 127.408 80.064C127.696 80.256 127.856 80.672 127.888 81.312C127.952 81.92 127.984 84 127.984 87.552C127.984 87.84 127.984 88.24 127.984 88.752C127.952 91.6 127.904 93.28 127.84 93.792C127.808 94.272 127.648 94.576 127.36 94.704L127.264 94.752ZM164.704 117.648C165.44 118.032 166.32 117.92 167.344 117.312C168.4 116.704 168.912 116 168.88 115.2C168.88 115.136 168.88 115.04 168.88 114.912C168.848 114.24 168.896 113.824 169.024 113.664C169.184 113.408 169.632 113.248 170.368 113.184C170.88 113.152 172.08 113.136 173.968 113.136C174.32 113.136 174.576 113.136 174.736 113.136C175.024 113.136 175.44 113.136 175.984 113.136C177.712 113.136 178.816 113.152 179.296 113.184C179.936 113.248 180.32 113.408 180.448 113.664C180.576 113.856 180.608 114.304 180.544 115.008C180.544 115.2 180.544 115.36 180.544 115.488C180.512 116.544 180.592 117.168 180.784 117.36C181.008 117.584 181.552 117.6 182.416 117.408C184.464 116.928 185.44 116.064 185.344 114.816C185.12 111.392 185.008 104.8 185.008 95.04C185.008 85.28 185.12 80.24 185.344 79.92C185.568 79.632 185.792 79.44 186.016 79.344C186.624 79.024 186.848 78.704 186.688 78.384C186.56 78.032 185.968 77.408 184.912 76.512C183.792 75.584 183.072 75.12 182.752 75.12C182.432 75.12 181.856 75.584 181.024 76.512C180.992 76.544 180.944 76.608 180.88 76.704C180.528 77.12 180.144 77.36 179.728 77.424C179.312 77.488 178.016 77.52 175.84 77.52C175.264 77.52 174.816 77.52 174.496 77.52C174.208 77.52 173.824 77.52 173.344 77.52C171.2 77.52 169.856 77.488 169.312 77.424C168.8 77.36 168.032 77.104 167.008 76.656C166.72 76.496 166.48 76.384 166.288 76.32C166.16 76.256 166 76.192 165.808 76.128C164.88 75.712 164.336 75.52 164.176 75.552C164.048 75.584 164.016 75.904 164.08 76.512C164.112 76.64 164.128 76.736 164.128 76.8C164.288 78.208 164.384 79.712 164.416 81.312C164.448 82.688 164.48 86.24 164.512 91.968C164.512 92.192 164.512 92.368 164.512 92.496C164.544 103.12 164.448 110.176 164.224 113.664C164.096 115.456 164.048 116.512 164.08 116.832C164.144 117.152 164.352 117.424 164.704 117.648ZM152.272 117.936C152.72 118.096 153.36 118.048 154.192 117.792C155.056 117.568 155.744 117.248 156.256 116.832C156.448 116.704 156.544 116.48 156.544 116.16C156.576 115.872 156.56 114.88 156.496 113.184C156.368 110.432 156.304 106.48 156.304 101.328C156.336 96.176 156.416 93.52 156.544 93.36C156.864 93.008 157.408 93.456 158.176 94.704C158.944 95.92 159.472 97.2 159.76 98.544C159.92 99.184 160.352 99.584 161.056 99.744C161.792 99.904 162.368 99.728 162.784 99.216C163.648 98.192 163.616 96.928 162.688 95.424C161.76 93.92 160.192 92.624 157.984 91.536C157.184 91.12 156.704 90.8 156.544 90.576C156.384 90.32 156.304 89.728 156.304 88.8C156.304 88.768 156.304 88.72 156.304 88.656C156.304 87.856 156.352 87.344 156.448 87.12C156.576 86.832 156.88 86.64 157.36 86.544C157.712 86.512 158.544 86.48 159.856 86.448C159.952 86.448 160.032 86.448 160.096 86.448C162.24 86.416 163.408 86.24 163.6 85.92C163.792 85.6 163.216 84.784 161.872 83.472C160.88 82.48 160.24 81.984 159.952 81.984C159.664 81.952 159.248 82.352 158.704 83.184C158.256 83.952 157.904 84.448 157.648 84.672C157.392 84.896 157.12 84.944 156.832 84.816C156.352 84.656 156.128 83.28 156.16 80.688C156.224 78.064 156.512 76.528 157.024 76.08C157.44 75.664 157.376 75.312 156.832 75.024C156.288 74.704 154.976 74.288 152.896 73.776C152.864 73.776 152.816 73.76 152.752 73.728C152.112 73.568 151.744 73.536 151.648 73.632C151.552 73.696 151.552 74.064 151.648 74.736C151.648 74.8 151.648 74.848 151.648 74.88C151.808 76.416 151.92 78.272 151.984 80.448C152.08 82.624 152.08 83.888 151.984 84.24C151.824 84.72 151.248 85.008 150.256 85.104C149.264 85.2 147.632 85.12 145.36 84.864C145.008 84.832 144.816 84.864 144.784 84.96C144.784 85.056 144.944 85.424 145.264 86.064C145.296 86.128 145.344 86.224 145.408 86.352C145.6 86.736 145.76 86.944 145.888 86.976C146.016 87.008 146.368 86.96 146.944 86.832C147.104 86.8 147.232 86.768 147.328 86.736C148.768 86.416 149.776 86.368 150.352 86.592C150.928 86.816 151.152 87.328 151.024 88.128C150.608 90.56 149.792 93.472 148.576 96.864C147.36 100.256 146.128 103.024 144.88 105.168C144.528 105.808 144.32 106.224 144.256 106.416C144.224 106.576 144.272 106.72 144.4 106.848C144.624 107.04 145.264 106.528 146.32 105.312C147.408 104.064 148.592 102.48 149.872 100.56C150.576 99.536 151.056 98.928 151.312 98.736C151.568 98.512 151.76 98.592 151.888 98.976C152.016 99.296 152.064 101.216 152.032 104.736C152 108.224 151.904 111.296 151.744 113.952C151.616 115.776 151.568 116.864 151.6 117.216C151.664 117.568 151.888 117.808 152.272 117.936ZM179.968 111.648C179.712 111.776 177.968 111.824 174.736 111.792C171.536 111.792 169.808 111.728 169.552 111.6C169.232 111.44 169.04 111.152 168.976 110.736C168.912 110.32 168.88 108.928 168.88 106.56C168.88 106.144 168.88 105.6 168.88 104.928C168.848 103.616 168.88 102.784 168.976 102.432C169.104 101.92 169.456 101.616 170.032 101.52C170.448 101.424 171.408 101.392 172.912 101.424C173.68 101.424 174.304 101.424 174.784 101.424C175.232 101.424 175.824 101.424 176.56 101.424C178.128 101.392 179.12 101.424 179.536 101.52C180.112 101.648 180.464 101.968 180.592 102.48C180.688 102.864 180.72 103.776 180.688 105.216C180.688 105.888 180.688 106.416 180.688 106.8C180.656 109.04 180.608 110.368 180.544 110.784C180.512 111.2 180.32 111.488 179.968 111.648ZM179.968 99.936C179.712 100.064 177.968 100.112 174.736 100.08C171.536 100.08 169.808 100.016 169.552 99.888C169.232 99.76 169.04 99.488 168.976 99.072C168.912 98.656 168.88 97.312 168.88 95.04C168.88 94.656 168.88 94.144 168.88 93.504C168.848 92.224 168.88 91.408 168.976 91.056C169.104 90.576 169.456 90.288 170.032 90.192C170.448 90.096 171.424 90.064 172.96 90.096C173.728 90.096 174.336 90.096 174.784 90.096C175.232 90.096 175.808 90.096 176.512 90.096C178.08 90.064 179.072 90.096 179.488 90.192C180.064 90.32 180.432 90.64 180.592 91.152C180.688 91.504 180.72 92.368 180.688 93.744C180.688 94.384 180.688 94.896 180.688 95.28C180.656 97.424 180.608 98.704 180.544 99.12C180.512 99.504 180.32 99.776 179.968 99.936ZM179.968 88.608C179.712 88.736 177.968 88.784 174.736 88.752C171.536 88.752 169.808 88.688 169.552 88.56C169.232 88.432 169.04 88.16 168.976 87.744C168.912 87.328 168.88 86 168.88 83.76C168.88 83.376 168.88 82.864 168.88 82.224C168.848 80.944 168.88 80.144 168.976 79.824C169.104 79.344 169.456 79.056 170.032 78.96C170.448 78.864 171.424 78.832 172.96 78.864C173.728 78.864 174.336 78.864 174.784 78.864C175.232 78.864 175.824 78.864 176.56 78.864C178.096 78.832 179.072 78.864 179.488 78.96C180.064 79.088 180.432 79.392 180.592 79.872C180.688 80.256 180.72 81.12 180.688 82.464C180.688 83.104 180.688 83.616 180.688 84C180.656 86.144 180.608 87.408 180.544 87.792C180.512 88.176 180.32 88.448 179.968 88.608ZM208.432 116.976C210.672 117.136 213.68 117.136 217.456 116.976C221.232 116.848 223.584 116.64 224.512 116.352C225.632 116 226.32 115.456 226.576 114.72C226.832 113.984 226.56 113.328 225.76 112.752C225.312 112.432 225.024 112.016 224.896 111.504C224.8 110.96 224.752 109.856 224.752 108.192C224.752 107.488 224.72 107.04 224.656 106.848C224.624 106.656 224.544 106.576 224.416 106.608C224.288 106.64 224.048 107.28 223.696 108.528C223.632 108.688 223.552 108.928 223.456 109.248C223.072 110.592 222.752 111.44 222.496 111.792C222.176 112.304 221.6 112.608 220.768 112.704C220.16 112.8 218.8 112.848 216.688 112.848C216.144 112.848 215.728 112.848 215.44 112.848C215.024 112.848 214.48 112.848 213.808 112.848C211.92 112.88 210.72 112.832 210.208 112.704C209.536 112.576 209.104 112.24 208.912 111.696C208.816 111.28 208.784 110.32 208.816 108.816C208.816 108.24 208.816 107.776 208.816 107.424C208.848 105.376 208.896 104.128 208.96 103.68C209.024 103.2 209.2 102.88 209.488 102.72C210.256 102.304 209.456 101.744 207.088 101.04C205.776 100.688 204.96 100.496 204.64 100.464C204.32 100.4 204.192 100.48 204.256 100.704C204.416 101.216 204.528 103.936 204.592 108.864C204.624 111.68 204.704 113.504 204.832 114.336C204.96 115.424 205.28 116.128 205.792 116.448C206.208 116.704 207.088 116.88 208.432 116.976ZM194.512 113.856C195.824 114.336 197.04 113.952 198.16 112.704C199.216 111.52 199.904 109.904 200.224 107.856C200.576 105.68 200.416 103.616 199.744 101.664C199.616 101.312 199.472 101.136 199.312 101.136C199.12 101.136 199.024 101.312 199.024 101.664C199.024 102.912 198.608 104.272 197.776 105.744C196.976 107.216 195.984 108.4 194.8 109.296C193.744 110.128 193.184 111.008 193.12 111.936C193.056 112.864 193.52 113.504 194.512 113.856ZM232.096 113.232C232.96 113.552 233.68 113.44 234.256 112.896C234.832 112.352 235.168 111.584 235.264 110.592C235.328 109.504 235.088 108.432 234.544 107.376C233.52 105.296 231.584 103.552 228.736 102.144C227.04 101.312 225.888 100.864 225.28 100.8C224.672 100.704 224.72 101.024 225.424 101.76C228.304 104.768 230.144 108.32 230.944 112.416C231.008 112.736 231.392 113.008 232.096 113.232ZM217.12 106.56C217.952 106.848 218.656 106.768 219.232 106.32C219.84 105.84 220.144 105.152 220.144 104.256C220.144 102.944 219.504 101.728 218.224 100.608C216.944 99.456 215.216 98.576 213.04 97.968C211.44 97.52 210.544 97.36 210.352 97.488C210.192 97.616 210.56 98.128 211.456 99.024C213.536 101.168 215.04 103.2 215.968 105.12C216 105.152 216.032 105.216 216.064 105.312C216.32 105.824 216.496 106.144 216.592 106.272C216.688 106.368 216.864 106.464 217.12 106.56ZM213.904 95.328C219.152 95.328 222.416 95.312 223.696 95.28C226.608 95.152 228.576 94.912 229.6 94.56C230.656 94.208 231.184 93.584 231.184 92.688C231.184 92.24 231.056 91.888 230.8 91.632C230.576 91.376 230.144 91.136 229.504 90.912C229.056 90.752 228.72 90.688 228.496 90.72C228.272 90.72 227.792 90.8 227.056 90.96C226.256 91.12 225.12 91.232 223.648 91.296C222.208 91.328 219.28 91.344 214.864 91.344C214.512 91.344 214 91.344 213.328 91.344C209.712 91.312 207.584 91.28 206.944 91.248C206.304 91.184 205.888 91.008 205.696 90.72L205.6 90.624C205.472 90.464 205.392 89.184 205.36 86.784C205.328 84.352 205.376 82.976 205.504 82.656C205.504 82.624 205.52 82.576 205.552 82.512C205.616 82.32 205.792 82.192 206.08 82.128C206.528 82.064 207.584 82.016 209.248 81.984C210.432 81.984 213.232 81.968 217.648 81.936C218.768 81.936 219.632 81.936 220.24 81.936C220.848 81.936 221.712 81.936 222.832 81.936C227.312 81.904 230.144 81.888 231.328 81.888C232.992 81.856 234.032 81.808 234.448 81.744C234.736 81.68 234.864 81.552 234.832 81.36V81.216C234.832 80.96 234.272 80.32 233.152 79.296C232.032 78.24 231.168 77.568 230.56 77.28C230.304 77.184 230.096 77.2 229.936 77.328C229.808 77.456 229.488 77.856 228.976 78.528C228.88 78.656 228.752 78.832 228.592 79.056C228.016 79.824 227.52 80.272 227.104 80.4C226.688 80.528 225.472 80.592 223.456 80.592C222.784 80.592 222.256 80.592 221.872 80.592C221.584 80.592 221.168 80.592 220.624 80.592C218.896 80.592 217.808 80.576 217.36 80.544C216.72 80.48 216.32 80.32 216.16 80.064C216.064 79.872 216.016 79.424 216.016 78.72C216.016 78.528 216.016 78.384 216.016 78.288C216.016 77.456 216.064 76.88 216.16 76.56C216.256 76.24 216.464 75.968 216.784 75.744C217.264 75.424 217.232 75.12 216.688 74.832C216.176 74.544 214.992 74.176 213.136 73.728L213.04 73.68C212.144 73.456 211.632 73.376 211.504 73.44C211.376 73.472 211.344 73.76 211.408 74.304C211.408 74.368 211.408 74.416 211.408 74.448C211.504 75.408 211.552 76.528 211.552 77.808C211.584 79.088 211.536 79.856 211.408 80.112C211.312 80.336 210.944 80.48 210.304 80.544C209.696 80.576 207.616 80.592 204.064 80.592C199.072 80.592 195.648 80.512 193.792 80.352C193.344 80.288 193.104 80.304 193.072 80.4C193.072 80.496 193.232 80.88 193.552 81.552L193.6 81.6C193.888 82.112 194.096 82.4 194.224 82.464C194.384 82.496 194.768 82.448 195.376 82.32C196.4 82.128 197.376 82 198.304 81.936C199.264 81.904 199.92 81.968 200.272 82.128C200.592 82.256 200.768 82.544 200.8 82.992C200.864 83.44 200.912 84.976 200.944 87.6C200.976 90.128 201.056 91.792 201.184 92.592C201.344 93.616 201.712 94.304 202.288 94.656C202.736 94.944 203.664 95.152 205.072 95.28C205.68 95.312 208.624 95.328 213.904 95.328ZM272.032 117.84C272.16 118 272.672 118 273.568 117.84C274.464 117.68 275.232 117.44 275.872 117.12C277.152 116.512 278.128 115.44 278.8 113.904C279.504 112.272 280.048 109.76 280.432 106.368C280.752 103.2 281.008 98.56 281.2 92.448C281.2 92.096 281.216 91.584 281.248 90.912C281.344 87.808 281.424 85.984 281.488 85.44C281.584 84.864 281.856 84.464 282.304 84.24C282.4 84.208 282.464 84.176 282.496 84.144C282.912 83.92 283.152 83.76 283.216 83.664C283.312 83.536 283.312 83.392 283.216 83.232C283.056 82.912 282.496 82.304 281.536 81.408C280.608 80.512 279.952 79.968 279.568 79.776C279.344 79.648 279.152 79.632 278.992 79.728C278.832 79.824 278.528 80.144 278.08 80.688C278.016 80.752 277.936 80.848 277.84 80.976C277.232 81.648 276.752 82.048 276.4 82.176C276.048 82.272 275.088 82.32 273.52 82.32C273.168 82.32 272.88 82.32 272.656 82.32C272.528 82.32 272.336 82.32 272.08 82.32C270.64 82.32 269.744 82.288 269.392 82.224C268.88 82.128 268.64 81.904 268.672 81.552C268.672 81.296 268.88 80.672 269.296 79.68C269.36 79.52 269.408 79.392 269.44 79.296C270.016 77.92 270.4 77.072 270.592 76.752C270.784 76.4 271.04 76.16 271.36 76.032C271.872 75.776 271.776 75.472 271.072 75.12C270.368 74.736 268.88 74.208 266.608 73.536L266.56 73.488C266.112 73.36 265.84 73.344 265.744 73.44C265.68 73.536 265.6 73.936 265.504 74.64C265.504 74.736 265.504 74.8 265.504 74.832C264.992 79.472 263.536 84.528 261.136 90C260.24 91.952 259.664 92.864 259.408 92.736C259.184 92.576 259.056 91.248 259.024 88.752C259.024 86.768 259.072 85.584 259.168 85.2C259.264 84.784 259.616 84.4 260.224 84.048C260.704 83.792 260.816 83.472 260.56 83.088C260.336 82.672 259.616 82 258.4 81.072C257.504 80.368 256.928 80.016 256.672 80.016C256.448 80.048 256.016 80.448 255.376 81.216C254.768 81.952 253.76 82.4 252.352 82.56C250.976 82.72 250.288 82.448 250.288 81.744C250.288 81.36 250.848 80.32 251.968 78.624C253.12 76.928 253.856 76.016 254.176 75.888C254.912 75.632 254.992 75.344 254.416 75.024C253.872 74.704 252.56 74.288 250.48 73.776C250.384 73.744 250.256 73.712 250.096 73.68C249.328 73.488 248.88 73.44 248.752 73.536C248.624 73.6 248.544 73.984 248.512 74.688C248.512 74.88 248.512 75.024 248.512 75.12C248.512 76.144 248.448 77.168 248.32 78.192C248.128 79.888 247.968 80.96 247.84 81.408C247.648 81.984 247.312 82.24 246.832 82.176C246.448 82.144 245.632 81.84 244.384 81.264C243.168 80.688 242.496 80.4 242.368 80.4C242.272 80.4 242.224 80.496 242.224 80.688C242.224 80.848 242.272 81.36 242.368 82.224C242.592 84.464 242.704 89.184 242.704 96.384C242.704 104.032 242.592 109.6 242.368 113.088C242.24 114.752 242.32 115.76 242.608 116.112C242.896 116.464 243.6 116.48 244.72 116.16C245.552 115.904 246.096 115.584 246.352 115.2C246.64 114.848 246.768 114.208 246.736 113.28V113.232C246.704 112.464 246.736 111.968 246.832 111.744C246.96 111.456 247.296 111.28 247.84 111.216C248.192 111.152 249.088 111.12 250.528 111.12C250.624 111.12 250.704 111.12 250.768 111.12C250.832 111.12 250.928 111.12 251.056 111.12C252.432 111.12 253.296 111.136 253.648 111.168C254.16 111.232 254.48 111.392 254.608 111.648C254.704 111.84 254.752 112.272 254.752 112.944V113.088C254.752 114.08 255.008 114.64 255.52 114.768C256.032 114.928 256.944 114.688 258.256 114.048C258.352 114.016 258.464 113.968 258.592 113.904C258.976 113.744 259.184 113.488 259.216 113.136C259.28 112.752 259.28 111.584 259.216 109.632C259.184 108.704 259.152 107.968 259.12 107.424C259.056 105.28 259.024 102.56 259.024 99.264C259.024 95.872 259.072 94.048 259.168 93.792C259.264 93.504 259.376 93.28 259.504 93.12C259.632 92.928 259.664 92.944 259.6 93.168C259.568 93.328 259.616 93.456 259.744 93.552C259.872 93.616 260.016 93.632 260.176 93.6C260.56 93.472 261.456 92.48 262.864 90.624C264.304 88.768 265.488 87.056 266.416 85.488C266.448 85.456 266.48 85.392 266.512 85.296C266.992 84.496 267.44 84.032 267.856 83.904C268.304 83.744 269.632 83.664 271.84 83.664C272 83.664 272.128 83.664 272.224 83.664C272.544 83.664 272.976 83.664 273.52 83.664C274.832 83.664 275.664 83.696 276.016 83.76C276.496 83.856 276.8 84.096 276.928 84.48C277.024 84.768 277.056 85.456 277.024 86.544C277.024 86.992 277.024 87.344 277.024 87.6C276.992 92.176 276.832 96.544 276.544 100.704C276.288 104.832 275.952 107.776 275.536 109.536C275.28 110.592 274.976 111.312 274.624 111.696C274.208 112.176 273.52 112.448 272.56 112.512C271.76 112.576 270.352 112.512 268.336 112.32C267.312 112.224 266.688 112.192 266.464 112.224C266.272 112.256 266.208 112.368 266.272 112.56C266.304 112.72 266.72 112.912 267.52 113.136C270.432 113.84 271.888 115.216 271.888 117.264C271.888 117.552 271.936 117.744 272.032 117.84ZM249.616 109.776C248.496 109.808 247.792 109.76 247.504 109.632C247.088 109.472 246.832 109.072 246.736 108.432C246.64 107.952 246.608 106.848 246.64 105.12C246.64 104.32 246.64 103.696 246.64 103.248C246.64 102.864 246.64 102.32 246.64 101.616C246.64 99.92 246.672 98.848 246.736 98.4C246.864 97.76 247.136 97.376 247.552 97.248C247.84 97.12 248.544 97.072 249.664 97.104C250.112 97.104 250.48 97.104 250.768 97.104C251.056 97.104 251.424 97.104 251.872 97.104C252.992 97.072 253.696 97.12 253.984 97.248C254.4 97.376 254.672 97.76 254.8 98.4C254.864 98.848 254.896 99.92 254.896 101.616C254.896 102.32 254.896 102.864 254.896 103.248C254.896 106.192 254.864 107.936 254.8 108.48C254.768 108.992 254.608 109.344 254.32 109.536C254.16 109.664 253.92 109.744 253.6 109.776C253.312 109.776 252.368 109.776 250.768 109.776C250.48 109.776 250.096 109.776 249.616 109.776ZM268.96 103.008C269.728 103.264 270.4 103.168 270.976 102.72C271.584 102.272 271.92 101.584 271.984 100.656C272.048 99.248 271.536 97.888 270.448 96.576C269.36 95.232 267.776 94.064 265.696 93.072C264.512 92.496 263.824 92.256 263.632 92.352C263.472 92.416 263.68 92.88 264.256 93.744C266.272 96.752 267.488 99.504 267.904 102C267.936 102.416 268.288 102.752 268.96 103.008ZM249.664 95.76C248.512 95.792 247.792 95.744 247.504 95.616C247.088 95.488 246.832 95.104 246.736 94.464C246.64 94.048 246.608 93.008 246.64 91.344C246.64 90.608 246.64 90.016 246.64 89.568C246.64 89.184 246.64 88.672 246.64 88.032C246.64 86.432 246.672 85.424 246.736 85.008C246.864 84.432 247.12 84.064 247.504 83.904C247.792 83.808 248.464 83.76 249.52 83.76C250 83.76 250.384 83.76 250.672 83.76C250.96 83.76 251.328 83.76 251.776 83.76C252.928 83.728 253.664 83.776 253.984 83.904C254.4 84.032 254.656 84.4 254.752 85.008C254.848 85.424 254.896 86.448 254.896 88.08C254.896 88.72 254.896 89.216 254.896 89.568C254.896 92.32 254.864 93.968 254.8 94.512C254.768 95.024 254.608 95.36 254.32 95.52C254.16 95.648 253.92 95.728 253.6 95.76C253.312 95.76 252.368 95.76 250.768 95.76C250.48 95.76 250.112 95.76 249.664 95.76ZM288.928 117.648C289.344 118.224 291.264 117.248 294.688 114.72C298.112 112.192 300.704 109.824 302.464 107.616C304.288 105.312 305.712 102.976 306.736 100.608C307.792 98.24 308.736 95.104 309.568 91.2C309.888 89.728 310.16 89.072 310.384 89.232C310.608 89.36 310.88 90.352 311.2 92.208C312.288 98.512 314.032 103.664 316.432 107.664C318.864 111.632 322.176 114.864 326.368 117.36C326.784 117.616 327.04 117.728 327.136 117.696C327.232 117.664 327.344 117.456 327.472 117.072C327.76 116.272 328.208 115.568 328.816 114.96C329.456 114.352 330.144 113.92 330.88 113.664C331.424 113.504 331.648 113.344 331.552 113.184C331.488 112.992 331.088 112.736 330.352 112.416C321.456 108.384 315.648 101.664 312.928 92.256C312.096 89.312 311.44 85.888 310.96 81.984C310.512 78.048 310.544 76.08 311.056 76.08C311.12 76.08 311.264 75.968 311.488 75.744C311.808 75.456 311.856 75.248 311.632 75.12C311.44 74.992 310.896 74.896 310 74.832C309.104 74.768 308.16 74.656 307.168 74.496C306.336 74.368 305.808 74.304 305.584 74.304C305.36 74.336 305.28 74.432 305.344 74.592C305.504 75.008 305.616 76.48 305.68 79.008C305.776 81.6 305.776 83.616 305.68 85.056C305.264 92.224 303.792 98.288 301.264 103.248C298.768 108.208 294.944 112.64 289.792 116.544C289.28 116.896 288.976 117.12 288.88 117.216C288.816 117.312 288.832 117.456 288.928 117.648Z" fill="black" fill-opacity="0.9"/>
</svg>
