<svg width="444" height="171" viewBox="0 0 444 171" fill="none" xmlns="http://www.w3.org/2000/svg">
<path d="M10.76 58.52C9.26667 60.3547 7.38933 60.8027 5.128 59.864C3.25067 59.0533 2.14133 58.0933 1.8 56.984C1.50133 55.8747 1.992 54.5307 3.272 52.952C4.424 51.0747 5.34133 49.1547 6.024 47.192H4.552C1.864 47.192 0.52 45.848 0.52 43.16C0.52 40.472 1.864 39.128 4.552 39.128H24.328V37.336H8.968C6.57867 37.336 5.384 36.1413 5.384 33.752C5.384 31.3627 6.57867 30.168 8.968 30.168H24.328V28.312H10.376C9.13867 28.312 8.136 27.928 7.368 27.16C6.6 26.392 6.216 25.3893 6.216 24.152V6.424C6.216 5.18666 6.6 4.184 7.368 3.416C8.136 2.648 9.13867 2.264 10.376 2.264H29.128H47.88C49.1173 2.264 50.12 2.648 50.888 3.416C51.656 4.184 52.04 5.18666 52.04 6.424V24.152C52.04 25.3893 51.656 26.392 50.888 27.16C50.12 27.928 49.1173 28.312 47.88 28.312H33.544V30.168H49.16C51.5493 30.168 52.744 31.3627 52.744 33.752C52.744 36.1413 51.5493 37.336 49.16 37.336H33.544V39.128H53.512C56.2 39.128 57.544 40.472 57.544 43.16C57.544 45.848 56.2 47.192 53.512 47.192H51.272C52.8507 49.1547 54.5147 51.4373 56.264 54.04C57.0747 55.5333 57.2667 56.728 56.84 57.624C56.456 58.5627 55.432 59.3093 53.768 59.864C52.232 60.376 50.9733 60.4827 49.992 60.184C48.968 59.8427 48.1147 58.9893 47.432 57.624C46.7067 56.3013 45.832 54.8507 44.808 53.272C44.0827 52.1627 43.8693 51.1387 44.168 50.2C44.5093 49.2613 45.32 48.5787 46.6 48.152L49.608 47.192H7.432L11.528 48.216C12.6373 48.472 13.4053 49.0267 13.832 49.88C14.3013 50.6907 14.344 51.6507 13.96 52.76C13.0213 54.8933 11.9547 56.8133 10.76 58.52ZM37.512 59.672C34.2267 60.3973 32.2853 59.096 31.688 55.768C31.6453 55.7253 31.624 55.6827 31.624 55.64C31.624 55.5547 31.5813 55.4053 31.496 55.192C31.4533 54.8933 31.4107 54.68 31.368 54.552C30.472 51.5227 31.624 49.688 34.824 49.048C37.4267 48.536 39.176 49.4747 40.072 51.864C40.328 52.632 40.6053 53.5067 40.904 54.488C41.2453 55.9387 41.1387 57.0693 40.584 57.88C40.072 58.7333 39.048 59.3307 37.512 59.672ZM22.984 60.12C19.656 60.504 17.9707 59.032 17.928 55.704C17.928 55.6613 17.928 55.5973 17.928 55.512C17.928 55.384 17.9067 55.1493 17.864 54.808C17.864 54.4667 17.864 54.232 17.864 54.104C17.5227 51.1173 18.8667 49.496 21.896 49.24C24.6267 48.984 26.2053 50.1787 26.632 52.824C26.632 52.9093 26.6533 53.016 26.696 53.144C26.824 54.3387 26.9093 55.2133 26.952 55.768C27.08 58.328 25.7573 59.7787 22.984 60.12ZM16.456 20.888H24.328V9.688H16.456C15.432 9.688 14.92 10.2 14.92 11.224V15.32V19.352C14.92 20.376 15.432 20.888 16.456 20.888ZM33.544 20.888H41.224C42.248 20.888 42.76 20.376 42.76 19.352V13.656C42.5467 14.1253 42.2267 14.8293 41.8 15.768C41.2453 17.0053 40.84 17.9227 40.584 18.52C39.8587 19.9707 38.6 20.376 36.808 19.736C34.8453 19.0107 34.2267 17.7307 34.952 15.896C35.0373 15.7253 35.1227 15.4693 35.208 15.128C35.336 14.7867 35.4213 14.5307 35.464 14.36C35.72 13.5067 35.976 12.6747 36.232 11.864C36.36 11.3093 36.6373 10.9253 37.064 10.712C37.5333 10.456 38.0667 10.4347 38.664 10.648L42.76 12.056V10.648C42.76 10.008 42.44 9.688 41.8 9.688H33.544V20.888ZM21.32 19.416C19.0587 20.2693 17.672 19.544 17.16 17.24C17.16 17.1547 17.1387 17.048 17.096 16.92C17.0533 16.7493 17.0107 16.6427 16.968 16.6C16.9253 16.472 16.8613 16.2587 16.776 15.96C16.648 15.576 16.5413 15.2987 16.456 15.128C15.6453 13.1653 16.2427 11.8213 18.248 11.096C19.9547 10.4987 21.192 10.9893 21.96 12.568C22.472 13.72 22.92 14.872 23.304 16.024C23.7307 17.6453 23.0693 18.776 21.32 19.416ZM74.76 58.52C73.2667 60.3547 71.3893 60.8027 69.128 59.864C67.2507 59.0533 66.1413 58.0933 65.8 56.984C65.5013 55.8747 65.992 54.5307 67.272 52.952C68.424 51.0747 69.3413 49.1547 70.024 47.192H68.552C65.864 47.192 64.52 45.848 64.52 43.16C64.52 40.472 65.864 39.128 68.552 39.128H88.328V37.336H72.968C70.5787 37.336 69.384 36.1413 69.384 33.752C69.384 31.3627 70.5787 30.168 72.968 30.168H88.328V28.312H74.376C73.1387 28.312 72.136 27.928 71.368 27.16C70.6 26.392 70.216 25.3893 70.216 24.152V6.424C70.216 5.18666 70.6 4.184 71.368 3.416C72.136 2.648 73.1387 2.264 74.376 2.264H93.128H111.88C113.117 2.264 114.12 2.648 114.888 3.416C115.656 4.184 116.04 5.18666 116.04 6.424V24.152C116.04 25.3893 115.656 26.392 114.888 27.16C114.12 27.928 113.117 28.312 111.88 28.312H97.544V30.168H113.16C115.549 30.168 116.744 31.3627 116.744 33.752C116.744 36.1413 115.549 37.336 113.16 37.336H97.544V39.128H117.512C120.2 39.128 121.544 40.472 121.544 43.16C121.544 45.848 120.2 47.192 117.512 47.192H115.272C116.851 49.1547 118.515 51.4373 120.264 54.04C121.075 55.5333 121.267 56.728 120.84 57.624C120.456 58.5627 119.432 59.3093 117.768 59.864C116.232 60.376 114.973 60.4827 113.992 60.184C112.968 59.8427 112.115 58.9893 111.432 57.624C110.707 56.3013 109.832 54.8507 108.808 53.272C108.083 52.1627 107.869 51.1387 108.168 50.2C108.509 49.2613 109.32 48.5787 110.6 48.152L113.608 47.192H71.432L75.528 48.216C76.6373 48.472 77.4053 49.0267 77.832 49.88C78.3013 50.6907 78.344 51.6507 77.96 52.76C77.0213 54.8933 75.9547 56.8133 74.76 58.52ZM101.512 59.672C98.2267 60.3973 96.2853 59.096 95.688 55.768C95.6453 55.7253 95.624 55.6827 95.624 55.64C95.624 55.5547 95.5813 55.4053 95.496 55.192C95.4533 54.8933 95.4107 54.68 95.368 54.552C94.472 51.5227 95.624 49.688 98.824 49.048C101.427 48.536 103.176 49.4747 104.072 51.864C104.328 52.632 104.605 53.5067 104.904 54.488C105.245 55.9387 105.139 57.0693 104.584 57.88C104.072 58.7333 103.048 59.3307 101.512 59.672ZM86.984 60.12C83.656 60.504 81.9707 59.032 81.928 55.704C81.928 55.6613 81.928 55.5973 81.928 55.512C81.928 55.384 81.9067 55.1493 81.864 54.808C81.864 54.4667 81.864 54.232 81.864 54.104C81.5227 51.1173 82.8667 49.496 85.896 49.24C88.6267 48.984 90.2053 50.1787 90.632 52.824C90.632 52.9093 90.6533 53.016 90.696 53.144C90.824 54.3387 90.9093 55.2133 90.952 55.768C91.08 58.328 89.7573 59.7787 86.984 60.12ZM80.456 20.888H88.328V9.688H80.456C79.432 9.688 78.92 10.2 78.92 11.224V15.32V19.352C78.92 20.376 79.432 20.888 80.456 20.888ZM97.544 20.888H105.224C106.248 20.888 106.76 20.376 106.76 19.352V13.656C106.547 14.1253 106.227 14.8293 105.8 15.768C105.245 17.0053 104.84 17.9227 104.584 18.52C103.859 19.9707 102.6 20.376 100.808 19.736C98.8453 19.0107 98.2267 17.7307 98.952 15.896C99.0373 15.7253 99.1227 15.4693 99.208 15.128C99.336 14.7867 99.4213 14.5307 99.464 14.36C99.72 13.5067 99.976 12.6747 100.232 11.864C100.36 11.3093 100.637 10.9253 101.064 10.712C101.533 10.456 102.067 10.4347 102.664 10.648L106.76 12.056V10.648C106.76 10.008 106.44 9.688 105.8 9.688H97.544V20.888ZM85.32 19.416C83.0587 20.2693 81.672 19.544 81.16 17.24C81.16 17.1547 81.1387 17.048 81.096 16.92C81.0533 16.7493 81.0107 16.6427 80.968 16.6C80.9253 16.472 80.8613 16.2587 80.776 15.96C80.648 15.576 80.5413 15.2987 80.456 15.128C79.6453 13.1653 80.2427 11.8213 82.248 11.096C83.9547 10.4987 85.192 10.9893 85.96 12.568C86.472 13.72 86.92 14.872 87.304 16.024C87.7307 17.6453 87.0693 18.776 85.32 19.416ZM174.856 60.568C173.192 60.8667 171.208 60.9733 168.904 60.888C167.539 60.8453 166.408 60.4827 165.512 59.8C164.659 59.1173 164.125 58.2213 163.912 57.112C163.869 57.0267 163.805 56.856 163.72 56.6C163.677 56.3867 163.635 56.216 163.592 56.088C162.227 53.272 163.357 51.9493 166.984 52.12C168.179 52.1627 169.565 52.184 171.144 52.184C172.253 52.184 173.171 51.8 173.896 51.032C174.792 50.0933 175.475 47.2987 175.944 42.648C176.371 38.2533 176.712 31.1707 176.968 21.4C177.011 20.2907 176.904 19.5227 176.648 19.096C176.435 18.712 176.051 18.52 175.496 18.52H165C164.019 20.6107 162.952 22.6373 161.8 24.6C161.16 25.5813 160.328 26.1573 159.304 26.328C158.28 26.4987 157.277 26.2 156.296 25.432C155.656 24.9627 155.016 24.5147 154.376 24.088V50.392C154.376 51.6293 153.992 52.632 153.224 53.4C152.456 54.168 151.453 54.552 150.216 54.552H133.64C132.403 54.552 131.4 54.168 130.632 53.4C129.864 52.632 129.48 51.6293 129.48 50.392V14.872C129.48 13.6347 129.864 12.632 130.632 11.864C131.4 11.096 132.403 10.712 133.64 10.712H136.712C137.053 9.00533 137.352 7.256 137.608 5.464C137.779 3.672 138.291 2.41333 139.144 1.688C139.997 0.962664 141.277 0.727998 142.984 0.983997C146.483 1.45333 147.592 3.52266 146.312 7.192C146.184 7.49067 146.035 7.93867 145.864 8.536C145.48 9.51733 145.203 10.2427 145.032 10.712H150.216C151.453 10.712 152.456 11.096 153.224 11.864C153.992 12.632 154.376 13.6347 154.376 14.872V19.224C156.851 15.2133 158.941 10.456 160.648 4.952C161.501 1.96533 163.379 0.81333 166.28 1.496C169.309 2.22133 170.376 4.056 169.48 7C169.352 7.34133 169.16 7.85333 168.904 8.536C168.691 9.21866 168.52 9.73066 168.392 10.072H177.032H181.576C182.941 10.072 183.923 10.6053 184.52 11.672C185.203 12.952 185.523 15.1067 185.48 18.136C185.139 31.5333 184.712 40.792 184.2 45.912C183.645 51.3733 182.771 54.8933 181.576 56.472C180.637 57.7947 179.613 58.776 178.504 59.416C177.608 59.8853 176.392 60.2693 174.856 60.568ZM139.336 46.424H144.584C145.608 46.424 146.12 45.912 146.12 44.888V35.416H137.8V40.92V44.888C137.8 45.912 138.312 46.424 139.336 46.424ZM171.208 41.88C169.757 42.776 168.52 43.1173 167.496 42.904C166.515 42.648 165.661 41.7733 164.936 40.28C164.253 39 163.72 38.0187 163.336 37.336C162.525 35.928 161.693 34.52 160.84 33.112C159.432 30.808 159.965 28.9307 162.44 27.48C164.744 26.1147 166.621 26.5413 168.072 28.76C169.352 30.68 170.973 33.2187 172.936 36.376C173.619 37.6133 173.811 38.6587 173.512 39.512C173.213 40.3227 172.445 41.112 171.208 41.88ZM137.8 27.416H146.12V20.312C146.12 19.288 145.608 18.776 144.584 18.776H139.336C138.312 18.776 137.8 19.288 137.8 20.312V23.128V27.416ZM247.816 57.624C246.152 59.928 243.571 60.504 240.072 59.352C231.923 56.0667 225.715 50.392 221.448 42.328C217.821 49.8373 211.379 55.4693 202.12 59.224C200.456 59.7787 198.941 59.992 197.576 59.864C195.997 59.6507 194.803 58.9467 193.992 57.752C192.84 56.0453 192.883 54.424 194.12 52.888C195.144 51.6507 196.872 50.584 199.304 49.688C206.941 45.976 211.869 40.4933 214.088 33.24H199.368C196.168 33.24 194.568 31.64 194.568 28.44C194.568 25.24 196.168 23.64 199.368 23.64H215.432V22.808V13.72H197.384C194.184 13.72 192.584 12.12 192.584 8.92C192.584 5.72 194.184 4.12 197.384 4.12H221H244.616C247.816 4.12 249.416 5.72 249.416 8.92C249.416 12.12 247.816 13.72 244.616 13.72H225.288V22.872V23.64H242.888C246.088 23.64 247.688 25.24 247.688 28.44C247.688 31.64 246.088 33.24 242.888 33.24H227.528C230.813 40.7493 236.019 46.0827 243.144 49.24C245.789 50.0507 247.539 51.1173 248.392 52.44C249.416 53.9333 249.224 55.6613 247.816 57.624ZM261.32 59.48C258.547 59.48 257.16 58.0933 257.16 55.32C257.16 52.504 258.547 51.096 261.32 51.096H280.072V43.352H267.976C265.245 43.352 263.88 41.9653 263.88 39.192C263.88 36.4613 265.245 35.096 267.976 35.096H303.432C306.163 35.096 307.528 36.4613 307.528 39.192C307.528 41.9653 306.163 43.352 303.432 43.352H289.544V51.096H308.68C311.453 51.096 312.84 52.504 312.84 55.32C312.84 58.0933 311.453 59.48 308.68 59.48H285H261.32ZM268.104 32.984C266.44 33.4533 264.861 33.624 263.368 33.496C261.533 33.368 260.275 32.7493 259.592 31.64C258.568 29.976 258.888 28.44 260.552 27.032C261.875 25.9227 263.816 25.0053 266.376 24.28C268.808 23.1707 270.557 21.72 271.624 19.928C272.392 18.5627 272.968 16.5573 273.352 13.912H268.232C267.208 13.912 266.696 14.424 266.696 15.448V16.344C266.696 19.3733 265.181 20.888 262.152 20.888C259.123 20.888 257.608 19.3733 257.608 16.344V9.688C257.608 8.45066 257.992 7.448 258.76 6.68C259.528 5.912 260.531 5.528 261.768 5.528H280.072V5.016C280.072 1.85867 281.651 0.279999 284.808 0.279999C287.965 0.279999 289.544 1.85867 289.544 5.016V5.528H301.064H308.424C309.661 5.528 310.664 5.912 311.432 6.68C312.2 7.448 312.584 8.45066 312.584 9.688V15.064C312.584 18.264 310.984 19.864 307.784 19.864C304.584 19.864 302.984 18.264 302.984 15.064V13.912H296.328V22.68C296.328 23.576 296.435 24.152 296.648 24.408C296.904 24.6213 297.48 24.728 298.376 24.728H302.6C302.643 24.728 302.685 24.728 302.728 24.728C304.008 21.784 306.056 20.888 308.872 22.04C310.024 22.5093 310.792 23.448 311.176 24.856C311.517 26.0507 311.496 27.3733 311.112 28.824C310.429 30.1893 309.469 31.1493 308.232 31.704C307.123 32.2587 305.565 32.536 303.56 32.536H296.904C293.021 32.536 290.419 31.832 289.096 30.424C287.859 29.1013 287.24 26.5413 287.24 22.744V13.912H282.888C282.333 18.8613 281.16 22.6587 279.368 25.304C277.107 28.5893 273.352 31.1493 268.104 32.984ZM329.928 61.016C327.027 61.016 325.576 59.5653 325.576 56.664L325.512 30.04C324.531 31.1493 323.528 31.5547 322.504 31.256C321.565 31 320.755 30.1467 320.072 28.696C318.451 25.4533 318.579 22.744 320.456 20.568C324.083 16.0027 327.176 10.776 329.736 4.888C330.888 1.98667 332.851 0.983999 335.624 1.88C338.568 2.86133 339.485 4.73866 338.376 7.512C337.181 10.2853 335.816 13.1653 334.28 16.152V38.616V56.664C334.28 59.5653 332.829 61.016 329.928 61.016ZM342.664 60.056C339.976 60.056 338.632 58.712 338.632 56.024C338.632 53.2933 339.976 51.928 342.664 51.928H363.08C360.819 46.8933 359.197 39.512 358.216 29.784H349.128V40.152C349.768 40.0667 350.728 39.9387 352.008 39.768C353.032 39.64 353.8 39.5333 354.312 39.448C357.256 39.064 358.792 40.344 358.92 43.288C359.048 45.8907 357.811 47.384 355.208 47.768C352.349 48.1947 348.104 48.792 342.472 49.56C342.088 49.6027 341.811 49.6453 341.64 49.688C339.165 50.0293 337.608 48.7067 336.968 45.72C336.413 43.032 337.416 41.5173 339.976 41.176C340.019 41.176 340.061 41.176 340.104 41.176V10.392C340.104 8.89866 340.509 7.85333 341.32 7.256C342.173 6.616 343.325 6.53066 344.776 7L345.992 7.384C354.056 6.31733 361.139 4.84533 367.24 2.968C368.307 2.62666 369.245 2.60533 370.056 2.904C370.824 3.16 371.635 3.736 372.488 4.632C375.347 7.61867 374.813 9.66667 370.888 10.776C368.925 11.288 367.432 11.6507 366.408 11.864C366.365 13.9973 366.429 17.1973 366.6 21.464H374.856C377.629 21.464 379.016 22.8507 379.016 25.624C379.016 28.3973 377.629 29.784 374.856 29.784H367.24C367.837 35.544 368.563 40.3227 369.416 44.12C370.355 48.088 371.208 50.072 371.976 50.072C372.189 50.072 372.36 49.88 372.488 49.496C373.043 44.1627 374.856 42.5627 377.928 44.696C378.781 45.2933 379.315 46.4453 379.528 48.152C379.699 49.4747 379.656 50.8613 379.4 52.312C378.717 54.9573 377.693 56.792 376.328 57.816C375.091 58.712 373.341 59.16 371.08 59.16C367.88 59.16 365.256 56.8347 363.208 52.184V56.344C363.208 57.4533 362.867 58.3493 362.184 59.032C361.501 59.7147 360.605 60.056 359.496 60.056H350.92H342.664ZM349.128 21.464H357.576C357.405 18.8187 357.277 16.1947 357.192 13.592C355.869 13.7627 354.525 13.9547 353.16 14.168C352.733 14.2107 352.072 14.296 351.176 14.424C350.28 14.5093 349.597 14.5947 349.128 14.68V21.464ZM389.128 59.224C386.355 59.224 384.968 57.8373 384.968 55.064C384.968 52.2907 386.355 50.904 389.128 50.904H408.136V47.512H390.92C388.189 47.512 386.824 46.1253 386.824 43.352C386.824 40.6213 388.189 39.256 390.92 39.256H393.544V34.84H388.232C385.459 34.84 384.072 33.432 384.072 30.616C384.072 27.8427 385.459 26.456 388.232 26.456H393.544V22.488H391.368C388.637 22.488 387.272 21.1013 387.272 18.328C387.272 15.5973 388.637 14.232 391.368 14.232H408.136V11.224C402.973 11.5227 397.832 11.7147 392.712 11.8C391.389 11.8 390.344 11.544 389.576 11.032C388.851 10.52 388.339 9.64533 388.04 8.408C387.229 5.37866 388.659 3.82133 392.328 3.736C407.859 3.352 420.275 2.34933 429.576 0.727997C430.6 0.514664 431.475 0.578664 432.2 0.919998C432.797 1.21866 433.501 1.816 434.312 2.712C435.763 4.376 436.36 5.69866 436.104 6.68C435.848 7.66133 434.675 8.344 432.584 8.728C428.317 9.45333 423.24 10.072 417.352 10.584V14.232H435.144C437.875 14.232 439.24 15.5973 439.24 18.328C439.24 21.1013 437.875 22.488 435.144 22.488H432.456V26.456H437.768C440.541 26.456 441.928 27.8427 441.928 30.616C441.928 33.432 440.541 34.84 437.768 34.84H432.456V39.256H435.528C438.259 39.256 439.624 40.6213 439.624 43.352C439.624 46.1253 438.259 47.512 435.528 47.512H417.352V50.904H437.064C439.837 50.904 441.224 52.2907 441.224 55.064C441.224 57.8373 439.837 59.224 437.064 59.224H413.064H389.128ZM402.568 39.256H408.136V34.84H405.32H402.568V39.256ZM417.352 39.256H420.232H423.176V34.84H417.352V39.256ZM402.568 26.456H408.136V22.488H405.32H402.568V26.456ZM417.352 26.456H420.232H423.176V22.488H417.352V26.456ZM9.16 169.056C5.40533 169.824 2.90933 169.163 1.672 167.072C0.690667 165.365 1.01067 163.851 2.632 162.528C3.912 161.461 5.81067 160.629 8.328 160.032C10.504 159.221 12.1253 158.133 13.192 156.768C14.1307 155.616 14.7707 154.059 15.112 152.096C15.368 148.896 17.0747 147.296 20.232 147.296C21.8533 147.296 23.048 147.808 23.816 148.832C24.584 149.856 24.8827 151.2 24.712 152.864C24.1573 156.747 22.9627 159.84 21.128 162.144C18.7387 165.173 14.7493 167.477 9.16 169.056ZM41.48 169.824C37.256 169.824 34.3973 169.056 32.904 167.52C31.5387 166.069 30.856 163.339 30.856 159.328V153.44V152.608C30.856 149.237 32.5413 147.552 35.912 147.552C39.2827 147.552 40.968 149.237 40.968 152.608V159.264C40.968 160.288 41.096 160.928 41.352 161.184C41.608 161.44 42.2267 161.568 43.208 161.568H47.624C47.6667 161.568 47.7093 161.568 47.752 161.568C48.52 159.477 49.4373 158.112 50.504 157.472C51.656 156.789 53.192 156.832 55.112 157.6C57.3307 158.539 58.0347 160.992 57.224 164.96C56.5413 166.752 55.5173 168.011 54.152 168.736C52.8293 169.461 50.9947 169.824 48.648 169.824H41.48ZM4.232 153.504C1.544 153.504 0.2 152.16 0.2 149.472V143.648C0.2 142.411 0.584 141.408 1.352 140.64C2.12 139.872 3.12267 139.488 4.36 139.488H28.872H53.384C54.6213 139.488 55.624 139.872 56.392 140.64C57.16 141.408 57.544 142.411 57.544 143.648V149.28C57.544 152.096 56.136 153.504 53.32 153.504C50.4613 153.504 49.032 152.096 49.032 149.28V147.936C49.032 146.912 48.52 146.4 47.496 146.4H9.8C8.776 146.4 8.264 146.912 8.264 147.936V149.472C8.264 152.16 6.92 153.504 4.232 153.504ZM13.064 137.632C11.8267 137.632 10.824 137.248 10.056 136.48C9.288 135.712 8.904 134.709 8.904 133.472V127.392C8.904 126.155 9.288 125.152 10.056 124.384C10.824 123.616 11.8267 123.232 13.064 123.232H29.064H45.128C46.3653 123.232 47.368 123.616 48.136 124.384C48.904 125.152 49.288 126.155 49.288 127.392V133.472C49.288 134.709 48.904 135.712 48.136 136.48C47.368 137.248 46.3653 137.632 45.128 137.632H13.064ZM19.208 131.68H39.432V129.12H28.744H19.4C18.5467 129.12 18.12 129.547 18.12 130.4V130.592C18.12 131.317 18.4827 131.68 19.208 131.68ZM4.296 121.312C1.77867 121.312 0.52 120.053 0.52 117.536C0.52 115.019 1.77867 113.76 4.296 113.76H23.816V113.632C23.816 112.224 24.2427 111.157 25.096 110.432C25.992 109.664 27.1867 109.28 28.68 109.28C30.1733 109.28 31.3467 109.664 32.2 110.432C33.096 111.157 33.544 112.224 33.544 113.632V113.76H53.832C56.3493 113.76 57.608 115.019 57.608 117.536C57.608 120.053 56.3493 121.312 53.832 121.312H29.064H4.296ZM73.16 169.056C69.4053 169.824 66.9093 169.163 65.672 167.072C64.6907 165.365 65.0107 163.851 66.632 162.528C67.912 161.461 69.8107 160.629 72.328 160.032C74.504 159.221 76.1253 158.133 77.192 156.768C78.1307 155.616 78.7707 154.059 79.112 152.096C79.368 148.896 81.0747 147.296 84.232 147.296C85.8533 147.296 87.048 147.808 87.816 148.832C88.584 149.856 88.8827 151.2 88.712 152.864C88.1573 156.747 86.9627 159.84 85.128 162.144C82.7387 165.173 78.7493 167.477 73.16 169.056ZM105.48 169.824C101.256 169.824 98.3973 169.056 96.904 167.52C95.5387 166.069 94.856 163.339 94.856 159.328V153.44V152.608C94.856 149.237 96.5413 147.552 99.912 147.552C103.283 147.552 104.968 149.237 104.968 152.608V159.264C104.968 160.288 105.096 160.928 105.352 161.184C105.608 161.44 106.227 161.568 107.208 161.568H111.624C111.667 161.568 111.709 161.568 111.752 161.568C112.52 159.477 113.437 158.112 114.504 157.472C115.656 156.789 117.192 156.832 119.112 157.6C121.331 158.539 122.035 160.992 121.224 164.96C120.541 166.752 119.517 168.011 118.152 168.736C116.829 169.461 114.995 169.824 112.648 169.824H105.48ZM68.232 153.504C65.544 153.504 64.2 152.16 64.2 149.472V143.648C64.2 142.411 64.584 141.408 65.352 140.64C66.12 139.872 67.1227 139.488 68.36 139.488H92.872H117.384C118.621 139.488 119.624 139.872 120.392 140.64C121.16 141.408 121.544 142.411 121.544 143.648V149.28C121.544 152.096 120.136 153.504 117.32 153.504C114.461 153.504 113.032 152.096 113.032 149.28V147.936C113.032 146.912 112.52 146.4 111.496 146.4H73.8C72.776 146.4 72.264 146.912 72.264 147.936V149.472C72.264 152.16 70.92 153.504 68.232 153.504ZM77.064 137.632C75.8267 137.632 74.824 137.248 74.056 136.48C73.288 135.712 72.904 134.709 72.904 133.472V127.392C72.904 126.155 73.288 125.152 74.056 124.384C74.824 123.616 75.8267 123.232 77.064 123.232H93.064H109.128C110.365 123.232 111.368 123.616 112.136 124.384C112.904 125.152 113.288 126.155 113.288 127.392V133.472C113.288 134.709 112.904 135.712 112.136 136.48C111.368 137.248 110.365 137.632 109.128 137.632H77.064ZM83.208 131.68H103.432V129.12H92.744H83.4C82.5467 129.12 82.12 129.547 82.12 130.4V130.592C82.12 131.317 82.4827 131.68 83.208 131.68ZM68.296 121.312C65.7787 121.312 64.52 120.053 64.52 117.536C64.52 115.019 65.7787 113.76 68.296 113.76H87.816V113.632C87.816 112.224 88.2427 111.157 89.096 110.432C89.992 109.664 91.1867 109.28 92.68 109.28C94.1733 109.28 95.3467 109.664 96.2 110.432C97.096 111.157 97.544 112.224 97.544 113.632V113.76H117.832C120.349 113.76 121.608 115.019 121.608 117.536C121.608 120.053 120.349 121.312 117.832 121.312H93.064H68.296ZM174.856 169.568C173.192 169.867 171.208 169.973 168.904 169.888C167.539 169.845 166.408 169.483 165.512 168.8C164.659 168.117 164.125 167.221 163.912 166.112C163.869 166.027 163.805 165.856 163.72 165.6C163.677 165.387 163.635 165.216 163.592 165.088C162.227 162.272 163.357 160.949 166.984 161.12C168.179 161.163 169.565 161.184 171.144 161.184C172.253 161.184 173.171 160.8 173.896 160.032C174.792 159.093 175.475 156.299 175.944 151.648C176.371 147.253 176.712 140.171 176.968 130.4C177.011 129.291 176.904 128.523 176.648 128.096C176.435 127.712 176.051 127.52 175.496 127.52H165C164.019 129.611 162.952 131.637 161.8 133.6C161.16 134.581 160.328 135.157 159.304 135.328C158.28 135.499 157.277 135.2 156.296 134.432C155.656 133.963 155.016 133.515 154.376 133.088V159.392C154.376 160.629 153.992 161.632 153.224 162.4C152.456 163.168 151.453 163.552 150.216 163.552H133.64C132.403 163.552 131.4 163.168 130.632 162.4C129.864 161.632 129.48 160.629 129.48 159.392V123.872C129.48 122.635 129.864 121.632 130.632 120.864C131.4 120.096 132.403 119.712 133.64 119.712H136.712C137.053 118.005 137.352 116.256 137.608 114.464C137.779 112.672 138.291 111.413 139.144 110.688C139.997 109.963 141.277 109.728 142.984 109.984C146.483 110.453 147.592 112.523 146.312 116.192C146.184 116.491 146.035 116.939 145.864 117.536C145.48 118.517 145.203 119.243 145.032 119.712H150.216C151.453 119.712 152.456 120.096 153.224 120.864C153.992 121.632 154.376 122.635 154.376 123.872V128.224C156.851 124.213 158.941 119.456 160.648 113.952C161.501 110.965 163.379 109.813 166.28 110.496C169.309 111.221 170.376 113.056 169.48 116C169.352 116.341 169.16 116.853 168.904 117.536C168.691 118.219 168.52 118.731 168.392 119.072H177.032H181.576C182.941 119.072 183.923 119.605 184.52 120.672C185.203 121.952 185.523 124.107 185.48 127.136C185.139 140.533 184.712 149.792 184.2 154.912C183.645 160.373 182.771 163.893 181.576 165.472C180.637 166.795 179.613 167.776 178.504 168.416C177.608 168.885 176.392 169.269 174.856 169.568ZM139.336 155.424H144.584C145.608 155.424 146.12 154.912 146.12 153.888V144.416H137.8V149.92V153.888C137.8 154.912 138.312 155.424 139.336 155.424ZM171.208 150.88C169.757 151.776 168.52 152.117 167.496 151.904C166.515 151.648 165.661 150.773 164.936 149.28C164.253 148 163.72 147.019 163.336 146.336C162.525 144.928 161.693 143.52 160.84 142.112C159.432 139.808 159.965 137.931 162.44 136.48C164.744 135.115 166.621 135.541 168.072 137.76C169.352 139.68 170.973 142.219 172.936 145.376C173.619 146.613 173.811 147.659 173.512 148.512C173.213 149.323 172.445 150.112 171.208 150.88ZM137.8 136.416H146.12V129.312C146.12 128.288 145.608 127.776 144.584 127.776H139.336C138.312 127.776 137.8 128.288 137.8 129.312V132.128V136.416ZM220.68 170.08C217.651 170.08 216.136 168.565 216.136 165.536V159.456L207.688 159.712L211.016 161.056C211.869 161.397 212.339 161.845 212.424 162.4C212.509 162.912 212.211 163.403 211.528 163.872C208.541 165.749 205.043 167.435 201.032 168.928C199.027 169.611 197.299 169.269 195.848 167.904C192.947 165.131 193.715 163.189 198.152 162.08C200.285 161.483 202.312 160.715 204.232 159.776C201.672 159.819 199.24 159.883 196.936 159.968C194.931 160.011 193.736 158.965 193.352 156.832C192.925 154.229 193.928 152.928 196.36 152.928C200.371 152.928 203.507 152.907 205.768 152.864L206.216 152.672C204.765 151.648 203.464 150.795 202.312 150.112C199.539 148.533 199.453 146.741 202.056 144.736C203.592 143.584 205.128 143.413 206.664 144.224C206.749 144.267 206.856 144.331 206.984 144.416C207.155 144.459 207.261 144.501 207.304 144.544C207.901 144.16 208.477 143.776 209.032 143.392C208.947 142.667 208.776 141.856 208.52 140.96C208.051 139.723 208.52 139.147 209.928 139.232C210.099 139.232 210.248 139.232 210.376 139.232C210.931 139.232 211.357 139.019 211.656 138.592C211.741 138.464 211.805 138.336 211.848 138.208H200.712V138.336C200.456 139.787 199.496 140.448 197.832 140.32C195.272 140.021 194.184 138.891 194.568 136.928C194.611 136.544 194.696 135.968 194.824 135.2C195.08 133.621 195.272 132.405 195.4 131.552H193.736C192.115 131.552 191.304 130.72 191.304 129.056C191.304 127.435 192.115 126.624 193.736 126.624H196.04C196.168 125.856 196.317 124.704 196.488 123.168C195.891 122.741 194.867 122.101 193.416 121.248C192.691 120.864 192.307 120.373 192.264 119.776C192.221 119.136 192.541 118.539 193.224 117.984C194.845 116.405 196.232 114.549 197.384 112.416C197.853 111.392 198.664 110.688 199.816 110.304C200.883 109.963 202.035 109.92 203.272 110.176C204.125 110.389 204.765 110.752 205.192 111.264C205.661 111.819 205.725 112.501 205.384 113.312H219.272C221.192 113.312 222.152 114.272 222.152 116.192C222.152 118.112 221.192 119.072 219.272 119.072H212.104H202.056C202.013 119.157 201.928 119.264 201.8 119.392C201.459 119.861 201.181 120.224 200.968 120.48H220.04C220.04 121.035 220.04 121.589 220.04 122.144C222.771 119.797 225.011 116.768 226.76 113.056C227.229 111.861 227.955 111.029 228.936 110.56C229.96 110.048 231.112 109.963 232.392 110.304C234.909 110.944 235.741 112.416 234.888 114.72H246.472C248.776 114.72 249.928 115.872 249.928 118.176C249.928 120.48 248.776 121.632 246.472 121.632H245.576C244.381 125.6 242.845 128.885 240.968 131.488C242.205 132.299 243.72 133.088 245.512 133.856C247.56 134.453 248.861 135.243 249.416 136.224C249.971 137.248 249.672 138.571 248.52 140.192C247.155 142.155 245.128 142.645 242.44 141.664C239.624 140.469 237.192 139.04 235.144 137.376C233.224 138.741 230.941 140.043 228.296 141.28L232.2 143.52C233.224 144.117 233.736 144.779 233.736 145.504C233.736 146.229 233.224 146.869 232.2 147.424C228.061 149.6 224.413 151.371 221.256 152.736L232.968 152.544C232.157 152.032 231.837 151.371 232.008 150.56C232.136 149.835 232.648 149.152 233.544 148.512C234.312 147.915 235.123 147.531 235.976 147.36C236.915 147.189 237.747 147.296 238.472 147.68C241.757 149.515 244.68 151.413 247.24 153.376C249.16 155.04 248.861 156.853 246.344 158.816C244.595 160.139 242.973 160.075 241.48 158.624L235.976 158.816C239.219 160.011 242.141 161.205 244.744 162.4C246.408 163.211 247.24 164.043 247.24 164.896C247.24 165.792 246.451 166.795 244.872 167.904C243.933 168.544 243.123 168.928 242.44 169.056C241.672 169.141 240.84 168.949 239.944 168.48C238.323 167.541 236.061 166.432 233.16 165.152C231.581 164.469 230.749 163.659 230.664 162.72C230.579 161.739 231.219 160.757 232.584 159.776L233.928 158.88L225.224 159.2V165.536C225.224 168.565 223.709 170.08 220.68 170.08ZM214.6 148.96C217.117 147.723 219.507 146.464 221.768 145.184C224.115 143.861 226.184 142.603 227.976 141.408C227.805 141.451 227.528 141.557 227.144 141.728C226.76 141.856 226.461 141.963 226.248 142.048C225.352 142.347 224.712 142.197 224.328 141.6C223.688 140.533 222.856 139.403 221.832 138.208H218.824C218.611 139.189 218.397 139.936 218.184 140.448L220.36 141.472C220.915 141.728 221.192 142.048 221.192 142.432C221.235 142.773 221 143.115 220.488 143.456C217.672 145.248 215.581 146.507 214.216 147.232C213.363 147.659 213.384 148.171 214.28 148.768C214.323 148.768 214.365 148.789 214.408 148.832C214.493 148.875 214.557 148.917 214.6 148.96ZM221.832 135.456C223.581 134.859 225.011 134.304 226.12 133.792C227.613 133.024 228.829 132.32 229.768 131.68C228.701 130.229 227.763 128.715 226.952 127.136C226.525 127.563 226.205 127.861 225.992 128.032C225.651 128.373 225.288 128.373 224.904 128.032C224.563 127.605 224.221 127.221 223.88 126.88V129.44C223.88 130.08 223.688 130.592 223.304 130.976C222.92 131.36 222.408 131.552 221.768 131.552H219.528L219.4 133.728H220.808C221.491 133.728 221.832 134.069 221.832 134.752V135.456ZM202.568 133.728H206.344C205.832 133.429 205.341 133.195 204.872 133.024C204.573 132.811 204.253 132.683 203.912 132.64C203.571 132.512 203.528 132.299 203.784 132L204.104 131.552C204.445 131.168 204.36 130.976 203.848 130.976H201.8L201.608 132.576C201.48 133.344 201.8 133.728 202.568 133.728ZM210.376 133.728H212.552C212.595 133.088 212.659 132.171 212.744 130.976H208.52C209.117 131.232 209.629 131.488 210.056 131.744C210.483 132 210.76 132.192 210.888 132.32C211.144 132.448 211.165 132.661 210.952 132.96L210.376 133.728ZM202.312 127.2H206.536C206.28 127.072 205.853 126.88 205.256 126.624C205.213 126.581 205.128 126.539 205 126.496C204.744 126.411 204.552 126.347 204.424 126.304C204.083 126.219 204.019 126.069 204.232 125.856L205.192 124.704H202.632L202.312 127.2ZM211.016 127.2H213L213.064 124.704H209.352C209.736 124.875 210.12 125.067 210.504 125.28C210.675 125.365 210.888 125.493 211.144 125.664C211.315 125.835 211.336 125.984 211.208 126.112L210.76 126.688C210.547 127.029 210.632 127.2 211.016 127.2ZM219.848 126.624H223.624C223.027 125.984 222.408 125.365 221.768 124.768C220.957 123.957 220.36 123.403 219.976 123.104L219.848 126.624ZM234.952 126.176C235.805 124.853 236.488 123.339 237 121.632H232.136C232.563 122.443 232.989 123.232 233.416 124C233.587 124.213 233.843 124.576 234.184 125.088C234.525 125.557 234.781 125.92 234.952 126.176ZM260.808 168.416C258.163 168.416 256.84 167.093 256.84 164.448C256.84 161.803 258.163 160.48 260.808 160.48H280.584V157.6H269.064C267.827 157.6 266.824 157.216 266.056 156.448C265.288 155.68 264.904 154.677 264.904 153.44L264.84 151.84C264.2 152.437 263.475 152.736 262.664 152.736C261.896 152.779 261.149 152.523 260.424 151.968C258.76 150.773 257.843 149.493 257.672 148.128C257.459 146.72 258.077 145.355 259.528 144.032C261.704 141.643 263.56 138.933 265.096 135.904H263.752C263.112 135.904 262.792 135.584 262.792 134.944V115.488C262.792 114.251 263.176 113.248 263.944 112.48C264.712 111.712 265.715 111.328 266.952 111.328H302.792C304.029 111.328 305.032 111.712 305.8 112.48C306.568 113.248 306.952 114.251 306.952 115.488V131.744C306.952 132.981 306.568 133.984 305.8 134.752C305.032 135.52 304.029 135.904 302.792 135.904H269.128L272.072 136.736C272.883 136.949 273.395 137.355 273.608 137.952C273.864 138.507 273.8 139.168 273.416 139.936L273.352 140L273.288 140.128H280.584V140C280.584 139.061 281.139 138.293 282.248 137.696C283.187 137.184 284.232 136.928 285.384 136.928C286.536 136.928 287.581 137.184 288.52 137.696C289.587 138.293 290.12 139.061 290.12 140V140.128H305.48C307.997 140.128 309.256 141.387 309.256 143.904C309.256 146.464 307.997 147.744 305.48 147.744H290.12V150.496H302.792C305.139 150.496 306.312 151.669 306.312 154.016C306.312 156.405 305.139 157.6 302.792 157.6H290.12V160.48H309.448C312.093 160.48 313.416 161.803 313.416 164.448C313.416 167.093 312.093 168.416 309.448 168.416H285.128H260.808ZM266.056 150.496H273.288H280.584V147.744H268.36C267.848 148.384 267.08 149.301 266.056 150.496ZM272.648 128.928H297.352V126.816H284.552H271.816V128.096C271.816 128.651 272.093 128.928 272.648 128.928ZM271.816 120.352H297.352V118.304H284.552H273.352C272.328 118.304 271.816 118.816 271.816 119.84V120.352ZM332.808 170.08C329.864 170.08 328.392 168.608 328.392 165.664V147.872C327.368 150.603 326.493 152.672 325.768 154.08C324.573 156.043 323.507 157.024 322.568 157.024C321.629 156.981 320.669 155.936 319.688 153.888C319.133 152.779 318.877 151.776 318.92 150.88C319.005 149.984 319.411 149.024 320.136 148C323.208 143.179 325.576 137.504 327.24 130.976H324.296C321.395 130.976 319.944 129.504 319.944 126.56C319.944 123.659 321.395 122.208 324.296 122.208H328.392V113.696C328.392 110.752 329.864 109.28 332.808 109.28C335.752 109.28 337.224 110.752 337.224 113.696V122.208H340.168C343.069 122.208 344.52 123.659 344.52 126.56C344.52 129.504 343.069 130.976 340.168 130.976H337.224V133.728C338.931 135.648 341.256 138.485 344.2 142.24C344.883 143.179 345.203 144.011 345.16 144.736C345.075 145.333 344.669 146.165 343.944 147.232C342.792 148.896 341.747 149.664 340.808 149.536C339.869 149.408 338.952 148.427 338.056 146.592C337.971 146.421 337.821 146.187 337.608 145.888C337.437 145.547 337.309 145.291 337.224 145.12V157.6V165.664C337.224 168.608 335.752 170.08 332.808 170.08ZM350.6 165.856C349.363 165.856 348.36 165.472 347.592 164.704C346.824 163.936 346.44 162.933 346.44 161.696V116.704C346.44 115.467 346.824 114.464 347.592 113.696C348.36 112.928 349.363 112.544 350.6 112.544H361.736H372.872C374.109 112.544 375.112 112.928 375.88 113.696C376.648 114.464 377.032 115.467 377.032 116.704V161.696C377.032 162.933 376.648 163.936 375.88 164.704C375.112 165.472 374.109 165.856 372.872 165.856H350.6ZM356.808 157.472H366.216C367.24 157.472 367.752 156.96 367.752 155.936V150.944H361.48H355.272V155.936C355.272 156.96 355.784 157.472 356.808 157.472ZM355.272 142.56H361.48H367.752V136.032H355.272V142.56ZM355.272 127.648H361.48H367.752V122.848C367.752 121.824 367.24 121.312 366.216 121.312H356.808C355.784 121.312 355.272 121.824 355.272 122.848V127.648ZM389.32 170.144C386.675 170.144 385.352 168.821 385.352 166.176V116.192C385.352 114.955 385.736 113.952 386.504 113.184C387.272 112.416 388.275 112.032 389.512 112.032H398.472L399.24 111.84C399.539 111.755 399.773 111.776 399.944 111.904L405.384 115.04L405.32 115.168L407.688 114.144C408.243 113.845 408.776 113.781 409.288 113.952C409.843 114.123 410.291 114.485 410.632 115.04C412.04 117.643 413.235 120.245 414.216 122.848V118.88C414.216 117.771 414.536 116.896 415.176 116.256C415.859 115.616 416.733 115.296 417.8 115.296H422.152C422.408 114.357 422.6 113.675 422.728 113.248C423.325 110.517 424.968 109.408 427.656 109.92C430.344 110.432 431.347 112.032 430.664 114.72C430.664 114.848 430.621 115.04 430.536 115.296H439.176C441.736 115.296 443.016 116.576 443.016 119.136C443.016 121.739 441.736 123.04 439.176 123.04H435.4H427.848C427.592 123.723 427.165 124.704 426.568 125.984H436.936C438.173 125.984 439.176 126.368 439.944 127.136C440.712 127.904 441.096 128.907 441.096 130.144V151.584C441.096 153.291 440.947 154.571 440.648 155.424C440.307 156.405 439.667 157.152 438.728 157.664C437.704 158.261 436.509 158.624 435.144 158.752C434.12 158.795 433.16 158.475 432.264 157.792C431.411 157.067 430.835 156.192 430.536 155.168C430.28 154.315 430.301 153.611 430.6 153.056C430.899 152.459 431.496 152.181 432.392 152.224C432.819 152.224 433.032 151.968 433.032 151.456V149.792H427.08V154.912C427.08 157.472 425.8 158.752 423.24 158.752C420.68 158.752 419.4 157.472 419.4 154.912V136.608C419.016 136.992 418.632 137.376 418.248 137.76C417.693 138.229 417.224 138.229 416.84 137.76C416.328 137.077 415.667 136.288 414.856 135.392V154.784C416.691 158.709 420.125 160.8 425.16 161.056C428.744 161.269 433.117 161.269 438.28 161.056C440.2 160.928 441.501 161.227 442.184 161.952C442.909 162.635 443.016 163.851 442.504 165.6C442.163 166.752 441.651 167.584 440.968 168.096C440.285 168.608 439.325 168.907 438.088 168.992C432.84 169.163 428.339 169.141 424.584 168.928C421.597 168.757 419.059 168.117 416.968 167.008C414.792 165.856 412.893 164.085 411.272 161.696C409.992 163.232 408.989 164.405 408.264 165.216C405.576 168.117 403.443 167.968 401.864 164.768C400.755 162.464 401.224 160.501 403.272 158.88C404.552 157.813 405.853 156.64 407.176 155.36V142.048H403.784C404.083 143.883 404.232 145.717 404.232 147.552C404.232 152.117 403.293 155.125 401.416 156.576C400.477 157.301 399.261 157.792 397.768 158.048C397.085 158.133 396.509 158.176 396.04 158.176C394.888 158.261 394.269 157.813 394.184 156.832C394.056 155.253 393.757 153.717 393.288 152.224V166.176C393.288 168.821 391.965 170.144 389.32 170.144ZM394.376 150.624C395.059 150.539 395.549 150.347 395.848 150.048C396.403 149.493 396.68 148.235 396.68 146.272C396.68 142.987 396.019 139.936 394.696 137.12C393.757 135.413 393.437 133.92 393.736 132.64C394.419 129.525 395.229 125.408 396.168 120.288H394.504C393.693 120.288 393.288 120.693 393.288 121.504V135.456V150.56C393.544 150.603 393.907 150.624 394.376 150.624ZM427.08 143.52H433.032V141.152H430.024H427.08V143.52ZM403.336 140V137.056C403.336 136.288 403.549 135.691 403.976 135.264C404.445 134.795 405.064 134.56 405.832 134.56H414.088C413.789 134.219 413.32 133.749 412.68 133.152C412.083 132.512 412.125 131.872 412.808 131.232C415.112 129.184 417.181 126.453 419.016 123.04H414.28C414.28 123.083 414.301 123.125 414.344 123.168C414.771 124.747 414.131 125.941 412.424 126.752C409.096 128.331 407.048 127.648 406.28 124.704C405.683 123.04 405 121.376 404.232 119.712C403.635 122.187 403.016 124.661 402.376 127.136C401.693 129.696 401.075 131.915 400.52 133.792C401.8 135.84 402.739 137.909 403.336 140ZM427.08 135.008H430.024H433.032V133.6C433.032 132.96 432.712 132.64 432.072 132.64H427.08V135.008Z" fill="#111111" fill-opacity="0.9"/>
</svg>
