<svg width="466" height="88" viewBox="0 0 466 88" fill="none" xmlns="http://www.w3.org/2000/svg">
<path d="M0.908 33.592L0.692 32.908C6.62 32.02 11.564 30.676 15.524 28.876C13.724 27.7 12.116 26.272 10.7 24.592C7.724 26.776 4.736 28.432 1.736 29.56L1.34 28.984C3.716 27.928 6.068 26.512 8.396 24.736C10.604 23.056 12.344 21.4 13.616 19.768H8.972V20.92C8.972 21.016 8.84 21.136 8.576 21.28C8.264 21.424 7.952 21.496 7.64 21.496H7.388V6.448L9.152 7.384H14.84C14.888 7.192 14.96 6.868 15.056 6.412C15.296 5.452 15.452 4.744 15.524 4.288H1.736L1.412 3.244H28.376L29.924 1.3C30.884 2.092 31.844 2.896 32.804 3.712C32.732 4.096 32.42 4.288 31.868 4.288H17.54C17.036 5.56 16.58 6.592 16.172 7.384H24.884L25.964 6.196L28.412 8.104C28.1 8.416 27.572 8.644 26.828 8.788V20.416C26.804 20.536 26.636 20.68 26.324 20.848C26.012 21.016 25.724 21.1 25.46 21.1H25.244V19.768H14.66L16.424 20.38C16.28 20.74 15.776 20.908 14.912 20.884C14.168 21.628 13.58 22.192 13.148 22.576H23.624L24.992 21.46L27.044 23.404C26.78 23.644 26.228 23.776 25.388 23.8C23.492 25.864 21.188 27.58 18.476 28.948C22.148 30.508 27.2 31.444 33.632 31.756L33.596 32.152C32.708 32.296 32.18 32.764 32.012 33.556C25.508 32.908 20.48 31.624 16.928 29.704C12.704 31.576 7.364 32.872 0.908 33.592ZM16.892 28.228C19.556 26.836 21.632 25.312 23.12 23.656H11.888L11.312 24.088C12.896 25.744 14.756 27.124 16.892 28.228ZM8.972 18.688H25.244V15.916H8.972V18.688ZM8.972 14.872H25.244V12.136H8.972V14.872ZM8.972 11.056H25.244V8.392H8.972V11.056ZM67.652 33.772C62.972 31.636 59.432 28.828 57.032 25.348C55.208 22.732 53.96 19.54 53.288 15.772H52.604C51.98 19.852 50.612 23.212 48.5 25.852C46.028 28.924 42.212 31.492 37.052 33.556L36.548 32.872C41.252 30.808 44.756 28.288 47.06 25.312C49.028 22.768 50.3 19.588 50.876 15.772H38.564L38.24 14.728H51.02C51.26 12.784 51.404 9.688 51.452 5.44H37.412L37.088 4.36H64.556L66.14 2.416C66.5 2.68 66.848 2.956 67.184 3.244C67.976 3.868 68.612 4.408 69.092 4.864C68.996 5.248 68.672 5.44 68.12 5.44H53.252C53.156 9.688 52.988 12.784 52.748 14.728H63.368L64.916 12.82C65.252 13.084 65.6 13.36 65.96 13.648C66.728 14.272 67.34 14.8 67.796 15.232C67.7 15.592 67.4 15.772 66.896 15.772H54.044C54.788 19.204 56.216 22.168 58.328 24.664C60.944 27.784 64.712 30.316 69.632 32.26L69.524 32.656C68.492 32.704 67.868 33.076 67.652 33.772ZM100.52 33.664C100.4 33.064 100.148 32.632 99.764 32.368C99.26 32.08 98.3 31.852 96.884 31.684V31.108C98.276 31.204 99.668 31.3 101.06 31.396C101.396 31.396 101.624 31.336 101.744 31.216C101.864 31.096 101.924 30.88 101.924 30.568V1.696L104.84 2.056C104.72 2.608 104.276 2.932 103.508 3.028V30.784C103.508 31.672 103.352 32.308 103.04 32.692C102.608 33.196 101.768 33.52 100.52 33.664ZM73.772 33.16L72.512 30.712C74.288 30.472 77.276 29.944 81.476 29.128V21.604H73.808L73.52 20.524H81.476V15.484L84.392 15.808C84.272 16.36 83.828 16.696 83.06 16.816V20.524H87.524L89 18.724C89.336 18.988 89.66 19.252 89.972 19.516C90.716 20.116 91.292 20.62 91.7 21.028C91.628 21.412 91.328 21.604 90.8 21.604H83.06V28.804C85.796 28.3 89.096 27.64 92.96 26.824L93.104 27.436C87.2 29.14 81.02 30.772 74.564 32.332C74.42 32.764 74.156 33.04 73.772 33.16ZM95.3 26.572V4.144L98.216 4.504C98.096 5.056 97.652 5.38 96.884 5.476V25.852C96.884 26.02 96.74 26.188 96.452 26.356C96.188 26.5 95.912 26.572 95.624 26.572H95.3ZM91.34 15.52C91.052 15.904 90.656 15.904 90.152 15.52C90.008 14.824 89.6 13.96 88.928 12.928C84.128 13.672 79.388 14.344 74.708 14.944C74.564 15.304 74.276 15.532 73.844 15.628L72.872 13.216C74.144 13.168 75.692 13.096 77.516 13C78.38 10.672 79.148 8.092 79.82 5.26H72.98L72.692 4.18H88.892L90.332 2.38C90.668 2.644 90.992 2.896 91.304 3.136C92.048 3.736 92.636 4.252 93.068 4.684C92.996 5.068 92.684 5.26 92.132 5.26H82.196C81.02 8.284 79.856 10.84 78.704 12.928C80.288 12.832 82.976 12.64 86.768 12.352C87.512 12.304 88.064 12.268 88.424 12.244C87.344 10.756 86.084 9.448 84.644 8.32L85.076 7.996C86.948 8.908 88.46 9.928 89.612 11.056C90.548 11.968 91.16 12.88 91.448 13.792C91.688 14.56 91.652 15.136 91.34 15.52ZM110.276 33.448L108.44 31.54C108.824 31.18 109.508 30.484 110.492 29.452C111.86 28.036 112.796 27.112 113.3 26.68V14.152H108.476L108.26 13.072H112.796L113.948 11.56L116.504 13.792C116.24 14.104 115.676 14.32 114.812 14.44V26.176C115.004 26.224 115.208 26.368 115.424 26.608C117.056 28.408 119.012 29.632 121.292 30.28C123.164 30.808 125.852 31.072 129.356 31.072C129.764 31.072 130.364 31.072 131.156 31.072C135.452 31.072 138.86 31.024 141.38 30.928V31.396C140.54 31.564 140.048 32.02 139.904 32.764H128.852C125.372 32.764 122.66 32.416 120.716 31.72C118.58 30.952 116.636 29.548 114.884 27.508C114.476 27.1 114.128 27.1 113.84 27.508C113.72 27.676 113.492 28 113.156 28.48C111.812 30.472 110.888 31.864 110.384 32.656C110.528 32.92 110.492 33.184 110.276 33.448ZM118.304 28.228L118.016 27.652C120.488 25.852 122.192 23.74 123.128 21.316C123.92 19.3 124.352 16.432 124.424 12.712H118.016L117.728 11.632H137.06L138.572 9.868C138.908 10.108 139.232 10.36 139.544 10.624C140.288 11.2 140.888 11.704 141.344 12.136C141.272 12.52 140.96 12.712 140.408 12.712H132.884V25.24C132.884 25.504 132.956 25.684 133.1 25.78C133.244 25.876 133.556 25.924 134.036 25.924H136.412C137.492 25.924 138.272 25.9 138.752 25.852C138.968 25.852 139.124 25.72 139.22 25.456C139.364 25.12 139.64 23.656 140.048 21.064V20.956H140.552L140.66 25.6C141.188 25.744 141.452 25.996 141.452 26.356C141.452 26.74 141.14 27.004 140.516 27.148C139.796 27.316 138.452 27.4 136.484 27.4H133.784C132.8 27.4 132.128 27.256 131.768 26.968C131.456 26.728 131.3 26.272 131.3 25.6V12.712H126.188C126.02 16.792 125.432 19.9 124.424 22.036C123.272 24.532 121.232 26.596 118.304 28.228ZM115.604 9.292C115.268 9.58 114.86 9.532 114.38 9.148C114.14 8.116 113.564 6.844 112.652 5.332C111.908 4.06 111.08 2.872 110.168 1.768L110.672 1.516C112.28 2.62 113.552 3.76 114.488 4.936C115.232 5.92 115.7 6.844 115.892 7.708C116.036 8.452 115.94 8.98 115.604 9.292ZM120.464 4.576L120.176 3.496H134.18L135.8 1.588C136.784 2.38 137.768 3.184 138.752 4C138.656 4.384 138.332 4.576 137.78 4.576H120.464ZM145.34 33.7L144.98 33.232C149.156 30.424 152.156 26.968 153.98 22.864C155.54 19.336 156.452 14.644 156.716 8.788H145.016L144.692 7.744H160.172V0.975998L163.088 1.3C163.016 1.852 162.572 2.176 161.756 2.272V7.744H172.988L174.536 5.836C174.872 6.1 175.22 6.376 175.58 6.664C176.372 7.288 176.996 7.816 177.452 8.248C177.356 8.608 177.032 8.788 176.48 8.788H158.804C158.588 11.548 158.336 13.792 158.048 15.52H169.424L170.468 14.332L172.808 16.24C172.544 16.504 172.052 16.672 171.332 16.744C171.14 20.632 170.816 23.896 170.36 26.536C169.832 29.56 169.184 31.444 168.416 32.188C167.48 33.172 166.184 33.64 164.528 33.592C164.528 32.992 164.276 32.56 163.772 32.296C163.22 32.008 161.732 31.708 159.308 31.396L159.344 30.712C159.584 30.736 159.992 30.772 160.568 30.82C163.544 31.108 165.272 31.252 165.752 31.252C166.496 31.252 167.036 31.096 167.372 30.784C167.924 30.28 168.428 28.636 168.884 25.852C169.268 23.356 169.556 20.272 169.748 16.6H157.832C157.064 20.512 155.756 23.788 153.908 26.428C151.892 29.308 149.036 31.732 145.34 33.7ZM211.184 32.908C210.92 33.436 210.464 33.484 209.816 33.052C209.384 31.804 208.604 30.424 207.476 28.912C200.804 29.92 193.1 30.964 184.364 32.044C184.124 32.476 183.824 32.728 183.464 32.8L182.24 30.244C184.352 30.148 186.308 30.016 188.108 29.848C189.092 28.288 190.172 26.284 191.348 23.836C192.452 21.532 193.376 19.384 194.12 17.392H180.944L180.62 16.312H196.136V8.608H183.644L183.32 7.564H196.136V1.012L199.052 1.336C198.932 1.888 198.488 2.224 197.72 2.344V7.564H206.324L207.836 5.656C208.172 5.92 208.508 6.196 208.844 6.484C209.636 7.108 210.26 7.636 210.716 8.068C210.62 8.428 210.308 8.608 209.78 8.608H197.72V16.312H208.916L210.5 14.368C210.86 14.632 211.208 14.908 211.544 15.196C212.336 15.82 212.972 16.36 213.452 16.816C213.356 17.2 213.044 17.392 212.516 17.392H196.496C194.12 22.384 191.744 26.512 189.368 29.776C192.92 29.488 198.776 28.96 206.936 28.192C204.968 25.696 202.832 23.488 200.528 21.568L200.996 21.208C203.756 22.888 206.024 24.616 207.8 26.392C209.24 27.832 210.26 29.2 210.86 30.496C211.34 31.576 211.448 32.38 211.184 32.908ZM241.388 33.592C241.388 32.92 241.172 32.464 240.74 32.224C240.212 31.912 239.036 31.612 237.212 31.324L237.248 30.64C239.888 30.928 241.58 31.072 242.324 31.072C242.732 31.072 243.02 31.048 243.188 31C243.38 30.928 243.572 30.784 243.764 30.568C244.94 29.392 245.672 21.952 245.96 8.248H236.348C234.812 11.44 233.156 13.972 231.38 15.844L230.84 15.448C232.112 13.672 233.288 11.524 234.368 9.004C235.472 6.412 236.348 3.748 236.996 1.012L239.876 1.84C239.684 2.344 239.252 2.584 238.58 2.56C238.076 4.072 237.488 5.608 236.816 7.168H245.6L246.716 5.872L249.128 7.888C248.84 8.176 248.348 8.356 247.652 8.428C247.388 22.276 246.548 30.1 245.132 31.9C244.316 33.028 243.068 33.592 241.388 33.592ZM218.456 32.62V6.196L220.22 7.168H221.804C222.38 5.296 222.932 3.232 223.46 0.975998L226.376 1.624C226.232 2.128 225.8 2.38 225.08 2.38C224.984 2.596 224.828 2.932 224.612 3.388C223.82 5.14 223.232 6.4 222.848 7.168H228.032L229.112 5.98L231.524 7.888C231.284 8.2 230.768 8.44 229.976 8.608V30.928C229.952 31.048 229.784 31.192 229.472 31.36C229.16 31.552 228.872 31.648 228.608 31.648H228.392V28.912H220.04V32.008C220.04 32.128 219.92 32.26 219.68 32.404C219.392 32.548 219.092 32.62 218.78 32.62H218.456ZM220.04 27.832H228.392V18.328H220.04V27.832ZM240.56 22.432C240.224 22.792 239.792 22.78 239.264 22.396C239.024 21.268 238.388 19.948 237.356 18.436C236.444 17.116 235.436 15.94 234.332 14.908L234.764 14.62C236.588 15.604 238.04 16.684 239.12 17.86C240.008 18.82 240.572 19.768 240.812 20.704C241.004 21.496 240.92 22.072 240.56 22.432ZM220.04 17.248H228.392V8.248H220.04V17.248ZM0.908 87.592L0.692 86.908C6.62 86.02 11.564 84.676 15.524 82.876C13.724 81.7 12.116 80.272 10.7 78.592C7.724 80.776 4.736 82.432 1.736 83.56L1.34 82.984C3.716 81.928 6.068 80.512 8.396 78.736C10.604 77.056 12.344 75.4 13.616 73.768H8.972V74.92C8.972 75.016 8.84 75.136 8.576 75.28C8.264 75.424 7.952 75.496 7.64 75.496H7.388V60.448L9.152 61.384H14.84C14.888 61.192 14.96 60.868 15.056 60.412C15.296 59.452 15.452 58.744 15.524 58.288H1.736L1.412 57.244H28.376L29.924 55.3C30.884 56.092 31.844 56.896 32.804 57.712C32.732 58.096 32.42 58.288 31.868 58.288H17.54C17.036 59.56 16.58 60.592 16.172 61.384H24.884L25.964 60.196L28.412 62.104C28.1 62.416 27.572 62.644 26.828 62.788V74.416C26.804 74.536 26.636 74.68 26.324 74.848C26.012 75.016 25.724 75.1 25.46 75.1H25.244V73.768H14.66L16.424 74.38C16.28 74.74 15.776 74.908 14.912 74.884C14.168 75.628 13.58 76.192 13.148 76.576H23.624L24.992 75.46L27.044 77.404C26.78 77.644 26.228 77.776 25.388 77.8C23.492 79.864 21.188 81.58 18.476 82.948C22.148 84.508 27.2 85.444 33.632 85.756L33.596 86.152C32.708 86.296 32.18 86.764 32.012 87.556C25.508 86.908 20.48 85.624 16.928 83.704C12.704 85.576 7.364 86.872 0.908 87.592ZM16.892 82.228C19.556 80.836 21.632 79.312 23.12 77.656H11.888L11.312 78.088C12.896 79.744 14.756 81.124 16.892 82.228ZM8.972 72.688H25.244V69.916H8.972V72.688ZM8.972 68.872H25.244V66.136H8.972V68.872ZM8.972 65.056H25.244V62.392H8.972V65.056ZM67.652 87.772C62.972 85.636 59.432 82.828 57.032 79.348C55.208 76.732 53.96 73.54 53.288 69.772H52.604C51.98 73.852 50.612 77.212 48.5 79.852C46.028 82.924 42.212 85.492 37.052 87.556L36.548 86.872C41.252 84.808 44.756 82.288 47.06 79.312C49.028 76.768 50.3 73.588 50.876 69.772H38.564L38.24 68.728H51.02C51.26 66.784 51.404 63.688 51.452 59.44H37.412L37.088 58.36H64.556L66.14 56.416C66.5 56.68 66.848 56.956 67.184 57.244C67.976 57.868 68.612 58.408 69.092 58.864C68.996 59.248 68.672 59.44 68.12 59.44H53.252C53.156 63.688 52.988 66.784 52.748 68.728H63.368L64.916 66.82C65.252 67.084 65.6 67.36 65.96 67.648C66.728 68.272 67.34 68.8 67.796 69.232C67.7 69.592 67.4 69.772 66.896 69.772H54.044C54.788 73.204 56.216 76.168 58.328 78.664C60.944 81.784 64.712 84.316 69.632 86.26L69.524 86.656C68.492 86.704 67.868 87.076 67.652 87.772ZM100.52 87.664C100.4 87.064 100.148 86.632 99.764 86.368C99.26 86.08 98.3 85.852 96.884 85.684V85.108C98.276 85.204 99.668 85.3 101.06 85.396C101.396 85.396 101.624 85.336 101.744 85.216C101.864 85.096 101.924 84.88 101.924 84.568V55.696L104.84 56.056C104.72 56.608 104.276 56.932 103.508 57.028V84.784C103.508 85.672 103.352 86.308 103.04 86.692C102.608 87.196 101.768 87.52 100.52 87.664ZM73.772 87.16L72.512 84.712C74.288 84.472 77.276 83.944 81.476 83.128V75.604H73.808L73.52 74.524H81.476V69.484L84.392 69.808C84.272 70.36 83.828 70.696 83.06 70.816V74.524H87.524L89 72.724C89.336 72.988 89.66 73.252 89.972 73.516C90.716 74.116 91.292 74.62 91.7 75.028C91.628 75.412 91.328 75.604 90.8 75.604H83.06V82.804C85.796 82.3 89.096 81.64 92.96 80.824L93.104 81.436C87.2 83.14 81.02 84.772 74.564 86.332C74.42 86.764 74.156 87.04 73.772 87.16ZM95.3 80.572V58.144L98.216 58.504C98.096 59.056 97.652 59.38 96.884 59.476V79.852C96.884 80.02 96.74 80.188 96.452 80.356C96.188 80.5 95.912 80.572 95.624 80.572H95.3ZM91.34 69.52C91.052 69.904 90.656 69.904 90.152 69.52C90.008 68.824 89.6 67.96 88.928 66.928C84.128 67.672 79.388 68.344 74.708 68.944C74.564 69.304 74.276 69.532 73.844 69.628L72.872 67.216C74.144 67.168 75.692 67.096 77.516 67C78.38 64.672 79.148 62.092 79.82 59.26H72.98L72.692 58.18H88.892L90.332 56.38C90.668 56.644 90.992 56.896 91.304 57.136C92.048 57.736 92.636 58.252 93.068 58.684C92.996 59.068 92.684 59.26 92.132 59.26H82.196C81.02 62.284 79.856 64.84 78.704 66.928C80.288 66.832 82.976 66.64 86.768 66.352C87.512 66.304 88.064 66.268 88.424 66.244C87.344 64.756 86.084 63.448 84.644 62.32L85.076 61.996C86.948 62.908 88.46 63.928 89.612 65.056C90.548 65.968 91.16 66.88 91.448 67.792C91.688 68.56 91.652 69.136 91.34 69.52ZM110.276 87.448L108.44 85.54C108.824 85.18 109.508 84.484 110.492 83.452C111.86 82.036 112.796 81.112 113.3 80.68V68.152H108.476L108.26 67.072H112.796L113.948 65.56L116.504 67.792C116.24 68.104 115.676 68.32 114.812 68.44V80.176C115.004 80.224 115.208 80.368 115.424 80.608C117.056 82.408 119.012 83.632 121.292 84.28C123.164 84.808 125.852 85.072 129.356 85.072C129.764 85.072 130.364 85.072 131.156 85.072C135.452 85.072 138.86 85.024 141.38 84.928V85.396C140.54 85.564 140.048 86.02 139.904 86.764H128.852C125.372 86.764 122.66 86.416 120.716 85.72C118.58 84.952 116.636 83.548 114.884 81.508C114.476 81.1 114.128 81.1 113.84 81.508C113.72 81.676 113.492 82 113.156 82.48C111.812 84.472 110.888 85.864 110.384 86.656C110.528 86.92 110.492 87.184 110.276 87.448ZM118.304 82.228L118.016 81.652C120.488 79.852 122.192 77.74 123.128 75.316C123.92 73.3 124.352 70.432 124.424 66.712H118.016L117.728 65.632H137.06L138.572 63.868C138.908 64.108 139.232 64.36 139.544 64.624C140.288 65.2 140.888 65.704 141.344 66.136C141.272 66.52 140.96 66.712 140.408 66.712H132.884V79.24C132.884 79.504 132.956 79.684 133.1 79.78C133.244 79.876 133.556 79.924 134.036 79.924H136.412C137.492 79.924 138.272 79.9 138.752 79.852C138.968 79.852 139.124 79.72 139.22 79.456C139.364 79.12 139.64 77.656 140.048 75.064V74.956H140.552L140.66 79.6C141.188 79.744 141.452 79.996 141.452 80.356C141.452 80.74 141.14 81.004 140.516 81.148C139.796 81.316 138.452 81.4 136.484 81.4H133.784C132.8 81.4 132.128 81.256 131.768 80.968C131.456 80.728 131.3 80.272 131.3 79.6V66.712H126.188C126.02 70.792 125.432 73.9 124.424 76.036C123.272 78.532 121.232 80.596 118.304 82.228ZM115.604 63.292C115.268 63.58 114.86 63.532 114.38 63.148C114.14 62.116 113.564 60.844 112.652 59.332C111.908 58.06 111.08 56.872 110.168 55.768L110.672 55.516C112.28 56.62 113.552 57.76 114.488 58.936C115.232 59.92 115.7 60.844 115.892 61.708C116.036 62.452 115.94 62.98 115.604 63.292ZM120.464 58.576L120.176 57.496H134.18L135.8 55.588C136.784 56.38 137.768 57.184 138.752 58C138.656 58.384 138.332 58.576 137.78 58.576H120.464ZM145.34 87.7L144.98 87.232C149.156 84.424 152.156 80.968 153.98 76.864C155.54 73.336 156.452 68.644 156.716 62.788H145.016L144.692 61.744H160.172V54.976L163.088 55.3C163.016 55.852 162.572 56.176 161.756 56.272V61.744H172.988L174.536 59.836C174.872 60.1 175.22 60.376 175.58 60.664C176.372 61.288 176.996 61.816 177.452 62.248C177.356 62.608 177.032 62.788 176.48 62.788H158.804C158.588 65.548 158.336 67.792 158.048 69.52H169.424L170.468 68.332L172.808 70.24C172.544 70.504 172.052 70.672 171.332 70.744C171.14 74.632 170.816 77.896 170.36 80.536C169.832 83.56 169.184 85.444 168.416 86.188C167.48 87.172 166.184 87.64 164.528 87.592C164.528 86.992 164.276 86.56 163.772 86.296C163.22 86.008 161.732 85.708 159.308 85.396L159.344 84.712C159.584 84.736 159.992 84.772 160.568 84.82C163.544 85.108 165.272 85.252 165.752 85.252C166.496 85.252 167.036 85.096 167.372 84.784C167.924 84.28 168.428 82.636 168.884 79.852C169.268 77.356 169.556 74.272 169.748 70.6H157.832C157.064 74.512 155.756 77.788 153.908 80.428C151.892 83.308 149.036 85.732 145.34 87.7ZM211.184 86.908C210.92 87.436 210.464 87.484 209.816 87.052C209.384 85.804 208.604 84.424 207.476 82.912C200.804 83.92 193.1 84.964 184.364 86.044C184.124 86.476 183.824 86.728 183.464 86.8L182.24 84.244C184.352 84.148 186.308 84.016 188.108 83.848C189.092 82.288 190.172 80.284 191.348 77.836C192.452 75.532 193.376 73.384 194.12 71.392H180.944L180.62 70.312H196.136V62.608H183.644L183.32 61.564H196.136V55.012L199.052 55.336C198.932 55.888 198.488 56.224 197.72 56.344V61.564H206.324L207.836 59.656C208.172 59.92 208.508 60.196 208.844 60.484C209.636 61.108 210.26 61.636 210.716 62.068C210.62 62.428 210.308 62.608 209.78 62.608H197.72V70.312H208.916L210.5 68.368C210.86 68.632 211.208 68.908 211.544 69.196C212.336 69.82 212.972 70.36 213.452 70.816C213.356 71.2 213.044 71.392 212.516 71.392H196.496C194.12 76.384 191.744 80.512 189.368 83.776C192.92 83.488 198.776 82.96 206.936 82.192C204.968 79.696 202.832 77.488 200.528 75.568L200.996 75.208C203.756 76.888 206.024 78.616 207.8 80.392C209.24 81.832 210.26 83.2 210.86 84.496C211.34 85.576 211.448 86.38 211.184 86.908ZM241.388 87.592C241.388 86.92 241.172 86.464 240.74 86.224C240.212 85.912 239.036 85.612 237.212 85.324L237.248 84.64C239.888 84.928 241.58 85.072 242.324 85.072C242.732 85.072 243.02 85.048 243.188 85C243.38 84.928 243.572 84.784 243.764 84.568C244.94 83.392 245.672 75.952 245.96 62.248H236.348C234.812 65.44 233.156 67.972 231.38 69.844L230.84 69.448C232.112 67.672 233.288 65.524 234.368 63.004C235.472 60.412 236.348 57.748 236.996 55.012L239.876 55.84C239.684 56.344 239.252 56.584 238.58 56.56C238.076 58.072 237.488 59.608 236.816 61.168H245.6L246.716 59.872L249.128 61.888C248.84 62.176 248.348 62.356 247.652 62.428C247.388 76.276 246.548 84.1 245.132 85.9C244.316 87.028 243.068 87.592 241.388 87.592ZM218.456 86.62V60.196L220.22 61.168H221.804C222.38 59.296 222.932 57.232 223.46 54.976L226.376 55.624C226.232 56.128 225.8 56.38 225.08 56.38C224.984 56.596 224.828 56.932 224.612 57.388C223.82 59.14 223.232 60.4 222.848 61.168H228.032L229.112 59.98L231.524 61.888C231.284 62.2 230.768 62.44 229.976 62.608V84.928C229.952 85.048 229.784 85.192 229.472 85.36C229.16 85.552 228.872 85.648 228.608 85.648H228.392V82.912H220.04V86.008C220.04 86.128 219.92 86.26 219.68 86.404C219.392 86.548 219.092 86.62 218.78 86.62H218.456ZM220.04 81.832H228.392V72.328H220.04V81.832ZM240.56 76.432C240.224 76.792 239.792 76.78 239.264 76.396C239.024 75.268 238.388 73.948 237.356 72.436C236.444 71.116 235.436 69.94 234.332 68.908L234.764 68.62C236.588 69.604 238.04 70.684 239.12 71.86C240.008 72.82 240.572 73.768 240.812 74.704C241.004 75.496 240.92 76.072 240.56 76.432ZM220.04 71.248H228.392V62.248H220.04V71.248ZM269.396 87.7V74.236H262.16V85.576C262.16 85.672 262.04 85.792 261.8 85.936C261.512 86.08 261.2 86.152 260.864 86.152H260.648V73.516C258.272 76.012 255.692 78.04 252.908 79.6L252.512 79.096C256.688 76.36 260.228 72.616 263.132 67.864H253.232L252.908 66.82H263.78C264.62 65.308 265.34 63.772 265.94 62.212L268.712 63.256C268.52 63.664 268.04 63.82 267.272 63.724C266.768 64.78 266.228 65.812 265.652 66.82H281.204L282.68 64.984C283.592 65.752 284.504 66.52 285.416 67.288C285.32 67.672 285.008 67.864 284.48 67.864H265.04C263.912 69.616 262.712 71.212 261.44 72.652L262.592 73.192H269.396V68.872L272.168 69.196C272.096 69.676 271.712 69.976 271.016 70.096V73.192H278.612L279.548 72.004L282.14 73.912C281.852 74.248 281.336 74.476 280.592 74.596V83.272C280.592 84.112 280.436 84.712 280.124 85.072C279.716 85.552 278.912 85.852 277.712 85.972C277.568 85.372 277.328 84.952 276.992 84.712C276.536 84.424 275.648 84.196 274.328 84.028V83.452C275.624 83.524 276.92 83.608 278.216 83.704C278.504 83.704 278.696 83.656 278.792 83.56C278.912 83.464 278.972 83.284 278.972 83.02V74.236H271.016V86.98C271.016 87.124 270.872 87.28 270.584 87.448C270.296 87.616 270.008 87.7 269.72 87.7H269.396ZM279.872 64.192C279.584 64.384 279.188 64.336 278.684 64.048C276.572 62.632 273.812 61.348 270.404 60.196C265.124 62.044 259.82 63.388 254.492 64.228L254.312 63.508C258.968 62.596 263.624 61.264 268.28 59.512C265.112 58.576 261.596 57.724 257.732 56.956L257.912 56.164C262.808 56.86 267.02 57.688 270.548 58.648C273.692 57.4 276.248 56.14 278.216 54.868L280.628 56.596C280.364 56.932 279.8 56.956 278.936 56.668C277.064 57.58 275.012 58.468 272.78 59.332C274.916 60.028 276.62 60.748 277.892 61.492C278.924 62.092 279.608 62.668 279.944 63.22C280.208 63.676 280.184 64 279.872 64.192ZM289.052 86.8L288.728 85.756H304.208V81.22H293.228L292.976 80.14H304.208V75.928H291.86L291.536 74.848H315.008L316.484 73.048C316.82 73.312 317.144 73.564 317.456 73.804C318.2 74.404 318.776 74.92 319.184 75.352C319.112 75.736 318.812 75.928 318.284 75.928H305.792V80.14H313.604L315.044 78.376C315.356 78.616 315.68 78.868 316.016 79.132C316.736 79.708 317.3 80.212 317.708 80.644C317.636 81.028 317.336 81.22 316.808 81.22H305.792V85.756H317.024L318.536 83.884C319.472 84.676 320.396 85.456 321.308 86.224C321.236 86.608 320.924 86.8 320.372 86.8H289.052ZM302.948 73.228L302.516 72.724C304.652 70.756 306.164 68.464 307.052 65.848C307.7 63.88 308.024 61.588 308.024 58.972V55.768L309.968 56.776H317.528L318.536 55.588L320.804 57.46C320.564 57.7 320.096 57.868 319.4 57.964C319.16 65.908 318.356 70.564 316.988 71.932C316.244 72.724 315.284 73.096 314.108 73.048C314.108 72.472 313.94 72.064 313.604 71.824C313.244 71.608 312.524 71.428 311.444 71.284L311.48 70.6C311.648 70.624 311.936 70.648 312.344 70.672C313.64 70.768 314.444 70.816 314.756 70.816C315.284 70.816 315.68 70.696 315.944 70.456C316.424 69.976 316.844 68.572 317.204 66.244H308.456C307.376 69.052 305.54 71.38 302.948 73.228ZM294.92 70.312C293.864 70.312 293.156 70.18 292.796 69.916C292.484 69.7 292.328 69.256 292.328 68.584V61.096H288.872L288.584 60.016H296.18V55.048L299.096 55.372C299.024 55.924 298.592 56.248 297.8 56.344V60.016H301.94L303.344 58.288C303.656 58.552 303.968 58.804 304.28 59.044C305 59.644 305.564 60.136 305.972 60.52C305.876 60.904 305.564 61.096 305.036 61.096H293.912V68.26C293.912 68.524 293.984 68.704 294.128 68.8C294.272 68.872 294.62 68.908 295.172 68.908H298.232C299.84 68.908 300.8 68.896 301.112 68.872C301.256 68.848 301.448 68.836 301.688 68.836H301.724C302.012 68.788 302.204 68.74 302.3 68.692H302.732C303.116 68.788 303.368 68.872 303.488 68.944C303.632 69.04 303.704 69.184 303.704 69.376C303.704 69.736 303.368 69.976 302.696 70.096C301.952 70.24 300.428 70.312 298.124 70.312H294.92ZM308.816 65.164H317.312C317.384 64.684 317.468 63.892 317.564 62.788C317.588 62.428 317.612 62.164 317.636 61.996H309.464C309.344 63.052 309.128 64.108 308.816 65.164ZM309.572 60.916H317.708C317.708 60.628 317.732 60.184 317.78 59.584C317.804 58.816 317.828 58.228 317.852 57.82H309.644V58.972C309.644 59.812 309.62 60.46 309.572 60.916ZM353.708 87.268C353.396 87.724 352.928 87.748 352.304 87.34C351.92 86.284 351.236 85.096 350.252 83.776C343.652 84.688 336.608 85.528 329.12 86.296C328.952 86.704 328.652 86.956 328.22 87.052L327.14 84.604C328.268 84.58 330.176 84.484 332.864 84.316C334.544 81.244 335.948 78.016 337.076 74.632H326.636L326.312 73.588H351.08L352.7 71.644C353.036 71.908 353.384 72.184 353.744 72.472C354.536 73.096 355.16 73.636 355.616 74.092C355.52 74.452 355.208 74.632 354.68 74.632H339.452C337.82 78.184 336.044 81.388 334.124 84.244C334.628 84.196 335.408 84.136 336.464 84.064C342.128 83.656 346.544 83.32 349.712 83.056C348.152 81.088 346.484 79.36 344.708 77.872L345.176 77.548C347.6 78.868 349.568 80.248 351.08 81.688C352.304 82.888 353.144 84.052 353.6 85.18C353.984 86.116 354.02 86.812 353.708 87.268ZM324.764 69.952L324.476 69.412C327.572 67.852 330.644 65.668 333.692 62.86C336.836 59.932 338.9 57.292 339.884 54.94L343.52 55.768C343.424 56.128 342.968 56.344 342.152 56.416C343.736 58.552 345.908 60.616 348.668 62.608C351.428 64.6 354.38 66.22 357.524 67.468L357.452 68.008C357.02 68.056 356.624 68.212 356.264 68.476C355.904 68.74 355.664 69.04 355.544 69.376C352.592 67.96 349.832 66.124 347.264 63.868C344.72 61.588 342.788 59.248 341.468 56.848C339.812 59.248 337.448 61.66 334.376 64.084C331.256 66.556 328.052 68.512 324.764 69.952ZM332.324 68.08L332.036 67.036H345.248L346.796 65.056C347.78 65.872 348.764 66.688 349.748 67.504C349.676 67.888 349.364 68.08 348.812 68.08H332.324ZM363.14 87.664V57.1L364.94 58.036H388.7L389.744 56.812L392.228 58.756C391.94 59.068 391.412 59.308 390.644 59.476V86.692C390.62 86.812 390.44 86.956 390.104 87.124C389.792 87.316 389.504 87.412 389.24 87.412H389.024V84.856H364.724V86.98C364.724 87.124 364.604 87.268 364.364 87.412C364.124 87.58 363.824 87.664 363.464 87.664H363.14ZM364.724 83.776H389.024V59.116H364.724V83.776ZM370.664 78.772V64.66L372.392 65.524H380.996L382.04 64.372L384.488 66.244C384.2 66.58 383.684 66.82 382.94 66.964V78.016C382.916 78.136 382.736 78.28 382.4 78.448C382.088 78.592 381.812 78.664 381.572 78.664H381.356V76.72H372.248V78.232C372.248 78.328 372.116 78.436 371.852 78.556C371.54 78.7 371.228 78.772 370.916 78.772H370.664ZM372.248 75.676H381.356V66.604H372.248V75.676ZM412.136 87.664V73.156C410.36 75.724 408.14 78.124 405.476 80.356C402.836 82.54 399.944 84.4 396.8 85.936L396.404 85.324C399.308 83.668 402.02 81.676 404.54 79.348C407.06 77.02 409.112 74.596 410.696 72.076H397.124L396.8 71.032H412.136V61.636H398.924L398.636 60.556H412.136V54.976L415.016 55.3C414.896 55.852 414.464 56.188 413.72 56.308V60.556H423.08L424.628 58.684C424.964 58.948 425.3 59.212 425.636 59.476C426.38 60.1 426.98 60.628 427.436 61.06C427.34 61.444 427.04 61.636 426.536 61.636H413.72V71.032H424.628L426.176 69.088C426.536 69.352 426.884 69.628 427.22 69.916C428.012 70.54 428.648 71.08 429.128 71.536C429.032 71.896 428.72 72.076 428.192 72.076H414.296C415.976 74.596 418.244 76.96 421.1 79.168C423.884 81.28 426.704 82.864 429.56 83.92L429.524 84.28C428.66 84.328 428.096 84.76 427.832 85.576C425.072 84.28 422.456 82.528 419.984 80.32C417.368 77.992 415.28 75.436 413.72 72.652V86.908C413.72 87.076 413.576 87.244 413.288 87.412C413.024 87.58 412.748 87.664 412.46 87.664H412.136ZM417.428 70.276L416.888 69.88C418.52 67.744 419.948 65.272 421.172 62.464L423.908 63.796C423.668 64.276 423.212 64.444 422.54 64.3C420.908 66.772 419.204 68.764 417.428 70.276ZM407.384 69.772C407.024 70.06 406.604 70 406.124 69.592C406.052 68.56 405.644 67.336 404.9 65.92C404.276 64.744 403.544 63.64 402.704 62.608L403.172 62.356C404.66 63.316 405.812 64.36 406.628 65.488C407.3 66.424 407.684 67.324 407.78 68.188C407.876 68.932 407.744 69.46 407.384 69.772ZM458.108 87.664C458.108 87.064 457.928 86.656 457.568 86.44C457.184 86.2 456.296 85.984 454.904 85.792L454.94 85.108C457.124 85.3 458.456 85.396 458.936 85.396C459.512 85.396 459.932 85.276 460.196 85.036C461.276 84.076 461.996 79.972 462.356 72.724H449.108L448.064 73.732L445.94 71.896C446.396 71.632 446.9 71.428 447.452 71.284C448.268 66.964 448.796 63.352 449.036 60.448L451.808 61.276C451.616 61.804 451.16 62.032 450.44 61.96C450.056 65.32 449.564 68.548 448.964 71.644H457.676C458.204 68.092 458.684 63.616 459.116 58.216H445.832L445.508 57.136H458.828L459.836 55.984L462.248 57.964C462.008 58.252 461.468 58.444 460.628 58.54C460.196 63.676 459.788 68.044 459.404 71.644H462.032L463.04 70.492L465.272 72.328C465.08 72.568 464.624 72.748 463.904 72.868C463.544 80.596 462.656 85.156 461.24 86.548C460.424 87.292 459.38 87.664 458.108 87.664ZM434.24 84.172V57.46L436.004 58.396H440.756L441.836 57.208L444.284 59.116C444.044 59.428 443.516 59.668 442.7 59.836V82.012C442.676 82.156 442.508 82.312 442.196 82.48C441.908 82.624 441.62 82.696 441.332 82.696H441.116V79.132H435.788V83.524C435.788 83.644 435.668 83.776 435.428 83.92C435.164 84.088 434.864 84.172 434.528 84.172H434.24ZM444.284 78.52L443.996 77.44H455.336L456.812 75.64C457.124 75.904 457.448 76.156 457.784 76.396C458.504 76.996 459.08 77.512 459.512 77.944C459.44 78.328 459.128 78.52 458.576 78.52H444.284ZM435.788 78.052H441.116V59.476H435.788V78.052Z" fill="black"/>
</svg>
