<svg width="436" height="109" viewBox="0 0 436 109" fill="none" xmlns="http://www.w3.org/2000/svg">
<path d="M3.192 41.3C3.016 41.3 2.84 41.1973 2.664 40.992C2.488 40.816 2.4 40.6253 2.4 40.42C2.664 36.636 2.82533 32.8227 2.884 28.98V11.468C2.884 7.772 2.69333 4.76533 2.312 2.448L5.26 3.856H11.112L11.816 3.108C11.8747 3.04933 11.9627 2.96133 12.08 2.844C12.4027 2.492 12.652 2.316 12.828 2.316C13.092 2.316 13.5907 2.72666 14.324 3.548C15.0573 4.34 15.424 4.89733 15.424 5.22C15.2187 5.51333 14.6173 5.66 13.62 5.66C13.5027 5.924 13.2827 6.364 12.96 6.98C10.8187 11.4973 9.308 14.4893 8.428 15.956C12.2707 19.124 14.192 22.512 14.192 26.12C14.192 28.1733 13.796 29.64 13.004 30.52C12.2413 31.4 10.9067 31.8987 9 32.016C9 31.2533 8.83867 30.7253 8.516 30.432C8.10533 30.168 7.35733 29.992 6.272 29.904V29.156H9.792C10.2027 29.156 10.5547 29.068 10.848 28.892C11.6107 28.452 11.992 27.396 11.992 25.724C11.992 22.4093 10.452 19.1973 7.372 16.088C8.692 12.8613 9.95333 9.224 11.156 5.176H4.732V29.948C4.79067 33.5853 4.908 37.032 5.084 40.288C4.49733 40.9627 3.86667 41.3 3.192 41.3ZM22.068 40.112C20.6893 40.112 19.78 39.9507 19.34 39.628C18.9293 39.364 18.724 38.8067 18.724 37.956V33.38C18.724 31.532 18.636 29.9333 18.46 28.584C19.9853 29.2 20.924 29.6693 21.276 29.992C21.54 30.256 21.496 30.5053 21.144 30.74L20.572 31.136V37.648C20.572 37.9413 20.6747 38.132 20.88 38.22C21.0853 38.308 21.5693 38.352 22.332 38.352H26.6C29.0053 38.352 30.384 38.3373 30.736 38.308C31.0587 38.2787 31.2933 38.132 31.44 37.868C31.7627 37.164 32.0707 35.844 32.364 33.908H32.936L33.068 37.956C33.7133 38.132 34.036 38.4107 34.036 38.792C34.036 39.2907 33.596 39.628 32.716 39.804C31.7187 40.0093 29.6947 40.112 26.644 40.112H22.068ZM12.3 39.1C11.772 39.2467 11.376 39.188 11.112 38.924C10.9653 38.6307 10.9507 38.308 11.068 37.956C11.1853 37.5747 11.4053 37.252 11.728 36.988C12.5787 36.3427 13.3413 35.3307 14.016 33.952C14.72 32.4853 15.1307 31.004 15.248 29.508L16.04 29.552C16.2747 31.576 16.1133 33.424 15.556 35.096C15.116 36.4453 14.5 37.5013 13.708 38.264C13.2973 38.6747 12.828 38.9533 12.3 39.1ZM38.26 38.176C37.82 38.616 37.3067 38.572 36.72 38.044C36.6613 36.6653 36.1773 35.1107 35.268 33.38C34.4467 31.8253 33.4787 30.476 32.364 29.332L32.936 28.98C34.8133 30.0947 36.2653 31.356 37.292 32.764C38.1133 33.908 38.5973 35.0227 38.744 36.108C38.8613 37.076 38.7 37.7653 38.26 38.176ZM27.788 34.524C27.436 34.8173 27.0253 34.7293 26.556 34.26C26.5267 33.1747 26.1893 31.9133 25.544 30.476C24.9867 29.2147 24.3413 28.0853 23.608 27.088L24.18 26.78C25.5587 27.836 26.6147 28.9507 27.348 30.124C27.964 31.1213 28.2867 32.06 28.316 32.94C28.3453 33.7027 28.1693 34.2307 27.788 34.524ZM34.212 27.616V25.812H22.596C20.5133 25.8413 18.3133 26.0467 15.996 26.428L14.852 24.14C16.4653 24.316 18.416 24.4333 20.704 24.492H34.212V19.872H24.312C22.2293 19.9013 20.0293 20.1067 17.712 20.488L16.524 18.2C18.1373 18.376 20.088 18.4933 22.376 18.552H34.212V14.02H23.432C21.3493 14.0493 19.1493 14.2547 16.832 14.636L15.688 12.348C17.3013 12.524 19.252 12.6413 21.54 12.7H26.468C27.6413 11.292 28.8293 9.488 30.032 7.288H20.264C18.0053 10.6613 15.6 13.3307 13.048 15.296L12.432 14.812C13.9867 13.2867 15.556 11.2627 17.14 8.74C17.932 7.47867 18.6653 6.07067 19.34 4.516C20.0147 2.932 20.484 1.53866 20.748 0.335997C23.8867 1.71467 24.9133 2.46267 23.828 2.58L23.036 2.668L22.992 2.712C22.2587 4.14933 21.6427 5.23467 21.144 5.968H30.296C30.4427 5.82133 30.7067 5.54266 31.088 5.132C31.4693 4.72133 31.748 4.428 31.924 4.252C33.1267 5.51333 33.8307 6.364 34.036 6.804C34.212 7.156 34.08 7.36133 33.64 7.42L32.804 7.508C32.716 7.62533 32.5547 7.80133 32.32 8.036C30.2373 10.2653 28.6387 11.82 27.524 12.7H34.256L35.312 11.424C36.368 12.3333 36.9987 12.9787 37.204 13.36C37.3507 13.6827 37.2187 13.932 36.808 14.108L36.06 14.372V18.552C36.148 22.0427 36.2507 24.7413 36.368 26.648C35.7227 27.2933 35.1213 27.616 34.564 27.616H34.212ZM63.12 41.432L62.592 40.772C65.056 39.3053 67.2267 37.5747 69.104 35.58H58.72V37.736C58.72 37.8533 58.5733 38 58.28 38.176C57.9573 38.3813 57.576 38.484 57.136 38.484C56.9893 38.484 56.8427 38.3813 56.696 38.176C56.5787 38 56.52 37.8093 56.52 37.604C56.696 34.876 56.8133 32.1187 56.872 29.332V24.712C56.872 21.016 56.6813 18.0093 56.3 15.692L59.248 17.056H66.288L67.652 15.34C67.9453 15.604 68.2387 15.8533 68.532 16.088C69.2067 16.704 69.7347 17.232 70.116 17.672C70.028 18.1413 69.6907 18.376 69.104 18.376H64.088V22.336H66.508L66.992 21.72C67.0213 21.6907 67.08 21.6173 67.168 21.5C67.4027 21.2067 67.608 21.06 67.784 21.06C68.0773 21.06 68.576 21.3387 69.28 21.896C69.984 22.424 70.336 22.8493 70.336 23.172C70.0133 23.5533 69.4853 23.8173 68.752 23.964V25.944C68.7813 26.384 68.8107 26.9267 68.84 27.572C68.8693 28.452 68.8987 29.1267 68.928 29.596C68.8107 29.8307 68.5467 30.0507 68.136 30.256C67.7547 30.4613 67.4027 30.564 67.08 30.564H66.816V29.508H64.088V34.26H66.508L67.872 32.5C68.6053 33.1453 69.3387 33.8053 70.072 34.48C71.2747 33.0133 72.2573 31.62 73.02 30.3C71.436 26.0173 70.4827 20.4587 70.16 13.624H54.804V22.424C54.804 26.4427 54.584 29.6547 54.144 32.06C53.4693 35.8733 52.1933 38.9533 50.316 41.3L49.7 40.772C51.6067 37.428 52.6627 32.808 52.868 26.912H49.7C49.5533 29.728 49.216 32.06 48.688 33.908C47.9547 36.4893 46.7667 38.6307 45.124 40.332L44.464 39.628C45.7253 37.8973 46.6053 35.8147 47.104 33.38C47.456 31.6493 47.6613 29.4933 47.72 26.912H46.796C46.3853 26.9413 45.9747 27.1467 45.564 27.528L44.376 25.24C45.96 25.416 47.8667 25.5333 50.096 25.592H52.868C52.8973 24.888 52.912 23.8467 52.912 22.468V20.752H48.908V21.94C48.908 22.116 48.732 22.3067 48.38 22.512C48.0573 22.688 47.7347 22.776 47.412 22.776C47.0307 22.776 46.84 22.4827 46.84 21.896C46.8987 21.4267 46.9573 20.752 47.016 19.872C47.016 19.4907 47.0307 19.168 47.06 18.904V16.924C47.06 14.4013 46.9427 12.392 46.708 10.896C48.468 11.4827 49.5387 11.952 49.92 12.304C50.2133 12.568 50.14 12.8467 49.7 13.14L48.908 13.624V19.432H52.912C52.912 16.0293 52.736 13.184 52.384 10.896L55.2 12.348H70.116C70.0867 12.0547 70.0573 11.6293 70.028 11.072C70.028 10.4853 70.028 10.0453 70.028 9.752C69.7347 10.104 69.2653 10.28 68.62 10.28H68.268V6.848H59.424V7.86C59.4533 8.15333 59.468 8.49067 59.468 8.872C59.4973 9.19467 59.5267 9.42933 59.556 9.576C59.4973 9.81067 59.2773 10.0013 58.896 10.148C58.5733 10.2947 58.236 10.368 57.884 10.368C57.5613 10.368 57.4 10.0747 57.4 9.488C57.4293 9.28267 57.4587 9.01867 57.488 8.696C57.5173 8.432 57.5467 8.212 57.576 8.036V6.848H52.12C50.0373 6.87733 47.8373 7.08267 45.52 7.464L44.464 5.176C46.0773 5.352 48.028 5.46933 50.316 5.528H57.576C57.576 3.73867 57.488 2.21333 57.312 0.951997C59.0133 1.53866 60.04 2.008 60.392 2.36C60.6853 2.624 60.612 2.888 60.172 3.152L59.424 3.592V5.528H68.268C68.268 3.73867 68.18 2.21333 68.004 0.951997C69.7053 1.53866 70.732 2.008 71.084 2.36C71.3773 2.624 71.304 2.888 70.864 3.152L70.116 3.592V5.528H77.992L78.784 4.428C78.8427 4.36933 78.916 4.26666 79.004 4.12C79.4147 3.56267 79.7227 3.284 79.928 3.284C80.2213 3.284 80.808 3.68 81.688 4.472C82.5973 5.264 83.052 5.82133 83.052 6.144C82.964 6.61333 82.5973 6.848 81.952 6.848H70.116V8.52C71.6707 9.01866 72.624 9.42933 72.976 9.752C73.24 10.016 73.1667 10.28 72.756 10.544L72.096 11.028V12.348H78.608L79.312 11.336C79.3707 11.2773 79.4293 11.1893 79.488 11.072C79.8693 10.544 80.1627 10.28 80.368 10.28C80.6613 10.28 81.204 10.6467 81.996 11.38C82.788 12.1133 83.184 12.6413 83.184 12.964C83.096 13.404 82.744 13.624 82.128 13.624H72.14C72.3453 19.4613 73.0347 24.3013 74.208 28.144C74.648 27.2347 75.0293 26.4133 75.352 25.68C75.88 24.3893 76.3347 22.864 76.716 21.104C77.068 19.432 77.2733 17.9653 77.332 16.704C79.1507 17.2027 80.28 17.6133 80.72 17.936C81.0427 18.1707 80.9693 18.3907 80.5 18.596L79.708 18.948C78.6227 23.4067 77.0827 27.2787 75.088 30.564C76.2907 33.556 77.948 35.8293 80.06 37.384C80.3533 37.6773 80.5733 37.8093 80.72 37.78C80.8667 37.7507 81.028 37.5307 81.204 37.12C81.6733 35.9467 82.0987 34.524 82.48 32.852L83.052 32.94L82.524 38.616C83.2867 39.5253 83.58 40.1853 83.404 40.596C83.1107 41.0653 82.5387 41.1533 81.688 40.86C80.9253 40.596 80.1187 40.0973 79.268 39.364C77.068 37.6627 75.2787 35.3307 73.9 32.368C71.0253 36.416 67.432 39.4373 63.12 41.432ZM58.72 34.26H62.24V29.508H58.72V34.26ZM58.72 28.188H66.816V23.656H58.72V28.188ZM58.72 22.336H62.24V18.376H58.72V22.336ZM78.256 11.468C77.9333 11.996 77.464 12.0547 76.848 11.644C76.6133 11.0573 76.2173 10.4267 75.66 9.752C75.1027 9.048 74.5453 8.476 73.988 8.036L74.428 7.64C76.1 8.08 77.2733 8.72533 77.948 9.576C78.476 10.28 78.5787 10.9107 78.256 11.468ZM96.12 41.212C95.9733 41.212 95.812 41.1093 95.636 40.904C95.46 40.728 95.372 40.5373 95.372 40.332C95.636 36.548 95.7973 32.7347 95.856 28.892V21.368C93.7147 23.9493 91.412 26.076 88.948 27.748L88.464 27.264C91.192 25.0053 93.656 22.248 95.856 18.992V17.54L96.736 17.716C98.144 15.4573 99.3467 13.1693 100.344 10.852H96.472C94.3893 10.8813 92.1893 11.0867 89.872 11.468L88.684 9.224C90.2973 9.4 92.248 9.51733 94.536 9.576H100.916C102.207 6.55467 102.925 3.68 103.072 0.951997C104.979 1.48 106.152 1.89066 106.592 2.184C106.915 2.448 106.827 2.65333 106.328 2.8L105.448 3.064C104.803 5.264 104.011 7.43467 103.072 9.576H122.256L123.004 8.476C123.092 8.388 123.195 8.256 123.312 8.08C123.664 7.61067 123.928 7.376 124.104 7.376C124.397 7.376 124.984 7.772 125.864 8.564C126.744 9.32667 127.184 9.86933 127.184 10.192C127.067 10.632 126.7 10.852 126.084 10.852H102.5C101.209 13.5507 99.8453 15.9413 98.408 18.024L99.332 18.2C99.244 18.6693 98.7013 18.9627 97.704 19.08L97.66 19.124V29.772C97.7187 33.4093 97.836 36.856 98.012 40.112C97.484 40.8453 96.8533 41.212 96.12 41.212ZM100.652 40.288L99.552 38.044C101.165 38.22 103.116 38.3373 105.404 38.396H111.652V24.316H108.308C106.313 24.3453 104.26 24.5507 102.148 24.932L101.004 22.644C102.617 22.82 104.568 22.9373 106.856 22.996H111.652V21.94C111.652 18.244 111.461 15.2373 111.08 12.92C112.84 13.4773 113.911 13.932 114.292 14.284C114.615 14.548 114.585 14.812 114.204 15.076L113.544 15.516V22.996H120.144L120.892 21.94C120.951 21.8813 121.009 21.7933 121.068 21.676C121.449 21.148 121.743 20.884 121.948 20.884C122.241 20.884 122.799 21.2653 123.62 22.028C124.441 22.7613 124.852 23.2893 124.852 23.612C124.735 24.0813 124.383 24.316 123.796 24.316H113.544V38.396H122.212L122.96 37.296C123.048 37.208 123.151 37.076 123.268 36.9C123.62 36.4307 123.884 36.196 124.06 36.196C124.353 36.196 124.94 36.592 125.82 37.384C126.7 38.1467 127.14 38.6893 127.14 39.012C127.023 39.452 126.656 39.672 126.04 39.672H107.252C105.169 39.7013 102.969 39.9067 100.652 40.288ZM139.284 41.344C139.049 41.344 138.829 41.2413 138.624 41.036C138.448 40.86 138.36 40.6693 138.36 40.464C138.624 36.68 138.785 32.8667 138.844 29.024V18.816C137.377 23.7733 135.353 27.9973 132.772 31.488L132.112 30.872C134.987 26.0907 137.011 20.0333 138.184 12.7H136.424C135.515 12.7293 134.547 12.9347 133.52 13.316L132.376 11.028C133.579 11.204 135.045 11.3213 136.776 11.38H138.844V9.928C138.844 6.232 138.653 3.22533 138.272 0.907998C140.091 1.524 141.205 2.008 141.616 2.36C141.909 2.624 141.851 2.90266 141.44 3.196L140.736 3.68V11.38H141.792L142.54 10.324C142.599 10.236 142.672 10.1187 142.76 9.972C143.141 9.47333 143.42 9.224 143.596 9.224C143.889 9.224 144.461 9.60533 145.312 10.368C146.163 11.1307 146.588 11.6733 146.588 11.996C146.5 12.4653 146.133 12.7 145.488 12.7H140.736V16.528C142.408 17.496 143.713 18.5373 144.652 19.652C145.415 20.5907 145.869 21.4853 146.016 22.336C146.104 23.0987 145.943 23.6413 145.532 23.964C145.151 24.2573 144.681 24.184 144.124 23.744C143.713 22.1893 142.584 20.1653 140.736 17.672V29.86C140.795 33.4973 140.912 36.944 141.088 40.2C140.912 40.4933 140.648 40.7573 140.296 40.992C139.944 41.2267 139.607 41.344 139.284 41.344ZM162.34 41.212C162.193 40.4493 161.856 39.936 161.328 39.672C160.653 39.2613 159.348 38.9533 157.412 38.748V38C159.348 38.1467 161.269 38.2933 163.176 38.44C163.616 38.44 163.909 38.352 164.056 38.176C164.232 38.0293 164.32 37.7507 164.32 37.34V13.404H161.9C160.492 13.4333 159.025 13.6387 157.5 14.02L156.4 11.732C157.867 11.908 159.656 12.0253 161.768 12.084H164.32V10.368C164.32 6.672 164.129 3.66533 163.748 1.348C165.596 1.964 166.725 2.448 167.136 2.8C167.429 3.064 167.371 3.328 166.96 3.592L166.212 4.076V12.084H167.356L168.06 10.984C168.119 10.896 168.207 10.764 168.324 10.588C168.647 10.0893 168.896 9.84 169.072 9.84C169.336 9.84 169.879 10.236 170.7 11.028C171.521 11.82 171.932 12.3773 171.932 12.7C171.815 13.1693 171.448 13.404 170.832 13.404H166.212V37.604C166.212 38.6893 166.007 39.4813 165.596 39.98C165.039 40.6253 163.953 41.036 162.34 41.212ZM142.452 39.232L141.88 38.616C145.957 34.5387 149.081 29.0827 151.252 22.248C149.609 19.168 147.82 16.616 145.884 14.592L146.5 14.196C148.612 16.2493 150.372 18.3173 151.78 20.4C152.777 17.056 153.525 13.316 154.024 9.18H151.12C149.389 9.20933 147.6 9.41466 145.752 9.796L144.652 7.508C146.265 7.684 148.216 7.80133 150.504 7.86H153.848L155.212 6.408C156.415 7.464 157.119 8.19733 157.324 8.608C157.5 8.96 157.368 9.18 156.928 9.268L156.136 9.444C155.432 14.4307 154.449 18.7867 153.188 22.512C154.684 24.976 155.813 27.2933 156.576 29.464C157.104 31.048 157.324 32.3533 157.236 33.38C157.177 34.2893 156.928 34.744 156.488 34.744C156.077 34.744 155.696 34.26 155.344 33.292C154.845 30.6813 153.877 27.7773 152.44 24.58C150.093 30.6813 146.764 35.5653 142.452 39.232ZM160.668 26.78C160.287 27.1613 159.876 27.1027 159.436 26.604C159.407 26.516 159.377 26.3547 159.348 26.12C158.38 22.0427 157.295 19.168 156.092 17.496L156.664 17.1C158.16 18.4493 159.289 19.8573 160.052 21.324C160.697 22.5267 161.064 23.6707 161.152 24.756C161.211 25.724 161.049 26.3987 160.668 26.78ZM185.352 41.124C185.117 41.124 184.897 41.0213 184.692 40.816C184.516 40.64 184.428 40.4493 184.428 40.244C184.692 36.46 184.853 32.6467 184.912 28.804V18.64C183.005 24.5947 180.351 29.6547 176.948 33.82L176.332 33.248C179.999 27.9093 182.727 21.016 184.516 12.568H182.052C180.644 12.5973 179.148 12.8027 177.564 13.184L176.42 10.896C178.004 11.072 179.911 11.1893 182.14 11.248H184.912V10.148C184.912 6.452 184.721 3.44533 184.34 1.128C186.188 1.71467 187.317 2.184 187.728 2.536C188.021 2.8 187.963 3.07866 187.552 3.372L186.848 3.856V11.248H189.532L190.28 10.148C190.368 10.06 190.471 9.928 190.588 9.752C190.94 9.28266 191.204 9.048 191.38 9.048C191.673 9.048 192.245 9.444 193.096 10.236C193.976 10.9987 194.416 11.5413 194.416 11.864C194.387 12.3333 194.035 12.568 193.36 12.568H186.848V16.396C188.872 17.3053 190.485 18.3467 191.688 19.52C192.685 20.4587 193.301 21.412 193.536 22.38C193.771 23.2013 193.683 23.8027 193.272 24.184C192.891 24.5653 192.392 24.5507 191.776 24.14C191.131 22.204 189.488 19.916 186.848 17.276V29.684C186.907 33.3213 187.024 36.768 187.2 40.024C187.024 40.3173 186.745 40.5667 186.364 40.772C186.012 41.0067 185.675 41.124 185.352 41.124ZM203.656 41.124C203.451 41.124 203.245 41.0213 203.04 40.816C202.864 40.64 202.776 40.4493 202.776 40.244C203.04 36.46 203.201 32.6467 203.26 28.804V15.428C200.591 23.26 196.308 29.64 190.412 34.568L189.84 33.908C192.685 31.18 195.164 27.924 197.276 24.14C199.271 20.532 200.825 16.66 201.94 12.524H199.564C198.244 12.5533 196.836 12.7587 195.34 13.14L194.196 10.852C195.809 11.028 197.76 11.1453 200.048 11.204H203.26V10.192C203.26 6.496 203.069 3.48933 202.688 1.172C204.536 1.75867 205.665 2.228 206.076 2.58C206.369 2.844 206.296 3.12266 205.856 3.416L205.108 3.9V11.204H210.608L211.4 10.06C211.459 9.972 211.547 9.84 211.664 9.664C212.045 9.16533 212.324 8.916 212.5 8.916C212.793 8.916 213.38 9.32667 214.26 10.148C215.169 10.94 215.624 11.4973 215.624 11.82C215.536 12.2893 215.184 12.524 214.568 12.524H205.856C206.736 16.396 208.1 20.0333 209.948 23.436C211.855 27.044 214.011 29.86 216.416 31.884L216.284 32.324C215.375 32.588 214.803 33.2187 214.568 34.216C212.427 31.9867 210.52 29.024 208.848 25.328C207.235 21.8373 205.988 18.0533 205.108 13.976V29.684C205.167 33.3213 205.284 36.768 205.46 40.024C205.284 40.3467 205.02 40.6107 204.668 40.816C204.316 41.0213 203.979 41.124 203.656 41.124ZM221.608 40.332L220.42 38.088C222.033 38.264 223.984 38.3813 226.272 38.44H239.032V30.52H231.948C229.865 30.5493 227.665 30.7547 225.348 31.136L224.248 28.848C225.861 29.024 227.812 29.1413 230.1 29.2H239.032V22.16H228.076V24.184C228.076 24.3013 227.915 24.448 227.592 24.624C227.24 24.8 226.888 24.888 226.536 24.888C226.36 24.888 226.199 24.8 226.052 24.624C225.905 24.4187 225.832 24.2133 225.832 24.008C226.008 21.4267 226.125 18.816 226.184 16.176V11.82C226.184 8.124 225.993 5.11733 225.612 2.8L228.296 4.164H239.032V4.12H240.88V4.164H251.572L252.1 3.46C252.159 3.40133 252.217 3.328 252.276 3.24C252.569 2.888 252.804 2.712 252.98 2.712C253.273 2.712 253.801 3.02 254.564 3.636C255.327 4.22267 255.708 4.67733 255.708 5C255.356 5.41066 254.74 5.704 253.86 5.88V13.184C253.919 16.8213 254.036 20.268 254.212 23.524C254.036 23.788 253.743 24.0373 253.332 24.272C252.921 24.4773 252.555 24.58 252.232 24.58C251.968 24.58 251.836 24.2867 251.836 23.7C251.865 23.612 251.895 23.48 251.924 23.304C251.953 23.1867 251.983 23.084 252.012 22.996V22.16H240.88V29.2H250.78L251.572 28.056C251.631 27.968 251.719 27.8507 251.836 27.704C252.247 27.1467 252.54 26.868 252.716 26.868C253.009 26.868 253.625 27.2787 254.564 28.1C255.503 28.9213 255.972 29.4933 255.972 29.816C255.884 30.2853 255.517 30.52 254.872 30.52H240.88V38.44H253.992L254.784 37.296C254.843 37.208 254.931 37.0907 255.048 36.944C255.459 36.3867 255.752 36.108 255.928 36.108C256.221 36.108 256.837 36.5187 257.776 37.34C258.744 38.1613 259.228 38.7333 259.228 39.056C259.111 39.496 258.729 39.716 258.084 39.716H228.208C226.125 39.7453 223.925 39.9507 221.608 40.332ZM228.076 20.884H239.032V13.844H228.076V20.884ZM240.88 20.884H252.012V13.844H240.88V20.884ZM228.076 12.568H239.032V5.44H228.076V12.568ZM240.88 12.568H252.012V5.44H240.88V12.568ZM292.58 40.992C292.58 40.2 292.345 39.628 291.876 39.276C291.201 38.924 289.793 38.572 287.652 38.22L287.696 37.384C291.04 37.7653 293.079 37.956 293.812 37.956C294.281 37.956 294.633 37.912 294.868 37.824C295.103 37.736 295.381 37.5453 295.704 37.252C296.672 36.3427 297.508 33.4387 298.212 28.54C298.857 23.876 299.341 17.804 299.664 10.324H286.156C284.513 14.1667 282.563 17.408 280.304 20.048L279.6 19.608C281.272 17.144 282.797 14.0933 284.176 10.456C284.704 9.01867 285.173 7.42 285.584 5.66C286.053 3.75333 286.303 2.21333 286.332 1.04C288.121 1.568 289.236 1.99333 289.676 2.316C289.999 2.55066 289.94 2.77066 289.5 2.976L288.752 3.284C288.048 5.572 287.359 7.49333 286.684 9.048H299.268L299.84 8.256C299.869 8.19733 299.928 8.10933 300.016 7.992C300.309 7.61066 300.544 7.42 300.72 7.42C301.013 7.42 301.527 7.75733 302.26 8.432C303.023 9.10666 303.404 9.60533 303.404 9.928C303.111 10.2507 302.509 10.456 301.6 10.544C301.336 18.0827 300.823 24.36 300.06 29.376C299.297 34.4213 298.373 37.604 297.288 38.924C296.115 40.3027 294.545 40.992 292.58 40.992ZM266.928 39.012C266.752 39.012 266.561 38.9093 266.356 38.704C266.18 38.528 266.092 38.3373 266.092 38.132C266.356 34.348 266.517 30.5347 266.576 26.692V16.792C266.576 13.096 266.385 10.0893 266.004 7.772L268.688 9.136H270.844C271.665 6.34933 272.179 3.636 272.384 0.995999C274.144 1.40667 275.229 1.75867 275.64 2.052C275.963 2.25733 275.904 2.47733 275.464 2.712L274.76 3.064C273.88 5.05867 272.941 7.08267 271.944 9.136H276.608L277.136 8.388C277.195 8.32933 277.253 8.256 277.312 8.168C277.605 7.816 277.84 7.64 278.016 7.64C278.309 7.64 278.837 7.96266 279.6 8.608C280.363 9.224 280.744 9.69333 280.744 10.016C280.363 10.3973 279.732 10.676 278.852 10.852V26.516C278.911 30.1533 279.028 33.6 279.204 36.856C278.999 37.12 278.705 37.3547 278.324 37.56C277.943 37.7947 277.591 37.912 277.268 37.912C277.004 37.912 276.872 37.6187 276.872 37.032C276.901 36.8853 276.931 36.68 276.96 36.416C276.989 36.2107 277.019 36.0347 277.048 35.888V34.876H268.468V36.02C268.497 36.2547 268.512 36.548 268.512 36.9C268.571 37.428 268.615 37.7947 268.644 38C268.556 38.264 268.351 38.4987 268.028 38.704C267.705 38.9093 267.339 39.012 266.928 39.012ZM268.468 33.556H277.048V22.292H268.468V33.556ZM293.152 27C292.771 27.4693 292.257 27.4693 291.612 27C291.231 25.6213 290.351 24.0227 288.972 22.204C287.74 20.5907 286.42 19.168 285.012 17.936L285.54 17.54C287.828 18.684 289.661 19.96 291.04 21.368C292.184 22.5413 292.932 23.7 293.284 24.844C293.577 25.812 293.533 26.5307 293.152 27ZM268.468 21.016H277.048V10.412H268.468V21.016ZM311.368 41.256C311.192 41.256 311.001 41.1533 310.796 40.948C310.62 40.772 310.532 40.5813 310.532 40.376C310.796 36.592 310.957 32.7787 311.016 28.936V13.888C311.016 10.192 310.825 7.18533 310.444 4.868C312.263 5.484 313.377 5.968 313.788 6.32C314.081 6.584 314.023 6.86267 313.612 7.156L312.864 7.64V36.24H326.944V10.764C326.944 7.068 326.753 4.06133 326.372 1.744C328.22 2.36 329.349 2.844 329.76 3.196C330.053 3.46 329.98 3.73866 329.54 4.032L328.792 4.516V36.24H343.136V13.888C343.136 10.192 342.945 7.18533 342.564 4.868C344.383 5.484 345.497 5.968 345.908 6.32C346.201 6.584 346.143 6.86267 345.732 7.156L344.984 7.64V29.816C345.043 33.4533 345.16 36.9 345.336 40.156C344.925 40.8893 344.309 41.256 343.488 41.256C343.136 41.256 342.96 40.9627 342.96 40.376C342.989 40.1707 343.019 39.8773 343.048 39.496C343.077 39.232 343.107 38.9973 343.136 38.792V37.516H312.864V38.484C312.893 38.7773 312.908 39.1 312.908 39.452C312.937 39.7747 312.967 40.0093 312.996 40.156C312.937 40.4493 312.732 40.6987 312.38 40.904C312.057 41.1387 311.72 41.256 311.368 41.256ZM341.816 33.292C341.464 33.6147 341.053 33.5413 340.584 33.072C340.555 32.3093 340.379 31.2973 340.056 30.036C338.296 30.476 335.333 31.1507 331.168 32.06C330.992 32.5293 330.699 32.8373 330.288 32.984L328.836 30.168C329.159 30.1387 329.731 30.0947 330.552 30.036C331.021 30.0067 331.373 29.9773 331.608 29.948C332.869 27.572 334.072 25.0053 335.216 22.248C336.653 18.8453 337.592 15.8093 338.032 13.14C339.704 13.756 340.731 14.24 341.112 14.592C341.376 14.856 341.288 15.076 340.848 15.252L340.056 15.56C337.739 21.192 335.304 25.9587 332.752 29.86C333.955 29.772 335.949 29.5813 338.736 29.288C339.205 29.2293 339.557 29.1853 339.792 29.156C339.205 27.3667 338.472 25.6653 337.592 24.052L338.208 23.788C339.616 25.196 340.672 26.6333 341.376 28.1C341.992 29.3027 342.315 30.4027 342.344 31.4C342.373 32.3093 342.197 32.94 341.816 33.292ZM325.228 32.808C324.847 33.1013 324.436 33.0133 323.996 32.544C323.967 31.8693 323.849 31.048 323.644 30.08C322.089 30.52 319.332 31.18 315.372 32.06C315.167 32.5587 314.859 32.8667 314.448 32.984L313.128 30.168C313.275 30.168 313.539 30.1533 313.92 30.124C314.741 30.0653 315.401 30.0213 315.9 29.992C317.191 27.5573 318.393 25.02 319.508 22.38C320.945 19.0067 321.855 15.9853 322.236 13.316C323.879 13.932 324.891 14.416 325.272 14.768C325.565 15.032 325.492 15.252 325.052 15.428L324.304 15.692C321.957 21.3533 319.552 26.076 317.088 29.86C317.939 29.772 319.303 29.64 321.18 29.464C322.148 29.376 322.881 29.3027 323.38 29.244C322.911 27.4547 322.236 25.7827 321.356 24.228L322.016 23.964C323.336 25.2547 324.319 26.5893 324.964 27.968C325.521 29.0827 325.8 30.124 325.8 31.092C325.8 31.9133 325.609 32.4853 325.228 32.808ZM334.6 20.488C334.248 20.8693 333.793 20.84 333.236 20.4C333.06 19.3733 332.576 18.156 331.784 16.748C331.109 15.5453 330.347 14.4307 329.496 13.404L330.024 13.14C330.992 13.7267 331.784 14.3133 332.4 14.9C332.459 14.7533 332.532 14.5333 332.62 14.24C332.825 13.6533 332.987 13.2133 333.104 12.92C334.248 9.45867 334.893 6.452 335.04 3.9C336.771 4.48666 337.841 4.94133 338.252 5.264C338.575 5.528 338.501 5.748 338.032 5.924L337.284 6.232C335.876 10.104 334.483 13.2133 333.104 15.56C334.043 16.5867 334.629 17.5987 334.864 18.596C335.069 19.4467 334.981 20.0773 334.6 20.488ZM319.112 20.356C318.76 20.7667 318.305 20.752 317.748 20.312C317.572 19.3147 317.073 18.1413 316.252 16.792C315.519 15.6187 314.712 14.548 313.832 13.58L314.36 13.228C315.211 13.7267 316.032 14.2987 316.824 14.944C316.853 14.856 316.897 14.724 316.956 14.548C317.22 13.844 317.411 13.3013 317.528 12.92C318.613 9.63466 319.259 6.628 319.464 3.9C321.195 4.48666 322.265 4.94133 322.676 5.264C322.999 5.528 322.94 5.748 322.5 5.924L321.752 6.232C320.227 10.2213 318.819 13.3307 317.528 15.56C318.496 16.5573 319.112 17.54 319.376 18.508C319.581 19.3293 319.493 19.9453 319.112 20.356ZM361.66 41.256L361.396 40.508C365.796 38.748 368.891 36.5773 370.68 33.996C372.352 31.5613 373.349 28.0707 373.672 23.524H370.548V24.932C370.548 25.0493 370.401 25.196 370.108 25.372C369.785 25.5773 369.419 25.68 369.008 25.68C368.861 25.68 368.729 25.592 368.612 25.416C368.495 25.2107 368.436 25.0053 368.436 24.8C368.583 23.216 368.685 21.104 368.744 18.464V14.856C368.744 11.16 368.553 8.15333 368.172 5.836L371.076 7.2H375.08C375.989 5.088 376.693 3.02 377.192 0.995999C378.923 1.55333 379.993 1.97867 380.404 2.272C380.727 2.536 380.653 2.756 380.184 2.932L379.392 3.24C378.952 3.91467 378.145 5.07333 376.972 6.716C376.825 6.92133 376.708 7.08266 376.62 7.2H386.872L387.928 5.88C389.131 6.73067 389.835 7.34667 390.04 7.728C390.216 8.02133 390.084 8.24133 389.644 8.388L388.852 8.608V14.108C388.911 17.7453 389.028 21.192 389.204 24.448C388.588 25.064 387.957 25.372 387.312 25.372H387.004V23.524H380.712V24.228V37.868C380.712 38.22 380.785 38.44 380.932 38.528C381.108 38.6453 381.519 38.704 382.164 38.704H385.42C387.239 38.704 388.295 38.6893 388.588 38.66C388.823 38.66 389.028 38.5573 389.204 38.352C389.38 38.088 389.673 37.0173 390.084 35.14H390.568L390.7 38.396C391.345 38.572 391.668 38.8507 391.668 39.232C391.668 39.7307 391.287 40.0533 390.524 40.2C389.673 40.4053 387.972 40.4933 385.42 40.464H381.9C380.668 40.464 379.847 40.3027 379.436 39.98C379.055 39.6867 378.864 39.1293 378.864 38.308V23.524H375.784C375.344 28.5987 374.141 32.4267 372.176 35.008C370.093 37.6773 366.588 39.76 361.66 41.256ZM389.996 34.348C389.644 34.8467 389.189 34.8467 388.632 34.348C388.515 33.82 388.383 33.336 388.236 32.896C387.62 33.0427 386.373 33.3507 384.496 33.82C383.792 33.996 383.249 34.128 382.868 34.216C382.692 34.6853 382.384 34.9787 381.944 35.096L380.844 32.588C381.108 32.588 381.68 32.5587 382.56 32.5C382.648 32.5 382.707 32.5 382.736 32.5C383.528 29.4493 383.924 26.912 383.924 24.888C385.567 25.3867 386.579 25.7827 386.96 26.076C387.224 26.3107 387.136 26.5307 386.696 26.736L385.948 27.044C385.391 28.716 384.672 30.5053 383.792 32.412C384.643 32.3533 386.007 32.236 387.884 32.06C387.385 31.0333 386.872 30.212 386.344 29.596L386.916 29.288C388.412 30.1973 389.409 31.18 389.908 32.236C390.319 33.116 390.348 33.82 389.996 34.348ZM354.356 33.38L352.64 30.476C352.963 30.4173 353.535 30.2853 354.356 30.08C354.855 29.9627 355.236 29.8747 355.5 29.816C356.556 26.56 357.583 22.1747 358.58 16.66H356.776C355.779 16.6893 354.752 16.8947 353.696 17.276L352.552 15.032C354.165 15.208 356.116 15.3253 358.404 15.384H363.552L364.3 14.284C364.359 14.196 364.432 14.0787 364.52 13.932C364.901 13.4333 365.18 13.184 365.356 13.184C365.649 13.184 366.236 13.58 367.116 14.372C367.996 15.1347 368.436 15.6773 368.436 16C368.319 16.44 367.952 16.66 367.336 16.66H360.736C359.504 21.7933 358.199 26.0613 356.82 29.464C358.023 29.1413 360.047 28.584 362.892 27.792C363.743 27.5573 364.388 27.3813 364.828 27.264C364.065 25.416 363.097 23.612 361.924 21.852L362.496 21.544C364.256 23.0987 365.62 24.6973 366.588 26.34C367.38 27.6893 367.849 28.9653 367.996 30.168C368.113 31.1947 367.967 31.928 367.556 32.368C367.175 32.808 366.705 32.764 366.148 32.236C366.06 31.0333 365.723 29.6107 365.136 27.968C364.901 28.0853 364.535 28.2613 364.036 28.496C360.545 30.08 357.583 31.3707 355.148 32.368C355.031 32.8667 354.767 33.204 354.356 33.38ZM370.548 22.204H377.676V15.868H370.548V22.204ZM379.568 22.204H387.004V15.868H379.568V22.204ZM370.548 14.548H377.676V8.476H370.548V14.548ZM379.568 14.548H387.004V8.476H379.568V14.548ZM354.708 8.08L353.564 5.836C355.177 6.012 357.128 6.12933 359.416 6.188H362.364L363.112 5.132C363.2 5.044 363.303 4.912 363.42 4.736C363.772 4.26667 364.036 4.032 364.212 4.032C364.505 4.032 365.077 4.41333 365.928 5.176C366.779 5.93867 367.204 6.48133 367.204 6.804C367.087 7.244 366.735 7.464 366.148 7.464H361.308C359.225 7.49333 357.025 7.69867 354.708 8.08ZM429.024 41.344C428.965 40.64 428.672 40.112 428.144 39.76C427.499 39.3787 426.311 39.0853 424.58 38.88V38.176C426.311 38.3227 428.027 38.4547 429.728 38.572C430.109 38.572 430.373 38.4987 430.52 38.352C430.667 38.2053 430.74 37.9413 430.74 37.56V5.748H426.604C424.521 5.77733 422.321 5.98266 420.004 6.364L418.86 4.12C420.473 4.296 422.424 4.41333 424.712 4.472H431.18L431.884 3.416C431.943 3.328 432.031 3.21067 432.148 3.064C432.471 2.59466 432.72 2.36 432.896 2.36C433.189 2.36 433.747 2.72666 434.568 3.46C435.389 4.19333 435.8 4.72133 435.8 5.044C435.683 5.51333 435.331 5.748 434.744 5.748H432.632V37.692C432.632 38.748 432.441 39.54 432.06 40.068C431.532 40.7427 430.52 41.168 429.024 41.344ZM409.796 41.168C409.649 41.168 409.488 41.0653 409.312 40.86C409.136 40.684 409.048 40.4933 409.048 40.288C409.312 36.504 409.473 32.6907 409.532 28.848V12.084C409.532 8.388 409.341 5.38133 408.96 3.064L411.908 4.472H415.516L416.836 3.064C417.98 4.208 418.655 4.98533 418.86 5.396C419.007 5.748 418.86 5.95333 418.42 6.012L417.584 6.1C417.379 6.68667 416.997 7.816 416.44 9.488C415.325 12.9787 414.548 15.2813 414.108 16.396C416.367 19.7107 417.496 23.0547 417.496 26.428C417.525 28.5107 417.276 29.9627 416.748 30.784C416.22 31.576 415.267 32.016 413.888 32.104C413.888 31.488 413.756 31.0773 413.492 30.872C413.257 30.6373 412.803 30.52 412.128 30.52V29.728H414.108C414.46 29.728 414.739 29.6547 414.944 29.508C415.413 29.1267 415.648 28.056 415.648 26.296C415.648 22.6587 414.812 19.4027 413.14 16.528C413.756 14.2987 414.592 10.7053 415.648 5.748H411.38V29.816C411.439 33.4533 411.556 36.9 411.732 40.156C411.145 40.8307 410.5 41.168 409.796 41.168ZM398.84 34.92C398.664 34.92 398.488 34.832 398.312 34.656C398.136 34.4507 398.048 34.2453 398.048 34.04C398.312 30.256 398.473 26.4427 398.532 22.6V13.096C398.532 9.4 398.341 6.39333 397.96 4.076L400.6 5.396H404.384L404.868 4.736C404.927 4.67733 404.985 4.604 405.044 4.516C405.308 4.19333 405.528 4.032 405.704 4.032C405.997 4.032 406.496 4.32533 407.2 4.912C407.904 5.46933 408.256 5.90933 408.256 6.232C407.963 6.61333 407.42 6.87733 406.628 7.024V21.148C406.687 24.7853 406.804 28.232 406.98 31.488C406.775 31.752 406.481 32.0013 406.1 32.236C405.66 32.4707 405.279 32.588 404.956 32.588C404.721 32.588 404.604 32.2947 404.604 31.708C404.633 31.444 404.663 31.092 404.692 30.652C404.721 30.3293 404.751 30.0507 404.78 29.816V28.408H400.336V30.344C400.365 30.784 400.395 31.312 400.424 31.928C400.453 32.808 400.483 33.4827 400.512 33.952C400.424 34.1867 400.233 34.4067 399.94 34.612C399.588 34.8173 399.221 34.92 398.84 34.92ZM419.916 30.696C419.769 30.696 419.623 30.608 419.476 30.432C419.359 30.2267 419.3 30.0213 419.3 29.816C419.417 28.2027 419.52 26.032 419.608 23.304V19.608C419.608 15.912 419.417 12.9053 419.036 10.588L421.676 11.908H424.932L426.032 10.632C427.235 11.512 427.953 12.128 428.188 12.48C428.364 12.8027 428.247 13.0227 427.836 13.14L427.088 13.36V18.64C427.147 22.2773 427.264 25.7093 427.44 28.936C427.264 29.2 426.971 29.4493 426.56 29.684C426.149 29.8893 425.797 29.992 425.504 29.992C425.211 29.992 425.064 29.6987 425.064 29.112C425.093 28.936 425.123 28.716 425.152 28.452C425.181 28.2173 425.211 28.0267 425.24 27.88V26.824H421.5V27.924C421.529 28.1587 421.544 28.4373 421.544 28.76C421.603 29.2587 421.647 29.6107 421.676 29.816C421.588 30.0507 421.368 30.256 421.016 30.432C420.693 30.608 420.327 30.696 419.916 30.696ZM400.336 27.132H404.78V6.716H400.336V27.132ZM421.5 25.504H425.24V13.184H421.5V25.504ZM23.916 108.3C23.7107 107.537 23.344 107.024 22.816 106.76C22.2 106.408 20.7333 106.1 18.416 105.836V105.132C20.616 105.279 22.816 105.411 25.016 105.528C25.4853 105.528 25.7933 105.455 25.94 105.308C26.116 105.161 26.204 104.897 26.204 104.516V95.628H9.88C7.79733 95.6573 5.59733 95.8627 3.28 96.244L2.136 94C3.74933 94.176 5.7 94.2933 7.988 94.352H26.204C26.204 92.5333 26.116 90.964 25.94 89.644C27.612 90.26 28.6387 90.7293 29.02 91.052C29.284 91.3453 29.2107 91.6093 28.8 91.844L28.096 92.284V94.352H33.288L34.036 93.34C34.0947 93.2813 34.1533 93.1933 34.212 93.076C34.5933 92.548 34.8867 92.284 35.092 92.284C35.3853 92.284 35.9573 92.6507 36.808 93.384C37.6587 94.088 38.084 94.6013 38.084 94.924C37.996 95.3933 37.6293 95.628 36.984 95.628H28.096V104.692C28.096 105.807 27.876 106.599 27.436 107.068C26.8493 107.713 25.676 108.124 23.916 108.3ZM16.788 104.032C16.4067 104.413 15.9227 104.399 15.336 103.988C15.072 102.873 14.3973 101.597 13.312 100.16C12.3147 98.8693 11.2587 97.7693 10.144 96.86L10.672 96.464C12.608 97.3147 14.148 98.2973 15.292 99.412C16.2307 100.351 16.8173 101.289 17.052 102.228C17.2573 103.049 17.1693 103.651 16.788 104.032ZM1.652 90.172L0.464 87.928C2.07733 88.104 4.028 88.2213 6.316 88.28H19.076V83.396H12.696C10.6133 83.4253 8.41333 83.6307 6.096 84.012L4.908 81.768C6.52133 81.944 8.472 82.0613 10.76 82.12H19.076V78.644C18.9587 78.732 18.812 78.864 18.636 79.04C18.3427 79.3333 18.1227 79.5387 17.976 79.656L17.36 79.128C18.0347 78.3653 18.68 77.5 19.296 76.532C20.1173 75.3293 20.88 73.892 21.584 72.22C22.3173 70.548 22.8013 69.1107 23.036 67.908C24.62 68.5827 25.588 69.096 25.94 69.448C26.204 69.712 26.116 69.9173 25.676 70.064L24.884 70.284C24.5613 71.0467 24.0333 72.0147 23.3 73.188H33.816L34.564 72.132C34.6227 72.044 34.696 71.9267 34.784 71.78C35.1653 71.2813 35.444 71.032 35.62 71.032C35.9133 71.032 36.4853 71.4133 37.336 72.176C38.1867 72.9387 38.612 73.4813 38.612 73.804C38.4947 74.244 38.128 74.464 37.512 74.464H27.7C29.1667 75.344 30.1347 76.356 30.604 77.5C30.9853 78.468 30.9707 79.2453 30.56 79.832C30.1493 80.3893 29.6213 80.4187 28.976 79.92C28.888 79.04 28.5507 78.072 27.964 77.016C27.4067 76.048 26.7467 75.1973 25.984 74.464H22.508C21.4813 75.872 20.5573 77.0307 19.736 77.94C20.8507 78.38 21.5253 78.7467 21.76 79.04C21.9653 79.2747 21.892 79.5093 21.54 79.744L20.924 80.14V82.12H31.088L31.748 81.196C31.8067 81.1373 31.8947 81.0347 32.012 80.888C32.3347 80.448 32.584 80.228 32.76 80.228C33.0533 80.228 33.596 80.5653 34.388 81.24C35.18 81.9147 35.576 82.4133 35.576 82.736C35.4587 83.176 35.092 83.396 34.476 83.396H20.924V88.28H34.212L35.004 87.224C35.092 87.136 35.1947 87.004 35.312 86.828C35.664 86.3587 35.928 86.124 36.104 86.124C36.3973 86.124 36.984 86.5053 37.864 87.268C38.744 88.0013 39.184 88.5293 39.184 88.852C39.0667 89.3213 38.7 89.556 38.084 89.556H8.252C6.16933 89.5853 3.96933 89.7907 1.652 90.172ZM13.18 79.744C12.7693 80.272 12.2707 80.272 11.684 79.744C11.684 78.9227 11.4493 77.9987 10.98 76.972C10.5693 76.0333 10.056 75.1973 9.44 74.464H7.108C5.49467 76.8987 3.632 78.8933 1.52 80.448L0.86 79.964C1.97467 78.8493 2.94267 77.7053 3.764 76.532C4.58533 75.3587 5.37733 73.9213 6.14 72.22C6.87333 70.5773 7.372 69.1253 7.636 67.864C9.22 68.568 10.188 69.096 10.54 69.448C10.804 69.7413 10.716 69.9613 10.276 70.108L9.528 70.328C9 71.384 8.472 72.3373 7.944 73.188H16.084L16.744 72.22C16.7733 72.1613 16.832 72.0733 16.92 71.956C17.2427 71.4867 17.5067 71.252 17.712 71.252C18.0053 71.252 18.5333 71.604 19.296 72.308C20.0587 72.9827 20.44 73.4813 20.44 73.804C20.352 74.244 20.0147 74.464 19.428 74.464H10.848C12.168 75.4027 13.004 76.4293 13.356 77.544C13.6787 78.4827 13.62 79.216 13.18 79.744ZM55.992 108.3C55.8453 108.3 55.684 108.197 55.508 107.992C55.332 107.816 55.244 107.625 55.244 107.42C55.244 107.244 55.2587 106.98 55.288 106.628C55.4933 103.46 55.6253 100.277 55.684 97.08V91.448C52.9267 96.5227 49.3627 100.703 44.992 103.988L44.464 103.328C49.6853 98.7227 53.4987 92.7973 55.904 85.552H52.604C50.6973 85.5813 48.6733 85.7867 46.532 86.168L45.344 83.88C46.9573 84.056 48.908 84.1733 51.196 84.232H62.988V80.316H56.608C54.5253 80.3453 52.3253 80.5507 50.008 80.932L48.82 78.688C50.4333 78.864 52.384 78.9813 54.672 79.04H62.988V75.256H55.068C52.9853 75.2853 50.7853 75.4907 48.468 75.872L47.28 73.628C48.8933 73.804 50.844 73.9213 53.132 73.98H57.576C57.3707 73.1293 56.9307 72.176 56.256 71.12C55.64 70.1813 54.9653 69.3747 54.232 68.7L54.76 68.392C56.7547 69.2427 58.1333 70.284 58.896 71.516C59.4827 72.5133 59.5707 73.3347 59.16 73.98H68.004C69.324 71.8093 70.2333 69.8 70.732 67.952C72.404 68.5387 73.416 68.9933 73.768 69.316C74.0613 69.58 73.9733 69.8 73.504 69.976L72.712 70.24C71.8907 71.4427 70.8053 72.6893 69.456 73.98H76.364L77.112 72.924C77.1707 72.8653 77.2293 72.7773 77.288 72.66C77.6693 72.132 77.9627 71.868 78.168 71.868C78.4613 71.868 79.0333 72.2347 79.884 72.968C80.7347 73.7013 81.16 74.2293 81.16 74.552C81.0427 75.0213 80.6907 75.256 80.104 75.256H64.836V79.04H75L75.66 78.072C75.7187 78.0133 75.8067 77.9107 75.924 77.764C76.2467 77.324 76.496 77.104 76.672 77.104C76.9653 77.104 77.508 77.456 78.3 78.16C79.1213 78.8347 79.532 79.3333 79.532 79.656C79.4147 80.096 79.048 80.316 78.432 80.316H64.836V84.232H77.552L78.3 83.176C78.3587 83.1173 78.4173 83.0293 78.476 82.912C78.8573 82.384 79.1507 82.12 79.356 82.12C79.6493 82.12 80.2213 82.5013 81.072 83.264C81.952 83.9973 82.392 84.5253 82.392 84.848C82.2747 85.3173 81.908 85.552 81.292 85.552H58.236C58.0893 86.0507 57.8107 86.8133 57.4 87.84C57.2533 88.1627 57.1507 88.412 57.092 88.588L57.752 88.94H74.736L75.22 88.28C75.2493 88.2507 75.308 88.1773 75.396 88.06C75.6307 87.7667 75.836 87.62 76.012 87.62C76.3053 87.62 76.804 87.8987 77.508 88.456C78.212 89.0133 78.564 89.4533 78.564 89.776C78.2413 90.1573 77.7133 90.4213 76.98 90.568V96.728C77.0387 100.365 77.156 103.812 77.332 107.068C77.1267 107.332 76.8187 107.567 76.408 107.772C75.9973 108.007 75.6307 108.124 75.308 108.124C75.044 108.124 74.912 107.831 74.912 107.244C74.9413 107.127 74.9707 106.965 75 106.76C75.0293 106.613 75.0587 106.481 75.088 106.364V105.484H57.532V107.596C57.532 107.713 57.3707 107.86 57.048 108.036C56.696 108.212 56.344 108.3 55.992 108.3ZM57.532 104.164H75.088V100.38H57.532V104.164ZM57.532 99.06H75.088V95.232H57.532V99.06ZM57.532 93.956H75.088V90.26H57.532V93.956ZM89.564 108.212L88.948 107.596C92.38 104.897 94.7853 101.568 96.164 97.608C97.2493 94.44 97.792 90.3333 97.792 85.288V77.808C97.792 74.5813 97.6307 72.0147 97.308 70.108L100.08 71.516H116.976L117.416 70.768C117.475 70.7093 117.533 70.6213 117.592 70.504C117.797 70.1813 117.988 70.02 118.164 70.02C118.457 70.02 119.029 70.328 119.88 70.944C120.731 71.5893 121.156 72.0733 121.156 72.396C120.775 72.836 120.129 73.1293 119.22 73.276V104.604C119.22 105.689 119.015 106.467 118.604 106.936C118.047 107.611 116.932 108.036 115.26 108.212C115.055 107.479 114.703 106.965 114.204 106.672C113.647 106.32 112.268 106.012 110.068 105.748V105C112.121 105.147 114.16 105.293 116.184 105.44C116.624 105.44 116.932 105.352 117.108 105.176C117.284 105.029 117.372 104.751 117.372 104.34V92.812H99.112C98.056 99.5587 94.8733 104.692 89.564 108.212ZM99.288 91.536H117.372V82.736H99.64V85.244C99.64 87.5907 99.5227 89.688 99.288 91.536ZM99.64 81.416H117.372V72.836H99.64V81.416ZM132.596 108.256L132.376 107.552C137.421 105.352 140.985 102.595 143.068 99.28C144.945 96.2587 146.045 91.9467 146.368 86.344H140.208C138.125 86.3733 135.925 86.5787 133.608 86.96L132.42 84.716C134.033 84.892 135.984 85.0093 138.272 85.068H150.944V77.148C150.944 73.452 150.753 70.4453 150.372 68.128C152.22 68.7147 153.349 69.184 153.76 69.536C154.083 69.8 154.024 70.0787 153.584 70.372L152.792 70.856V85.068H165.816L166.652 83.88C166.711 83.792 166.799 83.6747 166.916 83.528C167.327 82.9707 167.62 82.692 167.796 82.692C168.089 82.692 168.705 83.1173 169.644 83.968C170.612 84.7893 171.096 85.3613 171.096 85.684C171.008 86.124 170.641 86.344 169.996 86.344H156.884V86.872V104.12C156.884 104.56 157.001 104.853 157.236 105C157.471 105.147 158.028 105.22 158.908 105.22H163.44C165.816 105.22 167.327 105.176 167.972 105.088C168.383 105.059 168.632 104.824 168.72 104.384C168.955 103.68 169.336 101.143 169.864 96.772H170.48L170.612 104.692C171.228 104.897 171.536 105.205 171.536 105.616C171.536 106.173 171.067 106.54 170.128 106.716C169.101 106.892 166.931 106.98 163.616 106.98H158.776C157.28 106.98 156.268 106.804 155.74 106.452C155.241 106.1 154.992 105.455 154.992 104.516V86.344H148.568C148.099 92.4747 146.779 97.1093 144.608 100.248C142.232 103.68 138.228 106.349 132.596 108.256ZM158.512 82.824L157.852 82.296C158.585 81.3867 159.421 80.2133 160.36 78.776C161.181 77.4853 161.988 76.048 162.78 74.464C163.631 72.7627 164.217 71.34 164.54 70.196L166.564 71.56C167.327 71.8533 167.752 72.1173 167.84 72.352C167.957 72.5573 167.796 72.704 167.356 72.792L166.52 72.968C163.968 76.8987 161.299 80.184 158.512 82.824ZM144.3 82.12C143.919 82.5893 143.42 82.56 142.804 82.032C142.511 80.4773 141.719 78.6 140.428 76.4C139.343 74.552 138.125 72.836 136.776 71.252L137.392 70.9C139.563 72.484 141.279 74.112 142.54 75.784C143.596 77.192 144.256 78.5267 144.52 79.788C144.755 80.844 144.681 81.6213 144.3 82.12ZM214.128 107.86C213.717 108.359 213.175 108.359 212.5 107.86C212.177 106.423 211.327 104.751 209.948 102.844C208.745 101.143 207.44 99.6467 206.032 98.356L206.56 97.96C208.877 99.192 210.725 100.541 212.104 102.008C213.248 103.24 213.981 104.443 214.304 105.616C214.597 106.643 214.539 107.391 214.128 107.86ZM178.356 108.3C177.74 108.388 177.329 108.227 177.124 107.816C176.743 107.171 177.021 106.511 177.96 105.836C179.133 105.249 180.189 104.296 181.128 102.976C182.213 101.509 182.844 99.9107 183.02 98.18L183.812 98.224C184.047 100.512 183.709 102.565 182.8 104.384C182.096 105.763 181.187 106.833 180.072 107.596C179.515 108.007 178.943 108.241 178.356 108.3ZM192.568 107.42C192.128 107.713 191.659 107.596 191.16 107.068C191.248 105.836 191.101 104.384 190.72 102.712C190.397 101.245 189.957 99.9107 189.4 98.708L190.06 98.488C191.321 99.7787 192.245 101.113 192.832 102.492C193.301 103.636 193.492 104.707 193.404 105.704C193.316 106.555 193.037 107.127 192.568 107.42ZM203.128 107.244C202.717 107.596 202.219 107.537 201.632 107.068C201.456 105.865 200.928 104.428 200.048 102.756C199.315 101.348 198.493 100.028 197.584 98.796L198.112 98.488C199.872 99.6613 201.221 100.908 202.16 102.228C202.981 103.343 203.451 104.399 203.568 105.396C203.685 106.276 203.539 106.892 203.128 107.244ZM180.204 97.74C180.028 97.74 179.837 97.652 179.632 97.476C179.456 97.2707 179.368 97.0653 179.368 96.86C179.632 93.076 179.793 89.2627 179.852 85.42V78.732C179.852 75.036 179.661 72.0293 179.28 69.712L181.964 71.076H188.916L189.488 70.196C189.517 70.1373 189.561 70.064 189.62 69.976C189.913 69.536 190.163 69.316 190.368 69.316C190.661 69.316 191.175 69.668 191.908 70.372C192.671 71.076 193.052 71.5893 193.052 71.912C192.7 72.3227 192.084 72.616 191.204 72.792V84.628C191.263 88.2653 191.38 91.712 191.556 94.968C191.351 95.232 191.057 95.4667 190.676 95.672C190.265 95.9067 189.899 96.024 189.576 96.024C189.283 96.024 189.136 95.7307 189.136 95.144C189.165 94.968 189.195 94.748 189.224 94.484C189.253 94.2787 189.283 94.1027 189.312 93.956V92.9H181.744V94.308C181.773 94.6013 181.788 94.968 181.788 95.408C181.847 96.0533 181.891 96.5227 181.92 96.816C181.685 97.432 181.113 97.74 180.204 97.74ZM196.352 97.124C196 97.124 195.824 96.8307 195.824 96.244C195.883 95.6573 195.941 94.836 196 93.78C196 93.3107 196.015 92.9293 196.044 92.636V90.392C196.044 87.576 195.897 85.2733 195.604 83.484L198.156 84.804H209.288L209.816 83.968C209.845 83.9093 209.904 83.8213 209.992 83.704C210.285 83.3227 210.52 83.132 210.696 83.132C210.989 83.132 211.517 83.484 212.28 84.188C213.043 84.8627 213.424 85.3613 213.424 85.684C213.072 86.036 212.456 86.3147 211.576 86.52V89.776C211.635 92.3867 211.723 94.4693 211.84 96.024C211.693 96.2587 211.415 96.4933 211.004 96.728C210.593 96.9333 210.241 97.036 209.948 97.036H209.728V95.012H197.936V96.464C197.936 96.5813 197.76 96.728 197.408 96.904C197.085 97.0507 196.733 97.124 196.352 97.124ZM197.936 93.736H209.728V86.08H197.936V93.736ZM181.744 91.624H189.312V82.516H181.744V91.624ZM193.404 83.88L192.832 83.132C195.941 81.636 198.2 79.8467 199.608 77.764C200.664 76.18 201.309 74.2587 201.544 72H199.168C197.76 72.0293 196.323 72.2347 194.856 72.616L193.668 70.372C195.281 70.548 197.232 70.6653 199.52 70.724H210.916L212.104 69.36C213.336 70.2987 214.055 70.9587 214.26 71.34C214.465 71.6627 214.348 71.868 213.908 71.956L213.116 72.132C212.852 77.412 212.104 80.58 210.872 81.636C209.992 82.34 208.804 82.692 207.308 82.692C207.308 82.0467 207.073 81.5773 206.604 81.284C206.105 80.9613 204.873 80.6827 202.908 80.448V79.7C203.113 79.7293 203.451 79.7587 203.92 79.788C206.413 79.9933 207.895 80.096 208.364 80.096C209.009 80.096 209.493 79.9787 209.816 79.744C210.491 79.0693 210.975 76.488 211.268 72H203.744C203.392 74.552 202.585 76.664 201.324 78.336C199.681 80.536 197.041 82.384 193.404 83.88ZM181.744 81.196H189.312V72.352H181.744V81.196ZM222.268 108.256L221.916 107.596C226.551 105.983 229.821 103.563 231.728 100.336C232.403 99.1627 232.887 97.7547 233.18 96.112C233.444 94.616 233.503 93.208 233.356 91.888L235.644 92.46C236.465 92.4893 236.935 92.6067 237.052 92.812C237.199 92.988 237.067 93.1933 236.656 93.428L235.952 93.824C235.483 97.256 234.353 100.057 232.564 102.228C230.335 104.897 226.903 106.907 222.268 108.256ZM246.6 107.508C245.133 107.508 244.151 107.347 243.652 107.024C243.183 106.701 242.948 106.085 242.948 105.176V98.664C242.948 96.024 242.816 93.78 242.552 91.932C244.165 92.548 245.163 93.0173 245.544 93.34C245.837 93.604 245.808 93.868 245.456 94.132L244.84 94.528V104.912C244.84 105.264 244.943 105.484 245.148 105.572C245.383 105.689 245.94 105.748 246.82 105.748H251.484C254.124 105.748 255.649 105.733 256.06 105.704C256.412 105.675 256.647 105.499 256.764 105.176C256.969 104.707 257.307 102.991 257.776 100.028H258.392L258.48 105.308C259.155 105.513 259.492 105.807 259.492 106.188C259.492 106.716 259.023 107.068 258.084 107.244C257.028 107.42 254.843 107.508 251.528 107.508H246.6ZM222.62 95.364C222.063 95.3933 221.696 95.232 221.52 94.88C221.197 94.2053 221.476 93.604 222.356 93.076C223.265 92.636 224.028 91.8733 224.644 90.788C225.319 89.644 225.641 88.412 225.612 87.092H226.36C226.536 87.796 226.624 88.4413 226.624 89.028H254.476L255.884 87.576C257.116 88.72 257.835 89.4973 258.04 89.908C258.216 90.26 258.084 90.4653 257.644 90.524L256.852 90.612C256.001 92.0493 254.755 93.4573 253.112 94.836L252.452 94.484C253.215 93.2813 253.889 91.9027 254.476 90.348H226.624C226.389 92.372 225.553 93.868 224.116 94.836C223.617 95.1587 223.119 95.3347 222.62 95.364ZM229.616 86.652C229.264 86.652 229.088 86.3587 229.088 85.772C229.147 85.3907 229.205 84.8333 229.264 84.1C229.264 83.7773 229.279 83.5133 229.308 83.308V81.636C229.308 79.4947 229.205 77.7493 229 76.4L231.42 77.676H248.932L249.46 76.884C249.519 76.8253 249.577 76.7373 249.636 76.62C249.9 76.268 250.12 76.092 250.296 76.092C250.589 76.092 251.117 76.4293 251.88 77.104C252.672 77.7493 253.068 78.2333 253.068 78.556C252.716 78.9373 252.085 79.2307 251.176 79.436V81.548C251.176 81.8707 251.191 82.296 251.22 82.824C251.279 83.9973 251.337 84.8773 251.396 85.464C251.279 85.6987 251.029 85.9187 250.648 86.124C250.267 86.3293 249.915 86.432 249.592 86.432H249.328V85.024H231.2V86.036C231.2 86.124 231.024 86.256 230.672 86.432C230.32 86.5787 229.968 86.652 229.616 86.652ZM231.2 83.704H249.328V78.996H231.2V83.704ZM222.84 74.948L221.652 72.66C223.265 72.836 225.216 72.9533 227.504 73.012H239.032C239.032 71.0173 238.929 69.36 238.724 68.04C240.455 68.6267 241.511 69.096 241.892 69.448C242.185 69.712 242.112 69.976 241.672 70.24L240.88 70.724V73.012H253.244L254.036 71.868C254.095 71.8093 254.168 71.7067 254.256 71.56C254.667 71.0027 254.975 70.724 255.18 70.724C255.473 70.724 256.075 71.1347 256.984 71.956C257.923 72.748 258.392 73.3053 258.392 73.628C258.275 74.0973 257.893 74.332 257.248 74.332H229.44C227.357 74.3613 225.157 74.5667 222.84 74.948ZM266.356 108.08L264.552 105.352C266.077 104.531 268.16 103.167 270.8 101.26V88.236H268.864C267.779 88.2653 266.664 88.4707 265.52 88.852L264.464 86.564C265.579 86.74 266.899 86.8573 268.424 86.916H270.228L270.844 85.86C270.903 85.772 270.976 85.6547 271.064 85.508C271.357 85.0387 271.592 84.804 271.768 84.804C272.032 84.804 272.575 85.2293 273.396 86.08C274.217 86.9013 274.628 87.4733 274.628 87.796C274.247 88.1773 273.587 88.4413 272.648 88.588V100.732C274.085 102.492 275.831 103.665 277.884 104.252C279.644 104.751 282.445 105 286.288 105C294.296 105 300.031 104.941 303.492 104.824V105.484C302.465 105.631 301.893 106.173 301.776 107.112H286.332C282.313 107.112 279.351 106.775 277.444 106.1C275.332 105.337 273.528 103.856 272.032 101.656C270.213 103.739 268.439 105.543 266.708 107.068C266.825 107.508 266.708 107.845 266.356 108.08ZM300.368 101.832C300.045 102.184 299.547 102.169 298.872 101.788C297.757 99.4707 295.543 96.6693 292.228 93.384C288.884 97.1387 284.528 99.984 279.16 101.92L278.764 101.216C283.751 99.104 287.828 96.0827 290.996 92.152C288.444 89.7467 285.936 87.62 283.472 85.772L284 85.288C287.051 86.9893 289.779 88.7347 292.184 90.524C294.061 87.8547 295.484 84.9213 296.452 81.724H282.24C282.064 90.524 280.011 97.1533 276.08 101.612L275.42 101.04C277.415 98.1067 278.793 94.616 279.556 90.568C280.113 87.6053 280.392 83.8947 280.392 79.436V74.684C280.392 72.66 280.289 71.0173 280.084 69.756L282.68 71.208H297.024L297.816 70.02C297.875 69.932 297.963 69.8147 298.08 69.668C298.491 69.1107 298.784 68.832 298.96 68.832C299.253 68.832 299.869 69.2427 300.808 70.064C301.747 70.8853 302.216 71.4573 302.216 71.78C302.128 72.2493 301.761 72.484 301.116 72.484H282.284V79.436V80.404H296.408L297.904 78.952C299.107 80.008 299.811 80.7413 300.016 81.152C300.192 81.504 300.045 81.724 299.576 81.812L298.74 81.944C297.42 85.728 295.733 88.9693 293.68 91.668C295.675 93.2813 297.273 94.8653 298.476 96.42C299.503 97.7107 300.163 98.884 300.456 99.94C300.72 100.849 300.691 101.48 300.368 101.832ZM273.484 78.072C273.073 78.512 272.545 78.4973 271.9 78.028C271.636 76.7667 270.917 75.3293 269.744 73.716C268.688 72.2787 267.544 71.0467 266.312 70.02L266.796 69.624C268.908 70.5627 270.58 71.6627 271.812 72.924C272.839 73.9507 273.484 74.992 273.748 76.048C273.983 76.9573 273.895 77.632 273.484 78.072ZM329.276 106.936C328.425 107.875 327.061 108.329 325.184 108.3C325.155 107.713 324.861 107.259 324.304 106.936C323.6 106.525 322.412 106.247 320.74 106.1L320.696 105.308C323.365 105.513 325.316 105.616 326.548 105.616C327.135 105.616 327.531 105.484 327.736 105.22C328.469 104.399 328.924 103.123 329.1 101.392C329.305 99.5733 329.188 97.6373 328.748 95.584C326.401 97.8133 323.424 99.896 319.816 101.832C316.296 103.709 312.673 105.191 308.948 106.276L308.596 105.484C312.38 104.193 315.988 102.463 319.42 100.292C323.087 97.9747 325.947 95.5253 328 92.944C327.619 91.8293 327.164 90.832 326.636 89.952C324.583 91.5653 322.089 93.1347 319.156 94.66C316.252 96.1853 313.392 97.4173 310.576 98.356L310.224 97.564C313.069 96.4493 315.841 95.0707 318.54 93.428C321.444 91.6387 323.761 89.8493 325.492 88.06C324.847 87.092 324.128 86.212 323.336 85.42C319.904 87.532 315.885 89.292 311.28 90.7L310.84 89.908C316.736 87.6787 321.62 84.892 325.492 81.548H321.928C319.845 81.5773 317.675 81.7827 315.416 82.164L314.316 79.876C315.929 80.052 317.88 80.1693 320.168 80.228H336.976L337.68 79.216C337.739 79.1573 337.797 79.0693 337.856 78.952C338.237 78.424 338.531 78.16 338.736 78.16C339.029 78.16 339.587 78.5267 340.408 79.26C341.259 79.9933 341.684 80.5213 341.684 80.844C341.596 81.3133 341.229 81.548 340.584 81.548H330.596C331.329 84.7453 332.532 87.928 334.204 91.096C334.761 90.7147 335.348 90.26 335.964 89.732C338.751 87.532 340.745 85.3467 341.948 83.176C343.444 84.1733 344.353 84.8773 344.676 85.288C344.911 85.6107 344.808 85.7867 344.368 85.816H343.62C341.332 87.9573 338.355 89.9667 334.688 91.844C337.797 97.124 341.977 100.981 347.228 103.416L347.096 103.812C346.128 103.812 345.38 104.34 344.852 105.396C340.892 103.079 337.621 99.9107 335.04 95.892C332.459 91.844 330.655 87.0627 329.628 81.548H328.528C327.472 82.5747 325.991 83.704 324.084 84.936C326.665 87.048 328.587 89.688 329.848 92.856C330.933 95.6133 331.388 98.3853 331.212 101.172C331.065 103.783 330.42 105.704 329.276 106.936ZM310.444 81.064C309.887 81.152 309.491 81.02 309.256 80.668C309.08 80.3747 309.065 80.0373 309.212 79.656C309.359 79.304 309.608 78.9813 309.96 78.688C310.899 78.072 311.705 77.0893 312.38 75.74C313.084 74.244 313.421 72.7187 313.392 71.164H314.14C314.287 71.956 314.389 72.7627 314.448 73.584H327.032C327.032 71.4133 326.929 69.624 326.724 68.216C328.455 68.8027 329.511 69.272 329.892 69.624C330.185 69.888 330.112 70.152 329.672 70.416L328.88 70.9V73.584H342.652C343.209 73.0267 343.737 72.396 344.236 71.692C345.527 73.0413 346.289 73.9507 346.524 74.42C346.7 74.8013 346.568 75.0213 346.128 75.08L345.336 75.168C344.251 76.576 342.681 78.028 340.628 79.524L340.056 79.172C340.936 77.9107 341.757 76.4733 342.52 74.86H314.404C314.316 76.1213 314.008 77.2653 313.48 78.292C313.04 79.1427 312.527 79.8027 311.94 80.272C311.471 80.6827 310.972 80.9467 310.444 81.064ZM380.58 107.992C380.58 107.2 380.345 106.628 379.876 106.276C379.201 105.924 377.793 105.572 375.652 105.22L375.696 104.384C379.04 104.765 381.079 104.956 381.812 104.956C382.281 104.956 382.633 104.912 382.868 104.824C383.103 104.736 383.381 104.545 383.704 104.252C384.672 103.343 385.508 100.439 386.212 95.54C386.857 90.876 387.341 84.804 387.664 77.324H374.156C372.513 81.1667 370.563 84.408 368.304 87.048L367.6 86.608C369.272 84.144 370.797 81.0933 372.176 77.456C372.704 76.0187 373.173 74.42 373.584 72.66C374.053 70.7533 374.303 69.2133 374.332 68.04C376.121 68.568 377.236 68.9933 377.676 69.316C377.999 69.5507 377.94 69.7707 377.5 69.976L376.752 70.284C376.048 72.572 375.359 74.4933 374.684 76.048H387.268L387.84 75.256C387.869 75.1973 387.928 75.1093 388.016 74.992C388.309 74.6107 388.544 74.42 388.72 74.42C389.013 74.42 389.527 74.7573 390.26 75.432C391.023 76.1067 391.404 76.6053 391.404 76.928C391.111 77.2507 390.509 77.456 389.6 77.544C389.336 85.0827 388.823 91.36 388.06 96.376C387.297 101.421 386.373 104.604 385.288 105.924C384.115 107.303 382.545 107.992 380.58 107.992ZM354.928 106.012C354.752 106.012 354.561 105.909 354.356 105.704C354.18 105.528 354.092 105.337 354.092 105.132C354.356 101.348 354.517 97.5347 354.576 93.692V83.792C354.576 80.096 354.385 77.0893 354.004 74.772L356.688 76.136H358.844C359.665 73.3493 360.179 70.636 360.384 67.996C362.144 68.4067 363.229 68.7587 363.64 69.052C363.963 69.2573 363.904 69.4773 363.464 69.712L362.76 70.064C361.88 72.0587 360.941 74.0827 359.944 76.136H364.608L365.136 75.388C365.195 75.3293 365.253 75.256 365.312 75.168C365.605 74.816 365.84 74.64 366.016 74.64C366.309 74.64 366.837 74.9627 367.6 75.608C368.363 76.224 368.744 76.6933 368.744 77.016C368.363 77.3973 367.732 77.676 366.852 77.852V93.516C366.911 97.1533 367.028 100.6 367.204 103.856C366.999 104.12 366.705 104.355 366.324 104.56C365.943 104.795 365.591 104.912 365.268 104.912C365.004 104.912 364.872 104.619 364.872 104.032C364.901 103.885 364.931 103.68 364.96 103.416C364.989 103.211 365.019 103.035 365.048 102.888V101.876H356.468V103.02C356.497 103.255 356.512 103.548 356.512 103.9C356.571 104.428 356.615 104.795 356.644 105C356.556 105.264 356.351 105.499 356.028 105.704C355.705 105.909 355.339 106.012 354.928 106.012ZM356.468 100.556H365.048V89.292H356.468V100.556ZM381.152 94C380.771 94.4693 380.257 94.4693 379.612 94C379.231 92.6213 378.351 91.0227 376.972 89.204C375.74 87.5907 374.42 86.168 373.012 84.936L373.54 84.54C375.828 85.684 377.661 86.96 379.04 88.368C380.184 89.5413 380.932 90.7 381.284 91.844C381.577 92.812 381.533 93.5307 381.152 94ZM356.468 88.016H365.048V77.412H356.468V88.016ZM415.472 108.212C415.325 108.212 415.164 108.109 414.988 107.904C414.841 107.728 414.768 107.537 414.768 107.332C414.768 107.156 414.783 106.907 414.812 106.584C415.017 103.416 415.149 100.263 415.208 97.124V91.536C413.477 92.6213 411.659 93.5453 409.752 94.308L409.268 93.604C414.196 91.228 418.361 88.016 421.764 83.968C420.268 82.0027 418.977 79.7733 417.892 77.28C416.161 80.008 414.269 82.1787 412.216 83.792L411.556 83.264C413.14 81.68 414.636 79.612 416.044 77.06C416.748 75.828 417.423 74.288 418.068 72.44C418.684 70.6507 419.065 69.1253 419.212 67.864C420.943 68.48 421.999 68.964 422.38 69.316C422.673 69.58 422.6 69.8 422.16 69.976L421.412 70.24C420.884 71.5307 420.473 72.484 420.18 73.1H427.484L429.024 71.648C430.168 72.704 430.843 73.4373 431.048 73.848C431.195 74.2 431.033 74.4053 430.564 74.464L429.684 74.596C428.129 78.2333 426.208 81.4013 423.92 84.1C427.117 87.2387 431.048 89.5267 435.712 90.964L435.58 91.448C434.641 91.5653 434.055 92.0493 433.82 92.9C429.273 91.0227 425.621 88.4853 422.864 85.288C420.635 87.6933 418.171 89.732 415.472 91.404L417.54 92.372H428.452L429.464 91.096C430.667 91.9467 431.385 92.5627 431.62 92.944C431.796 93.2373 431.664 93.4573 431.224 93.604L430.432 93.824V98.356C430.52 102.14 430.623 105.073 430.74 107.156C430.241 107.801 429.625 108.124 428.892 108.124C428.569 108.124 428.408 107.831 428.408 107.244C428.437 107.097 428.467 106.907 428.496 106.672C428.525 106.496 428.555 106.349 428.584 106.232V105.264H417.012V107.464C417.012 107.581 416.865 107.728 416.572 107.904C416.249 108.109 415.883 108.212 415.472 108.212ZM397.432 107.156L396.288 104.12C396.816 104.003 397.74 103.797 399.06 103.504V95.804C399.06 92.46 398.899 89.82 398.576 87.884C400.307 88.4707 401.363 88.94 401.744 89.292C402.067 89.5267 402.023 89.776 401.612 90.04L400.908 90.436V103.02L404.032 102.228V83.176H400.732V84.672C400.732 84.7893 400.585 84.936 400.292 85.112C399.94 85.3173 399.559 85.42 399.148 85.42C399.031 85.42 398.913 85.332 398.796 85.156C398.679 84.9507 398.62 84.7453 398.62 84.54C398.737 83.4253 398.825 82.0173 398.884 80.316V77.764C398.884 74.4493 398.723 71.824 398.4 69.888L401.26 71.296H408.344L408.872 70.592C408.931 70.5333 409.004 70.4453 409.092 70.328C409.327 70.0053 409.532 69.844 409.708 69.844C410.001 69.844 410.529 70.152 411.292 70.768C412.084 71.3547 412.48 71.8093 412.48 72.132C412.187 72.5133 411.571 72.8067 410.632 73.012V76.752C410.691 79.744 410.779 82.1347 410.896 83.924C410.72 84.1293 410.441 84.3347 410.06 84.54C409.679 84.716 409.341 84.804 409.048 84.804H408.784V83.176H405.924V89.908H408.036L408.74 88.896C408.799 88.8373 408.857 88.7493 408.916 88.632C409.297 88.104 409.591 87.84 409.796 87.84C410.089 87.84 410.647 88.2067 411.468 88.94C412.289 89.6733 412.7 90.2013 412.7 90.524C412.583 90.9933 412.216 91.228 411.6 91.228H405.924V101.7C408.417 101.055 410.691 100.439 412.744 99.852L412.92 100.512C412.568 100.659 412.025 100.879 411.292 101.172C406.188 103.196 401.861 104.853 398.312 106.144C398.165 106.643 397.872 106.98 397.432 107.156ZM417.012 103.944H428.584V93.692H417.012V103.944ZM422.732 82.78C424.727 80.1107 426.296 77.3093 427.44 74.376H419.564C419.329 74.816 418.977 75.4467 418.508 76.268C419.74 78.7907 421.148 80.9613 422.732 82.78ZM400.732 81.9H408.784V72.572H400.732V81.9Z" fill="black" fill-opacity="0.9"/>
</svg>
