<svg width="341" height="146" viewBox="0 0 341 146" fill="none" xmlns="http://www.w3.org/2000/svg">
<path d="M44.65 43.65C43.6833 43.3833 42.7333 42.95 41.8 42.35C40.9 41.7833 40.0333 41.2 39.2 40.6C38.8 40.1667 38.6333 39.5833 38.7 38.85L39.2 37.85C39.7 37.4833 40.3167 37.3333 41.05 37.4L43.1 38.55L42.7 4.2C42.7667 3.66666 42.9667 3.2 43.3 2.8C43.7333 2.43333 44.3167 2.28333 45.05 2.35L46.05 2.8C46.35 4.7 46.5333 6.65 46.6 8.65C46.6667 10.65 46.8 21.7833 47 42.05C46.4 43.25 45.6167 43.7833 44.65 43.65ZM28.4 28.95C27.8667 28.8833 27.4167 28.6833 27.05 28.35C26.65 27.8833 26.4833 27.3 26.55 26.6C27.3833 24.6333 28.1833 22.65 28.95 20.65C29.75 18.6167 30.8 16.7167 32.1 14.95C32.6667 14.5167 33.3 14.3333 34 14.4L35 14.9C35.4 15.3333 35.5667 15.9167 35.5 16.65C34.2333 18.45 33.2 20.3667 32.4 22.4C31.6333 24.4 30.7833 26.3833 29.85 28.35C29.4167 28.6833 28.9333 28.8833 28.4 28.95ZM62.5 28.35L61.5 27.85C60.2667 25.7833 58.85 23.8 57.25 21.9C55.6833 19.9667 54.4833 17.8833 53.65 15.65L54.15 14.7C54.5833 14.3 55.1667 14.1333 55.9 14.2L56.85 14.7C58.1167 16.7667 59.55 18.7667 61.15 20.7C62.75 22.6 63.95 24.6667 64.75 26.9L64.25 27.85C63.7833 28.25 63.2 28.4167 62.5 28.35ZM90.15 45.3C89.65 45.2333 89.2 45.0333 88.8 44.7C88.4667 43.6667 88.15 42.6167 87.85 41.55C87.5833 40.5167 87.35 39.4833 87.15 38.45L87.65 37.5C88.0833 37.1 88.6667 36.9333 89.4 37L90.35 37.5C90.95 38.4 91.35 39.3833 91.55 40.45C91.7833 41.5167 91.9667 42.6167 92.1 43.75L91.65 44.7C91.1833 45.0333 90.6833 45.2333 90.15 45.3ZM78.5 45.1L77.5 44.6C77.1333 44.1 76.9833 43.4833 77.05 42.75C77.4167 41.9167 77.7167 41.0333 77.95 40.1C78.1833 39.1333 78.5667 38.2333 79.1 37.4C79.6667 36.8667 80.35 36.6667 81.15 36.8L82.1 37.3C82.5333 37.7333 82.7167 38.3167 82.65 39.05C81.85 41.25 81.0833 43.0667 80.35 44.5C79.8167 44.9667 79.2 45.1667 78.5 45.1ZM112.2 44.8C111.667 44.7333 111.2 44.5333 110.8 44.2C110.367 43.1667 109.817 42.2 109.15 41.3C108.517 40.4 108.1 39.3833 107.9 38.25L108.4 37.3C108.833 36.9 109.417 36.7333 110.15 36.8L111.1 37.3C112.033 38.6 112.733 39.6833 113.2 40.55C113.7 41.3833 114.017 42.2833 114.15 43.25L113.65 44.2C113.183 44.5333 112.7 44.7333 112.2 44.8ZM100.15 44.5L99.15 44.05C98.8167 43.25 98.5333 42.4333 98.3 41.6C98.1 40.8 97.8667 39.9833 97.6 39.15C97.6667 38.6167 97.85 38.1667 98.15 37.8C98.6167 37.4 99.2167 37.2333 99.95 37.3L100.9 37.8C101.3 38.5667 101.633 39.4 101.9 40.3C102.2 41.1667 102.35 42.0833 102.35 43.05L101.9 44.05C101.433 44.4167 100.85 44.5667 100.15 44.5ZM83.8 35.1L82.85 34.6C82.1833 33.3667 81.9167 32 82.05 30.5C80.5167 30.7667 79.15 31.0333 77.95 31.3C76.75 31.5333 75.5333 31.7167 74.3 31.85L73.3 31.4C72.9333 30.9333 72.7833 30.3333 72.85 29.6L73.3 28.65C74.6 28.1167 75.9833 27.75 77.45 27.55C78.9167 27.3167 80.3833 27 81.85 26.6L81.75 21.3C80.55 21.3 79.35 21.3 78.15 21.3C76.95 21.3 75.8333 21.1167 74.8 20.75C74.4 20.2833 74.2333 19.7 74.3 19L74.8 18C75.8333 17.4 78.15 17.2333 81.75 17.5C81.75 16.6 81.75 15.6833 81.75 14.75C81.75 13.7833 81.9833 12.95 82.45 12.25C82.9167 11.85 83.5 11.6833 84.2 11.75L85.2 12.25C85.6333 12.8833 85.7833 13.6667 85.65 14.6L86.05 33.65L85.6 34.6C85.1333 35 84.5333 35.1667 83.8 35.1ZM110.65 33.8C109.65 33.7 108.7 33.5 107.8 33.2C106.9 32.9 106.067 32.3667 105.3 31.6C104.533 30.8 104.033 29.85 103.8 28.75C103.567 27.65 103.433 25.6667 103.4 22.8C103.367 19.9333 103.35 17.8667 103.35 16.6C103.35 15.3333 103.583 14.1667 104.05 13.1C104.55 12.7333 105.183 12.5833 105.95 12.65L106.9 13.1C107.3 13.5667 107.467 14.1667 107.4 14.9L107.2 17.1H111.4C112.633 17.0667 113.75 17.3 114.75 17.8C115.117 18.2667 115.267 18.85 115.2 19.55L114.75 20.55C114.217 20.8833 113.65 21.0833 113.05 21.15L107.1 20.95C107.1 25.35 107.567 27.9667 108.5 28.8C109.467 29.6 110.733 29.9667 112.3 29.9C112.233 29.1333 112.417 28.45 112.85 27.85C113.317 27.4833 113.917 27.3333 114.65 27.4L115.6 27.85C116.133 29.0833 116.383 30.2667 116.35 31.4C116.317 32.5 116 33.1333 115.4 33.3C114.833 33.4667 114.117 33.6 113.25 33.7C112.417 33.7667 111.55 33.8 110.65 33.8ZM89.75 31.25C88.4833 31.1833 87.75 30.8167 87.55 30.15C87.3833 29.4833 87.1167 25.7667 86.75 19C86.8167 18.4667 87.0333 18.0167 87.4 17.65C87.8 17.25 88.3667 17.0667 89.1 17.1L100.6 17.4C101.633 17.4333 102.233 17.7167 102.4 18.25C102.567 18.75 102.567 19.6167 102.4 20.85C102.267 22.0833 102.2 23.55 102.2 25.25C102.2 26.9167 102.067 28.35 101.8 29.55C101.567 30.75 100.717 31.3333 99.25 31.3L89.75 31.25ZM98.25 27.45L98.45 21.2L90.55 21.05L91.15 27.4L98.25 27.45ZM100.8 12.35L99.85 11.85C99.3833 11.1833 99.1833 10.4167 99.25 9.55L99.35 8.2L92.6 8.3C92.9333 9 93.1 9.76667 93.1 10.6L92.6 11.55C92.1 11.95 91.4833 12.1167 90.75 12.05L89.8 11.55C89.2 10.55 88.8667 9.46667 88.8 8.3L76.65 8.7L75.65 8.2C75.2833 7.66666 75.1333 7.05 75.2 6.35L75.65 5.35C77.6833 4.95 79.7667 4.71666 81.9 4.65C84.0333 4.58333 86.1333 4.53333 88.2 4.5V3.7L88 2.45L88.5 1.45C89.0333 1.05 89.65 0.883331 90.35 0.949997L91.35 1.45C91.85 2.28333 92.1 3.26666 92.1 4.4H99.65C99.5167 3.2 99.7 2.18333 100.2 1.35C100.733 0.949997 101.367 0.783331 102.1 0.849998L103.05 1.35C103.45 1.81666 103.617 2.4 103.55 3.1L103.45 4.2H113.05L114.05 4.65C114.517 5.18333 114.717 5.81667 114.65 6.55L114.15 7.5L113.15 8H103.15C103.283 9.36667 103.083 10.65 102.55 11.85C102.117 12.25 101.533 12.4167 100.8 12.35ZM145.15 44.65C143.983 44.2167 142.867 43.5833 141.8 42.75C140.767 41.95 139.767 41.0833 138.8 40.15C138.4 39.7167 138.233 39.1333 138.3 38.4L138.8 37.45C139.267 37.05 139.85 36.8833 140.55 36.95C141.283 37.2833 141.95 37.7833 142.55 38.45C143.183 39.0833 143.85 39.5833 144.55 39.95C144.883 38.9833 145.2 38.0167 145.5 37.05C145.8 36.0833 145.983 34.7167 146.05 32.95C146.15 31.15 146.083 28.8333 145.85 26L126.05 26.3L125.1 25.8C124.633 25.3 124.433 24.6833 124.5 23.95L125 23C126.1 22.4667 127.333 22.2667 128.7 22.4L144.95 22.1C144.55 21.1333 144.2 20.2333 143.9 19.4C143.633 18.5333 142.95 17.5167 141.85 16.35C141.117 15.3167 141.117 14.3667 141.85 13.5C143.15 12.7333 144.35 11.75 145.45 10.55C146.55 9.35 147.65 8.26666 148.75 7.3L133.9 7.6C133.4 7.53333 132.95 7.33333 132.55 7C132.117 6.56667 131.933 5.98333 132 5.25L132.55 4.3C133.717 3.83333 134.95 3.56666 136.25 3.5H153.65C155.283 3.8 155.767 4.61666 155.1 5.95C153.167 8.41666 151.517 10.2167 150.15 11.35C148.783 12.45 147.5 13.6833 146.3 15.05C146.833 16.3833 147.317 17.6 147.75 18.7C148.217 19.8 148.683 20.9 149.15 22L164.35 21.9L165.4 22.5C165.8 23.0333 165.967 23.65 165.9 24.35L165.4 25.35C164.1 25.85 162.667 26.0333 161.1 25.9H149.75C150.05 28.6667 150.083 31.2 149.85 33.5C149.65 35.8 149.317 37.7667 148.85 39.4C148.383 41.0333 147.8 42.3 147.1 43.2C146.4 44.1 145.75 44.5833 145.15 44.65ZM201.1 44.6C199.667 44.3333 198.433 43.5833 197.4 42.35C196.933 41.85 196.733 41.2333 196.8 40.5L197.3 39.55C197.767 39.15 198.5 38.9833 199.5 39.05L199.35 35C196.617 36.7333 193.883 38.3667 191.15 39.9C188.417 41.4 185.5 42.4833 182.4 43.15L181.45 42.65C181.05 42.2167 180.883 41.6333 180.95 40.9L181.45 39.95C183.883 39.15 186.25 38.1333 188.55 36.9C190.85 35.6333 193.15 34.25 195.45 32.75L183.35 32.95C182.05 32.55 181.533 31.7667 181.8 30.6C182.133 29.5 182.55 28.45 183.05 27.45C183.55 26.4167 184.1 25.4167 184.7 24.45C185.233 24.05 185.85 23.8833 186.55 23.95L187.55 24.45C187.917 24.9167 188.067 25.5 188 26.2L186.75 28.95L198.95 28.85L199.1 23.25L185.1 23.45C184 23.45 183 23.2 182.1 22.7C181.7 22.2333 181.533 21.65 181.6 20.95L182.1 19.95C182.733 19.4833 183.467 19.3167 184.3 19.45L206.2 19.35L207.15 19.85C207.583 20.3167 207.767 20.9 207.7 21.6L207.15 22.6C205.85 23.1667 204.35 23.3667 202.65 23.2L202.75 28.55H210.7L211.7 29.05C212.167 29.55 212.367 30.1667 212.3 30.9L211.8 31.85L210.8 32.35H203.15L203.25 43.05C203.05 44.45 202.333 44.9667 201.1 44.6ZM209.95 19.95C209.017 19.8833 208.133 19.7 207.3 19.4C206.5 19.0667 205.633 18.3333 204.7 17.2C203.8 16.0333 203.25 15.0333 203.05 14.2C202.85 13.3333 202.75 12.45 202.75 11.55C202.817 11.05 203.017 10.5833 203.35 10.15C203.817 9.75 204.4 9.58333 205.1 9.65L206.1 10.15C206.467 10.8833 206.65 11.7 206.65 12.6C206.65 13.4667 206.9 14.1833 207.4 14.75C207.933 15.2833 208.717 15.7 209.75 16C210.783 16.2667 212.183 16.2833 213.95 16.05L214.9 16.55C215.3 17.05 215.467 17.6667 215.4 18.4L214.9 19.35C214.2 19.8167 213.4 20.0333 212.5 20C211.633 19.9667 210.783 19.95 209.95 19.95ZM179.85 19.75C179.35 19.6833 178.9 19.4833 178.5 19.15C178.1 18.7167 177.933 18.1333 178 17.4L178.5 16.45C180 15.9167 181.2 15.0333 182.1 13.8C183 12.5667 183.667 11.2833 184.1 9.95C184.567 9.55 185.15 9.38333 185.85 9.45L186.85 9.95C187.317 10.5167 187.483 11.1833 187.35 11.95C187.217 12.7833 186.95 13.5833 186.55 14.35C186.15 15.0833 185.267 16.1 183.9 17.4C182.567 18.7 181.217 19.4833 179.85 19.75ZM177.15 15.55L176.15 15.05C175.817 14.6833 175.617 14.2333 175.55 13.7V6.8C175.55 5.43333 175.933 4.71666 176.7 4.65C177.5 4.55 182.567 4.51667 191.9 4.55L191.65 1.95C191.717 1.41666 191.9 0.949998 192.2 0.549999C192.667 0.183331 193.25 0.0333313 193.95 0.0999991L194.95 0.549999C195.55 1.81667 195.817 3.15 195.75 4.55C206.717 4.68333 212.717 4.83333 213.75 5C214.817 5.16667 215.167 6.65 214.8 9.45C214.767 11.1833 214.45 12.7667 213.85 14.2C213.317 14.6 212.7 14.7667 212 14.7L211 14.2C210.633 13.7333 210.483 13.15 210.55 12.45C210.783 11.25 210.933 10.0167 211 8.75L179.4 8.5V14.1L178.9 15.05C178.433 15.45 177.85 15.6167 177.15 15.55ZM234.2 45.1L233.2 44.6C232.867 44.2333 232.667 43.7833 232.6 43.25L232.8 26C230.467 28.4 228.9 30.1 228.1 31.1C227.633 31.4667 227.05 31.6333 226.35 31.6L225.35 31.1C224.983 30.5667 224.833 29.95 224.9 29.25C226.967 26.5167 228.683 24.5 230.05 23.2C231.417 21.8667 232.917 20.3167 234.55 18.55C236.217 16.75 237.4 15.55 238.1 14.95L239.3 14.9L240.25 15.35C240.65 15.8167 240.817 16.4 240.75 17.1L236.85 21.8L236.45 43.65L235.95 44.6C235.517 45 234.933 45.1667 234.2 45.1ZM254.9 43.25C253.2 43.1833 251.567 42.9667 250 42.6C248.467 42.2333 247.067 41.2833 245.8 39.75C244.533 38.1833 243.833 36.1667 243.7 33.7C243.567 31.2333 243.433 26.4833 243.3 19.45C243.3 18.6833 243.517 17.9667 243.95 17.3C244.417 16.9333 245.017 16.7833 245.75 16.85L246.7 17.3C247.167 17.9667 247.333 18.75 247.2 19.65L247.1 24.55L260.9 23.3L261.9 23.75C262.3 24.2167 262.467 24.8 262.4 25.5L261.9 26.5C259.533 27.1 257.1 27.5167 254.6 27.75C252.133 27.95 249.667 28.15 247.2 28.35C247.333 30.3167 247.467 32.0833 247.6 33.65C247.733 35.1833 248.183 36.4167 248.95 37.35C249.75 38.2833 250.683 38.85 251.75 39.05C252.817 39.25 254 39.4 255.3 39.5C256.6 39.5667 258.533 39.5167 261.1 39.35L260.8 36.05L261.3 35.1C261.767 34.7 262.35 34.5333 263.05 34.6L264.05 35.1C264.45 36.1 264.7 37.15 264.8 38.25C264.933 39.3167 265.1 40.3667 265.3 41.4C265.5 42.4667 264.85 43.0167 263.35 43.05C261.85 43.1167 260.433 43.15 259.1 43.15C257.8 43.1833 256.4 43.2167 254.9 43.25ZM251.6 14.4L250.6 13.9C250.033 12.8667 249.933 11.1333 250.3 8.7L239.85 8.75L240.05 12.25L239.6 13.2C239.133 13.6 238.533 13.7667 237.8 13.7L236.85 13.2C236.25 11.9 235.983 10.45 236.05 8.85H226.65L225.65 8.4C225.283 7.86667 225.133 7.25 225.2 6.55L225.65 5.55L226.65 5.05H235.6L235.3 2.9C235.367 2.4 235.55 1.95 235.85 1.55C236.317 1.15 236.917 0.983331 237.65 1.05L238.6 1.55C239.133 2.58333 239.4 3.71667 239.4 4.95H250.5L250.3 3.6C250.367 3.06666 250.567 2.61666 250.9 2.25C251.367 1.85 251.95 1.68333 252.65 1.75L253.65 2.25C254.117 3.01666 254.35 3.91667 254.35 4.95L262.4 5.05C263.233 4.98333 263.983 5.18333 264.65 5.65C265.017 6.11667 265.167 6.7 265.1 7.4L264.65 8.4C263.917 8.83333 263.1 9.01666 262.2 8.95L254.25 8.75C254.05 11.4833 253.75 13.2 253.35 13.9C252.883 14.3 252.3 14.4667 251.6 14.4ZM285.65 44.75C284.583 44.7833 283.95 44.35 283.75 43.45C283.55 42.5833 283.25 36.1667 282.85 24.2C281.683 25.2333 280.567 26.2667 279.5 27.3C278.433 28.3 277.267 29.2667 276 30.2C275.567 30.6 275 30.7667 274.3 30.7L273.35 30.2C272.983 29.7333 272.833 29.1333 272.9 28.4L273.35 27.45C275.717 25.6167 278.017 23.6167 280.25 21.45C282.483 19.2833 284.517 16.9333 286.35 14.4L276.4 14.25C275.9 14.1833 275.467 13.9833 275.1 13.65C274.7 13.1833 274.533 12.6167 274.6 11.95L275.1 10.9L276 10.45L292.25 10.55L291.95 3L292.45 2.1C292.917 1.7 293.483 1.53333 294.15 1.6L295.15 2.1C295.717 2.9 295.967 3.8 295.9 4.8L296 10.3H312.25C312.883 10.3 313.45 10.4667 313.95 10.8C314.35 11.2667 314.517 11.8667 314.45 12.6L313.95 13.55C313.383 13.95 312.717 14.15 311.95 14.15L291.05 14.5L286.55 20.4L287.15 39.65C288.283 39.1167 289.317 38.5667 290.25 38C291.217 37.4333 292.25 37.05 293.35 36.85L294.25 37.35C294.65 37.75 294.817 38.3167 294.75 39.05L294.25 39.95C292.783 40.8167 291.333 41.6667 289.9 42.5C288.467 43.3333 287.05 44.0833 285.65 44.75ZM314.25 41.85C312.35 40.9833 310.467 39.9667 308.6 38.8C306.733 37.6333 304.917 36.3333 303.15 34.9C301.417 33.4333 299.633 31.9333 297.8 30.4C295.967 28.8333 293.967 27.0333 291.8 25C291.367 24.4667 291.183 23.8333 291.25 23.1L291.7 22.15C292.2 21.6833 292.85 21.5167 293.65 21.65C295.583 23.1833 297.017 24.4667 297.95 25.5C298.883 26.5 299.883 27.3667 300.95 28.1C302.083 27.0333 303.1 25.9167 304 24.75C304.9 23.5833 305.75 22.4 306.55 21.2C307.183 20.6667 307.867 20.4333 308.6 20.5L309.55 21C309.95 21.5 310.117 22.1 310.05 22.8L309.55 23.75C308.617 24.7833 307.733 25.8667 306.9 27C306.1 28.1333 305.167 29.2 304.1 30.2C306.867 32.8 309.067 34.65 310.7 35.75C312.367 36.8167 314.083 37.75 315.85 38.55C316.25 39.0167 316.417 39.5833 316.35 40.25L315.85 41.25C315.35 41.5833 314.817 41.7833 314.25 41.85ZM22.4 145.55L21.4 145C20.9 144.1 20.7 143.033 20.8 141.8V132.95C16.3 132.95 12.6333 133.05 9.8 133.25C7 133.45 4.23333 133.683 1.5 133.95L0.5 133.5C0.133334 133 3.22858e-07 132.4 0.1 131.7L0.55 130.75C1.98333 130.15 3.55 129.817 5.25 129.75C6.98333 129.683 8.66667 129.6 10.3 129.5C9.9 124.467 9.68333 121.167 9.65 119.6C9.55 118.433 10.0167 117.8 11.05 117.7C12.0833 117.567 13.45 117.533 15.15 117.6C16.8833 117.633 18.6167 117.567 20.35 117.4L20.3 112.15L9.65 112C9.28333 113.3 8.78333 114.567 8.15 115.8C7.51667 117 6.83333 118.183 6.1 119.35C5.56667 119.817 4.95 120.017 4.25 119.95L3.25 119.4C2.85 118.967 2.68333 118.383 2.75 117.65C4.35 115.15 5.58333 112.467 6.45 109.6C7.35 106.733 8.06667 103.867 8.6 101C9.06667 100.6 9.66667 100.433 10.4 100.5L11.35 101C11.8167 101.7 11.9667 102.5 11.8 103.4L10.85 108.25L34.15 108.2L35.15 108.7C35.5167 109.133 35.6667 109.717 35.6 110.45L35.1 111.45C34.6333 111.783 34.1333 111.967 33.6 112L24.2 112.2L24.15 117.45C25.25 117.45 26.35 117.483 27.45 117.55C28.55 117.583 29.5833 117.817 30.55 118.25C30.95 118.717 31.1167 119.3 31.05 120L30.55 121C29.6833 121.467 28.6833 121.633 27.55 121.5L24.05 121.25L24.25 129L39.45 128.8L40.4 129.3C40.8 129.733 40.9667 130.317 40.9 131.05L40.4 132C39.9667 132.333 39.4667 132.533 38.9 132.6L24.6 132.8L24.65 144.1L24.15 145.05C23.6833 145.45 23.1 145.617 22.4 145.55ZM20.45 129.15L20.25 121.2L13.5 121.4L14.3 129.15H20.45ZM72.4 145.55L71.4 145C70.9 144.1 70.7 143.033 70.8 141.8V132.95C66.3 132.95 62.6333 133.05 59.8 133.25C57 133.45 54.2333 133.683 51.5 133.95L50.5 133.5C50.1333 133 50 132.4 50.1 131.7L50.55 130.75C51.9833 130.15 53.55 129.817 55.25 129.75C56.9833 129.683 58.6667 129.6 60.3 129.5C59.9 124.467 59.6833 121.167 59.65 119.6C59.55 118.433 60.0167 117.8 61.05 117.7C62.0833 117.567 63.45 117.533 65.15 117.6C66.8833 117.633 68.6167 117.567 70.35 117.4L70.3 112.15L59.65 112C59.2833 113.3 58.7833 114.567 58.15 115.8C57.5167 117 56.8333 118.183 56.1 119.35C55.5667 119.817 54.95 120.017 54.25 119.95L53.25 119.4C52.85 118.967 52.6833 118.383 52.75 117.65C54.35 115.15 55.5833 112.467 56.45 109.6C57.35 106.733 58.0667 103.867 58.6 101C59.0667 100.6 59.6667 100.433 60.4 100.5L61.35 101C61.8167 101.7 61.9667 102.5 61.8 103.4L60.85 108.25L84.15 108.2L85.15 108.7C85.5167 109.133 85.6667 109.717 85.6 110.45L85.1 111.45C84.6333 111.783 84.1333 111.967 83.6 112L74.2 112.2L74.15 117.45C75.25 117.45 76.35 117.483 77.45 117.55C78.55 117.583 79.5833 117.817 80.55 118.25C80.95 118.717 81.1167 119.3 81.05 120L80.55 121C79.6833 121.467 78.6833 121.633 77.55 121.5L74.05 121.25L74.25 129L89.45 128.8L90.4 129.3C90.8 129.733 90.9667 130.317 90.9 131.05L90.4 132C89.9667 132.333 89.4667 132.533 88.9 132.6L74.6 132.8L74.65 144.1L74.15 145.05C73.6833 145.45 73.1 145.617 72.4 145.55ZM70.45 129.15L70.25 121.2L63.5 121.4L64.3 129.15H70.45ZM111.25 144.4C110.05 144.133 109.5 143.267 109.6 141.8L109.7 127.4C107.2 129.5 105.383 130.933 104.25 131.7C103.383 132.567 102.333 133 101.1 133L100.15 132.5C99.75 132.033 99.5833 131.45 99.65 130.75L100.15 129.75C101.05 129.25 101.933 128.667 102.8 128C103.7 127.3 105.45 125.733 108.05 123.3C106.517 123.3 105 123.25 103.5 123.15C102 123.05 100.6 122.767 99.3 122.3C98.9 121.833 98.7333 121.25 98.8 120.55L99.3 119.55C99.9333 119.117 100.75 118.967 101.75 119.1L111.45 119.25L114 115.45H109.6C109.067 115.383 108.617 115.2 108.25 114.9C107.85 114.433 107.683 113.833 107.75 113.1L108.25 112.15L109.2 111.65H116.65L118 108.7L107.35 108.75C106.783 108.717 106.317 108.533 105.95 108.2C105.55 107.733 105.383 107.15 105.45 106.45L105.95 105.45L106.9 104.95L119.45 104.85C119.517 103.483 119.783 102.217 120.25 101.05C120.717 100.65 121.3 100.483 122 100.55L123 101.05C123.5 101.717 123.683 102.533 123.55 103.5L123.25 105.05L133 105.65L133.95 105.55L135.25 106.15C135.617 106.65 135.767 107.267 135.7 108L135.25 108.95C134.583 109.417 133.833 109.617 133 109.55C131.2 109.35 129.367 109.2 127.5 109.1C125.667 109 123.833 108.883 122 108.75C121.733 109.75 121.417 110.717 121.05 111.65L130.6 111.85L131.55 112.35C132.05 112.85 132.267 113.5 132.2 114.3L131.65 115.25C131.15 115.65 130.533 115.85 129.8 115.85L124.55 115.55L127.75 119.85H132.7C133.733 119.983 134.767 120.05 135.8 120.05C136.867 120.05 137.85 120.283 138.75 120.75C139.15 121.25 139.317 121.867 139.25 122.6L138.75 123.55C138.217 124.017 137.567 124.183 136.8 124.05C135.9 123.917 134.95 123.817 133.95 123.75C132.983 123.683 132 123.65 131 123.65C132.067 124.95 133.2 126.133 134.4 127.2C135.6 128.233 137.383 129.75 139.75 131.75C140.117 132.217 140.267 132.817 140.2 133.55L139.75 134.5C139.217 134.967 138.55 135.133 137.75 135C137.117 134.733 136.433 134.25 135.7 133.55C135 132.817 134.133 132.017 133.1 131.15C132.067 130.25 131 129.35 129.9 128.45V141.7C129.867 143.3 129.567 144.15 129 144.25C128.433 144.35 127.633 144.4 126.6 144.4H111.25ZM126.1 140.5V137.5L113.4 137.2V140.4L126.1 140.5ZM126.1 133.65V130.4L113.4 129.8L113.3 133.35L126.1 133.65ZM128.55 126.8L125.6 123.45L113.3 123.2L110.85 126.2C120.883 126.333 126.783 126.533 128.55 126.8ZM121.05 117.5L120.05 115.45H118.8L116.15 119.35L122.4 119.55L121.05 117.5ZM187.2 143.55C185.967 143.083 184.783 142.417 183.65 141.55C182.517 140.717 181.2 139.5 179.7 137.9C178.2 136.3 176.617 134.383 174.95 132.15C173.317 129.883 171.65 127.583 169.95 125.25C168.917 127.45 167.8 129.667 166.6 131.9C165.433 134.1 164.267 135.9 163.1 137.3C161.933 138.667 160.6 140.033 159.1 141.4C158.2 142.3 157.083 142.75 155.75 142.75L154.75 142.25C154.383 141.817 154.233 141.233 154.3 140.5L154.75 139.55C156.05 138.883 157.433 137.75 158.9 136.15C160.4 134.517 161.533 133.017 162.3 131.65C163.1 130.283 163.783 129.017 164.35 127.85C164.95 126.683 165.483 125.617 165.95 124.65C166.417 123.683 166.767 122.667 167 121.6L157.1 121.7L156.15 121.2C155.75 120.7 155.583 120.083 155.65 119.35L156.15 118.4L157.1 117.9L167.9 117.8C168.033 116.367 168.167 114.933 168.3 113.5C168.433 112.067 168.5 110.583 168.5 109.05L154.3 108.95C153.767 108.883 153.3 108.7 152.9 108.4C152.5 107.933 152.333 107.333 152.4 106.6L152.9 105.65L153.9 105.15H185.05C185.95 105.15 186.8 105.383 187.6 105.85C187.967 106.35 188.117 106.967 188.05 107.7L187.6 108.7C187.067 109.133 186.417 109.283 185.65 109.15L172.3 109.05C172.3 110.583 172.233 112.067 172.1 113.5C171.967 114.933 171.833 116.367 171.7 117.8H182.25L183.3 118.3C183.667 118.767 183.817 119.35 183.75 120.05L183.3 121.05C182.833 121.35 182.317 121.533 181.75 121.6H172.7C174.367 124.8 176.267 127.767 178.4 130.5C180.567 133.233 184.117 136.5 189.05 140.3C189.45 140.767 189.617 141.35 189.55 142.05L189.05 143.05C188.517 143.45 187.9 143.617 187.2 143.55ZM219.75 145.4L218.8 144.9C218.467 144.5 218.267 144.05 218.2 143.55V129.25C215.533 131.317 212.967 133.4 210.5 135.5C208.033 137.6 205.433 139.333 202.7 140.7L201.75 140.2C201.35 139.767 201.183 139.183 201.25 138.45L201.75 137.5C203.883 135.833 206.033 134.15 208.2 132.45C210.367 130.75 212.5 129 214.6 127.2C211.4 127.133 208.9 127.133 207.1 127.2C205.333 127.267 203.617 127.383 201.95 127.55L200.95 127.1C200.483 126.567 200.283 125.95 200.35 125.25L200.85 124.25C202.617 123.65 204.5 123.35 206.5 123.35C208.5 123.35 212.3 123.3 217.9 123.2L217.8 111.15L207.55 111.35L206.5 110.85C206.133 110.317 205.983 109.683 206.05 108.95L206.5 108C207.467 107.6 208.467 107.4 209.5 107.4C210.533 107.4 213.267 107.367 217.7 107.3V103.2C217.767 102.7 217.967 102.25 218.3 101.85C218.733 101.45 219.317 101.283 220.05 101.35L221.05 101.85L221.5 102.8V107.3L233.2 107.6L234.15 108.1C234.55 108.533 234.717 109.117 234.65 109.85L234.15 110.85C233.717 111.183 233.233 111.383 232.7 111.45L221.6 111.15L221.7 123.1L239.15 122.8L240.1 123.3C240.5 123.733 240.667 124.317 240.6 125.05L240.1 126C239.667 126.333 239.183 126.533 238.65 126.6L224.25 126.8C225.617 127.967 230.383 131.717 238.55 138.05C238.95 138.517 239.117 139.117 239.05 139.85L238.55 140.8C238.017 141.2 237.4 141.367 236.7 141.3L235.7 140.8C233.4 139.1 228.833 135.533 222 130.1V143.95L221.5 144.9C221.067 145.3 220.483 145.467 219.75 145.4ZM210.85 121.3L209.9 120.85L207.1 116.95C206.7 116.417 206.533 115.783 206.6 115.05L207.1 114.1C207.6 113.7 208.2 113.533 208.9 113.6L209.9 114.1C210.6 115.2 211.283 116.167 211.95 117C212.65 117.8 213.033 118.75 213.1 119.85L212.65 120.85C212.183 121.217 211.583 121.367 210.85 121.3ZM227.55 120.95L226.6 120.45C226.267 119.983 226.067 119.467 226 118.9C226.267 117.9 226.65 116.967 227.15 116.1C227.683 115.233 228.217 114.367 228.75 113.5C229.25 113.067 229.9 112.867 230.7 112.9L231.65 113.4C232.05 113.867 232.217 114.45 232.15 115.15C230.65 117.783 229.717 119.55 229.35 120.45C228.883 120.85 228.283 121.017 227.55 120.95ZM280.55 145.9C279.217 145.9 278 145.85 276.9 145.75C273.433 145.45 269.983 145.017 266.55 144.45C261.883 143.717 258.367 143.35 256 143.35C255.133 143.35 254.283 143.383 253.45 143.45C252.35 143.517 251.467 143.55 250.8 143.55C250.467 143.55 250.2 143.55 250 143.55L249 143.05C248.667 142.65 248.5 142.167 248.5 141.6V141.3L249 140.3C249.833 139.867 250.667 139.45 251.5 139.05C252.367 138.65 253.267 138.05 254.2 137.25C254.833 136.683 255.15 136.017 255.15 135.25C255.15 134.65 254.7 133.183 253.8 130.85C253.467 129.983 253.3 129.1 253.3 128.2C253.3 128.067 253.317 127.7 253.35 127.1C253.383 126.5 253.617 125.85 254.05 125.15C254.517 124.417 255.017 123.7 255.55 123H249.9C249.367 122.933 248.9 122.733 248.5 122.4C248.167 122 248 121.517 248 120.95L248.05 120.65L248.5 119.65L249.5 119.15H259.5C260.167 119.15 260.717 119.35 261.15 119.75C261.483 120.183 261.65 120.7 261.65 121.3V121.6C260.483 122.9 259.583 124.017 258.95 124.95C257.75 126.717 257.15 127.933 257.15 128.6C257.15 128.867 257.233 129.183 257.4 129.55C257.567 129.917 257.967 130.667 258.6 131.8C259.067 132.6 259.3 133.467 259.3 134.4C259.3 134.8 259.2 135.467 259 136.4C258.8 137.333 258.233 138.35 257.3 139.45C260.667 139.783 263.983 140.2 267.25 140.7C272.85 141.6 278.267 142.05 283.5 142.05C286.133 142.05 288.4 141.767 290.3 141.2L291.3 141.7C291.633 142.067 291.8 142.55 291.8 143.15V143.45L291.1 144.6C290 145.333 288.75 145.717 287.35 145.75C285.95 145.783 284.25 145.833 282.25 145.9H280.55ZM257.35 114H257.05L256.05 113.5C254.283 111.467 252.583 109.633 250.95 108L250.85 106.8L251.35 105.85C251.783 105.517 252.3 105.35 252.9 105.35H253.2L254.45 106.05L259.2 111.25L259.3 112.55L258.8 113.5C258.433 113.833 257.95 114 257.35 114ZM265.95 138.85L265.65 138.8L264.7 138.3C264.333 137.933 264.15 137.45 264.15 136.85L264.2 136.55C264.7 135.65 265.35 134.8 266.15 134C266.983 133.2 267.883 132.333 268.85 131.4C269.85 130.433 270.767 129.333 271.6 128.1C272.467 126.867 273.267 125.6 274 124.3C272.6 122.8 271.4 121.65 270.4 120.85C269.4 120.017 268.367 119.183 267.3 118.35C266.967 117.95 266.8 117.467 266.8 116.9L266.85 116.6L267.3 115.6C267.733 115.267 268.267 115.1 268.9 115.1H269.15L270.15 115.6C271.05 116.467 272.017 117.3 273.05 118.1C274.083 118.9 275.05 119.767 275.95 120.7C277.883 117.3 279.117 114.1 279.65 111.1L265.35 111.3C264.85 111.233 264.4 111.05 264 110.75C263.667 110.35 263.5 109.85 263.5 109.25V108.95L264 107.95L264.95 107.45L274.5 107.35V103.45L275 102.45C275.433 102.117 275.95 101.95 276.55 101.95L276.85 102L277.8 102.45C278.233 103.483 278.45 104.617 278.45 105.85C278.45 106.283 278.433 106.717 278.4 107.15V107.35L286.1 107.25L287.1 107.75C287.433 108.217 287.6 108.75 287.6 109.35V109.65L287.1 110.65C286.333 111.017 285.5 111.2 284.6 111.2C284.267 111.2 283.917 111.167 283.55 111.1C283.183 113.4 282.55 115.583 281.65 117.65C280.783 119.683 279.833 121.733 278.8 123.8C282.3 126.6 285.717 130.117 289.05 134.35C289.45 134.817 289.65 135.35 289.65 135.95V136.2L289.15 137.2C288.717 137.533 288.2 137.7 287.6 137.7H287.3C283.4 133.167 279.95 129.683 276.95 127.25C276.083 128.483 275.2 129.683 274.3 130.85C273.433 132.017 271.067 134.533 267.2 138.4C266.833 138.7 266.417 138.85 265.95 138.85ZM303.4 142.85L302.15 142.25C301.75 141.75 301.583 141.133 301.65 140.4L302.15 139.45C302.65 139.05 303.233 138.85 303.9 138.85H318.6L318.5 133.65H309.1C308.6 133.583 308.15 133.383 307.75 133.05C307.35 132.583 307.183 132 307.25 131.3L307.75 130.3L308.7 129.8H318.5L318.2 124.75L308.15 125.05C307.183 125.283 306.567 125 306.3 124.2C306.033 123.4 305.333 116.983 304.2 104.95C303.9 103.817 304.217 103.117 305.15 102.85C306.117 102.583 315.467 102.533 333.2 102.7C334.533 102.733 335.267 103.133 335.4 103.9C335.567 104.667 335.483 107.867 335.15 113.5C334.85 119.133 334.633 122.333 334.5 123.1C334.4 123.833 333.9 124.233 333 124.3C332.133 124.367 328.467 124.45 322 124.55L322.3 129.9L328.95 130.05C330.383 129.983 331.683 130.217 332.85 130.75C333.25 131.217 333.417 131.8 333.35 132.5L332.85 133.5C332.25 133.867 331.6 134.05 330.9 134.05L322.3 133.7L322.4 138.85L338.55 138.95L339.55 139.45C339.917 139.883 340.067 140.467 340 141.2L339.55 142.15C339.083 142.483 338.583 142.683 338.05 142.75L303.4 142.85ZM318.2 120.95L318.1 115.25L309.5 115.15L310.2 121.15L318.2 120.95ZM330.6 120.55L331 115.15H321.9L322 120.75L330.6 120.55ZM317.9 111.45L317.8 106.55H308.25L308.8 111.35L317.9 111.45ZM331.3 111.35L331.45 106.55H321.6L321.7 111.35H331.3Z" fill="black" fill-opacity="0.8"/>
</svg>
