<svg width="668" height="126" viewBox="0 0 668 126" fill="none" xmlns="http://www.w3.org/2000/svg">
<path d="M7.28125 43.2188C5.78125 43.2188 5.03125 42.5625 5.03125 41.25C5.03125 39.9062 5.78125 39.2344 7.28125 39.2344H9.48438C10.6094 39.2344 11.2031 38.6406 11.2656 37.4531V29.1562C8.98438 29.7812 6.15625 30.4219 2.78125 31.0781C2.65625 31.1094 2.48438 31.125 2.26562 31.125C1.73438 31.125 1.32812 30.9531 1.04688 30.6094C0.765625 30.2344 0.625 29.75 0.625 29.1562C0.625 28.5938 0.8125 28.1406 1.1875 27.7969C1.5625 27.4531 2.17188 27.2031 3.01562 27.0469C6.39062 26.4219 9.14062 25.8906 11.2656 25.4531V17.4375H3.01562C1.51562 17.4375 0.765625 16.8125 0.765625 15.5625C0.765625 14.3438 1.51562 13.7344 3.01562 13.7344H11.2656V7.21875C10.7656 7.28125 9.89062 7.40625 8.64062 7.59375C6.79688 7.84375 5.32812 8.01562 4.23438 8.10938C2.89062 8.20312 2.21875 7.57812 2.21875 6.23438C2.21875 5.57812 2.46875 5.10938 2.96875 4.82812C3.34375 4.57812 4.34375 4.39062 5.96875 4.26562C11.1875 3.89062 15.2344 3.15625 18.1094 2.0625C18.9219 1.75 19.5156 1.59375 19.8906 1.59375C21.1719 1.59375 21.8125 2.23438 21.8125 3.51562C21.8125 3.82812 21.7344 4.09375 21.5781 4.3125C21.4219 4.53125 21.1719 4.75 20.8281 4.96875C20.4844 5.1875 19.8906 5.40625 19.0469 5.625C18.2344 5.84375 16.9062 6.14062 15.0625 6.51562V13.7344H25.2344C24.9531 9.32812 24.8125 5.8125 24.8125 3.1875C24.8125 1.625 25.4531 0.84375 26.7344 0.84375C27.4219 0.84375 27.9219 1.04688 28.2344 1.45312C28.5781 1.85938 28.75 2.48438 28.75 3.32812C28.75 6.32812 28.8438 9.79688 29.0312 13.7344H40.6094C42.1406 13.7344 42.9062 14.3594 42.9062 15.6094C42.9062 16.8281 42.1406 17.4375 40.6094 17.4375H29.3594C29.7031 20.9375 30.3594 24.2031 31.3281 27.2344C32.6719 25.7344 33.8281 24.25 34.7969 22.7812C35.7969 21.2812 36.6562 20.5312 37.375 20.5312C38.0625 20.5312 38.5625 20.6562 38.875 20.9062C39.1875 21.1562 39.3438 21.5469 39.3438 22.0781C39.3438 23.3281 37.1719 26.3125 32.8281 31.0312C33.8906 33.4375 34.8438 35.2344 35.6875 36.4219C36.5625 37.5781 37.3594 38.1562 38.0781 38.1562C38.7656 38.1562 39.3281 36.7344 39.7656 33.8906C39.8594 33.2969 40.0469 32.875 40.3281 32.625C40.6094 32.3438 41 32.2031 41.5 32.2031C42.7188 32.2031 43.3281 32.8594 43.3281 34.1719C43.3281 36.2969 42.8594 38.3125 41.9219 40.2188C41.0156 42.0938 39.8906 43.0312 38.5469 43.0312C37.8906 43.0312 37.1875 42.8125 36.4375 42.375C35.6875 41.9688 34.9375 41.3438 34.1875 40.5C32.625 38.75 31.1875 36.5625 29.875 33.9375C28.9062 34.9062 28.0156 35.7188 27.2031 36.375C26.4219 37.0312 25.3594 37.8125 24.0156 38.7188C22.7344 39.5938 21.75 40.2188 21.0625 40.5938C20.4062 41 19.9219 41.2031 19.6094 41.2031C18.3906 41.2031 17.7812 40.5469 17.7812 39.2344C17.7812 38.4219 18.4531 37.6562 19.7969 36.9375C22.2344 35.6562 25.0938 33.4531 28.375 30.3281C27 26.6094 26.0469 22.3125 25.5156 17.4375H15.0625V24.5625C15.5 24.4375 16.5312 24.1562 18.1562 23.7188C18.4688 23.625 18.7969 23.5312 19.1406 23.4375C19.5156 23.3125 19.9062 23.2031 20.3125 23.1094C20.5625 23.0469 20.7344 23.0156 20.8281 23.0156C21.2344 23.0156 21.5625 23.1719 21.8125 23.4844C22.0625 23.7969 22.1875 24.25 22.1875 24.8438C22.1875 25.75 21.4688 26.3906 20.0312 26.7656L15.0625 28.125V38.6719C15.0625 40.2969 14.6562 41.4844 13.8438 42.2344C13.0625 42.9844 11.8125 43.3125 10.0938 43.2188H7.28125ZM37.6094 11.25C37.3281 11.25 36.9531 11.0312 36.4844 10.5938C36.0156 10.1562 35.4062 9.46875 34.6562 8.53125C33.7812 7.4375 33.1719 6.64062 32.8281 6.14062C32.5156 5.64062 32.3594 5.21875 32.3594 4.875C32.3594 4.46875 32.5156 4.125 32.8281 3.84375C33.1719 3.5625 33.5469 3.42188 33.9531 3.42188C34.7656 3.42188 35.9062 4.25 37.375 5.90625C38.875 7.59375 39.625 8.73438 39.625 9.32812C39.625 10.6094 38.9531 11.25 37.6094 11.25ZM83.1719 31.125C88.5156 35.75 91.1875 38.7031 91.1875 39.9844C91.1875 40.7344 91 41.2656 90.625 41.5781C90.25 41.9219 89.6719 42.0938 88.8906 42.0938C88.1719 42.0938 87.25 41.3594 86.125 39.8906C84.6875 38.0781 82.9531 36.25 80.9219 34.4062C79.0781 36.6875 76.3594 38.6719 72.7656 40.3594C69.4531 41.9219 66.5938 42.7031 64.1875 42.7031C63 42.7031 62.4062 42.0469 62.4062 40.7344C62.4062 39.6719 63.4062 38.9531 65.4062 38.5781C69.625 37.7344 73.1406 36.1719 75.9531 33.8906C78.6406 31.7031 80.4688 28.7188 81.4375 24.9375C82.4375 21.0312 82.9375 15.4844 82.9375 8.29688C82.9375 7.64062 82.9219 7.15625 82.8906 6.84375L82.8438 5.4375C82.8438 3.875 83.5 3.09375 84.8125 3.09375C85.5312 3.09375 86.0469 3.375 86.3594 3.9375C86.7031 4.46875 86.875 5.3125 86.875 6.46875C86.875 18.5 85.6406 26.7188 83.1719 31.125ZM75.1562 23.5781C75.1562 24.2656 74.2188 25.4062 72.3438 27C70.4688 28.5625 67.7344 30.4531 64.1406 32.6719C60.3281 35.0156 57.3125 36.7656 55.0938 37.9219C52.9062 39.0781 51.4531 39.6562 50.7344 39.6562C49.4531 39.6562 48.8125 38.9688 48.8125 37.5938C48.8125 37.1562 49.0469 36.7188 49.5156 36.2812C50.0156 35.8125 50.7188 35.375 51.625 34.9688L53.6406 33.9844L53.4062 20.2969L53.125 6.04688C53.0938 5.14062 53.2344 4.48438 53.5469 4.07812C53.8906 3.64062 54.4062 3.42188 55.0938 3.42188C55.7812 3.42188 56.2812 3.64062 56.5938 4.07812C56.9375 4.48438 57.125 5.14062 57.1562 6.04688C57.2812 11.9844 57.3594 16.4375 57.3906 19.4062L57.6719 31.8281C62.6094 29.0469 66.7031 26.4219 69.9531 23.9531C71.8594 22.5469 73 21.8438 73.375 21.8438C74 21.8438 74.4531 21.9844 74.7344 22.2656C75.0156 22.5469 75.1562 22.9844 75.1562 23.5781ZM68.2656 9.23438C68.0156 9.04688 67.5156 8.67188 66.7656 8.10938C66.0469 7.54688 65.5312 7.09375 65.2188 6.75C64.9062 6.375 64.75 6.04688 64.75 5.76562C64.75 4.48438 65.4219 3.84375 66.7656 3.84375C67.1719 3.84375 67.7812 4.0625 68.5938 4.5C69.4062 4.90625 70.375 5.54688 71.5 6.42188C72.9688 7.51562 74.0781 8.48438 74.8281 9.32812C75.5781 10.1719 75.9844 10.8281 76.0469 11.2969C76.1094 11.9531 75.9844 12.4688 75.6719 12.8438C75.3906 13.1875 74.9531 13.3594 74.3594 13.3594C73.5781 13.3594 72.6719 12.9062 71.6406 12C70.5156 11.0312 69.3906 10.1094 68.2656 9.23438ZM128.688 43.5469C126.812 43.5469 125.875 42.8438 125.875 41.4375C125.875 40.0938 126.828 39.4219 128.734 39.4219C130.578 39.4219 131.812 39.25 132.438 38.9062C133.5 38.3438 134.141 36.4062 134.359 33.0938C134.453 31.8125 134.5 30.5469 134.5 29.2969C134.5 28.1406 133.906 27.5625 132.719 27.5625H105.391L104.547 28.4531C103.859 29.2656 103.328 29.875 102.953 30.2812C101.734 31.5625 100.781 32.4844 100.094 33.0469C99.4062 33.5781 98.875 33.8438 98.5 33.8438C97.2188 33.8438 96.5781 33.1562 96.5781 31.7812C96.5781 31.1562 97.0156 30.4531 97.8906 29.6719C103.609 24.7969 108.203 18.2656 111.672 10.0781H100.516C99.0781 10.0781 98.3594 9.5 98.3594 8.34375C98.3594 7.1875 99.0781 6.60938 100.516 6.60938H113.031L114.156 2.90625C114.594 1.5 115.328 0.796875 116.359 0.796875C117.047 0.796875 117.562 0.9375 117.906 1.21875C118.25 1.5 118.422 1.95312 118.422 2.57812C118.422 3.20312 118.016 4.54688 117.203 6.60938H127.094C129.625 6.60938 130.891 7.65625 130.891 9.75C130.891 10.9375 130.828 12.4688 130.703 14.3438L130.656 15.375C132 15.375 133 15.6562 133.656 16.2188C134.344 16.75 134.688 17.5781 134.688 18.7031C134.688 19.7656 134.609 21.5469 134.453 24.0469C137.141 24.0469 138.484 25.3594 138.484 27.9844C138.484 33.9219 138.125 37.8125 137.406 39.6562C136.375 42.25 133.469 43.5469 128.688 43.5469ZM106.375 6.375C105.625 6.375 104.844 5.73438 104.031 4.45312C103.75 4.01562 103.5 3.625 103.281 3.28125C103.094 2.90625 103 2.64062 103 2.48438C103 1.45312 103.625 0.9375 104.875 0.9375C105.562 0.9375 106.266 1.39062 106.984 2.29688C107.922 3.42188 108.391 4.23438 108.391 4.73438C108.391 5.82812 107.719 6.375 106.375 6.375ZM127.047 11.7656C127.078 11.2344 126.938 10.8281 126.625 10.5469C126.344 10.2344 125.906 10.0781 125.312 10.0781H115.844L113.453 15.375H126.859L127.047 11.7656ZM130.656 24.0469C130.719 23.3594 130.75 22.6562 130.75 21.9375L130.891 19.7812C130.953 19.1875 130.5 18.8906 129.531 18.8906H111.484C110.734 20.2344 109.609 21.9531 108.109 24.0469H130.656ZM129.062 37.3125C128.344 37.3125 127.812 36.9062 127.469 36.0938L125.406 31.3594L125.312 30.8438C125.25 30.4375 125.344 30.125 125.594 29.9062C125.875 29.6875 126.281 29.5781 126.812 29.5781C127.469 29.5781 128.062 30.0156 128.594 30.8906C130.062 33.3906 130.797 35.0156 130.797 35.7656C130.797 36.7969 130.219 37.3125 129.062 37.3125ZM121.609 38.8594C120.672 38.8594 120.047 38.25 119.734 37.0312L118.141 32.5781C117.953 32.0156 117.859 31.6406 117.859 31.4531C117.859 30.6406 118.375 30.2344 119.406 30.2344C120.125 30.2344 120.734 30.6875 121.234 31.5938C122.641 34.2188 123.344 36.125 123.344 37.3125C123.344 38.3438 122.766 38.8594 121.609 38.8594ZM102.016 41.5781C100.672 41.5781 100 40.9219 100 39.6094C100 39.3281 100.406 38.5312 101.219 37.2188C101.938 36.0938 102.578 34.6719 103.141 32.9531C103.391 32.2344 103.703 31.6875 104.078 31.3125C104.453 30.9375 104.844 30.75 105.25 30.75C106.344 30.75 106.891 31.2812 106.891 32.3438C106.891 32.9062 106.359 34.6094 105.297 37.4531C104.266 40.2031 103.172 41.5781 102.016 41.5781ZM113.781 39.8906C112.75 39.8906 112.031 39.0312 111.625 37.3125L110.125 32.4844C110.094 31.8281 110.203 31.375 110.453 31.125C110.734 30.875 111.172 30.75 111.766 30.75C112.766 30.75 113.625 31.8906 114.344 34.1719C115.156 36.1719 115.562 37.5156 115.562 38.2031C115.562 39.3281 114.969 39.8906 113.781 39.8906ZM147.766 6.28125C146.359 6.28125 145.656 5.6875 145.656 4.5C145.656 3.3125 146.359 2.71875 147.766 2.71875H157.188C158.625 2.71875 159.344 3.3125 159.344 4.5C159.344 5.6875 158.625 6.28125 157.188 6.28125H147.766ZM163.094 24.4219C161.781 24.4219 161.125 23.7969 161.125 22.5469C161.125 21.9844 161.969 21.2344 163.656 20.2969C166.094 18.9531 167.828 17.0469 168.859 14.5781L165.016 12.5625C163.891 11.9375 163.328 11.375 163.328 10.875C163.328 9.8125 163.875 9.28125 164.969 9.28125C165.312 9.28125 166.922 9.98438 169.797 11.3906C169.984 10.6094 170.109 9.9375 170.172 9.375C170.234 8.78125 170.281 7.9375 170.312 6.84375H163.562C162.156 6.84375 161.453 6.26562 161.453 5.10938C161.453 3.92188 162.156 3.32812 163.562 3.32812H182.031C184.875 3.32812 186.297 4.45312 186.297 6.70312C186.297 7.35938 186.266 8.17188 186.203 9.14062C186.141 10.0781 186.094 10.75 186.062 11.1562L185.969 12.1406C185.594 16.7969 185.078 19.8594 184.422 21.3281C183.641 23.0781 181.547 23.9531 178.141 23.9531C176.641 23.9531 175.891 23.2812 175.891 21.9375C175.891 21.3125 176.172 20.8438 176.734 20.5312C177.328 20.2188 178.234 20.0312 179.453 19.9688C180.734 19.9375 181.484 18.9375 181.703 16.9688C182.109 13.2188 182.312 10.3125 182.312 8.25C182.312 7.3125 181.797 6.84375 180.766 6.84375H173.875C173.719 8.90625 173.422 10.9688 172.984 13.0312C176.453 14.9062 178.188 16.2656 178.188 17.1094C178.188 18.3281 177.562 18.9375 176.312 18.9375C175.844 18.9375 174.359 18.0938 171.859 16.4062C170.766 18.6875 169.312 20.5625 167.5 22.0312C165.531 23.625 164.062 24.4219 163.094 24.4219ZM146.547 12.6094C145.172 12.6094 144.484 12.0156 144.484 10.8281C144.484 9.64062 145.172 9.04688 146.547 9.04688H158.5C159.875 9.04688 160.562 9.64062 160.562 10.8281C160.562 12.0156 159.875 12.6094 158.5 12.6094H146.547ZM147.812 18.6562C146.438 18.6562 145.75 18.0781 145.75 16.9219C145.75 16.3906 145.984 15.9688 146.453 15.6562C146.953 15.3438 147.562 15.1875 148.281 15.1875H156.812C158.188 15.1875 158.875 15.7656 158.875 16.9219C158.875 18.0781 158.188 18.6562 156.812 18.6562H147.812ZM147.812 25.0312C146.438 25.0312 145.75 24.4531 145.75 23.2969C145.75 22.1406 146.438 21.5625 147.812 21.5625H156.812C158.188 21.5625 158.875 22.1406 158.875 23.2969C158.875 24.4531 158.188 25.0312 156.812 25.0312H147.812ZM175.984 30.0469C175.391 30.0469 174.453 29.2656 173.172 27.7031C172.078 26.3594 171.531 25.5625 171.531 25.3125C171.531 24.2812 172.125 23.7656 173.312 23.7656C173.844 23.7656 174.719 24.375 175.938 25.5938C177.188 26.8438 177.812 27.7656 177.812 28.3594C177.812 29.4844 177.203 30.0469 175.984 30.0469ZM175 42.4219C171.406 42.4219 169.219 42.2031 168.438 41.7656C167.531 41.2344 167.078 40.1406 167.078 38.4844V28.7812C167.078 27.3125 167.672 26.5781 168.859 26.5781C170.016 26.5781 170.594 27.3125 170.594 28.7812V37.3125C170.594 38.125 170.766 38.5938 171.109 38.7188C171.797 39 172.672 39.1094 173.734 39.0469C174.734 38.9844 175.469 38.8906 175.938 38.7656C176.438 38.6406 176.75 38.4844 176.875 38.2969C177.156 37.7656 177.297 36.875 177.297 35.625C177.297 34.3438 177.859 33.7031 178.984 33.7031C180.203 33.7031 180.812 34.375 180.812 35.7188C180.812 38.6562 180.328 40.5156 179.359 41.2969C178.484 42.0469 177.031 42.4219 175 42.4219ZM149.641 41.8125C147.078 41.8125 145.797 40.5781 145.797 38.1094V31.4062C145.797 28.875 147.078 27.6094 149.641 27.6094H154.984C157.547 27.6094 158.828 28.875 158.828 31.4062V38.0156C158.828 40.5469 157.547 41.8125 154.984 41.8125H149.641ZM161.266 40.4531C160.141 40.4531 159.578 39.9219 159.578 38.8594C159.578 38.6406 159.719 38.1875 160 37.5C160.812 35.3438 161.359 33.0781 161.641 30.7031C161.828 29.1094 162.406 28.3125 163.375 28.3125C164.375 28.3125 164.875 28.8125 164.875 29.8125C164.875 31.9375 164.359 34.7031 163.328 38.1094C162.859 39.6719 162.172 40.4531 161.266 40.4531ZM185.734 39.5625C184.891 39.5625 184.312 39.1406 184 38.2969C182.656 35.0781 181.516 32.625 180.578 30.9375C180.328 30.5 180.203 30.1406 180.203 29.8594C180.203 28.8281 180.766 28.3125 181.891 28.3125C182.578 28.3125 183.156 28.6875 183.625 29.4375C186.312 33.6875 187.656 36.4062 187.656 37.5938C187.656 38.9062 187.016 39.5625 185.734 39.5625ZM154.328 38.625C155.047 38.625 155.438 38.2344 155.5 37.4531V31.9688C155.5 31.25 155.109 30.8594 154.328 30.7969H150.297C149.578 30.7969 149.188 31.1875 149.125 31.9688V37.4531C149.125 38.2344 149.516 38.625 150.297 38.625H154.328ZM201.438 11.5781C199.312 11.2969 198.25 10.0938 198.25 7.96875V2.76562C198.25 1.32812 198.875 0.609375 200.125 0.609375C200.719 0.609375 201.172 0.78125 201.484 1.125C201.828 1.46875 202 1.96875 202 2.625L201.953 4.03125C212.234 3.4375 219.766 2.5625 224.547 1.40625C224.859 1.34375 225.062 1.3125 225.156 1.3125C225.625 1.3125 225.984 1.48438 226.234 1.82812C226.516 2.17188 226.656 2.57812 226.656 3.04688C226.656 3.95312 226.156 4.5 225.156 4.6875C220.531 5.5 215.031 6.07812 208.656 6.42188L201.953 6.79688L202 7.73438C202.031 8.01562 202.109 8.23438 202.234 8.39062C202.359 8.54688 202.609 8.65625 202.984 8.71875C204.453 8.9375 207.188 9.04688 211.188 9.04688H213.156C214.75 9.04688 215.953 9.03125 216.766 9C219.203 9 221.016 8.98438 222.203 8.95312C223.516 8.92188 224.5 8.82812 225.156 8.67188C225.844 8.51562 226.297 8.3125 226.516 8.0625C226.766 7.78125 226.891 7.42188 226.891 6.98438C226.891 6.39062 227.062 5.9375 227.406 5.625C227.75 5.3125 228.188 5.15625 228.719 5.15625C229.312 5.15625 229.781 5.34375 230.125 5.71875C230.469 6.0625 230.641 6.51562 230.641 7.07812C230.641 9.20312 229.984 10.5469 228.672 11.1094C227.484 11.6094 224.719 11.8906 220.375 11.9531C215.75 12.0156 212.25 12.0469 209.875 12.0469C206.594 12.0469 203.781 11.8906 201.438 11.5781ZM226.047 13.9688C227.359 13.9688 228.297 14.3125 228.859 15C229.453 15.6562 229.719 16.7031 229.656 18.1406V27.7969C229.656 29.3281 229.375 30.4375 228.812 31.125C228.25 31.7812 227.328 32.0781 226.047 32.0156H206.078C204.797 32.0156 203.859 31.6875 203.266 31.0312C202.703 30.3438 202.453 29.2656 202.516 27.7969V18.1406C202.516 16.6406 202.797 15.5469 203.359 14.8594C203.922 14.1719 204.828 13.875 206.078 13.9688H226.047ZM198.766 36.8906C197.516 36.8906 196.594 36.5781 196 35.9531C195.438 35.2969 195.203 34.2969 195.297 32.9531V17.6719C195.297 16.1406 195.938 15.375 197.219 15.375C197.844 15.375 198.312 15.5625 198.625 15.9375C198.938 16.3125 199.094 16.8906 199.094 17.6719V31.9219C199.094 33.0156 199.609 33.5938 200.641 33.6562H232.844C233.844 33.6562 234.344 34.1875 234.344 35.25C234.344 36.3438 233.844 36.8906 232.844 36.8906H198.766ZM226 18.1406C226 17.2656 225.609 16.8125 224.828 16.7812H207.297C206.516 16.7812 206.125 17.2344 206.125 18.1406V19.0312H226V18.1406ZM226 24.0938V21.6094H206.125V24.0938H226ZM226 26.625H206.125V27.7969C206.125 28.6719 206.516 29.1562 207.297 29.25H224.828C225.609 29.25 226 28.7656 226 27.7969V26.625ZM207.391 37.2656C207.484 37.2344 207.625 37.2188 207.812 37.2188C208.219 37.2188 208.578 37.4062 208.891 37.7812C209.203 38.1562 209.344 38.5938 209.312 39.0938C209.281 39.8125 208.266 40.5469 206.266 41.2969C204.297 42.0469 201.469 42.6719 197.781 43.1719L194.594 43.5938C194 43.6562 193.531 43.5156 193.188 43.1719C192.844 42.8594 192.672 42.375 192.672 41.7188C192.672 41.2812 192.828 40.9219 193.141 40.6406C193.484 40.3594 193.953 40.1875 194.547 40.125C197.047 39.8438 199.328 39.4688 201.391 39C203.484 38.5312 205.062 38.0938 206.125 37.6875L207.391 37.2656ZM232.844 39.8438C233.906 39.9688 234.438 40.4688 234.438 41.3438C234.438 42.7188 233.828 43.4062 232.609 43.4062C231.359 43.4062 228.609 42.9219 224.359 41.9531C220.828 41.1719 218.766 40.5312 218.172 40.0312C217.828 39.75 217.656 39.375 217.656 38.9062C217.656 38.375 217.844 37.9688 218.219 37.6875C218.594 37.375 219.016 37.2656 219.484 37.3594L220.141 37.5C223.422 38.4375 227.656 39.2188 232.844 39.8438ZM259.797 24.0469C257.297 29.8594 255.156 34.2656 253.375 37.2656C261.156 36.9844 267.828 36.5312 273.391 35.9062L270.906 32.8594C270.688 32.5469 270.453 32.2656 270.203 32.0156C269.984 31.7344 269.625 31.2969 269.125 30.7031C268.656 30.0781 268.312 29.625 268.094 29.3438C267.906 29.0312 267.812 28.7969 267.812 28.6406C267.812 27.4844 268.438 26.9062 269.688 26.9062C270.375 26.9062 272.609 28.9375 276.391 33C280.109 37 281.969 39.6406 281.969 40.9219C281.969 42.2656 281.25 42.9375 279.812 42.9375C279.062 42.9375 278.25 42.3125 277.375 41.0625C276.312 39.5625 275.75 38.8125 275.688 38.8125C271.375 39.5312 265.422 40.2188 257.828 40.875C254.828 41.125 250.328 41.4688 244.328 41.9062C242.797 42 242.031 41.3125 242.031 39.8438C242.031 39.0938 242.391 38.5469 243.109 38.2031C243.828 37.8281 244.922 37.6094 246.391 37.5469L249.531 37.4531C251.688 33.3281 253.656 28.8594 255.438 24.0469H243.859C242.297 24.0469 241.516 23.4375 241.516 22.2188C241.516 21.0312 242.297 20.4375 243.859 20.4375H259.75V11.9531H246.953C245.422 11.9531 244.656 11.3438 244.656 10.125C244.656 8.9375 245.422 8.34375 246.953 8.34375H259.75V2.90625C259.75 1.28125 260.406 0.46875 261.719 0.46875C263.031 0.46875 263.688 1.28125 263.688 2.90625V8.34375H277.094C277.875 8.34375 278.438 8.48438 278.781 8.76562C279.156 9.04688 279.344 9.5 279.344 10.125C279.344 10.75 279.156 11.2188 278.781 11.5312C278.438 11.8125 277.875 11.9531 277.094 11.9531H263.688V20.4375H280.234C281.016 20.4375 281.578 20.5781 281.922 20.8594C282.297 21.1406 282.484 21.5938 282.484 22.2188C282.484 22.8438 282.297 23.3125 281.922 23.625C281.578 23.9062 281.016 24.0469 280.234 24.0469H259.797ZM295.469 43.5938C294.25 43.5938 293.641 42.9062 293.641 41.5312V19.9688L292.703 21.75C291.547 23.9375 290.656 25.0312 290.031 25.0312C289.062 25.0312 288.578 24.375 288.578 23.0625C288.578 22.5625 289.188 21.3125 290.406 19.3125C291.312 17.8438 292.547 15.0781 294.109 11.0156C295.266 7.92188 296.094 5.32812 296.594 3.23438C296.969 1.60938 297.703 0.796875 298.797 0.796875C300.047 0.796875 300.672 1.32812 300.672 2.39062C300.672 3.54688 299.547 6.82812 297.297 12.2344V41.5312C297.297 42.9062 296.688 43.5938 295.469 43.5938ZM312.156 43.3594C310.875 43.3594 310.234 42.7188 310.234 41.4375C310.234 40.5938 310.875 39.8906 312.156 39.3281C315.188 38.0156 317.719 36.0625 319.75 33.4688C318 29.8438 316.844 24.5156 316.281 17.4844C315.031 20.0156 314.016 21.2812 313.234 21.2812C312.234 21.2812 311.734 20.6406 311.734 19.3594C311.734 18.9531 311.984 18.3594 312.484 17.5781C314.578 14.3281 316.359 9.40625 317.828 2.8125C318.141 1.46875 318.781 0.796875 319.75 0.796875C321 0.796875 321.625 1.34375 321.625 2.4375C321.625 3.0625 320.906 5.5625 319.469 9.9375H329.641C330.828 9.9375 331.422 10.5625 331.422 11.8125C331.422 13.0625 330.828 13.6875 329.641 13.6875H328.375L328.188 16.6406C327.719 24.0781 326.266 29.7344 323.828 33.6094C325.328 35.4844 327.484 37.3125 330.297 39.0938C331.047 39.5625 331.422 40.2031 331.422 41.0156C331.422 42.4531 330.734 43.1719 329.359 43.1719C328.328 43.1719 326.547 41.875 324.016 39.2812C322.953 38.125 322.172 37.2188 321.672 36.5625C320.234 38.125 318.469 39.6719 316.375 41.2031C314.375 42.6406 312.969 43.3594 312.156 43.3594ZM303.672 38.4375C302.422 38.4375 301.516 38.1719 300.953 37.6406C300.391 37.0781 300.141 36.2031 300.203 35.0156V24.7969C300.203 23.5469 300.469 22.6562 301 22.125C301.531 21.5625 302.391 21.3125 303.578 21.375H305.031V13.2656H301.188C299.875 13.2656 299.219 12.6875 299.219 11.5312C299.219 10.375 299.875 9.79688 301.188 9.79688H305.031V2.71875C305.031 1.46875 305.609 0.84375 306.766 0.84375C307.922 0.84375 308.5 1.46875 308.5 2.71875V9.79688H312.109C313.422 9.79688 314.078 10.375 314.078 11.5312C314.078 12.6875 313.422 13.2656 312.109 13.2656H308.5V21.375H310.141C311.328 21.375 312.188 21.6562 312.719 22.2188C313.281 22.75 313.531 23.6094 313.469 24.7969V35.0156C313.469 36.2344 313.188 37.125 312.625 37.6875C312.094 38.25 311.234 38.5 310.047 38.4375H303.672ZM321.906 30.2344C323.656 27.0469 324.703 21.5312 325.047 13.6875H319.188C319.5 21.125 320.406 26.6406 321.906 30.2344ZM308.641 35.0156C309.547 35.0156 310.031 34.5312 310.094 33.5625V26.25C310.094 25.3438 309.609 24.8594 308.641 24.7969H305.078C304.141 24.7969 303.656 25.2812 303.625 26.25V33.5625C303.625 34.4688 304.109 34.9531 305.078 35.0156H308.641ZM338.5 9.70312C337.219 9.70312 336.578 9.10938 336.578 7.92188C336.578 6.70312 337.219 6.09375 338.5 6.09375H345.953V3.09375C345.953 1.65625 346.594 0.9375 347.875 0.9375C349.188 0.9375 349.844 1.65625 349.844 3.09375V6.09375H357.062C358.406 6.09375 359.078 6.70312 359.078 7.92188C359.078 9.10938 358.406 9.70312 357.062 9.70312H338.5ZM355.422 42.8438C354.234 42.8438 353.641 42.2031 353.641 40.9219C353.641 40.6406 353.797 40.2969 354.109 39.8906C354.453 39.4844 354.984 38.9531 355.703 38.2969C359.609 34.8594 362.078 30.0938 363.109 24C363.578 21.3125 363.906 18.2344 364.094 14.7656H359.875C358.375 14.7656 357.625 14.1406 357.625 12.8906C357.625 11.6094 358.375 10.9688 359.875 10.9688H364.281L364.469 6.70312L364.422 3.09375C364.422 1.6875 365.062 0.984375 366.344 0.984375C367.562 0.984375 368.172 1.65625 368.172 3L367.891 10.9688H376.328C377.859 10.9688 378.625 11.6094 378.625 12.8906C378.625 14.1406 377.859 14.7656 376.328 14.7656H367.703C367.234 21.0469 366.328 26.2656 364.984 30.4219C363.672 34.4531 361.672 37.8125 358.984 40.5C357.422 42.0625 356.234 42.8438 355.422 42.8438ZM374.688 9.46875C374.188 9.46875 373.297 8.5625 372.016 6.75L371.312 5.76562C370.844 5.14062 370.609 4.6875 370.609 4.40625C370.609 3.46875 371.188 3 372.344 3C373.094 3 374.016 3.73438 375.109 5.20312C376.109 6.54688 376.609 7.4375 376.609 7.875C376.609 8.9375 375.969 9.46875 374.688 9.46875ZM343.703 43.0781C342.234 43.0781 341.5 42.4531 341.5 41.2031C341.5 39.9531 342.078 39.3281 343.234 39.3281H344.734C345.766 39.3281 346.297 38.625 346.328 37.2188V25.5938H342.25C340.938 25.5938 339.969 25.2969 339.344 24.7031C338.75 24.1094 338.469 23.1719 338.5 21.8906V16.7344C338.5 15.4219 338.797 14.4688 339.391 13.875C340.016 13.25 340.969 12.9531 342.25 12.9844H353.453C354.797 12.9844 355.781 13.2969 356.406 13.9219C357.031 14.5156 357.312 15.4531 357.25 16.7344V21.8906C357.25 23.2031 356.953 24.1719 356.359 24.7969C355.766 25.3906 354.828 25.6562 353.547 25.5938H349.984V38.7656C349.984 40.2969 349.641 41.4219 348.953 42.1406C348.266 42.8594 347.188 43.1719 345.719 43.0781H343.703ZM352.188 22.3594C353.125 22.3594 353.609 21.8906 353.641 20.9531V17.625C353.641 16.75 353.156 16.2812 352.188 16.2188H343.609C342.734 16.2188 342.266 16.6875 342.203 17.625V20.9531C342.203 21.8281 342.672 22.2969 343.609 22.3594H352.188ZM372.438 42.2812C370.344 42.2812 368.922 42.0938 368.172 41.7188C367.422 41.3125 367.047 40.5156 367.047 39.3281V21.7969C367.047 20.4531 367.641 19.7812 368.828 19.7812C370.047 19.7812 370.656 20.4531 370.656 21.7969V37.2188C370.656 38.1875 371.188 38.6719 372.25 38.6719C373.719 38.6719 374.672 38.5625 375.109 38.3438C375.516 38.125 375.734 37.0938 375.766 35.25C375.797 34.3125 375.953 33.625 376.234 33.1875C376.547 32.7188 377 32.4844 377.594 32.4844C378.812 32.4844 379.422 33.0938 379.422 34.3125C379.422 38 378.953 40.25 378.016 41.0625C377.047 41.875 375.188 42.2812 372.438 42.2812ZM338.359 38.7656C337.172 38.7656 336.578 38.125 336.578 36.8438C336.578 36.4375 336.891 35.75 337.516 34.7812C338.203 33.75 339.031 31.9688 340 29.4375C340.625 27.875 341.281 27.0938 341.969 27.0938C343.062 27.0938 343.609 27.6406 343.609 28.7344C343.609 29.9219 342.734 32.2812 340.984 35.8125C340.016 37.7812 339.141 38.7656 338.359 38.7656ZM356.453 34.9688C355.734 34.9688 355.094 34.4062 354.531 33.2812C353.969 32.0938 353.375 31 352.75 30C352.469 29.5625 352.328 29.1875 352.328 28.875C352.328 27.8438 352.875 27.3281 353.969 27.3281C354.688 27.3281 355.578 28.1719 356.641 29.8594C357.141 30.6406 357.516 31.3125 357.766 31.875C358.047 32.4375 358.188 32.8281 358.188 33.0469C358.188 34.3281 357.609 34.9688 356.453 34.9688ZM406.047 15.9844C405.359 15.9844 404.547 15.125 403.609 13.4062L387.109 14.7656C386.328 14.8281 385.719 14.6875 385.281 14.3438C384.875 14 384.672 13.5 384.672 12.8438C384.672 11.5625 385.984 10.9219 388.609 10.9219H389.359L391.422 4.54688C391.703 3.67188 391.953 2.9375 392.172 2.34375C392.391 1.71875 392.594 1.32812 392.781 1.17188C393.156 0.890625 393.656 0.75 394.281 0.75C395.656 0.75 396.344 1.32812 396.344 2.48438C396.344 3.73438 395.156 6.51562 392.781 10.8281L401.781 10.4062L400.281 8.29688C399.625 7.35938 399.297 6.78125 399.297 6.5625C399.297 5.53125 399.906 5.01562 401.125 5.01562C401.875 5.01562 403.188 6.32812 405.062 8.95312C406.938 11.6094 407.875 13.3594 407.875 14.2031C407.875 15.3906 407.266 15.9844 406.047 15.9844ZM416.922 20.6719C413.109 20.6719 410.828 20.3906 410.078 19.8281C409.234 19.2344 408.812 18.3125 408.812 17.0625V3.375C408.812 1.875 409.422 1.125 410.641 1.125C411.828 1.125 412.422 1.875 412.422 3.375V8.29688L415.984 7.03125L421.516 4.78125C422.109 4.53125 422.594 4.40625 422.969 4.40625C424.219 4.40625 424.844 5.01562 424.844 6.23438C424.844 6.95312 424.469 7.51562 423.719 7.92188C423 8.29688 421.641 8.78125 419.641 9.375C417.172 10.0625 414.766 10.7031 412.422 11.2969V15.375C412.422 16.4688 413.141 17.0625 414.578 17.1562L415.75 17.25L417.672 17.2969C418.984 17.3281 420.312 17.2344 421.656 17.0156C422.656 16.8281 423.234 16.1094 423.391 14.8594C423.547 13.7344 424.172 13.1719 425.266 13.1719C426.641 13.1719 427.328 13.7656 427.328 14.9531C427.328 17.6094 426.375 19.3281 424.469 20.1094C423.594 20.4844 421.078 20.6719 416.922 20.6719ZM389.547 43.5469C388.328 43.5469 387.719 42.9219 387.719 41.6719V20.4375C387.719 19.0938 388 18.125 388.562 17.5312C389.156 16.9062 390.109 16.625 391.422 16.6875H401.406C402.75 16.6875 403.719 16.9844 404.312 17.5781C404.938 18.1719 405.203 19.125 405.109 20.4375V39C405.109 40.5938 404.75 41.75 404.031 42.4688C403.312 43.2188 402.188 43.5312 400.656 43.4062H398.641C397.297 43.4062 396.625 42.8125 396.625 41.625C396.625 40.375 397.297 39.75 398.641 39.75H399.859C400.922 39.75 401.484 39.1875 401.547 38.0625V33.75H391.281V41.6719C391.281 42.9219 390.703 43.5469 389.547 43.5469ZM401.547 21.5625C401.547 20.5625 401.062 20.0625 400.094 20.0625H392.734C391.766 20.0625 391.281 20.5625 391.281 21.5625V23.6719H401.547V21.5625ZM416.922 42.375C413.172 42.375 410.891 42.0938 410.078 41.5312C409.234 40.9375 408.812 40 408.812 38.7188V24.1406C408.812 23.3906 408.953 22.8438 409.234 22.5C409.547 22.125 410.016 21.9375 410.641 21.9375C411.828 21.9375 412.422 22.6719 412.422 24.1406V29.0156C414.391 28.3906 416.328 27.6875 418.234 26.9062C420.172 26.0938 421.281 25.625 421.562 25.5C422.156 25.25 422.641 25.125 423.016 25.125C424.328 25.125 424.984 25.7812 424.984 27.0938C424.984 27.7812 424.641 28.3125 423.953 28.6875C423.422 28.9375 421.953 29.4531 419.547 30.2344C417.891 30.7656 415.516 31.3906 412.422 32.1094V37.0781C412.422 37.6094 412.609 38.0156 412.984 38.2969C413.359 38.5781 413.891 38.7344 414.578 38.7656L415.75 38.8594L417.672 38.9062C419.172 38.9375 420.5 38.8594 421.656 38.6719C422.656 38.4844 423.234 37.7812 423.391 36.5625C423.547 35.4375 424.172 34.875 425.266 34.875C426.641 34.875 427.328 35.4688 427.328 36.6562C427.328 39.3438 426.375 41.0469 424.469 41.7656C423.406 42.1719 420.891 42.375 416.922 42.375ZM401.547 30.4688V26.9531H391.281V30.4688H401.547ZM435.484 12.2812C434.234 12.2812 433.609 11.6562 433.609 10.4062V7.875C433.609 5.15625 434.953 3.875 437.641 4.03125H451.562V2.67188C451.562 1.42188 452.266 0.796875 453.672 0.796875C455.078 0.796875 455.781 1.42188 455.781 2.67188V4.03125H470.312C471.625 4.03125 472.609 4.34375 473.266 4.96875C473.922 5.5625 474.266 6.5 474.297 7.78125V10.4062C474.297 11.6562 473.688 12.2812 472.469 12.2812C471.281 12.2812 470.688 11.7188 470.688 10.5938V8.4375C470.688 7.5625 470.219 7.09375 469.281 7.03125H438.719C437.844 7.03125 437.375 7.5 437.312 8.4375V10.4062C437.312 11.6562 436.703 12.2812 435.484 12.2812ZM441.719 20.2969C440.531 20.2969 439.609 20.0625 438.953 19.5938C438.328 19.0938 438.078 18.3906 438.203 17.4844L438.438 15.7031H434.359C433.453 15.7031 433 15.2969 433 14.4844C433 13.7031 433.453 13.3125 434.359 13.3125H438.859C439.047 11.4062 439.438 10.1719 440.031 9.60938C440.594 9.04688 441.469 8.78125 442.656 8.8125H465.578C466.703 8.8125 467.578 9.0625 468.203 9.5625C468.828 10.0625 469.141 10.7969 469.141 11.7656C469.141 12.1719 469.109 12.6875 469.047 13.3125H473.641C474.578 13.3125 475.047 13.7031 475.047 14.4844C475.047 15.2969 474.578 15.7031 473.641 15.7031H468.953C468.766 17.8281 468.375 19.125 467.781 19.5938C467.094 20.0938 466.234 20.3281 465.203 20.2969H441.719ZM452.312 11.2031H443.781C443.219 11.2031 442.891 11.4531 442.797 11.9531L442.562 13.3125H452.078L452.312 11.2031ZM465.25 13.3125C465.312 12.75 465.344 12.3438 465.344 12.0938C465.344 11.5 464.953 11.2031 464.172 11.2031H455.734L455.547 13.3125H465.25ZM451.75 15.7031H442.141C442.078 16.2031 442.047 16.5938 442.047 16.875C442.047 17.5625 442.438 17.9062 443.219 17.9062H451.469L451.75 15.7031ZM463.891 17.9062C464.234 17.9062 464.484 17.8594 464.641 17.7656C464.797 17.6406 464.906 17.4531 464.969 17.2031L465.156 15.7031H455.266L454.984 17.9062H463.891ZM441.438 38.25C440.125 38.25 439.172 37.9688 438.578 37.4062C437.984 36.8438 437.719 35.9219 437.781 34.6406V25.5C437.781 24.2188 438.062 23.2969 438.625 22.7344C439.188 22.1406 440.109 21.875 441.391 21.9375H466.516C467.828 21.9375 468.781 22.2188 469.375 22.7812C469.969 23.3438 470.234 24.25 470.172 25.5V34.6406C470.172 35.9531 469.875 36.9062 469.281 37.5C468.719 38.0625 467.797 38.3125 466.516 38.25H441.438ZM466.328 25.9688C466.328 25.5312 466.219 25.2188 466 25.0312C465.812 24.8125 465.5 24.6875 465.062 24.6562H442.891C442.047 24.6562 441.609 25.0938 441.578 25.9688V26.5781H466.328V25.9688ZM466.328 30.9844V28.9688H441.578V30.9844H466.328ZM465.062 35.5312C465.906 35.5312 466.328 35.0781 466.328 34.1719V33.3281H441.578V34.1719C441.578 35.0156 442.016 35.4688 442.891 35.5312H465.062ZM471.297 43.4062C468.484 43.1562 465.422 42.6562 462.109 41.9062L460.938 41.625C459.906 41.4062 459.25 41.2344 458.969 41.1094C458.469 40.8594 458.219 40.4375 458.219 39.8438C458.219 39.4375 458.391 39.0938 458.734 38.8125C459.078 38.5312 459.547 38.4375 460.141 38.5312C460.672 38.625 461.5 38.7969 462.625 39.0469C464.938 39.4844 466.172 39.7188 466.328 39.75C468.297 40.0938 470.484 40.2969 472.891 40.3594C474.453 40.4219 475.234 40.9219 475.234 41.8594C475.234 43.0156 474.609 43.5938 473.359 43.5938L471.297 43.4062ZM434.641 43.5938C433.391 43.5938 432.766 42.9844 432.766 41.7656C432.766 41.3594 433 41.0156 433.469 40.7344C433.969 40.4844 434.672 40.3438 435.578 40.3125C437.266 40.2812 439.047 40.1562 440.922 39.9375C442.641 39.75 444.281 39.4844 445.844 39.1406C446.812 38.9219 447.562 38.8125 448.094 38.8125C449.281 38.8125 449.875 39.3281 449.875 40.3594C449.875 41.2344 448.719 41.8594 446.406 42.2344C443.562 42.7031 441.234 43.0469 439.422 43.2656C437.609 43.4844 436.016 43.5938 434.641 43.5938ZM521.547 34.0781C522.766 34.0781 523.375 34.6875 523.375 35.9062C523.375 38.1875 523.062 39.8281 522.438 40.8281C521.719 41.9844 519.859 42.5625 516.859 42.5625C514.453 42.5625 512.781 42.375 511.844 42C510.906 41.625 510.438 40.6094 510.438 38.9531V28.6406H506.922C506.641 33.2344 505.391 36.6094 503.172 38.7656C501.141 40.7344 498.156 42.2031 494.219 43.1719L493.047 43.3125C492.359 43.4062 491.844 43.2812 491.5 42.9375C491.188 42.5938 491.031 42.0938 491.031 41.4375C491.031 40.9062 491.188 40.4844 491.5 40.1719C491.812 39.8906 492.328 39.6719 493.047 39.5156C496.203 38.8281 498.688 37.6875 500.5 36.0938C502.156 34.5938 503.047 32.1094 503.172 28.6406C501.422 28.7656 500.156 28.4688 499.375 27.75C498.594 27.0312 498.266 25.875 498.391 24.2812V6.9375C498.141 3.8125 499.594 2.34375 502.75 2.53125H516.109C517.703 2.53125 518.859 2.89062 519.578 3.60938C520.297 4.29688 520.594 5.40625 520.469 6.9375V24.2812C520.688 27.4375 519.234 28.8906 516.109 28.6406H514.281V37.4531C514.281 38.4219 514.938 38.9062 516.25 38.9062C517.562 38.9062 518.438 38.7969 518.875 38.5781C519.281 38.3594 519.547 37.6094 519.672 36.3281C519.828 34.8281 520.453 34.0781 521.547 34.0781ZM497.453 32.1094C497.453 32.8906 497.016 33.4531 496.141 33.7969C495.016 34.2344 492.672 35.0312 489.109 36.1875C485.359 37.4062 483.141 38.0156 482.453 38.0156C481.203 38.0156 480.578 37.3125 480.578 35.9062C480.578 34.7812 481.766 33.9688 484.141 33.4688L487.469 32.625V20.3906H483.531C482.188 20.3906 481.516 19.8125 481.516 18.6562C481.516 17.4688 482.188 16.875 483.531 16.875H487.469V7.03125H483.062C481.594 7.03125 480.859 6.45312 480.859 5.29688C480.859 4.67188 481.031 4.21875 481.375 3.9375C481.75 3.625 482.312 3.46875 483.062 3.46875H495.016C496.484 3.46875 497.219 4.07812 497.219 5.29688C497.219 6.45312 496.484 7.03125 495.016 7.03125H491.219V16.875H494.594C495.906 16.875 496.562 17.4688 496.562 18.6562C496.562 19.8125 495.906 20.3906 494.594 20.3906H491.219V31.5469L494.641 30.4688L495.859 30.2344C496.359 30.1406 496.75 30.2812 497.031 30.6562C497.312 31 497.453 31.4844 497.453 32.1094ZM503.922 5.90625C502.703 5.90625 502.109 6.51562 502.141 7.73438V10.125H516.766V7.73438C516.766 6.45312 516.156 5.84375 514.938 5.90625H503.922ZM516.766 17.7656V13.4062H502.141V17.7656H516.766ZM514.938 25.4062C516.156 25.4062 516.766 24.7969 516.766 23.5781V21.0469H502.141V23.5781C502.141 24.8281 502.734 25.4375 503.922 25.4062H514.938ZM535.281 43.2188C533.781 43.2188 533.031 42.5625 533.031 41.25C533.031 39.9062 533.781 39.2344 535.281 39.2344H537.484C538.609 39.2344 539.203 38.6406 539.266 37.4531V29.1562C536.984 29.7812 534.156 30.4219 530.781 31.0781C530.656 31.1094 530.484 31.125 530.266 31.125C529.734 31.125 529.328 30.9531 529.047 30.6094C528.766 30.2344 528.625 29.75 528.625 29.1562C528.625 28.5938 528.812 28.1406 529.188 27.7969C529.562 27.4531 530.172 27.2031 531.016 27.0469C534.391 26.4219 537.141 25.8906 539.266 25.4531V17.4375H531.016C529.516 17.4375 528.766 16.8125 528.766 15.5625C528.766 14.3438 529.516 13.7344 531.016 13.7344H539.266V7.21875C538.766 7.28125 537.891 7.40625 536.641 7.59375C534.797 7.84375 533.328 8.01562 532.234 8.10938C530.891 8.20312 530.219 7.57812 530.219 6.23438C530.219 5.57812 530.469 5.10938 530.969 4.82812C531.344 4.57812 532.344 4.39062 533.969 4.26562C539.188 3.89062 543.234 3.15625 546.109 2.0625C546.922 1.75 547.516 1.59375 547.891 1.59375C549.172 1.59375 549.812 2.23438 549.812 3.51562C549.812 3.82812 549.734 4.09375 549.578 4.3125C549.422 4.53125 549.172 4.75 548.828 4.96875C548.484 5.1875 547.891 5.40625 547.047 5.625C546.234 5.84375 544.906 6.14062 543.062 6.51562V13.7344H553.234C552.953 9.32812 552.812 5.8125 552.812 3.1875C552.812 1.625 553.453 0.84375 554.734 0.84375C555.422 0.84375 555.922 1.04688 556.234 1.45312C556.578 1.85938 556.75 2.48438 556.75 3.32812C556.75 6.32812 556.844 9.79688 557.031 13.7344H568.609C570.141 13.7344 570.906 14.3594 570.906 15.6094C570.906 16.8281 570.141 17.4375 568.609 17.4375H557.359C557.703 20.9375 558.359 24.2031 559.328 27.2344C560.672 25.7344 561.828 24.25 562.797 22.7812C563.797 21.2812 564.656 20.5312 565.375 20.5312C566.062 20.5312 566.562 20.6562 566.875 20.9062C567.188 21.1562 567.344 21.5469 567.344 22.0781C567.344 23.3281 565.172 26.3125 560.828 31.0312C561.891 33.4375 562.844 35.2344 563.688 36.4219C564.562 37.5781 565.359 38.1562 566.078 38.1562C566.766 38.1562 567.328 36.7344 567.766 33.8906C567.859 33.2969 568.047 32.875 568.328 32.625C568.609 32.3438 569 32.2031 569.5 32.2031C570.719 32.2031 571.328 32.8594 571.328 34.1719C571.328 36.2969 570.859 38.3125 569.922 40.2188C569.016 42.0938 567.891 43.0312 566.547 43.0312C565.891 43.0312 565.188 42.8125 564.438 42.375C563.688 41.9688 562.938 41.3438 562.188 40.5C560.625 38.75 559.188 36.5625 557.875 33.9375C556.906 34.9062 556.016 35.7188 555.203 36.375C554.422 37.0312 553.359 37.8125 552.016 38.7188C550.734 39.5938 549.75 40.2188 549.062 40.5938C548.406 41 547.922 41.2031 547.609 41.2031C546.391 41.2031 545.781 40.5469 545.781 39.2344C545.781 38.4219 546.453 37.6562 547.797 36.9375C550.234 35.6562 553.094 33.4531 556.375 30.3281C555 26.6094 554.047 22.3125 553.516 17.4375H543.062V24.5625C543.5 24.4375 544.531 24.1562 546.156 23.7188C546.469 23.625 546.797 23.5312 547.141 23.4375C547.516 23.3125 547.906 23.2031 548.312 23.1094C548.562 23.0469 548.734 23.0156 548.828 23.0156C549.234 23.0156 549.562 23.1719 549.812 23.4844C550.062 23.7969 550.188 24.25 550.188 24.8438C550.188 25.75 549.469 26.3906 548.031 26.7656L543.062 28.125V38.6719C543.062 40.2969 542.656 41.4844 541.844 42.2344C541.062 42.9844 539.812 43.3125 538.094 43.2188H535.281ZM565.609 11.25C565.328 11.25 564.953 11.0312 564.484 10.5938C564.016 10.1562 563.406 9.46875 562.656 8.53125C561.781 7.4375 561.172 6.64062 560.828 6.14062C560.516 5.64062 560.359 5.21875 560.359 4.875C560.359 4.46875 560.516 4.125 560.828 3.84375C561.172 3.5625 561.547 3.42188 561.953 3.42188C562.766 3.42188 563.906 4.25 565.375 5.90625C566.875 7.59375 567.625 8.73438 567.625 9.32812C567.625 10.6094 566.953 11.25 565.609 11.25ZM606.625 43.3125C605.75 43.2812 605.125 43.1094 604.75 42.7969C604.375 42.4844 604.188 42 604.188 41.3438C604.188 40.0625 604.906 39.4219 606.344 39.4219C608.281 39.4219 609.641 39.375 610.422 39.2812C611.203 39.2188 611.797 39.0469 612.203 38.7656C612.609 38.4844 612.938 37.9844 613.188 37.2656C613.625 35.9844 613.969 32.8594 614.219 27.8906C614.469 22.9219 614.594 18.2031 614.594 13.7344C614.594 12.5469 613.906 11.9531 612.531 11.9531H602.078C601.547 13.6094 600.594 15.5156 599.219 17.6719C598.781 18.3906 598.234 18.75 597.578 18.75C597.234 18.75 596.906 18.6562 596.594 18.4688C595.969 18.125 595.656 17.6406 595.656 17.0156C595.656 16.6094 595.781 16.1875 596.031 15.75C597.344 13.2812 598.312 11.2031 598.938 9.51562C599.719 7.45312 600.453 5.14062 601.141 2.57812C601.297 2.04688 601.531 1.64062 601.844 1.35938C602.188 1.04688 602.594 0.890625 603.062 0.890625C603.188 0.890625 603.406 0.921875 603.719 0.984375C604.656 1.20312 605.125 1.76562 605.125 2.67188C605.125 2.98438 605.078 3.32812 604.984 3.70312C604.766 4.60938 604.5 5.51562 604.188 6.42188C603.875 7.29688 603.578 7.98438 603.297 8.48438H614.547C617.297 8.48438 618.672 9.64062 618.672 11.9531C618.672 17.8281 618.516 23.5 618.203 28.9688C617.891 34.4062 617.359 38.0469 616.609 39.8906C616.047 41.2031 615.188 42.1094 614.031 42.6094C612.875 43.1094 611.125 43.3594 608.781 43.3594C607.844 43.3594 607.125 43.3438 606.625 43.3125ZM581.547 42.5625C580.359 42.5625 579.453 42.25 578.828 41.625C578.234 41.0312 577.938 40.1406 577.938 38.9531V12.2812C577.938 11.0938 578.234 10.1875 578.828 9.5625C579.422 8.9375 580.297 8.625 581.453 8.625H583.844C584.094 7.21875 584.391 5.23438 584.734 2.67188C584.797 2.10938 585 1.6875 585.344 1.40625C585.688 1.125 586.141 0.984375 586.703 0.984375C588.266 0.984375 588.938 1.78125 588.719 3.375C588.469 5.125 588.062 6.875 587.5 8.625H591.062C593.438 8.625 594.625 9.84375 594.625 12.2812L594.672 38.9531C594.672 41.3594 593.469 42.5625 591.062 42.5625H581.547ZM590.828 13.7344C590.828 12.7031 590.312 12.1875 589.281 12.1875H583.328C582.297 12.1875 581.781 12.7031 581.781 13.7344V23.1094H590.828V13.7344ZM606.297 30.9844C605.797 30.9844 605.359 30.8125 604.984 30.4688C604.609 30.0938 604.234 29.5469 603.859 28.8281C603.266 27.7656 602.391 26.3438 601.234 24.5625L600.578 23.5312C600.422 23.3125 600.281 23.0469 600.156 22.7344C600.062 22.4219 600.016 22.1562 600.016 21.9375C600.016 21.4062 600.172 21 600.484 20.7188C600.797 20.4062 601.203 20.25 601.703 20.25C602.203 20.25 602.734 20.5312 603.297 21.0938C603.859 21.6562 604.578 22.5781 605.453 23.8594C607.266 26.5781 608.172 28.375 608.172 29.25C608.172 29.7812 608 30.2031 607.656 30.5156C607.344 30.8281 606.891 30.9844 606.297 30.9844ZM589.281 39C590.312 39 590.828 38.4844 590.828 37.4531V26.5781H581.781V37.4531C581.781 38.4844 582.297 39 583.328 39H589.281ZM638.594 9.46875C637.375 9.46875 636.766 8.95312 636.766 7.92188V6.84375H626.688C625.5 6.84375 624.906 6.3125 624.906 5.25C624.906 4.1875 625.5 3.65625 626.688 3.65625H636.766V2.48438C636.766 1.32812 637.375 0.75 638.594 0.75C639.781 0.75 640.375 1.32812 640.375 2.48438V3.65625H651.297V2.48438C651.297 1.32812 651.906 0.75 653.125 0.75C654.312 0.75 654.906 1.32812 654.906 2.48438V3.65625H665.312C666.531 3.65625 667.141 4.1875 667.141 5.25C667.141 6.3125 666.531 6.84375 665.312 6.84375H654.906V7.92188C654.906 8.95312 654.297 9.46875 653.078 9.46875C651.891 9.46875 651.297 8.95312 651.297 7.92188V6.84375H640.375V7.92188C640.375 8.95312 639.781 9.46875 638.594 9.46875ZM631.797 19.7812C630.484 19.7812 629.531 19.5 628.938 18.9375C628.344 18.375 628.078 17.4688 628.141 16.2188V13.7812C628.141 12.5 628.422 11.5625 628.984 10.9688C629.578 10.375 630.516 10.125 631.797 10.2188H660.203C661.547 10.2188 662.516 10.5 663.109 11.0625C663.703 11.625 663.953 12.5312 663.859 13.7812V16.2188C663.859 17.5312 663.562 18.4844 662.969 19.0781C662.406 19.6406 661.484 19.875 660.203 19.7812H631.797ZM638.922 12.8906H632.828C631.984 12.8906 631.547 13.3281 631.516 14.2031V15.8438C631.516 16.6562 631.953 17.0938 632.828 17.1562H638.922V12.8906ZM649.562 17.1562V12.8906H642.156V17.1562H649.562ZM659.172 17.1562C660.016 17.1562 660.438 16.7188 660.438 15.8438V14.2031C660.438 13.3594 660.016 12.9219 659.172 12.8906H652.75V17.1562H659.172ZM629.219 43.5469C628.031 43.6406 627.438 43.0625 627.438 41.8125C627.438 40.7188 628.203 40.125 629.734 40.0312C634.391 39.8125 638.734 39.1406 642.766 38.0156L640.234 36.3281C639.203 35.6719 638.453 35.1562 637.984 34.7812C637.547 34.4062 637.328 34.1094 637.328 33.8906C637.328 32.8594 637.969 32.3438 639.25 32.3438C640.219 32.3438 642.734 33.75 646.797 36.5625C648.922 35.5938 650.844 34.5625 652.562 33.4688C654.438 32.2812 655.375 31.5312 655.375 31.2188C655.375 31 655.234 30.8906 654.953 30.8906H638.172C633.984 34.1406 631.203 35.7656 629.828 35.7656C628.672 35.7656 628.094 35.1719 628.094 33.9844C628.094 33.2656 629.172 32.375 631.328 31.3125C634.641 29.6875 637.359 27.6719 639.484 25.2656H630.766C629.641 25.2656 629.094 25.7969 629.125 26.8594V29.1562C629.125 30.4375 628.5 31.0781 627.25 31.0781C626.062 31.0781 625.469 30.4375 625.469 29.1562V26.4375C625.25 23.3125 626.703 21.8438 629.828 22.0312H662.125C663.719 22.0312 664.875 22.3906 665.594 23.1094C666.312 23.7969 666.609 24.9062 666.484 26.4375V28.9688C666.484 30.4375 665.891 31.1719 664.703 31.1719C663.484 31.1719 662.875 30.5469 662.875 29.2969V26.8594C662.875 25.7656 662.344 25.2344 661.281 25.2656H644.031L641.688 27.7969H658.047C660.016 27.7969 661 28.3906 661 29.5781C661 31.0156 658.688 33.25 654.062 36.2812C649.438 39.3125 643.734 41.4062 636.953 42.5625L630.391 43.4531L629.219 43.5469ZM59.1719 113.125C64.5156 117.75 67.1875 120.703 67.1875 121.984C67.1875 122.734 67 123.266 66.625 123.578C66.25 123.922 65.6719 124.094 64.8906 124.094C64.1719 124.094 63.25 123.359 62.125 121.891C60.6875 120.078 58.9531 118.25 56.9219 116.406C55.0781 118.688 52.3594 120.672 48.7656 122.359C45.4531 123.922 42.5938 124.703 40.1875 124.703C39 124.703 38.4062 124.047 38.4062 122.734C38.4062 121.672 39.4062 120.953 41.4062 120.578C45.625 119.734 49.1406 118.172 51.9531 115.891C54.6406 113.703 56.4688 110.719 57.4375 106.938C58.4375 103.031 58.9375 97.4844 58.9375 90.2969C58.9375 89.6406 58.9219 89.1562 58.8906 88.8438L58.8438 87.4375C58.8438 85.875 59.5 85.0938 60.8125 85.0938C61.5312 85.0938 62.0469 85.375 62.3594 85.9375C62.7031 86.4688 62.875 87.3125 62.875 88.4688C62.875 100.5 61.6406 108.719 59.1719 113.125ZM51.1562 105.578C51.1562 106.266 50.2188 107.406 48.3438 109C46.4688 110.562 43.7344 112.453 40.1406 114.672C36.3281 117.016 33.3125 118.766 31.0938 119.922C28.9062 121.078 27.4531 121.656 26.7344 121.656C25.4531 121.656 24.8125 120.969 24.8125 119.594C24.8125 119.156 25.0469 118.719 25.5156 118.281C26.0156 117.812 26.7188 117.375 27.625 116.969L29.6406 115.984L29.4062 102.297L29.125 88.0469C29.0938 87.1406 29.2344 86.4844 29.5469 86.0781C29.8906 85.6406 30.4062 85.4219 31.0938 85.4219C31.7812 85.4219 32.2812 85.6406 32.5938 86.0781C32.9375 86.4844 33.125 87.1406 33.1562 88.0469C33.2812 93.9844 33.3594 98.4375 33.3906 101.406L33.6719 113.828C38.6094 111.047 42.7031 108.422 45.9531 105.953C47.8594 104.547 49 103.844 49.375 103.844C50 103.844 50.4531 103.984 50.7344 104.266C51.0156 104.547 51.1562 104.984 51.1562 105.578ZM44.2656 91.2344C44.0156 91.0469 43.5156 90.6719 42.7656 90.1094C42.0469 89.5469 41.5312 89.0938 41.2188 88.75C40.9062 88.375 40.75 88.0469 40.75 87.7656C40.75 86.4844 41.4219 85.8438 42.7656 85.8438C43.1719 85.8438 43.7812 86.0625 44.5938 86.5C45.4062 86.9062 46.375 87.5469 47.5 88.4219C48.9688 89.5156 50.0781 90.4844 50.8281 91.3281C51.5781 92.1719 51.9844 92.8281 52.0469 93.2969C52.1094 93.9531 51.9844 94.4688 51.6719 94.8438C51.3906 95.1875 50.9531 95.3594 50.3594 95.3594C49.5781 95.3594 48.6719 94.9062 47.6406 94C46.5156 93.0312 45.3906 92.1094 44.2656 91.2344ZM104.688 125.547C102.812 125.547 101.875 124.844 101.875 123.438C101.875 122.094 102.828 121.422 104.734 121.422C106.578 121.422 107.812 121.25 108.438 120.906C109.5 120.344 110.141 118.406 110.359 115.094C110.453 113.812 110.5 112.547 110.5 111.297C110.5 110.141 109.906 109.562 108.719 109.562H81.3906L80.5469 110.453C79.8594 111.266 79.3281 111.875 78.9531 112.281C77.7344 113.562 76.7812 114.484 76.0938 115.047C75.4062 115.578 74.875 115.844 74.5 115.844C73.2188 115.844 72.5781 115.156 72.5781 113.781C72.5781 113.156 73.0156 112.453 73.8906 111.672C79.6094 106.797 84.2031 100.266 87.6719 92.0781H76.5156C75.0781 92.0781 74.3594 91.5 74.3594 90.3438C74.3594 89.1875 75.0781 88.6094 76.5156 88.6094H89.0312L90.1562 84.9062C90.5938 83.5 91.3281 82.7969 92.3594 82.7969C93.0469 82.7969 93.5625 82.9375 93.9062 83.2188C94.25 83.5 94.4219 83.9531 94.4219 84.5781C94.4219 85.2031 94.0156 86.5469 93.2031 88.6094H103.094C105.625 88.6094 106.891 89.6562 106.891 91.75C106.891 92.9375 106.828 94.4688 106.703 96.3438L106.656 97.375C108 97.375 109 97.6562 109.656 98.2188C110.344 98.75 110.688 99.5781 110.688 100.703C110.688 101.766 110.609 103.547 110.453 106.047C113.141 106.047 114.484 107.359 114.484 109.984C114.484 115.922 114.125 119.812 113.406 121.656C112.375 124.25 109.469 125.547 104.688 125.547ZM82.375 88.375C81.625 88.375 80.8438 87.7344 80.0312 86.4531C79.75 86.0156 79.5 85.625 79.2812 85.2812C79.0938 84.9062 79 84.6406 79 84.4844C79 83.4531 79.625 82.9375 80.875 82.9375C81.5625 82.9375 82.2656 83.3906 82.9844 84.2969C83.9219 85.4219 84.3906 86.2344 84.3906 86.7344C84.3906 87.8281 83.7188 88.375 82.375 88.375ZM103.047 93.7656C103.078 93.2344 102.938 92.8281 102.625 92.5469C102.344 92.2344 101.906 92.0781 101.312 92.0781H91.8438L89.4531 97.375H102.859L103.047 93.7656ZM106.656 106.047C106.719 105.359 106.75 104.656 106.75 103.938L106.891 101.781C106.953 101.188 106.5 100.891 105.531 100.891H87.4844C86.7344 102.234 85.6094 103.953 84.1094 106.047H106.656ZM105.062 119.312C104.344 119.312 103.812 118.906 103.469 118.094L101.406 113.359L101.312 112.844C101.25 112.438 101.344 112.125 101.594 111.906C101.875 111.688 102.281 111.578 102.812 111.578C103.469 111.578 104.062 112.016 104.594 112.891C106.062 115.391 106.797 117.016 106.797 117.766C106.797 118.797 106.219 119.312 105.062 119.312ZM97.6094 120.859C96.6719 120.859 96.0469 120.25 95.7344 119.031L94.1406 114.578C93.9531 114.016 93.8594 113.641 93.8594 113.453C93.8594 112.641 94.375 112.234 95.4062 112.234C96.125 112.234 96.7344 112.688 97.2344 113.594C98.6406 116.219 99.3438 118.125 99.3438 119.312C99.3438 120.344 98.7656 120.859 97.6094 120.859ZM78.0156 123.578C76.6719 123.578 76 122.922 76 121.609C76 121.328 76.4062 120.531 77.2188 119.219C77.9375 118.094 78.5781 116.672 79.1406 114.953C79.3906 114.234 79.7031 113.688 80.0781 113.312C80.4531 112.938 80.8438 112.75 81.25 112.75C82.3438 112.75 82.8906 113.281 82.8906 114.344C82.8906 114.906 82.3594 116.609 81.2969 119.453C80.2656 122.203 79.1719 123.578 78.0156 123.578ZM89.7812 121.891C88.75 121.891 88.0312 121.031 87.625 119.312L86.125 114.484C86.0938 113.828 86.2031 113.375 86.4531 113.125C86.7344 112.875 87.1719 112.75 87.7656 112.75C88.7656 112.75 89.625 113.891 90.3438 116.172C91.1562 118.172 91.5625 119.516 91.5625 120.203C91.5625 121.328 90.9688 121.891 89.7812 121.891ZM123.297 96.7656C122.047 96.7656 121.422 96.125 121.422 94.8438V91.2344C121.203 87.9844 122.656 86.4688 125.781 86.6875H139.562V84.625C139.562 83.4062 140.266 82.7969 141.672 82.7969C143.078 82.7969 143.781 83.4062 143.781 84.625V86.6875H158.172C161.297 86.4688 162.75 87.9844 162.531 91.2344V94.8438C162.531 96.125 161.906 96.7656 160.656 96.7656C159.438 96.7656 158.828 96.125 158.828 94.8438V91.75C158.828 90.4688 158.219 89.8594 157 89.9219H127C125.75 89.9219 125.141 90.5312 125.172 91.75V94.8438C125.172 96.125 124.547 96.7656 123.297 96.7656ZM152.031 125.594C150.719 125.594 150.062 125 150.062 123.812C150.062 122.719 150.828 122.141 152.359 122.078C154.984 122.047 156.484 121.594 156.859 120.719C157.359 119.625 157.609 117.719 157.609 115C157.609 113.812 157.016 113.219 155.828 113.219H129.297C125.703 115.438 123.344 116.547 122.219 116.547C121.125 116.547 120.578 115.953 120.578 114.766C120.578 113.984 121.438 113.266 123.156 112.609C126.75 111.266 129.672 109.516 131.922 107.359H130.094C128.75 107.359 127.781 107.062 127.188 106.469C126.594 105.875 126.328 104.938 126.391 103.656V96.4844C126.391 95.0781 126.859 94.0781 127.797 93.4844C128.109 93.2969 129.375 92.9844 131.594 92.5469C134.094 92.0469 135.75 91.6562 136.562 91.375C137.656 91 138.406 90.8125 138.812 90.8125C139.875 90.8125 140.406 91.3906 140.406 92.5469C140.406 93.0469 140.188 93.4375 139.75 93.7188C139.531 93.875 138.984 94.0625 138.109 94.2812C137.234 94.4688 136.203 94.6875 135.016 94.9375L133.75 95.2188C131.938 95.5625 130.891 95.8125 130.609 95.9688C130.266 96.1875 130.078 96.5625 130.047 97.0938V98.3594H139.094C140.125 98.3594 140.641 98.8281 140.641 99.7656C140.641 100.672 140.125 101.125 139.094 101.125H130.047V103.047C130.047 103.984 130.547 104.484 131.547 104.547H152.312C153.25 104.547 153.75 104.047 153.812 103.047V101.125H143.734C142.703 101.125 142.188 100.656 142.188 99.7188C142.188 98.8125 142.703 98.3594 143.734 98.3594H153.812V96.7656C153.812 96.2969 153.672 95.9375 153.391 95.6875C153.141 95.4375 152.781 95.2969 152.312 95.2656H143.828C142.734 95.2656 142.188 94.7656 142.188 93.7656C142.188 92.7656 142.734 92.2656 143.828 92.2656H153.766C155.109 92.2656 156.094 92.5781 156.719 93.2031C157.344 93.8281 157.625 94.7969 157.562 96.1094V103.656C157.562 104.969 157.25 105.938 156.625 106.562C156.031 107.156 155.078 107.422 153.766 107.359H136.188C135.156 108.516 134.203 109.469 133.328 110.219H157.375C160.094 110.219 161.453 111.328 161.453 113.547C161.453 117.734 161.047 120.781 160.234 122.688C159.391 124.625 156.656 125.594 152.031 125.594ZM153.25 121.141C152.469 121.141 151.875 120.562 151.469 119.406L150.25 116.734C150.062 116.297 149.969 115.969 149.969 115.75C149.969 114.938 150.484 114.531 151.516 114.531C152.266 114.531 153 115.188 153.719 116.5C154.5 117.906 154.891 118.953 154.891 119.641C154.891 120.641 154.344 121.141 153.25 121.141ZM145.562 122.734C144.625 122.734 144.016 122.141 143.734 120.953L142.562 117.391C142.312 116.641 142.188 116.203 142.188 116.078C142.188 115.172 142.734 114.719 143.828 114.719C144.516 114.719 145.094 115.203 145.562 116.172C146.719 118.484 147.297 120.156 147.297 121.188C147.297 122.219 146.719 122.734 145.562 122.734ZM125.828 124.562C124.609 124.562 124 123.969 124 122.781C124 122.438 124.188 121.953 124.562 121.328C125.75 119.453 126.641 117.812 127.234 116.406C127.609 115.5 128.172 115.047 128.922 115.047C130.016 115.047 130.562 115.578 130.562 116.641C130.562 117.859 129.734 119.875 128.078 122.688C127.297 123.938 126.547 124.562 125.828 124.562ZM136.938 123.766C136.156 123.766 135.625 123.406 135.344 122.688L134.312 117.672L134.125 116.547C134.062 116.078 134.188 115.719 134.5 115.469C134.812 115.219 135.266 115.094 135.859 115.094C136.547 115.094 137.062 115.484 137.406 116.266C138.312 118.453 138.766 120.375 138.766 122.031C138.766 123.188 138.156 123.766 136.938 123.766ZM209.219 88.7969C210.656 88.7969 211.375 89.3594 211.375 90.4844C211.375 91.0781 211.203 91.5156 210.859 91.7969C210.516 92.0781 209.969 92.2188 209.219 92.2188H191.031L190.891 92.5469L189.578 96.25H202.188C205.156 96.25 206.578 97.7188 206.453 100.656V119.594C206.453 121.188 206.109 122.344 205.422 123.062C204.734 123.781 203.625 124.094 202.094 124H177.953C176.391 124 175.25 123.656 174.531 122.969C173.812 122.281 173.484 121.156 173.547 119.594V100.656C173.547 99.1562 173.891 98.0469 174.578 97.3281C175.297 96.6094 176.391 96.25 177.859 96.25H185.641L186.625 92.2188H170.781C170.062 92.2188 169.531 92.0781 169.188 91.7969C168.844 91.5156 168.672 91.0781 168.672 90.4844C168.672 89.8906 168.844 89.4688 169.188 89.2188C169.531 88.9375 170.062 88.7969 170.781 88.7969H180.391L179.219 86.3125C179.156 86.1562 179.016 85.8594 178.797 85.4219C178.578 84.9844 178.469 84.6406 178.469 84.3906C178.469 83.4531 179.109 82.9844 180.391 82.9844C181.266 82.9844 182.078 83.7656 182.828 85.3281L184.375 88.4688L184.562 88.7969H194.781L196.281 84.7188C196.719 83.4688 197.484 82.8438 198.578 82.8438C199.859 82.8438 200.5 83.375 200.5 84.4375C200.5 85.0625 199.891 86.5156 198.672 88.7969H209.219ZM179.406 99.625C178.062 99.625 177.391 100.297 177.391 101.641V104.078H202.609V101.641C202.609 100.297 201.953 99.625 200.641 99.625H179.406ZM202.609 112.141V107.453H177.391V112.141H202.609ZM202.609 115.516H177.391V118.609C177.391 119.953 178.062 120.625 179.406 120.625H200.641C201.953 120.625 202.609 119.953 202.609 118.609V115.516ZM218.359 124.562C217.141 124.562 216.531 123.875 216.531 122.5C216.531 121.844 217.188 121.109 218.5 120.297C221.219 118.672 223.328 116.797 224.828 114.672L220.609 111.484C219.391 110.547 218.781 109.562 218.781 108.531C218.781 107.969 218.969 106.859 219.344 105.203C219.562 104.203 219.984 101.781 220.609 97.9375L220.938 95.9219L218.406 95.9688C217.156 96 216.531 95.375 216.531 94.0938C216.531 92.9062 217.266 92.2812 218.734 92.2188H221.5L222.297 84.9062C222.359 84.2812 222.562 83.8125 222.906 83.5C223.25 83.1562 223.703 82.9844 224.266 82.9844C225.484 82.9844 226.094 83.625 226.094 84.9062L225.203 92.125L229.469 92.0781C231.906 92.0469 233.125 93.25 233.125 95.6875C233.125 97.6562 232.812 100.828 232.188 105.203C231.688 108.547 230.781 111.469 229.469 113.969C232.438 116.656 233.922 118.5 233.922 119.5C233.922 120.875 233.25 121.562 231.906 121.562C231.281 121.562 230.234 120.641 228.766 118.797L227.5 117.297C225.719 119.609 224.062 121.344 222.531 122.5C220.719 123.875 219.328 124.562 218.359 124.562ZM239.781 125.266C238.125 125.266 237.297 124.594 237.297 123.25C237.297 121.938 238.125 121.281 239.781 121.281H242.453C243.734 121.281 244.406 120.594 244.469 119.219V106.188H235.703C234.203 106.188 233.453 105.578 233.453 104.359C233.453 103.141 234.203 102.531 235.703 102.531H244.469V97.6094C244.469 96.6406 244.688 95.8906 245.125 95.3594C245.594 94.7969 246.875 93.7969 248.969 92.3594C251.125 90.8906 252.203 89.9375 252.203 89.5C252.203 89.3438 252.141 89.2188 252.016 89.125C251.891 89.0312 251.75 88.9844 251.594 88.9844H236.406C234.906 88.9844 234.156 88.4062 234.156 87.25C234.156 86.625 234.328 86.1719 234.672 85.8906C235.047 85.5781 235.625 85.4219 236.406 85.4219H254.453C256.984 85.4219 258.25 86.1875 258.25 87.7188C258.25 89 255.625 91.5 250.375 95.2188C249.031 96.2188 248.328 97.2031 248.266 98.1719V102.531H256.984C258.516 102.531 259.281 103.141 259.281 104.359C259.281 105.578 258.516 106.188 256.984 106.188H248.266V120.203C248.266 121.984 247.828 123.25 246.953 124C245.984 124.844 244.719 125.266 243.156 125.266H239.781ZM226.656 111.484C227.812 108.828 228.625 105.422 229.094 101.266L229.516 97C229.609 96.1875 229.109 95.7812 228.016 95.7812L224.641 95.875C224.234 98.5625 223.734 101.312 223.141 104.125C222.734 106.094 222.531 107.234 222.531 107.547C222.531 108.234 223.203 109.047 224.547 109.984L226.656 111.484ZM301.281 104.266C300.656 104.266 300.203 104.141 299.922 103.891C299.641 103.641 299.5 103.25 299.5 102.719C299.5 102.375 299.672 101.828 300.016 101.078L301.938 96.5312L302.594 94.7969V94.7031C302.594 94.4844 302.297 94.375 301.703 94.375H291.766L289.844 98.8281C289.094 100.547 288.312 101.406 287.5 101.406C286.312 101.406 285.719 100.859 285.719 99.7656C285.719 99.2344 285.906 98.6562 286.281 98.0312C288.344 94.6562 289.891 90.3281 290.922 85.0469C291.203 83.5469 291.891 82.7969 292.984 82.7969C294.266 82.7969 294.906 83.3125 294.906 84.3438C294.906 84.8125 294.281 86.9531 293.031 90.7656H303.438C305.844 90.7656 307.047 91.625 307.047 93.3438C307.047 93.875 306.766 94.75 306.203 95.9688L305.125 98.4531C304.25 100.453 303.5 101.922 302.875 102.859C302.281 103.797 301.75 104.266 301.281 104.266ZM279.391 103.094C278.203 103.094 277.609 102.516 277.609 101.359C277.609 100.203 278.141 99.625 279.203 99.625H280.188C280.906 99.625 281.281 99.25 281.312 98.5V88.2344H266.5C265.219 88.2344 264.578 87.6562 264.578 86.5C264.578 85.375 265.219 84.8125 266.5 84.8125H286.938C288.156 84.8125 288.766 85.3906 288.766 86.5469C288.766 87.0781 288.609 87.5 288.297 87.8125C287.984 88.0938 287.531 88.2344 286.938 88.2344H284.875V98.7812C284.875 100.219 284.531 101.297 283.844 102.016C283.156 102.703 282.062 103.062 280.562 103.094H279.391ZM269.734 99.9062C268.547 99.9062 267.688 99.6406 267.156 99.1094C266.625 98.5781 266.391 97.7188 266.453 96.5312V93.4375C266.453 92.2188 266.719 91.3438 267.25 90.8125C267.781 90.25 268.609 90.0156 269.734 90.1094H275.453C276.672 90.1094 277.547 90.375 278.078 90.9062C278.641 91.4375 278.875 92.2812 278.781 93.4375V96.5312C278.781 97.7812 278.516 98.6875 277.984 99.25C277.484 99.7812 276.641 100 275.453 99.9062H269.734ZM274.656 97.0938C275.312 97.0938 275.641 96.75 275.641 96.0625V93.9062C275.641 93.25 275.312 92.9219 274.656 92.9219H270.719C270 92.9219 269.656 93.25 269.688 93.9062V96.0625C269.688 96.4062 269.766 96.6719 269.922 96.8594C270.078 97.0156 270.344 97.0938 270.719 97.0938H274.656ZM286.703 125.312C285.453 125.312 284.828 124.719 284.828 123.531C284.828 122.875 285.203 122.266 285.953 121.703C288.828 119.453 290.828 116.312 291.953 112.281C293.047 108.406 293.594 103.812 293.594 98.5L293.547 97.4688C293.516 96.0938 294.094 95.4062 295.281 95.4062C296.5 95.4062 297.078 95.9844 297.016 97.1406L296.875 100.469C296.812 101.969 296.75 103.094 296.688 103.844C298.188 111.344 301.266 116.953 305.922 120.672C306.922 121.422 307.422 122.172 307.422 122.922C307.422 124.391 306.766 125.125 305.453 125.125C304.297 125.125 302.656 123.734 300.531 120.953C298.438 118.266 296.812 114.984 295.656 111.109C294.906 115.391 293.516 118.828 291.484 121.422C289.484 124.016 287.891 125.312 286.703 125.312ZM277.891 125.266C276.734 125.266 276.156 124.656 276.156 123.438C276.156 122.188 276.734 121.562 277.891 121.562H279.719C280.75 121.562 281.281 121.047 281.312 120.016V107.125H266.453C265.141 107.125 264.484 106.562 264.484 105.438C264.484 104.312 265.141 103.75 266.453 103.75H286.891C288.109 103.75 288.719 104.328 288.719 105.484C288.719 106.578 288.109 107.125 286.891 107.125H284.875V120.719C284.875 122.344 284.5 123.531 283.75 124.281C283.031 125.031 281.891 125.359 280.328 125.266H277.891ZM269.734 120.203C268.578 120.203 267.719 119.938 267.156 119.406C266.625 118.875 266.391 118.016 266.453 116.828V112.656C266.453 111.406 266.703 110.516 267.203 109.984C267.734 109.422 268.578 109.188 269.734 109.281H275.453C276.672 109.281 277.547 109.547 278.078 110.078C278.641 110.609 278.875 111.469 278.781 112.656V116.828C278.781 118.047 278.516 118.938 277.984 119.5C277.453 120.062 276.609 120.297 275.453 120.203H269.734ZM274.656 117.25C275.312 117.25 275.641 116.906 275.641 116.219V113.219C275.641 112.562 275.312 112.234 274.656 112.234H270.719C270 112.234 269.656 112.562 269.688 113.219V116.219C269.688 116.906 270.031 117.25 270.719 117.25H274.656ZM352.891 120.297C354.484 120.266 355.281 120.906 355.281 122.219C355.281 123.5 354.297 124.141 352.328 124.141L345.109 124.094C341.859 124.062 339 123.891 336.531 123.578C334.094 123.266 332.141 122.859 330.672 122.359C328.922 121.766 327.328 120.875 325.891 119.688C324.453 118.469 323.25 117.047 322.281 115.422C321.906 116.453 321.438 117.469 320.875 118.469C320.312 119.438 319.562 120.578 318.625 121.891C317.062 124.078 315.719 125.172 314.594 125.172C314 125.172 313.531 125 313.188 124.656C312.875 124.344 312.719 123.938 312.719 123.438C312.719 122.938 312.797 122.5 312.953 122.125C313.141 121.781 313.453 121.422 313.891 121.047C317.609 117.578 319.766 112.594 320.359 106.094C320.453 104.906 321.078 104.312 322.234 104.312C323.453 104.312 324.062 104.938 324.062 106.188C324.062 107.25 323.812 109 323.312 111.438C324.594 113.781 325.828 115.484 327.016 116.547C328.234 117.578 329.938 118.375 332.125 118.938V102.109H314.688C313.906 102.109 313.328 101.969 312.953 101.688C312.609 101.375 312.438 100.891 312.438 100.234C312.438 99.0469 313.188 98.4531 314.688 98.4531H332.125V92.125H318.531C317.031 92.125 316.281 91.5469 316.281 90.3906C316.281 89.7656 316.453 89.3125 316.797 89.0312C317.172 88.7188 317.75 88.5625 318.531 88.5625H332.125V85.0469C332.125 83.3594 332.781 82.5156 334.094 82.5156C335.406 82.5156 336.062 83.3594 336.062 85.0469V88.5625H349.422C350.203 88.5625 350.766 88.7188 351.109 89.0312C351.484 89.3125 351.672 89.7656 351.672 90.3906C351.672 91.5469 350.922 92.125 349.422 92.125H336.062V98.4531H353.266C354.797 98.4531 355.562 99.0469 355.562 100.234C355.562 100.859 355.375 101.328 355 101.641C354.625 101.953 354.047 102.109 353.266 102.109H336.062V108.625H348.859C349.609 108.625 350.156 108.781 350.5 109.094C350.875 109.375 351.062 109.828 351.062 110.453C351.062 111.641 350.328 112.234 348.859 112.234H336.062V119.734C338.875 120.172 342.609 120.391 347.266 120.391C349.047 120.391 350.422 120.375 351.391 120.344L352.891 120.297ZM378.906 109.609C378.375 109.609 377.984 109.469 377.734 109.188C377.516 108.875 377.406 108.406 377.406 107.781C377.406 107.344 377.562 106.938 377.875 106.562C378.188 106.188 378.656 105.906 379.281 105.719C382.125 104.75 384.984 103.047 387.859 100.609V100.516C386.047 98.4219 384.703 96.1094 383.828 93.5781H383.734C381.828 97.1719 380.328 98.9688 379.234 98.9688C378.141 98.9688 377.594 98.4219 377.594 97.3281C377.594 97.1094 377.688 96.8438 377.875 96.5312C378.062 96.1875 378.375 95.7031 378.812 95.0781C380.969 92.0781 382.781 88.5156 384.25 84.3906C384.594 83.3594 385.188 82.8438 386.031 82.8438C387.219 82.8438 387.812 83.3906 387.812 84.4844C387.812 84.8281 387.484 85.7188 386.828 87.1562H396.484C397.859 87.1562 398.875 87.375 399.531 87.8125C400.188 88.2188 400.516 88.8594 400.516 89.7344C400.516 90.4844 399.766 91.9844 398.266 94.2344C396.828 96.3906 395.062 98.5156 392.969 100.609L392.828 100.75C395.547 102.719 398.234 104.078 400.891 104.828C402.547 105.297 403.375 106.047 403.375 107.078C403.375 108.391 402.766 109.047 401.547 109.047C400.516 109.047 398.844 108.422 396.531 107.172C394.156 105.891 392.094 104.484 390.344 102.953H390.25C388 104.797 385.797 106.328 383.641 107.547C381.234 108.922 379.656 109.609 378.906 109.609ZM362.453 124C361.203 124 360.578 123.359 360.578 122.078C360.578 121.141 361.359 120.484 362.922 120.109V104.359C362.922 103.109 363.469 102.484 364.562 102.484C365.656 102.484 366.203 103.109 366.203 104.359V119.406L368.5 118.891L369.109 118.703V99.4844H366.344C363.875 99.4844 362.641 98.25 362.641 95.7812V88.2344C362.641 85.7656 363.875 84.5312 366.344 84.5312H373.234C375.703 84.5312 376.938 85.7656 376.938 88.2344V95.7812C376.938 98.2188 375.734 99.4531 373.328 99.4844H372.484V105.625H374.828C376.234 105.625 376.938 106.203 376.938 107.359C376.938 108.547 376.234 109.141 374.828 109.141H372.484V117.859L376.281 116.828L377.125 116.641C378.125 116.641 378.625 117.219 378.625 118.375C378.625 119.25 378.031 119.875 376.844 120.25C368.812 122.75 364.016 124 362.453 124ZM372.109 96.1094C372.953 96.1094 373.406 95.6562 373.469 94.75V89.2656C373.469 88.4219 373.016 87.9688 372.109 87.9062H367.469C367.062 87.9062 366.734 88.0312 366.484 88.2812C366.266 88.5 366.141 88.8281 366.109 89.2656V94.75C366.109 95.1562 366.219 95.4844 366.438 95.7344C366.688 95.9531 367.031 96.0781 367.469 96.1094H372.109ZM390.344 98.4062C391.594 97.2188 392.906 95.7812 394.281 94.0938C395.5 92.5625 396.109 91.5312 396.109 91C396.109 90.625 395.875 90.4375 395.406 90.4375H385.938C386.719 93.4688 388.156 96.125 390.25 98.4062H390.344ZM384.812 124.047C381.781 124.297 380.375 122.891 380.594 119.828V112.609C380.375 109.547 381.781 108.141 384.812 108.391H396.156C399.219 108.141 400.625 109.547 400.375 112.609V119.828C400.625 122.891 399.219 124.297 396.156 124.047H384.812ZM395.266 120.719C396.328 120.719 396.844 120.219 396.812 119.219V113.219C396.812 112.156 396.297 111.641 395.266 111.672H385.609C384.547 111.672 384.031 112.188 384.062 113.219V119.219C384.062 120.25 384.578 120.75 385.609 120.719H395.266ZM410.5 91.7031C409.219 91.7031 408.578 91.1094 408.578 89.9219C408.578 88.7031 409.219 88.0938 410.5 88.0938H417.953V85.0938C417.953 83.6562 418.594 82.9375 419.875 82.9375C421.188 82.9375 421.844 83.6562 421.844 85.0938V88.0938H429.062C430.406 88.0938 431.078 88.7031 431.078 89.9219C431.078 91.1094 430.406 91.7031 429.062 91.7031H410.5ZM427.422 124.844C426.234 124.844 425.641 124.203 425.641 122.922C425.641 122.641 425.797 122.297 426.109 121.891C426.453 121.484 426.984 120.953 427.703 120.297C431.609 116.859 434.078 112.094 435.109 106C435.578 103.312 435.906 100.234 436.094 96.7656H431.875C430.375 96.7656 429.625 96.1406 429.625 94.8906C429.625 93.6094 430.375 92.9688 431.875 92.9688H436.281L436.469 88.7031L436.422 85.0938C436.422 83.6875 437.062 82.9844 438.344 82.9844C439.562 82.9844 440.172 83.6562 440.172 85L439.891 92.9688H448.328C449.859 92.9688 450.625 93.6094 450.625 94.8906C450.625 96.1406 449.859 96.7656 448.328 96.7656H439.703C439.234 103.047 438.328 108.266 436.984 112.422C435.672 116.453 433.672 119.812 430.984 122.5C429.422 124.062 428.234 124.844 427.422 124.844ZM446.688 91.4688C446.188 91.4688 445.297 90.5625 444.016 88.75L443.312 87.7656C442.844 87.1406 442.609 86.6875 442.609 86.4062C442.609 85.4688 443.188 85 444.344 85C445.094 85 446.016 85.7344 447.109 87.2031C448.109 88.5469 448.609 89.4375 448.609 89.875C448.609 90.9375 447.969 91.4688 446.688 91.4688ZM415.703 125.078C414.234 125.078 413.5 124.453 413.5 123.203C413.5 121.953 414.078 121.328 415.234 121.328H416.734C417.766 121.328 418.297 120.625 418.328 119.219V107.594H414.25C412.938 107.594 411.969 107.297 411.344 106.703C410.75 106.109 410.469 105.172 410.5 103.891V98.7344C410.5 97.4219 410.797 96.4688 411.391 95.875C412.016 95.25 412.969 94.9531 414.25 94.9844H425.453C426.797 94.9844 427.781 95.2969 428.406 95.9219C429.031 96.5156 429.312 97.4531 429.25 98.7344V103.891C429.25 105.203 428.953 106.172 428.359 106.797C427.766 107.391 426.828 107.656 425.547 107.594H421.984V120.766C421.984 122.297 421.641 123.422 420.953 124.141C420.266 124.859 419.188 125.172 417.719 125.078H415.703ZM424.188 104.359C425.125 104.359 425.609 103.891 425.641 102.953V99.625C425.641 98.75 425.156 98.2812 424.188 98.2188H415.609C414.734 98.2188 414.266 98.6875 414.203 99.625V102.953C414.203 103.828 414.672 104.297 415.609 104.359H424.188ZM444.438 124.281C442.344 124.281 440.922 124.094 440.172 123.719C439.422 123.312 439.047 122.516 439.047 121.328V103.797C439.047 102.453 439.641 101.781 440.828 101.781C442.047 101.781 442.656 102.453 442.656 103.797V119.219C442.656 120.188 443.188 120.672 444.25 120.672C445.719 120.672 446.672 120.562 447.109 120.344C447.516 120.125 447.734 119.094 447.766 117.25C447.797 116.312 447.953 115.625 448.234 115.188C448.547 114.719 449 114.484 449.594 114.484C450.812 114.484 451.422 115.094 451.422 116.312C451.422 120 450.953 122.25 450.016 123.062C449.047 123.875 447.188 124.281 444.438 124.281ZM410.359 120.766C409.172 120.766 408.578 120.125 408.578 118.844C408.578 118.438 408.891 117.75 409.516 116.781C410.203 115.75 411.031 113.969 412 111.438C412.625 109.875 413.281 109.094 413.969 109.094C415.062 109.094 415.609 109.641 415.609 110.734C415.609 111.922 414.734 114.281 412.984 117.812C412.016 119.781 411.141 120.766 410.359 120.766ZM428.453 116.969C427.734 116.969 427.094 116.406 426.531 115.281C425.969 114.094 425.375 113 424.75 112C424.469 111.562 424.328 111.188 424.328 110.875C424.328 109.844 424.875 109.328 425.969 109.328C426.688 109.328 427.578 110.172 428.641 111.859C429.141 112.641 429.516 113.312 429.766 113.875C430.047 114.438 430.188 114.828 430.188 115.047C430.188 116.328 429.609 116.969 428.453 116.969ZM478.047 97.9844C477.359 97.9844 476.547 97.125 475.609 95.4062L459.109 96.7656C458.328 96.8281 457.719 96.6875 457.281 96.3438C456.875 96 456.672 95.5 456.672 94.8438C456.672 93.5625 457.984 92.9219 460.609 92.9219H461.359L463.422 86.5469C463.703 85.6719 463.953 84.9375 464.172 84.3438C464.391 83.7188 464.594 83.3281 464.781 83.1719C465.156 82.8906 465.656 82.75 466.281 82.75C467.656 82.75 468.344 83.3281 468.344 84.4844C468.344 85.7344 467.156 88.5156 464.781 92.8281L473.781 92.4062L472.281 90.2969C471.625 89.3594 471.297 88.7812 471.297 88.5625C471.297 87.5312 471.906 87.0156 473.125 87.0156C473.875 87.0156 475.188 88.3281 477.062 90.9531C478.938 93.6094 479.875 95.3594 479.875 96.2031C479.875 97.3906 479.266 97.9844 478.047 97.9844ZM488.922 102.672C485.109 102.672 482.828 102.391 482.078 101.828C481.234 101.234 480.812 100.312 480.812 99.0625V85.375C480.812 83.875 481.422 83.125 482.641 83.125C483.828 83.125 484.422 83.875 484.422 85.375V90.2969L487.984 89.0312L493.516 86.7812C494.109 86.5312 494.594 86.4062 494.969 86.4062C496.219 86.4062 496.844 87.0156 496.844 88.2344C496.844 88.9531 496.469 89.5156 495.719 89.9219C495 90.2969 493.641 90.7812 491.641 91.375C489.172 92.0625 486.766 92.7031 484.422 93.2969V97.375C484.422 98.4688 485.141 99.0625 486.578 99.1562L487.75 99.25L489.672 99.2969C490.984 99.3281 492.312 99.2344 493.656 99.0156C494.656 98.8281 495.234 98.1094 495.391 96.8594C495.547 95.7344 496.172 95.1719 497.266 95.1719C498.641 95.1719 499.328 95.7656 499.328 96.9531C499.328 99.6094 498.375 101.328 496.469 102.109C495.594 102.484 493.078 102.672 488.922 102.672ZM461.547 125.547C460.328 125.547 459.719 124.922 459.719 123.672V102.438C459.719 101.094 460 100.125 460.562 99.5312C461.156 98.9062 462.109 98.625 463.422 98.6875H473.406C474.75 98.6875 475.719 98.9844 476.312 99.5781C476.938 100.172 477.203 101.125 477.109 102.438V121C477.109 122.594 476.75 123.75 476.031 124.469C475.312 125.219 474.188 125.531 472.656 125.406H470.641C469.297 125.406 468.625 124.812 468.625 123.625C468.625 122.375 469.297 121.75 470.641 121.75H471.859C472.922 121.75 473.484 121.188 473.547 120.062V115.75H463.281V123.672C463.281 124.922 462.703 125.547 461.547 125.547ZM473.547 103.562C473.547 102.562 473.062 102.062 472.094 102.062H464.734C463.766 102.062 463.281 102.562 463.281 103.562V105.672H473.547V103.562ZM488.922 124.375C485.172 124.375 482.891 124.094 482.078 123.531C481.234 122.938 480.812 122 480.812 120.719V106.141C480.812 105.391 480.953 104.844 481.234 104.5C481.547 104.125 482.016 103.938 482.641 103.938C483.828 103.938 484.422 104.672 484.422 106.141V111.016C486.391 110.391 488.328 109.688 490.234 108.906C492.172 108.094 493.281 107.625 493.562 107.5C494.156 107.25 494.641 107.125 495.016 107.125C496.328 107.125 496.984 107.781 496.984 109.094C496.984 109.781 496.641 110.312 495.953 110.688C495.422 110.938 493.953 111.453 491.547 112.234C489.891 112.766 487.516 113.391 484.422 114.109V119.078C484.422 119.609 484.609 120.016 484.984 120.297C485.359 120.578 485.891 120.734 486.578 120.766L487.75 120.859L489.672 120.906C491.172 120.938 492.5 120.859 493.656 120.672C494.656 120.484 495.234 119.781 495.391 118.562C495.547 117.438 496.172 116.875 497.266 116.875C498.641 116.875 499.328 117.469 499.328 118.656C499.328 121.344 498.375 123.047 496.469 123.766C495.406 124.172 492.891 124.375 488.922 124.375ZM473.547 112.469V108.953H463.281V112.469H473.547ZM544.844 96.3906C546.562 98.6406 547.422 100.156 547.422 100.938C547.422 102.25 546.719 102.906 545.312 102.906C544.562 102.906 543.969 102.609 543.531 102.016L542.641 100.469L542.266 99.9062L520.422 102.25C519.766 102.312 519.266 102.156 518.922 101.781C518.578 101.406 518.406 100.875 518.406 100.188C518.406 99.4375 518.609 98.9062 519.016 98.5938C519.484 98.2188 520.891 98.0156 523.234 97.9844H523.703C524.953 94.6094 526.188 90.375 527.406 85.2812C527.812 83.625 528.609 82.7969 529.797 82.7969C531.172 82.7969 531.859 83.4219 531.859 84.6719C531.859 86.3594 530.391 90.7188 527.453 97.75L528.578 97.7031C532.047 97.5469 535.891 97.2031 540.109 96.6719L537.859 93.5781C537.516 93.1094 537.219 92.7031 536.969 92.3594C536.75 91.9844 536.641 91.6875 536.641 91.4688C536.641 90.3125 537.266 89.7344 538.516 89.7344C539.359 89.7344 540.266 90.3906 541.234 91.7031L544.844 96.3906ZM518.266 103.562C518.766 103.469 519.141 103.594 519.391 103.938C519.672 104.281 519.812 104.797 519.812 105.484C519.812 106.203 519.344 106.734 518.406 107.078L514.75 108.344V120.625C514.75 122.312 514.375 123.547 513.625 124.328C512.906 125.109 511.734 125.438 510.109 125.312H508.141C507.328 125.312 506.719 125.156 506.312 124.844C505.938 124.531 505.75 124.031 505.75 123.344C505.75 122.031 506.469 121.375 507.906 121.375H509.266C510.391 121.375 510.984 120.766 511.047 119.547V109.469L509.922 109.844C509.047 110.156 508.266 110.391 507.578 110.547C506.922 110.703 506.5 110.781 506.312 110.781C505.156 110.781 504.578 110.109 504.578 108.766C504.578 107.703 505.484 106.969 507.297 106.562C508.266 106.344 509.516 106.016 511.047 105.578V95.4531H506.781C505.375 95.4531 504.672 94.8438 504.672 93.625C504.672 92.4062 505.375 91.7969 506.781 91.7969H511.047V85C511.047 83.5625 511.656 82.8438 512.875 82.8438C514.125 82.8438 514.75 83.5625 514.75 85V91.7969H517.844C519.25 91.7969 519.953 92.4062 519.953 93.625C519.953 94.8438 519.25 95.4531 517.844 95.4531H514.75V104.547L517.328 103.75L518.266 103.562ZM539.781 105.438C541.344 105.438 542.469 105.781 543.156 106.469C543.875 107.156 544.188 108.25 544.094 109.75V119.875C544.094 121.438 543.75 122.562 543.062 123.25C542.375 123.969 541.281 124.281 539.781 124.188H526C524.469 124.188 523.344 123.844 522.625 123.156C521.906 122.469 521.578 121.375 521.641 119.875V109.75C521.641 108.219 521.984 107.094 522.672 106.375C523.391 105.656 524.5 105.344 526 105.438H539.781ZM540.156 111.016C540.156 109.797 539.547 109.172 538.328 109.141H527.359C526.172 109.141 525.547 109.766 525.484 111.016V118.562C525.484 119.781 526.109 120.422 527.359 120.484H538.328C539.484 120.484 540.094 119.844 540.156 118.562V111.016ZM593.172 120.25C594.672 120.188 595.422 120.844 595.422 122.219C595.422 122.812 595.219 123.312 594.812 123.719C594.438 124.094 593.297 124.281 591.391 124.281C589.297 124.281 587.734 124.266 586.703 124.234C583.547 124.234 581.188 124.219 579.625 124.188C576.188 124.125 573.172 123.922 570.578 123.578C567.984 123.234 566 122.781 564.625 122.219C562.031 121.156 559.922 119.281 558.297 116.594C557.141 121.719 555.766 124.281 554.172 124.281C553.078 124.281 552.531 123.656 552.531 122.406C552.531 121.875 552.734 121.219 553.141 120.438C553.953 118.844 554.625 116.781 555.156 114.25C555.719 111.688 556.031 109.203 556.094 106.797C556.156 105.297 556.766 104.547 557.922 104.547C558.984 104.547 559.516 105.297 559.516 106.797C559.516 107.703 559.359 109.688 559.047 112.75C559.609 113.781 560.172 114.625 560.734 115.281C561.297 115.906 562.094 116.562 563.125 117.25V101.359H555.156C553.719 101.359 553 100.781 553 99.625C553 98.4688 553.719 97.8906 555.156 97.8906H563.031V92.6875H556.703C556.016 92.6875 555.484 92.5469 555.109 92.2656C554.734 91.9531 554.547 91.5 554.547 90.9062C554.547 89.75 555.266 89.1719 556.703 89.1719H563.031V84.9531C563.031 83.5469 563.672 82.8438 564.953 82.8438C566.172 82.8438 566.781 83.5469 566.781 84.9531V89.1719H571.609C572.297 89.1719 572.828 89.3281 573.203 89.6406C573.578 89.9219 573.766 90.3594 573.766 90.9531C573.766 92.1094 573.047 92.6875 571.609 92.6875H566.781V97.8906H572.688C574.125 97.8906 574.844 98.4688 574.844 99.625C574.844 100.219 574.672 100.656 574.328 100.938C573.984 101.219 573.438 101.359 572.688 101.359H566.875V107.312H571.75C572.438 107.312 572.969 107.469 573.344 107.781C573.719 108.062 573.906 108.5 573.906 109.094C573.906 110.25 573.188 110.828 571.75 110.828H566.875V119.266C569.562 120.016 574.891 120.422 582.859 120.484C584.641 120.484 586.641 120.438 588.859 120.344C589.609 120.344 591.047 120.312 593.172 120.25ZM577.656 116.172C576.688 115.609 576.188 114.594 576.156 113.125V89.5469C576.156 88.3594 576.469 87.4531 577.094 86.8281C577.719 86.2031 578.625 85.8906 579.812 85.8906H588.953C590.453 85.8906 591.531 86.2188 592.188 86.875C592.875 87.5312 593.156 88.5781 593.031 90.0156V96.9531C593.031 98.4219 592.703 99.5 592.047 100.188C591.422 100.844 590.391 101.125 588.953 101.031H579.906V111.156C579.906 112.281 580.172 112.969 580.703 113.219C581.016 113.344 581.484 113.438 582.109 113.5C582.766 113.562 583.219 113.609 583.469 113.641C584.531 113.703 585.547 113.734 586.516 113.734C587.484 113.734 588.531 113.703 589.656 113.641C590.094 113.578 590.406 113.25 590.594 112.656C590.812 112.062 590.922 111.109 590.922 109.797C590.922 109.109 591.078 108.594 591.391 108.25C591.703 107.906 592.141 107.734 592.703 107.734C593.391 107.734 593.906 107.906 594.25 108.25C594.594 108.594 594.766 109.141 594.766 109.891C594.766 112.797 594.344 114.734 593.5 115.703C593.031 116.234 592.344 116.609 591.438 116.828C590.562 117.016 589.312 117.109 587.688 117.109C584.438 117.109 582.078 117.031 580.609 116.875C579.172 116.719 578.188 116.484 577.656 116.172ZM579.906 97.375H587.547C588.109 97.375 588.531 97.2188 588.812 96.9062C589.125 96.5938 589.281 96.1562 589.281 95.5938V91.3281C589.281 90.2031 588.703 89.6094 587.547 89.5469H581.734C580.516 89.5469 579.906 90.1562 579.906 91.375V97.375ZM622.984 87.625C621.641 87.625 620.969 87.0781 620.969 85.9844C620.969 84.8906 621.641 84.3438 622.984 84.3438H641.219C642.562 84.3438 643.234 84.8906 643.234 85.9844C643.234 87.0781 642.562 87.625 641.219 87.625H632.875C632.562 89.0312 632.188 90.5625 631.75 92.2188H637.844C639.125 92.2188 640.047 92.5156 640.609 93.1094C641.172 93.6719 641.453 94.6094 641.453 95.9219V112.516C641.453 113.828 641.172 114.766 640.609 115.328C640.047 115.891 639.125 116.172 637.844 116.172H625.938C623.531 116.172 622.328 114.969 622.328 112.562V95.875C622.328 93.4375 623.5 92.2188 625.844 92.2188H628.516C628.859 90.0312 629.078 88.5 629.172 87.625H622.984ZM602.969 88.5156C601.656 88.5156 601 87.9219 601 86.7344C601 85.5469 601.656 84.9531 602.969 84.9531H618.344C619.656 84.9531 620.312 85.5469 620.312 86.7344C620.312 87.9219 619.656 88.5156 618.344 88.5156H602.969ZM619.891 103.094C619.891 104.5 619.578 105.516 618.953 106.141C618.359 106.734 617.375 107 616 106.938H606.297C604.922 106.938 603.922 106.641 603.297 106.047C602.703 105.422 602.438 104.438 602.5 103.094V96.1562C602.5 94.7188 602.797 93.6875 603.391 93.0625C603.984 92.4375 604.953 92.1719 606.297 92.2656H616C617.438 92.2656 618.469 92.5781 619.094 93.2031C619.719 93.8281 619.984 94.8125 619.891 96.1562V103.094ZM638.031 96.9062C638.031 95.9062 637.531 95.4062 636.531 95.4062H627.203C626.734 95.4062 626.359 95.5312 626.078 95.7812C625.797 96.0312 625.656 96.3906 625.656 96.8594V99.1562H638.031V96.9062ZM614.453 103.656C615.203 103.656 615.703 103.531 615.953 103.281C616.203 103 616.328 102.469 616.328 101.688V97.5625C616.328 96.7812 616.203 96.2656 615.953 96.0156C615.703 95.7344 615.203 95.5938 614.453 95.5938H607.797C607.016 95.5938 606.5 95.7344 606.25 96.0156C606 96.2656 605.875 96.7812 605.875 97.5625V101.688C605.875 102.469 606 103 606.25 103.281C606.5 103.531 607.016 103.656 607.797 103.656H614.453ZM638.031 105.953V102.25H625.656V105.953H638.031ZM621.812 118C621.812 118.688 621.266 119.25 620.172 119.688C619.516 119.969 616.547 120.672 611.266 121.797C606.016 122.922 603 123.5 602.219 123.531C601.094 123.594 600.531 122.938 600.531 121.562C600.531 120.844 600.797 120.344 601.328 120.062C601.891 119.75 602.797 119.516 604.047 119.359C604.297 119.328 605.141 119.219 606.578 119.031C608.016 118.844 610.094 118.469 612.812 117.906L613.094 116.688C613.219 116.219 613.297 115.828 613.328 115.516L614.5 110.125C614.656 109.375 614.844 108.844 615.062 108.531C615.281 108.219 615.688 108.062 616.281 108.062C616.844 108.062 617.234 108.188 617.453 108.438C617.703 108.656 617.828 109 617.828 109.469C617.828 109.781 617.812 110.031 617.781 110.219C617.562 111.531 617.375 112.484 617.219 113.078C617.062 113.672 616.781 114.625 616.375 115.938C616.125 116.938 616.016 117.359 616.047 117.203L618.578 116.594C618.641 116.562 618.734 116.531 618.859 116.5C618.984 116.438 619.109 116.406 619.234 116.406C619.453 116.406 619.641 116.391 619.797 116.359C619.984 116.297 620.125 116.266 620.219 116.266C621.281 116.266 621.812 116.844 621.812 118ZM607.281 109.188C607.562 109.5 607.828 110.156 608.078 111.156C608.328 112.156 608.469 112.688 608.5 112.75C608.906 114.031 609.109 115.062 609.109 115.844C609.109 116.375 608.953 116.781 608.641 117.062C608.328 117.344 607.875 117.484 607.281 117.484C606.688 117.484 606.266 117.297 606.016 116.922C605.766 116.516 605.594 116.094 605.5 115.656C605.406 115.219 605.344 114.938 605.312 114.812C604.656 112.188 604.328 110.625 604.328 110.125C604.328 109.188 604.922 108.703 606.109 108.672C606.609 108.672 607 108.844 607.281 109.188ZM638.031 109.047H625.656V111.578C625.656 112.047 625.797 112.406 626.078 112.656C626.359 112.906 626.734 113.031 627.203 113.031H636.531C637.531 113.031 638.031 112.547 638.031 111.578V109.047ZM641.922 121.375C642.891 121.875 643.375 122.484 643.375 123.203C643.375 124.516 642.828 125.172 641.734 125.172C641.203 125.172 640.531 124.953 639.719 124.516C638.938 124.078 637.938 123.406 636.719 122.5C634.344 120.719 633.156 119.438 633.156 118.656C633.156 117.531 633.797 116.969 635.078 116.969C635.266 116.969 635.469 117.047 635.688 117.203C635.938 117.328 636.203 117.5 636.484 117.719C638.359 119.25 640.172 120.469 641.922 121.375ZM628.656 117.016C629.844 117.016 630.438 117.594 630.438 118.75C630.438 119.5 629.078 120.781 626.359 122.594C623.578 124.406 621.688 125.312 620.688 125.312C619.625 125.312 619.094 124.703 619.094 123.484C619.094 122.703 619.703 122.062 620.922 121.562C622.797 120.781 624.875 119.469 627.156 117.625C627.625 117.219 628.125 117.016 628.656 117.016Z" fill="white"/>
</svg>
