<svg width="348" height="130" viewBox="0 0 348 130" fill="none" xmlns="http://www.w3.org/2000/svg">
<path d="M25.543 14.2891V22.8398H31.3008L33.6211 20.5195L36.4141 22.8398V23.7422H25.543V37.6211H34.3086L36.6289 35.3008L39.4219 37.6211V38.5234H10.5469V37.6211H22.793V23.7422H13.2969V22.8398H22.793V12.9141L25.543 13.3438L26.2305 13.8164L25.543 14.2891ZM15.3594 1.82812L15.4883 1.48438L18.0234 2.64453L18.5391 3.28906L17.6797 3.54688L16.8203 5.99609L15.5312 9.08984L15.3594 9.43359H34.3086L36.6289 7.11328L39.4219 9.43359V10.3359H14.9297L14.1133 12.0547L12.5664 14.8477L10.9336 17.3828L9.17188 19.7891L8.91406 20.0898V39.4688L6.12109 40.8438V23.0977L5.30469 23.9141L3.19922 25.6328L0.921875 27.1367L0.707031 26.793L2.59766 24.9883L4.40234 23.0547L6.12109 20.9492V17.2969L8.44141 17.6836L9.30078 16.3516L10.6758 13.7734L12.0078 11.0664L12.3086 10.3359H1.30859V9.43359H12.6953L13.2109 8.14453L14.3281 5.09375L15.3594 1.82812ZM56.6953 14.2891L58.1992 15.4062L58.8867 15.9648L60.0898 17.082L61.0781 18.2852L61.8516 19.5312L62.1523 20.1758L61.9805 21.207L61.1641 21.8516L60.1328 21.7227L59.4883 20.9062L59.4023 20.3906L59.3164 19.875L59.1445 19.3164L58.9297 18.7578L58.6289 18.1133L57.9414 16.7812L56.9961 15.3203L56.3945 14.5898L56.6953 14.2891ZM62.625 29.7578H53.1289V28.8555H62.625V23.3125H54.2891V22.3672H65.375L67.2656 18.1992L68.5977 15.0625L68.8555 14.332L69.0273 14.0742L71.3477 15.5352L71.7773 16.3086L70.7891 16.3945L69.9297 17.6836L68.2539 19.875L66.9648 21.3789L66.0625 22.3672H69.0703L71.3906 20.0469L74.1836 22.3672V23.3125H65.375V28.8555H70.2305L72.5508 26.5352L75.3008 28.8555V29.7578H65.375V38.5234L62.625 39.9414V29.7578ZM76.4609 38.0938L76.7617 38.0508L76.9766 38.0078L77.1484 37.9219L77.2773 37.8359L77.3203 37.6211L77.3633 37.4492L77.4062 37.1484V13.8164H50.8516V39.6836L48.0586 41.0586V11.4961L50.8516 12.9141H62.625V7.37109H45.0508V6.42578H62.625V0.882812L65.375 1.35547L66.0625 1.82812L65.375 2.25781V6.42578H78.0938L80.4141 4.10547L83.1641 6.42578V7.37109H65.375V12.9141H77.4062L78.7812 11.7539L81.3164 13.8164L80.1562 14.7617V37.1484L80.1133 37.75L80.0273 38.3086L79.8555 38.8672L79.5547 39.3828L79.168 39.8555L78.6953 40.2422L78.1797 40.543L77.6211 40.7148L77.0625 40.8008L76.4609 40.8438V39.4688L71.8633 38.7812V38.0938H76.4609ZM111.695 37.3633H112.039L112.684 37.2773L113.027 37.1914L113.586 36.9336L113.844 36.7617L114.102 36.5898L114.402 36.375L114.66 36.1172L115.047 35.6445L115.434 34.8711L115.863 33.8398L116.207 32.4648L116.551 30.875L116.852 29.0273L117.066 26.9219L117.281 24.5586L117.367 21.9375L117.453 19.5742H104.777L104.09 22.9258L103.059 26.2773L101.77 29.3281L100.266 32.1211L98.5039 34.5703L96.4414 36.7617L94.207 38.5664L91.6719 40.0703L91.5 39.7266L93.6484 37.9219L95.582 35.9023L97.2578 33.668L98.7188 31.2188L99.9648 28.5547L101.039 25.5898L101.812 22.4102L102.414 18.9297L102.758 15.2344L102.887 11.2383L102.93 10.7227L105.68 11.2812L106.367 11.7539L105.594 12.2695L105.379 15.4492L104.949 18.6719H117.453L118.871 17.5117L121.406 19.5742L120.246 20.5195H120.203L120.16 22.0234L120.031 24.7305L119.859 27.1797L119.602 29.3711L119.301 31.3906L118.914 33.1523L118.484 34.6992L117.969 36.0312L117.367 37.1484L116.637 38.0938L116.207 38.4805L115.777 38.8242L115.305 39.125L114.359 39.6406L113.844 39.8125L113.328 39.9844L112.77 40.0703L112.254 40.1133L111.695 40.1562V38.7812L107.055 38.0938V37.3633H111.695ZM109.375 2.73047V9.64844H122.309L124.629 7.37109L127.422 9.64844V10.5938H89.5234V9.64844H106.625V1.35547L109.375 1.82812L110.062 2.25781L109.375 2.73047ZM163.043 16.0508L165.664 17.3828L167.727 19.1445L169.273 21.0352L170.391 23.0117L171.078 24.9883L171.422 26.9219L171.379 28.7695L170.992 30.4453L170.348 31.8633L169.359 33.0664L168.93 33.4102L167.984 33.9688L167.512 34.1836L166.996 34.3984L166.523 34.5273L165.965 34.6992L164.934 34.8281H164.375V33.4531L159.777 32.7656V32.0781H164.375L164.719 32.0352L165.449 31.9492L165.75 31.8633L166.395 31.6484L166.996 31.3477L167.297 31.1328L167.598 30.918L168.113 30.4023L168.629 29.543L168.973 28.3828L169.102 27.0078L168.973 25.4609L168.5 23.7422L167.727 21.9805L166.523 20.1758L164.891 18.3281L162.828 16.3945L163.043 16.0508ZM168.027 3.89062L169.402 2.73047L171.938 4.79297L170.777 5.73828H170.176L167.641 9.86328L166.008 12.2695L164.031 14.8477L162.914 16.2227L162.57 16.0078L166.953 6.59766L167.727 4.79297H159.348V39.6836L156.555 41.0586V2.51562L159.348 3.89062H168.027ZM139.109 22.7969L139.195 20.6484V13.4727H133.867V12.5703H139.195V4.49219H133.523V3.54688H148.648L150.023 2.42969L152.559 4.49219L151.441 5.39453L151.57 9.69141L151.613 14.9336L151.57 19.6172L151.484 23.7852L151.27 27.4375L151.012 30.5312L150.625 33.1953L150.152 35.3438L149.551 37.0195L148.691 38.3516L148.305 38.7383L147.445 39.4258L146.973 39.6836L146.457 39.9414L145.941 40.1133L145.426 40.2852L144.867 40.3711L144.352 40.4141L143.793 40.457V39.082L139.195 38.3945V37.6641H143.793L144.48 37.6211L144.781 37.5781L145.383 37.3633L145.641 37.2344L146.199 36.8906L146.414 36.6758L146.672 36.418L147.016 35.8594L147.488 34.5703L147.918 32.6797L148.262 30.2305L148.52 27.2227L148.734 23.7422H141.688L141.301 26.6211L140.699 29.2422L139.883 31.6484L138.895 33.8398L137.734 35.7734L136.359 37.4922L134.812 38.9102L133.094 40.0703L131.203 40.9727L130.988 40.5859L132.578 39.3828L133.953 38.0078L135.199 36.5039L136.23 34.8281L137.133 32.9805L137.863 30.918L138.422 28.6836L138.852 26.2344L139.066 23.7422H132.922V22.7969H139.109ZM141.773 22.7969H148.734L148.82 19.5742V14.9336V13.4727H141.945V20.6914V20.7344L141.773 22.7969ZM141.945 12.5703H148.82L148.777 9.77734L148.648 4.49219H141.945V12.5703ZM207.086 36.6758H184.914V39.4688L182.121 40.8438V2.94531L184.914 4.36328H207.086L208.461 3.20312L210.996 5.26562L209.879 6.21094V38.0938L207.086 39.4688V36.6758ZM207.086 35.7734V20.5195H184.914V35.7734H207.086ZM207.086 19.5742V5.26562H184.914V19.5742H207.086ZM225.992 4.36328L227.195 5.13672L229.301 6.89844L230.246 7.84375L231.105 8.74609L232.609 10.6367L233.254 11.625L233.812 12.6133L234.328 13.6016L234.285 14.6328L233.512 15.3633H232.48L231.75 14.5898L231.449 13.6875L231.062 12.7852L230.117 10.8945L228.871 8.96094L225.691 4.66406L225.992 4.36328ZM258.262 36.4609L259.078 37.0195L259.637 37.8359L259.078 38.6953L258.262 39.2109H246.918L246.316 39.168L245.758 39.082L245.199 38.9102L244.684 38.6094L244.211 38.2227L243.824 37.793L243.523 37.2344L243.352 36.6758L243.266 36.1172L243.223 35.5156V19.3594H234.844L236.992 19.918L237.637 20.4336L236.863 20.8633L236.477 23.4414L235.746 26.707L234.715 29.6289L233.426 32.293L231.879 34.6562L230.074 36.6758L228.012 38.3945L225.691 39.7695L223.156 40.8438L220.406 41.4883L220.277 41.1016L222.855 40.0273L225.09 38.7383L227.066 37.2344L228.785 35.4727L230.289 33.4961L231.535 31.3047L232.566 28.8125L233.34 26.0625L233.898 23.0117L234.199 19.7031L234.242 19.3594H221.738V18.457H238.84V1.35547L241.633 1.82812L242.32 2.25781L241.633 2.73047V18.457H253.406L255.727 16.1367L258.477 18.457V19.3594H246.016V35.8164L246.059 36.0312L246.102 36.2461L246.23 36.332L246.402 36.375L246.617 36.418L246.918 36.4609H256.93L258.262 30.7031H258.691L258.262 36.4609ZM252.117 3.71875L252.246 3.54688L254.395 5.35156L254.652 6.125L253.793 6.08203L251.473 8.91797L248.508 12.1836L246.488 14.2031L245.414 15.1484L244.297 16.0508L243.996 15.75L252.117 3.71875ZM291.906 12.4414L293.539 13.7305L295.043 15.1484L296.418 16.6523L297.707 18.2422L298.867 19.875L299.898 21.5938L300.887 23.3555L301.746 25.1602L302.52 27.0078L303.164 28.9414L302.992 29.9727L302.176 30.6172L301.145 30.4883L300.5 29.6719L300.027 27.8242L299.426 26.0625L298.781 24.3008L298.008 22.582L296.246 19.2305L294.098 15.9648L291.605 12.7422L291.906 12.4414ZM272.184 12.957L272.312 12.6133L274.891 13.6875L275.406 14.332L274.59 14.5898L274.16 15.8359L273.344 17.9414L272.484 19.9609L271.496 21.9375L270.465 23.8281L269.348 25.6758L268.102 27.4805L266.77 29.2422L265.352 30.875L263.805 32.4219L263.504 32.1641L265.781 28.5117L267.801 24.8164L268.746 22.9258L270.336 19.0586L271.023 17.082L271.625 15.0625L272.184 12.957ZM281.68 37.6211L281.98 37.5781L282.195 37.5352L282.367 37.4922L282.496 37.3633L282.539 37.1914L282.582 36.9766L282.625 36.6758V1.57031L285.375 2.04297L286.062 2.51562L285.375 2.94531V36.6758L285.332 37.2773L285.246 37.8359L285.074 38.3945L284.773 38.9102L284.387 39.3828L283.914 39.7695L283.398 40.0703L282.84 40.2422L282.281 40.3281L281.68 40.3711V38.9961L277.082 38.3086V37.6211H281.68ZM322.973 10.6797L324.906 11.1094L325.852 11.3672L326.711 11.668L327.527 12.0547L328.301 12.4844L329.031 13L329.719 13.5586L330.32 14.1602L330.879 14.8047L331.008 15.8359L330.406 16.6953L329.375 16.8672L328.516 16.2656L328.258 15.707L327.914 15.1484L327.527 14.6328L327.055 14.0742L325.938 13.043L324.52 12.0117L323.746 11.4961L322.844 11.0664L322.973 10.6797ZM337.754 30.918V37.5352L336.637 38.0938H338.613L338.957 38.0508L339.258 38.0078L339.859 37.8789L340.117 37.75L340.375 37.6211L340.59 37.4492L340.805 37.2773L341.277 36.7617L341.75 36.1172L342.18 35.3867L342.523 34.5273L342.867 33.582L343.125 32.5938L343.297 31.4766L343.426 30.2734L343.512 28.9844V27.6094L343.469 26.5352H318.547V29.2852L315.754 30.7031V5.26562L318.547 6.64062H321.641L321.941 6.29688L324.82 2.34375L325.68 1.05469L326.066 0.410156L326.152 0.324219L328.258 2.12891L328.516 2.94531L327.527 2.85938L326.496 3.84766L325.207 4.92188L323.832 5.91016L323.145 6.33984L322.629 6.64062H336.766L338.184 5.52344L340.719 7.58594L339.559 8.48828V8.96094L339.516 10.6797L339.473 12.3125L339.344 13.8164L339.172 15.1484L338.957 16.4375L338.656 17.5547L338.312 18.5859L337.883 19.5312L337.367 20.3477L337.023 20.7773L336.68 21.207L336.25 21.5938L335.777 21.8945L335.305 22.1953L334.832 22.4102L334.273 22.582L333.715 22.7109L333.156 22.7969L332.641 22.8398V21.4648L328 20.7344V20.0469H332.641H332.941L333.242 20.0039L333.543 19.918L333.801 19.832L334.059 19.7461L334.273 19.5742L334.703 19.2305L334.918 19.0156L335.133 18.7578L335.434 18.2422L335.734 17.5977L335.992 16.7812L336.207 15.8359L336.422 14.7617L336.594 13.5156L336.68 12.0977L336.766 10.5938V8.96094V7.58594H318.547V25.5898H343.469L344.844 24.4297L347.422 26.5352L346.305 27.4375V27.5664V29.0703L346.219 30.5312L346.047 31.8633L345.789 33.1953L345.531 34.3984L345.102 35.5156L344.672 36.5898L344.07 37.5781L343.469 38.4805L343.082 38.9102L342.652 39.3398L342.266 39.6836L341.793 39.9844L341.32 40.2422L340.805 40.457L340.246 40.6289L339.73 40.7578L339.172 40.8438H338.613V39.4688L334.016 38.7812V38.0938H334.961V36.1172H314.293V38.9102L311.5 40.2852V29.543L314.293 30.0156L314.98 30.4883L314.293 30.918V35.2148H323.145V27.2227L325.938 27.6953L326.625 28.125L325.938 28.5977V35.2148H334.961V29.543L337.754 30.0156L338.441 30.4883L337.754 30.918ZM21.2891 98.7227L21.0742 100.27L20.7305 101.73L20.2148 103.105L19.5703 104.395L18.7109 105.555L17.7656 106.629L16.6484 107.531L15.4023 108.348L14.0273 108.992L12.5234 109.508L12.3516 109.164L13.5977 108.262L14.6719 107.316L15.6602 106.414L16.4766 105.469L17.1211 104.438L17.6797 103.406L18.0664 102.289L18.3242 101.172L18.4961 99.9258L18.5391 98.6367V90.2148L21.2891 91.5898H29.2383L30.6133 90.4297L33.1484 92.4922L32.0312 93.4375V103.02V103.277L32.0742 103.492L32.1602 103.707L32.2461 103.793L32.4609 103.836L32.6758 103.879L32.9336 103.922H37.7461L39.0781 98.1641H39.5508L39.0781 103.922L39.8945 104.48L40.4531 105.297L39.8945 106.113L39.0781 106.715H32.9336L32.375 106.629L31.7734 106.543L31.2148 106.371L30.6992 106.07L30.2266 105.684L29.8398 105.254L29.582 104.695L29.3672 104.137L29.2812 103.578L29.2383 103.02V92.4922H21.2891V98.6797V98.7227ZM0.75 115.695L2.21094 115.953L3.5 116.426L4.70312 117.113L5.30469 117.629L10.2031 108.992L15.1875 100.871L15.5312 101.043L8.74219 115.824L7.625 118.531L7.32422 119.477L7.19531 120.035L7.32422 120.293L7.83984 121.711L8.18359 123.258L8.35547 124.934V126.738L7.83984 127.684L6.85156 127.984L5.90625 127.512L5.5625 126.48L5.69141 124.934V123.516L5.60547 122.227L5.30469 121.066L4.91797 120.035L4.40234 119.09L3.71484 118.23L2.85547 117.5L1.82422 116.727L0.621094 116.082L0.75 115.695ZM0.363281 100.613L1.4375 100.785L2.46875 100.957L3.45703 101.215L4.35938 101.473L5.17578 101.816L5.94922 102.16L6.67969 102.59L7.36719 103.062L7.96875 103.535L8.48438 104.137L8.69922 105.168L8.09766 106.027L7.06641 106.242L6.16406 105.641L5.94922 105.211L5.69141 104.738L5.30469 104.309L4.83203 103.836L3.62891 102.891L2.89844 102.418L1.22266 101.43L0.234375 101L0.363281 100.613ZM4.27344 90.2578L5.30469 90.4727L6.25 90.6016L7.19531 90.8594L8.05469 91.1172L8.82812 91.4609L9.60156 91.8047L10.332 92.2344L10.9766 92.6641L11.5781 93.1797L12.1367 93.7383L12.3945 94.7695L11.8359 95.6719L10.8047 95.8867L9.90234 95.3711L9.64453 94.8984L9.34375 94.4258L8.91406 93.9531L8.48438 93.4375L7.32422 92.4922L5.90625 91.5469L5.04688 91.0742L4.14453 90.6445L4.27344 90.2578ZM32.8906 110.754L33.0625 110.582V110.625L34.2656 109.594L36.8008 111.699L35.6406 112.602H35.082L33.8789 114.578L32.0742 117.113L30.0977 119.434L27.9062 121.496H27.8633L30.0117 122.914L32.2461 124.074L34.5664 125.02L37.1016 125.793L41.9141 126.695L39.1641 129.273L36.3281 128.543L33.6211 127.598L31.0859 126.352L28.7227 124.934L26.5742 123.215L26.1875 122.828L25.5859 123.301L23.0508 124.891L20.3867 126.223L17.5078 127.34L14.5 128.156L11.3203 128.715L11.2344 128.285L14.2422 127.297L17.0781 126.18L19.6992 124.891L22.1055 123.387L24.3828 121.754L24.7266 121.453L22.8359 119.219L21.2891 116.855L19.9141 114.277L18.9258 111.699H14.7148V110.754H32.8906ZM26.1875 120.121L28.3789 117.844L30.0977 115.652L31.6445 113.203L32.4609 111.699H19.4414L20.7734 113.848L22.4062 116.082L24.125 118.145L25.9727 119.949L26.1875 120.121ZM73.4531 126.094L73.7539 126.051L73.9688 126.008L74.1836 125.922L74.2695 125.836L74.3125 125.621L74.3555 125.449L74.3984 125.148V119.391H58.6719V127.941L55.9219 129.316V105.812L54.0312 108.391L52.0547 110.754L49.9492 112.902L47.7578 114.836L45.3945 116.555L45.1367 116.168L47.1562 114.191L49.0469 112.043L50.8945 109.809L52.6133 107.402L54.2461 104.781L55.793 102.031L57.2109 99.1523L58.1562 96.9609H45.7383V96.0586H58.5859L59.832 92.793L61.0781 89.0117L63.6133 90.2148L64.1289 90.8594L63.2695 91.1172L62.2812 93.6953L61.293 96.0586H77.6211L79.9414 93.7383L82.6914 96.0586V96.9609H60.9062L59.3164 100.141L57.6836 103.105L57.6406 103.148L58.6719 103.664H74.3984L75.7734 102.504L78.3086 104.609L77.1484 105.512V125.148L77.1055 125.75L77.0195 126.309L76.8477 126.867L76.5469 127.383L76.1602 127.855L75.7305 128.242L75.1719 128.543L74.6133 128.715L74.0547 128.801L73.4531 128.844V127.469L68.8555 126.781V126.094H73.4531ZM74.3984 118.445V111.742H58.6719V118.445H74.3984ZM74.3984 110.84V104.609H58.6719V110.84H74.3984ZM112.941 103.836L114.188 104.438L115.348 105.168L115.648 105.383L119.859 95.5L120.375 94.2539L122.781 95.6719L123.211 96.3594L122.309 96.5312L120.461 99.668L118.355 102.848L116.723 104.996L116.121 105.684C116.608 106.056 117.081 106.443 117.539 106.844L119.559 108.82L120.461 109.895L122.18 112.215L122.953 113.504L123.082 114.535L122.395 115.352L121.363 115.438L120.504 114.793L119.902 113.547L118.613 111.227L117.109 109.078L115.434 107.102L113.629 105.168L112.684 104.18L112.941 103.836ZM125.703 124.031L126.734 124.203L127.379 125.062L127.164 126.094L126.305 126.738L122.91 127.082L119.773 126.523L116.98 125.02L114.66 122.656L112.812 119.477L111.352 115.566L110.277 110.883L109.547 105.383L109.16 99.1523V92.5781H89.5234V91.6758H109.16L110.535 90.5156L113.07 92.5781L111.91 93.5234L111.953 99.0664L112.297 105.168L112.984 110.41L114.016 114.793L115.305 118.316L116.852 120.98L118.656 122.828L120.676 123.902L122.953 124.332L124.414 124.16V118.402L124.844 118.273L125.703 124.031ZM158.961 120.594L160.336 120.938L161.625 121.324L162.871 121.754L164.031 122.27L165.105 122.785L166.137 123.387L167.125 123.988L168.027 124.633L168.844 125.32L169.66 126.008L170.004 127.039L169.574 127.984L168.543 128.328L167.598 127.898L166.395 126.48L164.891 125.148L164.074 124.461L162.141 123.086L158.832 120.98L158.961 120.594ZM162.227 112.473L164.418 113.59L165.406 114.191L167.168 115.48L167.898 116.125L168.543 116.855L169.145 117.543L169.66 118.273L170.09 119.09V120.121L169.316 120.895L168.285 120.852L167.555 120.078L167.383 119.477L167.082 118.832L166.738 118.188L166.309 117.5L165.836 116.855L159.004 117.93L154.062 118.574V128.242L151.312 129.617V118.918L146.371 119.477L140.871 119.992L136.832 120.336L136.359 121.066L135.887 120.379L135.285 117.629H135.758L138.207 117.586L140.742 117.543L146.242 117.328L148.004 117.242L157.371 110.195L161.109 107.016L162.871 109.164L162.914 109.98L162.098 109.723L158.703 112.043L155.781 113.891L152.688 115.652L149.594 117.199L158.918 116.684L162.398 116.555L165.492 116.426L164.504 115.266L162.914 113.633L162.012 112.816L162.227 112.473ZM138.852 109.68L140.227 109.766L141.559 109.895L142.762 110.066L143.922 110.324L144.996 110.668L145.34 110.797L148.52 108.133L149.207 107.488L149.422 107.23L148.133 106.027L147.273 105.383L146.328 104.781L145.727 104.438L143.578 105.984L141.215 107.23L138.551 108.348L135.629 109.207L132.406 109.852L132.277 109.422L135.328 108.348L138.078 107.188L140.527 105.898L142.633 104.523L143.836 103.492L142.977 103.148L140.27 102.203L139.883 102.074L139.195 104.008L136.145 104.395L139.625 94.2539H132.836V93.3086H139.969L141.73 88.1094L144.223 89.4844L144.738 90.1289L143.922 90.3438L142.891 93.3086H148.992L150.367 92.1484L152.945 94.2539L151.785 95.1562H151.484L151.184 96.4453L150.281 98.7656L149.035 100.871L147.531 102.805L147.402 102.891L148.477 103.406L149.594 104.008L150.582 104.695L151.098 105.082L151.184 104.91L151.27 104.738L153.461 106.457L153.805 107.23H152.688L152.43 107.488L151.828 107.961L150.324 108.949L148.52 109.938L147.488 110.453L146.027 111.098L146.93 111.484L147.746 112.043L148.52 112.645L149.207 113.289L149.465 114.32L148.949 115.223L147.918 115.48L147.016 114.965L146.629 114.449L146.199 113.934L145.641 113.375L144.996 112.902L144.223 112.387L143.32 111.914L141.258 111.012L140.098 110.539L138.766 110.109L138.852 109.68ZM143.363 121.195L143.492 121.109L145.512 123L145.727 123.773L144.824 123.688L143.879 124.461L142.977 125.148L141.988 125.836L139.84 127.082L138.637 127.641L137.348 128.199L135.973 128.672L134.512 129.102L134.34 128.715L138.895 125.578L140.742 124.074L141.516 123.387L142.848 121.926L143.363 121.195ZM166.996 104.438H158.016V106.027L155.223 107.445V91.0312L158.016 92.4062H166.996L168.414 91.2461L170.949 93.3516L169.789 94.2539V105.812L166.996 107.188V104.438ZM166.996 103.492V93.3516H158.016V103.492H166.996ZM148.906 94.2539H142.59L140.141 101.344H140.441L141.945 101.43L143.363 101.688L144.781 101.988L145.211 102.117L145.898 101.387L147.059 99.625L148.004 97.7344L148.648 95.7578L148.906 94.2539ZM206.699 104.352L207.816 105.168L208.848 106.027L209.836 107.016L210.781 108.047L212.371 110.281L213.102 111.441L213.746 112.688L214.348 113.934L214.863 115.309L214.777 116.34L214.004 117.027L212.93 116.941L212.242 116.125L211.898 114.879L211.469 113.676L210.996 112.473L210.523 111.312L209.32 109.035L207.945 106.844L206.398 104.652L206.699 104.352ZM183.754 104.395L183.84 104.051L186.375 105.211L186.934 105.855L186.074 106.113L185.086 108.477L184.355 110.109L183.539 111.699L181.691 114.836L180.617 116.426L179.5 117.93L178.297 119.434L177.008 120.895L176.621 120.637L179.328 115.652L180.875 112.387L181.605 110.797L182.766 107.574L183.281 105.984L183.754 104.395ZM199.48 125.621L199.738 125.578L199.953 125.535L200.168 125.492L200.254 125.363L200.34 125.191L200.383 124.977V124.676V99.2812H192.305V109.68L192.133 112.516L191.746 115.18L191.145 117.629L190.371 119.863L189.34 121.883L188.137 123.688L186.719 125.234L185.086 126.566L183.281 127.598L181.305 128.328L181.133 127.941L182.852 126.824L184.312 125.578L185.602 124.203L186.676 122.699L187.621 120.98L188.352 119.133L188.91 117.027L189.297 114.793L189.512 112.344V109.68V99.2812H177.523V98.3359H194.625V88.668L197.375 89.0977L198.062 89.5703L197.375 90.043V98.3359H209.406L211.727 96.0586L214.477 98.3359V99.2812H203.176V124.676L203.133 125.277L203.004 125.836L202.832 126.395L202.531 126.91L202.188 127.383L201.715 127.77L201.156 128.07L200.641 128.242L200.039 128.328L199.48 128.371V126.996L194.84 126.309V125.621H199.48ZM257.359 124.934L258.176 125.492L258.691 126.309L258.176 127.125L257.316 127.684H245.543L244.941 127.641L244.383 127.555L243.824 127.383L243.266 127.082L242.836 126.695L242.449 126.223L242.148 125.707L241.977 125.148L241.891 124.59L241.848 123.988V107.359L244.641 107.832L245.328 108.305L244.641 108.734V124.289L244.684 124.461L244.727 124.676L244.812 124.762L245.027 124.848L245.242 124.891L245.543 124.934H255.984L257.316 119.133H257.789L257.359 124.934ZM237.938 105.727V94.2109H225.219V93.2656H250.398L252.719 90.9453L255.469 93.2656V94.2109H240.688V105.727L240.645 106.457H253.621L255.941 104.137L258.691 106.457V107.359H240.559L240.43 109.336L239.828 112.688L238.84 115.781L237.465 118.574L235.746 121.109L233.684 123.344L231.277 125.234L228.484 126.824L225.434 128.07L222.039 129.016L221.91 128.629L225.09 127.297L227.926 125.75L230.332 124.031L232.438 122.098L234.199 119.949L235.574 117.586L236.648 115.008L237.379 112.129L237.809 109.078L237.852 107.359H221.523V106.457H237.895L237.938 105.727ZM288.211 122.227L289.285 122.441L290.359 122.656L291.434 122.914L292.465 123.258L294.527 124.031L296.504 124.891L298.48 125.922L299.082 126.781L298.91 127.812L298.008 128.414L296.977 128.242L295.301 127.039L291.777 124.805L288.082 122.613L288.211 122.227ZM292.379 114.664L294.656 115.523L296.676 116.555L298.438 117.715L299.941 118.961L300.586 119.648L301.188 120.336L301.359 121.367L300.758 122.27L299.727 122.441L298.867 121.84L298.523 121.238L298.094 120.594L297.621 119.949L296.461 118.66L291.906 119.391L285.934 120.164L285.16 120.25V127.941L282.367 129.316V120.594L271.109 121.84L269.09 122.012L268.66 122.785L268.145 122.141L267.5 119.391L277.941 118.789L277.383 118.488L277.082 117.93L276.738 117.371L275.965 116.383L275.535 115.91L274.547 115.051L273.473 114.191L272.828 113.848L272.957 113.461L274.418 113.719L275.148 113.934L275.836 114.191L276.523 114.492L277.211 114.836L277.426 114.965L279.832 112.043L281.379 109.98L282.281 108.562L282.367 108.391L284.516 110.238L284.688 110.668L285.934 110.023L287.738 108.863L289.371 107.574L290.832 106.199L291.52 105.297L290.359 103.535L289.457 101.688L288.77 99.7109L288.254 97.6055L288.039 95.5859H287.953L287.566 96.5312L287.051 97.5625L286.492 98.4648L285.848 99.2812L285.117 100.012L284.773 100.27L286.32 101.602V102.504H281.594L281.422 104.18L281.293 105.598L281.164 106.457H281.895L283.785 104.352L286.062 106.457V107.359H281.035L280.992 107.746L280.82 108.562L280.648 109.207L280.391 109.809L280.047 110.281L279.66 110.711L279.273 111.141L278.844 111.484L278.371 111.785L277.898 112L277.34 112.172L276.824 112.344L276.223 112.387L275.664 112.43V111.055L271.066 110.367V109.68H275.664L276.008 109.637L276.266 109.594L276.824 109.465L277.039 109.336L277.211 109.207L277.426 109.035L277.641 108.863L277.812 108.648L278.027 108.348L278.113 107.961L278.199 107.359H276.094L276.051 107.531L274.848 107.359H270.98L270.465 110.324L267.5 111.184L269.047 102.504H266.211V101.602H269.176L270.207 95.8008L269.434 96.875L268.617 97.7773L267.801 98.6367L266.898 99.4102L265.91 100.098L265.609 99.7969L267.414 96.875L268.445 94.8984L269.348 92.8789L270.078 90.7305L270.336 89.6133L270.465 89.2695L273 90.4297L273.516 91.0742L272.656 91.332L272.012 92.75L271.84 93.0508H279.145L281.465 90.7305L284.215 93.0508V93.9531H271.367L270.895 94.7266L272.656 96.0586H274.805L274.848 95.8438L276.223 96.0586H279.359L280.777 94.8984L283.312 96.9609L282.152 97.9062H282.023L281.766 100.828L281.723 101.602H283.012L284.129 100.355L284.086 100.27L284.473 99.4961L285.16 97.7773L285.461 96.875L285.719 95.8867L285.977 94.8555L286.148 93.6953L286.32 92.4922L286.406 91.2461L286.535 89.9141L286.578 89.3984L289.285 90.1719L289.93 90.6875L289.113 91.1172L289.027 91.5898L288.77 92.9648L288.426 94.2109L288.254 94.6406H297.148L299.469 92.3633L302.262 94.6406V95.5859H298.48L297.922 97.8203L297.105 100.098L296.117 102.203L294.957 104.137L294.27 104.996L295.816 106.242L297.32 107.188L298.953 108.004L302.262 109.293L299.598 111.527L297.664 110.582L295.859 109.508L294.227 108.262L292.766 106.844L292.723 106.758L292.035 107.445L290.273 108.777L288.383 109.895L286.32 110.797L284.086 111.484L283.914 111.098L284.129 110.969H283.785L281.852 112.773L280.391 113.934L279.617 114.449L278.844 114.922L278.027 115.395L279.059 116.254L279.617 116.855L279.832 117.844L279.316 118.746L282.797 118.574H282.969L285.375 115.609L289.5 110.539L289.586 110.453L291.562 112.387L291.777 113.203L290.875 113.074L289.156 114.621L285.676 117.543L284.73 118.23L284.387 118.488L285.805 118.402L291.82 118.145L294.828 118.016H295.816L293.152 115.781L292.164 115.051L292.379 114.664ZM279.66 124.547L279.703 125.32L278.844 124.977L275.793 126.266L271.926 127.598L269.133 128.414L267.629 128.715L266.039 129.016L265.91 128.629L273.688 124.762L276.867 123L277.812 122.441L279.66 124.547ZM292.809 103.492L293.152 103.02L294.055 101.215L294.828 99.2383L295.387 97.1328L295.645 95.5859H288.512L289.156 97.3477L290.016 99.2383L290.961 100.957L292.035 102.504L292.809 103.492ZM273.387 106.457L273.945 102.504H271.84L271.152 106.457H273.387ZM276.18 106.457H278.371L278.672 103.879L278.844 102.504H276.738L276.18 106.457ZM274.074 101.602L274.676 96.9609H272.828L272.012 101.602H274.074ZM276.867 101.602H278.93L279.188 98.5938L279.316 96.9609H277.469L276.867 101.602ZM346.262 125.406L347.078 125.922L347.637 126.781L347.078 127.598L346.262 128.156H334.016L333.414 128.113L332.812 128.027L332.254 127.812L331.738 127.512L331.266 127.168L330.922 126.695L330.621 126.18L330.406 125.621L330.32 125.02V124.461V101.602L333.07 102.031L333.758 102.504L333.07 102.977V113.332L336.852 111.27L339.344 109.723L341.75 108.047L344.07 106.156L345.746 108.348L345.789 109.207L344.93 108.906L343.125 110.109L340.418 111.57L339 112.258L337.625 112.859L336.207 113.375L334.746 113.848L333.242 114.191L333.07 114.234V124.719L333.113 124.934L333.199 125.148L333.285 125.234L333.5 125.32L333.715 125.363H334.016H344.93L346.262 119.605H346.691L346.262 125.406ZM320.824 110.582V127.684L318.074 129.059V111.656L316.098 113.59L314.25 115.137L312.359 116.555L310.34 117.887L308.234 119.09L307.977 118.746L309.824 117.199L313.219 113.977L314.852 112.301L316.398 110.582L317.859 108.82L319.234 107.016L320.566 105.082L321.812 103.105L323.102 100.871L325.379 102.461L325.723 103.234L324.863 103.277L324.047 104.566L322.586 106.5L321.082 108.391L320.051 109.551L320.824 109.68L321.512 110.152L320.824 110.582ZM335.777 90.1289V94.2539H342.824L345.102 91.9336L347.895 94.2539V95.1562H335.777V99.5391L333.027 100.914V95.1562H322.973V99.5391L320.18 100.914V95.1562H308.105V94.2539H320.18V88.7539L322.973 89.2266L323.66 89.6562L322.973 90.1289V94.2539H333.027V88.7539L335.777 89.2266L336.465 89.6562L335.777 90.1289Z" fill="white"/>
</svg>
