<svg width="361" height="206" viewBox="0 0 361 206" fill="none" xmlns="http://www.w3.org/2000/svg">
<path d="M41.108 49.68C37.5373 49.68 34.5907 47.028 32.268 41.724C32.1987 41.5507 32.0947 41.516 31.956 41.62C29.148 43.9773 26.964 45.5547 25.404 46.352C23.0813 47.5307 21.4693 47.184 20.568 45.312C19.6667 43.4053 20.256 41.776 22.336 40.424L29.512 35.796C29.8587 35.588 29.98 35.2933 29.876 34.912C28.8707 31.2373 28.056 26.9213 27.432 21.964C27.3973 21.6867 27.2413 21.548 26.964 21.548H17.084C16.9107 21.548 16.824 21.6347 16.824 21.808V27.216C16.824 27.3893 16.9107 27.4587 17.084 27.424L20.724 26.748C23.2893 26.2973 24.7453 26.9907 25.092 28.828C25.4387 30.6653 24.3467 31.844 21.816 32.364L17.292 33.248C16.98 33.3173 16.824 33.508 16.824 33.82V42.244C16.824 43.9427 16.616 45.2427 16.2 46.144C15.784 47.08 15.316 47.6693 14.796 47.912C14.276 48.1547 13.444 48.5707 12.3 49.16C11.7107 49.4373 10.0987 49.5587 7.464 49.524C4.82933 49.4893 3.54667 48.432 3.616 46.352C3.68533 44.3067 4.17067 43.3187 5.072 43.388C5.97333 43.4227 6.71867 43.4227 7.308 43.388C8.66 43.3187 9.45733 43.284 9.7 43.284C9.94267 43.284 10.1507 43.2147 10.324 43.076C10.4973 42.9027 10.584 42.608 10.584 42.192V34.912C10.584 34.7387 10.4973 34.6693 10.324 34.704L5.02 35.796C2.45467 36.2813 0.981333 35.484 0.6 33.404C0.218667 31.2893 1.31067 30.024 3.876 29.608L10.168 28.568C10.4453 28.5333 10.584 28.3773 10.584 28.1V21.808C10.584 21.6347 10.4973 21.548 10.324 21.548H4.656C2.056 21.548 0.756 20.56 0.756 18.584C0.756 16.6427 2.056 15.672 4.656 15.672H10.324C10.4973 15.672 10.584 15.5853 10.584 15.412V10.004C10.584 9.83066 10.4973 9.76133 10.324 9.796L5.592 10.42C3.02667 10.7667 1.62267 10.056 1.38 8.288C1.13733 6.52 2.29867 5.46267 4.864 5.116C10.168 4.388 14.7267 3.4 18.54 2.152C21.0013 1.35466 22.544 1.944 23.168 3.92C23.792 5.93066 23.7227 7.05733 22.96 7.3C22.1973 7.508 20.308 7.924 17.292 8.548C16.98 8.61733 16.824 8.808 16.824 9.12V15.412C16.824 15.5853 16.9107 15.672 17.084 15.672H26.548C26.7213 15.672 26.808 15.5853 26.808 15.412C26.4613 11.5987 26.2707 8.25333 26.236 5.376C26.2013 2.776 27.2587 1.476 29.408 1.476C31.592 1.476 32.6493 2.79333 32.58 5.428C32.5453 7.36933 32.736 10.6627 33.152 15.308C33.1867 15.5507 33.3253 15.672 33.568 15.672H43.448C46.048 15.672 47.348 16.6427 47.348 18.584C47.348 20.56 46.048 21.548 43.448 21.548H34.088C33.9147 21.548 33.8453 21.6347 33.88 21.808C34.2613 24.7547 34.7293 27.5107 35.284 30.076C35.3187 30.2493 35.388 30.2667 35.492 30.128C37.468 27.7707 38.4907 26.54 38.56 26.436C39.808 24.148 41.2813 23.4893 42.98 24.46C44.7133 25.396 44.956 27.008 43.708 29.296C42.772 30.96 40.744 33.352 37.624 36.472C37.2773 36.8187 37.1907 37.2173 37.364 37.668C38.6813 41.4813 40.12 43.388 41.68 43.388C42.7547 43.388 43.3267 42.3827 43.396 40.372C43.5347 37.7373 44.488 36.4893 46.256 36.628C48.024 36.7667 48.7693 38.136 48.492 40.736C48.18 43.5787 47.4693 45.78 46.36 47.34C45.2853 48.9 43.5347 49.68 41.108 49.68ZM44.384 12.344C42.6507 13.384 41.6453 13.6613 41.368 13.176C41.0907 12.656 40.2413 11.5813 38.82 9.952C37.3987 8.32267 36.4107 7.26533 35.856 6.78C35.336 6.29467 35.6827 5.35867 36.896 3.972C38.0747 2.62 39.652 2.79333 41.628 4.492C43.7427 6.32933 44.852 7.31733 44.956 7.456C46.3427 9.70933 46.152 11.3387 44.384 12.344ZM59.36 49.472C57.384 49.472 56.396 48.172 56.396 45.572V25.344C56.396 25.1707 56.344 25.1533 56.24 25.292C55.6853 26.0547 54.5587 25.7947 52.86 24.512C51.1613 23.2293 51.1093 21.548 52.704 19.468C53.7093 18.1853 55.0267 15.7587 56.656 12.188C58.2853 8.61733 59.256 6.208 59.568 4.96C60.2613 2.42933 61.5613 1.44133 63.468 1.996C65.3747 2.516 65.9467 4.04133 65.184 6.572C64.8027 7.88933 64.0227 9.9 62.844 12.604C62.4627 13.54 62.272 14.5107 62.272 15.516V45.572C62.272 48.172 61.3013 49.472 59.36 49.472ZM69.5 49.42C67.4893 49.42 66.484 48.12 66.484 45.52V16.244C66.484 13.644 67.4893 12.344 69.5 12.344C71.5107 12.344 72.516 13.644 72.516 16.244V45.52C72.516 48.12 71.5107 49.42 69.5 49.42ZM89.364 49.316C87.3187 49.3853 86.3133 48.4667 86.348 46.56C86.3827 44.688 86.8333 43.7867 87.7 43.856C88.6013 43.8907 89.416 43.8907 90.144 43.856C90.872 43.7867 91.4267 43.752 91.808 43.752C92.1893 43.752 92.38 43.3707 92.38 42.608V8.496C92.38 8.32267 92.2933 8.236 92.12 8.236H83.696C81.096 8.236 79.796 7.3 79.796 5.428C79.796 3.59067 81.096 2.672 83.696 2.672H94.616C97.216 2.672 98.516 3.972 98.516 6.572V42.712C98.516 44.272 98.308 45.468 97.892 46.3C97.5107 47.1667 96.8693 47.8253 95.968 48.276C95.0667 48.7267 94.5467 48.952 94.408 48.952C93.056 49.1253 91.6867 49.2293 90.3 49.264L89.364 49.316ZM77.3 12.136C75.4973 12.968 74.3707 12.8467 73.92 11.772C73.4693 10.6627 72.516 9.068 71.06 6.988C69.604 4.83867 69.6213 3.244 71.112 2.204C72.568 1.164 74.0587 1.70133 75.584 3.816C77.352 6.24266 78.5133 8.028 79.068 9.172C79.6573 10.316 79.068 11.304 77.3 12.136ZM114.116 49.472C112.001 49.472 110.944 48.172 110.944 45.572V31.636C110.944 31.4627 110.875 31.428 110.736 31.532C109.523 32.7107 108.535 33.56 107.772 34.08C107.044 34.5653 106.073 33.872 104.86 32C103.612 30.1627 104.08 28.5333 106.264 27.112C109.453 25.032 112.747 20.7507 116.144 14.268C116.213 14.1293 116.161 14.06 115.988 14.06H108.864C106.264 14.06 104.964 13.072 104.964 11.096C104.964 9.12 106.264 8.132 108.864 8.132H118.38C118.796 8.132 119.073 7.94133 119.212 7.56C120.044 5.272 120.599 3.59067 120.876 2.516C121.153 1.40666 122.367 1.164 124.516 1.788C126.631 2.44666 127.255 4.024 126.388 6.52L125.92 7.872C125.851 8.04533 125.903 8.132 126.076 8.132H147.24C149.84 8.132 151.14 9.12 151.14 11.096C151.14 13.072 149.84 14.06 147.24 14.06H124.048C123.563 14.06 123.216 14.2853 123.008 14.736C121.309 18.2373 119.628 21.0973 117.964 23.316C117.479 23.9747 117.236 24.72 117.236 25.552V45.572C117.236 48.172 116.196 49.472 114.116 49.472ZM123.736 48.224C121.136 48.224 119.836 47.2707 119.836 45.364C119.836 43.4573 121.136 42.504 123.736 42.504H132.16C132.333 42.504 132.42 42.4173 132.42 42.244V30.908C132.42 30.7347 132.333 30.648 132.16 30.648H125.764C123.164 30.648 121.864 29.6947 121.864 27.788C121.864 25.8813 123.164 24.928 125.764 24.928H132.16C132.333 24.928 132.42 24.8413 132.42 24.668V20.196C132.42 17.596 133.46 16.296 135.54 16.296C137.62 16.296 138.66 17.596 138.66 20.196V24.668C138.66 24.8413 138.747 24.928 138.92 24.928H145.056C147.656 24.928 148.956 25.8813 148.956 27.788C148.956 29.6947 147.656 30.648 145.056 30.648H138.92C138.747 30.648 138.66 30.7347 138.66 30.908V42.244C138.66 42.4173 138.747 42.504 138.92 42.504H147.084C149.684 42.504 150.984 43.4573 150.984 45.364C150.984 47.2707 149.684 48.224 147.084 48.224H123.736ZM172.044 49.212C169.687 49.2813 168.525 48.3107 168.56 46.3C168.56 44.324 169.201 43.3707 170.484 43.44C171.801 43.5093 172.755 43.5267 173.344 43.492C174.696 43.4227 175.493 43.388 175.736 43.388C176.013 43.388 176.239 43.3187 176.412 43.18C176.62 43.0413 176.724 42.7987 176.724 42.452V36.212C176.724 36.0387 176.637 35.952 176.464 35.952H160.812C158.212 35.952 156.912 34.9987 156.912 33.092C156.912 31.1853 158.212 30.232 160.812 30.232H176.464C176.637 30.232 176.724 30.1453 176.724 29.972C176.724 27.996 177.157 26.8347 178.024 26.488C178.925 26.1413 180.381 25.3613 182.392 24.148C182.531 24.044 182.513 23.992 182.34 23.992H170.12C167.52 23.992 166.22 23.0907 166.22 21.288C166.22 19.52 167.503 18.6013 170.068 18.532L189.152 18.012C191.336 17.9773 192.775 18.584 193.468 19.832C194.196 21.0453 193.676 22.484 191.908 24.148C190.591 25.3267 187.869 26.9213 183.744 28.932C183.293 29.14 183.068 29.4867 183.068 29.972C183.068 30.1453 183.155 30.232 183.328 30.232H199.344C201.944 30.232 203.244 31.1853 203.244 33.092C203.244 34.9987 201.944 35.952 199.344 35.952H183.328C183.155 35.952 183.068 36.0387 183.068 36.212V42.608C183.068 44.2373 182.825 45.468 182.34 46.3C181.889 47.1667 181.075 47.808 179.896 48.224C178.752 48.6747 177.972 48.9173 177.556 48.952C176.204 49.056 174.852 49.1253 173.5 49.16L172.044 49.212ZM160.5 20.56C158.559 20.56 157.588 19.26 157.588 16.66V13.072C157.588 10.472 158.888 9.172 161.488 9.172H165.284C165.457 9.172 165.509 9.10267 165.44 8.964C164.712 7.612 164.001 6.50266 163.308 5.636C162.649 4.73466 163.031 3.69466 164.452 2.516C165.839 1.33733 167.399 1.70133 169.132 3.608C170.137 4.71733 170.848 5.77466 171.264 6.78C171.715 7.75067 171.368 8.51333 170.224 9.068C170.051 9.13733 170.051 9.172 170.224 9.172H187.696C188.285 9.172 188.753 8.92933 189.1 8.444C190.625 6.156 191.457 4.87333 191.596 4.596C192.705 2.13466 194.179 1.44133 196.016 2.516C197.888 3.62533 198.009 5.25466 196.38 7.404L195.236 8.964C195.132 9.10267 195.167 9.172 195.34 9.172H198.772C201.372 9.172 202.672 10.472 202.672 13.072V16.66C202.672 19.26 201.667 20.56 199.656 20.56C197.611 20.56 196.588 19.26 196.588 16.66V14.892C196.588 14.7187 196.501 14.632 196.328 14.632H163.672C163.499 14.632 163.412 14.7187 163.412 14.892V16.66C163.412 19.26 162.441 20.56 160.5 20.56ZM181.872 9.276C179.792 10.004 178.284 9.15467 177.348 6.728L177.036 5.896C176.169 3.57333 176.499 1.97866 178.024 1.112C179.549 0.279998 181.057 0.851998 182.548 2.828C183.311 3.79866 183.709 4.35333 183.744 4.492C184.541 6.95333 183.917 8.548 181.872 9.276ZM242.712 48.952C242.4 48.9867 240.84 48.9693 238.032 48.9C235.432 48.796 234.167 47.7907 234.236 45.884C234.34 43.9773 234.843 43.0587 235.744 43.128C236.68 43.1627 238.777 43.18 242.036 43.18C243.041 43.18 243.665 43.024 243.908 42.712C244.151 42.4 244.48 42.036 244.896 41.62C245.312 41.204 245.693 38.4307 246.04 33.3C246.317 29.0707 246.525 21.3747 246.664 10.212C246.664 10.0387 246.577 9.952 246.404 9.952H215.516C212.916 9.952 211.616 8.964 211.616 6.988C211.616 5.012 212.916 4.024 215.516 4.024H249.108C251.708 4.024 252.991 5.324 252.956 7.924C252.817 21.028 252.575 30.0413 252.228 34.964C251.847 40.4067 251.153 43.856 250.148 45.312C249.42 46.3867 248.64 47.1667 247.808 47.652C246.976 48.1373 246.248 48.432 245.624 48.536C245 48.64 244.029 48.7787 242.712 48.952ZM216.66 41.62C214.199 42.5213 212.639 41.9147 211.98 39.8C211.287 37.72 212.205 36.316 214.736 35.588C219.52 34.2013 227.043 31.6707 237.304 27.996C239.765 27.1293 241.325 27.58 241.984 29.348C242.608 31.1507 241.707 32.5027 239.28 33.404L216.66 41.62ZM232.312 24.668C230.856 26.228 229.192 26.072 227.32 24.2C227.112 23.992 224.963 22.3453 220.872 19.26C218.827 17.7 218.376 16.14 219.52 14.58C220.629 13.0547 222.103 12.9333 223.94 14.216C229.452 18.2027 232.589 20.56 233.352 21.288C234.149 21.9813 233.803 23.108 232.312 24.668ZM41.108 127.68C37.5373 127.68 34.5907 125.028 32.268 119.724C32.1987 119.551 32.0947 119.516 31.956 119.62C29.148 121.977 26.964 123.555 25.404 124.352C23.0813 125.531 21.4693 125.184 20.568 123.312C19.6667 121.405 20.256 119.776 22.336 118.424L29.512 113.796C29.8587 113.588 29.98 113.293 29.876 112.912C28.8707 109.237 28.056 104.921 27.432 99.964C27.3973 99.6867 27.2413 99.548 26.964 99.548H17.084C16.9107 99.548 16.824 99.6347 16.824 99.808V105.216C16.824 105.389 16.9107 105.459 17.084 105.424L20.724 104.748C23.2893 104.297 24.7453 104.991 25.092 106.828C25.4387 108.665 24.3467 109.844 21.816 110.364L17.292 111.248C16.98 111.317 16.824 111.508 16.824 111.82V120.244C16.824 121.943 16.616 123.243 16.2 124.144C15.784 125.08 15.316 125.669 14.796 125.912C14.276 126.155 13.444 126.571 12.3 127.16C11.7107 127.437 10.0987 127.559 7.464 127.524C4.82933 127.489 3.54667 126.432 3.616 124.352C3.68533 122.307 4.17067 121.319 5.072 121.388C5.97333 121.423 6.71867 121.423 7.308 121.388C8.66 121.319 9.45733 121.284 9.7 121.284C9.94267 121.284 10.1507 121.215 10.324 121.076C10.4973 120.903 10.584 120.608 10.584 120.192V112.912C10.584 112.739 10.4973 112.669 10.324 112.704L5.02 113.796C2.45467 114.281 0.981333 113.484 0.6 111.404C0.218667 109.289 1.31067 108.024 3.876 107.608L10.168 106.568C10.4453 106.533 10.584 106.377 10.584 106.1V99.808C10.584 99.6347 10.4973 99.548 10.324 99.548H4.656C2.056 99.548 0.756 98.56 0.756 96.584C0.756 94.6427 2.056 93.672 4.656 93.672H10.324C10.4973 93.672 10.584 93.5853 10.584 93.412V88.004C10.584 87.8307 10.4973 87.7613 10.324 87.796L5.592 88.42C3.02667 88.7667 1.62267 88.056 1.38 86.288C1.13733 84.52 2.29867 83.4627 4.864 83.116C10.168 82.388 14.7267 81.4 18.54 80.152C21.0013 79.3547 22.544 79.944 23.168 81.92C23.792 83.9307 23.7227 85.0573 22.96 85.3C22.1973 85.508 20.308 85.924 17.292 86.548C16.98 86.6173 16.824 86.808 16.824 87.12V93.412C16.824 93.5853 16.9107 93.672 17.084 93.672H26.548C26.7213 93.672 26.808 93.5853 26.808 93.412C26.4613 89.5987 26.2707 86.2533 26.236 83.376C26.2013 80.776 27.2587 79.476 29.408 79.476C31.592 79.476 32.6493 80.7933 32.58 83.428C32.5453 85.3693 32.736 88.6627 33.152 93.308C33.1867 93.5507 33.3253 93.672 33.568 93.672H43.448C46.048 93.672 47.348 94.6427 47.348 96.584C47.348 98.56 46.048 99.548 43.448 99.548H34.088C33.9147 99.548 33.8453 99.6347 33.88 99.808C34.2613 102.755 34.7293 105.511 35.284 108.076C35.3187 108.249 35.388 108.267 35.492 108.128C37.468 105.771 38.4907 104.54 38.56 104.436C39.808 102.148 41.2813 101.489 42.98 102.46C44.7133 103.396 44.956 105.008 43.708 107.296C42.772 108.96 40.744 111.352 37.624 114.472C37.2773 114.819 37.1907 115.217 37.364 115.668C38.6813 119.481 40.12 121.388 41.68 121.388C42.7547 121.388 43.3267 120.383 43.396 118.372C43.5347 115.737 44.488 114.489 46.256 114.628C48.024 114.767 48.7693 116.136 48.492 118.736C48.18 121.579 47.4693 123.78 46.36 125.34C45.2853 126.9 43.5347 127.68 41.108 127.68ZM44.384 90.344C42.6507 91.384 41.6453 91.6613 41.368 91.176C41.0907 90.656 40.2413 89.5813 38.82 87.952C37.3987 86.3227 36.4107 85.2653 35.856 84.78C35.336 84.2947 35.6827 83.3587 36.896 81.972C38.0747 80.62 39.652 80.7933 41.628 82.492C43.7427 84.3293 44.852 85.3173 44.956 85.456C46.3427 87.7093 46.152 89.3387 44.384 90.344ZM59.36 127.472C57.384 127.472 56.396 126.172 56.396 123.572V103.344C56.396 103.171 56.344 103.153 56.24 103.292C55.6853 104.055 54.5587 103.795 52.86 102.512C51.1613 101.229 51.1093 99.548 52.704 97.468C53.7093 96.1853 55.0267 93.7587 56.656 90.188C58.2853 86.6173 59.256 84.208 59.568 82.96C60.2613 80.4293 61.5613 79.4413 63.468 79.996C65.3747 80.516 65.9467 82.0413 65.184 84.572C64.8027 85.8893 64.0227 87.9 62.844 90.604C62.4627 91.54 62.272 92.5107 62.272 93.516V123.572C62.272 126.172 61.3013 127.472 59.36 127.472ZM69.5 127.42C67.4893 127.42 66.484 126.12 66.484 123.52V94.244C66.484 91.644 67.4893 90.344 69.5 90.344C71.5107 90.344 72.516 91.644 72.516 94.244V123.52C72.516 126.12 71.5107 127.42 69.5 127.42ZM89.364 127.316C87.3187 127.385 86.3133 126.467 86.348 124.56C86.3827 122.688 86.8333 121.787 87.7 121.856C88.6013 121.891 89.416 121.891 90.144 121.856C90.872 121.787 91.4267 121.752 91.808 121.752C92.1893 121.752 92.38 121.371 92.38 120.608V86.496C92.38 86.3227 92.2933 86.236 92.12 86.236H83.696C81.096 86.236 79.796 85.3 79.796 83.428C79.796 81.5907 81.096 80.672 83.696 80.672H94.616C97.216 80.672 98.516 81.972 98.516 84.572V120.712C98.516 122.272 98.308 123.468 97.892 124.3C97.5107 125.167 96.8693 125.825 95.968 126.276C95.0667 126.727 94.5467 126.952 94.408 126.952C93.056 127.125 91.6867 127.229 90.3 127.264L89.364 127.316ZM77.3 90.136C75.4973 90.968 74.3707 90.8467 73.92 89.772C73.4693 88.6627 72.516 87.068 71.06 84.988C69.604 82.8387 69.6213 81.244 71.112 80.204C72.568 79.164 74.0587 79.7013 75.584 81.816C77.352 84.2427 78.5133 86.028 79.068 87.172C79.6573 88.316 79.068 89.304 77.3 90.136ZM114.116 127.472C112.001 127.472 110.944 126.172 110.944 123.572V109.636C110.944 109.463 110.875 109.428 110.736 109.532C109.523 110.711 108.535 111.56 107.772 112.08C107.044 112.565 106.073 111.872 104.86 110C103.612 108.163 104.08 106.533 106.264 105.112C109.453 103.032 112.747 98.7507 116.144 92.268C116.213 92.1293 116.161 92.06 115.988 92.06H108.864C106.264 92.06 104.964 91.072 104.964 89.096C104.964 87.12 106.264 86.132 108.864 86.132H118.38C118.796 86.132 119.073 85.9413 119.212 85.56C120.044 83.272 120.599 81.5907 120.876 80.516C121.153 79.4067 122.367 79.164 124.516 79.788C126.631 80.4467 127.255 82.024 126.388 84.52L125.92 85.872C125.851 86.0453 125.903 86.132 126.076 86.132H147.24C149.84 86.132 151.14 87.12 151.14 89.096C151.14 91.072 149.84 92.06 147.24 92.06H124.048C123.563 92.06 123.216 92.2853 123.008 92.736C121.309 96.2373 119.628 99.0973 117.964 101.316C117.479 101.975 117.236 102.72 117.236 103.552V123.572C117.236 126.172 116.196 127.472 114.116 127.472ZM123.736 126.224C121.136 126.224 119.836 125.271 119.836 123.364C119.836 121.457 121.136 120.504 123.736 120.504H132.16C132.333 120.504 132.42 120.417 132.42 120.244V108.908C132.42 108.735 132.333 108.648 132.16 108.648H125.764C123.164 108.648 121.864 107.695 121.864 105.788C121.864 103.881 123.164 102.928 125.764 102.928H132.16C132.333 102.928 132.42 102.841 132.42 102.668V98.196C132.42 95.596 133.46 94.296 135.54 94.296C137.62 94.296 138.66 95.596 138.66 98.196V102.668C138.66 102.841 138.747 102.928 138.92 102.928H145.056C147.656 102.928 148.956 103.881 148.956 105.788C148.956 107.695 147.656 108.648 145.056 108.648H138.92C138.747 108.648 138.66 108.735 138.66 108.908V120.244C138.66 120.417 138.747 120.504 138.92 120.504H147.084C149.684 120.504 150.984 121.457 150.984 123.364C150.984 125.271 149.684 126.224 147.084 126.224H123.736ZM163.048 124.664C161.592 126.813 159.928 127.281 158.056 126.068C156.184 124.855 155.941 123.156 157.328 120.972C157.848 120.175 158.437 117.557 159.096 113.12C159.547 110.104 159.772 106.36 159.772 101.888V90.604C159.772 88.004 161.072 86.704 163.672 86.704H180.728C180.901 86.704 180.988 86.6173 180.988 86.444L180.884 83.012C180.815 80.412 181.872 79.0773 184.056 79.008C186.205 78.9733 187.297 80.256 187.332 82.856L187.384 86.444C187.384 86.6173 187.471 86.704 187.644 86.704H199.916C202.516 86.704 203.816 87.7267 203.816 89.772C203.816 91.8173 202.516 92.84 199.916 92.84H188.008C187.835 92.84 187.748 92.9267 187.748 93.1C188.199 98.092 188.875 102.668 189.776 106.828C189.811 107.001 189.88 107.019 189.984 106.88C192.029 103.344 193.295 100.779 193.78 99.184C194.508 96.6533 195.877 95.7 197.888 96.324C199.933 96.948 200.557 98.508 199.76 101.004C198.477 105.06 196.085 109.463 192.584 114.212C192.237 114.663 192.168 115.148 192.376 115.668C193.763 119.1 195.271 120.816 196.9 120.816C197.524 120.816 197.992 120.105 198.304 118.684C198.651 117.263 198.841 116.015 198.876 114.94C198.945 113.865 199.881 113.397 201.684 113.536C203.521 113.675 204.301 115.044 204.024 117.644C203.712 120.695 202.967 123.069 201.788 124.768C200.679 126.328 198.876 127.108 196.38 127.108C192.983 127.108 190.088 124.889 187.696 120.452C187.627 120.313 187.54 120.313 187.436 120.452C184.905 123.052 182.981 124.751 181.664 125.548C179.445 126.935 177.781 126.657 176.672 124.716C175.563 122.809 176.152 121.232 178.44 119.984C179.723 119.291 181.699 117.436 184.368 114.42C184.749 114.004 184.853 113.519 184.68 112.964C183.189 108.007 182.097 101.42 181.404 93.204C181.369 92.9613 181.231 92.84 180.988 92.84H166.532C166.359 92.84 166.272 92.9267 166.272 93.1V98.144C166.272 98.3173 166.359 98.404 166.532 98.404H175.216C177.816 98.404 179.099 99.704 179.064 102.304C178.995 106.949 178.856 110.451 178.648 112.808C178.405 115.408 178.128 116.899 177.816 117.28C177.539 117.627 177.019 118.303 176.256 119.308C176.187 119.412 175.372 119.603 173.812 119.88C172.737 120.053 171.732 120.123 170.796 120.088C168.196 120.053 166.931 119.083 167 117.176C167.069 115.269 168.179 114.368 170.328 114.472C170.501 114.472 170.761 114.472 171.108 114.472C171.455 114.472 171.715 114.368 171.888 114.16C172.061 113.952 172.252 113.692 172.46 113.38C172.703 113.068 172.893 110.052 173.032 104.332C173.032 104.159 172.945 104.072 172.772 104.072H166.584C166.376 104.072 166.272 104.176 166.272 104.384C165.96 115.165 164.885 121.925 163.048 124.664ZM199.084 86.132C197.871 87.5533 196.259 87.4493 194.248 85.82C193.416 85.1613 192.827 84.728 192.48 84.52C190.296 83.168 189.62 81.764 190.452 80.308C191.284 78.852 192.844 78.696 195.132 79.84C197.073 80.8453 198.512 81.7987 199.448 82.7C200.419 83.6013 200.297 84.7453 199.084 86.132ZM221.34 125.86C219.017 126.519 217.388 126.016 216.452 124.352C215.516 122.688 215.481 121.648 216.348 121.232C217.215 120.781 217.648 119.637 217.648 117.8V104.904C217.648 104.731 217.561 104.644 217.388 104.644H212.708C210.108 104.644 208.808 103.604 208.808 101.524C208.808 99.4787 210.108 98.456 212.708 98.456H217.388C217.561 98.456 217.648 98.3693 217.648 98.196V83.064C217.648 80.464 218.74 79.164 220.924 79.164C223.108 79.164 224.2 80.464 224.2 83.064V98.196C224.2 98.3693 224.287 98.456 224.46 98.456H251.396C253.996 98.456 255.296 99.4787 255.296 101.524C255.296 103.604 253.996 104.644 251.396 104.644H237.356C237.183 104.644 237.131 104.713 237.2 104.852C240.944 112.583 245.676 117.176 251.396 118.632C253.961 119.291 254.915 120.712 254.256 122.896C253.632 125.115 252.072 125.825 249.576 125.028C246.04 123.884 242.487 121.509 238.916 117.904C235.553 114.507 232.901 110.295 230.96 105.268C230.787 104.852 230.475 104.644 230.024 104.644H224.46C224.287 104.644 224.2 104.731 224.2 104.904V118.008C224.2 118.181 224.287 118.251 224.46 118.216L231.22 116.76C233.751 116.205 235.241 116.899 235.692 118.84C236.143 120.747 235.12 122.047 232.624 122.74L221.34 125.86ZM234.132 95.232C231.74 96.3413 230.111 95.8733 229.244 93.828C228.412 91.748 229.14 90.1533 231.428 89.044L235.172 87.224C236.281 86.6693 237.373 86.08 238.448 85.456C240.805 84.0347 242.383 82.8907 243.18 82.024C244.913 80.0827 246.577 79.84 248.172 81.296C249.801 82.752 249.732 84.4333 247.964 86.34C247.825 86.5133 245.884 87.8827 242.14 90.448C238.708 92.7707 236.039 94.3653 234.132 95.232ZM41.108 205.68C37.5373 205.68 34.5907 203.028 32.268 197.724C32.1987 197.551 32.0947 197.516 31.956 197.62C29.148 199.977 26.964 201.555 25.404 202.352C23.0813 203.531 21.4693 203.184 20.568 201.312C19.6667 199.405 20.256 197.776 22.336 196.424L29.512 191.796C29.8587 191.588 29.98 191.293 29.876 190.912C28.8707 187.237 28.056 182.921 27.432 177.964C27.3973 177.687 27.2413 177.548 26.964 177.548H17.084C16.9107 177.548 16.824 177.635 16.824 177.808V183.216C16.824 183.389 16.9107 183.459 17.084 183.424L20.724 182.748C23.2893 182.297 24.7453 182.991 25.092 184.828C25.4387 186.665 24.3467 187.844 21.816 188.364L17.292 189.248C16.98 189.317 16.824 189.508 16.824 189.82V198.244C16.824 199.943 16.616 201.243 16.2 202.144C15.784 203.08 15.316 203.669 14.796 203.912C14.276 204.155 13.444 204.571 12.3 205.16C11.7107 205.437 10.0987 205.559 7.464 205.524C4.82933 205.489 3.54667 204.432 3.616 202.352C3.68533 200.307 4.17067 199.319 5.072 199.388C5.97333 199.423 6.71867 199.423 7.308 199.388C8.66 199.319 9.45733 199.284 9.7 199.284C9.94267 199.284 10.1507 199.215 10.324 199.076C10.4973 198.903 10.584 198.608 10.584 198.192V190.912C10.584 190.739 10.4973 190.669 10.324 190.704L5.02 191.796C2.45467 192.281 0.981333 191.484 0.6 189.404C0.218667 187.289 1.31067 186.024 3.876 185.608L10.168 184.568C10.4453 184.533 10.584 184.377 10.584 184.1V177.808C10.584 177.635 10.4973 177.548 10.324 177.548H4.656C2.056 177.548 0.756 176.56 0.756 174.584C0.756 172.643 2.056 171.672 4.656 171.672H10.324C10.4973 171.672 10.584 171.585 10.584 171.412V166.004C10.584 165.831 10.4973 165.761 10.324 165.796L5.592 166.42C3.02667 166.767 1.62267 166.056 1.38 164.288C1.13733 162.52 2.29867 161.463 4.864 161.116C10.168 160.388 14.7267 159.4 18.54 158.152C21.0013 157.355 22.544 157.944 23.168 159.92C23.792 161.931 23.7227 163.057 22.96 163.3C22.1973 163.508 20.308 163.924 17.292 164.548C16.98 164.617 16.824 164.808 16.824 165.12V171.412C16.824 171.585 16.9107 171.672 17.084 171.672H26.548C26.7213 171.672 26.808 171.585 26.808 171.412C26.4613 167.599 26.2707 164.253 26.236 161.376C26.2013 158.776 27.2587 157.476 29.408 157.476C31.592 157.476 32.6493 158.793 32.58 161.428C32.5453 163.369 32.736 166.663 33.152 171.308C33.1867 171.551 33.3253 171.672 33.568 171.672H43.448C46.048 171.672 47.348 172.643 47.348 174.584C47.348 176.56 46.048 177.548 43.448 177.548H34.088C33.9147 177.548 33.8453 177.635 33.88 177.808C34.2613 180.755 34.7293 183.511 35.284 186.076C35.3187 186.249 35.388 186.267 35.492 186.128C37.468 183.771 38.4907 182.54 38.56 182.436C39.808 180.148 41.2813 179.489 42.98 180.46C44.7133 181.396 44.956 183.008 43.708 185.296C42.772 186.96 40.744 189.352 37.624 192.472C37.2773 192.819 37.1907 193.217 37.364 193.668C38.6813 197.481 40.12 199.388 41.68 199.388C42.7547 199.388 43.3267 198.383 43.396 196.372C43.5347 193.737 44.488 192.489 46.256 192.628C48.024 192.767 48.7693 194.136 48.492 196.736C48.18 199.579 47.4693 201.78 46.36 203.34C45.2853 204.9 43.5347 205.68 41.108 205.68ZM44.384 168.344C42.6507 169.384 41.6453 169.661 41.368 169.176C41.0907 168.656 40.2413 167.581 38.82 165.952C37.3987 164.323 36.4107 163.265 35.856 162.78C35.336 162.295 35.6827 161.359 36.896 159.972C38.0747 158.62 39.652 158.793 41.628 160.492C43.7427 162.329 44.852 163.317 44.956 163.456C46.3427 165.709 46.152 167.339 44.384 168.344ZM59.36 205.472C57.384 205.472 56.396 204.172 56.396 201.572V181.344C56.396 181.171 56.344 181.153 56.24 181.292C55.6853 182.055 54.5587 181.795 52.86 180.512C51.1613 179.229 51.1093 177.548 52.704 175.468C53.7093 174.185 55.0267 171.759 56.656 168.188C58.2853 164.617 59.256 162.208 59.568 160.96C60.2613 158.429 61.5613 157.441 63.468 157.996C65.3747 158.516 65.9467 160.041 65.184 162.572C64.8027 163.889 64.0227 165.9 62.844 168.604C62.4627 169.54 62.272 170.511 62.272 171.516V201.572C62.272 204.172 61.3013 205.472 59.36 205.472ZM69.5 205.42C67.4893 205.42 66.484 204.12 66.484 201.52V172.244C66.484 169.644 67.4893 168.344 69.5 168.344C71.5107 168.344 72.516 169.644 72.516 172.244V201.52C72.516 204.12 71.5107 205.42 69.5 205.42ZM89.364 205.316C87.3187 205.385 86.3133 204.467 86.348 202.56C86.3827 200.688 86.8333 199.787 87.7 199.856C88.6013 199.891 89.416 199.891 90.144 199.856C90.872 199.787 91.4267 199.752 91.808 199.752C92.1893 199.752 92.38 199.371 92.38 198.608V164.496C92.38 164.323 92.2933 164.236 92.12 164.236H83.696C81.096 164.236 79.796 163.3 79.796 161.428C79.796 159.591 81.096 158.672 83.696 158.672H94.616C97.216 158.672 98.516 159.972 98.516 162.572V198.712C98.516 200.272 98.308 201.468 97.892 202.3C97.5107 203.167 96.8693 203.825 95.968 204.276C95.0667 204.727 94.5467 204.952 94.408 204.952C93.056 205.125 91.6867 205.229 90.3 205.264L89.364 205.316ZM77.3 168.136C75.4973 168.968 74.3707 168.847 73.92 167.772C73.4693 166.663 72.516 165.068 71.06 162.988C69.604 160.839 69.6213 159.244 71.112 158.204C72.568 157.164 74.0587 157.701 75.584 159.816C77.352 162.243 78.5133 164.028 79.068 165.172C79.6573 166.316 79.068 167.304 77.3 168.136ZM110.58 203.756C108.431 205.281 106.784 205.177 105.64 203.444C104.531 201.711 105.085 200.168 107.304 198.816C109.8 197.256 111.447 194.119 112.244 189.404C112.695 186.804 113.943 185.712 115.988 186.128C118.033 186.579 118.727 188.069 118.068 190.6C117.964 191.016 118.085 191.588 118.432 192.316C119.576 194.812 121.812 196.58 125.14 197.62C125.313 197.689 125.4 197.637 125.4 197.464V184.776C125.4 184.603 125.313 184.516 125.14 184.516H109.02C106.42 184.516 105.12 183.597 105.12 181.76C105.12 179.957 106.42 179.056 109.02 179.056H147.084C149.684 179.056 150.984 179.957 150.984 181.76C150.984 183.597 149.684 184.516 147.084 184.516H131.952C131.779 184.516 131.692 184.603 131.692 184.776V188.156C131.692 188.329 131.779 188.416 131.952 188.416H143.808C146.408 188.416 147.708 189.3 147.708 191.068C147.708 192.871 146.408 193.772 143.808 193.772H131.952C131.779 193.772 131.692 193.859 131.692 194.032V198.556C131.692 198.729 131.779 198.816 131.952 198.816H147.5C150.1 198.816 151.4 199.804 151.4 201.78C151.4 203.721 150.1 204.692 147.5 204.692H135.54C130.375 204.692 126.336 204.224 123.424 203.288C119.992 202.179 117.305 200.272 115.364 197.568C115.26 197.429 115.173 197.429 115.104 197.568C113.267 200.896 111.759 202.959 110.58 203.756ZM113.856 176.768C111.256 176.768 109.956 175.468 109.956 172.868V162.624C109.956 160.024 111.256 158.724 113.856 158.724H142.144C144.744 158.724 146.044 160.024 146.044 162.624V172.868C146.044 175.468 144.744 176.768 142.144 176.768H113.856ZM115.936 172.14C115.936 172.313 116.023 172.4 116.196 172.4H139.492C139.665 172.4 139.752 172.313 139.752 172.14V170.008C139.752 169.835 139.665 169.748 139.492 169.748H116.196C116.023 169.748 115.936 169.835 115.936 170.008V172.14ZM115.936 165.432C115.936 165.605 116.023 165.692 116.196 165.692H139.492C139.665 165.692 139.752 165.605 139.752 165.432V163.352C139.752 163.179 139.665 163.092 139.492 163.092H116.196C116.023 163.092 115.936 163.179 115.936 163.352V165.432ZM168.664 205.524C166.515 205.524 165.44 204.224 165.44 201.624V190.028C165.44 189.855 165.371 189.82 165.232 189.924L162.476 191.692C160.223 193.148 158.593 192.923 157.588 191.016C156.583 189.144 157.241 187.601 159.564 186.388C161.02 185.66 163.152 183.771 165.96 180.72C166.064 180.581 166.029 180.512 165.856 180.512H160.448C157.848 180.512 156.548 179.628 156.548 177.86C156.548 176.092 157.848 175.208 160.448 175.208H169.288C169.843 175.208 170.259 174.965 170.536 174.48L171.42 172.972C171.489 172.833 171.437 172.764 171.264 172.764H165.024C162.424 172.764 161.124 171.949 161.124 170.32C161.124 168.691 162.424 167.876 165.024 167.876H173.032C173.413 167.876 173.656 167.703 173.76 167.356L174.228 165.848C174.263 165.675 174.193 165.588 174.02 165.588H163.1C160.5 165.588 159.2 164.721 159.2 162.988C159.2 161.255 160.5 160.388 163.1 160.388H175.008C175.285 160.388 175.441 160.249 175.476 159.972C175.753 157.857 176.984 156.973 179.168 157.32C181.352 157.632 182.323 158.568 182.08 160.128C182.045 160.301 182.115 160.388 182.288 160.388H196.744C199.344 160.388 200.644 161.255 200.644 162.988C200.644 164.721 199.344 165.588 196.744 165.588H181.508C181.127 165.588 180.884 165.761 180.78 166.108L180.364 167.616C180.329 167.789 180.399 167.876 180.572 167.876H195.184C197.784 167.876 199.084 168.691 199.084 170.32C199.084 171.949 197.784 172.764 195.184 172.764H179.168C178.683 172.764 178.336 172.989 178.128 173.44L177.452 174.948C177.383 175.121 177.435 175.208 177.608 175.208H199.656C202.256 175.208 203.556 176.092 203.556 177.86C203.556 179.628 202.256 180.512 199.656 180.512H193.26C193.087 180.512 193.052 180.581 193.156 180.72C196.311 184.117 198.581 186.076 199.968 186.596C202.429 187.497 203.261 188.919 202.464 190.86C201.701 192.801 200.696 193.495 199.448 192.94C198.2 192.385 196.605 191.38 194.664 189.924C194.525 189.82 194.456 189.855 194.456 190.028V201.416C194.456 204.016 193.329 205.316 191.076 205.316C188.788 205.316 187.644 204.744 187.644 203.6C187.644 203.427 187.557 203.34 187.384 203.34H172.148C171.975 203.34 171.888 203.427 171.888 203.6C171.888 204.883 170.813 205.524 168.664 205.524ZM171.888 197.932C171.888 198.105 171.975 198.192 172.148 198.192H187.384C187.557 198.192 187.644 198.105 187.644 197.932V195.592C187.644 195.419 187.557 195.332 187.384 195.332H172.148C171.975 195.332 171.888 195.419 171.888 195.592V197.932ZM171.888 190.548C171.888 190.721 171.975 190.808 172.148 190.808H187.384C187.557 190.808 187.644 190.721 187.644 190.548V188.312C187.644 188.139 187.557 188.052 187.384 188.052H172.148C171.975 188.052 171.888 188.139 171.888 188.312V190.548ZM172.512 182.852C172.408 182.991 172.443 183.06 172.616 183.06H187.54C187.713 183.06 187.748 182.991 187.644 182.852L186.552 181.24C186.205 180.755 185.72 180.512 185.096 180.512H175.112C174.488 180.512 174.003 180.772 173.656 181.292L172.512 182.852ZM214.476 204.276C212.049 205.177 210.472 204.623 209.744 202.612C208.981 200.601 209.831 199.163 212.292 198.296C219.433 195.765 224.269 190.548 226.8 182.644C226.869 182.471 226.817 182.384 226.644 182.384H213.384C210.784 182.384 209.484 181.327 209.484 179.212C209.484 177.097 210.784 176.04 213.384 176.04H227.944C228.117 176.04 228.204 175.953 228.204 175.78L228.36 167.044C228.36 166.871 228.273 166.784 228.1 166.784H215.256C212.656 166.784 211.356 165.727 211.356 163.612C211.356 161.497 212.656 160.44 215.256 160.44H248.64C251.24 160.44 252.54 161.497 252.54 163.612C252.54 165.727 251.24 166.784 248.64 166.784H235.12C234.947 166.784 234.86 166.871 234.86 167.044L234.756 175.78C234.756 175.953 234.843 176.04 235.016 176.04H250.668C253.268 176.04 254.568 177.097 254.568 179.212C254.568 181.327 253.268 182.384 250.668 182.384H236.68C236.507 182.384 236.455 182.471 236.524 182.644C240.337 191.241 245.416 196.372 251.76 198.036C254.291 198.729 255.244 200.151 254.62 202.3C253.996 204.449 252.436 205.125 249.94 204.328C246.959 203.357 243.769 201.364 240.372 198.348C237.148 195.505 234.444 191.952 232.26 187.688C232.191 187.549 232.121 187.567 232.052 187.74C228.793 195.609 222.935 201.121 214.476 204.276ZM281.452 196.268C281.452 198.868 280.152 200.168 277.552 200.168H267.828C267.655 200.168 267.568 200.255 267.568 200.428C267.568 202.785 266.632 203.964 264.76 203.964C262.888 203.964 261.952 202.664 261.952 200.064V169.228C261.952 166.628 263.252 165.328 265.852 165.328H267.308C267.655 165.328 267.88 165.155 267.984 164.808C268.677 162.139 269.076 160.197 269.18 158.984C269.284 157.771 270.411 157.389 272.56 157.84C274.744 158.325 275.385 159.833 274.484 162.364L273.496 165.068C273.427 165.241 273.479 165.328 273.652 165.328H277.552C280.152 165.328 281.452 166.628 281.452 169.228V196.268ZM267.568 194.448C267.568 194.621 267.655 194.708 267.828 194.708H275.576C275.749 194.708 275.836 194.621 275.836 194.448V184.776C275.836 184.603 275.749 184.516 275.576 184.516H267.828C267.655 184.516 267.568 184.603 267.568 184.776V194.448ZM295.7 190.236C293.863 191.137 292.389 190.409 291.28 188.052C291.211 187.913 290.153 186.319 288.108 183.268C286.687 181.119 286.739 179.524 288.264 178.484C289.789 177.409 291.297 177.929 292.788 180.044C295.145 183.268 296.411 185.036 296.584 185.348C297.832 187.671 297.537 189.3 295.7 190.236ZM267.568 178.9C267.568 179.073 267.655 179.16 267.828 179.16H275.576C275.749 179.16 275.836 179.073 275.836 178.9V170.996C275.836 170.823 275.749 170.736 275.576 170.736H267.828C267.655 170.736 267.568 170.823 267.568 170.996V178.9ZM282.96 177.028C281.261 175.849 281.157 174.185 282.648 172.036C284.832 168.847 286.461 165.085 287.536 160.752C288.16 158.221 289.46 157.199 291.436 157.684C293.412 158.169 294.261 158.949 293.984 160.024C293.707 161.099 293.204 162.659 292.476 164.704C292.407 164.877 292.459 164.964 292.632 164.964H303.032C305.667 164.964 306.949 166.281 306.88 168.916C306.568 180.287 306.204 188.173 305.788 192.576C305.337 197.568 304.592 200.723 303.552 202.04C302.859 202.941 302.304 203.496 301.888 203.704C301.507 203.947 301.143 204.155 300.796 204.328C300.449 204.501 299.981 204.64 299.392 204.744C298.837 204.848 297.901 204.987 296.584 205.16C296.376 205.195 295.249 205.177 293.204 205.108C290.569 205.004 289.321 203.981 289.46 202.04C289.599 200.064 289.997 199.111 290.656 199.18C291.349 199.249 293.169 199.284 296.116 199.284C297.052 199.284 297.659 199.145 297.936 198.868C298.248 198.556 298.577 198.192 298.924 197.776C299.305 197.36 299.704 195.02 300.12 190.756C300.536 186.665 300.883 180.027 301.16 170.84C301.16 170.667 301.073 170.58 300.9 170.58H290.708C290.257 170.58 289.945 170.788 289.772 171.204C288.593 173.908 287.917 175.381 287.744 175.624C286.219 177.739 284.624 178.207 282.96 177.028ZM323.884 205.524C321.735 205.524 320.66 204.224 320.66 201.624V188.572C320.66 188.399 320.591 188.364 320.452 188.468L319.724 189.196C317.748 190.999 316.084 191.033 314.732 189.3C313.38 187.567 313.224 186.353 314.264 185.66C315.339 184.932 317.055 183.181 319.412 180.408C321.769 177.6 323.173 175.728 323.624 174.792C324.733 172.435 326.241 171.724 328.148 172.66C330.089 173.596 330.765 174.636 330.176 175.78C329.621 176.889 328.824 178.155 327.784 179.576C327.299 180.269 327.056 181.049 327.056 181.916V201.624C327.056 204.224 325.999 205.524 323.884 205.524ZM344.788 204.64C341.633 204.64 339.501 204.033 338.392 202.82C337.283 201.641 336.728 199.405 336.728 196.112V191.484C336.728 191.311 336.641 191.259 336.468 191.328L334.492 192.16C332.1 193.165 330.557 192.853 329.864 191.224C329.171 189.595 330.003 188.26 332.36 187.22L336.104 185.556C336.52 185.383 336.728 185.053 336.728 184.568V176.456C336.728 173.856 337.785 172.556 339.9 172.556C342.015 172.556 343.072 173.856 343.072 176.456V181.76C343.072 181.933 343.141 181.985 343.28 181.916C347.059 179.836 349.572 178.328 350.82 177.392C352.935 175.832 354.633 175.953 355.916 177.756C357.164 179.559 356.696 181.188 354.512 182.644C352.779 183.753 349.191 185.573 343.748 188.104C343.297 188.312 343.072 188.659 343.072 189.144V196.112C343.072 197.221 343.211 197.932 343.488 198.244C343.8 198.556 344.511 198.712 345.62 198.712H352.068C353.073 198.712 353.732 198.244 354.044 197.308C354.356 196.372 354.529 195.297 354.564 194.084C354.633 192.836 355.656 192.264 357.632 192.368C359.643 192.507 360.527 193.876 360.284 196.476C360.076 198.833 359.417 200.775 358.308 202.3C357.233 203.86 355.327 204.64 352.588 204.64H344.788ZM344.788 171.308C342.639 171.308 341.564 170.077 341.564 167.616C341.564 167.443 341.477 167.356 341.304 167.356H331.008C330.835 167.356 330.748 167.443 330.748 167.616C330.748 170.043 329.708 171.256 327.628 171.256C325.513 171.256 324.456 170.043 324.456 167.616C324.456 167.443 324.369 167.356 324.196 167.356H316.864C314.264 167.356 312.964 166.368 312.964 164.392C312.964 162.416 314.264 161.428 316.864 161.428H324.196C324.369 161.428 324.456 161.341 324.456 161.168V160.856C324.456 158.256 325.513 156.956 327.628 156.956C329.708 156.956 330.748 158.256 330.748 160.856V161.168C330.748 161.341 330.835 161.428 331.008 161.428H341.304C341.477 161.428 341.564 161.341 341.564 161.168V160.856C341.564 158.256 342.639 156.956 344.788 156.956C346.903 156.956 347.96 158.256 347.96 160.856V161.168C347.96 161.341 348.047 161.428 348.22 161.428H355.136C357.736 161.428 359.036 162.416 359.036 164.392C359.036 166.368 357.736 167.356 355.136 167.356H348.22C348.047 167.356 347.96 167.443 347.96 167.616C347.96 170.077 346.903 171.308 344.788 171.308Z" fill="white"/>
</svg>
