<svg width="122" height="32" viewBox="0 0 122 32" fill="none" xmlns="http://www.w3.org/2000/svg">
<path d="M11.54 17.36V11.98H15.34V17.36H11.54ZM4.68 17.36V11.98H8.44V17.36H4.68ZM16.48 9.96001L15.16 11.42H11.54V7.86001C12.1 7.78001 12.24 7.56001 12.28 7.28001L8.44 6.92001V11.42H4.9L1.62 10.18V19.94H2.06C3.32 19.94 4.68 19.26 4.68 18.96V17.92H8.44V25.9H9.02C10.2 25.9 11.54 25.14 11.54 24.84V17.92H15.34V19.6H15.88C16.88 19.6 18.42 19.08 18.44 18.92V12.48C18.86 12.4 19.1 12.2 19.22 12.04L16.48 9.96001Z" fill="#111111"/>
<path d="M27.74 7.06C28.62 8.00001 29.42 9.46001 29.66 10.84C32.48 12.76 34.86 7.28001 27.86 6.96001L27.74 7.06ZM32.94 12.12C32.62 14.74 31.8 17.14 30.28 19.24C28.08 17.56 26.38 15.28 25.5 12.12H32.94ZM38.9 12.12C39.2 12.12 39.42 12.02 39.48 11.8C38.44 10.82 36.62 9.36001 36.62 9.36001L35 11.56H20.94L21.1 12.12H25.16C25.84 15.94 27.12 18.76 28.88 20.9C26.96 22.86 24.3 24.48 20.74 25.68L20.82 25.88C24.84 25.2 27.94 24 30.28 22.34C32.06 23.94 34.22 25.06 36.7 25.92C37.22 24.46 38.24 23.54 39.7 23.32L39.76 23.08C37.12 22.56 34.58 21.78 32.36 20.58C34.58 18.28 35.84 15.42 36.44 12.12H38.9Z" fill="#111111"/>
<path d="M49.1 15.66V9.44001H51.82V15.66H49.1ZM56.16 15.66H54.92V9.44001H58.54C58.82 9.44001 59.04 9.34001 59.1 9.12001C58.2 8.30001 56.66 7.10001 56.66 7.10001L55.32 8.88001H41.9L42.06 9.44001H46.02V15.66H41.06L41.22 16.22H46.02C45.92 19.96 45.1 23.14 40.96 25.72L41.08 25.86C47.96 23.84 48.98 20.04 49.08 16.22H51.82V25.74H52.4C54 25.74 54.92 25.1 54.92 24.92V16.22H59.36C59.64 16.22 59.86 16.12 59.92 15.9C59.08 14.98 57.52 13.52 57.52 13.52L56.16 15.66Z" fill="#111111"/>
<path d="M62.22 7.22001C62.76 8.04001 63.36 9.22001 63.52 10.36C65.94 12.12 68.36 7.60001 62.36 7.12001L62.22 7.22001ZM60.98 11.9C61.5 12.62 62.06 13.72 62.18 14.76C64.46 16.4 66.76 12.14 61.12 11.8L60.98 11.9ZM66.58 9.92001C63.3 18.46 63.3 18.46 62.9 19.24C62.7 19.66 62.6 19.66 62.3 19.66H61.42V20.02C61.84 20.06 62.18 20.16 62.46 20.36C62.94 20.68 63.02 22.76 62.6 24.86C62.8 25.68 63.36 25.92 63.86 25.92C64.94 25.92 65.7 25.18 65.74 24.12C65.8 22.22 64.88 21.58 64.84 20.4C64.82 19.88 64.92 19.12 65.06 18.4C65.26 17.2 66.28 12.52 66.88 9.98001L66.58 9.92001ZM70.52 19.02C70.22 20.66 69.4 23.12 68.26 24.72L68.44 24.92C70.3 23.86 71.76 22.14 72.68 20.68C73.16 20.72 73.34 20.6 73.42 20.38L70.52 19.02ZM76.16 19.54C76.84 20.78 77.6 22.48 77.78 23.98C79.94 25.78 82.06 21.46 76.36 19.44L76.16 19.54ZM76.52 12.34V14.72H72.94V12.34H76.52ZM72.94 17.48V15.28H76.52V17.48H72.94ZM76.34 8.74001H70.04L66.96 7.68001V13.62C66.96 17.48 66.9 22.1 65.34 25.74L65.54 25.86C69.48 22.52 69.64 17.3 69.64 13.62V9.30001H73.22C73.22 10.18 73.18 11.12 73.14 11.78H73.04L70.44 10.76V19H70.8C71.86 19 72.94 18.44 72.94 18.22V18.04H73.48V22.58C73.48 22.78 73.4 22.9 73.14 22.9C72.78 22.9 71.22 22.82 71.22 22.82V23.06C72.1 23.24 72.46 23.54 72.68 23.94C72.92 24.36 73 25.02 73.02 25.92C75.74 25.7 76.14 24.42 76.14 22.64V18.04H76.52V18.76H76.96C77.8 18.76 79.08 18.3 79.1 18.16V12.68C79.44 12.6 79.68 12.46 79.78 12.32L77.46 10.58L76.34 11.78H73.98C74.62 11.36 75.28 10.82 75.84 10.26C76.28 10.22 76.54 10.04 76.62 9.76001L74.5 9.30001H79.64C79.92 9.30001 80.16 9.20001 80.2 8.98001C79.28 8.14001 77.72 6.90001 77.72 6.90001L76.34 8.74001Z" fill="#111111"/>
<path d="M97.84 8.96001L96.4 10.4H91.74C93.54 9.86001 94 6.66001 88.74 6.96001L88.64 7.06C89.42 7.72001 89.9 8.88001 89.88 10C90.14 10.2 90.42 10.32 90.68 10.4H84.66C84.56 10 84.42 9.58001 84.22 9.14001H84C84.02 10 83.12 10.82 82.48 11.14C81.66 11.52 81.08 12.26 81.34 13.26C81.68 14.32 82.98 14.68 83.76 14.18C84.56 13.68 85.02 12.54 84.78 10.96H96.56C96.5 11.66 96.38 12.54 96.24 13.24L94.68 11.9L93.22 13.36H85.12L85.3 13.92H93.14C92.72 14.58 92.16 15.4 91.58 16.06L89.26 15.88V18.36H81.6L81.76 18.92H89.26V22.56C89.26 22.8 89.16 22.92 88.86 22.92C88.34 22.92 85.48 22.74 85.48 22.74V22.98C86.8 23.22 87.28 23.52 87.72 23.96C88.16 24.42 88.28 25.06 88.38 25.98C91.76 25.7 92.26 24.66 92.26 22.7V18.92H99.66C99.94 18.92 100.16 18.82 100.22 18.6C99.26 17.74 97.66 16.48 97.66 16.48L96.24 18.36H92.26V16.7C92.7 16.64 92.9 16.48 92.94 16.18L92.78 16.16C94.06 15.64 95.32 14.96 96.38 14.32C96.8 14.28 97.02 14.22 97.18 14.04L96.56 13.52C97.6 13 98.78 12.2 99.54 11.56C99.96 11.54 100.16 11.48 100.32 11.3L97.84 8.96001Z" fill="#111111"/>
<path d="M105.96 12.46C106.66 11.26 107.26 9.94001 107.8 8.46001C108.28 8.46001 108.54 8.30001 108.62 8.04001L104.72 6.88C104.12 10.74 102.7 14.8 101.28 17.38L101.48 17.52C102.18 17 102.84 16.42 103.46 15.78V25.88H103.98C105.08 25.88 106.26 25.3 106.28 25.1V13.2C106.68 13.12 106.84 13 106.92 12.8L105.96 12.46ZM119.62 12C119.9 12 120.12 11.9 120.18 11.68C119.3 10.8 117.74 9.48001 117.74 9.48001L116.36 11.44H114.68V7.86001C115.24 7.78001 115.38 7.58001 115.42 7.28001L111.8 6.94001V11.44H106.96L107.12 12H110.54C109.88 15.58 108.44 19.52 106.34 22.14L106.54 22.32C108.78 20.78 110.54 18.86 111.8 16.62V21.28H109.06L109.22 21.84H111.8V26.02H112.34C113.44 26.02 114.68 25.3 114.68 25.02V21.84H117.26C117.54 21.84 117.74 21.74 117.8 21.52C117.06 20.7 115.72 19.46 115.72 19.46L114.68 21.04V12C115.3 16.56 116.32 19.92 118.38 22.2C118.82 20.84 119.68 20 120.72 19.78L120.8 19.56C118.42 18.14 116.18 15.44 115.02 12H119.62Z" fill="#111111"/>
</svg>
